<svg viewBox="0 0 381.78 33.95" xmlns="http://www.w3.org/2000/svg"><g fill="#fff"><path d="m8.75 12.85a38.63 38.63 0 0 1 -5.75 3.29 19.75 19.75 0 0 0 -3-4.27 33.28 33.28 0 0 0 14-11.41h5.39a29.52 29.52 0 0 0 14.53 10.64 25.23 25.23 0 0 0 -3.29 4.65 42.26 42.26 0 0 1 -5.63-3.18v2.87h-16.25zm15.54 9.41a44 44 0 0 1 7.39 8.51l-4.76 2.87a22.19 22.19 0 0 0 -1.26-2.07c-8 .46-16.52.84-22.51 1.12l-.66-5c1.61 0 3.39-.1 5.35-.17a46.41 46.41 0 0 0 2.07-5.29h-7.53v-4.69h29.16v4.72zm-1.82-11.48a28.9 28.9 0 0 1 -5.6-5.46 32.1 32.1 0 0 1 -5.35 5.46zm-6.3 11.48c-.87 1.72-1.78 3.5-2.66 5.11l8.54-.31c-.91-1-1.85-2-2.76-2.87l3.71-1.93z"/><path d="m56.46 18.59c-.21.42-.46.84-.7 1.22h13.86s0 1.12-.11 1.68c-.45 6.62-1 9.49-2 10.57a3.71 3.71 0 0 1 -2.51 1.33 20.86 20.86 0 0 1 -3.6.14 10 10 0 0 0 -.84-3.39 18.14 18.14 0 0 1 -3.4 3.64 16 16 0 0 0 -3.6-2.8 18.59 18.59 0 0 0 6.26-7.21h-1.19a27.3 27.3 0 0 1 -8.05 8.43 14.45 14.45 0 0 0 -3.33-3 21.28 21.28 0 0 0 6.65-5.46h-1.22a22.05 22.05 0 0 1 -3.68 3.11 30.38 30.38 0 0 0 -2.59-2.45c-2.73 1.4-5.5 2.76-7.88 3.92l-1.85-5.15c1.12-.38 2.52-.91 4.06-1.5v-9.24h-3.25v-4.8h3.22v-6.72h4.72v6.72h2.94v4.8h-2.94v7.31l2.35-1 .77 3a17 17 0 0 0 2.9-3.22h-3.45v-4.17h22.25v4.24zm11.41-5.22h-17v-12.18h17zm-4.69-8.75h-7.81v1h7.81zm0 4.27h-7.81v1h7.81zm.94 14.88a29.58 29.58 0 0 1 -3.18 5.88h1.61a1.1 1.1 0 0 0 1-.42c.42-.45.81-2 1.12-5.49z"/><path d="m110.46 30.73a46.14 46.14 0 0 1 -4.76-3 11 11 0 0 1 -8 3c-6.26 0-9.31-3.08-9.31-7.35 0-3.36 2.35-5.42 5-7.07a9.85 9.85 0 0 1 -2.13-5.74c0-4.23 3.08-6.86 7.07-6.86 4.27 0 7 2.21 7 6.09 0 3.33-2.31 5.32-4.83 7 1.44 1.26 3 2.52 4.59 3.68a14.54 14.54 0 0 0 1.5-5h5.41a25.14 25.14 0 0 1 -3 8 31.54 31.54 0 0 0 4.16 2.48zm-12.25-4.73a5.79 5.79 0 0 0 3.54-1.47c-2-1.61-3.92-3.29-5.6-5-1.33 1-2.28 2.17-2.28 3.64 0 2 1.86 2.83 4.34 2.83zm-.59-12.21c1.71-1.09 3-2.24 3-3.82a2 2 0 0 0 -2.17-2.24c-1.4 0-2.31.84-2.31 2.59a6 6 0 0 0 1.48 3.51z"/><path d="m160.9 6.62c-.42.52-1.23 1.54-1.58 2.1-1.78 2.94-5.11 7.31-8.26 9.59l-4.37-3.5a19.05 19.05 0 0 0 5.77-5.81h-17.29a43.5 43.5 0 0 0 -4.45.28v-5.81a30.57 30.57 0 0 0 4.45.38h18.17a24.26 24.26 0 0 0 4.2-.35zm-14.42 4.76c0 8.22.17 15.78-9.7 21.28l-4.93-4a13.63 13.63 0 0 0 4-2.13c3.88-2.94 4.76-5.92 4.76-11.62a19.9 19.9 0 0 0 -.28-3.5z"/><path d="m195.79 8.61a16 16 0 0 0 -1.36 2.87 36.72 36.72 0 0 1 -6.06 11.52c-3.37 4.13-7.63 7.35-14.21 10l-5-4.48c7.56-2.31 11.2-5.28 14.18-8.61a22.52 22.52 0 0 0 4.62-8.75h-8.76a43.15 43.15 0 0 1 -8.82 8.37l-4.76-3.53a31.73 31.73 0 0 0 10.89-11 18 18 0 0 0 1.85-4.09l6.2 2c-.81 1.12-1.65 2.56-2.17 3.47h5.61a13.19 13.19 0 0 0 3.49-.38z"/><path d="m219.7 20a28.71 28.71 0 0 0 5.21-6.41l-9.34 1.86v8.61c0 2.06.45 2.8 4.09 2.8a60.11 60.11 0 0 0 11.13-1.23l-.17 5.74a89.2 89.2 0 0 1 -10.78.77c-8.79 0-9.91-2-9.91-6.58v-9c-2.9.6-5.46 1.12-7 1.47l-1-5.53c1.68-.21 4.66-.7 8-1.29v-4.38a36.94 36.94 0 0 0 -.31-4.48h6.3a34.24 34.24 0 0 0 -.35 4.48v3.36c4.55-.84 8.82-1.72 10.43-2.1a12.15 12.15 0 0 0 2.83-1l4.1 3.19c-.35.56-1 1.47-1.3 2.17a48 48 0 0 1 -7.28 10.22z"/><path d="m267.12 6.41a19.55 19.55 0 0 0 -1.43 2.59 54.31 54.31 0 0 1 -5.29 9.24 92.24 92.24 0 0 1 9.52 9.76l-4.86 4.23a70.13 70.13 0 0 0 -8.37-9.59 46.89 46.89 0 0 1 -12.84 9.56l-4.41-4.59a39 39 0 0 0 14.31-9.83 25.47 25.47 0 0 0 4.9-7.91h-10.88c-1.58 0-3.5.21-4.48.28v-6a42.7 42.7 0 0 0 4.48.28h11.69a14.8 14.8 0 0 0 4.2-.53z"/><path d="m307.83 8.33a21.48 21.48 0 0 0 -1.37 1.67 60.34 60.34 0 0 1 -11.46 13.42c1.89 1.89 3.78 4 5.15 5.6l-5 4a91.31 91.31 0 0 0 -6.86-7.81 73.07 73.07 0 0 0 -7.52-6.61l4.45-3.6c1.47 1.12 3.5 2.73 5.56 4.55a35.78 35.78 0 0 0 7.74-8.93h-17.33a39 39 0 0 0 -4.31.32v-6a32.15 32.15 0 0 0 4.31.38h18.59a13.83 13.83 0 0 0 3.85-.45z"/><path d="m324 19.11-5.15 1.89a62.34 62.34 0 0 0 -3.22-8.16l5.11-1.82c.98 1.98 2.59 6.06 3.26 8.09zm17.92-7.11c-.49 1.37-.74 2.21-1 3.05a28.7 28.7 0 0 1 -4.67 9.95 27.76 27.76 0 0 1 -11.87 9l-4.44-4.55c3.71-.94 8.82-3.6 11.72-7.28a23.25 23.25 0 0 0 4.27-12zm-10.12 4.91-5.07 1.75a65.08 65.08 0 0 0 -2.91-7.84l5-1.65c.74 1.54 2.46 6.09 2.98 7.74z"/><path d="m370.62 5a18.22 18.22 0 0 0 2.52-.17 1.79 1.79 0 0 1 0-.46 4.34 4.34 0 0 1 8.68 0 4.38 4.38 0 0 1 -4.23 4.34c-.18.53-.32 1.05-.42 1.47-.84 3.29-2.28 8.61-5.29 12.67a28.69 28.69 0 0 1 -14.24 9.84l-4.64-5.11c7-1.57 11-4.65 13.75-8.08a19.63 19.63 0 0 0 3.85-9h-15.4c-1.72 0-3.64.1-4.55.17v-6c1.08.14 3.4.31 4.55.31zm8.68-.63a1.86 1.86 0 1 0 -1.86 1.86 1.87 1.87 0 0 0 1.86-1.89z"/></g></svg>