<svg viewBox="0 0 140.25 33.11" xmlns="http://www.w3.org/2000/svg"><g fill="#fff"><path d="m12.67 15a29.39 29.39 0 0 1 6.09-.74c5.46 0 10 2.84 10 8 0 4.06-1.85 7.38-7.8 8.89a31.81 31.81 0 0 1 -4.69.59l-1.93-5.42a26.07 26.07 0 0 0 4.35-.32c2.66-.45 4.62-1.71 4.62-3.85s-1.75-3.29-4.62-3.29a24.46 24.46 0 0 0 -5.91.77c.07 2.63.14 5 .14 6.09 0 4.9-1.75 6.09-4.24 6.09-3.74 0-8.68-3-8.68-7 0-3.12 3.46-6.37 7.84-8.26 0-.91 0-1.82 0-2.7v-2c-.56 0-1 0-1.51 0-1.54 0-3.43 0-5-.17l-.1-5a41.15 41.15 0 0 0 5 .24h1.65v-2.23a33.55 33.55 0 0 0 -.32-3.39h5.74c-.1.7-.3 2.45-.3 3.36l-.1 1.78a43 43 0 0 0 6-1.19l.11 5.22c-1.93.42-4.13.73-6.23 1v2.24zm-4.67 9.75c0-.67 0-1.82-.07-3.26-1.72 1-2.77 2.1-2.77 3.12 0 .8 1.16 1.5 1.82 1.5s1.02-.11 1.02-1.36zm14.68-19.75a84.46 84.46 0 0 1 8.86 4.8l-2.49 4.27a64.62 64.62 0 0 0 -8.64-5z"/><path d="m46.27 18.48a6.2 6.2 0 0 1 -.14.91c1.86 1.89 5.5 6.06 6.41 7.18l-3.43 4.3c-1.12-1.82-2.8-4.2-4.38-6.26a18.35 18.35 0 0 1 -6.27 8.5 20.06 20.06 0 0 0 -3.63-3.85 15.64 15.64 0 0 0 6.29-10.78h-5.7v-4.79h6.09v-4.69h-.66a24.09 24.09 0 0 1 -2.18 4.2 32.15 32.15 0 0 0 -4.06-2.94c1.79-2.41 3-6.37 3.68-10.22l4.87 1c-.21 1.09-.46 2.21-.77 3.29h8.82v4.67h-4.55v4.73h5.34v4.79zm20.41-15.48v28.64h-5.18v-1.85h-3.78v2.41h-4.94v-29.2zm-5.18 22v-17.26h-3.78v17.26z"/><path d="m82.29 16a17.57 17.57 0 0 1 9.59-2.8c6.51 0 10 4.06 10 8.3 0 6.44-4.72 11.65-20 10.32l-1.65-5.49c10.18 1.46 15.77-.74 15.77-4.98 0-2-1.89-3.43-4.66-3.43a11.62 11.62 0 0 0 -9 3.78 8.87 8.87 0 0 0 -1.34 2.17l-4.8-1.19a132.57 132.57 0 0 0 1.68-14.68l5.63.77a60.07 60.07 0 0 0 -1.22 7.23zm.45-14.6a106.92 106.92 0 0 0 14.14 2.7l-1.26 5.18c-3.62-.49-11.48-2.14-14.21-2.84z"/><path d="m136.57 8.54c1-.07 2.52-.17 3.68-.28v5.11c-.67 0-2.77 0-3.71.07l-2 .11a49.47 49.47 0 0 1 -.54 6.75c-.39 2-1.33 2.45-3.22 2.45a54.71 54.71 0 0 1 -5.57-.56l.11-4.58a25.52 25.52 0 0 0 3 .38c.6 0 .88-.1 1-.7.1-.84.17-2 .21-3.36-2.8.25-5.81.53-8.51.81v7.45c.07 3.22.49 3.68 5.25 3.68a64.29 64.29 0 0 0 10.4-.95l-.21 5.78a97.11 97.11 0 0 1 -9.77.56c-9.52 0-10.78-1.93-10.92-8.19 0-1.47 0-4.66 0-7.77l-1.58.17c-1.12.14-3.64.53-4.55.67l-.53-5.32c.91 0 2.7-.07 4.73-.25l1.93-.17v-2.77a30.81 30.81 0 0 0 -.32-4.34h5.92a26.93 26.93 0 0 0 -.25 4v2.55l8.54-.77v-3.29a34.29 34.29 0 0 0 -.28-3.5h5.62c-.1.52-.21 2.24-.24 3.25l-.07 3.15z"/></g></svg>