<svg xmlns="http://www.w3.org/2000/svg" viewBox="0 0 213.75 33.29"><defs><style>.cls-1{fill:#fff;}</style></defs><title>アセット 12</title><g id="レイヤー_2" data-name="レイヤー 2"><g id="レイヤー_1-2" data-name="レイヤー 1"><path class="cls-1" d="M12.67,15a29.39,29.39,0,0,1,6.09-.74c5.46,0,10,2.84,10,8,0,4.06-1.85,7.38-7.8,8.89a31.81,31.81,0,0,1-4.69.59l-1.93-5.42A26.07,26.07,0,0,0,18.69,26c2.66-.45,4.62-1.71,4.62-3.85s-1.75-3.29-4.62-3.29a24.46,24.46,0,0,0-5.91.77c.07,2.63.14,5,.14,6.09,0,4.9-1.75,6.09-4.24,6.09-3.74,0-8.68-3-8.68-7,0-3.12,3.46-6.37,7.84-8.26,0-.91,0-1.82,0-2.7v-2c-.56,0-1,0-1.51,0-1.54,0-3.43,0-5-.17l-.1-5a41.24,41.24,0,0,0,5,.24c.53,0,1.09,0,1.65,0V4.69A33.55,33.55,0,0,0,7.56,1.3H13.3C13.2,2,13,3.75,13,4.66l-.1,1.78a43,43,0,0,0,6-1.19l.11,5.22c-1.93.42-4.13.73-6.23,1,0,.73,0,1.5,0,2.24ZM8,24.75c0-.67,0-1.82-.07-3.26-1.72,1-2.77,2.1-2.77,3.12,0,.8,1.16,1.5,1.82,1.5S8,26,8,24.75ZM22.68,5A84.46,84.46,0,0,1,31.54,9.8l-2.49,4.27a64.62,64.62,0,0,0-8.64-5Z"/><path class="cls-1" d="M41.86,14.77V33.22h-5v-32H50.75V14.77Zm0-9.73V6.3H46V5ZM46,11V9.66H41.86V11ZM67,27.34c0,2.69-.53,4.09-2.14,4.93s-3.92.95-7.24.95a18.36,18.36,0,0,0-1.61-5H49.42v1.92H44.73V16.77h13.9V28.14H60.9c.67,0,.91-.24.91-.87V14.81H52.68V1.23H67ZM53.87,20.9H49.42v3.22h4.45ZM57.51,5V6.3h4.3V5Zm4.3,6V9.66h-4.3V11Z"/><path class="cls-1" d="M80.4,9.35c0,2.27,0,4.55.21,6.86.42,4.55,1.12,7.73,3.11,7.73,1.61,0,2.84-4.34,3.33-6.68l4.23,5.18c-2.41,6.12-4.62,8.29-7.66,8.29-4.1,0-7.49-3.5-8.47-13a94.07,94.07,0,0,1-.39-9.45,21,21,0,0,0-.31-3.75l6.44.07A32.33,32.33,0,0,0,80.4,9.35Zm23.87,14L98.7,25.52C98.21,20.3,96.53,11.45,92.47,7l5.36-1.75C101.22,9.28,104,18.38,104.27,23.38Z"/><path class="cls-1" d="M127.58,0a32.74,32.74,0,0,0,14.84,11.83,24,24,0,0,0-3.33,4.59,45.86,45.86,0,0,1-5-3.08v2.31h-17.5V13.16a44.19,44.19,0,0,1-5.18,3.22,22.21,22.21,0,0,0-3.19-4.13A35.62,35.62,0,0,0,122.26,0ZM114,18.62h22.82V33.29H131.6V32.06H119v1.23h-5Zm5,4.45v4.55H131.6V23.07ZM131.25,11.2A35.29,35.29,0,0,1,125.13,5a33.94,33.94,0,0,1-6,6.23Z"/><path class="cls-1" d="M158.24,11.27A16.81,16.81,0,0,1,168,8.09a9.4,9.4,0,0,1,9.8,9.66c0,7-4,11.51-13.2,13.37L162.09,26c6.19-1,10-3.29,10-8.4,0-2.73-2.2-4.62-5-4.62-3.5,0-6.47,1.61-9.27,4.1,0,.8,0,1.54,0,2.27,0,2.63,0,6,.25,9.35,0,.63.17,2.13.28,3h-5.74c.07-.87.1-2.31.1-2.87,0-2.1.07-3.92.14-6.12-1.33,1.92-2.73,4.06-3.68,5.35l-3.25-4.62c2-2.41,5.22-6.61,7.28-9.59l.11-1.85c-1.79.21-4.2.52-6.06.77l-.52-5.36c1.11,0,2,0,3.43,0,.94-.07,2.2-.18,3.5-.39.07-1.08.1-2,.1-2.31a18.83,18.83,0,0,0-.17-3.39l6.09.17c-.25,1.09-.53,2.84-.81,4.94l1.33,1.75c-.45.59-1.26,1.82-1.89,2.73Z"/><path class="cls-1" d="M210.07,8.54c1-.07,2.52-.17,3.68-.28v5.11c-.67,0-2.77,0-3.71.07l-2,.11a49.47,49.47,0,0,1-.49,6.75c-.39,2-1.33,2.45-3.22,2.45a54.71,54.71,0,0,1-5.57-.56l.11-4.58a25.52,25.52,0,0,0,3,.38c.6,0,.88-.1,1-.7.1-.84.17-2,.21-3.36-2.8.25-5.81.53-8.51.81,0,2.94,0,5.91,0,7.45.07,3.22.49,3.68,5.25,3.68a64.29,64.29,0,0,0,10.4-.95L210,30.7a97.11,97.11,0,0,1-9.77.56c-9.52,0-10.78-1.93-10.92-8.19,0-1.47,0-4.66,0-7.77l-1.58.17c-1.12.14-3.64.53-4.55.67l-.52-5.32c.91,0,2.69-.07,4.72-.25l1.93-.17V7.63a30.81,30.81,0,0,0-.32-4.34h5.92a26.93,26.93,0,0,0-.25,4c0,.59,0,1.5,0,2.55l8.54-.77V5.78a34.29,34.29,0,0,0-.28-3.5h5.63c-.1.52-.21,2.24-.24,3.25l-.07,3.15Z"/></g></g></svg>