<svg viewBox="0 0 75.72 57.89" xmlns="http://www.w3.org/2000/svg"><g fill="#ff0"><path d="m0 16.34q.08-7.87 4.89-12.13a15.17 15.17 0 0 1 10.75-4.21 15.47 15.47 0 0 1 11 4.22q4.57 4.26 4.73 12.15v25.11q-.15 7.86-4.73 12.11a15.71 15.71 0 0 1 -10.95 4.3 15.46 15.46 0 0 1 -10.8-4.29q-4.81-4.24-4.89-12.09zm23.44.51q-.23-8.57-7.8-8.73-7.64.17-7.76 8.73v24.15q.12 8.7 7.76 8.77 7.58-.08 7.8-8.73z"/><path d="m40.41 41.29 18.44-40.82h8.79l-18.64 40.82h14.4v-16.4h7.9v16.4h4.42v7.65h-4.42v8.48h-7.89v-8.42h-23z"/></g></svg>