<svg viewBox="0 0 73.41 57.89" xmlns="http://www.w3.org/2000/svg"><g fill="#ff0"><path d="m0 16.34q.08-7.87 4.89-12.13a15.17 15.17 0 0 1 10.75-4.21 15.47 15.47 0 0 1 11 4.22q4.57 4.26 4.73 12.15v25.11q-.15 7.86-4.73 12.11a15.71 15.71 0 0 1 -10.95 4.3 15.46 15.46 0 0 1 -10.8-4.29q-4.81-4.24-4.89-12.09zm23.44.51q-.23-8.57-7.8-8.73-7.64.17-7.76 8.73v24.15q.12 8.7 7.76 8.77 7.58-.08 7.8-8.73z"/><path d="m41.93 49.77 21.58-27.87a10.68 10.68 0 0 0 1.71-3.13 12.2 12.2 0 0 0 .3-2.59 8.59 8.59 0 0 0 -1.93-5.59 7.25 7.25 0 0 0 -5.69-2.47 7.39 7.39 0 0 0 -5.43 2.15 9.54 9.54 0 0 0 -2.66 6.07h-7.88a17.73 17.73 0 0 1 4.62-11.74 14.57 14.57 0 0 1 10.72-4.6 15.54 15.54 0 0 1 11.55 4.69 16.1 16.1 0 0 1 4.59 11.61 16 16 0 0 1 -3.34 10l-17.75 23h21.09v8.12h-31.48z"/></g></svg>