<svg viewBox="0 0 230.02 30" xmlns="http://www.w3.org/2000/svg"><path d="m213.15 23.28c0 1.22 1.22 1.64 2.69 1.64 1.68 0 2.35-.91 2.35-2.8v-.24a8.82 8.82 0 0 0 -2.35-.32c-1.61 0-2.69.63-2.69 1.72z" fill="none"/><path d="m11.94 7c-3.43 0-5.53 3-5.53 8s2.1 8.26 5.53 8.26 5.56-3.17 5.56-8.26-2.13-8-5.56-8z" fill="none"/><g fill="#fff"><path d="m11.94 1.64c-7.11 0-11.94 4.84-11.94 13.36s4.83 13.67 11.94 13.67 11.93-5.11 11.93-13.67-4.87-13.36-11.93-13.36zm0 21.64c-3.43 0-5.53-3.19-5.53-8.26s2.1-8 5.53-8 5.56 3 5.56 8-2.13 8.26-5.56 8.26z"/><path d="m45.19 10.75a82 82 0 0 0 .81 9.62h-.18l-2.52-5.77-6.48-12.47h-6.37v26.05h5.95v-8.65c0-3.15-.52-6.72-.8-9.62h.17l2.56 5.7 6.44 12.57h6.37v-26h-6z"/><path d="m65.2 17.4h8.72v-5.25h-8.72v-4.83h10.26v-5.19h-16.52v26.05h16.91v-5.25h-10.65z"/><path d="m82.74 28.18h6.26v-9.94h8.9v-5.22h-8.9v-5.7h10.36v-5.19h-16.62z"/><path d="m111.89 17.4h8.72v-5.25h-8.72v-4.83h10.26v-5.19h-16.52v26.05h16.9v-5.25h-10.64z"/><path d="m142.31 13.37-3.26-1.29c-2.31-.91-4-1.47-4-2.91s1.24-2.17 3.16-2.17a8.47 8.47 0 0 1 5.36 2l3.12-3.92a12.14 12.14 0 0 0 -8.48-3.44c-5.53 0-9.45 3.51-9.45 7.88 0 3.78 2.56 6.06 5.29 7.14l3.32 1.4c2.24 1 3.68 1.44 3.68 2.94s-1.09 2.28-3.4 2.28a10.55 10.55 0 0 1 -6.33-2.66l-3.54 4.3a14.57 14.57 0 0 0 9.73 3.75c6.3 0 10-3.82 10-8.16-.05-3.67-1.98-5.84-5.2-7.14z"/><path d="m170.34 20.86c0-2.27 1.93-4.13 4.62-5.88a95.89 95.89 0 0 1 9.17-4.83c1.41-.7 2.66-1.36 3.89-2.1l-2.9-4.86a25.14 25.14 0 0 1 -3.61 2.34c-1.51.88-4.13 2.24-6.69 3.71a73.48 73.48 0 0 1 -4.16-9.24l-5.29 2.13c1.54 3.65 3.15 7.18 4.76 10.16-3.18 2.41-5.63 5.25-5.63 9.2 0 6.41 5.49 8.33 12.63 8.33a66.56 66.56 0 0 0 11.24-.82l.07-6.06a59.1 59.1 0 0 1 -11.44 1.28c-4.45 0-6.66-1.08-6.66-3.36z"/><path d="m204.05 18.52a5.7 5.7 0 0 1 0-.81 97.55 97.55 0 0 1 1.61-13.09 33.15 33.15 0 0 1 .95-3.54l-5.82-.49a39.14 39.14 0 0 1 -.38 3.93 104.84 104.84 0 0 0 -1.41 14.38 39.66 39.66 0 0 0 1.48 11.1l4.72-.32c0-.56 0-1.19 0-1.57a10.05 10.05 0 0 1 .21-1.65c.42-2 1.47-5.49 2.52-8.61l-2.56-2c-.48.99-.9 1.65-1.32 2.67z"/><path d="m223.37 18.87c-.11-2-.28-4.52-.35-7.67 1.82-.14 3.54-.35 5.08-.56v-5.21c-1.58.31-3.29.59-5 .77 0-1.44.08-2.59.11-3.26a22.5 22.5 0 0 1 .21-2.31h-6a16.82 16.82 0 0 1 .24 2.37c0 .63 0 1.93.07 3.54-.66 0-1.29 0-2 0a60.08 60.08 0 0 1 -6.19-.31v5c2.07.14 4.13.21 6.2.21h2c0 2.17.14 4.3.24 6.12-.56 0-1.15-.07-1.75-.07-4.83 0-8 2.49-8 6.37s3.22 6 8.08 6c4.55 0 6.69-2 7.15-5.28a38.8 38.8 0 0 1 3.71 3.15l2.83-4.38a21.68 21.68 0 0 0 -6.63-4.48zm-5.18 3.25c0 1.89-.67 2.8-2.35 2.8-1.47 0-2.69-.42-2.69-1.64s1.08-1.72 2.69-1.72a8.82 8.82 0 0 1 2.35.32z"/></g></svg>