<svg viewBox="0 0 72.86 57.89" xmlns="http://www.w3.org/2000/svg"><g fill="#ff0"><path d="m0 16.34q.08-7.87 4.89-12.13a15.17 15.17 0 0 1 10.75-4.21 15.47 15.47 0 0 1 11 4.22q4.57 4.26 4.73 12.15v25.11q-.15 7.86-4.73 12.11a15.71 15.71 0 0 1 -10.95 4.3 15.46 15.46 0 0 1 -10.8-4.29q-4.81-4.24-4.89-12.09zm23.44.51q-.23-8.57-7.8-8.73-7.64.17-7.76 8.73v24.15q.12 8.7 7.76 8.77 7.58-.08 7.8-8.73z"/><path d="m53.05 24.5h2.72a8.36 8.36 0 0 0 6.3-2.32 7.86 7.86 0 0 0 2.23-5.81 8.48 8.48 0 0 0 -2.3-5.93 8.08 8.08 0 0 0 -5.76-2.32 7.15 7.15 0 0 0 -4.62 1.69 8.58 8.58 0 0 0 -3 5.22h-7.87a16.84 16.84 0 0 1 5-10.66 14.22 14.22 0 0 1 10.17-4.37q7.53.08 12 5a16.73 16.73 0 0 1 4.28 11.21 17.51 17.51 0 0 1 -1.2 6.33 13.29 13.29 0 0 1 -4.86 5.46 14.22 14.22 0 0 1 5.2 5.62 16.24 16.24 0 0 1 1.52 6.88q-.08 8-4.8 12.62a16.3 16.3 0 0 1 -12 4.8 14.9 14.9 0 0 1 -10-3.74q-4.34-3.75-5.63-10.84h7.97a11.64 11.64 0 0 0 3 4.62 7.31 7.31 0 0 0 5.22 1.84 7.83 7.83 0 0 0 5.87-2.47 8.91 8.91 0 0 0 2.51-6.61 9.27 9.27 0 0 0 -2.52-6.72 8.35 8.35 0 0 0 -6-2.31h-3.43z"/></g></svg>