<svg viewBox="0 0 215.36 32.41" xmlns="http://www.w3.org/2000/svg"><path d="m22 8.16a17.85 17.85 0 0 0 2.9-.28l3.61 1.75a15.15 15.15 0 0 0 -.25 1.92c-.14 4-.59 13.58-2.06 17.26-.77 1.92-2.24 3-4.9 3-2.17 0-4.27-.18-5.92-.32l-.66-5.67a26.92 26.92 0 0 0 4.76.53 1.71 1.71 0 0 0 1.92-1.3c.84-1.92 1.33-8 1.33-11.83h-6.87c-1.26 8.87-4.45 14.43-10.92 19.09l-4.94-3.99a21.93 21.93 0 0 0 5.18-3.89 19.1 19.1 0 0 0 5.15-11.2h-4c-1.08 0-3.32 0-4.93.18v-5.53c1.61.17 3.6.28 4.93.28h4.38c0-.91 0-1.82 0-2.77a28.68 28.68 0 0 0 -.21-3.39h6.23c-.1.83-.21 2.45-.24 3.29s-.07 2-.14 2.87zm3-.28a47.54 47.54 0 0 0 -2.74-4.88l3.29-1.33c.88 1.3 2.1 3.57 2.73 4.8zm4.86-7.88a48.81 48.81 0 0 1 2.76 4.76l-3.29 1.4a40 40 0 0 0 -2.76-4.83z"/><path d="m57.33 26.78a26.08 26.08 0 0 0 .35 5.07h-6.68a47.07 47.07 0 0 0 .28-5.07v-10.54a63.48 63.48 0 0 1 -11.48 4.41l-3-5.14a51.6 51.6 0 0 0 16.06-6.3 36.45 36.45 0 0 0 9.14-8l4.55 4.09a59.77 59.77 0 0 1 -9.21 7.49z"/><path d="m87.15 11.87a115.58 115.58 0 0 1 14.46 5.28l-2.42 5.92a108.79 108.79 0 0 0 -12-5v9c0 .94.21 3.71.39 5.28h-6.69a40.05 40.05 0 0 0 .42-5.28v-20a24.45 24.45 0 0 0 -.42-4.55h6.61a41.61 41.61 0 0 0 -.35 4.55zm8.61-1.47a28.34 28.34 0 0 0 -3.08-5.4l3.5-1.47a54.61 54.61 0 0 1 3.19 5.32zm5-2a30.34 30.34 0 0 0 -3.26-5.25l3.5-1.65a44.92 44.92 0 0 1 3.29 5.15z"/><path d="m140.74 13.44a13.94 13.94 0 0 0 -.77 1.68 27.15 27.15 0 0 1 -5.22 9.56 26.75 26.75 0 0 1 -12.49 7.73l-4.26-4.79a24 24 0 0 0 12-6 13.71 13.71 0 0 0 3.26-5.07h-15.87c-.87 0-2.87 0-4.44.17v-5.45c1.61.14 3.25.25 4.44.25h16.66a8.27 8.27 0 0 0 2.95-.42zm-24.5-10.71a33.49 33.49 0 0 0 3.92.21h13.26a39.22 39.22 0 0 0 4.13-.21v5.46c-1-.07-2.87-.14-4.2-.14h-13.19c-1.19 0-2.87 0-3.92.14z"/><path d="m167.58 26.78a26.08 26.08 0 0 0 .35 5.07h-6.72a47.07 47.07 0 0 0 .28-5.07v-10.54a63.48 63.48 0 0 1 -11.44 4.41l-3-5.14a51.6 51.6 0 0 0 16.06-6.3 36.45 36.45 0 0 0 9.14-8l4.55 4.09a59.77 59.77 0 0 1 -9.21 7.49z"/><path d="m198.7 21.84a33.82 33.82 0 0 0 13.37-14l3.29 6a37.81 37.81 0 0 1 -13.62 13.26 37.35 37.35 0 0 1 -12.53 4.62l-3.6-5.6a36 36 0 0 0 13.09-4.28zm1.19-11.44-4.34 4.44a72.92 72.92 0 0 0 -8.79-7.66l4-4.31a71.42 71.42 0 0 1 9.13 7.53z"/></svg>