<svg viewBox="0 0 621 491" xmlns="http://www.w3.org/2000/svg"><path d="m618.34 475.28a10 10 0 1 1 0-20 9.66 9.66 0 0 1 2.16.24v-10a9.66 9.66 0 0 1 -2.16.24 10 10 0 0 1 0-20 9.67 9.67 0 0 1 2.16.25v-10.01a10.28 10.28 0 0 1 -2.16.24 10 10 0 0 1 0-20 10.28 10.28 0 0 1 2.16.24v-10a10.28 10.28 0 0 1 -2.16.24 10 10 0 0 1 0-20 10.28 10.28 0 0 1 2.16.24v-9.96a10.28 10.28 0 0 1 -2.16.24 10 10 0 0 1 0-20 9.66 9.66 0 0 1 2.16.24v-10a9.66 9.66 0 0 1 -2.16.24 10 10 0 0 1 0-20 9.67 9.67 0 0 1 2.16.25v-9.97a10.28 10.28 0 0 1 -2.16.24 10 10 0 0 1 0-20 10.28 10.28 0 0 1 2.16.24v-10a10.28 10.28 0 0 1 -2.16.24 10 10 0 0 1 0-20 10.28 10.28 0 0 1 2.16.24v-9.96a10.28 10.28 0 0 1 -2.16.24 10 10 0 0 1 0-20 9.66 9.66 0 0 1 2.16.24v-10a9.66 9.66 0 0 1 -2.16.24 10 10 0 0 1 0-20 10.28 10.28 0 0 1 2.16.24v-9.96a10.28 10.28 0 0 1 -2.16.24 10 10 0 0 1 0-20 10.28 10.28 0 0 1 2.16.24v-10a10.28 10.28 0 0 1 -2.16.24 10 10 0 0 1 0-20 10.28 10.28 0 0 1 2.16.24v-9.96a10.28 10.28 0 0 1 -2.16.24 10 10 0 0 1 0-20 9.66 9.66 0 0 1 2.16.24v-10a9.66 9.66 0 0 1 -2.16.24 10 10 0 0 1 0-20 10.28 10.28 0 0 1 2.16.24v-9.96a10.28 10.28 0 0 1 -2.16.24 10 10 0 0 1 0-20 10.28 10.28 0 0 1 2.16.24v-10a10.28 10.28 0 0 1 -2.16.24 10 10 0 1 1 0-20 10.28 10.28 0 0 1 2.16.24v-12.46h-620v12.24a10 10 0 0 1 0 20v9.5a10 10 0 0 1 0 20v9.5a10 10 0 0 1 10 10 10 10 0 0 1 -10 10v9.51a10 10 0 0 1 10 10 10 10 0 0 1 -10 10v9.5a10 10 0 0 1 0 20v9.5a10 10 0 0 1 0 20v9.5a10 10 0 0 1 10 10 10 10 0 0 1 -10 10v9.51a10 10 0 0 1 10 10 10 10 0 0 1 -10 10v9.5a10 10 0 0 1 0 20v9.5a10 10 0 0 1 0 20v9.5a10 10 0 0 1 10 10 10 10 0 0 1 -10 10v9.51a10 10 0 0 1 10 10 10 10 0 0 1 -10 10v9.5a10 10 0 0 1 0 20v9.5a10 10 0 0 1 0 20v9.5a10 10 0 0 1 10 10 10 10 0 0 1 -10 10v9.51a10 10 0 0 1 10 10 10 10 0 0 1 -10 10v15.22h620v-15.5a10.28 10.28 0 0 1 -2.16.28z" fill="#ff0"/><path d="m621 491h-621v-16.22h.5a9.5 9.5 0 0 0 0-19h-.5v-10.51h.5a9.51 9.51 0 0 0 9.5-9.5 9.52 9.52 0 0 0 -9.5-9.5h-.5v-10.5h.5a9.5 9.5 0 0 0 0-19h-.5v-10.5h.5a9.5 9.5 0 0 0 0-19h-.5v-10.5h.5a9.52 9.52 0 0 0 9.5-9.5 9.51 9.51 0 0 0 -9.5-9.5h-.5v-10.51h.5a9.51 9.51 0 0 0 9.5-9.5 9.52 9.52 0 0 0 -9.5-9.5h-.5v-10.5h.5a9.5 9.5 0 0 0 0-19h-.5v-10.5h.5a9.5 9.5 0 0 0 0-19h-.5v-10.5h.5a9.5 9.5 0 0 0 0-19h-.5v-10.51h.5a9.51 9.51 0 0 0 9.5-9.5 9.52 9.52 0 0 0 -9.5-9.5h-.5v-10.5h.5a9.5 9.5 0 0 0 0-19h-.5v-10.5h.5a9.5 9.5 0 0 0 0-19h-.5v-10.5h.5a9.52 9.52 0 0 0 9.5-9.5 9.51 9.51 0 0 0 -9.5-9.5h-.5v-10.51h.5a9.51 9.51 0 0 0 9.5-9.5 9.52 9.52 0 0 0 -9.5-9.5h-.5v-10.5h.5a9.5 9.5 0 0 0 0-19h-.5v-10.5h.5a9.5 9.5 0 0 0 0-19h-.5v-13.24h621v13.6l-.61-.13a9.5 9.5 0 1 0 -2 18.77 9.69 9.69 0 0 0 2-.23l.61-.13v11.23l-.61-.14a9.69 9.69 0 0 0 -2-.23 9.5 9.5 0 0 0 0 19 9.69 9.69 0 0 0 2-.23l.61-.13v11.23l-.61-.14a9.69 9.69 0 0 0 -2-.23 9.5 9.5 0 1 0 2 18.77l.61-.13v11.23l-.61-.13a9.08 9.08 0 0 0 -2-.23 9.5 9.5 0 0 0 0 19 9.69 9.69 0 0 0 2-.23l.61-.14v11.23l-.61-.13a9.69 9.69 0 0 0 -2-.23 9.5 9.5 0 0 0 0 19 9.69 9.69 0 0 0 2-.23l.61-.14v11.23l-.61-.13a9.5 9.5 0 1 0 -2 18.77 9.69 9.69 0 0 0 2-.23l.61-.13v11.23l-.61-.14a9.69 9.69 0 0 0 -2-.23 9.5 9.5 0 0 0 0 19 9.08 9.08 0 0 0 2-.23l.61-.13v11.23l-.61-.13a9.08 9.08 0 0 0 -2-.23 9.5 9.5 0 1 0 2 18.77l.61-.14v11.23l-.61-.13a9.5 9.5 0 1 0 -2 18.77 9.69 9.69 0 0 0 2-.23l.61-.13v11.23l-.61-.14a9.69 9.69 0 0 0 -2-.23 9.5 9.5 0 0 0 0 19 9.69 9.69 0 0 0 2-.23l.61-.13v11.23l-.61-.14a9.69 9.69 0 0 0 -2-.23 9.5 9.5 0 1 0 2 18.78l.61-.14v11.23l-.61-.13a9.08 9.08 0 0 0 -2-.23 9.5 9.5 0 0 0 0 19 9.69 9.69 0 0 0 2-.23l.61-.14v11.23l-.61-.13a9.69 9.69 0 0 0 -2-.23 9.5 9.5 0 0 0 0 19 9.69 9.69 0 0 0 2-.23l.61-.13v11.22l-.61-.13a9.5 9.5 0 1 0 -2 18.77 9.69 9.69 0 0 0 2-.23l.61-.13v11.23l-.61-.14a9.69 9.69 0 0 0 -2-.23 9.5 9.5 0 0 0 0 19 9.08 9.08 0 0 0 2-.23l.61-.13v11.23l-.61-.13a9.08 9.08 0 0 0 -2-.23 9.5 9.5 0 1 0 2 18.77l.61-.14zm-620-1h619v-14.36a10.5 10.5 0 1 1 0-20.73v-8.77a10.41 10.41 0 0 1 -1.66.13 10.5 10.5 0 1 1 1.66-20.86v-8.77a10.5 10.5 0 1 1 0-20.73v-8.78a10.5 10.5 0 1 1 0-20.72v-8.78a10.5 10.5 0 1 1 0-20.73v-8.77a10.51 10.51 0 1 1 0-20.73v-8.77a10.41 10.41 0 0 1 -1.66.13 10.5 10.5 0 1 1 1.66-20.86v-8.78a10.49 10.49 0 1 1 0-20.72v-8.78a10.5 10.5 0 1 1 0-20.73v-8.77a10.41 10.41 0 0 1 -1.66.13 10.5 10.5 0 1 1 1.66-20.86v-8.77a10.5 10.5 0 1 1 0-20.73v-8.78a10.5 10.5 0 1 1 -1.66-20.86 9.38 9.38 0 0 1 1.66.14v-8.78a10.5 10.5 0 1 1 0-20.73v-8.77a10.51 10.51 0 1 1 0-20.73v-8.78a9.38 9.38 0 0 1 -1.66.14 10.5 10.5 0 1 1 1.66-20.86v-8.78a10.49 10.49 0 1 1 0-20.72v-11.38h-619v11.25a10.51 10.51 0 0 1 10 10.49 10.52 10.52 0 0 1 -10 10.49v8.52a10.5 10.5 0 0 1 0 21v8.53a10.5 10.5 0 0 1 0 21v8.53a10.5 10.5 0 0 1 0 21v8.53a10.5 10.5 0 0 1 0 21v8.52a10.5 10.5 0 0 1 0 21v8.53a10.5 10.5 0 0 1 0 21v8.53a10.51 10.51 0 0 1 10 10.49 10.52 10.52 0 0 1 -10 10.34v8.52a10.5 10.5 0 0 1 0 21v8.52a10.52 10.52 0 0 1 10 10.49 10.51 10.51 0 0 1 -10 10.47v8.53a10.5 10.5 0 0 1 0 21v8.53a10.5 10.5 0 0 1 0 21v8.53a10.5 10.5 0 0 1 0 21v8.52a10.5 10.5 0 0 1 0 21v8.53a10.5 10.5 0 0 1 0 21v8.53a10.51 10.51 0 0 1 10 10.49 10.52 10.52 0 0 1 -10 10.36z" fill="#2b2d3b"/><path d="m68.85 63a12.35 12.35 0 1 1 -12.35-12.38 12.36 12.36 0 0 1 12.35 12.38zm-1 0a11.31 11.31 0 1 0 -11.35 11.28 11.32 11.32 0 0 0 11.31-11.28zm-7.62.85h1.57v2.92h-1.61v3h-3.72v-3h-6.34v-2.77l5.12-8h4.94zm-3.72 0v-1.4c0-1 .08-2.27.13-3.25h-.1c-.49.93-.68 1.27-1.17 2.18l-1.51 2.44z"/><path d="m74.88 59a23 23 0 0 0 -2.88-6.1l3.46-1.32a22.05 22.05 0 0 1 3.07 5.85zm9.73.57h8.21v15.72h-4v-1h-16.67v-3.78h16.62v-1.93h-15.08v-3.64h15.08v-1.61h-16v-3.8h7.64v-8.91h4.19zm8.71-7a61.13 61.13 0 0 1 -3.51 6.43l-3.38-1.14a31.22 31.22 0 0 0 2.62-6.55z"/><path d="m117.94 52.07v22.93h-4.08v-1.71h-10.79v1.71h-3.9v-22.93zm-14.87 3.82v4.76h10.79v-4.76zm10.79 13.58v-5.07h-10.79v5.07z"/><path d="m136.94 52c0 5.13.76 14.51 10 19.92a19.77 19.77 0 0 0 -3 3.33 21.39 21.39 0 0 1 -9.18-12.07c-2 5.44-5 9.55-9.23 12.12a26.1 26.1 0 0 0 -3.46-3.09c5.25-2.6 8.3-7.54 9.62-14.15l1.87.34c-.15-.88-.26-1.74-.33-2.55h-5.75v-3.85z"/><path d="m162.63 64.14a10.19 10.19 0 0 1 -.52.91h10.3s0 .83-.08 1.24c-.34 4.92-.75 7-1.45 7.86a2.77 2.77 0 0 1 -1.88 1 15.78 15.78 0 0 1 -2.68.11 7.45 7.45 0 0 0 -.62-2.52 13.44 13.44 0 0 1 -2.52 2.7 12 12 0 0 0 -2.68-2.08 13.73 13.73 0 0 0 4.65-5.36h-.91a20.17 20.17 0 0 1 -6 6.27 10.55 10.55 0 0 0 -2.45-2.27 15.65 15.65 0 0 0 4.94-4h-.91a15.41 15.41 0 0 1 -2.75 2.29 22.11 22.11 0 0 0 -1.93-1.82c-2 1-4.08 2.06-5.85 2.91l-1.37-3.82c.83-.28 1.87-.67 3-1.12v-6.88h-2.39v-3.56h2.39v-5h3.51v5h2.19v3.56h-2.19v5.44l1.74-.72.58 2.26a12.51 12.51 0 0 0 2.15-2.39h-2.54v-3.15h16.51v3.15zm8.48-3.88h-12.61v-9h12.61zm-3.48-6.5h-5.8v.78h5.8zm0 3.17h-5.8v.78h5.8zm.7 11.05a22.2 22.2 0 0 1 -2.33 4.37h1.2a.81.81 0 0 0 .75-.31c.31-.34.6-1.49.83-4.09z"/><path d="m195.24 60.24c.54 0 1.92-.11 2.52-.16v4c-.78 0-1.69-.1-2.45-.1h-6.42a13.69 13.69 0 0 1 -6.65 10.58l-4-2.71c3.84-1.74 5.85-4.42 6.47-7.87h-6.81c-.78 0-1.8 0-2.5.1v-4a24.6 24.6 0 0 0 2.47.16h7v-3.1c-2.42.18-5 .29-6.6.31l-1-3.61a60.67 60.67 0 0 0 8.94-.42 25.26 25.26 0 0 0 6.48-1.61l2.57 3.46c-1.06.26-1.84.47-2.31.57-1.22.31-2.55.57-3.93.78v3.62z"/><path d="m220.77 56.1a19.16 19.16 0 0 0 2.86-.21v4.29c-1.07-.1-2.26-.1-2.86-.1h-3.23c-.49 6.63-3.06 11.41-7.9 14.43l-4.24-2.83a10.84 10.84 0 0 0 2.65-1.56c2.81-2.19 4.66-5.26 5.1-10h-4.84a22.75 22.75 0 0 1 -4.13 5.41l-4-2.39a20.45 20.45 0 0 0 4.44-5.23 17.58 17.58 0 0 0 1.54-3.51 12 12 0 0 0 .62-3l4.86 1c-.33.7-.72 1.72-1 2.29s-.36.94-.57 1.48z"/><path d="m235.35 64.53-3.84 1.47a47.16 47.16 0 0 0 -2.4-6.06l3.8-1.35a64.09 64.09 0 0 1 2.44 5.94zm13.29-5.26c-.36 1-.55 1.64-.73 2.27a21.38 21.38 0 0 1 -3.48 7.38 20.68 20.68 0 0 1 -8.82 6.63l-3.3-3.38a17.52 17.52 0 0 0 8.69-5.41 17.25 17.25 0 0 0 3.17-8.92zm-7.51 3.62-3.77 1.3a50.75 50.75 0 0 0 -2.16-5.83l3.74-1.22c.52 1.15 1.8 4.53 2.19 5.75z"/><path d="m272.61 67.28a81.82 81.82 0 0 0 -8.94-3.72v6.69c0 .7.15 2.75.28 3.92h-4.95a28 28 0 0 0 .32-3.92v-14.85a18 18 0 0 0 -.32-3.4h4.92a29.49 29.49 0 0 0 -.26 3.38v3.62a86.63 86.63 0 0 1 10.74 3.93z"/><path d="m302.85 50.62v.13a16.2 16.2 0 0 0 -5.15 12.25 16.23 16.23 0 0 0 5.15 12.22v.13h-8.27v-24.73z"/><path d="m318.66 68h-2.16v4.84h-4.32v-4.84h-8.11v-3.2l6.74-11.31h5.69v11h2.16zm-6.48-3.51v-2.82c0-1.23.13-3.07.19-4.29h-.11c-.49 1.09-1 2.21-1.56 3.3l-2.21 3.82z"/><path d="m323.91 72.67a2.6 2.6 0 0 1 -2.76-2.61 2.67 2.67 0 0 1 2.89-2.6c2 0 3.15 1.62 3.15 4.32 0 3.35-1.95 5.88-5.54 7l-.94-2.47c2.24-.78 3.43-2.16 3.43-3.61z"/><path d="m329.71 68a5.36 5.36 0 0 1 3.17-4.89v-.11a5.6 5.6 0 0 1 -2.52-4.66c0-3.22 2.55-5.22 6.13-5.22s5.8 2 5.8 5.17a5.34 5.34 0 0 1 -2.44 4.29v.13a5.59 5.59 0 0 1 3.25 5.29c0 3-2.71 5.25-6.76 5.25-3.8-.04-6.63-2.15-6.63-5.25zm9.1-.26c0-1.69-1.48-2.42-3.85-3.44a4.48 4.48 0 0 0 -1.3 3.15 2.54 2.54 0 0 0 2.78 2.5 2.11 2.11 0 0 0 2.37-2.17zm-.26-9.16a2.06 2.06 0 0 0 -2.19-2.28 1.86 1.86 0 0 0 -1.95 2c0 1.54 1.2 2.37 3.1 3.12a4.4 4.4 0 0 0 1.04-2.8z"/><path d="m345.36 63.07c0-6.66 2.76-9.93 6.84-9.93s6.86 3.33 6.86 9.93-2.78 10.14-6.86 10.14-6.84-3.48-6.84-10.14zm9.33 0c0-5.28-1.11-6.37-2.49-6.37s-2.47 1.09-2.47 6.37 1.09 6.55 2.47 6.55 2.49-1.24 2.49-6.55z"/><path d="m361.19 63.07c0-6.66 2.76-9.93 6.84-9.93s6.87 3.33 6.87 9.93-2.79 10.14-6.9 10.14-6.81-3.48-6.81-10.14zm9.34 0c0-5.28-1.12-6.37-2.5-6.37s-2.47 1.09-2.47 6.37 1.09 6.55 2.47 6.55 2.5-1.24 2.5-6.55z"/><path d="m406.77 71.05c0 1.93-.39 2.94-1.58 3.57s-2.81.7-5.13.7a13 13 0 0 0 -1.35-3.77c1.35.1 3.07.08 3.56.08s.68-.16.68-.63v-5.36h-14.77v9.65h-3.79v-23.09h22.38zm-18.59-9.15h5.31v-5.9h-5.31zm14.77 0v-5.9h-5.69v5.9z"/><path d="m417.38 75.32h-8.27v-.13a16.2 16.2 0 0 0 5.15-12.19 16.17 16.17 0 0 0 -5.15-12.22v-.13h8.27z"/><path d="m54.78 97.76c0 3.74.55 10.6 7.34 14.55a14.41 14.41 0 0 0 -2.23 2.43 15.65 15.65 0 0 1 -6.7-8.82 16.63 16.63 0 0 1 -6.75 8.86 19.15 19.15 0 0 0 -2.52-2.26c3.84-1.9 6.06-5.51 7-10.34l1.36.25c-.11-.65-.18-1.27-.24-1.86h-4.2v-2.81z"/><path d="m73.56 106.63c-.12.23-.25.45-.38.66h7.52s0 .61-.06.91c-.24 3.59-.55 5.15-1.06 5.74a2 2 0 0 1 -1.37.72 11.11 11.11 0 0 1 -2 .08 5.39 5.39 0 0 0 -.45-1.84 10 10 0 0 1 -1.84 2 9.14 9.14 0 0 0 -2-1.52 10 10 0 0 0 3.4-3.91h-.67a14.83 14.83 0 0 1 -4.28 4.53 7.86 7.86 0 0 0 -1.81-1.62 11.57 11.57 0 0 0 3.61-3h-.67a12 12 0 0 1 -2 1.67 15.76 15.76 0 0 0 -1.41-1.33c-1.48.76-3 1.5-4.27 2.13l-1-2.79c.61-.21 1.37-.5 2.21-.82v-5h-1.77v-2.6h1.74v-3.64h2.56v3.65h1.6v2.6h-1.6v4l1.27-.53.42 1.66a9.7 9.7 0 0 0 1.58-1.75h-1.83v-2.3h12v2.3zm6.19-2.83h-9.21v-6.61h9.21zm-2.55-4.75h-4.2v.57h4.2zm0 2.32h-4.2v.56h4.2zm.52 8.07a16.3 16.3 0 0 1 -1.72 3.19h.87a.59.59 0 0 0 .55-.23c.23-.25.44-1.08.61-3z"/><path d="m97.38 103.78c.4 0 1.41-.08 1.84-.12v3c-.57 0-1.23-.08-1.78-.08h-4.69a10 10 0 0 1 -4.87 7.73l-2.94-2a7.55 7.55 0 0 0 4.73-5.76h-5c-.57 0-1.31 0-1.82.08v-3a17.36 17.36 0 0 0 1.8.12h5.15v-2.26c-1.76.13-3.63.21-4.82.23l-.73-2.65a45.84 45.84 0 0 0 6.54-.3 18.25 18.25 0 0 0 4.73-1.18l1.88 2.53-1.69.42c-.89.22-1.86.42-2.87.57v2.64z"/><path d="m116 100.76a15.06 15.06 0 0 0 2.09-.15v3.13c-.78-.08-1.65-.08-2.09-.08h-2.36c-.36 4.85-2.24 8.34-5.77 10.55l-3.1-2.07a7.94 7.94 0 0 0 1.94-1.14 9.79 9.79 0 0 0 3.72-7.34h-3.53a16.88 16.88 0 0 1 -3 4l-2.9-1.79a14.9 14.9 0 0 0 3.25-3.82 13.47 13.47 0 0 0 1.12-2.57 8.74 8.74 0 0 0 .46-2.18l3.55.7c-.25.52-.53 1.26-.7 1.67s-.27.69-.42 1.09z"/><path d="m126.7 106.91-2.81 1a34.29 34.29 0 0 0 -1.75-4.43l2.77-1a46.65 46.65 0 0 1 1.79 4.43zm9.71-3.84c-.27.75-.4 1.2-.53 1.66a15.75 15.75 0 0 1 -2.55 5.39 15.12 15.12 0 0 1 -6.44 4.85l-2.41-2.47a12.92 12.92 0 0 0 6.36-4 12.7 12.7 0 0 0 2.32-6.52zm-5.49 2.64-2.76 1a34.36 34.36 0 0 0 -1.57-4.26l2.73-.89c.38.79 1.31 3.26 1.6 4.15z"/><path d="m153.93 108.93a59 59 0 0 0 -6.54-2.72v4.88c0 .51.11 2 .21 2.87h-3.6a21.88 21.88 0 0 0 .23-2.87v-10.85a13.51 13.51 0 0 0 -.23-2.47h3.59a21.82 21.82 0 0 0 -.19 2.47v2.61a64.23 64.23 0 0 1 7.85 2.86z"/><path d="m166.28 111.24a13.36 13.36 0 0 0 1.84-.34 4.77 4.77 0 0 0 4-4.73c0-2.43-1.18-4.16-3.34-4.67a38.77 38.77 0 0 1 -1.11 4.9c-1.12 3.76-2.81 6.29-5 6.29s-4.1-2.53-4.1-5.74a8.58 8.58 0 0 1 8.89-8.26c4.78 0 7.82 3.3 7.82 7.58 0 4-2.33 6.85-7.23 7.67zm-.61-9.69a5.61 5.61 0 0 0 -4.18 5.1c0 1.63.57 2.48 1.22 2.48s1.33-1.13 2-3.32a27.2 27.2 0 0 0 .96-4.26z"/><path d="m193.45 110.77c-.46-.4-.94-.82-1.45-1.2a9.51 9.51 0 0 1 -4.63 4.79l-2.44-2a8.23 8.23 0 0 0 4.7-4.38 12.93 12.93 0 0 0 -3.88-1.39 36 36 0 0 1 -2.05 4.27 3.58 3.58 0 0 1 -3.25 1.85 3 3 0 0 1 -3.13-3.31c0-3 2.69-5.26 6.51-5.49.46-1.06.9-2.15 1.26-2.89-.74 0-2 .06-2.85.12a16 16 0 0 0 -1.62.17l-.11-2.91c.53.06 1.23.1 1.65.1 1.12 0 2.87-.06 3.78-.14a5.5 5.5 0 0 0 1.48-.32l1.81 1.4a4.77 4.77 0 0 0 -.7.88 31.56 31.56 0 0 0 -1.71 3.78 17.54 17.54 0 0 1 3.43 1v-.21a11.87 11.87 0 0 0 0-2.25l3 .35a28.68 28.68 0 0 1 -.35 3.4c.73.42 1.37.83 1.87 1.16zm-12-1.77a21.52 21.52 0 0 0 1.26-2.41c-1.71.41-2.71 1.41-2.71 2.35 0 .4.22.71.51.71s.59-.19.89-.65z"/><path d="m48.25 140.11a2.66 2.66 0 1 1 -2.66 2.66 2.67 2.67 0 0 1 2.66-2.66z"/><path d="m64 138.84c-.64 2.91-1.65 6.52-3.17 8.62a16.1 16.1 0 0 0 -2.76-1.46c1.45-1.9 2.38-5.26 2.74-7.71zm4.83-4.84v14.44c0 1.6-.35 2.34-1.32 2.8a10.89 10.89 0 0 1 -4.25.51 11.47 11.47 0 0 0 -1.1-2.87c1.17.08 2.62.08 3 .06s.59-.14.59-.52v-14.42zm4.23 4.07a34.21 34.21 0 0 1 3.52 8.59l-3 1.19a34.08 34.08 0 0 0 -3.2-8.77z"/><path d="m94.83 147.05h-7.16v1.95c0 1.34-.3 2.05-1.33 2.45a11.31 11.31 0 0 1 -3.83.41 11.62 11.62 0 0 0 -1.11-2.67c1.07.05 2.57.05 2.95.05s.49-.07.49-.34v-1.8h-7.12v-2.53h7.12v-1.14h1.16a11.45 11.45 0 0 0 .93-.72h-5.7v-2.38h8.17l.59-.13 1.73 1.33a19.51 19.51 0 0 1 -3.42 3h6.53zm-14.38-5.47h-2.58v-4.89h2.41a16.75 16.75 0 0 0 -1.15-1.69l2.35-1a10.19 10.19 0 0 1 1.69 2.43l-.74.34h2.51a14.37 14.37 0 0 0 -1.09-2.14l2.46-.92a11.39 11.39 0 0 1 1.46 2.66l-1 .4h2.62a15.36 15.36 0 0 0 1.45-2.81l3 .86c-.48.68-1 1.34-1.43 1.95h2.3v4.89h-2.71v-2.47h-11.55z"/><path d="m114 148.58v2.7h-17.34v-2.7h7.18v-3.26h-4.92v-2.66h4.92v-2.91h-3.64a17.21 17.21 0 0 1 -1.66 2.58 18.31 18.31 0 0 0 -2.49-1.67 16 16 0 0 0 3.33-6.72l2.87.64a23.93 23.93 0 0 1 -.84 2.47h2.43v-3.3h2.89v3.3h6.21v2.7h-6.21v2.91h5.45v2.66h-5.45v3.26z"/><path d="m123.49 146.46c-2.47 1.1-5.23 2.24-7.41 3.13l-1-3c.72-.23 1.58-.51 2.51-.86l-.39-10.73 2.93-.11.38 9.8c.78-.3 1.57-.63 2.33-.93zm7.64 5.34a31.5 31.5 0 0 0 -3.2-4.32 13.79 13.79 0 0 1 -5.37 4.33 15.93 15.93 0 0 0 -2.21-2.46c5.76-2.23 7.7-6.84 8.32-14.44l3.08.26a30.76 30.76 0 0 1 -2.24 9.6 38.84 38.84 0 0 1 4 4.71zm-7-9.81a20.22 20.22 0 0 0 -2.83-4.8l2.56-1.24a19.47 19.47 0 0 1 3 4.58z"/><path d="m144.33 137.93v2.79l.48-.55a40.27 40.27 0 0 1 6.34 3.8l-2.07 2.54a30.26 30.26 0 0 0 -4.75-3.3v8.53h-3v-13.81h-6.63v-2.79h17.12v2.79z"/><path d="m161.53 148.24a13.36 13.36 0 0 0 1.84-.34 4.77 4.77 0 0 0 4-4.73c0-2.43-1.18-4.16-3.34-4.67a38.77 38.77 0 0 1 -1.11 4.9c-1.12 3.76-2.81 6.29-5 6.29s-4.1-2.53-4.1-5.74a8.58 8.58 0 0 1 8.89-8.26c4.78 0 7.82 3.3 7.82 7.58 0 3.95-2.33 6.85-7.23 7.67zm-.61-9.69a5.61 5.61 0 0 0 -4.18 5.1c0 1.63.57 2.48 1.22 2.48s1.33-1.13 2-3.32a27.2 27.2 0 0 0 .96-4.26z"/><path d="m183 134.76c0 3.74.55 10.6 7.34 14.55a14.41 14.41 0 0 0 -2.23 2.43 15.65 15.65 0 0 1 -6.7-8.82 16.63 16.63 0 0 1 -6.75 8.86 19.15 19.15 0 0 0 -2.52-2.26c3.84-1.9 6.06-5.51 7-10.34l1.36.25c-.11-.65-.18-1.27-.24-1.86h-4.2v-2.81z"/><path d="m201.81 143.63c-.12.23-.25.45-.38.66h7.57s0 .61-.06.91c-.24 3.59-.55 5.15-1.06 5.74a2 2 0 0 1 -1.37.72 11.11 11.11 0 0 1 -2 .08 5.39 5.39 0 0 0 -.45-1.84 10 10 0 0 1 -1.84 2 9.14 9.14 0 0 0 -2-1.52 10 10 0 0 0 3.4-3.91h-.62a14.83 14.83 0 0 1 -4.36 4.58 7.86 7.86 0 0 0 -1.81-1.62 11.57 11.57 0 0 0 3.61-3h-.67a12 12 0 0 1 -2 1.67 15.76 15.76 0 0 0 -1.41-1.33c-1.48.76-3 1.5-4.27 2.13l-1-2.79c.61-.21 1.37-.5 2.21-.82v-5h-1.75v-2.6h1.75v-3.69h2.56v3.65h1.6v2.6h-1.6v4l1.27-.53.42 1.66a9.7 9.7 0 0 0 1.58-1.75h-1.86v-2.3h12.06v2.3zm6.19-2.83h-9.21v-6.61h9.21zm-2.55-4.75h-4.23v.57h4.23zm0 2.32h-4.23v.56h4.23zm.52 8.07a16.3 16.3 0 0 1 -1.73 3.19h.87a.59.59 0 0 0 .55-.23c.23-.25.44-1.08.61-3z"/><path d="m213.15 139.24a7.6 7.6 0 0 1 -.78.66 17.68 17.68 0 0 0 -2.26-1.8 10.9 10.9 0 0 0 3.9-4.35l2.71.8a11.81 11.81 0 0 1 -.61 1.1h11.12v2.41h-1.69v2h2.37v2.45h-2.37v1.95h2.09v2.45h-16.63v-2.45h2.2v-1.95h-2.53v-2.51h2.53zm-2.75 11.51a9.83 9.83 0 0 0 2-3.68l2.7.64a11.31 11.31 0 0 1 -2.06 4.1zm5.18-10.75h.93v-2h-.93zm0 4.4h.93v-1.95h-.93zm2.89 3.08a23.11 23.11 0 0 1 .49 3.67l-2.71.4a27 27 0 0 0 -.34-3.76zm1.27-7.48v-2h-1v2zm-1 2.45v1.95h1v-1.95zm3.44 5a19.12 19.12 0 0 1 1.06 3.61l-2.77.54a19.93 19.93 0 0 0 -.89-3.71zm.78-9.4h-1v2h1zm0 4.43h-1v1.95h1zm3 4.5a28 28 0 0 1 2.34 3.88l-2.85.93a24.87 24.87 0 0 0 -2.15-4z"/><path d="m245.26 146.72v5.06h-2.59v-4.58l-5 .89-.38-2.37-1.56 2c-.25-.55-.65-1.27-1.06-2v6h-2.55v-6.12a19.88 19.88 0 0 1 -1.94 4.3 17.47 17.47 0 0 0 -1.18-2.9 16.33 16.33 0 0 0 2.26-4.39h-1.88v-2.56h2.77v-6.2h2.55v5.32a37.5 37.5 0 0 0 .89-4.44l2.3.47c-.5 1.6-1 3.42-1.5 4.56l-1.69-.44v.73h2.64v2.56h-2.64v.08a36.91 36.91 0 0 1 2.64 2.79l5.33-1v-10.75h2.59v10.35l1.78-.32.4 2.57zm-15.26-6.84a19.74 19.74 0 0 0 -.76-4.54l1.9-.49a20.13 20.13 0 0 1 .9 4.5zm8.63-.6a16.28 16.28 0 0 1 3.21 2.22l-1.39 2.2a17.29 17.29 0 0 0 -3.11-2.45zm2.45-.33a14.93 14.93 0 0 0 -2.95-2.49l1.33-1.86a15.33 15.33 0 0 1 3 2.28z"/><path d="m48.25 177.11a2.66 2.66 0 1 1 -2.66 2.66 2.67 2.67 0 0 1 2.66-2.66z"/><path d="m75.83 184.05h-7.16v1.95c0 1.34-.3 2.05-1.33 2.45a11.31 11.31 0 0 1 -3.83.41 11.62 11.62 0 0 0 -1.11-2.67c1.07.05 2.57.05 2.95.05s.49-.07.49-.34v-1.8h-7.12v-2.53h7.12v-1.14h1.16a11.45 11.45 0 0 0 .93-.72h-5.7v-2.38h8.17l.59-.13 1.73 1.33a19.51 19.51 0 0 1 -3.42 3h6.53zm-14.38-5.47h-2.58v-4.89h2.41a16.75 16.75 0 0 0 -1.15-1.69l2.35-1a10.19 10.19 0 0 1 1.69 2.43l-.74.34h2.51a14.37 14.37 0 0 0 -1.09-2.14l2.46-.92a11.39 11.39 0 0 1 1.46 2.66l-1 .4h2.62a15.36 15.36 0 0 0 1.45-2.81l3 .86c-.48.68-1 1.34-1.43 1.95h2.3v4.89h-2.71v-2.47h-11.55z"/><path d="m95 185.58v2.7h-17.34v-2.7h7.18v-3.26h-4.92v-2.66h4.92v-2.91h-3.64a17.21 17.21 0 0 1 -1.66 2.58 18.31 18.31 0 0 0 -2.49-1.67 16 16 0 0 0 3.33-6.72l2.87.64a23.93 23.93 0 0 1 -.84 2.47h2.43v-3.3h2.89v3.3h6.21v2.7h-6.21v2.91h5.45v2.66h-5.45v3.26z"/><path d="m104.53 185.24a13.36 13.36 0 0 0 1.84-.34 4.77 4.77 0 0 0 4-4.73c0-2.43-1.18-4.16-3.34-4.67a38.77 38.77 0 0 1 -1.11 4.9c-1.12 3.76-2.81 6.29-5 6.29s-4.1-2.53-4.1-5.74a8.58 8.58 0 0 1 8.89-8.26c4.78 0 7.82 3.3 7.82 7.58 0 3.95-2.33 6.85-7.23 7.67zm-.61-9.69a5.61 5.61 0 0 0 -4.18 5.1c0 1.63.57 2.48 1.22 2.48s1.33-1.13 2-3.32a27.2 27.2 0 0 0 .96-4.26z"/><path d="m126 171.76c0 3.74.55 10.6 7.34 14.55a14.41 14.41 0 0 0 -2.23 2.43 15.65 15.65 0 0 1 -6.7-8.82 16.63 16.63 0 0 1 -6.75 8.86 19.15 19.15 0 0 0 -2.52-2.26c3.84-1.9 6.06-5.51 7-10.34l1.36.25c-.11-.65-.18-1.27-.24-1.86h-4.2v-2.81z"/><path d="m144.81 180.63c-.12.23-.25.45-.38.66h7.57s0 .61-.06.91c-.24 3.59-.55 5.15-1.06 5.74a2 2 0 0 1 -1.37.72 11.11 11.11 0 0 1 -2 .08 5.39 5.39 0 0 0 -.45-1.84 10 10 0 0 1 -1.84 2 9.14 9.14 0 0 0 -2-1.52 10 10 0 0 0 3.4-3.91h-.62a14.83 14.83 0 0 1 -4.36 4.58 7.86 7.86 0 0 0 -1.81-1.62 11.57 11.57 0 0 0 3.61-3h-.67a12 12 0 0 1 -2 1.67 15.76 15.76 0 0 0 -1.41-1.33c-1.48.76-3 1.5-4.27 2.13l-1-2.79c.61-.21 1.37-.5 2.21-.82v-5h-1.75v-2.6h1.75v-3.69h2.56v3.65h1.6v2.6h-1.6v4l1.27-.53.42 1.66a9.7 9.7 0 0 0 1.58-1.75h-1.86v-2.3h12.06v2.3zm6.19-2.83h-9.21v-6.61h9.21zm-2.55-4.75h-4.23v.57h4.23zm0 2.32h-4.23v.56h4.23zm.52 8.07a16.3 16.3 0 0 1 -1.73 3.19h.87a.59.59 0 0 0 .55-.23c.23-.25.44-1.08.61-3z"/><path d="m169.26 183.72v5.06h-2.59v-4.58l-5 .89-.38-2.37-1.56 2c-.25-.55-.65-1.27-1.06-2v6h-2.55v-6.12a19.88 19.88 0 0 1 -1.94 4.3 17.47 17.47 0 0 0 -1.18-2.9 16.33 16.33 0 0 0 2.26-4.39h-1.88v-2.56h2.77v-6.2h2.55v5.32a37.5 37.5 0 0 0 .89-4.44l2.3.47c-.5 1.6-1 3.42-1.5 4.56l-1.69-.44v.73h2.64v2.56h-2.64v.08a36.91 36.91 0 0 1 2.64 2.79l5.33-1v-10.75h2.59v10.35l1.78-.32.4 2.57zm-15.26-6.84a19.74 19.74 0 0 0 -.76-4.54l1.9-.49a20.13 20.13 0 0 1 .9 4.5zm8.63-.6a16.28 16.28 0 0 1 3.21 2.22l-1.39 2.2a17.29 17.29 0 0 0 -3.11-2.45zm2.45-.33a14.93 14.93 0 0 0 -2.95-2.49l1.33-1.86a15.33 15.33 0 0 1 3 2.28z"/><path d="m176.58 185.3 1.53-2.13a4.32 4.32 0 0 0 2.91 1.35 2 2 0 0 0 2.22-2.2 2 2 0 0 0 -2.07-2.19 3.13 3.13 0 0 0 -2 .69l-1.48-1 .36-7h7.95v2.81h-5l-.21 2.39a3.62 3.62 0 0 1 1.47-.28 4.12 4.12 0 0 1 4.41 4.46 4.89 4.89 0 0 1 -5.12 5 6.72 6.72 0 0 1 -4.97-1.9z"/><path d="m188.45 179.85c0-4.86 2-7.26 5-7.26s5 2.43 5 7.26-2 7.41-5 7.41-5-2.55-5-7.41zm6.82 0c0-3.86-.82-4.66-1.82-4.66s-1.81.8-1.81 4.66.8 4.79 1.81 4.79 1.82-.92 1.82-4.79z"/><path d="m200 179.85c0-4.86 2-7.26 5-7.26s5 2.43 5 7.26-2 7.41-5 7.41-5-2.55-5-7.41zm6.82 0c0-3.86-.81-4.66-1.82-4.66s-1.81.8-1.81 4.66.8 4.79 1.81 4.79 1.84-.92 1.84-4.79z"/><path d="m233.33 185.68c0 1.41-.29 2.15-1.16 2.6a8.31 8.31 0 0 1 -3.74.52 9.92 9.92 0 0 0 -1-2.76c1 .08 2.24.06 2.6.06s.49-.12.49-.46v-3.91h-10.78v7.05h-2.74v-16.87h16.36zm-13.59-6.68h3.88v-4.35h-3.88zm10.79 0v-4.35h-4.16v4.35z"/><path d="m240.85 181a18.39 18.39 0 0 1 2.87-9.94l2.11.88a19.29 19.29 0 0 0 0 18.12l-2.11.88a18.34 18.34 0 0 1 -2.87-9.94z"/><path d="m258.35 183.46c-.19-.42-.47-1-.8-1.56v6.9h-2.67v-5.87a15.79 15.79 0 0 1 -1.68 3 14.05 14.05 0 0 0 -1.25-2.66 17.18 17.18 0 0 0 2.56-4.62h-2.16v-2.56h2.53v-1.81c-.71.12-1.39.23-2.06.31a8.35 8.35 0 0 0 -.76-2.11 25.9 25.9 0 0 0 5.85-1.58l1.83 2.13c-.69.26-1.43.47-2.19.68v2.38h1.83v2.56h-1.83v.23a33.08 33.08 0 0 1 2.36 2.41zm9.48 2.62c.21 0 .29-.29.32-2.22a7.32 7.32 0 0 0 2.34 1c-.23 2.85-.87 3.65-2.36 3.65h-1.06c-1.92 0-2.32-.82-2.32-3.14v-4.14h-.75c-.23 3.31-.93 5.95-4.44 7.56a7.33 7.33 0 0 0 -1.62-2.2c2.79-1.16 3.21-3 3.36-5.36h-1.3v-6.74h1.24a15.65 15.65 0 0 0 -1.41-2.76l2.28-1a13.21 13.21 0 0 1 1.79 3.27l-1.16.51h4.06l-1.5-.55a17.43 17.43 0 0 0 1.49-3.25l2.85.91c-.63 1.07-1.26 2.11-1.79 2.89h1.56v6.74h-2v4.13c0 .62 0 .68.17.68zm-1.18-9.16h-4v2h4z"/><path d="m276.1 184.07c.7 1.17 2 1.65 3.85 1.72a86.32 86.32 0 0 0 9.39-.21 14.09 14.09 0 0 0 -.88 2.82c-2.41.13-6.19.17-8.56 0s-3.77-.57-5-2c-.78.69-1.58 1.37-2.6 2.19l-1.3-2.87a28.08 28.08 0 0 0 2.45-1.54v-3.53h-2v-2.55h4.66zm-1.77-8.23a15.14 15.14 0 0 0 -3-3l2.05-1.65a15.65 15.65 0 0 1 3.11 2.83zm7.41-.15c-.08-.53-.13-1.08-.17-1.64h-3.23v-2.6h5.58c.19 5.19 1.16 9.8 5.21 11.82a11.71 11.71 0 0 0 -2.13 2.13 10.24 10.24 0 0 1 -4.29-5.53 11.74 11.74 0 0 1 -4.16 5.54 14.36 14.36 0 0 0 -2.11-2.08c2.58-1.51 4-4.24 4.5-7.76z"/><path d="m295.5 190a19.29 19.29 0 0 0 0-18.12l2.11-.88a18.7 18.7 0 0 1 0 19.88z"/><path d="m72 216.22 6.27-6.22.55.55-6.27 6.27 6.27 6.18-.55.55-6.27-6.23-6.29 6.29-.55-.55 6.29-6.29-6.27-6.27.55-.55zm-4 .55a1.43 1.43 0 1 1 -1.43-1.42 1.44 1.44 0 0 1 1.43 1.42zm4-4a1.43 1.43 0 1 1 1.42-1.42 1.43 1.43 0 0 1 -1.42 1.43zm0 8a1.43 1.43 0 1 1 -1.43 1.43 1.43 1.43 0 0 1 1.43-1.44zm4-4a1.43 1.43 0 0 1 2.85 0 1.43 1.43 0 1 1 -2.85 0z"/><path d="m99.7 222.58v2.7h-17.29v-2.7h7.18v-3.26h-4.92v-2.66h4.92v-2.91h-3.59a17.21 17.21 0 0 1 -1.66 2.58 18.31 18.31 0 0 0 -2.49-1.67 16 16 0 0 0 3.33-6.72l2.87.64a23.93 23.93 0 0 1 -.84 2.47h2.43v-3.3h2.89v3.3h6.21v2.7h-6.26v2.91h5.45v2.66h-5.45v3.26z"/><path d="m114.41 223a9.87 9.87 0 0 0 1.1.06h3.72a8.65 8.65 0 0 0 -.78 2.51h-3.17c-2.45 0-4.41-.49-5.83-2.24a8.28 8.28 0 0 1 -1.56 2.56 15 15 0 0 0 -2-1.69v1.65h-2.57v-7.59a12.93 12.93 0 0 1 -1.12 1 18.43 18.43 0 0 0 -1.4-2.6 14.43 14.43 0 0 0 4-4.67l2.41.89a23.67 23.67 0 0 1 -1.33 2.22v8.9c1.42-1.45 1.92-3.9 2-6.67l2.68.21a24.66 24.66 0 0 1 -.32 2.7 4.56 4.56 0 0 0 1.53 1.92v-6h-4.84v-2.42h4.69v-1.67h-3.84v-2.34h3.84v-2h2.62v2h3.9v2.34h-3.9v1.67h4.76v2.42h-4.59v2h3.85v2.36h-3.85zm-7.51-14.28a24.15 24.15 0 0 1 -4.6 4.75 21.59 21.59 0 0 0 -1.42-2 15.3 15.3 0 0 0 3.59-3.7z"/><path d="m137.83 220.19h-7.35v2.47c0 1.54-.36 2.24-1.39 2.66a12.25 12.25 0 0 1 -4.38.48 12 12 0 0 0 -1.13-2.74c1.32.06 3 .06 3.41.06s.6-.14.6-.52v-2.41h-7.39v-2.7h7.39v-1.76h-6.06v-2.64h6.06v-1.85c-1.92.18-3.83.27-5.64.33a10 10 0 0 0 -.68-2.43 73 73 0 0 0 12.93-1.47l2 2.3a52.17 52.17 0 0 1 -5.72 1v2.13h6.19v2.64h-6.19v1.76h7.35z"/><path d="m146.46 219.18a2.6 2.6 0 0 1 -.51 1.92 2.07 2.07 0 0 1 -1.54.48 6.69 6.69 0 0 0 -.38-1.79v6h-2.3v-12.19h-.49v8.23h-2v-10.64h2.47v-3.44h2.29v3.44h2.43zm-2.43.12h.38c.09 0 .13 0 .13-.19v-5.51h-.54zm13.13.74c-.71.59-1.51 1.2-2.25 1.71a6 6 0 0 0 2.4 1.67 10.09 10.09 0 0 0 -1.77 2.39 7.25 7.25 0 0 1 -3.15-3l.13 1.79c-2.11.38-4.33.76-6.1 1.06l-.55-2.41c.48-.06 1-.11 1.6-.21v-4.61h-.84v-2.25h.87v-7.78h8.71v2.2h-6.16v.51h5.57v2h-5.57v.53h5.57v2h-5.57v.55h6.76v2.25h-1.42zm-5 2.32a16.8 16.8 0 0 1 -1.29-4h-.87v4.27zm1-4a15.8 15.8 0 0 0 .56 1.48 18.47 18.47 0 0 0 1.61-1.48z"/><path d="m166.94 221.16c0-.47.08-1.18.1-1.88-1.18.68-1.69 1.29-1.69 2.05s.58 1.12 2.35 1.12a28.09 28.09 0 0 0 5.47-.59l-.09 2.95a51.26 51.26 0 0 1 -5.44.32c-3.09 0-5.31-.8-5.31-3.3s2.24-4 4.33-5.13a1.41 1.41 0 0 0 -1-.38 4.47 4.47 0 0 0 -2.77 1.25 23 23 0 0 0 -1.75 2.13l-2.43-1.83a17.42 17.42 0 0 0 4-4.84c-.78 0-2.15 0-3.14-.13v-2.64a24.82 24.82 0 0 0 3.38.22h.74a11 11 0 0 0 .33-2l3 .25a17.1 17.1 0 0 1 -.42 1.71 45.51 45.51 0 0 0 5.07-.53v2.64c-1.76.23-4.06.4-6.08.47a9.13 9.13 0 0 1 -.72 1.33 9.34 9.34 0 0 1 1.86-.19 2.74 2.74 0 0 1 2.51 1.33c.76-.36 1.37-.61 2-.91.82-.36 1.6-.72 2.4-1.1l1.12 2.62c-.67.19-1.84.63-2.57.91s-1.63.63-2.62 1.07c0 1 .06 2.3.08 3.13z"/><path d="m184.73 215.92a15.54 15.54 0 0 1 3.3-.4c3 0 5.43 1.54 5.43 4.31 0 2.2-1 4-4.23 4.83a18.13 18.13 0 0 1 -2.55.32l-1-2.95a13.51 13.51 0 0 0 2.35-.13c1.45-.25 2.51-.93 2.51-2.09s-.99-1.81-2.54-1.81a13.65 13.65 0 0 0 -3.21.41c0 1.43.08 2.74.08 3.31 0 2.66-1 3.3-2.3 3.3-2 0-4.71-1.65-4.71-3.81 0-1.69 1.88-3.46 4.25-4.49 0-.49 0-1 0-1.46v-1.08c-.3 0-.56 0-.81 0a25.46 25.46 0 0 1 -2.74-.1l-.05-2.73a22.4 22.4 0 0 0 2.71.13h.89v-1.2a18.11 18.11 0 0 0 -.13-1.84h3.12c-.06.36-.15 1.33-.19 1.82l-.06 1a24 24 0 0 0 3.25-.64l.06 2.83c-1 .23-2.25.4-3.38.53v1.22zm-2.53 5.28c0-.36 0-1 0-1.77-.93.53-1.5 1.14-1.5 1.69s.63.82 1 .82.5-.08.5-.74zm8-10.72a45.19 45.19 0 0 1 4.8 2.61l-1.34 2.31a35.37 35.37 0 0 0 -4.7-2.69z"/><path d="m202.28 218.18-1.63.45v4.18c0 1.2-.19 1.88-.84 2.32a4.92 4.92 0 0 1 -2.77.51 9.59 9.59 0 0 0 -.69-2.56h1.47s.3-.08.3-.33v-3.47l-1.73.45-.57-2.64c.67-.13 1.45-.3 2.3-.49v-2.89h-2v-2.53h2v-3.45h2.53v3.45h1.4v2.53h-1.4v2.29l1.29-.32zm9.65-2.21v1.16h2v2.49h-2v3.38c0 1.29-.22 2-1 2.36a7.42 7.42 0 0 1 -3.21.43 10.89 10.89 0 0 0 -.76-2.58 18.83 18.83 0 0 0 2 0c.27 0 .36-.06.36-.3v-3.35h-3.67a15.37 15.37 0 0 1 2 3l-2.4 1.44a14.9 14.9 0 0 0 -1.94-3.34l1.9-1h-2.72v-2.49h6.82v-1.17h-7v-2.5h4.54v-1.24h-3.82v-2.49h3.82v-1.92h2.62v1.92h3.72v2.49h-3.69v1.24h4.5v2.5z"/><path d="m229.66 213a70.79 70.79 0 0 1 -7.39.78c-.21.91-.44 1.82-.67 2.62a10.13 10.13 0 0 1 4.34-.93c3.06 0 5.24 1.67 5.24 4.2 0 4.39-4.12 6-10.41 5.28l-.77-2.95c4 .7 8.13.34 8.13-2.26 0-1-.87-1.83-2.5-1.83a6.11 6.11 0 0 0 -5 2.19 5.68 5.68 0 0 0 -.5.79l-2.69-.95a30.3 30.3 0 0 0 2.11-6.11c-1.12 0-2.17-.08-3-.17v-2.82a26.1 26.1 0 0 0 3.57.38c0-.18.05-.36.07-.51a9.74 9.74 0 0 0 .1-2.09l3.21.14c-.23.76-.34 1.42-.49 2.1l-.06.29a46 46 0 0 0 6.74-.87z"/><path d="m247.73 210.52c-.7.52-1.35 1-1.86 1.41-1.18.89-3.54 2.7-4.71 3.72-.94.8-.9 1 0 1.77 1.24 1.08 4.94 4 6.83 5.74l-2.67 2.47c-.6-.69-1.23-1.34-1.84-2-1-1.09-3.74-3.4-5.45-4.87-1.92-1.65-1.8-2.79.19-4.42 1.5-1.22 3.91-3.21 5.19-4.43a14.23 14.23 0 0 0 1.65-1.78z"/><path d="m263.63 213.49a31.35 31.35 0 0 1 -3.49.58c-.19.8-.38 1.64-.57 2.38a64 64 0 0 1 -3 8.76l-3.18-1.07a41.51 41.51 0 0 0 3.31-8.49c.11-.44.25-.89.34-1.33-.32 0-.65 0-1 0-1 0-1.69 0-2.34-.08l-.07-2.83a18.49 18.49 0 0 0 2.43.16h1.5a4.79 4.79 0 0 0 .11-.76 9.75 9.75 0 0 0 .06-2.11l3.48.27c-.15.58-.34 1.5-.44 1.93l-.07.33c1-.16 1.93-.35 2.88-.57zm-.17 5.94a7.09 7.09 0 0 0 -.25 1.5c0 .78.5 1.28 2.15 1.28a24.74 24.74 0 0 0 4-.4l-.12 2.9a29.51 29.51 0 0 1 -3.93.27c-3.28 0-4.94-1.2-4.94-3.12a12.82 12.82 0 0 1 .35-2.68zm-1.46-4.8a36.07 36.07 0 0 1 3.72-.21 32.16 32.16 0 0 1 3.33.17l-.06 2.73a28.27 28.27 0 0 0 -3.27-.24 27.33 27.33 0 0 0 -3.72.21zm4.79-1.85a24.51 24.51 0 0 0 -1.47-2.64l1.79-.72c.47.7 1.14 1.94 1.48 2.6zm2.37-.93a21.33 21.33 0 0 0 -1.5-2.62l1.79-.72c.49.72 1.17 1.94 1.5 2.58z"/><path d="m288 212.93c-.87.25-1.9.52-3 .75.7 1.52 1.54 3.11 2.37 4.56l-1.57 1.7c-1.14-.22-3-.55-4.51-.74l.25-2.33c.59 0 1.45.13 2 .15-.4-.82-.91-1.81-1.41-2.87a43.38 43.38 0 0 1 -7.9 0l-.1-2.91a31.76 31.76 0 0 0 6.8.23l-.28-.62a11 11 0 0 0 -1-1.92l3.23-.63a28.87 28.87 0 0 0 1 2.76 28.35 28.35 0 0 0 3.61-1zm-10.09 5a8.46 8.46 0 0 0 -.51 2.19c0 1.21.46 2.09 3 2.09a22.44 22.44 0 0 0 5.22-.55l-.05 3a26.81 26.81 0 0 1 -5.17.47c-3.93 0-6-1.44-6-4.22a14.63 14.63 0 0 1 .53-3.21z"/><path d="m295.59 212.84c0 1.23 0 2.47.12 3.72.22 2.47.6 4.2 1.69 4.2.87 0 1.53-2.35 1.8-3.63l2.3 2.81c-1.31 3.33-2.51 4.51-4.16 4.51-2.22 0-4.07-1.9-4.6-7-.19-1.79-.21-3.93-.21-5.13a10.49 10.49 0 0 0 -.17-2h3.5a17.74 17.74 0 0 0 -.27 2.52zm13 7.62-3 1.16c-.27-2.83-1.18-7.64-3.38-10l2.9-1c1.78 2.18 3.29 7.12 3.44 9.84z"/><path d="m72 253.22 6.27-6.22.55.55-6.27 6.27 6.27 6.18-.55.55-6.27-6.23-6.29 6.29-.55-.55 6.29-6.29-6.27-6.27.55-.55zm-4 .55a1.43 1.43 0 1 1 -1.43-1.42 1.44 1.44 0 0 1 1.43 1.42zm4-4a1.43 1.43 0 1 1 1.42-1.42 1.43 1.43 0 0 1 -1.42 1.43zm0 8a1.43 1.43 0 1 1 -1.43 1.43 1.43 1.43 0 0 1 1.43-1.44zm4-4a1.43 1.43 0 0 1 2.85 0 1.43 1.43 0 1 1 -2.85 0z"/><path d="m85.43 250.85a16.45 16.45 0 0 0 -2.09-4.43l2.53-1a16.21 16.21 0 0 1 2.24 4.28zm7.11.41h6v11.52h-3v-.78h-12.1v-2.76h12.14v-1.4h-11v-2.66h11v-1.18h-11.69v-2.78h5.59v-6.51h3.06zm6.36-5.12a42.45 42.45 0 0 1 -2.56 4.74l-2.47-.83a23.27 23.27 0 0 0 1.92-4.79z"/><path d="m116.89 245.81v16.76h-3v-1.26h-7.89v1.26h-2.85v-16.76zm-10.89 2.8v3.47h7.88v-3.47zm7.88 9.91v-3.7h-7.88v3.7z"/><path d="m135.15 254.65a11.15 11.15 0 0 1 -3.28 4.25 30.3 30.3 0 0 0 5.92 1 12.6 12.6 0 0 0 -1.69 2.6 23.46 23.46 0 0 1 -7.12-1.84 25.35 25.35 0 0 1 -7.26 1.9 9.12 9.12 0 0 0 -1.61-2.47 27.68 27.68 0 0 0 6.06-1.08 13.15 13.15 0 0 1 -2.53-2.47l.89-.36h-1v-2.53h9.22l.47-.1 1.48.88v-1.86h-11.53v1.93h-2.59v-4.31h2.57a12.83 12.83 0 0 0 -.69-1.63l1.54-.42c-.89 0-1.78.06-2.64.08a8.57 8.57 0 0 0 -.61-2.34 102.42 102.42 0 0 0 14.38-1.25l1.85 2.24c-2.11.38-4.52.68-7 .89a8.37 8.37 0 0 1 .72 2.15l-1.18.28h2.79a18.4 18.4 0 0 0 .94-2.62l3 .65c-.38.7-.78 1.36-1.14 2h2.39v4.31h-2.56zm-6.36-6.81c-1.27.1-2.55.18-3.8.23a8.82 8.82 0 0 1 .84 1.88l-.8.23h3a12.63 12.63 0 0 0 -.61-2zm-2.17 8.33a10 10 0 0 0 2.34 1.61 8.26 8.26 0 0 0 2-1.61z"/><path d="m146 245.72a33.92 33.92 0 0 1 -1.71 3.7v13.34h-2.82v-9.06a13.7 13.7 0 0 1 -1 1.12 21.19 21.19 0 0 0 -1.6-2.93 19.25 19.25 0 0 0 4.39-7zm11 5.87h-1.9v8c0 1.66-.36 2.36-1.38 2.78a13.41 13.41 0 0 1 -4.7.45 9.9 9.9 0 0 0 -1-2.73c1.41.08 3.11.08 3.59.06s.67-.16.67-.57v-8h-7v-2.8h7v-3.78h2.86v3.83h1.86zm-8.87 6.63a46.6 46.6 0 0 0 -2.28-4.49l2.45-1.14c.78 1.33 1.94 3.16 2.47 4.3z"/><path d="m163.43 246.34a17.59 17.59 0 0 0 -.53 1.92 48.72 48.72 0 0 0 -.9 6.74 3.39 3.39 0 0 0 0 .44c.25-.54.48-.92.72-1.45l1.39 1.08a49.33 49.33 0 0 0 -1.37 4.85 7.13 7.13 0 0 0 -.11.89v.86l-2.62.17a24 24 0 0 1 -.76-6.19 53.36 53.36 0 0 1 .74-7.41 20.9 20.9 0 0 0 .22-2.13zm4.44 9.39a6.55 6.55 0 0 0 -.19 1.5c0 .84.78 1.14 2.32 1.14a22.67 22.67 0 0 0 4.75-.49l.06 3.07a26.93 26.93 0 0 1 -5 .36c-3.29 0-4.92-1.23-4.92-3.23a11.3 11.3 0 0 1 .34-2.58zm6.35-8.27v2.95a57.07 57.07 0 0 1 -8.27 0v-2.93a42.42 42.42 0 0 0 8.27-.02z"/><path d="m179.73 247.62c1.77-.16 4.62-.38 8.05-.69 1.89-.15 4.11-.26 5.48-.32v2.93a22.29 22.29 0 0 0 -3.6.22 5.24 5.24 0 0 0 -3.79 4.89c0 2.77 2.61 3.85 5.86 4l-1.07 3.18c-4.2-.33-7.79-2.61-7.79-6.62a7.68 7.68 0 0 1 2.38-5.49c-1.62.17-4.92.55-7.18 1.05l-.29-3.1c.77.02 1.59-.01 1.95-.05z"/><path d="m203.73 252.92a15.54 15.54 0 0 1 3.3-.4c3 0 5.43 1.54 5.43 4.31 0 2.2-1 4-4.23 4.83a18.13 18.13 0 0 1 -2.55.32l-1-3a13.51 13.51 0 0 0 2.35-.13c1.45-.25 2.51-.93 2.51-2.09s-.99-1.76-2.54-1.76a13.65 13.65 0 0 0 -3.21.41c0 1.43.08 2.74.08 3.31 0 2.66-1 3.3-2.3 3.3-2 0-4.71-1.65-4.71-3.81 0-1.69 1.88-3.46 4.25-4.49 0-.49 0-1 0-1.46v-1.08c-.3 0-.56 0-.81 0a25.46 25.46 0 0 1 -2.74-.1l-.05-2.73a22.4 22.4 0 0 0 2.71.13h.89v-1.2a18.11 18.11 0 0 0 -.13-1.84h3.12c-.06.36-.15 1.33-.19 1.82l-.06 1a24 24 0 0 0 3.25-.64l.06 2.83c-1 .23-2.25.4-3.38.53v1.22zm-2.53 5.28c0-.36 0-1 0-1.77-.93.53-1.5 1.14-1.5 1.69s.63.82 1 .82.5-.08.5-.74zm8-10.72a45.19 45.19 0 0 1 4.8 2.61l-1.34 2.31a35.37 35.37 0 0 0 -4.7-2.69z"/><path d="m230.88 252.58a13.89 13.89 0 0 1 -4.2 6.09 23 23 0 0 0 6.4 1.45 12.77 12.77 0 0 0 -1.77 2.71 20 20 0 0 1 -7.44-2.33 24.6 24.6 0 0 1 -7.45 2.3 10.27 10.27 0 0 0 -1.5-2.68 26.38 26.38 0 0 0 6.44-1.48 15.24 15.24 0 0 1 -2.81-3.69l2-.68h-3.85v-2.7h5.78v-1.81h-6.75v-2.76h6.75v-2.28h2.89v2.28h6.8v2.73h-6.8v1.81h3.07l.48-.1zm-9.6 1.69a9.7 9.7 0 0 0 2.76 3 9.58 9.58 0 0 0 2.85-3z"/><path d="m241.84 255.29-2.45.5v4.08c0 1.31-.23 2-1 2.41a6.9 6.9 0 0 1 -3.27.52 9.73 9.73 0 0 0 -.78-2.59h1.94s.38-.11.38-.4v-3.51l-2.26.43-.55-2.69c.8-.1 1.77-.25 2.81-.4v-2.89h-2.51v-2.57h2.51v-3.49h2.7v3.49h2.24v2.57h-2.24v2.45l2.26-.38zm7.66 7.49c-.1-.5-.21-1.07-.38-1.67-3.12.49-6.39.94-8.84 1.29l-.61-2.91c.61-.06 1.3-.11 2-.19a90.46 90.46 0 0 0 2.49-14.08l3 .48a112.55 112.55 0 0 1 -2.64 13.3c1.19-.12 2.46-.27 3.72-.42-.55-1.54-1.22-3.17-1.88-4.58l2.47-.84a42.58 42.58 0 0 1 3.36 8.59z"/><path d="m257.59 249.84c0 1.23 0 2.47.12 3.72.22 2.47.6 4.2 1.69 4.2.87 0 1.53-2.35 1.8-3.63l2.3 2.81c-1.31 3.33-2.51 4.51-4.16 4.51-2.22 0-4.07-1.9-4.6-7-.19-1.79-.21-3.93-.21-5.13a10.49 10.49 0 0 0 -.17-2h3.5a17.74 17.74 0 0 0 -.27 2.52zm13 7.62-3 1.16c-.27-2.83-1.18-7.64-3.38-10l2.9-1c1.78 2.18 3.29 7.12 3.44 9.84z"/><path d="m285.73 247.52c-.7.52-1.35 1-1.86 1.41-1.18.89-3.54 2.7-4.71 3.72-.94.8-.9 1 0 1.77 1.24 1.08 4.94 4 6.83 5.74l-2.67 2.47c-.6-.69-1.23-1.34-1.84-2-1-1.09-3.74-3.4-5.45-4.87-1.92-1.65-1.8-2.79.19-4.42 1.5-1.22 3.91-3.21 5.19-4.43a14.23 14.23 0 0 0 1.65-1.78z"/><path d="m301.63 250.49a31.35 31.35 0 0 1 -3.49.58c-.19.8-.38 1.64-.57 2.38a64 64 0 0 1 -3 8.76l-3.18-1.07a41.51 41.51 0 0 0 3.31-8.49c.11-.44.25-.89.34-1.33-.32 0-.65 0-1 0-1 0-1.69 0-2.34-.08l-.07-2.83a18.49 18.49 0 0 0 2.43.16h1.5a4.79 4.79 0 0 0 .11-.76 9.75 9.75 0 0 0 .06-2.11l3.48.27c-.15.58-.34 1.5-.44 1.93l-.07.33c1-.16 1.93-.35 2.88-.57zm-.17 5.94a7.09 7.09 0 0 0 -.25 1.5c0 .78.5 1.28 2.15 1.28a24.74 24.74 0 0 0 4-.4l-.12 2.9a29.51 29.51 0 0 1 -3.93.27c-3.28 0-4.94-1.2-4.94-3.12a12.82 12.82 0 0 1 .35-2.68zm-1.46-4.8a36.07 36.07 0 0 1 3.72-.21 32.16 32.16 0 0 1 3.33.17l-.06 2.73a28.27 28.27 0 0 0 -3.27-.24 27.33 27.33 0 0 0 -3.72.21zm4.79-1.85a24.51 24.51 0 0 0 -1.47-2.64l1.79-.72c.47.7 1.14 1.94 1.48 2.6zm2.37-.93a21.33 21.33 0 0 0 -1.5-2.62l1.79-.72c.49.72 1.17 1.94 1.5 2.58z"/><path d="m326 249.93c-.87.25-1.9.52-3 .75.7 1.52 1.54 3.11 2.37 4.56l-1.57 1.7c-1.14-.22-3-.55-4.51-.74l.25-2.33c.59 0 1.45.13 2 .15-.4-.82-.91-1.81-1.41-2.87a43.38 43.38 0 0 1 -7.9 0l-.1-2.91a31.76 31.76 0 0 0 6.8.23l-.28-.62a11 11 0 0 0 -1-1.92l3.23-.63a28.87 28.87 0 0 0 1 2.76 28.35 28.35 0 0 0 3.61-1zm-10.09 5a8.46 8.46 0 0 0 -.51 2.19c0 1.21.46 2.09 3 2.09a22.44 22.44 0 0 0 5.22-.55l-.05 3a26.81 26.81 0 0 1 -5.17.47c-3.93 0-6-1.44-6-4.22a14.63 14.63 0 0 1 .53-3.21z"/><path d="m333.59 249.84c0 1.23 0 2.47.12 3.72.22 2.47.6 4.2 1.69 4.2.87 0 1.53-2.35 1.8-3.63l2.3 2.81c-1.31 3.33-2.51 4.51-4.16 4.51-2.22 0-4.07-1.9-4.6-7-.19-1.79-.21-3.93-.21-5.13a10.49 10.49 0 0 0 -.17-2h3.5a17.74 17.74 0 0 0 -.27 2.52zm13 7.62-3 1.16c-.27-2.83-1.18-7.64-3.38-10l2.9-1c1.78 2.18 3.29 7.12 3.44 9.84z"/><path d="m48.25 288.11a2.66 2.66 0 1 1 -2.66 2.66 2.67 2.67 0 0 1 2.66-2.66z"/><path d="m65.27 283.48c-.45 1.67-1 3.82-1.54 5.28a5.85 5.85 0 0 1 1.27 3.72c0 1.33-.27 2.13-.91 2.59a2.85 2.85 0 0 1 -1.14.43 10.68 10.68 0 0 1 -1.22.06 6.63 6.63 0 0 0 -.3-1.71v6h-2.43v-17.28h4.09l.38-.1zm-3.87 9.76h.4a.74.74 0 0 0 .49-.15c.19-.15.27-.46.27-1a4.84 4.84 0 0 0 -1.11-3.09c.29-1.12.63-2.73.88-4h-.93zm14.81 4h-4.5v2.55h-2.71v-2.55h-4.43v-2.14h4.43v-.72h-3.4v-5.85h9.7v5.85h-3.59v.72h4.5zm-9.3-11.44a7.7 7.7 0 0 0 -.25-.89h-1.33v-2.13h3.67v-1h2.68v1h4.07v2.13h-1.34l-.51.89h2.24v2.13h-11.38v-2.13zm1.17 4.89h4.66v-.55h-4.66zm0 2.07h4.66v-.55h-4.66zm3.29-7c.1-.27.23-.57.32-.86h-2.6a4.68 4.68 0 0 1 .25.89h2.24z"/><path d="m85.72 283.12c-.14.57-.29 1.27-.4 1.8s-.21 1-.32 1.52c.49 0 .93-.06 1.27-.06 2.16 0 3.59 1 3.59 3.84 0 2.2-.25 5.23-1 6.9a3.2 3.2 0 0 1 -3.28 1.82 10.54 10.54 0 0 1 -2.28-.27l-.5-3a12.1 12.1 0 0 0 2.3.4 1.27 1.27 0 0 0 1.27-.72 13.29 13.29 0 0 0 .71-4.82c0-1.37-.57-1.54-1.75-1.54h-.87c-.76 2.93-2.17 7.45-3.77 10l-3-1.19a27.44 27.44 0 0 0 3.71-8.49l-1.18.17c-.61.07-1.69.23-2.32.34l-.25-3.06a20 20 0 0 0 2.19 0c.55 0 1.33-.07 2.16-.13a18.55 18.55 0 0 0 .36-3.93zm6.68 2a34.51 34.51 0 0 1 3 6.76l-2.9 1.35a20.77 20.77 0 0 0 -3.04-7.23l1.65-.69a24.44 24.44 0 0 0 -1.29-2.31l1.79-.72c.47.71 1.14 1.94 1.48 2.6zm1.26-.46a22.09 22.09 0 0 0 -1.5-2.62l1.78-.72a25.71 25.71 0 0 1 1.5 2.58z"/><path d="m100.84 286.84c0 1.23 0 2.47.12 3.72.22 2.47.6 4.2 1.69 4.2.87 0 1.53-2.35 1.8-3.63l2.3 2.81c-1.31 3.33-2.51 4.51-4.16 4.51-2.22 0-4.07-1.9-4.6-7.05-.19-1.79-.21-3.93-.21-5.13a10.49 10.49 0 0 0 -.17-2h3.5a17.74 17.74 0 0 0 -.27 2.57zm13 7.62-3 1.16c-.27-2.83-1.18-7.64-3.38-10l2.9-.95c1.78 2.13 3.29 7.07 3.44 9.79z"/><path d="m133.08 294.19h-7.35v2.47c0 1.54-.36 2.24-1.39 2.66a12.25 12.25 0 0 1 -4.38.48 12 12 0 0 0 -1.13-2.74c1.32.06 3 .06 3.41.06s.6-.14.6-.52v-2.41h-7.39v-2.7h7.39v-1.76h-6.06v-2.64h6.06v-1.85c-1.92.18-3.83.27-5.64.33a10 10 0 0 0 -.68-2.43 73 73 0 0 0 12.93-1.47l2 2.3a52.17 52.17 0 0 1 -5.72 1v2.13h6.19v2.64h-6.19v1.76h7.35z"/><path d="m141.71 293.18a2.6 2.6 0 0 1 -.51 1.92 2.07 2.07 0 0 1 -1.54.48 6.69 6.69 0 0 0 -.38-1.79v6h-2.28v-12.19h-.49v8.23h-2v-10.64h2.49v-3.44h2.3v3.44h2.43zm-2.43.12h.38c.09 0 .13 0 .13-.19v-5.51h-.51zm13.13.74c-.71.59-1.51 1.2-2.25 1.71a6 6 0 0 0 2.4 1.67 10.09 10.09 0 0 0 -1.77 2.39 7.25 7.25 0 0 1 -3.15-3l.13 1.79c-2.11.38-4.33.76-6.1 1.06l-.55-2.41c.48-.06 1-.11 1.6-.21v-4.61h-.84v-2.25h.87v-7.78h8.71v2.2h-6.16v.51h5.57v2h-5.57v.53h5.57v2h-5.57v.55h6.76v2.25h-1.42zm-5 2.32a16.8 16.8 0 0 1 -1.29-3.95h-.84v4.27zm1-3.95a15.8 15.8 0 0 0 .56 1.48 18.47 18.47 0 0 0 1.61-1.48z"/><path d="m162.19 295.16c0-.47.08-1.18.1-1.88-1.18.68-1.69 1.29-1.69 2.05s.58 1.12 2.35 1.12a28.09 28.09 0 0 0 5.47-.59l-.09 2.95a51.26 51.26 0 0 1 -5.44.32c-3.09 0-5.31-.8-5.31-3.3s2.24-4 4.33-5.13a1.41 1.41 0 0 0 -1-.38 4.47 4.47 0 0 0 -2.77 1.25 23 23 0 0 0 -1.75 2.13l-2.43-1.83a17.42 17.42 0 0 0 4-4.84c-.78 0-2.15 0-3.14-.13v-2.64a24.82 24.82 0 0 0 3.38.22h.74a11 11 0 0 0 .33-2.05l3 .25a17.1 17.1 0 0 1 -.42 1.71 45.51 45.51 0 0 0 5.07-.53v2.64c-1.76.23-4.06.4-6.08.47a9.13 9.13 0 0 1 -.72 1.33 9.34 9.34 0 0 1 1.86-.19 2.74 2.74 0 0 1 2.51 1.33c.76-.36 1.37-.61 2-.91.82-.36 1.6-.72 2.4-1.1l1.12 2.62c-.67.19-1.84.63-2.57.91s-1.63.63-2.62 1.07c0 1 .06 2.3.08 3.13z"/><path d="m178.53 292.18-1.63.45v4.18c0 1.2-.19 1.88-.84 2.32a4.92 4.92 0 0 1 -2.77.51 9.59 9.59 0 0 0 -.69-2.56h1.47s.3-.08.3-.33v-3.47l-1.73.45-.57-2.64c.67-.13 1.45-.3 2.3-.49v-2.89h-2v-2.53h2v-3.45h2.53v3.45h1.4v2.53h-1.4v2.29l1.29-.32zm9.65-2.21v1.16h2v2.49h-2v3.38c0 1.29-.22 2-1 2.36a7.42 7.42 0 0 1 -3.21.43 10.89 10.89 0 0 0 -.76-2.58 18.83 18.83 0 0 0 2 0c.27 0 .36-.06.36-.3v-3.35h-3.67a15.37 15.37 0 0 1 2 3l-2.4 1.44a14.9 14.9 0 0 0 -1.94-3.34l1.9-1.05h-2.72v-2.49h6.82v-1.12h-7v-2.5h4.54v-1.24h-3.82v-2.49h3.82v-1.92h2.62v1.92h3.72v2.49h-3.72v1.24h4.54v2.5z"/><path d="m195.48 289.16a26.91 26.91 0 0 1 6.8-1.45c3.15 0 5.19 1.87 5.19 4.89 0 3.26-2.72 5.87-9.2 6.27l-1.21-2.82c4.4-.11 7.37-1.23 7.37-3.51a2.18 2.18 0 0 0 -2.43-2.17c-2.11 0-5.65 1.47-7.49 2.26l-1.16-3a20.57 20.57 0 0 0 2.13-.47z"/><path d="m213 284.62c1.77-.16 4.62-.38 8.05-.69 1.89-.15 4.11-.26 5.48-.32v2.93a22.29 22.29 0 0 0 -3.6.22 5.24 5.24 0 0 0 -3.79 4.89c0 2.77 2.61 3.85 5.86 4l-1.07 3.18c-4.2-.33-7.79-2.61-7.79-6.62a7.68 7.68 0 0 1 2.38-5.49c-1.62.17-4.92.55-7.18 1.05l-.29-3.1c.75.02 1.57-.01 1.95-.05z"/><path d="m243.68 285.05c-.49.31-1 .59-1.44.92-1.07.72-2.72 2.07-3.74 2.86a6.62 6.62 0 0 1 1.31-.11c3.23 0 5.77 2.07 5.77 4.9s-2.13 5.51-7 5.51c-2.66 0-4.86-1.23-4.86-3.3a3.45 3.45 0 0 1 3.65-3.2 3.86 3.86 0 0 1 4.1 3.12 2.49 2.49 0 0 0 1.1-2.17c0-1.61-1.65-2.62-3.72-2.62-2.76 0-4.73 1.66-6.54 3.86l-2.07-2.15c1.22-.95 3.4-2.81 4.52-3.72s2.79-2.22 3.71-3c-.95 0-2.89.09-3.9.17-.57 0-1.23.09-1.69.17l-.09-2.94a17 17 0 0 0 1.91.11c1 0 4.77-.06 5.89-.15a10 10 0 0 0 1.68-.23zm-4.82 11.46c-.1-1.05-.67-1.71-1.47-1.71-.6 0-1 .36-1 .74 0 .59.63 1 1.58 1 .34.01.62-.01.89-.03z"/><path d="m256.89 287.3c0 .7-.1 1.4-.19 2.1h7.22s0 .8-.08 1.16c-.32 5.06-.72 7.22-1.5 8.1a3.27 3.27 0 0 1 -2.28 1 28.86 28.86 0 0 1 -3.32 0 6 6 0 0 0 -1-2.72c1.29.12 2.62.12 3.21.12a1.37 1.37 0 0 0 1-.25c.45-.38.78-1.9 1-4.86h-4.66a11.35 11.35 0 0 1 -6.15 8 8.54 8.54 0 0 0 -2-2.36c5-2.37 5.47-6.42 5.66-10.31h-5.24v-2.64h7.12v-3h2.87v3h7.37v2.64z"/><path d="m278 282.76c0 3.74.55 10.6 7.34 14.55a14.41 14.41 0 0 0 -2.23 2.43 15.65 15.65 0 0 1 -6.7-8.82 16.63 16.63 0 0 1 -6.75 8.86 19.15 19.15 0 0 0 -2.52-2.26c3.84-1.9 6.06-5.51 7-10.34l1.36.25c-.11-.65-.18-1.27-.24-1.86h-4.2v-2.81z"/><path d="m296.81 291.63c-.12.23-.25.45-.38.66h7.57s0 .61-.06.91c-.24 3.59-.55 5.15-1.06 5.74a2 2 0 0 1 -1.37.72 11.11 11.11 0 0 1 -2 .08 5.39 5.39 0 0 0 -.45-1.84 10 10 0 0 1 -1.84 2 9.14 9.14 0 0 0 -2-1.52 10 10 0 0 0 3.4-3.91h-.62a14.83 14.83 0 0 1 -4.36 4.58 7.86 7.86 0 0 0 -1.81-1.62 11.57 11.57 0 0 0 3.61-3h-.67a12 12 0 0 1 -2 1.67 15.76 15.76 0 0 0 -1.41-1.33c-1.48.76-3 1.5-4.27 2.13l-1-2.79c.61-.21 1.37-.5 2.21-.82v-5h-1.75v-2.6h1.75v-3.69h2.56v3.65h1.6v2.6h-1.6v4l1.27-.53.42 1.66a9.7 9.7 0 0 0 1.58-1.75h-1.86v-2.3h12.06v2.3zm6.19-2.83h-9.21v-6.61h9.21zm-2.55-4.75h-4.23v.57h4.23zm0 2.32h-4.23v.56h4.23zm.52 8.07a16.3 16.3 0 0 1 -1.73 3.19h.87a.59.59 0 0 0 .55-.23c.23-.25.44-1.08.61-3z"/><path d="m308.15 287.24a7.6 7.6 0 0 1 -.78.66 17.68 17.68 0 0 0 -2.26-1.8 10.9 10.9 0 0 0 3.9-4.35l2.71.8a11.81 11.81 0 0 1 -.61 1.1h11.12v2.41h-1.69v2h2.37v2.45h-2.37v1.95h2.09v2.45h-16.63v-2.45h2.2v-1.95h-2.53v-2.51h2.53zm-2.75 11.51a9.83 9.83 0 0 0 2-3.68l2.7.64a11.31 11.31 0 0 1 -2.06 4.1zm5.18-10.75h.93v-2h-.93zm0 4.4h.93v-1.95h-.93zm2.89 3.08a23.11 23.11 0 0 1 .49 3.67l-2.71.4a27 27 0 0 0 -.34-3.76zm1.27-7.48v-2h-.95v2zm-.95 2.45v1.95h.95v-1.95zm3.44 5a19.12 19.12 0 0 1 1.06 3.61l-2.77.54a19.93 19.93 0 0 0 -.89-3.71zm.78-9.4h-1v2h1zm0 4.43h-1v1.95h1zm3 4.5a28 28 0 0 1 2.34 3.88l-2.85.93a24.87 24.87 0 0 0 -2.15-4z"/><path d="m340.26 294.72v5.06h-2.59v-4.58l-5 .89-.38-2.37-1.56 2c-.25-.55-.65-1.27-1.06-2v6h-2.55v-6.12a19.88 19.88 0 0 1 -1.94 4.3 17.47 17.47 0 0 0 -1.18-2.9 16.33 16.33 0 0 0 2.26-4.39h-1.88v-2.56h2.77v-6.2h2.55v5.32a37.5 37.5 0 0 0 .89-4.44l2.3.47c-.5 1.6-1.05 3.42-1.5 4.56l-1.69-.44v.73h2.64v2.56h-2.64v.08a36.91 36.91 0 0 1 2.64 2.79l5.33-.95v-10.8h2.59v10.35l1.78-.32.4 2.57zm-15.26-6.84a19.74 19.74 0 0 0 -.76-4.54l1.9-.49a20.13 20.13 0 0 1 .9 4.5zm8.63-.6a16.28 16.28 0 0 1 3.21 2.22l-1.39 2.2a17.29 17.29 0 0 0 -3.11-2.45zm2.45-.33a14.93 14.93 0 0 0 -3-2.49l1.33-1.86a15.33 15.33 0 0 1 3 2.28z"/><path d="m72 327.22 6.27-6.22.55.55-6.27 6.27 6.27 6.18-.55.55-6.27-6.23-6.29 6.29-.55-.55 6.29-6.29-6.27-6.27.55-.55zm-4 .55a1.43 1.43 0 1 1 -1.43-1.42 1.44 1.44 0 0 1 1.43 1.42zm4-4a1.43 1.43 0 1 1 1.42-1.42 1.43 1.43 0 0 1 -1.42 1.43zm0 8a1.43 1.43 0 1 1 -1.43 1.43 1.43 1.43 0 0 1 1.43-1.44zm4-4a1.43 1.43 0 0 1 2.85 0 1.43 1.43 0 1 1 -2.85 0z"/><path d="m96.45 330.22a13.85 13.85 0 0 0 4 3.75 11.4 11.4 0 0 0 -2 2.2 15.34 15.34 0 0 1 -3.32-3.69v4.32h-2.73v-4.2a14.06 14.06 0 0 1 -3.55 3.51 12.12 12.12 0 0 0 -1.85-2.18v2.81h-2.65v-9.46a15.6 15.6 0 0 1 -1.12 1.27 17.83 17.83 0 0 0 -1.43-2.87 19.31 19.31 0 0 0 4.3-6.89l2.56.83a32.77 32.77 0 0 1 -1.66 3.63v10.64a12.47 12.47 0 0 0 4.16-3.67h-3.45v-2.49h4.69v-1.34h-3.51v-6.84h10.11v6.84h-3.82v1.34h4.69v2.49zm-5-6.25h4.75v-2h-4.71z"/><path d="m107.4 324.05h-6.4v-2.15h6.43zm-.52 11.74h-3.06v.72h-2.12v-6.59h5.18zm2.89-14.29h-2.17v-1.92h2.17v-.85h2.43v.85h1.86v-.85h2.45v.85h2.23v1.92h-2.23v.82h-.83c-.15.29-.3.55-.44.8h3v1.65h-3.24v.36h2.8v1.29h-2.8v.38h2.8v1.3h-2.8v.39h3.65v1.66h-10v-3.65l-.25.25a12.78 12.78 0 0 0 -1.56-1.31v1.23h-5.15v-2.05h5.15v.59a8.68 8.68 0 0 0 2.26-3.38l.59.15zm-8 5.74h5.15v2.05h-5.15zm5.09-5.89h-5v-2.05h5zm-3 10.7v1.61h.88v-1.61zm14.59-.78a8.15 8.15 0 0 1 -2.58 2.89 29.31 29.31 0 0 0 3.27.45 9.4 9.4 0 0 0 -1.54 2.17 19.61 19.61 0 0 1 -4.6-1.12 23.55 23.55 0 0 1 -5 1.17 8.56 8.56 0 0 0 -1.08-2.05 25 25 0 0 0 3.42-.53 8.59 8.59 0 0 1 -1.33-1.14l1.6-.61h-2.78v-1.92h8.59l.44-.09zm-6.21-9.77v.82h-1.12l.23.06-.32.74h1.8c.17-.42.32-.86.42-1.2l.85.13v-.55zm.46 3.27h-1.54v.36h1.54zm0 1.65h-1.54v.38h1.54zm0 1.68h-1.54v.39h1.54zm-1.1 4.4a7 7 0 0 0 1.5.84 8.44 8.44 0 0 0 1.42-.84z"/><path d="m130.9 326.73c-.57.43-1.18.85-1.79 1.25h6.39v8.76h-2.89v-.46h-5.89v.53h-2.72v-6c-.85.38-1.74.73-2.62 1.05a16.23 16.23 0 0 0 -1.63-2.28 31.79 31.79 0 0 0 6.57-2.81h-5.89v-2.42h5.89v-1.35h-4.32v-2.38h4.25v-1.86h2.75v1.86h3.8v1a19.7 19.7 0 0 0 1.84-2.36l2.37 1.22a25.15 25.15 0 0 1 -3.3 3.85h3.85v2.42zm1.71 3.49h-5.89v.86h5.89zm0 3.76v-.85h-5.89v.87zm-3.61-9.67h.87a20.1 20.1 0 0 0 1.56-1.32h-2.43z"/><path d="m156 324.79a16.32 16.32 0 0 1 -3.6 7.58 17 17 0 0 0 4.77 1.71 12.05 12.05 0 0 0 -1.93 2.72 17.22 17.22 0 0 1 -5.25-2.26 18.06 18.06 0 0 1 -4.48 2.24 10.52 10.52 0 0 0 -1.62-2.45 14.08 14.08 0 0 0 3.84-1.71 15.56 15.56 0 0 1 -2.54-3.67 13.7 13.7 0 0 1 -4.35 7.58 11.59 11.59 0 0 0 -2-2.39c3.61-2.93 4-7.74 4-10.68v-1.1h-2.85v-2.7h9.67l.47-.09 2.17.32c-.23 1.35-.53 2.81-.86 4.25h2.09l.5-.11zm-10.26-2.43v.8a15.07 15.07 0 0 0 4.29 7.52 11.69 11.69 0 0 0 2.41-3.93h-1.57l-.18.72-2.9-.42c.38-1.46.8-3.19 1.1-4.69z"/><path d="m171.29 320.55a15.65 15.65 0 0 0 4.07 7.81l-2.11 2.26c-.46-.61-.91-1.27-1.37-2 .06 4.08-2 7.9-6.95 7.9a5.13 5.13 0 0 1 -5.49-5.4 11.71 11.71 0 0 1 2.71-7.12c-.58.06-1.42.19-2.05.32-.4.08-.68.16-1.14.27l-.4-2.93a10.42 10.42 0 0 0 1.11-.05 36.48 36.48 0 0 0 6.55-1.1l.85 2.5a6 6 0 0 0 -.91.46c-1.35 1.08-3.8 4.27-3.8 7.26a2.52 2.52 0 0 0 2.7 2.69c3.52 0 5.49-4.19 3.86-11-.14-.33-.25-.65-.38-1zm1.12 2.23a20 20 0 0 0 -1-2.82l1.67-.51a28.52 28.52 0 0 1 1 2.79zm2.17-.71a22.3 22.3 0 0 0 -1-2.79l1.62-.53a24.07 24.07 0 0 1 1.08 2.79z"/><path d="m184 319.72a33.92 33.92 0 0 1 -1.71 3.7v13.34h-2.82v-9.06a13.7 13.7 0 0 1 -1 1.12 21.19 21.19 0 0 0 -1.6-2.93 19.25 19.25 0 0 0 4.39-7.05zm11 5.87h-1.9v8c0 1.66-.36 2.36-1.38 2.78a13.41 13.41 0 0 1 -4.7.45 9.9 9.9 0 0 0 -1-2.73c1.41.08 3.11.08 3.59.06s.67-.16.67-.57v-8h-7v-2.8h7v-3.78h2.86v3.83h1.86zm-8.87 6.63a46.6 46.6 0 0 0 -2.28-4.49l2.45-1.14c.78 1.33 1.94 3.16 2.47 4.3z"/><path d="m199 327.89a12 12 0 0 0 -3-1.9l1.52-2a12.36 12.36 0 0 1 3.15 1.71zm2.24 2.58c-.72 2.07-1.56 4.2-2.41 6.14l-2.51-1.5a59 59 0 0 0 2.68-6.11zm-1.31-7.66a13.3 13.3 0 0 0 -3.08-2l1.54-2a13.08 13.08 0 0 1 3.19 1.79zm11.05 2.82a8.55 8.55 0 0 0 3.39 2.1 10.73 10.73 0 0 0 -1.81 2.21l-.38-.17a16.4 16.4 0 0 1 2.15 4.16l-2.3 1.21a16.4 16.4 0 0 0 -2.34-4.8l1.85-.93a10.23 10.23 0 0 1 -3.58-3.78h-1a10.44 10.44 0 0 1 -1.5 2.07h2.22v2.86l1.65-.64a15.89 15.89 0 0 1 1.41 3.91l-2.15.86a14.33 14.33 0 0 0 -.91-3.18v2.63c0 1.12-.15 1.8-.87 2.2a5.88 5.88 0 0 1 -2.76.42 9.48 9.48 0 0 0 -.66-2.45h1.48s.28-.06.28-.25v-6.06a10.58 10.58 0 0 1 -2.07 1.6l1.94.66a10.14 10.14 0 0 1 -2.36 4.81l-2-1.62a7.51 7.51 0 0 0 2.09-3.67 6.73 6.73 0 0 1 -.76.38 12.93 12.93 0 0 0 -1.8-2.18 8.5 8.5 0 0 0 3.53-2.37h-2.72v-2.49h4.12a8.26 8.26 0 0 0 .33-1c-1.12.06-2.23.08-3.29.08a10.14 10.14 0 0 0 -.7-2.38 44.16 44.16 0 0 0 9.72-1l2 2.19a28.4 28.4 0 0 1 -4.92.87h.07c-.09.42-.23.84-.34 1.24h5.74v2.49z"/><path d="m223.28 333.24a13.36 13.36 0 0 0 1.84-.34 4.77 4.77 0 0 0 4-4.73c0-2.43-1.18-4.16-3.34-4.67a38.77 38.77 0 0 1 -1.11 4.9c-1.12 3.76-2.81 6.29-5 6.29s-4.1-2.53-4.1-5.74a8.58 8.58 0 0 1 8.89-8.26c4.78 0 7.82 3.3 7.82 7.58 0 4-2.33 6.85-7.23 7.67zm-.61-9.69a5.61 5.61 0 0 0 -4.18 5.1c0 1.63.57 2.48 1.22 2.48s1.33-1.13 2-3.32a27.2 27.2 0 0 0 .96-4.26z"/><path d="m242.64 324.3c0 .7-.1 1.4-.19 2.1h7.22s0 .8-.08 1.16c-.32 5.06-.72 7.22-1.5 8.1a3.27 3.27 0 0 1 -2.28 1 28.86 28.86 0 0 1 -3.32 0 6 6 0 0 0 -1-2.72c1.29.12 2.62.12 3.21.12a1.37 1.37 0 0 0 .95-.25c.45-.38.78-1.9 1-4.86h-4.65a11.35 11.35 0 0 1 -6.15 8 8.54 8.54 0 0 0 -2-2.36c5-2.37 5.47-6.42 5.66-10.31h-5.24v-2.64h7.12v-3h2.87v3h7.37v2.64z"/><path d="m258.22 320.29a16.71 16.71 0 0 0 -.51 1.92 52.16 52.16 0 0 0 -.88 7.1 3.39 3.39 0 0 0 0 .44c.23-.55.46-.91.7-1.46l1.39 1.1c-.57 1.69-1.14 3.59-1.37 4.67a6.71 6.71 0 0 0 -.11.89v.86l-2.57.17a21.56 21.56 0 0 1 -.78-6 57.14 57.14 0 0 1 .75-7.81c.07-.57.18-1.43.2-2.13zm11.19 14.47a22.2 22.2 0 0 0 -2-1.71c-.24 1.77-1.4 2.87-3.87 2.87-2.64 0-4.39-1.14-4.39-3.27s1.73-3.45 4.35-3.45h.95c-.06-1-.11-2.15-.13-3.33-.36 0-.72 0-1.07 0-1.12 0-2.24 0-3.36-.11v-2.72c1.1.11 2.22.17 3.36.17h1.07c0-.87 0-1.58 0-1.92a10.05 10.05 0 0 0 -.15-1.29h3.25a11.79 11.79 0 0 0 -.12 1.25c0 .37 0 1-.05 1.77a27 27 0 0 0 2.73-.42v2.83c-.83.12-1.77.23-2.75.31 0 1.71.13 3.06.19 4.16a11.91 11.91 0 0 1 3.61 2.43zm-4.88-3.19a5 5 0 0 0 -1.28-.17c-.87 0-1.46.34-1.46.93s.66.89 1.46.89 1.28-.49 1.28-1.51z"/><path d="m287.38 325.78c.4 0 1.41-.08 1.84-.12v2.95c-.57 0-1.23-.08-1.78-.08h-4.69a10 10 0 0 1 -4.87 7.73l-2.94-2a7.55 7.55 0 0 0 4.73-5.76h-5c-.57 0-1.31 0-1.82.08v-2.95a17.36 17.36 0 0 0 1.8.12h5.13v-2.26c-1.76.13-3.63.21-4.82.23l-.73-2.65a45.84 45.84 0 0 0 6.54-.3 18.25 18.25 0 0 0 4.73-1.18l1.88 2.53-1.69.42c-.89.22-1.86.42-2.87.57v2.64z"/><path d="m306 322.76a15.06 15.06 0 0 0 2.09-.15v3.13c-.78-.08-1.65-.08-2.09-.08h-2.36c-.36 4.85-2.24 8.34-5.77 10.55l-3.1-2.07a7.94 7.94 0 0 0 1.94-1.14 9.79 9.79 0 0 0 3.72-7.34h-3.53a16.88 16.88 0 0 1 -3 4l-2.9-1.79a14.9 14.9 0 0 0 3.25-3.82 13.47 13.47 0 0 0 1.12-2.57 8.74 8.74 0 0 0 .46-2.18l3.55.7c-.25.52-.53 1.26-.7 1.67s-.27.69-.42 1.09z"/><path d="m316.7 328.91-2.81 1a34.29 34.29 0 0 0 -1.75-4.43l2.77-1a46.65 46.65 0 0 1 1.79 4.43zm9.71-3.84c-.27.75-.4 1.2-.53 1.66a15.75 15.75 0 0 1 -2.55 5.39 15.12 15.12 0 0 1 -6.44 4.85l-2.41-2.47a12.92 12.92 0 0 0 6.36-3.95 12.7 12.7 0 0 0 2.32-6.52zm-5.49 2.64-2.76 1a34.36 34.36 0 0 0 -1.57-4.26l2.73-.89c.38.79 1.31 3.26 1.6 4.15z"/><path d="m343.93 330.93a59 59 0 0 0 -6.54-2.72v4.88c0 .51.11 2 .21 2.87h-3.6a21.88 21.88 0 0 0 .23-2.87v-10.85a13.51 13.51 0 0 0 -.23-2.47h3.59a21.82 21.82 0 0 0 -.19 2.47v2.61a64.23 64.23 0 0 1 7.85 2.86z"/><path d="m352.36 324.22a24.22 24.22 0 0 1 -1.84 6.61l-2.72-1a19.27 19.27 0 0 0 1.9-6.31zm11.1 7.83a24.5 24.5 0 0 0 -2.49-5.51 35.33 35.33 0 0 1 -5.26 5.49v.61c0 1 .11 1.14 1.06 1.14h2.43c.91 0 1.07-.5 1.22-3a8.34 8.34 0 0 0 2.7 1.16c-.35 3.46-1.14 4.62-3.65 4.62h-3.08c-2.3 0-3.25-.57-3.53-2.37a27.7 27.7 0 0 1 -3.18 1.84 15 15 0 0 0 -1.8-2.21 25.61 25.61 0 0 0 4.88-3v-8h2.95v5.44a30.35 30.35 0 0 0 6-8.42l2.79 1.1a37.55 37.55 0 0 1 -3.34 5.28l2.18-1a25.88 25.88 0 0 1 2.76 5.49zm-6-8c-1.06-.91-2.94-2.36-4.39-3.34l1.79-2c1.48.91 3.34 2.26 4.43 3.08z"/><path d="m381.17 331.21a9.42 9.42 0 0 1 -1.45 2.07c1.67.48 3.19 1 4.37 1.37l-1.65 2.24c-1.37-.55-3.17-1.2-5.21-1.82-2.1 1-4.9 1.48-8.56 1.78a7.49 7.49 0 0 0 -1-2.35 32.79 32.79 0 0 0 5.64-.57l-.91-.23-.09.13-2.68-.8c.4-.51.85-1.14 1.33-1.82h-3.69v-2.21h5.13l.59-.93h-4.58v-5.61h4.07v-.76h-4.91v-2.37h16.78v2.37h-5v.76h4.54v5.61h-7.76l-.57.93h9.28v2.2zm-10.17-5.21h1.49v-1.33h-1.49zm2.8 5.77c1 .23 2.05.5 3.06.76a6 6 0 0 0 1.25-1.27h-4zm1.29-9.25h1.63v-.76h-1.63zm1.63 3.48v-1.33h-1.63v1.33zm2.61-1.33v1.33h1.78v-1.33z"/><path d="m48.25 362.11a2.66 2.66 0 1 1 -2.66 2.66 2.67 2.67 0 0 1 2.66-2.66z"/><path d="m66.58 361.28a3.16 3.16 0 0 0 -2.11-1c-1.46 0-2.62 1-2.75 4.12a3.81 3.81 0 0 1 2.7-1.39c2.35 0 4.14 1.37 4.14 4.45a4.54 4.54 0 0 1 -4.65 4.79c-2.66 0-5.29-2.07-5.29-7.22s2.7-7.45 5.63-7.45a5.65 5.65 0 0 1 4.12 1.69zm-1.12 6.19c0-1.56-.76-2.07-1.69-2.07a2.31 2.31 0 0 0 -2 1.27c.28 2.36 1.16 3.06 2 3.06s1.69-.66 1.69-2.26z"/><path d="m70.1 364.85c0-4.86 2-7.26 5-7.26s5 2.43 5 7.26-2 7.41-5 7.41-5-2.55-5-7.41zm6.82 0c0-3.86-.82-4.66-1.82-4.66s-1.81.8-1.81 4.66.8 4.79 1.81 4.79 1.82-.92 1.82-4.79z"/><path d="m103.16 365.59a16.29 16.29 0 0 1 -2.45 4.73c.36.7.72 1.1 1 1.1s.48-.72.55-2.34a6.38 6.38 0 0 0 1.94 1.22c-.34 2.89-1.12 3.51-2.68 3.51a3.2 3.2 0 0 1 -2.47-1.67 12.41 12.41 0 0 1 -2.14 1.64 14.66 14.66 0 0 0 -1.84-1.86 10.71 10.71 0 0 0 2.83-2.06 25.21 25.21 0 0 1 -1.32-5.16h-6.58v1.17a19.54 19.54 0 0 1 -.51 4.75 8.25 8.25 0 0 0 1.05-2.62l1.77.4v-.93h-1.82v-2h5.83v2h-1.82v1l1.5-.55a16 16 0 0 1 1.08 2.5l-1.81.73a13.87 13.87 0 0 0 -.77-2.15v2.45c0 .91-.1 1.46-.67 1.79a3.78 3.78 0 0 1 -2 .38 8.36 8.36 0 0 0 -.65-2l-.19.29a9.22 9.22 0 0 0 -1.58-1 8.54 8.54 0 0 1 -1.31 2.87 10.41 10.41 0 0 0 -2.1-1.58c1.35-1.84 1.47-4.46 1.47-6.36v-3.27h8.87c0-.36-.06-.72-.08-1.08h-9.69v-2.19h2.7v-2.72h2.55v2.72h2.54v-3.57h2.64v1h5.3v1.9h-5.3v.7h6.73v2.19h-2a8.6 8.6 0 0 1 1.18 1.08h.78v2.13h-4.64c.18 1 .38 1.95.61 2.81a12.07 12.07 0 0 0 1-2.47zm-10.85 3.41a11 11 0 0 1 -1.14 2.56h.93s.21 0 .21-.21zm6.42-7.54a9.77 9.77 0 0 0 .06 1.08h1.31c-.23-.19-.44-.38-.65-.53l.78-.55z"/><path d="m113.38 368.46c-2.47 1.1-5.22 2.24-7.41 3.13l-1-3c.72-.23 1.58-.51 2.51-.86l-.39-10.73 2.93-.11.38 9.8 2.34-.93zm7.62 5.34a32.19 32.19 0 0 0 -3.19-4.32 13.83 13.83 0 0 1 -5.38 4.33 16.37 16.37 0 0 0 -2.2-2.46c5.75-2.23 7.69-6.84 8.32-14.44l3.08.26a31 31 0 0 1 -2.25 9.6 37.94 37.94 0 0 1 4 4.71zm-7-9.8a19.88 19.88 0 0 0 -2.83-4.8l2.53-1.2a19.53 19.53 0 0 1 3 4.58z"/><path d="m141.92 370.05v2.8h-17.54v-2.8h6.67v-14.05h3v5.24h6.54v2.76h-6.59v6.06z"/><path d="m153.93 356.76c0 3.74.55 10.6 7.33 14.55a14 14 0 0 0 -2.22 2.43 15.62 15.62 0 0 1 -6.71-8.82 16.62 16.62 0 0 1 -6.74 8.86 19.91 19.91 0 0 0 -2.53-2.26c3.84-1.9 6.06-5.51 7-10.34l1.37.25c-.12-.65-.19-1.27-.25-1.86h-4.18v-2.81z"/><path d="m172.7 365.63c-.12.23-.25.45-.38.66h7.52s0 .61-.05.91c-.25 3.59-.56 5.15-1.07 5.74a2 2 0 0 1 -1.37.72 11 11 0 0 1 -1.95.08 5.41 5.41 0 0 0 -.46-1.84 10 10 0 0 1 -1.84 2 8.9 8.9 0 0 0 -2-1.52 10 10 0 0 0 3.4-3.91h-.66a15 15 0 0 1 -4.37 4.58 7.86 7.86 0 0 0 -1.81-1.62 11.46 11.46 0 0 0 3.61-3h-.66a12.1 12.1 0 0 1 -2 1.67 17 17 0 0 0 -1.4-1.33c-1.48.76-3 1.5-4.28 2.13l-1-2.79c.6-.21 1.36-.5 2.2-.82v-5h-1.73v-2.6h1.75v-3.69h2.56v3.65h1.6v2.6h-1.6v4l1.28-.53.42 1.66a10 10 0 0 0 1.57-1.75h-1.86v-2.3h12.06v2.3zm6.19-2.83h-9.21v-6.61h9.21zm-2.54-4.75h-4.24v.57h4.24zm0 2.32h-4.24v.56h4.24zm.51 8.07a16.3 16.3 0 0 1 -1.73 3.19h.87a.62.62 0 0 0 .56-.23c.22-.25.43-1.08.6-3z"/><path d="m184 361.24a6.67 6.67 0 0 1 -.78.66 17.68 17.68 0 0 0 -2.26-1.8 10.9 10.9 0 0 0 3.9-4.35l2.71.8c-.19.38-.38.74-.6 1.1h11.11v2.41h-1.69v2h2.37v2.45h-2.37v1.95h2.09v2.45h-16.64v-2.45h2.16v-1.95h-2.52v-2.51h2.52zm-2.75 11.51a9.69 9.69 0 0 0 2-3.68l2.7.64a11.45 11.45 0 0 1 -2.05 4.1zm5.22-10.75h.94v-2h-.94zm0 4.4h.94v-1.95h-.94zm2.89 3.08a23.2 23.2 0 0 1 .5 3.67l-2.72.4a25.54 25.54 0 0 0 -.34-3.76zm1.27-7.48v-2h-.94v2zm-.94 2.45v1.95h.94v-1.95zm3.43 5a19.2 19.2 0 0 1 1.07 3.61l-2.78.54a19.93 19.93 0 0 0 -.89-3.71zm.78-9.4h-1v2h1zm0 4.43h-1v1.95h1zm3 4.5a27 27 0 0 1 2.34 3.88l-2.85.93a24.87 24.87 0 0 0 -2.15-4z"/><path d="m216.15 368.72v5.06h-2.58v-4.58l-5 .89-.38-2.37-1.56 2a21.35 21.35 0 0 0 -1.06-2v6h-2.57v-6.12a19.88 19.88 0 0 1 -1.93 4.3 17.51 17.51 0 0 0 -1.22-2.89 16.33 16.33 0 0 0 2.26-4.39h-1.88v-2.56h2.77v-6.2h2.55v5.32a37.5 37.5 0 0 0 .89-4.44l2.3.47c-.49 1.6-1 3.42-1.5 4.56l-1.69-.44v.73h2.64v2.56h-2.64v.08a35 35 0 0 1 2.64 2.79l5.34-.95v-10.81h2.58v10.35l1.79-.32.4 2.57zm-15.23-6.84a20.3 20.3 0 0 0 -.76-4.54l1.9-.49a20.65 20.65 0 0 1 .89 4.5zm8.62-.6a16 16 0 0 1 3.21 2.22l-1.39 2.2a16.94 16.94 0 0 0 -3.11-2.45zm2.46-.28a15.14 15.14 0 0 0 -2.94-2.49l1.33-1.86a15.94 15.94 0 0 1 3 2.28z"/><path d="m68.1 403.33a7.73 7.73 0 0 0 -.28 1.79c0 1.06 1 1.86 3.51 1.86a28.87 28.87 0 0 0 6.71-.74v3.23a30.86 30.86 0 0 1 -6.61.62c-4.58 0-6.71-1.55-6.71-4.25a13.67 13.67 0 0 1 .36-2.78zm9.35-10.11a29.4 29.4 0 0 1 1.48 2.61l-1.8.76-.21-.42v2c-1.33.12-3.82.23-5.64.23-2 0-3.67-.09-5.23-.21v-3a50.66 50.66 0 0 0 5.21.23c1.67 0 3.66-.09 5.13-.21a11.05 11.05 0 0 0 -.72-1.21zm2.34-.91a28.87 28.87 0 0 1 1.5 2.59l-1.79.76a22.22 22.22 0 0 0 -1.5-2.66z"/><path d="m99.81 406.9h-6.3v3.9h-2.85v-3.9h-8.48v-2.66h2.95v-4.24c-.23.26-.46.53-.69.76a18.74 18.74 0 0 0 -2.37-1.81 14.27 14.27 0 0 0 3.84-6.25l2.83.72a13.55 13.55 0 0 1 -.52 1.33h10.47v2.66h-5.18v1.94h4.73v2.57h-4.73v2.35h6.3zm-12.91-9.52a18.11 18.11 0 0 1 -1.28 1.94h5v-1.94zm3.76 6.86v-2.35h-2.76v2.35z"/><path d="m112.11 399.63a7.92 7.92 0 0 1 -1.18 1.14 9 9 0 0 0 -.46-1.13h-9.47v-2.27h.93v-3.65h2.28v3.65h.92v-4.6h2.52v1.29h2.61v2.15h-2.61v1.16h3.06a13.83 13.83 0 0 0 2.43-4.6h2.45c.84 2.05 2.17 4.37 3.67 5.28a16.29 16.29 0 0 0 -1.33 2.64 8.86 8.86 0 0 1 -1-.95v1.37h-4.8zm-3.76.39h2.1v10.53h-2.1v-.84h-4.81v1.09h-2v-10.8h2v7.64h4.81v-6.34c-.27.51-.5 1-.71 1.35l-.91-.27v.46h1.27v1.52h-.93c.46.45 1 1.1 1.24 1.31l-.95 1.12c-.14-.27-.4-.69-.67-1.1v1.72h-1.54v-1.52a4.67 4.67 0 0 1 -1 1.33 9.06 9.06 0 0 0 -.64-1.65 4.27 4.27 0 0 0 1-1.21h-.76v-1.52h1.35v-.55l-1.16.38a8.08 8.08 0 0 0 -.45-1.77l1.14-.34a6.39 6.39 0 0 1 .47 1.42v-1.75h1.54v1.71a8.38 8.38 0 0 0 .49-1.29l1.13.31zm10 6.75c0 1-.14 1.71-.76 2.13a4 4 0 0 1 -2.23.45 8.13 8.13 0 0 0 -.72-2.45h1s.21-.06.21-.21v-2.18h-1.27v6.3h-2.55v-6.3h-1.03v-2.36h7.41zm-2.25-8a15.46 15.46 0 0 1 -1.69-3.15 15 15 0 0 1 -1.69 3.15z"/><path d="m128.47 394.12c-.14.57-.29 1.27-.4 1.8s-.21 1-.32 1.52c.49 0 .93-.06 1.27-.06 2.16 0 3.59 1 3.59 3.84 0 2.2-.25 5.23-1.05 6.9a3.2 3.2 0 0 1 -3.28 1.82 10.54 10.54 0 0 1 -2.28-.27l-.5-3a12.1 12.1 0 0 0 2.3.4 1.27 1.27 0 0 0 1.27-.72 13.29 13.29 0 0 0 .71-4.82c0-1.37-.57-1.54-1.75-1.54h-.87c-.76 2.93-2.17 7.45-3.77 10l-3-1.19a27.44 27.44 0 0 0 3.71-8.49l-1.18.17c-.61.07-1.69.23-2.32.34l-.25-3.06a20 20 0 0 0 2.19 0c.55 0 1.33-.07 2.16-.13a18.55 18.55 0 0 0 .36-3.93zm6.68 2a34.51 34.51 0 0 1 3 6.76l-2.9 1.35a20.77 20.77 0 0 0 -3.08-7.27l1.65-.69a24.44 24.44 0 0 0 -1.29-2.32l1.79-.72c.47.71 1.14 1.94 1.48 2.6zm1.26-.46a22.09 22.09 0 0 0 -1.5-2.62l1.78-.72a25.71 25.71 0 0 1 1.5 2.58z"/><path d="m157 410.13h-7v.68h-2.58v-7.95h-.06a16.3 16.3 0 0 0 -1.29-1.56v7.21h-3.34v1.49h-2.21v-4.09c-.15.23-.3.44-.45.65a14.64 14.64 0 0 0 -1.45-2.68c1.29-1.82 2-4.62 2.38-7.6h-1.68v-2.49h6.94v.63h3.86a14.92 14.92 0 0 0 .43-1.69l2.62.47c-.09.42-.2.82-.32 1.22h4.05v3.58h-1.9l-.42.84h2.05v2.26h-2.63v.9h2.13v2h-2.13v1h2.13v2h-2.13v1h3zm-13.22-8.38h-1v4.43h1zm2.3-1.31a10.34 10.34 0 0 0 3.13-3.72h-.91v1.28h-2.3v-1.73h-2.37q-.23 1.58-.57 3.12h3zm5.39.67h-1.47v.89h1.46zm0 2.87h-1.47v1h1.46zm-1.47 3.91h1.46v-1h-1.46zm2.05-11.17a16.83 16.83 0 0 1 -1 2.13h1.06a12.18 12.18 0 0 0 .55-1.73l1.85.36v-.76z"/><path d="m165 398.05h-7v-2.15h7zm8.89 11.83a9 9 0 0 0 -.47-1.9c-.29 2.11-.93 2.68-2.28 2.68h-1.27c-2 0-2.36-.76-2.36-2.94v-1.37a8 8 0 0 1 -1.21 3.44l-1.75-1.05v1.09h-3.55v.68h-2.24v-6.59h5.76v4.25a9.72 9.72 0 0 0 .95-3.61l2 .54v-1.33h2.13a16.85 16.85 0 0 0 -1.6-1.07l1.57-1.59a14.87 14.87 0 0 1 1.62.91 7.28 7.28 0 0 0 -.4-1.82l-.13.2c-.33-.22-.71-.45-1.13-.7a8.13 8.13 0 0 1 -3.15 2.91 6.66 6.66 0 0 0 -1.54-2 6.24 6.24 0 0 0 2.47-2c-.63-.27-1.27-.49-1.86-.69l1.27-1.89a15.74 15.74 0 0 1 1.52.49 7.73 7.73 0 0 0 .19-.8h-2.68v-2.28h9.69s0 .67 0 1c-.17 4.24-.38 6.08-.89 6.73a1.9 1.9 0 0 1 -1.35.81 9.88 9.88 0 0 1 -1.9.12 9.85 9.85 0 0 1 1.73 1.38l-1.71 1.77a8.57 8.57 0 0 0 -1.25-1.16v3.61c0 .57 0 .63.28.63h.54c.28 0 .36-.23.41-1.9a6 6 0 0 0 1.9.87 15.06 15.06 0 0 0 -1.12-2.32l2.22-.89a14.42 14.42 0 0 1 2 4.83zm-9.38-9.21h-5.66v-2.05h5.66zm-5.66.57h5.66v2.05h-5.66zm5.62-5.89h-5.56v-2.05h5.56zm-2.2 10.72h-1.27v1.61h1.24zm8.64-10.34a12.65 12.65 0 0 1 -.4 1.77c.55.28 1.05.55 1.47.8l-.84 1.34h.63a.54.54 0 0 0 .55-.24c.21-.29.36-1.28.49-3.69z"/><path d="m179.73 395.62c1.77-.16 4.62-.38 8.05-.69 1.89-.15 4.11-.26 5.48-.32v2.93a22.29 22.29 0 0 0 -3.6.22 5.24 5.24 0 0 0 -3.79 4.89c0 2.77 2.61 3.85 5.86 4l-1.07 3.18c-4.2-.33-7.79-2.61-7.79-6.62a7.68 7.68 0 0 1 2.38-5.49c-1.62.17-4.92.55-7.18 1.05l-.29-3.1c.77.02 1.59-.01 1.95-.05zm12.4 6-1.69.74a14.82 14.82 0 0 0 -1.44-2.6l1.65-.69a25 25 0 0 1 1.48 2.59zm2.25-1-1.67.8a17.66 17.66 0 0 0 -1.54-2.53l1.63-.74c.49.73 1.2 1.85 1.58 2.52z"/><path d="m212.12 400.46a19.21 19.21 0 0 1 -2.73.7c.43.92.93 1.94 1.48 3l-1.33 1.71c-1.1-.23-3.06-.53-4.35-.69l.25-2.16 1.78.15c-.25-.55-.45-1.06-.64-1.52a50.23 50.23 0 0 1 -8.19.09l-.12-2.6a39 39 0 0 0 7.28.08l-.11-.29-.5-1.14a37.25 37.25 0 0 1 -6.38-.09l-.15-2.59a36.48 36.48 0 0 0 5.41.25 11.5 11.5 0 0 0 -.85-1.48l3.24-.61a14.64 14.64 0 0 0 .52 1.77 22.79 22.79 0 0 0 3.51-.86l.48 2.53a25.59 25.59 0 0 1 -3 .74c.11.29.24.57.36.84l.23.53a23.14 23.14 0 0 0 3.32-.91zm-10.39 3.31a5.77 5.77 0 0 0 -.44 1.78c0 1 .67 1.75 3 1.75a29.58 29.58 0 0 0 5.16-.42l-.09 2.91a32.44 32.44 0 0 1 -5 .38c-3.62 0-5.89-1.22-5.89-4a9.67 9.67 0 0 1 .48-2.66z"/><path d="m229.43 396.05c-.49.31-1 .59-1.44.92-1.07.72-2.72 2.07-3.74 2.86a6.62 6.62 0 0 1 1.31-.11c3.23 0 5.77 2.07 5.77 4.9s-2.13 5.51-7 5.51c-2.66 0-4.86-1.23-4.86-3.3a3.45 3.45 0 0 1 3.65-3.2 3.86 3.86 0 0 1 4.1 3.12 2.49 2.49 0 0 0 1.1-2.17c0-1.61-1.65-2.62-3.72-2.62-2.76 0-4.73 1.66-6.54 3.86l-2.06-2.15c1.22-.95 3.4-2.81 4.52-3.72s2.79-2.22 3.71-3c-.95 0-2.89.09-3.9.17-.57 0-1.23.09-1.69.17l-.09-2.94a17 17 0 0 0 1.91.11c1 0 4.77-.06 5.89-.15a10 10 0 0 0 1.65-.31zm-4.82 11.46c-.1-1.05-.67-1.71-1.47-1.71-.6 0-1 .36-1 .74 0 .59.63 1 1.58 1 .34.01.62-.01.89-.03z"/><path d="m248.83 400.52a7.44 7.44 0 0 1 1.77 4.6c0 2.86-2.59 5.09-6.92 5.09-3.21 0-5.32-1.37-5.32-4.56a17 17 0 0 1 .12-1.75 21.57 21.57 0 0 1 -3.4-.59l.15-2.75a16.28 16.28 0 0 0 3.55.74l.27-2.11a22.23 22.23 0 0 1 -3.57-.67l.13-2.62a16.46 16.46 0 0 0 3.74.71c.06-.48.1-.9.11-1.26a11.16 11.16 0 0 0 0-1.86l3.19.17c-.19.8-.28 1.35-.38 1.88 0 .25-.09.65-.17 1.16a21.62 21.62 0 0 0 3.23-.25l-.09 2.7a30.26 30.26 0 0 1 -3.5.19c-.09.68-.19 1.41-.26 2.09 1.06 0 2.5-.1 3.68-.23l-.07 2.7a29.65 29.65 0 0 1 -3.12.17h-.78c0 .44-.06.82-.06 1.08 0 1.41.9 2.09 2.59 2.09 2.49 0 3.72-1.17 3.72-2.5a5.14 5.14 0 0 0 -1.86-3.54z"/><path d="m261.28 407.24a13.36 13.36 0 0 0 1.84-.34 4.77 4.77 0 0 0 4-4.73c0-2.43-1.18-4.16-3.34-4.67a38.77 38.77 0 0 1 -1.11 4.9c-1.12 3.76-2.81 6.29-5 6.29s-4.1-2.53-4.1-5.74a8.58 8.58 0 0 1 8.89-8.26c4.78 0 7.82 3.3 7.82 7.58 0 4-2.33 6.85-7.23 7.67zm-.61-9.69a5.61 5.61 0 0 0 -4.18 5.1c0 1.63.57 2.48 1.22 2.48s1.33-1.13 2-3.32a27.2 27.2 0 0 0 .96-4.26z"/><path d="m280.94 406.16c0-.47.08-1.18.1-1.88-1.18.68-1.69 1.29-1.69 2.05s.58 1.12 2.35 1.12a28.09 28.09 0 0 0 5.47-.59l-.09 2.95a51.26 51.26 0 0 1 -5.44.32c-3.09 0-5.31-.8-5.31-3.3s2.24-4 4.33-5.13a1.41 1.41 0 0 0 -1-.38 4.47 4.47 0 0 0 -2.77 1.25 23 23 0 0 0 -1.75 2.13l-2.43-1.83a17.42 17.42 0 0 0 4-4.84c-.78 0-2.15 0-3.14-.13v-2.64a24.82 24.82 0 0 0 3.38.22h.74a11 11 0 0 0 .33-2.05l3 .25a17.1 17.1 0 0 1 -.42 1.71 45.51 45.51 0 0 0 5.07-.53v2.64c-1.76.23-4.06.4-6.08.47a9.13 9.13 0 0 1 -.72 1.33 9.34 9.34 0 0 1 1.86-.19 2.74 2.74 0 0 1 2.51 1.33c.76-.36 1.37-.61 2-.91.82-.36 1.6-.72 2.4-1.1l1.12 2.62c-.67.19-1.84.63-2.57.91s-1.63.63-2.62 1.07c0 1 .06 2.3.08 3.13z"/><path d="m298.73 400.92a15.54 15.54 0 0 1 3.3-.4c3 0 5.43 1.54 5.43 4.31 0 2.2-1 4-4.23 4.83a18.13 18.13 0 0 1 -2.55.32l-1-3a13.51 13.51 0 0 0 2.35-.13c1.45-.25 2.51-.93 2.51-2.09s-.99-1.76-2.54-1.76a13.65 13.65 0 0 0 -3.21.41c0 1.43.08 2.74.08 3.31 0 2.66-.95 3.3-2.3 3.3-2 0-4.71-1.65-4.71-3.81 0-1.69 1.88-3.46 4.25-4.49 0-.49 0-1 0-1.46v-1.08c-.3 0-.56 0-.81 0a25.46 25.46 0 0 1 -2.74-.1v-2.73a22.4 22.4 0 0 0 2.71.13h.89v-1.2a18.11 18.11 0 0 0 -.13-1.84h3.12c-.06.36-.15 1.33-.19 1.82l-.06 1a24 24 0 0 0 3.25-.64l.06 2.83c-1.05.23-2.25.4-3.38.53v1.22zm-2.53 5.28c0-.36 0-1 0-1.77-.93.53-1.5 1.14-1.5 1.69s.63.82 1 .82.5-.08.5-.74zm8-10.72a45.19 45.19 0 0 1 4.8 2.61l-1.34 2.31a35.37 35.37 0 0 0 -4.7-2.69z"/><path d="m316.28 403.18-1.63.45v4.18c0 1.2-.19 1.88-.84 2.32a4.92 4.92 0 0 1 -2.77.51 9.59 9.59 0 0 0 -.69-2.56h1.47s.3-.08.3-.33v-3.47l-1.73.45-.57-2.64c.67-.13 1.45-.3 2.3-.49v-2.89h-2v-2.53h2v-3.45h2.53v3.45h1.4v2.53h-1.4v2.29l1.29-.32zm9.65-2.21v1.16h2v2.49h-2v3.38c0 1.29-.22 2-1 2.36a7.42 7.42 0 0 1 -3.21.43 10.89 10.89 0 0 0 -.76-2.58 18.83 18.83 0 0 0 2 0c.27 0 .36-.06.36-.3v-3.35h-3.67a15.37 15.37 0 0 1 2 3l-2.4 1.44a14.9 14.9 0 0 0 -1.94-3.34l1.9-1.05h-2.72v-2.49h6.82v-1.12h-7v-2.5h4.54v-1.24h-3.82v-2.49h3.82v-1.92h2.62v1.92h3.72v2.49h-3.69v1.24h4.5v2.5z"/><path d="m343.66 398a70.79 70.79 0 0 1 -7.39.78c-.21.91-.44 1.82-.67 2.62a10.13 10.13 0 0 1 4.34-.93c3.06 0 5.24 1.67 5.24 4.2 0 4.39-4.12 6-10.41 5.28l-.77-2.95c4 .7 8.13.34 8.13-2.26 0-.95-.87-1.83-2.5-1.83a6.11 6.11 0 0 0 -5 2.19 5.68 5.68 0 0 0 -.5.79l-2.69-.95a30.3 30.3 0 0 0 2.11-6.11c-1.12 0-2.17-.08-3-.17v-2.82a26.1 26.1 0 0 0 3.57.38c0-.18.05-.36.07-.51a9.74 9.74 0 0 0 .1-2.09l3.21.14c-.23.76-.34 1.42-.49 2.1l-.06.29a46 46 0 0 0 6.74-.87z"/><path d="m361.73 395.52c-.7.52-1.35 1-1.86 1.41-1.18.89-3.54 2.7-4.71 3.72-.94.8-.9 1 0 1.77 1.24 1.08 4.94 3.95 6.83 5.74l-2.67 2.47c-.6-.69-1.23-1.34-1.84-2-1-1.09-3.74-3.4-5.45-4.87-1.92-1.65-1.8-2.79.19-4.42 1.5-1.22 3.91-3.21 5.19-4.43a14.23 14.23 0 0 0 1.65-1.78z"/><path d="m377.63 398.49a31.35 31.35 0 0 1 -3.49.58c-.19.8-.38 1.64-.57 2.38a64 64 0 0 1 -3 8.76l-3.18-1.07a41.51 41.51 0 0 0 3.31-8.49c.11-.44.25-.89.34-1.33-.32 0-.65 0-1 0-1 0-1.69 0-2.34-.08l-.07-2.83a18.49 18.49 0 0 0 2.43.16h1.5a4.79 4.79 0 0 0 .11-.76 9.75 9.75 0 0 0 .06-2.11l3.48.27c-.15.58-.34 1.5-.44 1.93l-.07.33c1-.16 1.93-.35 2.88-.57zm-.17 5.94a7.09 7.09 0 0 0 -.25 1.5c0 .78.5 1.28 2.15 1.28a24.74 24.74 0 0 0 4-.4l-.12 2.9a29.51 29.51 0 0 1 -3.93.27c-3.28 0-4.94-1.2-4.94-3.12a12.82 12.82 0 0 1 .35-2.68zm-1.46-4.8a36.07 36.07 0 0 1 3.72-.21 32.16 32.16 0 0 1 3.33.17l-.06 2.73a28.27 28.27 0 0 0 -3.27-.24 27.33 27.33 0 0 0 -3.72.21zm4.79-1.85a24.51 24.51 0 0 0 -1.47-2.64l1.79-.72c.47.7 1.14 1.94 1.48 2.6zm2.37-.93a21.33 21.33 0 0 0 -1.5-2.62l1.79-.72c.49.72 1.17 1.94 1.5 2.58z"/><path d="m402 397.93c-.87.25-1.9.52-3 .75.7 1.52 1.54 3.11 2.37 4.56l-1.57 1.7c-1.14-.22-3-.55-4.51-.74l.25-2.33c.59.05 1.45.13 2 .15-.4-.82-.91-1.81-1.41-2.87a43.38 43.38 0 0 1 -7.9 0l-.1-2.91a31.76 31.76 0 0 0 6.8.23l-.28-.62a11 11 0 0 0 -1-1.92l3.23-.63a28.87 28.87 0 0 0 1 2.76 28.35 28.35 0 0 0 3.61-1zm-10.09 5a8.46 8.46 0 0 0 -.51 2.19c0 1.21.46 2.09 3 2.09a22.44 22.44 0 0 0 5.22-.55l-.05 3a26.81 26.81 0 0 1 -5.17.47c-3.93 0-6-1.44-6-4.22a14.63 14.63 0 0 1 .53-3.21z"/><path d="m409.59 397.84c0 1.23 0 2.47.12 3.72.22 2.47.6 4.2 1.69 4.2.87 0 1.53-2.35 1.8-3.63l2.3 2.81c-1.31 3.33-2.51 4.51-4.16 4.51-2.22 0-4.07-1.9-4.6-7.05-.19-1.79-.21-3.93-.21-5.13a10.49 10.49 0 0 0 -.17-2h3.5a17.74 17.74 0 0 0 -.27 2.57zm13 7.62-3 1.16c-.27-2.83-1.18-7.64-3.38-10l2.9-.95c1.78 2.13 3.29 7.07 3.44 9.79z"/><path d="m72 438.22 6.27-6.22.55.55-6.27 6.27 6.27 6.18-.55.55-6.27-6.23-6.29 6.29-.55-.55 6.29-6.29-6.27-6.27.55-.55zm-4 .55a1.43 1.43 0 1 1 -1.43-1.42 1.44 1.44 0 0 1 1.43 1.42zm4-4a1.43 1.43 0 1 1 1.42-1.42 1.43 1.43 0 0 1 -1.42 1.43zm0 8a1.43 1.43 0 1 1 -1.43 1.43 1.43 1.43 0 0 1 1.43-1.44zm4-4a1.43 1.43 0 0 1 2.85 0 1.43 1.43 0 1 1 -2.85 0z"/><path d="m96.68 445.17c.53 0 .64-.32.72-2.31a8.21 8.21 0 0 0 2.55 1.08c-.29 3-1 3.8-3 3.8h-2.1c-2.51 0-3.1-.84-3.1-3.25v-3.34h-1.66c-.42 3.15-1.47 5.41-6.82 6.66a8.42 8.42 0 0 0 -1.54-2.45c4.48-.81 5.09-2.2 5.39-4.21h-3.19v-4.6l-.23.13a8.76 8.76 0 0 0 -1.86-2.16 12.55 12.55 0 0 0 5.21-4.89l3 .61-.4.65h3.23l.44-.12 2 1.26a24.13 24.13 0 0 1 -1.56 2.3h4.74v6.82h-3.87v3.3c0 .65.07.72.66.72zm-10-6.46h2.9v-1.95h-2.9zm1.27-5.6c-.36.42-.76.82-1.16 1.22h3.61a13.42 13.42 0 0 0 .87-1.22zm7.52 3.65h-3.18v1.95h3.21z"/><path d="m119 440.88h-3.74v6.9h-2.79v-6.9h-3.74v-2.62h3.74v-3.48h-.7a16.35 16.35 0 0 1 -1.6 2.85 17.45 17.45 0 0 0 -2-1.29v1.33h-6.25v-2.05h6.2a5.13 5.13 0 0 0 .38-.57h-7.5v-2.15h8v1.37a17.3 17.3 0 0 0 1.54-4.6l2.78.55c-.16.69-.34 1.39-.55 2.06h5.88v2.5h-3.32v3.48h3.67zm-10.88 5.95h-3.9v.68h-2.37v-6.59h6.27zm-6.2-8.59h6.25v2.05h-6.25zm6.29-5.89h-6.21v-2.05h6.17zm-4 10.72v1.61h1.49v-1.61z"/><path d="m120 433h7.2v2.15h-7.2zm6.67 14.13h-3.51v.69h-2.3v-6.6h5.81zm-.17-9.29h-5.56v-2.05h5.56zm-5.56.65h5.56v2h-5.56zm5.6-6.12h-5.54v-2.07h5.49zm-3.38 11v1.63h1.18v-1.62zm14.93 1.2v2.6h-10.82v-2.6h1v-8.74h2.56v8.74h1v-11.35h-4.08v-2.6h9.93v2.6h-3.13v4.11h3v2.6h-3v4.62z"/><path d="m143.55 431.69c.17.36.59 1.23.8 1.59s.51 1 .78 1.56a16.69 16.69 0 0 1 6.31-1.82c3.07 0 4.94 1.93 4.94 4.19 0 2.89-2.06 4.56-4.91 4.56a9.35 9.35 0 0 1 -2.94-.53l.08-2.85a7.15 7.15 0 0 0 2.54.65 2 2 0 0 0 2.19-1.92c0-.87-.8-1.52-2-1.52a14.33 14.33 0 0 0 -5.19 1.6l.42.95c.8 1.88 2.4 6.19 3 8.34l-3.13.77a58.25 58.25 0 0 0 -2.44-7.86l-.38-.93c-1.29.66-2.43 1.27-3.19 1.61l-1.31-2.87a15.62 15.62 0 0 0 2-.66l1.39-.57c-.23-.46-.46-.91-.71-1.35a17.73 17.73 0 0 0 -1.21-1.8zm4.43 2a26.35 26.35 0 0 0 -2.45-2.28l2.11-1.46a32.65 32.65 0 0 1 2.51 2.2z"/><path d="m172.45 441.22a13.85 13.85 0 0 0 4 3.75 11.4 11.4 0 0 0 -2 2.2 15.34 15.34 0 0 1 -3.32-3.69v4.32h-2.73v-4.2a14.06 14.06 0 0 1 -3.55 3.51 12.12 12.12 0 0 0 -1.88-2.18v2.81h-2.62v-9.46a15.6 15.6 0 0 1 -1.12 1.27 17.83 17.83 0 0 0 -1.43-2.87 19.31 19.31 0 0 0 4.3-6.89l2.56.83a32.77 32.77 0 0 1 -1.69 3.63v10.64a12.47 12.47 0 0 0 4.16-3.67h-3.42v-2.49h4.69v-1.34h-3.51v-6.84h10.11v6.84h-3.84v1.34h4.69v2.49zm-5-6.25h4.75v-2h-4.75z"/><path d="m191.07 442.53a6.19 6.19 0 0 0 4.2 3.06 6.33 6.33 0 0 0 -1.58 2.28 8 8 0 0 1 -4.35-3.47 8.24 8.24 0 0 1 -5 3.51 8.86 8.86 0 0 0 -1.47-2.05c2.87-.86 4.11-2 4.64-3.33h-3.33v-5.37h3.69v-.86h-2.09v-.93a13.46 13.46 0 0 1 -1.71 1 11.42 11.42 0 0 0 -.89-1.73c-.23.76-.46 1.5-.67 2.11a5.73 5.73 0 0 1 1.24 3.72c0 1.33-.27 2.13-.93 2.59a2.36 2.36 0 0 1 -1.14.43 5.94 5.94 0 0 1 -1.24.06 6.24 6.24 0 0 0 -.3-1.75v6h-2.4v-17.23h4.11l.38-.1 1.84 1c-.19.72-.42 1.52-.65 2.31a11.67 11.67 0 0 0 4.34-4h2.48a11.56 11.56 0 0 0 5.15 4 13.15 13.15 0 0 0 -1.4 2.43 12 12 0 0 1 -1.45-.84v.93h-2.2v.86h3.89v5.37zm-10.92-1.33h.4a.82.82 0 0 0 .49-.13c.19-.15.27-.45.27-1a4.83 4.83 0 0 0 -1.11-3.07c.29-1.1.63-2.73.9-4h-.95zm7.73-.76v-1.21h-1.31v1.21zm3-6.38a12 12 0 0 1 -1.77-1.94 10.79 10.79 0 0 1 -1.69 1.94zm-.51 5.17v1.21h1.42v-1.21z"/><path d="m196 433h7.2v2.15h-7.2zm6.67 14.13h-3.51v.69h-2.3v-6.6h5.81zm-.17-9.29h-5.56v-2.05h5.56zm-5.56.65h5.56v2h-5.56zm5.6-6.12h-5.54v-2.07h5.49zm-3.38 11v1.63h1.18v-1.62zm14.93 1.2v2.6h-10.82v-2.6h1v-8.74h2.56v8.74h1v-11.35h-4.08v-2.6h9.93v2.6h-3.13v4.11h3v2.6h-3v4.62z"/><path d="m225.44 435.09a30.08 30.08 0 0 1 -3.19.64 34.9 34.9 0 0 1 -4 8.1l-2.75-1.39a29.4 29.4 0 0 0 3.74-6.44c-.21 0-.42 0-.61 0-.8 0-1.56 0-2.43-.08l-.21-2.62c.88.1 2 .13 2.62.13s1 0 1.46-.05a14.89 14.89 0 0 0 .48-3.08l3.12.3c-.14.59-.35 1.45-.61 2.4.87-.18 1.67-.36 2.3-.56zm2.64 1.42c-.05.82 0 1.71 0 2.64 0 .44.06 1.18.1 2a12.27 12.27 0 0 1 3.89 2.45l-1.5 2.45a20.67 20.67 0 0 0 -2.28-1.92c0 1.81-1 3.16-3.82 3.16-2.48 0-4.42-1.16-4.42-3.35 0-1.88 1.48-3.49 4.39-3.49a7.84 7.84 0 0 1 1 0c-.07-1.35-.15-2.88-.21-3.95zm-2.56 6.33a6.59 6.59 0 0 0 -1.27-.13c-.94 0-1.5.37-1.5.91s.51 1 1.31 1c1.12 0 1.46-.66 1.46-1.71zm5.49-5.06a27.19 27.19 0 0 0 -4.64-2.71l1.47-2.26a38.08 38.08 0 0 1 4.78 2.58z"/><path d="m248.09 435.66c-.67.4-1.35.76-2.11 1.14a40.29 40.29 0 0 0 -4.35 2.33c-1.46.95-2.51 2-2.51 3.2s1.2 1.82 3.61 1.82a32.12 32.12 0 0 0 6.21-.72v3.28a35.22 35.22 0 0 1 -6.1.48c-3.88 0-6.86-1.05-6.86-4.52 0-2.15 1.33-3.69 3.06-5-.87-1.61-1.75-3.53-2.58-5.51l2.86-1.16a40.85 40.85 0 0 0 2.26 5c1.22-.72 2.36-1.31 3.16-1.77a14.85 14.85 0 0 0 2-1.27zm.23-5.06c.47.71 1.14 1.94 1.48 2.61l-1.8.79a26.36 26.36 0 0 0 -1.47-2.64zm2.33-.91a26.83 26.83 0 0 1 1.51 2.59l-1.79.76a22.22 22.22 0 0 0 -1.5-2.63z"/></svg>