<svg viewBox="0 0 621 311" xmlns="http://www.w3.org/2000/svg"><path d="m618.34 12.74a10.28 10.28 0 0 1 2.16.24v-12.48h-620v12.24a10 10 0 0 1 0 20v9.5a10 10 0 0 1 0 20v9.5a10 10 0 0 1 10 10 10 10 0 0 1 -10 10v9.51a10 10 0 0 1 10 10 10 10 0 0 1 -10 10v9.5a10 10 0 0 1 0 20v9.5a10 10 0 0 1 0 20v9.5a10 10 0 0 1 10 10 10 10 0 0 1 -10 10v9.51a10 10 0 0 1 10 10 10 10 0 0 1 -10 10v9.5a10 10 0 0 1 0 20v9.5a10 10 0 0 1 0 20v12.24h620v-12.5a10.28 10.28 0 0 1 -2.16.24 10 10 0 0 1 0-20 10.28 10.28 0 0 1 2.16.24v-10a10.28 10.28 0 0 1 -2.16.24 10 10 0 0 1 0-20 10.28 10.28 0 0 1 2.16.24v-9.96a10.28 10.28 0 0 1 -2.16.24 10 10 0 0 1 0-20 9.66 9.66 0 0 1 2.16.24v-10a9.66 9.66 0 0 1 -2.16.24 10 10 0 0 1 0-20 10.28 10.28 0 0 1 2.16.24v-9.96a10.28 10.28 0 0 1 -2.16.24 10 10 0 0 1 0-20 10.28 10.28 0 0 1 2.16.24v-10a10.28 10.28 0 0 1 -2.16.24 10 10 0 0 1 0-20 10.28 10.28 0 0 1 2.16.24v-9.96a10.28 10.28 0 0 1 -2.16.24 10 10 0 0 1 0-20 9.66 9.66 0 0 1 2.16.24v-10a9.66 9.66 0 0 1 -2.16.24 10 10 0 0 1 0-20 10.28 10.28 0 0 1 2.16.24v-9.96a10.28 10.28 0 0 1 -2.16.24 10 10 0 0 1 0-20 10.28 10.28 0 0 1 2.16.24v-10a10.28 10.28 0 0 1 -2.16.24 10 10 0 1 1 0-20z" fill="#ff0"/><path d="m621 311h-621v-13.24h.5a9.5 9.5 0 0 0 0-19h-.5v-10.5h.5a9.5 9.5 0 0 0 0-19h-.5v-10.5h.5a9.5 9.5 0 0 0 0-19h-.5v-10.51h.5a9.51 9.51 0 0 0 9.5-9.5 9.52 9.52 0 0 0 -9.5-9.5h-.5v-10.5h.5a9.5 9.5 0 0 0 0-19h-.5v-10.5h.5a9.5 9.5 0 0 0 0-19h-.5v-10.5h.5a9.52 9.52 0 0 0 9.5-9.5 9.51 9.51 0 0 0 -9.5-9.5h-.5v-10.51h.5a9.51 9.51 0 0 0 9.5-9.5 9.52 9.52 0 0 0 -9.5-9.5h-.5v-10.5h.5a9.5 9.5 0 0 0 0-19h-.5v-10.5h.5a9.5 9.5 0 0 0 0-19h-.5v-13.24h621v13.6l-.61-.13a9.5 9.5 0 1 0 -2 18.77 9.69 9.69 0 0 0 2-.23l.61-.13v11.23l-.61-.14a9.69 9.69 0 0 0 -2-.23 9.5 9.5 0 0 0 0 19 9.69 9.69 0 0 0 2-.23l.61-.13v11.23l-.61-.14a9.69 9.69 0 0 0 -2-.23 9.5 9.5 0 1 0 2 18.77l.61-.13v11.23l-.61-.13a9.08 9.08 0 0 0 -2-.23 9.5 9.5 0 0 0 0 19 9.69 9.69 0 0 0 2-.23l.61-.14v11.23l-.61-.13a9.69 9.69 0 0 0 -2-.23 9.5 9.5 0 0 0 0 19 9.69 9.69 0 0 0 2-.23l.61-.14v11.23l-.61-.13a9.5 9.5 0 1 0 -2 18.77 9.69 9.69 0 0 0 2-.23l.61-.13v11.23l-.61-.14a9.69 9.69 0 0 0 -2-.23 9.5 9.5 0 0 0 0 19 9.08 9.08 0 0 0 2-.23l.61-.13v11.23l-.61-.13a9.08 9.08 0 0 0 -2-.23 9.5 9.5 0 1 0 2 18.77l.61-.14v11.23l-.61-.13a9.5 9.5 0 1 0 -2 18.77 9.69 9.69 0 0 0 2-.23l.61-.13v11.23l-.61-.14a9.69 9.69 0 0 0 -2-.23 9.5 9.5 0 0 0 0 19 9.69 9.69 0 0 0 2-.23l.61-.13zm-620-1h619v-11.37a10.41 10.41 0 0 1 -1.66.13 10.5 10.5 0 1 1 1.66-20.86v-8.78a10.49 10.49 0 1 1 0-20.72v-8.78a10.5 10.5 0 1 1 0-20.73v-8.77a10.41 10.41 0 0 1 -1.66.13 10.5 10.5 0 1 1 1.66-20.86v-8.77a10.5 10.5 0 1 1 0-20.73v-8.78a10.5 10.5 0 1 1 -1.66-20.86 9.38 9.38 0 0 1 1.66.14v-8.78a10.5 10.5 0 1 1 0-20.73v-8.77a10.51 10.51 0 1 1 0-20.73v-8.78a9.38 9.38 0 0 1 -1.66.14 10.5 10.5 0 1 1 1.66-20.86v-8.78a10.49 10.49 0 1 1 0-20.72v-11.38h-619v11.25a10.51 10.51 0 0 1 10 10.49 10.52 10.52 0 0 1 -10 10.49v8.52a10.5 10.5 0 0 1 0 21v8.53a10.5 10.5 0 0 1 0 21v8.53a10.5 10.5 0 0 1 0 21v8.53a10.5 10.5 0 0 1 0 21v8.52a10.5 10.5 0 0 1 0 21v8.53a10.5 10.5 0 0 1 0 21v8.53a10.51 10.51 0 0 1 10 10.49 10.52 10.52 0 0 1 -10 10.34v8.52a10.5 10.5 0 0 1 0 21v8.52a10.52 10.52 0 0 1 10 10.49 10.51 10.51 0 0 1 -10 10.47z" fill="#2b2d3b"/><path d="m44.15 62a12.35 12.35 0 1 1 12.35 12.32 12.36 12.36 0 0 1 -12.35-12.32zm23.66 0a11.31 11.31 0 1 0 -11.31 11.28 11.32 11.32 0 0 0 11.31-11.28zm-12.66-3.15h-2.89v-2.47a11.35 11.35 0 0 0 3.9-1.38h3v13.73h-4z"/><path d="m94.64 59.65v4.14h-24.23v-4.14z"/><path d="m106.84 63.08v8c0 1.33-.21 2.16-1 2.68a6.24 6.24 0 0 1 -3.27.57 10 10 0 0 0 -.89-2.94h1.8s.36-.1.36-.39v-7.58l-3.15.34c-.07 3.48-.46 7.8-2.18 10.53a12.14 12.14 0 0 0 -2.51-1.64c1.43-2.36 1.71-5.67 1.79-8.58l-1.43.16-.36-3 1.79-.15v-8h2.42a32.16 32.16 0 0 0 .57-3.57l4 .63c-.39 1-.78 2.05-1.14 2.94h3.2v7.12l1.06-.1.1 2.9zm-3-7.07h-3.15v1.12l2-.81a10.44 10.44 0 0 1 1.13 2.68zm0 4.55v-1.12l-2.24.94a10.23 10.23 0 0 0 -.91-2.94v3.41zm-.62 9.23h-2.08v-5.85h2.08zm16.78-8.68a19 19 0 0 1 -3.62 8.16 14.16 14.16 0 0 0 4.89 1.9 14.64 14.64 0 0 0 -2.27 3.12 14.15 14.15 0 0 1 -5.22-2.55 18.93 18.93 0 0 1 -4.89 2.58 13.78 13.78 0 0 0 -2-3.15 13.71 13.71 0 0 0 4.42-2.11 17.94 17.94 0 0 1 -2.31-4.68l2.92-.62h-3.54v-3.3h.91a16.23 16.23 0 0 0 -2.21-1.67c1.85-1.37 2-3.25 2-4.86v-3.4h8.71v5.61a2.46 2.46 0 0 0 0 .73.16.16 0 0 0 .21.13h.23a.3.3 0 0 0 .21-.08c.08-.05.13-.21.19-.57s0-1.2.07-2.21a8.58 8.58 0 0 0 2.68 1.43 12.93 12.93 0 0 1 -.41 2.81 2.11 2.11 0 0 1 -1 1.17 3.44 3.44 0 0 1 -1.51.34h-1.46a2.66 2.66 0 0 1 -1.93-.76c-.49-.49-.7-1.12-.7-2.88v-2.5h-2v.25c0 2.13-.34 4.71-2.09 6.45h6.72l.63-.11zm-8 2.65a11.64 11.64 0 0 0 1.63 3 11.83 11.83 0 0 0 1.83-3z"/><path d="m131 51.9h5.18v4.71h-1.3v2.39h-4v.75h3.58v2.45h-3.58v.75h5v2.81h-13.5v-2.86h5v-.75h-3.59v-2.45h3.59v-.7h-3.92v-2.39h-1.2v-4.71h5v-2.08h3.74zm-7.28 14.43h11.11v7.78h-3.57v-.86h-4.16v1.09h-3.38zm9-11.62h-7.07v1.64h1.82v-1.25h3.49v1.25h1.76zm-5.59 14.38v1.4h4.16v-1.4zm13.47-2h-3.6v-14.72h3.56zm5.54-17v19.78c0 2-.34 3-1.48 3.61s-2.84.76-5.07.76a14.82 14.82 0 0 0 -1.2-3.88c1.43.08 2.94.08 3.46.08s.62-.15.62-.6v-19.73z"/><path d="m161.28 62.1s0 1-.1 1.53c-.39 5.54-.86 8.11-1.82 9.18a3.92 3.92 0 0 1 -2.86 1.32 32.89 32.89 0 0 1 -4.09.11 8.79 8.79 0 0 0 -1.4-4c1.48.13 3.12.16 3.85.16a1.83 1.83 0 0 0 1.19-.32c.47-.39.81-1.79 1.07-4.52h-4.39l-.24 1.17-3.79-.6a95.2 95.2 0 0 0 1.58-9.77h7v-2.27h-7.49v-3.51h11.21v9.31h-7.36c-.13.75-.23 1.48-.34 2.21zm8.71-12v24.22h-3.82v-24.24z"/><path d="m196.67 68.57c0 1.12.05 3.87.05 3.87h-4.37l.05-1.37h-11.59v1.37h-4.35s.08-2.49.08-3.92v-12.64c0-.83 0-2 0-2.83 1.07 0 2.24.05 3 .05h14.46 2.73c-.05.86-.05 1.93-.05 2.81zm-15.89-11.44v9.87h11.65v-9.87z"/><path d="m201.74 59.37c1 .07 3.22.18 4.49.18h13.77c1.17 0 2.44-.13 3.2-.18v5c-.68 0-2.13-.15-3.2-.15h-13.77c-1.48 0-3.43.07-4.49.15z"/><path d="m247.24 59.24c.54 0 1.92-.11 2.52-.16v4c-.78 0-1.69-.1-2.45-.1h-6.42a13.69 13.69 0 0 1 -6.65 10.58l-4-2.71c3.84-1.74 5.85-4.42 6.47-7.87h-6.81c-.78 0-1.8.05-2.5.1v-4a24.6 24.6 0 0 0 2.47.16h7v-3.1c-2.42.18-5 .29-6.6.31l-1-3.61a60.67 60.67 0 0 0 8.94-.42 25.26 25.26 0 0 0 6.48-1.61l2.57 3.46c-1.06.26-1.84.47-2.31.57-1.22.31-2.55.57-3.93.78v3.62z"/><path d="m272.77 55.1a19.16 19.16 0 0 0 2.86-.21v4.29c-1.07-.1-2.26-.1-2.86-.1h-3.23c-.49 6.63-3.06 11.41-7.9 14.43l-4.24-2.83a10.84 10.84 0 0 0 2.65-1.56c2.81-2.19 4.66-5.26 5.1-10h-4.84a22.75 22.75 0 0 1 -4.13 5.41l-4-2.39a20.45 20.45 0 0 0 4.44-5.23 17.58 17.58 0 0 0 1.54-3.51 12 12 0 0 0 .62-3l4.86 1c-.33.7-.72 1.72-1 2.29s-.36.94-.57 1.48z"/><path d="m302.85 49.62v.13a16.2 16.2 0 0 0 -5.15 12.25 16.23 16.23 0 0 0 5.15 12.22v.13h-8.27v-24.73z"/><path d="m318.66 67h-2.16v4.84h-4.32v-4.84h-8.11v-3.2l6.74-11.31h5.69v11h2.16zm-6.48-3.51v-2.82c0-1.23.13-3.07.19-4.29h-.11c-.49 1.09-1 2.21-1.56 3.3l-2.21 3.82z"/><path d="m323.91 71.67a2.6 2.6 0 0 1 -2.76-2.61 2.67 2.67 0 0 1 2.89-2.6c2 0 3.15 1.62 3.15 4.32 0 3.35-1.95 5.88-5.54 7l-.94-2.47c2.24-.78 3.43-2.16 3.43-3.61z"/><path d="m329.53 62.07c0-6.66 2.75-9.93 6.83-9.93s6.87 3.33 6.87 9.93-2.78 10.14-6.87 10.14-6.83-3.48-6.83-10.14zm9.33 0c0-5.28-1.12-6.37-2.5-6.37s-2.47 1.09-2.47 6.37 1.1 6.55 2.47 6.55 2.5-1.24 2.5-6.55z"/><path d="m345.36 62.07c0-6.66 2.76-9.93 6.84-9.93s6.86 3.33 6.86 9.93-2.78 10.14-6.86 10.14-6.84-3.48-6.84-10.14zm9.33 0c0-5.28-1.11-6.37-2.49-6.37s-2.47 1.09-2.47 6.37 1.09 6.55 2.47 6.55 2.49-1.24 2.49-6.55z"/><path d="m361.19 62.07c0-6.66 2.76-9.93 6.84-9.93s6.87 3.33 6.87 9.93-2.79 10.14-6.9 10.14-6.81-3.48-6.81-10.14zm9.34 0c0-5.28-1.12-6.37-2.5-6.37s-2.47 1.09-2.47 6.37 1.09 6.55 2.47 6.55 2.5-1.24 2.5-6.55z"/><path d="m406.77 70.05c0 1.93-.39 2.94-1.58 3.57s-2.81.7-5.13.7a13 13 0 0 0 -1.35-3.77c1.35.1 3.07.08 3.56.08s.68-.16.68-.63v-5.36h-14.77v9.65h-3.79v-23.09h22.38zm-18.59-9.15h5.31v-5.9h-5.31zm14.77 0v-5.9h-5.69v5.9z"/><path d="m417.38 74.32h-8.27v-.13a16.2 16.2 0 0 0 5.15-12.19 16.17 16.17 0 0 0 -5.15-12.22v-.13h8.27z"/><path d="m54.78 96.76c0 3.74.55 10.6 7.34 14.55a14.41 14.41 0 0 0 -2.23 2.43 15.65 15.65 0 0 1 -6.7-8.82 16.63 16.63 0 0 1 -6.75 8.86 19.15 19.15 0 0 0 -2.52-2.26c3.84-1.9 6.06-5.51 7-10.34l1.36.25c-.11-.65-.18-1.27-.24-1.86h-4.2v-2.81z"/><path d="m73.56 105.63c-.12.23-.25.45-.38.66h7.52s0 .61-.06.91c-.24 3.59-.55 5.15-1.06 5.74a2 2 0 0 1 -1.37.72 11.11 11.11 0 0 1 -2 .08 5.39 5.39 0 0 0 -.45-1.84 10 10 0 0 1 -1.84 2 9.14 9.14 0 0 0 -2-1.52 10 10 0 0 0 3.4-3.91h-.67a14.83 14.83 0 0 1 -4.28 4.53 7.86 7.86 0 0 0 -1.81-1.62 11.57 11.57 0 0 0 3.61-3h-.67a12 12 0 0 1 -2 1.67 15.76 15.76 0 0 0 -1.41-1.33c-1.48.76-3 1.5-4.27 2.13l-1-2.79c.61-.21 1.37-.5 2.21-.82v-5h-1.77v-2.6h1.74v-3.64h2.56v3.65h1.6v2.6h-1.6v4l1.27-.53.42 1.66a9.7 9.7 0 0 0 1.58-1.75h-1.83v-2.3h12v2.3zm6.19-2.83h-9.21v-6.61h9.21zm-2.55-4.75h-4.2v.57h4.2zm0 2.32h-4.2v.56h4.2zm.52 8.07a16.3 16.3 0 0 1 -1.72 3.19h.87a.59.59 0 0 0 .55-.23c.23-.25.44-1.08.61-3z"/><path d="m97.38 102.78c.4 0 1.41-.08 1.84-.12v3c-.57 0-1.23-.08-1.78-.08h-4.69a10 10 0 0 1 -4.87 7.73l-2.94-2a7.55 7.55 0 0 0 4.73-5.76h-5c-.57 0-1.31 0-1.82.08v-3a17.36 17.36 0 0 0 1.8.12h5.15v-2.26c-1.76.13-3.63.21-4.82.23l-.73-2.65a45.84 45.84 0 0 0 6.54-.3 18.25 18.25 0 0 0 4.73-1.18l1.88 2.53-1.69.42c-.89.22-1.86.42-2.87.57v2.64z"/><path d="m116 99.76a15.06 15.06 0 0 0 2.09-.15v3.13c-.78-.08-1.65-.08-2.09-.08h-2.36c-.36 4.85-2.24 8.34-5.77 10.55l-3.1-2.07a7.94 7.94 0 0 0 1.94-1.14 9.79 9.79 0 0 0 3.72-7.34h-3.53a16.88 16.88 0 0 1 -3 4l-2.9-1.79a14.9 14.9 0 0 0 3.25-3.82 13.47 13.47 0 0 0 1.12-2.57 8.74 8.74 0 0 0 .46-2.18l3.55.7c-.25.52-.53 1.26-.7 1.67s-.27.69-.42 1.09z"/><path d="m126.7 105.91-2.81 1a34.29 34.29 0 0 0 -1.75-4.43l2.77-1a46.65 46.65 0 0 1 1.79 4.43zm9.71-3.84c-.27.75-.4 1.2-.53 1.66a15.75 15.75 0 0 1 -2.55 5.39 15.12 15.12 0 0 1 -6.44 4.85l-2.41-2.47a12.92 12.92 0 0 0 6.36-4 12.7 12.7 0 0 0 2.32-6.52zm-5.49 2.64-2.76 1a34.36 34.36 0 0 0 -1.57-4.26l2.73-.89c.38.79 1.31 3.26 1.6 4.15z"/><path d="m153.93 107.93a59 59 0 0 0 -6.54-2.72v4.88c0 .51.11 2 .21 2.87h-3.6a21.88 21.88 0 0 0 .23-2.87v-10.85a13.51 13.51 0 0 0 -.23-2.47h3.59a21.82 21.82 0 0 0 -.19 2.47v2.61a64.23 64.23 0 0 1 7.85 2.86z"/><path d="m166.28 110.24a13.36 13.36 0 0 0 1.84-.34 4.77 4.77 0 0 0 4-4.73c0-2.43-1.18-4.16-3.34-4.67a38.77 38.77 0 0 1 -1.11 4.9c-1.12 3.76-2.81 6.29-5 6.29s-4.1-2.53-4.1-5.74a8.58 8.58 0 0 1 8.89-8.26c4.78 0 7.82 3.3 7.82 7.58 0 4-2.33 6.85-7.23 7.67zm-.61-9.69a5.61 5.61 0 0 0 -4.18 5.1c0 1.63.57 2.48 1.22 2.48s1.33-1.13 2-3.32a27.2 27.2 0 0 0 .96-4.26z"/><path d="m193.45 109.77c-.46-.4-.94-.82-1.45-1.2a9.51 9.51 0 0 1 -4.63 4.79l-2.44-2a8.23 8.23 0 0 0 4.7-4.38 12.93 12.93 0 0 0 -3.88-1.39 36 36 0 0 1 -2.05 4.27 3.58 3.58 0 0 1 -3.25 1.85 3 3 0 0 1 -3.13-3.31c0-3 2.69-5.26 6.51-5.49.46-1.06.9-2.15 1.26-2.89-.74 0-2 .06-2.85.12a16 16 0 0 0 -1.62.17l-.11-2.91c.53.06 1.23.1 1.65.1 1.12 0 2.87-.06 3.78-.14a5.5 5.5 0 0 0 1.48-.32l1.81 1.4a4.77 4.77 0 0 0 -.7.88 31.56 31.56 0 0 0 -1.71 3.78 17.54 17.54 0 0 1 3.43 1v-.21a11.87 11.87 0 0 0 0-2.25l3 .35a28.68 28.68 0 0 1 -.35 3.4c.73.42 1.37.83 1.87 1.16zm-12-1.77a21.52 21.52 0 0 0 1.26-2.41c-1.71.41-2.71 1.41-2.71 2.35 0 .4.22.71.51.71s.59-.19.89-.65z"/><path d="m207.75 104.77a12.55 12.55 0 0 1 3.73-9.17l2.18.93a11.9 11.9 0 0 0 0 16.49l-2.18.93a12.56 12.56 0 0 1 -3.73-9.18z"/><path d="m230.71 99a8.68 8.68 0 0 0 -.78 1.38 29.88 29.88 0 0 1 -2.87 5 49.88 49.88 0 0 1 5.16 5.3l-2.64 2.3a37.11 37.11 0 0 0 -4.54-5.21 25.45 25.45 0 0 1 -7 5.19l-2.39-2.49a21.16 21.16 0 0 0 7.77-5.34 14 14 0 0 0 2.66-4.29h-5.88c-.86 0-1.9.11-2.43.15v-3.23a21.23 21.23 0 0 0 2.43.15h6.34a8.11 8.11 0 0 0 2.28-.28z"/><path d="m251.85 100.06c-.3.36-.57.65-.74.91a32.75 32.75 0 0 1 -6.23 7.28c1 1 2.05 2.16 2.79 3l-2.67 2.2a49 49 0 0 0 -3.73-4.23 39.87 39.87 0 0 0 -4.08-3.59l2.43-2c.8.61 1.9 1.48 3 2.47a19.67 19.67 0 0 0 4.2-4.84h-9.41a21.08 21.08 0 0 0 -2.33.17v-3.21a17.68 17.68 0 0 0 2.33.21h10.09a7.47 7.47 0 0 0 2.09-.25z"/><path d="m259.34 105.06a33.14 33.14 0 0 1 -3.67 5.34l-2.49-1.69a19.25 19.25 0 0 0 3.54-4.89zm4.43-2.59v8.63c0 1.16-.73 1.94-2.19 1.94a27.19 27.19 0 0 1 -3.3-.17l-.28-2.87a11.39 11.39 0 0 0 2.07.21c.48 0 .65-.15.67-.64s0-6.12 0-7.13h-4.56c-.57 0-1.41 0-2 .08v-3a16.16 16.16 0 0 0 2 .15h4.56v-1.26a11.8 11.8 0 0 0 -.18-1.83h3.44a14.94 14.94 0 0 0 -.2 1.85v1.25h4.08a19.1 19.1 0 0 0 2-.13v3c-.64-.06-1.48-.08-2-.08zm3.85 1.26a47.08 47.08 0 0 1 3.23 5l-2.7 1.48a37.85 37.85 0 0 0 -3-5.12z"/><path d="m274.88 102.8h-2.43v-4h7.14v-.46h-5.73v-2h14.21v2h-5.78v.46h7.29v4h-2.58v-2.21h-4.75v3.76h-2.7v-3.76h-4.71zm11.8 8.93c.91 0 1.1-.27 1.23-1.71a6.94 6.94 0 0 0 2.28.85c-.3 2.3-1 2.93-3.28 2.93h-3.76c-2.82 0-3.65-.61-3.71-2.66h-2.54v.76h-2.65v-7.11h13.42v6.35h-5.57c0 .51.32.59 1.31.59zm-11.55-8.86h3.95v1.45h-3.95zm3.95-.43h-3.61v-1.44h3.61zm-2.18 4.16v.58h2.54v-.58zm0 2.73h2.54v-.57h-2.54zm8-2.73h-2.85v.58h2.85zm0 2.73v-.57h-2.85v.57zm1.43-8.32v1.43h-3.52v-1.44zm-3.52 1.86h4v1.45h-4z"/><path d="m308.85 106.75h-7.39v4c0 1.48-.32 2.22-1.35 2.66a10.41 10.41 0 0 1 -4.08.49 10.82 10.82 0 0 0 -1.18-2.85c1.22.06 2.72.06 3.15.06s.55-.09.55-.42v-3.89h-7.4v-2.8h7.4v-3h1.33a21.86 21.86 0 0 0 2-1.42h-8.72v-2.75h11.57l.63-.15 2.1 1.6a30.71 30.71 0 0 1 -6 4.84v.88h7.39z"/><path d="m325.38 102.78c.4 0 1.41-.08 1.84-.12v3c-.57 0-1.23-.08-1.78-.08h-4.69a10 10 0 0 1 -4.87 7.73l-2.94-2a7.55 7.55 0 0 0 4.73-5.76h-5c-.57 0-1.31 0-1.82.08v-3a17.36 17.36 0 0 0 1.8.12h5.13v-2.26c-1.76.13-3.63.21-4.82.23l-.73-2.65a45.84 45.84 0 0 0 6.54-.3 18.25 18.25 0 0 0 4.73-1.18l1.88 2.53-1.69.42c-.89.22-1.86.42-2.87.57v2.64z"/><path d="m344 99.76a15.06 15.06 0 0 0 2.09-.15v3.13c-.78-.08-1.65-.08-2.09-.08h-2.36c-.36 4.85-2.24 8.34-5.77 10.55l-3.1-2.07a7.94 7.94 0 0 0 1.94-1.14 9.79 9.79 0 0 0 3.72-7.34h-3.53a16.88 16.88 0 0 1 -3 4l-2.9-1.79a14.9 14.9 0 0 0 3.25-3.82 13.47 13.47 0 0 0 1.12-2.57 8.74 8.74 0 0 0 .46-2.18l3.55.7c-.25.52-.53 1.26-.7 1.67s-.27.69-.42 1.09z"/><path d="m354.7 105.91-2.81 1a34.29 34.29 0 0 0 -1.75-4.43l2.77-1a46.65 46.65 0 0 1 1.79 4.43zm9.71-3.84c-.27.75-.4 1.2-.53 1.66a15.75 15.75 0 0 1 -2.55 5.39 15.12 15.12 0 0 1 -6.44 4.85l-2.41-2.47a12.92 12.92 0 0 0 6.36-4 12.7 12.7 0 0 0 2.32-6.52zm-5.49 2.64-2.76 1a34.36 34.36 0 0 0 -1.57-4.26l2.73-.89c.38.79 1.31 3.26 1.6 4.15z"/><path d="m381.93 107.93a59 59 0 0 0 -6.54-2.72v4.88c0 .51.11 2 .21 2.87h-3.6a21.88 21.88 0 0 0 .23-2.87v-10.85a13.51 13.51 0 0 0 -.23-2.47h3.59a21.82 21.82 0 0 0 -.19 2.47v2.61a64.23 64.23 0 0 1 7.85 2.86z"/><path d="m403.34 95.75.68.68-17.36 17.37-.69-.69z"/><path d="m420.21 105.32c.13 3 .4 5.25.87 5.53.19.12.31-.83.33-2.28a13.56 13.56 0 0 0 2 1.69c-.36 3.5-2.07 4.16-3.59 3-1.35-.85-1.86-3.91-2.09-8h-1.9v4.94l2.26-.55.36 2.41c-1.88.59-3.93 1.18-5.58 1.66l-.95-2.62 1.31-.29v-4.81l-1.9.87a9.37 9.37 0 0 0 -.28-1.14l-.82.1v1.72l1.77-.55a24.88 24.88 0 0 1 1.09 3.21l-2.09.79a24.66 24.66 0 0 0 -.76-2.66v5.47h-2.43v-5.81a17.47 17.47 0 0 1 -1 4.39 13.18 13.18 0 0 0 -2.07-1 14.35 14.35 0 0 0 .87-4.39l2.21.38v-1.29l-2.51.28-.38-2.41 1.62-.09c.18-.27.39-.55.6-.84a17.62 17.62 0 0 0 -2.22-2.56l1.27-1.92.38.34a26 26 0 0 0 1.24-3.21l2.43.89c-.72 1.33-1.48 2.8-2.15 3.86q.22.26.42.51a30.62 30.62 0 0 0 1.58-2.91l2.24 1.07c-.76 1.14-1.62 2.37-2.49 3.55l1.86-.82a17.7 17.7 0 0 1 1.54 3.41v-8.12l1.31.41a30.76 30.76 0 0 0 6-1.8l2.15 2.11c-.8.3-1.65.59-2.55.83v4h2.95v2.6zm-10-1.69c-.15-.3-.29-.61-.44-.87-.24.32-.49.66-.74 1zm7.39-.91c0-1.1-.06-2.24-.08-3.42-.57.13-1.14.23-1.71.34v3.08z"/><path d="m439.38 102.78c.4 0 1.41-.08 1.84-.12v3c-.57 0-1.23-.08-1.78-.08h-4.69a10 10 0 0 1 -4.87 7.73l-2.94-2a7.55 7.55 0 0 0 4.73-5.76h-5c-.57 0-1.31 0-1.82.08v-3a17.36 17.36 0 0 0 1.8.12h5.13v-2.26c-1.76.13-3.63.21-4.82.23l-.73-2.65a45.84 45.84 0 0 0 6.54-.3 18.25 18.25 0 0 0 4.73-1.18l1.88 2.53-1.69.42c-.89.22-1.86.42-2.87.57v2.64z"/><path d="m458 99.76a15.06 15.06 0 0 0 2.09-.15v3.13c-.78-.08-1.65-.08-2.09-.08h-2.36c-.36 4.85-2.24 8.34-5.77 10.55l-3.1-2.07a7.94 7.94 0 0 0 1.94-1.14 9.79 9.79 0 0 0 3.72-7.34h-3.53a16.88 16.88 0 0 1 -3 4l-2.9-1.79a14.9 14.9 0 0 0 3.25-3.82 13.47 13.47 0 0 0 1.12-2.57 8.74 8.74 0 0 0 .46-2.18l3.55.7c-.25.52-.53 1.26-.7 1.67s-.27.69-.42 1.09z"/><path d="m468.7 105.91-2.81 1a34.29 34.29 0 0 0 -1.75-4.43l2.77-1a46.65 46.65 0 0 1 1.79 4.43zm9.71-3.84c-.27.75-.4 1.2-.53 1.66a15.75 15.75 0 0 1 -2.55 5.39 15.12 15.12 0 0 1 -6.44 4.85l-2.41-2.47a12.92 12.92 0 0 0 6.36-4 12.7 12.7 0 0 0 2.32-6.52zm-5.49 2.64-2.76 1a34.36 34.36 0 0 0 -1.57-4.26l2.73-.89c.38.79 1.31 3.26 1.6 4.15z"/><path d="m495.93 107.93a59 59 0 0 0 -6.54-2.72v4.88c0 .51.11 2 .21 2.87h-3.6a21.88 21.88 0 0 0 .23-2.87v-10.85a13.51 13.51 0 0 0 -.23-2.47h3.59a21.82 21.82 0 0 0 -.19 2.47v2.61a64.23 64.23 0 0 1 7.85 2.86z"/><path d="m515.29 111c1.08 0 2.11-.09 3-.17a12.89 12.89 0 0 0 -.82 2.57c-2.56.13-6.82.17-9.32.05-2.21-.09-3.65-.6-4.77-2.07-.67.73-1.37 1.41-2.26 2.25l-1.32-2.63c.65-.44 1.39-1 2.08-1.54v-3.78h-1.77v-2.58h4.33v6.1a3.26 3.26 0 0 0 2.3 1.63 18.94 18.94 0 0 0 -1.73-1.38 14.36 14.36 0 0 0 3.06-1.14h-3.16v-2h2.91v-1h-2.37v-2h2.37v-.82h2.58v.82h1.69v-.82h2.63v.82h2.45v2h-2.45v1h3v2h-3.21a33.23 33.23 0 0 1 3.32 1.78zm-13-10.14a15 15 0 0 0 -2.38-3.29l2.19-1.36a14.6 14.6 0 0 1 2.54 3.11zm6.21-2.91h-3.37v-1.71h5.67v3.93h-1a6 6 0 0 0 1.78.63c-.23 1.33-.81 1.71-2.09 1.71h-1.76c-1.87 0-2.38-.51-2.38-2.26v-1.79h3.12zm2.5 10.89a13.37 13.37 0 0 1 -3.58 2.11h.73c1.65.08 4.33.08 6.8 0a21.39 21.39 0 0 0 -3.12-1.92l1.41-.77h-3.78zm-1.77-8.11c.32 0 .42-.1.49-.56h-2.11v.06c0 .44.08.5.5.5zm1.21 5.58h1.69v-1h-1.73zm4.34-8.38h-3.5v-1.69h5.83v3.93h-1a6 6 0 0 0 1.78.63c-.23 1.33-.81 1.71-2.09 1.71h-1.8c-1.87 0-2.38-.51-2.38-2.26v-1.79h3.16zm.7 2.8c.32 0 .42-.1.49-.56h-2.11v.06c0 .44.08.5.5.5z"/><path d="m526.46 106.44-2.3.46v4c0 1.29-.23 2-1 2.37a6.71 6.71 0 0 1 -3.23.5 9.28 9.28 0 0 0 -.76-2.53h1.94s.38-.11.38-.4v-3.46l-2.09.38-.57-2.64c.76-.11 1.67-.24 2.66-.42v-2.9h-2.34v-2.52h2.34v-3.53h2.64v3.53h2.13v2.55h-2.13v2.47l2.07-.38zm6.93-1.1c.59 2.72 1.75 5 4 6.08a10.42 10.42 0 0 0 -1.9 2.43c-2.84-1.59-4.08-4.56-4.82-8.51h-1c-.19 2.93-.89 6.35-3 8.47a10.69 10.69 0 0 0 -2.15-1.89c2.26-2.34 2.43-5.91 2.43-8.67v-6.48h9.54v8.57zm-3.68-6v3.38h4v-3.34z"/><path d="m555.7 99.78h-2.13v10.67c0 1.56-.36 2.36-1.37 2.8a11.48 11.48 0 0 1 -4.46.53 11.12 11.12 0 0 0 -1.16-2.93c1.27.1 3 .08 3.46.08s.63-.14.63-.53v-10.62h-12.33v-2.78h17.36zm-13 9.3v1.43h-2.7v-9h8.28v7.56zm0-4.93v2.31h2.87v-2.31z"/><path d="m563.24 104.77a12.56 12.56 0 0 1 -3.72 9.18l-2.18-.93a11.9 11.9 0 0 0 0-16.49l2.18-.93a12.55 12.55 0 0 1 3.72 9.17z"/><path d="m53 141.22 6.27-6.22.55.55-6.27 6.27 6.27 6.18-.55.55-6.27-6.23-6.29 6.29-.55-.55 6.29-6.29-6.27-6.27.55-.55zm-4 .55a1.43 1.43 0 1 1 -1.43-1.42 1.44 1.44 0 0 1 1.43 1.42zm4-4a1.43 1.43 0 1 1 1.42-1.42 1.43 1.43 0 0 1 -1.42 1.43zm0 8a1.43 1.43 0 1 1 -1.43 1.43 1.43 1.43 0 0 1 1.43-1.44zm4-4a1.43 1.43 0 0 1 2.85 0 1.43 1.43 0 1 1 -2.85 0z"/><path d="m78.21 142.32c.13 3 .4 5.25.87 5.53.19.12.31-.83.33-2.28a13.56 13.56 0 0 0 2 1.69c-.36 3.5-2.07 4.16-3.59 3-1.35-.85-1.86-3.91-2.09-8h-1.93v4.94l2.26-.55.36 2.41c-1.88.59-3.93 1.18-5.58 1.66l-1-2.62 1.31-.29v-4.81l-1.9.87a9.37 9.37 0 0 0 -.28-1.14l-.82.1v1.72l1.85-.55a24.88 24.88 0 0 1 1.09 3.21l-2.09.79a24.66 24.66 0 0 0 -.76-2.66v5.47h-2.47v-5.81a17.47 17.47 0 0 1 -1 4.39 13.18 13.18 0 0 0 -2.07-1 14.35 14.35 0 0 0 .87-4.39l2.21.38v-1.29l-2.51.28-.39-2.37 1.62-.09c.18-.27.39-.55.6-.84a17.62 17.62 0 0 0 -2.22-2.56l1.27-1.92.38.34a26 26 0 0 0 1.24-3.21l2.43.89c-.72 1.33-1.48 2.8-2.15 3.86q.23.26.42.51a30.62 30.62 0 0 0 1.58-2.91l2.24 1.07c-.76 1.14-1.62 2.37-2.49 3.55l1.86-.82a17.7 17.7 0 0 1 1.54 3.41v-8.17l1.31.41a30.76 30.76 0 0 0 6-1.8l2.15 2.11c-.8.3-1.65.59-2.55.83v4.05h3v2.6zm-10-1.69c-.15-.3-.29-.61-.44-.87-.24.32-.49.66-.74 1zm7.39-.91c0-1.1-.06-2.24-.08-3.42-.57.13-1.14.23-1.71.34v3.08z"/><path d="m97.38 139.78c.4 0 1.41-.08 1.84-.12v3c-.57 0-1.23-.08-1.78-.08h-4.69a10 10 0 0 1 -4.87 7.73l-2.94-2a7.55 7.55 0 0 0 4.73-5.76h-5c-.57 0-1.31 0-1.82.08v-3a17.36 17.36 0 0 0 1.8.12h5.15v-2.26c-1.76.13-3.63.21-4.82.23l-.73-2.65a45.84 45.84 0 0 0 6.54-.3 18.25 18.25 0 0 0 4.73-1.18l1.88 2.53-1.69.42c-.89.22-1.86.42-2.87.57v2.64z"/><path d="m116 136.76a15.06 15.06 0 0 0 2.09-.15v3.13c-.78-.08-1.65-.08-2.09-.08h-2.36c-.36 4.85-2.24 8.34-5.77 10.55l-3.1-2.07a7.94 7.94 0 0 0 1.94-1.14 9.79 9.79 0 0 0 3.72-7.34h-3.53a16.88 16.88 0 0 1 -3 4l-2.9-1.79a14.9 14.9 0 0 0 3.25-3.82 13.47 13.47 0 0 0 1.12-2.57 8.74 8.74 0 0 0 .46-2.18l3.55.7c-.25.52-.53 1.26-.7 1.67s-.27.69-.42 1.09z"/><path d="m126.7 142.91-2.81 1.09a34.29 34.29 0 0 0 -1.75-4.43l2.77-1a46.65 46.65 0 0 1 1.79 4.34zm9.71-3.84c-.27.75-.4 1.2-.53 1.66a15.75 15.75 0 0 1 -2.55 5.39 15.12 15.12 0 0 1 -6.44 4.85l-2.41-2.47a12.92 12.92 0 0 0 6.36-3.95 12.7 12.7 0 0 0 2.32-6.52zm-5.49 2.64-2.76 1a34.36 34.36 0 0 0 -1.57-4.26l2.73-.89c.38.79 1.31 3.26 1.6 4.15z"/><path d="m153.93 144.93a59 59 0 0 0 -6.54-2.72v4.88c0 .51.11 2 .21 2.87h-3.6a21.88 21.88 0 0 0 .23-2.87v-10.85a13.51 13.51 0 0 0 -.23-2.47h3.59a21.82 21.82 0 0 0 -.19 2.47v2.61a64.23 64.23 0 0 1 7.85 2.86z"/><path d="m166.28 147.24a13.36 13.36 0 0 0 1.84-.34 4.77 4.77 0 0 0 4-4.73c0-2.43-1.18-4.16-3.34-4.67a38.77 38.77 0 0 1 -1.11 4.9c-1.12 3.76-2.81 6.29-5 6.29s-4.1-2.53-4.1-5.74a8.58 8.58 0 0 1 8.89-8.26c4.78 0 7.82 3.3 7.82 7.58 0 3.95-2.33 6.85-7.23 7.67zm-.61-9.69a5.61 5.61 0 0 0 -4.18 5.1c0 1.63.57 2.48 1.22 2.48s1.33-1.13 2-3.32a27.2 27.2 0 0 0 .96-4.26z"/><path d="m185.64 138.3c0 .7-.1 1.4-.19 2.1h7.22s0 .8-.08 1.16c-.32 5.06-.72 7.22-1.5 8.1a3.27 3.27 0 0 1 -2.28 1 28.86 28.86 0 0 1 -3.32 0 6 6 0 0 0 -1-2.72c1.29.12 2.62.12 3.21.12a1.37 1.37 0 0 0 .95-.25c.45-.38.78-1.9 1-4.86h-4.65a11.35 11.35 0 0 1 -6.15 8 8.54 8.54 0 0 0 -2-2.36c5-2.37 5.47-6.42 5.66-10.31h-5.24v-2.64h7.12v-3h2.87v3h7.37v2.64z"/><path d="m201.22 134.29a16.71 16.71 0 0 0 -.51 1.92 52.16 52.16 0 0 0 -.88 7.1 3.39 3.39 0 0 0 0 .44c.23-.55.46-.91.7-1.46l1.39 1.1c-.57 1.69-1.14 3.59-1.37 4.67a6.71 6.71 0 0 0 -.11.89v.86l-2.57.17a21.56 21.56 0 0 1 -.78-6 57.14 57.14 0 0 1 .75-7.81c.07-.57.18-1.43.2-2.13zm11.19 14.47a22.2 22.2 0 0 0 -2-1.71c-.24 1.77-1.4 2.87-3.87 2.87-2.64 0-4.39-1.14-4.39-3.27s1.73-3.45 4.35-3.45h1c-.06-1-.11-2.15-.13-3.33-.36 0-.72 0-1.07 0-1.12 0-2.24 0-3.36-.11v-2.72c1.1.11 2.22.17 3.36.17h1.07c0-.87 0-1.58 0-1.92a10.05 10.05 0 0 0 -.15-1.29h3.25a11.79 11.79 0 0 0 -.12 1.25c0 .37 0 1-.05 1.77a27 27 0 0 0 2.73-.42v2.83c-.83.12-1.77.23-2.75.31 0 1.71.13 3.06.19 4.16a11.91 11.91 0 0 1 3.61 2.43zm-4.88-3.19a5 5 0 0 0 -1.28-.17c-.87 0-1.46.34-1.46.93s.66.89 1.46.89 1.28-.49 1.28-1.51z"/><path d="m220.88 134.86h3.4v5.37h4.66v-5.37h3.36v14.14h-3.36v-5.81h-4.66v5.81h-3.4z"/><path d="m235.59 134.86h3.67l2.24 6.1c.28.81.51 1.71.78 2.58h.09c.29-.87.51-1.77.78-2.58l2.17-6.1h3.68v14.14h-3.09v-4.84a46.93 46.93 0 0 1 .43-4.9h-.07l-1.18 3.38-1.9 5.16h-1.86l-1.92-5.16-1.14-3.38h-.08a46.94 46.94 0 0 1 .44 4.9v4.84h-3z"/><path d="m250.45 134.86h3.55l1.61 6.44c.42 1.52.69 3 1.1 4.52h.1c.4-1.54.7-3 1.1-4.52l1.6-6.44h3.49l-4.25 14.14h-4.07z"/><path d="m285.46 134.19v2.34h-16.77v-2.34h6.84v-1.48h2.85v1.48zm-.53 13.81c0 1.2-.23 1.92-1 2.32a6.5 6.5 0 0 1 -3 .46 8.59 8.59 0 0 0 -.37-1.45h-4.73v.82h-2.43v-5.22h7.31v3.28a9.64 9.64 0 0 0 1.1 0c.25 0 .35-.05.35-.26v-3.69h-10.07v6.55h-2.7v-8.81h15.54zm-2.58-6.57h-10.57v-4.35h10.57zm-2.8-2.56h-5.14v.76h5.14zm-1.25 7.86h-2.53v.8h2.53z"/><path d="m304.37 147.93c0 1.27-.23 1.95-1 2.39a6.58 6.58 0 0 1 -3.23.49 9.63 9.63 0 0 0 -.85-2.56 17.77 17.77 0 0 0 2 0c.31 0 .4-.1.4-.4v-11.64h-2.2l1.1.24c-.5.86-1 1.68-1.37 2.32h2v2.23h-3.92v3.93h.93v-3.21h2.34v6.16h-2.34v-.7h-4.33v1h-2.3v-6.5h2.3v3.21h.91v-3.89h-3.7v-2.24h1.73a9.65 9.65 0 0 0 -.89-2.07l1.46-.49h-2.78v14.6h-2.67v-17.2h16.45zm-7.53-9.41a15 15 0 0 0 .88-2.31h-3.46a8.25 8.25 0 0 1 1 2.22l-.91.34h3.38z"/><path d="m323.9 134.84v2.62h-13.55v2.11c0 3.17-.32 8.13-2.09 11.17a12.45 12.45 0 0 0 -2.39-1.56c1.6-2.73 1.71-6.82 1.71-9.61v-4.73h6.69v-2.09h2.89v2.09zm-6 4.35h5.7v2.41h-5.7v1.71h4.7v7.47h-2.8v-.65h-5.95v.65h-2.7v-7.47h4v-5.64h2.81zm1.87 6.53h-5.95v2h5.95z"/><path d="m327.82 135.62c1.76-.16 4.61-.38 8.05-.69 1.88-.15 4.1-.26 5.47-.32v2.93a22.42 22.42 0 0 0 -3.61.22 5.24 5.24 0 0 0 -3.78 4.89c0 2.77 2.6 3.85 5.85 4l-1.06 3.18c-4.2-.33-7.79-2.61-7.79-6.62a7.72 7.72 0 0 1 2.37-5.49c-1.61.17-4.92.55-7.18 1.05l-.28-3.1c.78.02 1.59-.01 1.96-.05zm12.4 6-1.69.74a15.5 15.5 0 0 0 -1.44-2.6l1.65-.69a27 27 0 0 1 1.48 2.59zm2.24-1-1.67.8a16 16 0 0 0 -1.54-2.53l1.64-.74c.49.73 1.19 1.85 1.57 2.52z"/><path d="m57 180.79a8.58 8.58 0 0 1 -.95 3.09 19.89 19.89 0 0 0 6.26 1.41 10.52 10.52 0 0 0 -1.62 2.45 17.11 17.11 0 0 1 -6.25-1.88 10.05 10.05 0 0 1 -3.69 1.9 11.48 11.48 0 0 0 -1.72-2.3 8.7 8.7 0 0 0 3.17-1.24 11.9 11.9 0 0 1 -2.11-2.67l2.24-.67a7.61 7.61 0 0 0 1.41 1.6 6.52 6.52 0 0 0 .53-1.69h-4.03v-5.79h4.2v-1h-4.52v-1.71c-.28.62-.61 1.23-1 1.84v13.71h-2.57v-9.84a15.14 15.14 0 0 1 -1.27 1.43 16.9 16.9 0 0 0 -1.41-2.87 19.58 19.58 0 0 0 4.45-6.9l2.56.84c-.13.32-.26.62-.4.95h4.16v-1.55h2.74v1.58h4.82v2.52h-4.8v1h4.37v5.78zm-4.31-2.23h1.71v-1.33h-1.67zm4.45-1.33v1.33h1.73v-1.33z"/><path d="m79.79 184.7c0 1.37-.29 2.09-1.12 2.51a8.59 8.59 0 0 1 -3.75.47 9.62 9.62 0 0 0 -.87-2.64c.93.08 2.17.06 2.51.06s.47-.12.47-.44v-2.28h-3.38v5.15h-2.79v-5.15h-3.42a10.77 10.77 0 0 1 -2.44 5.53 11.56 11.56 0 0 0 -2.19-1.79c2.07-2.26 2.22-5.68 2.22-8.35v-6.77h14.76zm-8.93-4.92v-1.88h-3.06c0 .59 0 1.21-.06 1.88zm-3.06-6.17v1.72h3.06v-1.72zm9.23 0h-3.38v1.72h3.35zm0 6.17v-1.88h-3.38v1.88z"/><path d="m84.73 172.62c1.77-.16 4.62-.38 8-.69 1.89-.15 4.11-.26 5.48-.32v2.93a22.29 22.29 0 0 0 -3.6.22 5.24 5.24 0 0 0 -3.79 4.89c0 2.77 2.61 3.85 5.86 4l-1.07 3.18c-4.2-.33-7.79-2.61-7.79-6.62a7.68 7.68 0 0 1 2.38-5.49c-1.62.17-4.92.55-7.18 1.05l-.29-3.1c.82.02 1.64-.01 2-.05zm12.4 6-1.69.74a14.82 14.82 0 0 0 -1.44-2.56l1.65-.69a25 25 0 0 1 1.48 2.55zm2.25-1-1.67.8a17.66 17.66 0 0 0 -1.54-2.53l1.63-.74c.49.73 1.2 1.85 1.58 2.52z"/><path d="m117.12 177.46a19.21 19.21 0 0 1 -2.73.7c.43.92.93 1.94 1.48 3l-1.33 1.71c-1.1-.23-3.06-.53-4.35-.69l.25-2.16 1.78.15c-.25-.55-.45-1.06-.64-1.52a50.23 50.23 0 0 1 -8.19.09l-.12-2.6a39 39 0 0 0 7.28.08l-.11-.29-.5-1.14a37.25 37.25 0 0 1 -6.38-.09l-.15-2.59a36.48 36.48 0 0 0 5.41.25 11.5 11.5 0 0 0 -.85-1.48l3.24-.61a14.64 14.64 0 0 0 .52 1.77 22.79 22.79 0 0 0 3.51-.86l.48 2.53a25.59 25.59 0 0 1 -3 .74c.11.29.24.57.36.84l.23.53a23.14 23.14 0 0 0 3.32-.91zm-10.39 3.31a5.77 5.77 0 0 0 -.44 1.78c0 1 .67 1.75 3 1.75a29.58 29.58 0 0 0 5.16-.42l-.09 2.91a32.44 32.44 0 0 1 -5 .38c-3.62 0-5.89-1.22-5.89-4a9.67 9.67 0 0 1 .48-2.66z"/><path d="m134.43 173.05c-.49.31-1 .59-1.44.92-1.07.72-2.72 2.07-3.74 2.86a6.62 6.62 0 0 1 1.31-.11c3.23 0 5.77 2.07 5.77 4.9s-2.13 5.51-7 5.51c-2.66 0-4.86-1.23-4.86-3.3a3.45 3.45 0 0 1 3.65-3.2 3.86 3.86 0 0 1 4.1 3.12 2.49 2.49 0 0 0 1.1-2.17c0-1.61-1.65-2.62-3.72-2.62-2.76 0-4.73 1.66-6.54 3.86l-2.06-2.15c1.22-.95 3.4-2.81 4.52-3.72s2.79-2.22 3.71-3c-.95 0-2.89.09-3.9.17-.57 0-1.23.09-1.69.17l-.09-2.94a17 17 0 0 0 1.91.11c1 0 4.77-.06 5.89-.15a10 10 0 0 0 1.65-.31zm-4.82 11.46c-.1-1-.67-1.71-1.47-1.71-.6 0-1 .36-1 .74 0 .59.63 1 1.58 1 .34.01.62-.01.89-.03z"/><path d="m143.71 184.28 1.55-2.13a4.33 4.33 0 0 0 3 1.37c1.31 0 2.16-.55 2.16-1.61 0-1.22-.64-1.94-3.61-1.94v-2.38c2.42 0 3.18-.74 3.18-1.86 0-1-.57-1.5-1.62-1.5a3.74 3.74 0 0 0 -2.52 1.18l-1.71-2.07a6.64 6.64 0 0 1 4.38-1.75c2.93 0 4.85 1.37 4.85 3.9a3.24 3.24 0 0 1 -2.37 3.11v.1a3.47 3.47 0 0 1 2.73 3.43c0 2.65-2.41 4.13-5.22 4.13a6 6 0 0 1 -4.8-1.98z"/><path d="m155.6 178.85c0-4.86 2-7.26 5-7.26s5 2.43 5 7.26-2 7.41-5 7.41-5-2.55-5-7.41zm6.82 0c0-3.86-.82-4.66-1.82-4.66s-1.81.8-1.81 4.66.8 4.79 1.81 4.79 1.82-.92 1.82-4.79z"/><path d="m167.17 178.85c0-4.86 2-7.26 5-7.26s5 2.43 5 7.26-2 7.41-5 7.41-5-2.55-5-7.41zm6.82 0c0-3.86-.82-4.66-1.82-4.66s-1.81.8-1.81 4.66.8 4.79 1.81 4.79 1.83-.92 1.83-4.79z"/><path d="m200.48 184.68c0 1.41-.29 2.15-1.16 2.6a8.31 8.31 0 0 1 -3.74.52 9.92 9.92 0 0 0 -1-2.76c1 .08 2.24.06 2.6.06s.49-.12.49-.46v-3.91h-10.78v7.05h-2.77v-16.87h16.36zm-13.59-6.68h3.88v-4.35h-3.88zm10.79 0v-4.35h-4.16v4.35z"/><path d="m207.45 178.85c0-4.64 2.62-7.26 6.48-7.26s6.48 2.64 6.48 7.26-2.62 7.41-6.48 7.41-6.48-2.78-6.48-7.41zm9.5 0c0-2.74-1.16-4.35-3-4.35s-3 1.61-3 4.35 1.14 4.48 3 4.48 3.05-1.73 3.05-4.48z"/><path d="m223 171.86h9v2.81h-5.62v3.1h4.83v2.83h-4.83v5.4h-3.38z"/><path d="m234.51 171.86h9v2.81h-5.62v3.1h4.82v2.83h-4.82v5.4h-3.4z"/><path d="m266.48 174.21a8.39 8.39 0 0 0 -.74 1.56 19.72 19.72 0 0 1 -3.29 6.23 18.23 18.23 0 0 1 -7.71 5.47l-2.74-2.47a15.33 15.33 0 0 0 7.7-4.67 12.21 12.21 0 0 0 2.51-4.75h-4.73a23.67 23.67 0 0 1 -4.79 4.54l-2.58-1.92a17.12 17.12 0 0 0 5.9-6 9.59 9.59 0 0 0 1-2.26l3.36 1.11a21.88 21.88 0 0 0 -1.17 1.88h3.05a7.19 7.19 0 0 0 1.88-.25z"/><path d="m269.73 176.87c.76.06 2.36.14 3.29.14h10.09c.85 0 1.78-.1 2.33-.14v3.63c-.49 0-1.55-.11-2.33-.11h-10.11c-1.08 0-2.51.05-3.29.11z"/><path d="m293.79 179.27a33.22 33.22 0 0 1 -3.67 5.33l-2.49-1.69a19.16 19.16 0 0 0 3.53-4.88zm4.42-2.59v8.63c0 1.16-.72 1.94-2.18 1.94a25.53 25.53 0 0 1 -3.31-.18l-.28-2.83a11.31 11.31 0 0 0 2.07.21c.47 0 .64-.15.66-.64s0-6.12 0-7.13h-4.56c-.57 0-1.4 0-1.95.08v-3a18.08 18.08 0 0 0 1.95.15h4.56v-1.27a11.65 11.65 0 0 0 -.17-1.83h3.4a13.05 13.05 0 0 0 -.21 1.85v1.25h4.56a2.28 2.28 0 1 1 .65 0l.93-.09v3c-.65-.06-1.48-.08-2-.08zm3.86 1.26a46.09 46.09 0 0 1 3.23 5l-2.7 1.48a39.75 39.75 0 0 0 -3-5.13zm.91-5.38a.93.93 0 1 0 -.93-.93.93.93 0 0 0 .95.93z"/><path d="m315.12 181.55a18.36 18.36 0 0 0 7.26-7.6l1.79 3.25a20.69 20.69 0 0 1 -7.39 7.2 20.28 20.28 0 0 1 -6.81 2.5l-2-3a19.58 19.58 0 0 0 7.15-2.35zm.65-6.22-2.36 2.42a37.53 37.53 0 0 0 -4.77-4.16l2.19-2.34a38.61 38.61 0 0 1 4.94 4.08z"/><path d="m332.58 170.72a30.53 30.53 0 0 1 -1.71 3.7v13.34h-2.81v-9.06a13.7 13.7 0 0 1 -1 1.12 21.19 21.19 0 0 0 -1.6-2.93 19.25 19.25 0 0 0 4.39-7zm11.06 5.87h-1.94v8c0 1.66-.36 2.36-1.38 2.78a13.41 13.41 0 0 1 -4.7.45 9.9 9.9 0 0 0 -1-2.73c1.4.08 3.11.08 3.59.06s.66-.16.66-.57v-8h-7v-2.8h7v-3.78h2.87v3.83h1.94zm-8.87 6.63a46.6 46.6 0 0 0 -2.28-4.49l2.45-1.14c.78 1.33 1.94 3.16 2.47 4.3z"/></svg>