<svg viewBox="0 0 621 311" xmlns="http://www.w3.org/2000/svg"><path d="m618.34 298.26a10 10 0 0 1 0-20 10.28 10.28 0 0 1 2.16.24v-10a10.28 10.28 0 0 1 -2.16.24 10 10 0 0 1 0-20 10.28 10.28 0 0 1 2.16.24v-9.98a10.28 10.28 0 0 1 -2.16.24 10 10 0 0 1 0-20 9.66 9.66 0 0 1 2.16.24v-10a9.66 9.66 0 0 1 -2.16.24 10 10 0 0 1 0-20 10.28 10.28 0 0 1 2.16.24v-9.96a10.28 10.28 0 0 1 -2.16.24 10 10 0 0 1 0-20 10.28 10.28 0 0 1 2.16.24v-10a10.28 10.28 0 0 1 -2.16.24 10 10 0 0 1 0-20 10.28 10.28 0 0 1 2.16.24v-9.96a10.28 10.28 0 0 1 -2.16.24 10 10 0 0 1 0-20 9.66 9.66 0 0 1 2.16.24v-10a9.66 9.66 0 0 1 -2.16.24 10 10 0 0 1 0-20 10.28 10.28 0 0 1 2.16.24v-9.96a10.28 10.28 0 0 1 -2.16.24 10 10 0 0 1 0-20 10.28 10.28 0 0 1 2.16.24v-10a10.28 10.28 0 0 1 -2.16.24 10 10 0 1 1 0-20 10.28 10.28 0 0 1 2.16.24v-12.46h-620v12.24a10 10 0 0 1 0 20v9.5a10 10 0 0 1 0 20v9.5a10 10 0 0 1 10 10 10 10 0 0 1 -10 10v9.51a10 10 0 0 1 10 10 10 10 0 0 1 -10 10v9.5a10 10 0 0 1 0 20v9.5a10 10 0 0 1 0 20v9.5a10 10 0 0 1 10 10 10 10 0 0 1 -10 10v9.51a10 10 0 0 1 10 10 10 10 0 0 1 -10 10v9.5a10 10 0 0 1 0 20v9.5a10 10 0 0 1 0 20v12.24h620v-12.5a10.28 10.28 0 0 1 -2.16.26z" fill="#ff0"/><path d="m621 311h-621v-13.24h.5a9.5 9.5 0 0 0 0-19h-.5v-10.5h.5a9.5 9.5 0 0 0 0-19h-.5v-10.5h.5a9.5 9.5 0 0 0 0-19h-.5v-10.51h.5a9.51 9.51 0 0 0 9.5-9.5 9.52 9.52 0 0 0 -9.5-9.5h-.5v-10.5h.5a9.5 9.5 0 0 0 0-19h-.5v-10.5h.5a9.5 9.5 0 0 0 0-19h-.5v-10.5h.5a9.52 9.52 0 0 0 9.5-9.5 9.51 9.51 0 0 0 -9.5-9.5h-.5v-10.51h.5a9.51 9.51 0 0 0 9.5-9.5 9.52 9.52 0 0 0 -9.5-9.5h-.5v-10.5h.5a9.5 9.5 0 0 0 0-19h-.5v-10.5h.5a9.5 9.5 0 0 0 0-19h-.5v-13.24h621v13.6l-.61-.13a9.5 9.5 0 1 0 -2 18.77 9.69 9.69 0 0 0 2-.23l.61-.13v11.23l-.61-.14a9.69 9.69 0 0 0 -2-.23 9.5 9.5 0 0 0 0 19 9.69 9.69 0 0 0 2-.23l.61-.13v11.23l-.61-.14a9.69 9.69 0 0 0 -2-.23 9.5 9.5 0 1 0 2 18.77l.61-.13v11.23l-.61-.13a9.08 9.08 0 0 0 -2-.23 9.5 9.5 0 0 0 0 19 9.69 9.69 0 0 0 2-.23l.61-.14v11.23l-.61-.13a9.69 9.69 0 0 0 -2-.23 9.5 9.5 0 0 0 0 19 9.69 9.69 0 0 0 2-.23l.61-.14v11.23l-.61-.13a9.5 9.5 0 1 0 -2 18.77 9.69 9.69 0 0 0 2-.23l.61-.13v11.23l-.61-.14a9.69 9.69 0 0 0 -2-.23 9.5 9.5 0 0 0 0 19 9.08 9.08 0 0 0 2-.23l.61-.13v11.23l-.61-.13a9.08 9.08 0 0 0 -2-.23 9.5 9.5 0 1 0 2 18.77l.61-.14v11.23l-.61-.13a9.5 9.5 0 1 0 -2 18.77 9.69 9.69 0 0 0 2-.23l.61-.13v11.23l-.61-.14a9.69 9.69 0 0 0 -2-.23 9.5 9.5 0 0 0 0 19 9.69 9.69 0 0 0 2-.23l.61-.13zm-620-1h619v-11.37a10.41 10.41 0 0 1 -1.66.13 10.5 10.5 0 1 1 1.66-20.86v-8.78a10.49 10.49 0 1 1 0-20.72v-8.78a10.5 10.5 0 1 1 0-20.73v-8.77a10.41 10.41 0 0 1 -1.66.13 10.5 10.5 0 1 1 1.66-20.86v-8.77a10.5 10.5 0 1 1 0-20.73v-8.78a10.5 10.5 0 1 1 -1.66-20.86 9.38 9.38 0 0 1 1.66.14v-8.78a10.5 10.5 0 1 1 0-20.73v-8.77a10.51 10.51 0 1 1 0-20.73v-8.78a9.38 9.38 0 0 1 -1.66.14 10.5 10.5 0 1 1 1.66-20.86v-8.78a10.49 10.49 0 1 1 0-20.72v-11.38h-619v11.25a10.51 10.51 0 0 1 10 10.49 10.52 10.52 0 0 1 -10 10.49v8.52a10.5 10.5 0 0 1 0 21v8.53a10.5 10.5 0 0 1 0 21v8.53a10.5 10.5 0 0 1 0 21v8.53a10.5 10.5 0 0 1 0 21v8.52a10.5 10.5 0 0 1 0 21v8.53a10.5 10.5 0 0 1 0 21v8.53a10.51 10.51 0 0 1 10 10.49 10.52 10.52 0 0 1 -10 10.34v8.52a10.5 10.5 0 0 1 0 21v8.52a10.52 10.52 0 0 1 10 10.49 10.51 10.51 0 0 1 -10 10.47z" fill="#2b2d3b"/><path d="m44.15 62a12.35 12.35 0 1 1 12.35 12.32 12.36 12.36 0 0 1 -12.35-12.32zm23.66 0a11.31 11.31 0 1 0 -11.31 11.28 11.32 11.32 0 0 0 11.31-11.28zm-16.2 4.49c3.51-2.86 6.11-5.14 6.11-7 0-1.23-.62-1.75-1.69-1.75a4.17 4.17 0 0 0 -2.62 1.26l-2.14-2.1a7.08 7.08 0 0 1 5.23-2.24c3 0 5 1.82 5 4.45 0 2.31-2.31 4.73-4.29 6.44.76-.07 1.85-.13 2.55-.13h2.24v3.31h-10.39z"/><path d="m94.64 59.65v4.14h-24.23v-4.14z"/><path d="m106.84 63.08v8c0 1.33-.21 2.16-1 2.68a6.24 6.24 0 0 1 -3.27.57 10 10 0 0 0 -.89-2.94h1.8s.36-.1.36-.39v-7.58l-3.15.34c-.07 3.48-.46 7.8-2.18 10.53a12.14 12.14 0 0 0 -2.51-1.64c1.43-2.36 1.71-5.67 1.79-8.58l-1.43.16-.36-3 1.79-.15v-8h2.42a32.16 32.16 0 0 0 .57-3.57l4 .63c-.39 1-.78 2.05-1.14 2.94h3.2v7.12l1.06-.1.1 2.9zm-3-7.07h-3.15v1.12l2-.81a10.44 10.44 0 0 1 1.13 2.68zm0 4.55v-1.12l-2.24.94a10.23 10.23 0 0 0 -.91-2.94v3.41zm-.62 9.23h-2.08v-5.85h2.08zm16.78-8.68a19 19 0 0 1 -3.62 8.16 14.16 14.16 0 0 0 4.89 1.9 14.64 14.64 0 0 0 -2.27 3.12 14.15 14.15 0 0 1 -5.22-2.55 18.93 18.93 0 0 1 -4.89 2.58 13.78 13.78 0 0 0 -2-3.15 13.71 13.71 0 0 0 4.42-2.11 17.94 17.94 0 0 1 -2.31-4.68l2.92-.62h-3.54v-3.3h.91a16.23 16.23 0 0 0 -2.21-1.67c1.85-1.37 2-3.25 2-4.86v-3.4h8.71v5.61a2.46 2.46 0 0 0 0 .73.16.16 0 0 0 .21.13h.23a.3.3 0 0 0 .21-.08c.08-.05.13-.21.19-.57s0-1.2.07-2.21a8.58 8.58 0 0 0 2.68 1.43 12.93 12.93 0 0 1 -.41 2.81 2.11 2.11 0 0 1 -1 1.17 3.44 3.44 0 0 1 -1.51.34h-1.46a2.66 2.66 0 0 1 -1.93-.76c-.49-.49-.7-1.12-.7-2.88v-2.5h-2v.25c0 2.13-.34 4.71-2.09 6.45h6.72l.63-.11zm-8 2.65a11.64 11.64 0 0 0 1.63 3 11.83 11.83 0 0 0 1.83-3z"/><path d="m144.25 60.17a26.9 26.9 0 0 1 -3.74 1c.59 1.25 1.27 2.66 2 4.09l-1.83 2.34c-1.5-.32-4.18-.73-6-.94l.34-3 2.44.2c-.33-.75-.62-1.45-.88-2.08a69 69 0 0 1 -11.21.13l-.15-3.56a53.13 53.13 0 0 0 10 .11l-.15-.39-.68-1.56a52.74 52.74 0 0 1 -8.73-.13l-.21-3.54a50.93 50.93 0 0 0 7.41.34 16.91 16.91 0 0 0 -1.17-2l4.44-.83a18.11 18.11 0 0 0 .71 2.42 31.59 31.59 0 0 0 4.81-1.17l.65 3.45a37.29 37.29 0 0 1 -4.16 1c.15.39.33.78.49 1.14l.31.73a29.08 29.08 0 0 0 4.55-1.25zm-14.25 4.53a8 8 0 0 0 -.6 2.44c0 1.38.91 2.39 4.06 2.39a41 41 0 0 0 7.07-.57l-.13 4a44.83 44.83 0 0 1 -6.84.52c-5 0-8.06-1.67-8.06-5.46a13.37 13.37 0 0 1 .65-3.64z"/><path d="m154 59.76c1.72-.52 6.14-2 9.31-2 4.32 0 7.1 2.55 7.1 6.68 0 4.47-3.72 8-12.58 8.58l-1.67-3.85c6-.15 10.09-1.69 10.09-4.81 0-1.76-1.3-3-3.33-3-2.88 0-7.72 2-10.24 3.09l-1.59-4.05c.73-.07 2.13-.4 2.91-.64z"/><path d="m194.85 56.9c-.91.54-1.85 1-2.89 1.56a69.91 69.91 0 0 0 -6.81 3.54c-2 1.3-3.43 2.68-3.43 4.37s1.63 2.5 4.94 2.5a43.86 43.86 0 0 0 8.5-1v4.5a49 49 0 0 1 -8.35.65c-5.3 0-9.39-1.43-9.39-6.19 0-2.94 1.82-5 4.19-6.84-1.2-2.21-2.39-4.83-3.54-7.54l3.93-1.53a54.87 54.87 0 0 0 3 6.86c1.9-1.09 3.85-2.11 5-2.76a18.06 18.06 0 0 0 2.68-1.74z"/><path d="m222.25 60.17a26.9 26.9 0 0 1 -3.74 1c.59 1.25 1.27 2.66 2 4.09l-1.83 2.34c-1.5-.32-4.18-.73-6-.94l.34-3 2.44.2c-.33-.75-.62-1.45-.88-2.08a69 69 0 0 1 -11.21.13l-.15-3.56a53.13 53.13 0 0 0 9.95.11l-.15-.39-.68-1.56a52.74 52.74 0 0 1 -8.73-.13l-.21-3.54a50.93 50.93 0 0 0 7.41.34 16.91 16.91 0 0 0 -1.17-2l4.44-.83a18.11 18.11 0 0 0 .71 2.42 31.59 31.59 0 0 0 4.81-1.17l.65 3.45a37.29 37.29 0 0 1 -4.16 1c.15.39.33.78.49 1.14l.31.73a29.08 29.08 0 0 0 4.55-1.25zm-14.25 4.53a8 8 0 0 0 -.6 2.44c0 1.38.91 2.39 4.06 2.39a41 41 0 0 0 7.07-.57l-.13 4a44.83 44.83 0 0 1 -6.84.52c-5 0-8.06-1.67-8.06-5.46a13.37 13.37 0 0 1 .65-3.64z"/><path d="m246.85 56.9c-.91.54-1.85 1-2.89 1.56a69.91 69.91 0 0 0 -6.81 3.54c-2 1.3-3.43 2.68-3.43 4.37s1.63 2.5 4.94 2.5a43.86 43.86 0 0 0 8.5-1v4.5a49 49 0 0 1 -8.35.65c-5.3 0-9.39-1.43-9.39-6.19 0-2.94 1.82-5 4.19-6.84-1.2-2.21-2.39-4.83-3.54-7.54l3.93-1.53a54.87 54.87 0 0 0 3 6.86c1.9-1.09 3.85-2.11 5-2.76a18.06 18.06 0 0 0 2.68-1.74z"/><path d="m274.15 60.15v1.92h2.36v3.46h-2.36v4.7c0 1.8-.32 2.81-1.48 3.39a11 11 0 0 1 -4.66.64 13.84 13.84 0 0 0 -1.12-3.74h3s.54-.08.54-.41v-4.58h-4.43a21.41 21.41 0 0 1 2.57 3.33l-3 2a22.66 22.66 0 0 0 -2.84-4l2-1.27h-2.7v-1.3l-2 .62v9.47h-3.46v-8.51c-1.3.39-2.55.75-3.66 1.06l-.89-3.61c1.28-.26 2.84-.65 4.55-1.09v-4.32h-1.35a22.61 22.61 0 0 1 -.88 3 22.1 22.1 0 0 0 -2.63-1.72 32.86 32.86 0 0 0 1.33-8.27l3.12.52c-.08.94-.19 1.9-.32 2.86h.73v-4.7h3.46v4.7h1.97v2.34h5.46v-1.59h-4.46v-3.41h4.37v-2h3.75v2h4.55v3.41h-4.55v1.61h5.67v3.49zm-3.75 0h-8.92v-2.24h-1.4v3.38l2.05-.55.21 1.33h8.06z"/><path d="m302.8 68.36h-6.68a64.74 64.74 0 0 1 6.18 3.33l-3.53 2.52a52.35 52.35 0 0 0 -6.89-4.11l1.9-1.74h-6.95l2.4 1.64a33.05 33.05 0 0 1 -8.14 4.26 30.45 30.45 0 0 0 -3-2.72 28.1 28.1 0 0 0 6.73-3.18h-6.62v-3.56h2.55v-12.27h5.3v-3h3.51v3h1.77v-3h3.59v3h5.54v12.27h2.34zm-18.41-12.36v2.63h1.66v-2.63zm0 8.79h1.66v-2.69h-1.66zm5.17-8.79v2.63h1.77v-2.63zm1.77 6.09h-1.77v2.7h1.77zm3.59-6.09v2.63h1.72v-2.63zm0 8.79h1.72v-2.69h-1.72z"/><path d="m313.74 50.94a43.3 43.3 0 0 1 -2.34 5.06v18.26h-3.84v-12.4c-.45.55-.91 1.07-1.38 1.54a27.37 27.37 0 0 0 -2.19-4 26.36 26.36 0 0 0 6-9.64zm15.14 8h-2.66v10.98c0 2.26-.49 3.23-1.89 3.8s-3.51.65-6.43.62a13.48 13.48 0 0 0 -1.43-3.74c1.93.1 4.27.1 4.92.08s.91-.21.91-.78v-10.9h-9.6v-3.85h9.6v-5.25h3.92v5.25h2.66zm-12.15 9.07a59.55 59.55 0 0 0 -3.12-6.14l3.39-1.52c1.06 1.82 2.65 4.32 3.38 5.88z"/><path d="m352.67 68.57c0 1.12.05 3.87.05 3.87h-4.37v-1.37h-11.54v1.37h-4.35s.08-2.49.08-3.92v-12.64c0-.83 0-2-.05-2.83 1.07 0 2.24.05 3 .05h14.51 2.73c-.05.86-.05 1.93-.05 2.81zm-15.89-11.44v9.87h11.65v-9.87z"/><path d="m357.74 59.37c1 .07 3.22.18 4.49.18h13.77c1.17 0 2.44-.13 3.2-.18v5c-.68 0-2.13-.15-3.2-.15h-13.77c-1.48 0-3.43.07-4.49.15z"/><path d="m403.24 59.24c.54 0 1.92-.11 2.52-.16v4c-.78 0-1.69-.1-2.45-.1h-6.42a13.69 13.69 0 0 1 -6.65 10.58l-4-2.71c3.84-1.74 5.85-4.42 6.47-7.87h-6.81c-.78 0-1.8.05-2.5.1v-4a24.6 24.6 0 0 0 2.47.16h7v-3.1c-2.42.18-5 .29-6.6.31l-1-3.61a60.67 60.67 0 0 0 8.94-.42 25.26 25.26 0 0 0 6.48-1.61l2.57 3.46c-1.06.26-1.84.47-2.31.57-1.22.31-2.55.57-3.93.78v3.62z"/><path d="m428.77 55.1a19.16 19.16 0 0 0 2.86-.21v4.29c-1.07-.1-2.26-.1-2.86-.1h-3.23c-.49 6.63-3.06 11.41-7.9 14.43l-4.24-2.83a10.84 10.84 0 0 0 2.65-1.56c2.81-2.19 4.66-5.26 5.1-10h-4.84a22.75 22.75 0 0 1 -4.13 5.41l-3.95-2.39a20.45 20.45 0 0 0 4.44-5.23 17.58 17.58 0 0 0 1.54-3.51 12 12 0 0 0 .62-3l4.86 1c-.33.7-.72 1.72-1 2.29s-.36.94-.57 1.48z"/><path d="m458.85 49.62v.13a16.2 16.2 0 0 0 -5.15 12.25 16.23 16.23 0 0 0 5.15 12.22v.13h-8.27v-24.73z"/><path d="m474.66 67h-2.16v4.84h-4.32v-4.84h-8.11v-3.2l6.74-11.31h5.69v11h2.16zm-6.48-3.51v-2.82c0-1.23.13-3.07.19-4.29h-.11c-.49 1.09-1 2.21-1.56 3.3l-2.21 3.82z"/><path d="m479.91 71.67a2.6 2.6 0 0 1 -2.76-2.61 2.67 2.67 0 0 1 2.89-2.6c2 0 3.15 1.62 3.15 4.32 0 3.35-1.95 5.88-5.54 7l-.94-2.47c2.24-.78 3.43-2.16 3.43-3.61z"/><path d="m485.11 69.53 2.11-2.91a5.88 5.88 0 0 0 4 1.85 2.75 2.75 0 0 0 3.05-3 2.7 2.7 0 0 0 -2.84-3 4.3 4.3 0 0 0 -2.73.94l-2-1.33.5-9.57h10.8v3.85h-6.89l-.29 3.28a4.82 4.82 0 0 1 2-.39c3.28 0 6 1.92 6 6.11a6.67 6.67 0 0 1 -7 6.86 9.21 9.21 0 0 1 -6.71-2.69z"/><path d="m501.36 62.07c0-6.66 2.76-9.93 6.84-9.93s6.86 3.33 6.86 9.93-2.78 10.14-6.86 10.14-6.84-3.48-6.84-10.14zm9.33 0c0-5.28-1.11-6.37-2.49-6.37s-2.47 1.09-2.47 6.37 1.09 6.55 2.47 6.55 2.49-1.24 2.49-6.55z"/><path d="m517.19 62.07c0-6.66 2.76-9.93 6.84-9.93s6.87 3.33 6.87 9.93-2.79 10.14-6.9 10.14-6.81-3.48-6.81-10.14zm9.34 0c0-5.28-1.12-6.37-2.5-6.37s-2.47 1.09-2.47 6.37 1.09 6.55 2.47 6.55 2.5-1.24 2.5-6.55z"/><path d="m562.77 70.05c0 1.93-.39 2.94-1.58 3.57s-2.81.7-5.13.7a13 13 0 0 0 -1.35-3.77c1.35.1 3.07.08 3.56.08s.68-.16.68-.63v-5.36h-14.77v9.65h-3.79v-23.09h22.38zm-18.59-9.15h5.31v-5.9h-5.31zm14.77 0v-5.9h-5.69v5.9z"/><path d="m573.38 74.32h-8.27v-.13a16.2 16.2 0 0 0 5.15-12.19 16.17 16.17 0 0 0 -5.15-12.22v-.13h8.27z"/><path d="m51 111.27c-.25-.3-.59-.69-.95-1.08v3.59h-2.64v-3.16a12.13 12.13 0 0 1 -1.95 2.11 11.42 11.42 0 0 0 -1.79-2 11.81 11.81 0 0 0 3.23-3.33h-2.64v-2.3h3.15v-1.1h-3.21v-2.24h1.54a7.5 7.5 0 0 0 -.47-1.71l1-.25h-1.84v-2.23h3v-1.57h2.68v1.61h3v2.22h-1.57l.81.16c-.32.7-.57 1.33-.8 1.8h1.64v2.21h-3.1v1.16h2.91v2.3h-2.91c.69.44 2.13 1.54 2.53 1.84zm-3.51-11.48a6.75 6.75 0 0 1 .51 1.73l-.83.23h3.25l-1.14-.23c.18-.49.41-1.15.56-1.73zm8.81 2.21h5.7v2.55h-1.61v9.19h-2.68v-9.19h-1.41c0 2.81-.55 6.78-2.9 9.3a6.36 6.36 0 0 0 -2-1.88c2.07-2.29 2.26-5.52 2.26-8.09v-6.67l1.5.42a21.78 21.78 0 0 0 4.62-1.69l2.2 2a28.89 28.89 0 0 1 -5.7 1.77z"/><path d="m66 104.89a12 12 0 0 0 -3-1.9l1.52-2a12.36 12.36 0 0 1 3.15 1.71zm2.24 2.58c-.72 2.07-1.56 4.2-2.41 6.14l-2.51-1.5a59 59 0 0 0 2.68-6.11zm-1.31-7.66a13.3 13.3 0 0 0 -3.08-2l1.54-2a13.08 13.08 0 0 1 3.19 1.79zm12.21 10.19h-2.54a6.8 6.8 0 0 0 4 1.47 8.92 8.92 0 0 0 -1.6 2.33 7 7 0 0 1 -4.62-2.55c-.87 1.14-2.35 2-4.84 2.55a7.17 7.17 0 0 0 -1.39-2.17 7 7 0 0 0 3.85-1.63h-2.19v-1.67l-.41.29a12.18 12.18 0 0 0 -2-2 8.26 8.26 0 0 0 2.45-2h-1.8v-2.2h3.17l.23-.55h-2.4v-2h3l.12-.49h-3.4v-2.17h3.74q.09-.73.15-1.5l2.68.23c0 .44-.09.85-.15 1.27h5.13v2.13h-5.43l-.12.49h5.34v2h-2.64c.08.19.13.36.23.55h3.21v2.2h-1.91a6.83 6.83 0 0 0 2.28 1.82 9.53 9.53 0 0 0 -1.75 2.19 4.37 4.37 0 0 1 -.4-.25zm-6.14-2.09c0-.21 0-.42.07-.65h-1.41v-.59a10.55 10.55 0 0 1 -1.26 1.24zm.11-3.31c-.11.21-.23.4-.34.59h3.55a5.43 5.43 0 0 1 -.3-.59zm1.16-2.75c-.06.19-.13.36-.19.55h1.08c0-.19-.11-.36-.17-.55zm1.48 5.41c0 .23 0 .44-.07.65h2.82a8.22 8.22 0 0 1 -1.28-1.29v.64z"/><path d="m98.12 103.46a19.21 19.21 0 0 1 -2.73.7c.43.92.93 1.94 1.48 3l-1.33 1.71c-1.1-.23-3.06-.53-4.35-.69l.25-2.16 1.78.15c-.25-.55-.45-1.06-.64-1.52a50.23 50.23 0 0 1 -8.19.09l-.12-2.6a39 39 0 0 0 7.28.08l-.11-.29-.5-1.14a37.25 37.25 0 0 1 -6.38-.09l-.15-2.59a36.48 36.48 0 0 0 5.41.25 11.5 11.5 0 0 0 -.82-1.49l3.24-.61a14.64 14.64 0 0 0 .49 1.74 22.79 22.79 0 0 0 3.51-.86l.48 2.53a25.59 25.59 0 0 1 -3 .74c.11.29.24.57.36.84l.23.53a23.14 23.14 0 0 0 3.32-.91zm-10.39 3.31a5.77 5.77 0 0 0 -.44 1.78c0 1 .67 1.75 3 1.75a29.58 29.58 0 0 0 5.16-.42l-.09 2.91a32.44 32.44 0 0 1 -5 .38c-3.62 0-5.89-1.22-5.89-4a9.67 9.67 0 0 1 .48-2.66z"/><path d="m105.23 103.16a26.91 26.91 0 0 1 6.8-1.45c3.15 0 5.19 1.87 5.19 4.89 0 3.26-2.72 5.87-9.2 6.27l-1.21-2.82c4.4-.11 7.37-1.23 7.37-3.51a2.18 2.18 0 0 0 -2.43-2.17c-2.11 0-5.65 1.47-7.49 2.26l-1.16-3a20.57 20.57 0 0 0 2.13-.47z"/><path d="m135.1 101.07c-.67.4-1.35.76-2.11 1.14a51.17 51.17 0 0 0 -5 2.62c-1.46 1-2.51 2-2.51 3.19s1.2 1.82 3.61 1.82a32.12 32.12 0 0 0 6.21-.72v3.29a36.36 36.36 0 0 1 -6.1.47c-3.88 0-6.86-1-6.86-4.52 0-2.14 1.33-3.68 3.06-5-.87-1.62-1.75-3.54-2.58-5.51l2.86-1.16a40 40 0 0 0 2.26 5c1.39-.79 2.82-1.54 3.63-2a14.21 14.21 0 0 0 2-1.27z"/><path d="m155.12 103.46a19.21 19.21 0 0 1 -2.73.7c.43.92.93 1.94 1.48 3l-1.33 1.71c-1.1-.23-3.06-.53-4.35-.69l.25-2.16 1.78.15c-.25-.55-.45-1.06-.64-1.52a50.23 50.23 0 0 1 -8.19.09l-.12-2.6a39 39 0 0 0 7.28.08l-.11-.29-.5-1.14a37.25 37.25 0 0 1 -6.38-.09l-.15-2.59a36.48 36.48 0 0 0 5.41.25 11.5 11.5 0 0 0 -.85-1.48l3.24-.61a14.64 14.64 0 0 0 .52 1.77 22.79 22.79 0 0 0 3.51-.86l.48 2.53a25.59 25.59 0 0 1 -3 .74c.11.29.24.57.36.84l.23.53a23.14 23.14 0 0 0 3.32-.91zm-10.39 3.31a5.77 5.77 0 0 0 -.44 1.78c0 1 .67 1.75 3 1.75a29.58 29.58 0 0 0 5.16-.42l-.09 2.91a32.44 32.44 0 0 1 -5 .38c-3.62 0-5.89-1.22-5.89-4a9.67 9.67 0 0 1 .48-2.66z"/><path d="m173.1 101.07c-.67.4-1.35.76-2.11 1.14a51.17 51.17 0 0 0 -5 2.62c-1.46 1-2.51 2-2.51 3.19s1.2 1.82 3.61 1.82a32.12 32.12 0 0 0 6.21-.72v3.29a36.36 36.36 0 0 1 -6.1.47c-3.88 0-6.86-1-6.86-4.52 0-2.14 1.33-3.68 3.06-5-.87-1.62-1.75-3.54-2.58-5.51l2.86-1.16a40 40 0 0 0 2.26 5c1.39-.79 2.82-1.54 3.63-2a14.21 14.21 0 0 0 2-1.27z"/><path d="m187.39 100.73v1.65h6v6.31c0 1.27-.27 2-1.14 2.45a8.27 8.27 0 0 1 -3.4.45 10 10 0 0 0 -.91-2.71c.76.05 1.88.05 2.14.05s.42-.07.42-.3v-3.55h-3.07v8.73h-2.93v-8.73h-2.76v6.47h-2.74v-9.17h5.55v-1.65h-7.28v-2.73h7.24v-2.33h3v2.33h7.41v2.7z"/><path d="m206.56 105.63c-.12.23-.25.45-.38.66h7.52s0 .61-.06.91c-.24 3.59-.55 5.15-1.06 5.74a2 2 0 0 1 -1.37.72 11.11 11.11 0 0 1 -2 .08 5.39 5.39 0 0 0 -.45-1.84 10 10 0 0 1 -1.84 2 9.14 9.14 0 0 0 -2-1.52 10 10 0 0 0 3.4-3.91h-.67a14.83 14.83 0 0 1 -4.36 4.58 7.86 7.86 0 0 0 -1.81-1.62 11.57 11.57 0 0 0 3.61-3h-.67a12 12 0 0 1 -2 1.67 15.76 15.76 0 0 0 -1.41-1.33c-1.48.76-3 1.5-4.27 2.13l-1-2.79c.61-.21 1.37-.5 2.21-.82v-5h-1.75v-2.6h1.8v-3.69h2.56v3.65h1.6v2.6h-1.6v4l1.27-.53.42 1.66a9.7 9.7 0 0 0 1.58-1.75h-1.83v-2.3h12v2.3zm6.19-2.83h-9.21v-6.61h9.21zm-2.55-4.75h-4.2v.57h4.23zm0 2.32h-4.2v.56h4.23zm.52 8.07a16.3 16.3 0 0 1 -1.73 3.19h.87a.59.59 0 0 0 .55-.23c.23-.25.44-1.08.61-3z"/><path d="m217.73 98.62c1.77-.16 4.62-.38 8.05-.69 1.89-.15 4.11-.26 5.48-.32v2.93a22.29 22.29 0 0 0 -3.6.22 5.24 5.24 0 0 0 -3.79 4.89c0 2.77 2.61 3.85 5.86 4l-1.07 3.18c-4.2-.33-7.79-2.61-7.79-6.62a7.68 7.68 0 0 1 2.38-5.49c-1.62.17-4.92.55-7.18 1l-.29-3.1c.77.07 1.59.04 1.95 0zm12.4 6-1.69.74a14.82 14.82 0 0 0 -1.44-2.6l1.65-.69a25 25 0 0 1 1.48 2.59zm2.25-1-1.67.8a17.66 17.66 0 0 0 -1.54-2.53l1.63-.74c.49.73 1.2 1.85 1.58 2.52z"/><path d="m247 106.79a8.58 8.58 0 0 1 -.95 3.09 19.89 19.89 0 0 0 6.26 1.41 10.52 10.52 0 0 0 -1.62 2.45 17.11 17.11 0 0 1 -6.25-1.88 10.05 10.05 0 0 1 -3.69 1.9 11.48 11.48 0 0 0 -1.72-2.3 8.7 8.7 0 0 0 3.17-1.24 11.9 11.9 0 0 1 -2.11-2.67l2.24-.67a7.61 7.61 0 0 0 1.41 1.6 6.52 6.52 0 0 0 .53-1.69h-4.07v-5.79h4.2v-1h-4.52v-1.74c-.28.62-.61 1.23-.95 1.84v13.71h-2.62v-9.81a15.14 15.14 0 0 1 -1.27 1.43 16.9 16.9 0 0 0 -1.41-2.87 19.58 19.58 0 0 0 4.45-6.9l2.56.84c-.13.32-.26.62-.4 1h4.16v-1.6h2.74v1.58h4.86v2.52h-4.8v1h4.37v5.78zm-4.31-2.23h1.71v-1.33h-1.71zm4.45-1.33v1.33h1.73v-1.33z"/><path d="m269.79 110.7c0 1.37-.29 2.09-1.12 2.51a8.59 8.59 0 0 1 -3.75.47 9.62 9.62 0 0 0 -.87-2.64c.93.08 2.17.06 2.51.06s.47-.12.47-.44v-2.28h-3.38v5.15h-2.79v-5.15h-3.42a10.77 10.77 0 0 1 -2.41 5.53 11.56 11.56 0 0 0 -2.19-1.79c2.07-2.26 2.22-5.68 2.22-8.35v-6.77h14.73zm-8.93-4.92v-1.88h-3.06c0 .59 0 1.21-.06 1.88zm-3.06-6.17v1.72h3.06v-1.72zm9.23 0h-3.38v1.72h3.35zm0 6.17v-1.88h-3.38v1.88z"/><path d="m274.73 98.62c1.77-.16 4.62-.38 8-.69 1.89-.15 4.11-.26 5.48-.32v2.93a22.29 22.29 0 0 0 -3.6.22 5.24 5.24 0 0 0 -3.79 4.89c0 2.77 2.61 3.85 5.86 4l-1.07 3.18c-4.2-.33-7.79-2.61-7.79-6.62a7.68 7.68 0 0 1 2.38-5.49c-1.62.17-4.92.55-7.18 1l-.29-3.1c.82.07 1.64.04 2 0zm12.4 6-1.69.74a14.82 14.82 0 0 0 -1.44-2.6l1.65-.69a25 25 0 0 1 1.48 2.59zm2.25-1-1.67.8a17.66 17.66 0 0 0 -1.54-2.53l1.63-.74c.49.73 1.2 1.85 1.58 2.52z"/><path d="m307.12 103.46a19.21 19.21 0 0 1 -2.73.7c.43.92.93 1.94 1.48 3l-1.33 1.71c-1.1-.23-3.06-.53-4.35-.69l.25-2.16 1.78.15c-.25-.55-.45-1.06-.64-1.52a50.23 50.23 0 0 1 -8.19.09l-.12-2.6a39 39 0 0 0 7.28.08l-.11-.29-.5-1.14a37.25 37.25 0 0 1 -6.38-.09l-.15-2.59a36.48 36.48 0 0 0 5.41.25 11.5 11.5 0 0 0 -.85-1.48l3.24-.61a14.64 14.64 0 0 0 .52 1.77 22.79 22.79 0 0 0 3.51-.86l.48 2.53a25.59 25.59 0 0 1 -3 .74c.11.29.24.57.36.84l.23.53a23.14 23.14 0 0 0 3.32-.91zm-10.39 3.31a5.77 5.77 0 0 0 -.44 1.78c0 1 .67 1.75 3 1.75a29.58 29.58 0 0 0 5.16-.42l-.09 2.91a32.44 32.44 0 0 1 -5 .38c-3.62 0-5.89-1.22-5.89-4a9.67 9.67 0 0 1 .48-2.66z"/><path d="m324.43 99.05c-.49.31-1 .59-1.44.92-1.07.72-2.72 2.07-3.74 2.86a6.62 6.62 0 0 1 1.31-.11c3.23 0 5.77 2.07 5.77 4.9s-2.13 5.51-7 5.51c-2.66 0-4.86-1.23-4.86-3.3a3.45 3.45 0 0 1 3.65-3.2 3.86 3.86 0 0 1 4.1 3.12 2.49 2.49 0 0 0 1.1-2.17c0-1.61-1.65-2.62-3.72-2.62-2.76 0-4.73 1.66-6.54 3.86l-2.06-2.15c1.22-1 3.4-2.81 4.52-3.72s2.79-2.22 3.71-3c-1 0-2.89.09-3.9.17-.57 0-1.23.09-1.69.17l-.09-2.94a17 17 0 0 0 1.91.11c1 0 4.77-.06 5.89-.15a10 10 0 0 0 1.65-.31zm-4.82 11.46c-.1-1.05-.67-1.71-1.47-1.71-.6 0-1 .36-1 .74 0 .59.63 1 1.58 1 .34.01.62-.01.89-.03z"/><path d="m45 146.26h3v-8h-2.6v-2.09a9.81 9.81 0 0 0 3.5-1.27h2.49v11.4h2.54v2.7h-8.93z"/><path d="m58.42 148.86a1.9 1.9 0 0 1 -2-1.9 2 2 0 0 1 2.11-1.9c1.48 0 2.3 1.18 2.3 3.15a5.15 5.15 0 0 1 -4.05 5.09l-.68-1.8c1.63-.57 2.51-1.58 2.51-2.64z"/><path d="m62.52 141.85c0-4.86 2-7.26 5-7.26s5 2.43 5 7.26-2 7.41-5 7.41-5-2.55-5-7.41zm6.82 0c0-3.86-.82-4.66-1.82-4.66s-1.81.8-1.81 4.66.8 4.79 1.81 4.79 1.82-.92 1.82-4.79z"/><path d="m74.09 141.85c0-4.86 2-7.26 5-7.26s5 2.43 5 7.26-2 7.41-5 7.41-5-2.55-5-7.41zm6.82 0c0-3.86-.82-4.66-1.82-4.66s-1.81.8-1.81 4.66.8 4.79 1.81 4.79 1.82-.92 1.82-4.79z"/><path d="m85.66 141.85c0-4.86 2-7.26 5-7.26s5 2.43 5 7.26-2 7.41-5 7.41-5-2.55-5-7.41zm6.82 0c0-3.86-.81-4.66-1.82-4.66s-1.81.8-1.81 4.66.8 4.79 1.81 4.79 1.82-.92 1.82-4.79z"/><path d="m119 147.68c0 1.41-.29 2.15-1.16 2.6a8.31 8.31 0 0 1 -3.74.52 9.92 9.92 0 0 0 -1-2.76c1 .08 2.24.06 2.6.06s.49-.12.49-.46v-3.91h-10.81v7.05h-2.77v-16.87h16.39zm-13.62-6.68h3.88v-4.35h-3.88zm10.79 0v-4.35h-4.17v4.35z"/><path d="m125.94 141.85c0-4.64 2.62-7.26 6.48-7.26s6.48 2.64 6.48 7.26-2.62 7.41-6.48 7.41-6.48-2.78-6.48-7.41zm9.5 0c0-2.74-1.16-4.35-3-4.35s-3 1.61-3 4.35 1.14 4.48 3 4.48 3-1.73 3-4.48z"/><path d="m141.52 134.86h9v2.81h-5.62v3.1h4.83v2.83h-4.83v5.4h-3.4z"/><path d="m153 134.86h9v2.81h-5.6v3.1h4.82v2.83h-4.82v5.4h-3.4z"/><path d="m174.5 134.42h3.78v3.44h-.95v1.71h-2.88v.55h2.62v1.79h-2.62v.55h3.63v2h-9.85v-2h3.67v-.55h-2.62v-1.79h2.62v-.55h-2.9v-1.71h-.87v-3.44h3.67v-1.52h2.67zm-5.32 10.58h8.12v5.68h-2.61v-.68h-3v.79h-2.47zm6.56-8.49h-5.17v1.2h1.33v-.91h2.55v.91h1.29zm-4.09 10.49v1h3v-1zm9.85-1.45h-2.61v-10.79h2.61zm4-12.42v14.44c0 1.46-.25 2.2-1.08 2.64a8.27 8.27 0 0 1 -3.71.55 10.59 10.59 0 0 0 -.87-2.83c1 .06 2.15.06 2.53.06s.45-.12.45-.44v-14.44z"/><path d="m196.66 141.87s0 .76-.08 1.12c-.28 4-.63 5.93-1.33 6.7a2.83 2.83 0 0 1 -2.09 1 22 22 0 0 1 -3 .08 6.55 6.55 0 0 0 -1-2.91c1.09.1 2.28.12 2.81.12a1.36 1.36 0 0 0 .88-.23c.34-.29.59-1.31.78-3.31h-3.21l-.17.86-2.78-.44a65.42 65.42 0 0 0 1.16-7.14h5.11v-1.72h-5.47v-2.57h8.21v6.8h-5.38c-.09.55-.17 1.08-.25 1.62zm6.36-8.78v17.71h-2.79v-17.71z"/><path d="m220.82 141.7a10.56 10.56 0 0 0 3.37 2.3 9.23 9.23 0 0 0 -1.81 2.26 12.58 12.58 0 0 1 -1.84-1.13c-.19 2.78-.48 4.15-1 4.7a2.33 2.33 0 0 1 -1.63.85 17.25 17.25 0 0 1 -2.43.08 6.21 6.21 0 0 0 -.8-2.59c.74.06 1.44.08 1.82.08a.85.85 0 0 0 .67-.23 5.53 5.53 0 0 0 .53-2.52h-2.47c-.5 2.48-1.79 4.27-6 5.33a7.43 7.43 0 0 0 -1.52-2.37c3.12-.63 4.15-1.6 4.58-3h-2.58v-.61a15.22 15.22 0 0 1 -2.11 1.29 14.75 14.75 0 0 0 -1.71-2.24 11.37 11.37 0 0 0 3.29-2.24h-2.76v-2.49h4.68c.2-.38.41-.76.6-1.16h-4v-2.41h1.63a13.15 13.15 0 0 0 -.91-1.94l2.28-.82a12.08 12.08 0 0 1 1.31 2.58l-.48.18h1.07a26.26 26.26 0 0 0 .66-2.95l2.91.5c-.19.83-.38 1.65-.63 2.45h2-.05a16.12 16.12 0 0 0 1.23-2.85l2.74.78c-.4.76-.8 1.48-1.18 2.09h2.28v2.41h-4.2a12.46 12.46 0 0 0 .57 1.16h4.66v2.49zm-8 0a16.56 16.56 0 0 1 -1.05 1.33h6.59c-.32-.42-.64-.86-.93-1.33zm1.93-3.65c-.17.4-.34.78-.51 1.16h1.92c-.15-.38-.3-.76-.44-1.16z"/><path d="m232.07 133.72a30.53 30.53 0 0 1 -1.71 3.7v13.34h-2.81v-9.06a13.7 13.7 0 0 1 -1 1.12 21.19 21.19 0 0 0 -1.6-2.93 19.25 19.25 0 0 0 4.39-7zm11.06 5.87h-1.94v8c0 1.66-.36 2.36-1.38 2.78a13.41 13.41 0 0 1 -4.7.45 9.9 9.9 0 0 0 -1-2.73c1.4.08 3.11.08 3.59.06s.66-.16.66-.57v-8h-7v-2.8h7v-3.78h2.87v3.83h1.94zm-8.87 6.63a46.6 46.6 0 0 0 -2.28-4.49l2.45-1.14c.78 1.33 1.94 3.16 2.47 4.3z"/><path d="m260.21 140.46a19.21 19.21 0 0 1 -2.73.7c.43.92.93 1.94 1.48 3l-1.33 1.71c-1.1-.23-3.06-.53-4.35-.69l.24-2.16 1.79.15c-.25-.55-.46-1.06-.65-1.52a50.09 50.09 0 0 1 -8.18.09l-.12-2.6a39 39 0 0 0 7.28.08l-.12-.29-.49-1.14a37.25 37.25 0 0 1 -6.38-.09l-.15-2.59a36.48 36.48 0 0 0 5.41.25 10.46 10.46 0 0 0 -.86-1.48l3.25-.61a14.64 14.64 0 0 0 .52 1.77 22.79 22.79 0 0 0 3.51-.86l.48 2.53a26.07 26.07 0 0 1 -3 .74c.11.29.24.57.36.84l.23.53a23.14 23.14 0 0 0 3.32-.91zm-10.39 3.31a5.77 5.77 0 0 0 -.44 1.78c0 1 .67 1.75 3 1.75a29.67 29.67 0 0 0 5.16-.42l-.09 2.91a32.55 32.55 0 0 1 -5 .38c-3.63 0-5.89-1.22-5.89-4a9.67 9.67 0 0 1 .48-2.66z"/><path d="m278.47 139.78c.4 0 1.41-.08 1.84-.12v3c-.57 0-1.23-.08-1.78-.08h-4.7a10 10 0 0 1 -4.86 7.73l-2.94-2a7.55 7.55 0 0 0 4.73-5.76h-5c-.57 0-1.31 0-1.82.08v-3a17.36 17.36 0 0 0 1.8.12h5.13v-2.26c-1.77.13-3.63.21-4.82.23l-.73-2.65a45.84 45.84 0 0 0 6.54-.3 18.25 18.25 0 0 0 4.73-1.18l1.88 2.53-1.69.42c-.89.22-1.86.42-2.87.57v2.64z"/><path d="m297.13 136.76a15.06 15.06 0 0 0 2.09-.15v3.13c-.78-.08-1.65-.08-2.09-.08h-2.36c-.36 4.85-2.24 8.34-5.77 10.55l-3.1-2.07a7.94 7.94 0 0 0 1.94-1.14 9.79 9.79 0 0 0 3.72-7.34h-3.56a16.88 16.88 0 0 1 -3 4l-2.89-1.75a14.9 14.9 0 0 0 3.25-3.82 13.47 13.47 0 0 0 1.12-2.57 8.74 8.74 0 0 0 .46-2.18l3.55.7c-.25.52-.53 1.26-.7 1.67s-.27.69-.42 1.09z"/><path d="m307.79 142.91-2.79 1.09a35.79 35.79 0 0 0 -1.75-4.43l2.77-1a46.65 46.65 0 0 1 1.77 4.34zm9.71-3.84c-.27.75-.4 1.2-.54 1.66a15.54 15.54 0 0 1 -2.54 5.39 15.12 15.12 0 0 1 -6.42 4.88l-2.41-2.47a12.92 12.92 0 0 0 6.36-3.95 12.7 12.7 0 0 0 2.32-6.52zm-5.5 2.64-2.76 1a32.93 32.93 0 0 0 -1.58-4.26l2.74-.89c.39.79 1.32 3.26 1.6 4.15z"/><path d="m335 144.93a58 58 0 0 0 -6.53-2.72v4.88c0 .51.11 2 .21 2.87h-3.61a21.88 21.88 0 0 0 .23-2.87v-10.85a13.51 13.51 0 0 0 -.23-2.47h3.59a21.82 21.82 0 0 0 -.19 2.47v2.61a64.86 64.86 0 0 1 7.85 2.86z"/><path d="m46.25 178.77a12.55 12.55 0 0 1 3.75-9.17l2.18.93a11.9 11.9 0 0 0 0 16.49l-2.18.98a12.56 12.56 0 0 1 -3.75-9.23z"/><path d="m68.71 179.32c.13 3 .4 5.25.87 5.53.19.12.31-.83.33-2.28a13.56 13.56 0 0 0 2 1.69c-.36 3.5-2.07 4.16-3.59 3-1.35-.85-1.86-3.91-2.09-8h-1.93v4.94l2.26-.55.36 2.41c-1.88.59-3.93 1.18-5.58 1.66l-1-2.62 1.31-.29v-4.81l-1.9.87a9.37 9.37 0 0 0 -.28-1.14l-.82.1v1.72l1.82-.6a24.88 24.88 0 0 1 1.09 3.21l-2.15.78a24.66 24.66 0 0 0 -.76-2.66v5.47h-2.38v-5.75a17.47 17.47 0 0 1 -1 4.39 13.18 13.18 0 0 0 -2.07-1 14.35 14.35 0 0 0 .87-4.39l2.21.38v-1.29l-2.51.28-.39-2.37 1.62-.09c.18-.27.39-.55.6-.84a17.62 17.62 0 0 0 -2.22-2.56l1.27-1.92.38.34a26 26 0 0 0 1.24-3.21l2.43.89c-.72 1.33-1.48 2.8-2.15 3.86q.23.26.42.51a30.62 30.62 0 0 0 1.58-2.91l2.24 1.07c-.76 1.14-1.62 2.37-2.49 3.55l1.86-.82a17.7 17.7 0 0 1 1.54 3.41v-8.17l1.31.41a30.76 30.76 0 0 0 6-1.8l2.15 2.11c-.8.3-1.65.59-2.55.83v4.05h3v2.6zm-10-1.69c-.15-.3-.29-.61-.44-.87-.24.32-.49.66-.74 1zm7.39-.91c0-1.1-.06-2.24-.08-3.42-.57.13-1.14.23-1.71.34v3.08z"/><path d="m87.88 176.78c.4 0 1.41-.08 1.84-.12v3c-.57 0-1.23-.08-1.78-.08h-4.69a10 10 0 0 1 -4.87 7.73l-2.94-2a7.55 7.55 0 0 0 4.73-5.76h-5c-.57 0-1.31 0-1.82.08v-3a17.36 17.36 0 0 0 1.8.12h5.15v-2.26c-1.76.13-3.63.21-4.82.23l-.73-2.65a45.84 45.84 0 0 0 6.54-.3 18.25 18.25 0 0 0 4.71-1.15l1.88 2.53-1.69.42c-.89.22-1.86.42-2.87.57v2.64z"/><path d="m106.54 173.76a15.06 15.06 0 0 0 2.09-.15v3.13c-.78-.08-1.65-.08-2.09-.08h-2.36c-.36 4.85-2.24 8.34-5.77 10.55l-3.1-2.07a7.94 7.94 0 0 0 1.94-1.14 9.79 9.79 0 0 0 3.72-7.34h-3.53a16.88 16.88 0 0 1 -3 4l-2.89-1.75a14.9 14.9 0 0 0 3.25-3.82 13.47 13.47 0 0 0 1.12-2.57 8.74 8.74 0 0 0 .46-2.18l3.55.7c-.25.52-.53 1.26-.7 1.67s-.27.69-.42 1.09z"/><path d="m117.2 179.91-2.81 1.09a34.29 34.29 0 0 0 -1.75-4.43l2.77-1a46.65 46.65 0 0 1 1.79 4.34zm9.71-3.84c-.27.75-.4 1.2-.53 1.66a15.75 15.75 0 0 1 -2.55 5.39 15.12 15.12 0 0 1 -6.44 4.85l-2.39-2.47a12.92 12.92 0 0 0 6.36-3.95 12.7 12.7 0 0 0 2.32-6.52zm-5.49 2.64-2.76 1a34.36 34.36 0 0 0 -1.57-4.26l2.73-.89c.38.79 1.31 3.26 1.6 4.15z"/><path d="m144.43 181.93a59 59 0 0 0 -6.54-2.72v4.88c0 .51.11 2 .21 2.87h-3.61a21.88 21.88 0 0 0 .23-2.87v-10.85a13.51 13.51 0 0 0 -.23-2.47h3.59a21.82 21.82 0 0 0 -.19 2.47v2.61a64.23 64.23 0 0 1 7.85 2.86z"/><path d="m165.84 169.75.68.68-17.36 17.37-.69-.69z"/><path d="m178.28 170.76c0 3.74.55 10.6 7.34 14.55a14.41 14.41 0 0 0 -2.23 2.43 15.65 15.65 0 0 1 -6.7-8.82 16.63 16.63 0 0 1 -6.75 8.86 19.15 19.15 0 0 0 -2.52-2.26c3.84-1.9 6.06-5.51 7-10.34l1.36.25c-.11-.65-.18-1.27-.24-1.86h-4.2v-2.81z"/><path d="m197.06 179.63c-.12.23-.25.45-.38.66h7.52s0 .61-.06.91c-.24 3.59-.55 5.15-1.06 5.74a2 2 0 0 1 -1.37.72 11.11 11.11 0 0 1 -2 .08 5.39 5.39 0 0 0 -.45-1.84 10 10 0 0 1 -1.84 2 9.14 9.14 0 0 0 -2-1.52 10 10 0 0 0 3.4-3.91h-.67a14.83 14.83 0 0 1 -4.36 4.58 7.86 7.86 0 0 0 -1.81-1.62 11.57 11.57 0 0 0 3.61-3h-.59a12 12 0 0 1 -2 1.67 15.76 15.76 0 0 0 -1.41-1.33c-1.48.76-3 1.5-4.27 2.13l-1-2.79c.61-.21 1.37-.5 2.21-.82v-5h-1.75v-2.6h1.75v-3.69h2.56v3.65h1.6v2.6h-1.6v4l1.27-.53.42 1.66a9.7 9.7 0 0 0 1.58-1.75h-1.86v-2.3h12.06v2.3zm6.19-2.83h-9.25v-6.61h9.21zm-2.55-4.75h-4.23v.57h4.23zm0 2.32h-4.23v.56h4.23zm.52 8.07a16.3 16.3 0 0 1 -1.73 3.19h.87a.59.59 0 0 0 .55-.23c.23-.25.44-1.08.61-3z"/><path d="m220.24 178.7a10.52 10.52 0 0 0 3.36 2.3 9.23 9.23 0 0 0 -1.81 2.26 12.58 12.58 0 0 1 -1.84-1.13c-.19 2.78-.47 4.15-1 4.7a2.33 2.33 0 0 1 -1.63.85 17.18 17.18 0 0 1 -2.43.08 6.07 6.07 0 0 0 -.8-2.59c.74.06 1.44.08 1.82.08a.85.85 0 0 0 .67-.23 5.39 5.39 0 0 0 .53-2.52h-2.47c-.49 2.48-1.79 4.27-6 5.33a7.61 7.61 0 0 0 -1.52-2.37c3.11-.63 4.14-1.6 4.57-3h-2.58v-.61a15.22 15.22 0 0 1 -2.11 1.29 14.75 14.75 0 0 0 -1.71-2.24 11.24 11.24 0 0 0 3.29-2.24h-2.76v-2.49h4.68c.21-.38.41-.76.61-1.16h-4v-2.41h1.63a13.15 13.15 0 0 0 -.91-1.94l2.28-.82a12.08 12.08 0 0 1 1.31 2.58l-.48.18h1.07a26.26 26.26 0 0 0 .66-2.95l2.91.5c-.19.83-.38 1.65-.63 2.45h2-.06a15.42 15.42 0 0 0 1.23-2.85l2.74.78c-.4.76-.8 1.48-1.18 2.09h2.32v2.41h-4.2a12.46 12.46 0 0 0 .57 1.16h4.66v2.49zm-8 0a14.58 14.58 0 0 1 -1.05 1.33h6.6a14.38 14.38 0 0 1 -.94-1.33zm1.94-3.65-.52 1.16h1.92c-.15-.38-.3-.76-.44-1.16z"/><path d="m239.6 175.07c-.67.4-1.35.76-2.11 1.14a51.17 51.17 0 0 0 -5 2.62c-1.46.95-2.51 2-2.51 3.19s1.2 1.82 3.61 1.82a32.12 32.12 0 0 0 6.21-.72v3.29a36.36 36.36 0 0 1 -6.1.47c-3.88 0-6.86-1-6.86-4.52 0-2.14 1.33-3.68 3.06-5-.87-1.62-1.75-3.54-2.58-5.51l2.86-1.16a40 40 0 0 0 2.26 5c1.39-.79 2.82-1.54 3.63-2a14.21 14.21 0 0 0 2-1.27z"/><path d="m249.92 171.42h3.78v3.44h-.95v1.71h-2.89v.55h2.62v1.79h-2.62v.55h3.63v2h-9.84v-2h3.66v-.55h-2.62v-1.79h2.62v-.55h-2.87v-1.71h-.87v-3.44h3.67v-1.52h2.68zm-5.32 10.58h8.11v5.68h-2.61v-.68h-3v.79h-2.5zm6.55-8.49h-5.15v1.2h1.33v-.91h2.55v.91h1.29zm-4.08 10.49v1h3v-1zm9.84-1.45h-2.61v-10.79h2.61zm4-12.42v14.44c0 1.46-.24 2.2-1.08 2.64a8.25 8.25 0 0 1 -3.7.55 11 11 0 0 0 -.88-2.83c1 .06 2.15.06 2.53.06s.45-.12.45-.44v-14.44z"/><path d="m272.07 178.87s0 .76-.08 1.12c-.28 4-.62 5.93-1.33 6.7a2.82 2.82 0 0 1 -2.09 1 22 22 0 0 1 -3 .08 6.43 6.43 0 0 0 -1-2.91c1.09.1 2.28.12 2.82.12a1.34 1.34 0 0 0 .87-.23c.34-.29.59-1.31.78-3.31h-3.21l-.17.86-2.78-.44a65.42 65.42 0 0 0 1.16-7.14h5.11v-1.72h-5.47v-2.57h8.21v6.8h-5.39c-.09.55-.17 1.08-.24 1.62zm6.36-8.78v17.71h-2.79v-17.71z"/><path d="m298.38 174.21a9.08 9.08 0 0 0 -.74 1.56 19.87 19.87 0 0 1 -3.28 6.23 18.33 18.33 0 0 1 -7.72 5.47l-2.73-2.47a15.29 15.29 0 0 0 7.69-4.67 12.21 12.21 0 0 0 2.51-4.75h-4.73a23.67 23.67 0 0 1 -4.79 4.54l-2.59-1.88a17.26 17.26 0 0 0 5.91-6 10 10 0 0 0 1-2.26l3.36 1.11a21.88 21.88 0 0 0 -1.17 1.88h3.06a7.31 7.31 0 0 0 1.88-.25z"/><path d="m301.63 176.87c.76.06 2.36.14 3.29.14h10.08c.85 0 1.78-.1 2.33-.14v3.63c-.49 0-1.55-.11-2.33-.11h-10.08c-1.08 0-2.51.05-3.29.11z"/><path d="m325.69 179.27a32.59 32.59 0 0 1 -3.69 5.33l-2.49-1.69a19.44 19.44 0 0 0 3.54-4.88zm4.42-2.59v8.63c0 1.16-.72 1.94-2.18 1.94a25.53 25.53 0 0 1 -3.31-.18l-.28-2.83a11.39 11.39 0 0 0 2.07.21c.47 0 .64-.15.66-.64s0-6.12 0-7.13h-4.56c-.57 0-1.4 0-1.95.08v-3a18.28 18.28 0 0 0 1.95.15h4.56v-1.27a11.65 11.65 0 0 0 -.17-1.83h3.4a14.71 14.71 0 0 0 -.21 1.85v1.25h4.56a2.28 2.28 0 1 1 .65 0l.93-.09v3c-.65-.06-1.48-.08-2-.08zm3.86 1.26a46.09 46.09 0 0 1 3.23 5l-2.7 1.48a38.64 38.64 0 0 0 -3-5.13zm.91-5.38a.93.93 0 1 0 -.93-.93.93.93 0 0 0 .93.93z"/><path d="m347 181.55a18.36 18.36 0 0 0 7.26-7.6l1.79 3.25a20.69 20.69 0 0 1 -7.39 7.2 20.3 20.3 0 0 1 -6.8 2.5l-2-3a19.58 19.58 0 0 0 7.14-2.35zm.65-6.22-2.36 2.42a38.13 38.13 0 0 0 -4.76-4.16l2.18-2.34a38.61 38.61 0 0 1 4.96 4.08z"/><path d="m365.78 184.24a13.36 13.36 0 0 0 1.84-.34 4.77 4.77 0 0 0 4-4.73c0-2.43-1.18-4.16-3.34-4.67a38.77 38.77 0 0 1 -1.11 4.9c-1.12 3.76-2.81 6.29-5 6.29s-4.17-2.53-4.17-5.69a8.58 8.58 0 0 1 8.89-8.26c4.78 0 7.82 3.3 7.82 7.58 0 3.95-2.33 6.85-7.23 7.67zm-.61-9.69a5.61 5.61 0 0 0 -4.18 5.1c0 1.63.57 2.48 1.22 2.48s1.33-1.13 2-3.32a27.2 27.2 0 0 0 .96-4.26z"/><path d="m381.55 184.05c3.53-3.21 5.91-5.77 5.91-7.82a1.77 1.77 0 0 0 -1.85-2 3.39 3.39 0 0 0 -2.39 1.37l-1.84-1.82a5.89 5.89 0 0 1 4.69-2.19 4.3 4.3 0 0 1 4.63 4.41c0 2.43-2.08 5.11-4.25 7.29a21.16 21.16 0 0 1 2.3-.19h2.6v2.9h-9.8z"/><path d="m414.42 175.85a21.35 21.35 0 0 1 -2.49 6.78 9.72 9.72 0 0 0 3.8 2.6 13.28 13.28 0 0 0 -1.9 2.6 11.12 11.12 0 0 1 -3.71-2.88 13 13 0 0 1 -4.52 2.92 16.17 16.17 0 0 0 -1.69-2.28 10.59 10.59 0 0 0 4.62-3 21.38 21.38 0 0 1 -1.58-3.93 7.91 7.91 0 0 1 -1 1.14 16.45 16.45 0 0 0 -1.76-2.68 8.76 8.76 0 0 0 .81-.89h-2.1v1.12c.82.93 2.57 3.15 3 3.7l-1.5 2.21c-.35-.72-.9-1.71-1.47-2.64v7.22h-2.64v-6.44a13.36 13.36 0 0 1 -1.67 3.3 14.89 14.89 0 0 0 -1.27-2.6 16.55 16.55 0 0 0 2.64-5.87h-2.11v-2.6h2.41v-3.84h2.64v3.84h2.15v2.52a15.44 15.44 0 0 0 2.62-6.4l2.89.57a28.05 28.05 0 0 1 -.84 3h5.87v2.61zm-5.78 0a18.55 18.55 0 0 0 1.52 4.16 17.08 17.08 0 0 0 1.27-4.18h-2.77z"/><path d="m429.29 178.62v1.77h3.8v2.52h-3.8v1.49c0 .76.06.85.52.85h1c.44 0 .53-.36.61-2a7.93 7.93 0 0 0 2.47 1.06c-.27 2.57-1 3.38-2.79 3.38h-1.87c-2.31 0-2.86-.81-2.86-3.27v-1.5h-2.06c-.45 2-1.76 3.84-5.18 5a10.14 10.14 0 0 0 -1.75-2.2c2.3-.69 3.42-1.67 3.95-2.76h-3.33v-2.52h3.9v-1.77h-1.39v-.57a14.13 14.13 0 0 1 -2.36 1.43 10.38 10.38 0 0 0 -1.67-2.08 11 11 0 0 0 2.78-1.69c-.46-.43-1.13-1-1.64-1.4l1.73-1.43c.46.33 1.06.76 1.54 1.16a11.66 11.66 0 0 0 .87-1.25h-3.38v-2.36h4.73l.48-.09 1.84.83a13.72 13.72 0 0 1 -2.7 4.85h5.91a18.42 18.42 0 0 1 -3.1-5.57l2.49-.7a12.23 12.23 0 0 0 .82 1.8 14.24 14.24 0 0 0 1.33-1.44l2.07 1.44c-.74.65-1.52 1.29-2.22 1.81a8.42 8.42 0 0 0 .62.72 20.54 20.54 0 0 0 1.81-1.8l2 1.4a26.49 26.49 0 0 1 -2.26 1.82 11.84 11.84 0 0 0 2.62 1.49 10.52 10.52 0 0 0 -1.91 2.39 11.61 11.61 0 0 1 -2.13-1.29v.53zm-2.88 0h-1.83v1.77h1.83z"/><path d="m450.31 178.7a10.52 10.52 0 0 0 3.36 2.3 9.19 9.19 0 0 0 -1.8 2.26 12.17 12.17 0 0 1 -1.85-1.13c-.19 2.78-.47 4.15-1 4.7a2.31 2.31 0 0 1 -1.63.85 17.18 17.18 0 0 1 -2.43.08 6.07 6.07 0 0 0 -.8-2.59c.74.06 1.44.08 1.82.08a.85.85 0 0 0 .67-.23 5.25 5.25 0 0 0 .53-2.52h-2.47c-.49 2.48-1.78 4.27-6 5.33a7.61 7.61 0 0 0 -1.52-2.37c3.11-.63 4.14-1.6 4.58-3h-2.59v-.61a14.65 14.65 0 0 1 -2.11 1.29 14.13 14.13 0 0 0 -1.71-2.24 11.11 11.11 0 0 0 3.29-2.24h-2.65v-2.49h4.67c.21-.38.42-.76.61-1.16h-4v-2.41h1.63a13.15 13.15 0 0 0 -.91-1.94l2.28-.82a12.08 12.08 0 0 1 1.31 2.58l-.47.18h1.06a26.26 26.26 0 0 0 .66-2.95l2.91.5c-.19.83-.38 1.65-.63 2.45h2-.06a15.42 15.42 0 0 0 1.23-2.85l2.74.78c-.4.76-.8 1.48-1.18 2.09h2.28v2.41h-4.2a12.46 12.46 0 0 0 .57 1.16h4.66v2.49zm-8 0a14.58 14.58 0 0 1 -1.05 1.33h6.6a12.62 12.62 0 0 1 -.93-1.33zm1.94-3.65c-.17.4-.34.78-.52 1.16h1.92c-.15-.38-.3-.76-.43-1.16z"/><path d="m460.82 178.77a12.56 12.56 0 0 1 -3.73 9.18l-2.18-.93a11.9 11.9 0 0 0 0-16.49l2.18-.93a12.55 12.55 0 0 1 3.73 9.17z"/></svg>