<svg viewBox="0 0 621 311" xmlns="http://www.w3.org/2000/svg"><path d="m618.34 298.26a10 10 0 0 1 0-20 10.28 10.28 0 0 1 2.16.24v-10a10.28 10.28 0 0 1 -2.16.24 10 10 0 0 1 0-20 10.28 10.28 0 0 1 2.16.24v-9.98a10.28 10.28 0 0 1 -2.16.24 10 10 0 0 1 0-20 9.66 9.66 0 0 1 2.16.24v-10a9.66 9.66 0 0 1 -2.16.24 10 10 0 0 1 0-20 10.28 10.28 0 0 1 2.16.24v-9.96a10.28 10.28 0 0 1 -2.16.24 10 10 0 0 1 0-20 10.28 10.28 0 0 1 2.16.24v-10a10.28 10.28 0 0 1 -2.16.24 10 10 0 0 1 0-20 10.28 10.28 0 0 1 2.16.24v-9.96a10.28 10.28 0 0 1 -2.16.24 10 10 0 0 1 0-20 9.66 9.66 0 0 1 2.16.24v-10a9.66 9.66 0 0 1 -2.16.24 10 10 0 0 1 0-20 10.28 10.28 0 0 1 2.16.24v-9.96a10.28 10.28 0 0 1 -2.16.24 10 10 0 0 1 0-20 10.28 10.28 0 0 1 2.16.24v-10a10.28 10.28 0 0 1 -2.16.24 10 10 0 1 1 0-20 10.28 10.28 0 0 1 2.16.24v-12.46h-620v12.24a10 10 0 0 1 0 20v9.5a10 10 0 0 1 0 20v9.5a10 10 0 0 1 10 10 10 10 0 0 1 -10 10v9.51a10 10 0 0 1 10 10 10 10 0 0 1 -10 10v9.5a10 10 0 0 1 0 20v9.5a10 10 0 0 1 0 20v9.5a10 10 0 0 1 10 10 10 10 0 0 1 -10 10v9.51a10 10 0 0 1 10 10 10 10 0 0 1 -10 10v9.5a10 10 0 0 1 0 20v9.5a10 10 0 0 1 0 20v12.24h620v-12.5a10.28 10.28 0 0 1 -2.16.26z" fill="#ff0"/><path d="m621 311h-621v-13.24h.5a9.5 9.5 0 0 0 0-19h-.5v-10.5h.5a9.5 9.5 0 0 0 0-19h-.5v-10.5h.5a9.5 9.5 0 0 0 0-19h-.5v-10.51h.5a9.51 9.51 0 0 0 9.5-9.5 9.52 9.52 0 0 0 -9.5-9.5h-.5v-10.5h.5a9.5 9.5 0 0 0 0-19h-.5v-10.5h.5a9.5 9.5 0 0 0 0-19h-.5v-10.5h.5a9.52 9.52 0 0 0 9.5-9.5 9.51 9.51 0 0 0 -9.5-9.5h-.5v-10.51h.5a9.51 9.51 0 0 0 9.5-9.5 9.52 9.52 0 0 0 -9.5-9.5h-.5v-10.5h.5a9.5 9.5 0 0 0 0-19h-.5v-10.5h.5a9.5 9.5 0 0 0 0-19h-.5v-13.24h621v13.6l-.61-.13a9.5 9.5 0 1 0 -2 18.77 9.69 9.69 0 0 0 2-.23l.61-.13v11.23l-.61-.14a9.69 9.69 0 0 0 -2-.23 9.5 9.5 0 0 0 0 19 9.69 9.69 0 0 0 2-.23l.61-.13v11.23l-.61-.14a9.69 9.69 0 0 0 -2-.23 9.5 9.5 0 1 0 2 18.77l.61-.13v11.23l-.61-.13a9.08 9.08 0 0 0 -2-.23 9.5 9.5 0 0 0 0 19 9.69 9.69 0 0 0 2-.23l.61-.14v11.23l-.61-.13a9.69 9.69 0 0 0 -2-.23 9.5 9.5 0 0 0 0 19 9.69 9.69 0 0 0 2-.23l.61-.14v11.23l-.61-.13a9.5 9.5 0 1 0 -2 18.77 9.69 9.69 0 0 0 2-.23l.61-.13v11.23l-.61-.14a9.69 9.69 0 0 0 -2-.23 9.5 9.5 0 0 0 0 19 9.08 9.08 0 0 0 2-.23l.61-.13v11.23l-.61-.13a9.08 9.08 0 0 0 -2-.23 9.5 9.5 0 1 0 2 18.77l.61-.14v11.23l-.61-.13a9.5 9.5 0 1 0 -2 18.77 9.69 9.69 0 0 0 2-.23l.61-.13v11.23l-.61-.14a9.69 9.69 0 0 0 -2-.23 9.5 9.5 0 0 0 0 19 9.69 9.69 0 0 0 2-.23l.61-.13zm-620-1h619v-11.37a10.41 10.41 0 0 1 -1.66.13 10.5 10.5 0 1 1 1.66-20.86v-8.78a10.49 10.49 0 1 1 0-20.72v-8.78a10.5 10.5 0 1 1 0-20.73v-8.77a10.41 10.41 0 0 1 -1.66.13 10.5 10.5 0 1 1 1.66-20.86v-8.77a10.5 10.5 0 1 1 0-20.73v-8.78a10.5 10.5 0 1 1 -1.66-20.86 9.38 9.38 0 0 1 1.66.14v-8.78a10.5 10.5 0 1 1 0-20.73v-8.77a10.51 10.51 0 1 1 0-20.73v-8.78a9.38 9.38 0 0 1 -1.66.14 10.5 10.5 0 1 1 1.66-20.86v-8.78a10.49 10.49 0 1 1 0-20.72v-11.38h-619v11.25a10.51 10.51 0 0 1 10 10.49 10.52 10.52 0 0 1 -10 10.49v8.52a10.5 10.5 0 0 1 0 21v8.53a10.5 10.5 0 0 1 0 21v8.53a10.5 10.5 0 0 1 0 21v8.53a10.5 10.5 0 0 1 0 21v8.52a10.5 10.5 0 0 1 0 21v8.53a10.5 10.5 0 0 1 0 21v8.53a10.51 10.51 0 0 1 10 10.49 10.52 10.52 0 0 1 -10 10.34v8.52a10.5 10.5 0 0 1 0 21v8.52a10.52 10.52 0 0 1 10 10.49 10.51 10.51 0 0 1 -10 10.47z" fill="#2b2d3b"/><path d="m44.15 62a12.35 12.35 0 1 1 12.35 12.32 12.36 12.36 0 0 1 -12.35-12.32zm23.66 0a11.31 11.31 0 1 0 -11.31 11.28 11.32 11.32 0 0 0 11.31-11.28zm-17 5.09 1.8-2.47a5.27 5.27 0 0 0 3.43 1.35c1.12 0 1.92-.46 1.92-1.27 0-1-.62-1.53-3.79-1.53v-2.79c2.52 0 3.35-.55 3.35-1.48s-.52-1.22-1.52-1.22a4.23 4.23 0 0 0 -2.75 1.19l-2-2.39a7.37 7.37 0 0 1 4.81-1.82c3.3 0 5.43 1.4 5.43 4 0 1.27-.83 2.26-2.44 2.94v.07c1.71.48 2.95 1.57 2.95 3.33 0 2.61-2.69 4-5.86 4a7.11 7.11 0 0 1 -5.31-1.94z"/><path d="m94.64 59.65v4.14h-24.23v-4.14z"/><path d="m106.84 63.08v8c0 1.33-.21 2.16-1 2.68a6.24 6.24 0 0 1 -3.27.57 10 10 0 0 0 -.89-2.94h1.8s.36-.1.36-.39v-7.58l-3.15.34c-.07 3.48-.46 7.8-2.18 10.53a12.14 12.14 0 0 0 -2.51-1.64c1.43-2.36 1.71-5.67 1.79-8.58l-1.43.16-.36-3 1.79-.15v-8h2.42a32.16 32.16 0 0 0 .57-3.57l4 .63c-.39 1-.78 2.05-1.14 2.94h3.2v7.12l1.06-.1.1 2.9zm-3-7.07h-3.15v1.12l2-.81a10.44 10.44 0 0 1 1.13 2.68zm0 4.55v-1.12l-2.24.94a10.23 10.23 0 0 0 -.91-2.94v3.41zm-.62 9.23h-2.08v-5.85h2.08zm16.78-8.68a19 19 0 0 1 -3.62 8.16 14.16 14.16 0 0 0 4.89 1.9 14.64 14.64 0 0 0 -2.27 3.12 14.15 14.15 0 0 1 -5.22-2.55 18.93 18.93 0 0 1 -4.89 2.58 13.78 13.78 0 0 0 -2-3.15 13.71 13.71 0 0 0 4.42-2.11 17.94 17.94 0 0 1 -2.31-4.68l2.92-.62h-3.54v-3.3h.91a16.23 16.23 0 0 0 -2.21-1.67c1.85-1.37 2-3.25 2-4.86v-3.4h8.71v5.61a2.46 2.46 0 0 0 0 .73.16.16 0 0 0 .21.13h.23a.3.3 0 0 0 .21-.08c.08-.05.13-.21.19-.57s0-1.2.07-2.21a8.58 8.58 0 0 0 2.68 1.43 12.93 12.93 0 0 1 -.41 2.81 2.11 2.11 0 0 1 -1 1.17 3.44 3.44 0 0 1 -1.51.34h-1.46a2.66 2.66 0 0 1 -1.93-.76c-.49-.49-.7-1.12-.7-2.88v-2.5h-2v.25c0 2.13-.34 4.71-2.09 6.45h6.72l.63-.11zm-8 2.65a11.64 11.64 0 0 0 1.63 3 11.83 11.83 0 0 0 1.83-3z"/><path d="m138 69.43a19.26 19.26 0 0 0 .26 3.77h-5a33.48 33.48 0 0 0 .21-3.77v-7.83a47.86 47.86 0 0 1 -8.5 3.28l-2.24-3.82a38.38 38.38 0 0 0 11.94-4.68 27.42 27.42 0 0 0 6.79-5.93l3.38 3a44.9 44.9 0 0 1 -6.84 5.6z"/><path d="m149.74 59.37c1 .07 3.22.18 4.49.18h13.77c1.17 0 2.44-.13 3.2-.18v5c-.68 0-2.13-.15-3.2-.15h-13.77c-1.48 0-3.43.07-4.49.15z"/><path d="m190.66 53a12.64 12.64 0 0 0 1.87-.13 1.88 1.88 0 0 1 0-.34 3.23 3.23 0 1 1 3.3 3.23c-.13.39-.23.78-.31 1.09-.63 2.44-1.69 6.4-3.93 9.41a21.31 21.31 0 0 1 -10.59 7.33l-3.43-3.77c5.22-1.17 8.16-3.46 10.21-6a14.45 14.45 0 0 0 2.86-6.71h-11.45c-1.27 0-2.7.08-3.38.13v-4.45c.81.1 2.53.23 3.38.23zm6.45-.47a1.38 1.38 0 1 0 -1.38 1.38 1.39 1.39 0 0 0 1.38-1.36z"/><path d="m223.39 59.52a12.88 12.88 0 0 0 -.57 1.25 18.6 18.6 0 0 1 -13.15 12.85l-3.15-3.57a17.81 17.81 0 0 0 8.94-4.44 10.21 10.21 0 0 0 2.42-3.77h-11.83c-.65 0-2.13 0-3.3.13v-4.06c1.2.1 2.42.18 3.3.18h12.38a6.05 6.05 0 0 0 2.18-.31zm-18.2-8a26.09 26.09 0 0 0 2.92.15h9.89a30.5 30.5 0 0 0 3.07-.15v4c-.73 0-2.13-.1-3.12-.1h-9.8c-.89 0-2.14 0-2.92.1z"/><path d="m247.68 54.09a15.73 15.73 0 0 0 -1.07 1.9 40.5 40.5 0 0 1 -3.92 6.86 69.83 69.83 0 0 1 7.07 7.25l-3.62 3.15a51 51 0 0 0 -6.21-7.12 34.81 34.81 0 0 1 -9.54 7.09l-3.28-3.4a29.09 29.09 0 0 0 10.64-7.31 19.12 19.12 0 0 0 3.64-5.87h-8.09c-1.17 0-2.6.15-3.33.2v-4.47a31 31 0 0 0 3.33.21h8.7a10.83 10.83 0 0 0 3.12-.39z"/><path d="m273.24 59.24c.54 0 1.92-.11 2.52-.16v4c-.78 0-1.69-.1-2.45-.1h-6.42a13.69 13.69 0 0 1 -6.65 10.58l-4-2.71c3.84-1.74 5.85-4.42 6.47-7.87h-6.81c-.78 0-1.8.05-2.5.1v-4a24.6 24.6 0 0 0 2.47.16h7v-3.1c-2.42.18-5 .29-6.6.31l-1-3.61a60.67 60.67 0 0 0 8.94-.42 25.26 25.26 0 0 0 6.48-1.61l2.57 3.46c-1.06.26-1.84.47-2.31.57-1.22.31-2.55.57-3.93.78v3.62z"/><path d="m298.77 55.1a19.16 19.16 0 0 0 2.86-.21v4.29c-1.07-.1-2.26-.1-2.86-.1h-3.23c-.49 6.63-3.06 11.41-7.9 14.43l-4.24-2.83a10.84 10.84 0 0 0 2.65-1.56c2.81-2.19 4.66-5.26 5.1-10h-4.84a22.75 22.75 0 0 1 -4.13 5.41l-3.95-2.39a20.45 20.45 0 0 0 4.44-5.23 17.58 17.58 0 0 0 1.54-3.51 12 12 0 0 0 .62-3l4.86 1c-.33.7-.72 1.72-1 2.29s-.36.94-.57 1.48z"/><path d="m313.35 63.53-3.84 1.47a47.16 47.16 0 0 0 -2.4-6.06l3.8-1.35a64.09 64.09 0 0 1 2.44 5.94zm13.29-5.26c-.36 1-.55 1.64-.73 2.27a21.38 21.38 0 0 1 -3.48 7.38 20.68 20.68 0 0 1 -8.82 6.63l-3.3-3.38a17.52 17.52 0 0 0 8.69-5.41 17.25 17.25 0 0 0 3.17-8.92zm-7.51 3.62-3.77 1.3a50.75 50.75 0 0 0 -2.16-5.83l3.74-1.22c.52 1.15 1.8 4.53 2.19 5.75z"/><path d="m350.61 66.28a81.82 81.82 0 0 0 -8.94-3.72v6.69c0 .7.15 2.75.28 3.92h-4.95a28 28 0 0 0 .32-3.92v-14.85a18 18 0 0 0 -.32-3.4h4.92a29.49 29.49 0 0 0 -.26 3.38v3.62a86.63 86.63 0 0 1 10.74 3.93z"/><path d="m380.85 49.62v.13a16.2 16.2 0 0 0 -5.15 12.25 16.23 16.23 0 0 0 5.15 12.22v.13h-8.27v-24.73z"/><path d="m396.66 67h-2.16v4.84h-4.32v-4.84h-8.11v-3.2l6.74-11.31h5.69v11h2.16zm-6.48-3.51v-2.82c0-1.23.13-3.07.19-4.29h-.11c-.49 1.09-1 2.21-1.56 3.3l-2.21 3.82z"/><path d="m401.91 71.67a2.6 2.6 0 0 1 -2.76-2.61 2.67 2.67 0 0 1 2.89-2.6c2 0 3.15 1.62 3.15 4.32 0 3.35-1.95 5.88-5.54 7l-.94-2.47c2.24-.78 3.43-2.16 3.43-3.61z"/><path d="m407.11 69.53 2.11-2.91a5.88 5.88 0 0 0 4 1.85 2.75 2.75 0 0 0 3.05-3 2.7 2.7 0 0 0 -2.84-3 4.3 4.3 0 0 0 -2.73.94l-2-1.33.5-9.57h10.8v3.85h-6.89l-.29 3.28a4.82 4.82 0 0 1 2-.39c3.28 0 6 1.92 6 6.11a6.67 6.67 0 0 1 -7 6.86 9.21 9.21 0 0 1 -6.71-2.69z"/><path d="m423.36 62.07c0-6.66 2.76-9.93 6.84-9.93s6.86 3.33 6.86 9.93-2.78 10.14-6.86 10.14-6.84-3.48-6.84-10.14zm9.33 0c0-5.28-1.11-6.37-2.49-6.37s-2.47 1.09-2.47 6.37 1.09 6.55 2.47 6.55 2.49-1.24 2.49-6.55z"/><path d="m439.19 62.07c0-6.66 2.76-9.93 6.84-9.93s6.87 3.33 6.87 9.93-2.79 10.14-6.9 10.14-6.81-3.48-6.81-10.14zm9.34 0c0-5.28-1.12-6.37-2.5-6.37s-2.47 1.09-2.47 6.37 1.09 6.55 2.47 6.55 2.5-1.24 2.5-6.55z"/><path d="m484.77 70.05c0 1.93-.39 2.94-1.58 3.57s-2.81.7-5.13.7a13 13 0 0 0 -1.35-3.77c1.35.1 3.07.08 3.56.08s.68-.16.68-.63v-5.36h-14.77v9.65h-3.79v-23.09h22.38zm-18.59-9.15h5.31v-5.9h-5.31zm14.77 0v-5.9h-5.69v5.9z"/><path d="m495.38 74.32h-8.27v-.13a16.2 16.2 0 0 0 5.15-12.19 16.17 16.17 0 0 0 -5.15-12.22v-.13h8.27z"/><path d="m54.78 96.76c0 3.74.55 10.6 7.34 14.55a14.41 14.41 0 0 0 -2.23 2.43 15.65 15.65 0 0 1 -6.7-8.82 16.63 16.63 0 0 1 -6.75 8.86 19.15 19.15 0 0 0 -2.52-2.26c3.84-1.9 6.06-5.51 7-10.34l1.36.25c-.11-.65-.18-1.27-.24-1.86h-4.2v-2.81z"/><path d="m73.56 105.63c-.12.23-.25.45-.38.66h7.52s0 .61-.06.91c-.24 3.59-.55 5.15-1.06 5.74a2 2 0 0 1 -1.37.72 11.11 11.11 0 0 1 -2 .08 5.39 5.39 0 0 0 -.45-1.84 10 10 0 0 1 -1.84 2 9.14 9.14 0 0 0 -2-1.52 10 10 0 0 0 3.4-3.91h-.67a14.83 14.83 0 0 1 -4.28 4.53 7.86 7.86 0 0 0 -1.81-1.62 11.57 11.57 0 0 0 3.61-3h-.67a12 12 0 0 1 -2 1.67 15.76 15.76 0 0 0 -1.41-1.33c-1.48.76-3 1.5-4.27 2.13l-1-2.79c.61-.21 1.37-.5 2.21-.82v-5h-1.77v-2.6h1.74v-3.64h2.56v3.65h1.6v2.6h-1.6v4l1.27-.53.42 1.66a9.7 9.7 0 0 0 1.58-1.75h-1.83v-2.3h12v2.3zm6.19-2.83h-9.21v-6.61h9.21zm-2.55-4.75h-4.2v.57h4.2zm0 2.32h-4.2v.56h4.2zm.52 8.07a16.3 16.3 0 0 1 -1.72 3.19h.87a.59.59 0 0 0 .55-.23c.23-.25.44-1.08.61-3z"/><path d="m97.38 102.78c.4 0 1.41-.08 1.84-.12v3c-.57 0-1.23-.08-1.78-.08h-4.69a10 10 0 0 1 -4.87 7.73l-2.94-2a7.55 7.55 0 0 0 4.73-5.76h-5c-.57 0-1.31 0-1.82.08v-3a17.36 17.36 0 0 0 1.8.12h5.15v-2.26c-1.76.13-3.63.21-4.82.23l-.73-2.65a45.84 45.84 0 0 0 6.54-.3 18.25 18.25 0 0 0 4.73-1.18l1.88 2.53-1.69.42c-.89.22-1.86.42-2.87.57v2.64z"/><path d="m116 99.76a15.06 15.06 0 0 0 2.09-.15v3.13c-.78-.08-1.65-.08-2.09-.08h-2.36c-.36 4.85-2.24 8.34-5.77 10.55l-3.1-2.07a7.94 7.94 0 0 0 1.94-1.14 9.79 9.79 0 0 0 3.72-7.34h-3.53a16.88 16.88 0 0 1 -3 4l-2.9-1.79a14.9 14.9 0 0 0 3.25-3.82 13.47 13.47 0 0 0 1.12-2.57 8.74 8.74 0 0 0 .46-2.18l3.55.7c-.25.52-.53 1.26-.7 1.67s-.27.69-.42 1.09z"/><path d="m126.7 105.91-2.81 1a34.29 34.29 0 0 0 -1.75-4.43l2.77-1a46.65 46.65 0 0 1 1.79 4.43zm9.71-3.84c-.27.75-.4 1.2-.53 1.66a15.75 15.75 0 0 1 -2.55 5.39 15.12 15.12 0 0 1 -6.44 4.85l-2.41-2.47a12.92 12.92 0 0 0 6.36-4 12.7 12.7 0 0 0 2.32-6.52zm-5.49 2.64-2.76 1a34.36 34.36 0 0 0 -1.57-4.26l2.73-.89c.38.79 1.31 3.26 1.6 4.15z"/><path d="m153.93 107.93a59 59 0 0 0 -6.54-2.72v4.88c0 .51.11 2 .21 2.87h-3.6a21.88 21.88 0 0 0 .23-2.87v-10.85a13.51 13.51 0 0 0 -.23-2.47h3.59a21.82 21.82 0 0 0 -.19 2.47v2.61a64.23 64.23 0 0 1 7.85 2.86z"/><path d="m166.28 110.24a13.36 13.36 0 0 0 1.84-.34 4.77 4.77 0 0 0 4-4.73c0-2.43-1.18-4.16-3.34-4.67a38.77 38.77 0 0 1 -1.11 4.9c-1.12 3.76-2.81 6.29-5 6.29s-4.1-2.53-4.1-5.74a8.58 8.58 0 0 1 8.89-8.26c4.78 0 7.82 3.3 7.82 7.58 0 4-2.33 6.85-7.23 7.67zm-.61-9.69a5.61 5.61 0 0 0 -4.18 5.1c0 1.63.57 2.48 1.22 2.48s1.33-1.13 2-3.32a27.2 27.2 0 0 0 .96-4.26z"/><path d="m193.45 109.77c-.46-.4-.94-.82-1.45-1.2a9.51 9.51 0 0 1 -4.63 4.79l-2.44-2a8.23 8.23 0 0 0 4.7-4.38 12.93 12.93 0 0 0 -3.88-1.39 36 36 0 0 1 -2.05 4.27 3.58 3.58 0 0 1 -3.25 1.85 3 3 0 0 1 -3.13-3.31c0-3 2.69-5.26 6.51-5.49.46-1.06.9-2.15 1.26-2.89-.74 0-2 .06-2.85.12a16 16 0 0 0 -1.62.17l-.11-2.91c.53.06 1.23.1 1.65.1 1.12 0 2.87-.06 3.78-.14a5.5 5.5 0 0 0 1.48-.32l1.81 1.4a4.77 4.77 0 0 0 -.7.88 31.56 31.56 0 0 0 -1.71 3.78 17.54 17.54 0 0 1 3.43 1v-.21a11.87 11.87 0 0 0 0-2.25l3 .35a28.68 28.68 0 0 1 -.35 3.4c.73.42 1.37.83 1.87 1.16zm-12-1.77a21.52 21.52 0 0 0 1.26-2.41c-1.71.41-2.71 1.41-2.71 2.35 0 .4.22.71.51.71s.59-.19.89-.65z"/><path d="m46.25 141.77a12.55 12.55 0 0 1 3.75-9.17l2.18.93a11.9 11.9 0 0 0 0 16.49l-2.18.98a12.56 12.56 0 0 1 -3.75-9.23z"/><path d="m69.21 136a8.68 8.68 0 0 0 -.78 1.38 29.88 29.88 0 0 1 -2.87 5 49.88 49.88 0 0 1 5.16 5.3l-2.64 2.32a37.11 37.11 0 0 0 -4.54-5.21 25.45 25.45 0 0 1 -7 5.19l-2.39-2.49a21.16 21.16 0 0 0 7.85-5.32 14 14 0 0 0 2.66-4.29h-5.96c-.86 0-1.9.11-2.43.15v-3.27a21.23 21.23 0 0 0 2.43.15h6.3a8.11 8.11 0 0 0 2.28-.28z"/><path d="m90.35 137.06c-.3.36-.57.65-.74.91a32.75 32.75 0 0 1 -6.23 7.28c1 1 2.05 2.16 2.79 3l-2.71 2.16a49 49 0 0 0 -3.73-4.23 39.87 39.87 0 0 0 -4.08-3.59l2.43-2c.8.61 1.9 1.48 3 2.47a19.67 19.67 0 0 0 4.2-4.84h-9.39a21.08 21.08 0 0 0 -2.33.17v-3.23a17.68 17.68 0 0 0 2.33.21h10.11a7.47 7.47 0 0 0 2.09-.25z"/><path d="m97.84 142.06a33.14 33.14 0 0 1 -3.67 5.34l-2.49-1.69a19.25 19.25 0 0 0 3.54-4.89zm4.43-2.59v8.63c0 1.16-.73 1.94-2.19 1.94a27.19 27.19 0 0 1 -3.3-.17l-.29-2.87a11.39 11.39 0 0 0 2.07.21c.48 0 .65-.15.67-.64s0-6.12 0-7.13h-4.54c-.57 0-1.41 0-2 .08v-3a16.16 16.16 0 0 0 2 .15h4.56v-1.27a11.8 11.8 0 0 0 -.18-1.83h3.4a14.94 14.94 0 0 0 -.2 1.85v1.25h4.08a19.1 19.1 0 0 0 2.05-.13v3c-.64-.06-1.48-.08-2-.08zm3.85 1.26a47.08 47.08 0 0 1 3.23 5l-2.7 1.48a37.85 37.85 0 0 0 -3-5.12z"/><path d="m113.38 139.8h-2.38v-4h7.14v-.46h-5.73v-2h14.21v2h-5.78v.46h7.29v4h-2.54v-2.21h-4.75v3.76h-2.7v-3.76h-4.71zm11.8 8.93c.91 0 1.1-.27 1.23-1.71a6.94 6.94 0 0 0 2.28.85c-.3 2.3-1 2.93-3.28 2.93h-3.76c-2.82 0-3.65-.61-3.71-2.66h-2.54v.76h-2.65v-7.11h13.42v6.35h-5.57c0 .51.32.59 1.31.59zm-11.55-8.86h4v1.45h-4zm4-.43h-3.63v-1.44h3.61zm-2.18 4.16v.58h2.54v-.58zm0 2.73h2.54v-.57h-2.59zm8-2.73h-2.85v.58h2.85zm0 2.73v-.57h-2.85v.57zm1.43-8.32v1.43h-3.52v-1.44zm-3.52 1.86h4v1.45h-4z"/><path d="m147.35 143.75h-7.35v3.95c0 1.48-.32 2.22-1.35 2.66a10.41 10.41 0 0 1 -4.08.49 10.82 10.82 0 0 0 -1.18-2.85c1.22.06 2.72.06 3.15.06s.55-.09.55-.42v-3.89h-7.4v-2.75h7.4v-3h1.33a21.86 21.86 0 0 0 2-1.42h-8.72v-2.72h11.57l.63-.15 2.1 1.6a30.71 30.71 0 0 1 -6 4.84v.85h7.39z"/><path d="m163.88 139.78c.4 0 1.41-.08 1.84-.12v3c-.57 0-1.23-.08-1.78-.08h-4.69a10 10 0 0 1 -4.87 7.73l-2.94-2a7.55 7.55 0 0 0 4.73-5.76h-5c-.57 0-1.31 0-1.82.08v-3a17.36 17.36 0 0 0 1.8.12h5.13v-2.26c-1.76.13-3.63.21-4.82.23l-.73-2.65a45.84 45.84 0 0 0 6.54-.3 18.25 18.25 0 0 0 4.73-1.18l1.88 2.53-1.69.42c-.89.22-1.86.42-2.87.57v2.64z"/><path d="m182.54 136.76a15.06 15.06 0 0 0 2.09-.15v3.13c-.78-.08-1.65-.08-2.09-.08h-2.36c-.36 4.85-2.24 8.34-5.77 10.55l-3.1-2.07a7.94 7.94 0 0 0 1.94-1.14 9.79 9.79 0 0 0 3.72-7.34h-3.53a16.88 16.88 0 0 1 -3 4l-2.89-1.75a14.9 14.9 0 0 0 3.25-3.82 13.47 13.47 0 0 0 1.12-2.57 8.74 8.74 0 0 0 .46-2.18l3.55.7c-.25.52-.53 1.26-.7 1.67s-.27.69-.42 1.09z"/><path d="m193.2 142.91-2.81 1.09a34.29 34.29 0 0 0 -1.75-4.43l2.77-1a46.65 46.65 0 0 1 1.79 4.34zm9.71-3.84c-.27.75-.4 1.2-.53 1.66a15.75 15.75 0 0 1 -2.55 5.39 15.12 15.12 0 0 1 -6.44 4.85l-2.39-2.47a12.92 12.92 0 0 0 6.36-3.95 12.7 12.7 0 0 0 2.32-6.52zm-5.49 2.64-2.76 1a34.36 34.36 0 0 0 -1.57-4.26l2.73-.89c.38.79 1.31 3.26 1.6 4.15z"/><path d="m220.43 144.93a59 59 0 0 0 -6.54-2.72v4.88c0 .51.11 2 .21 2.87h-3.61a21.88 21.88 0 0 0 .23-2.87v-10.85a13.51 13.51 0 0 0 -.23-2.47h3.59a21.82 21.82 0 0 0 -.19 2.47v2.61a64.23 64.23 0 0 1 7.85 2.86z"/><path d="m241.84 132.75.68.68-17.36 17.37-.69-.69z"/><path d="m258.71 142.32c.13 3 .4 5.25.87 5.53.19.12.31-.83.33-2.28a13.56 13.56 0 0 0 2 1.69c-.36 3.5-2.07 4.16-3.59 3-1.35-.85-1.86-3.91-2.09-8h-1.9v4.94l2.26-.55.36 2.41c-1.88.59-3.93 1.18-5.58 1.66l-1-2.62 1.31-.29v-4.81l-1.9.87a9.37 9.37 0 0 0 -.28-1.14l-.82.1v1.72l1.82-.6a24.88 24.88 0 0 1 1.09 3.21l-2.15.78a24.66 24.66 0 0 0 -.76-2.66v5.47h-2.43v-5.75a17.47 17.47 0 0 1 -1 4.39 13.18 13.18 0 0 0 -2.07-1 14.35 14.35 0 0 0 .87-4.39l2.21.38v-1.29l-2.51.28-.38-2.41 1.62-.09c.18-.27.39-.55.6-.84a17.62 17.62 0 0 0 -2.22-2.56l1.27-1.92.38.34a26 26 0 0 0 1.24-3.21l2.43.89c-.72 1.33-1.48 2.8-2.15 3.86q.22.26.42.51a30.62 30.62 0 0 0 1.58-2.91l2.24 1.07c-.76 1.14-1.62 2.37-2.49 3.55l1.86-.82a17.7 17.7 0 0 1 1.54 3.41v-8.17l1.31.41a30.76 30.76 0 0 0 6-1.8l2.15 2.11c-.8.3-1.65.59-2.55.83v4.05h2.95v2.6zm-10-1.69c-.15-.3-.29-.61-.44-.87-.24.32-.49.66-.74 1zm7.39-.91c0-1.1-.06-2.24-.08-3.42-.57.13-1.14.23-1.71.34v3.08z"/><path d="m277.88 139.78c.4 0 1.41-.08 1.84-.12v3c-.57 0-1.23-.08-1.78-.08h-4.69a10 10 0 0 1 -4.87 7.73l-2.94-2a7.55 7.55 0 0 0 4.73-5.76h-5c-.57 0-1.31 0-1.82.08v-3a17.36 17.36 0 0 0 1.8.12h5.13v-2.26c-1.76.13-3.63.21-4.82.23l-.73-2.65a45.84 45.84 0 0 0 6.54-.3 18.25 18.25 0 0 0 4.73-1.18l1.88 2.53-1.69.42c-.89.22-1.86.42-2.87.57v2.64z"/><path d="m296.54 136.76a15.06 15.06 0 0 0 2.09-.15v3.13c-.78-.08-1.65-.08-2.09-.08h-2.36c-.36 4.85-2.24 8.34-5.77 10.55l-3.1-2.07a7.94 7.94 0 0 0 1.94-1.14 9.79 9.79 0 0 0 3.72-7.34h-3.53a16.88 16.88 0 0 1 -3 4l-2.89-1.75a14.9 14.9 0 0 0 3.25-3.82 13.47 13.47 0 0 0 1.12-2.57 8.74 8.74 0 0 0 .46-2.18l3.55.7c-.25.52-.53 1.26-.7 1.67s-.27.69-.42 1.09z"/><path d="m307.2 142.91-2.81 1.09a34.29 34.29 0 0 0 -1.75-4.43l2.77-1a46.65 46.65 0 0 1 1.79 4.34zm9.71-3.84c-.27.75-.4 1.2-.53 1.66a15.75 15.75 0 0 1 -2.55 5.39 15.12 15.12 0 0 1 -6.44 4.85l-2.39-2.47a12.92 12.92 0 0 0 6.36-3.95 12.7 12.7 0 0 0 2.32-6.52zm-5.49 2.64-2.76 1a34.36 34.36 0 0 0 -1.57-4.26l2.73-.89c.38.79 1.31 3.26 1.6 4.15z"/><path d="m334.43 144.93a59 59 0 0 0 -6.54-2.72v4.88c0 .51.11 2 .21 2.87h-3.61a21.88 21.88 0 0 0 .23-2.87v-10.85a13.51 13.51 0 0 0 -.23-2.47h3.59a21.82 21.82 0 0 0 -.19 2.47v2.61a64.23 64.23 0 0 1 7.85 2.86z"/><path d="m353.79 148c1.08 0 2.11-.09 3-.17a12.89 12.89 0 0 0 -.82 2.57c-2.56.13-6.82.17-9.32.05-2.21-.09-3.65-.6-4.77-2.07-.67.73-1.37 1.41-2.26 2.25l-1.32-2.63c.65-.44 1.39-1 2.08-1.54v-3.78h-1.77v-2.58h4.33v6.1a3.26 3.26 0 0 0 2.3 1.63 18.94 18.94 0 0 0 -1.73-1.38 14.36 14.36 0 0 0 3.06-1.14h-3.16v-2h2.91v-1h-2.32v-2h2.37v-.82h2.58v.82h1.69v-.82h2.63v.82h2.45v2h-2.45v1h3v2h-3.21a33.23 33.23 0 0 1 3.32 1.78zm-13.05-10.14a15 15 0 0 0 -2.38-3.29l2.19-1.36a14.6 14.6 0 0 1 2.54 3.11zm6.21-2.91h-3.37v-1.69h5.67v3.93h-1a6 6 0 0 0 1.78.63c-.23 1.33-.81 1.71-2.09 1.71h-1.76c-1.87 0-2.38-.51-2.38-2.26v-1.79h3.2zm2.51 10.91a13.37 13.37 0 0 1 -3.58 2.11l.73.05c1.65.08 4.33.08 6.8 0a21.39 21.39 0 0 0 -3.12-1.92l1.41-.77h-3.78zm-1.77-8.11c.32 0 .42-.1.49-.56h-2.11v.06c0 .44.08.5.5.5zm1.21 5.58h1.69v-1h-1.69zm4.34-8.38h-3.5v-1.69h5.83v3.93h-1a6 6 0 0 0 1.78.63c-.23 1.33-.81 1.71-2.09 1.71h-1.76c-1.87 0-2.38-.51-2.38-2.26v-1.79h3.16zm.7 2.8c.32 0 .42-.1.49-.56h-2.11v.06c0 .44.08.5.5.5z"/><path d="m365 143.44-2.3.46v4c0 1.29-.23 2-1 2.37a6.71 6.71 0 0 1 -3.23.5 9.28 9.28 0 0 0 -.76-2.53h1.94s.38-.11.38-.4v-3.46l-2.09.38-.57-2.64c.76-.11 1.67-.24 2.66-.42v-2.9h-2.34v-2.55h2.31v-3.53h2.64v3.53h2.13v2.55h-2.13v2.47l2.07-.38zm6.93-1.1c.59 2.72 1.75 5 4 6.08a10.42 10.42 0 0 0 -1.9 2.43c-2.84-1.59-4.08-4.56-4.82-8.51h-1c-.19 2.93-.89 6.35-3 8.47a10.69 10.69 0 0 0 -2.15-1.89c2.26-2.34 2.43-5.91 2.43-8.67v-6.48h9.51v8.57zm-3.68-6v3.38h4v-3.38z"/><path d="m394.2 136.78h-2.13v10.67c0 1.56-.36 2.36-1.37 2.8a11.48 11.48 0 0 1 -4.46.53 11.12 11.12 0 0 0 -1.16-2.93c1.27.1 3 .08 3.46.08s.63-.14.63-.53v-10.62h-12.33v-2.78h17.36zm-13 9.3v1.43h-2.68v-9h8.28v7.56zm0-4.93v2.31h2.8v-2.31z"/><path d="m401.74 141.77a12.56 12.56 0 0 1 -3.74 9.23l-2.18-.93a11.9 11.9 0 0 0 0-16.49l2.18-.93a12.55 12.55 0 0 1 3.74 9.12z"/></svg>