<svg viewBox="0 0 392.98 33.5" xmlns="http://www.w3.org/2000/svg"><g fill="#fff"><path d="m28.6 18.13v15.12h-5.32v-2h-18.1v2h-5.18v-15.12h5.18v8.19h6.16v-9.87h-9.94v-13.16h5.11v8.23h4.83v-11.06h5.29v11.06h5.18v-8.27h5.39v13.2h-10.57v9.87h6.65v-8.19z"/><path d="m40.15 16.77a23.73 23.73 0 0 0 -5.92-3.43l2.77-3.85a23.11 23.11 0 0 1 6.09 3zm4.58 4.93c-1.54 3.78-3.29 7.67-5.07 11.2l-4.59-3a101.21 101.21 0 0 0 5.64-11.23zm17.19 4.76a57.11 57.11 0 0 1 6 4l-4.24 2.8a59.31 59.31 0 0 0 -7.07-5.11l2.63-1.68h-7.96l3.85 1.44a29 29 0 0 1 -8.23 5.6 34.59 34.59 0 0 0 -3.9-3.65 22.15 22.15 0 0 0 6.79-3.4h-3.73v-13.23h7.11v-1.23h-5.67v-2.62h-2.84v-5.6l-2.59 3.64a24 24 0 0 0 -6-3.57l2.82-3.85a27.36 27.36 0 0 1 5.77 2.91v-.46h8.34v-2.45h5.22v2.45h9v6.93h-3v2.62h-6.22v1.19h7.7v13.27zm-12.64-20v1.63h13.09v-1.58zm1.26 11.62h2.63v-1.17h-2.63zm0 4.66h2.63v-1.18h-2.63zm7.46-5.83v1.22h3v-1.22zm3 4.65h-3v1.23h3z"/><path d="m104.09 6.23c-.42.52-1.22 1.54-1.57 2.1-1.79 2.94-5.11 7.32-8.26 9.59l-4.38-3.5a19 19 0 0 0 5.78-5.77h-17.29a40.82 40.82 0 0 0 -4.45.28v-5.85a30.57 30.57 0 0 0 4.45.38h18.16a24.17 24.17 0 0 0 4.2-.34zm-14.42 4.77c0 8.23.18 15.79-9.69 21.28l-4.94-4a13.56 13.56 0 0 0 4-2.14c3.89-2.94 4.76-5.91 4.76-11.62a20 20 0 0 0 -.28-3.5z"/><path d="m110 13.13c1.4.1 4.34.24 6.06.24h18.58c1.58 0 3.29-.17 4.31-.24v6.68c-.91 0-2.87-.21-4.31-.21h-18.64c-2 0-4.62.11-6.06.21z"/><path d="m172.94 11.83a26.27 26.27 0 0 0 3.46-.24v5.49c-.94-.07-2.41-.1-3.46-.1h-7.84a22.38 22.38 0 0 1 -2.31 8.64 16.54 16.54 0 0 1 -7.11 6.93l-5-3.57a14.53 14.53 0 0 0 6.2-4.83 14.63 14.63 0 0 0 2.27-7.15h-9.15c-1 0-2.55.07-3.53.14v-5.55a29.9 29.9 0 0 0 3.53.24zm-18.38-4c-1.22 0-2.9.07-4.06.14v-5.42a30.78 30.78 0 0 0 4.06.28h14a30.66 30.66 0 0 0 4.06-.28v5.45c-1.29-.07-2.73-.14-4.06-.14z"/><path d="m209.58 11.45a42.74 42.74 0 0 1 -7.84 6.26v11.29a21.2 21.2 0 0 0 .28 4.2h-6.3c.11-.77.21-2.87.21-4.2v-8.1a52.82 52.82 0 0 1 -9.24 3.5l-2.83-4.87a46.71 46.71 0 0 0 12.49-4.72 33.58 33.58 0 0 0 9-7.32z"/><path d="m247.07 6a19.67 19.67 0 0 0 -1.44 2.56 54.19 54.19 0 0 1 -5.28 9.24 94.27 94.27 0 0 1 9.52 9.76l-4.87 4.26a68.86 68.86 0 0 0 -8.36-9.59 46.9 46.9 0 0 1 -12.85 9.55l-4.41-4.58a39.1 39.1 0 0 0 14.32-9.84 25.86 25.86 0 0 0 4.9-7.91h-10.89c-1.57 0-3.5.21-4.48.28v-6a43 43 0 0 0 4.48.28h11.69a14.39 14.39 0 0 0 4.2-.53z"/><path d="m282.38 22.44a108.79 108.79 0 0 0 -12-5v9c0 .94.21 3.71.39 5.28h-6.65a40.05 40.05 0 0 0 .42-5.28v-20a24.45 24.45 0 0 0 -.42-4.55h6.61a41.61 41.61 0 0 0 -.35 4.55v4.8a115.58 115.58 0 0 1 14.46 5.28z"/><path d="m324.24 30.42a22.86 22.86 0 0 1 -6.79-2.59 13.7 13.7 0 0 1 -8.22 2.59c-5.85 0-8.82-3.54-8.82-7.49 0-3.64 2.2-5.74 4.72-7.32a11.64 11.64 0 0 1 -1.57-5.35c0-3.72 2.76-6.87 7.24-6.87 4 0 6.58 2.35 6.58 6 0 3.43-2.66 5.53-5.39 7.35a32.5 32.5 0 0 0 5 4.45 18.37 18.37 0 0 0 2.94-6.09h5.67a27.68 27.68 0 0 1 -4.34 8.71 15.22 15.22 0 0 0 4.44 1.58zm-14.24-4.76a6.39 6.39 0 0 0 3-.88 36.31 36.31 0 0 1 -5.18-5.11 4.1 4.1 0 0 0 -1.54 2.87c.04 1.86 1.48 3.12 3.72 3.12zm-.53-12.46c1.79-1 3.15-2.14 3.15-3.82 0-1.19-.56-1.89-1.71-1.89s-2.24 1-2.24 2.77a6.61 6.61 0 0 0 .8 2.94z"/><path d="m341 3.88h6.76l4.13 11.24c.53 1.51.95 3.15 1.44 4.76h.17c.53-1.61.95-3.25 1.44-4.76l4-11.24h6.79v26.05h-5.73v-8.93a85.31 85.31 0 0 1 .81-9h-.14l-2.17 6.23-3.5 9.49h-3.43l-3.57-9.52-2.06-6.2h-.14a85.31 85.31 0 0 1 .81 9v8.93h-5.61z"/><path d="m372.26 17.05c0-8.68 5.81-13.66 12.43-13.66a11.11 11.11 0 0 1 7.91 3.4l-3.29 4a6.47 6.47 0 0 0 -4.52-2c-3.36 0-6.12 3-6.12 8.09s2.38 8.12 6.05 8.12a6.75 6.75 0 0 0 5-2.38l3.28 3.95a10.84 10.84 0 0 1 -8.5 3.85c-6.64 0-12.24-4.55-12.24-13.37z"/></g></svg>