<svg viewBox="0 0 450 80" xmlns="http://www.w3.org/2000/svg"><rect fill="#ff0" height="80" rx="30" width="450"/><path d="m125 36.05a19.76 19.76 0 0 0 2.83-.2v4.49c-.77-.06-2-.09-2.83-.09h-6.4a18.28 18.28 0 0 1 -1.88 7.06 13.54 13.54 0 0 1 -5.82 5.69l-4.06-2.91a12 12 0 0 0 5.06-3.94 12.06 12.06 0 0 0 1.83-5.86h-7.46c-.83 0-2.08.06-2.88.12v-4.56a23.1 23.1 0 0 0 2.88.2zm-15-3.25c-1 0-2.37.05-3.31.11v-4.43a24.55 24.55 0 0 0 3.31.23h11.43a24.44 24.44 0 0 0 3.31-.23v4.43c-1-.06-2.23-.11-3.31-.11z"/><path d="m137.7 49.56a4.29 4.29 0 0 0 .43-2.11v-15a18.79 18.79 0 0 0 -.37-3.59h5.42a22.33 22.33 0 0 0 -.31 3.59v14.06a33.76 33.76 0 0 0 14.13-9.29l2.45 4c-4 4.71-10 8-16.51 10.34a7.5 7.5 0 0 0 -2 .91z"/><path d="m173 46c0 1.12.55 1.4 1.78 1.63a23.72 23.72 0 0 0 3 .14 49.38 49.38 0 0 0 10.06-1v5.06a85.53 85.53 0 0 1 -10.34.57 32.8 32.8 0 0 1 -4.94-.34c-2.63-.49-4.2-2-4.2-4.6v-15.46a32.12 32.12 0 0 0 -.23-3.35h5.08a28.89 28.89 0 0 0 -.21 3.35v4.79a79.42 79.42 0 0 0 9.32-3 22.58 22.58 0 0 0 3.45-1.69l1.83 4.37c-1.26.52-2.68 1.11-3.68 1.49-2.75 1-7.15 2.4-10.92 3.34zm11.8-13.71a38.66 38.66 0 0 0 -2.2-4l2.69-1.09c.71 1.06 1.71 2.92 2.22 3.92zm4-6.43a43.25 43.25 0 0 1 2.2 3.91l-2.69 1.14a31.47 31.47 0 0 0 -2.24-3.91z"/><path d="m204 40.31c0-7.09 4.74-11.14 10.14-11.14a9.05 9.05 0 0 1 6.46 2.77l-2.6 3.26a5.22 5.22 0 0 0 -3.68-1.66c-2.74 0-5 2.46-5 6.6s1.94 6.68 4.94 6.68a5.54 5.54 0 0 0 4.06-1.94l2.68 3.2a8.86 8.86 0 0 1 -7 3.14c-5.39 0-10-3.71-10-10.91z"/><path d="m226.93 29.57h5.51l3.37 9.17c.43 1.23.77 2.57 1.17 3.88h.14c.43-1.31.78-2.65 1.18-3.88l3.25-9.17h5.54v21.25h-4.65v-7.28a72.3 72.3 0 0 1 .65-7.37h-.09l-1.77 5.08-2.88 7.75h-2.8l-2.88-7.77-1.67-5.06h-.11a69.57 69.57 0 0 1 .66 7.37v7.28h-4.57z"/><path d="m273.72 46.56c.06-.71.12-1.77.15-2.82-1.77 1-2.55 1.94-2.55 3.08s.89 1.69 3.55 1.69a42.29 42.29 0 0 0 8.22-.89l-.09 4.43a75.87 75.87 0 0 1 -8.17.48c-4.66 0-8-1.2-8-5s3.37-6.05 6.51-7.71a2.09 2.09 0 0 0 -1.54-.57 6.77 6.77 0 0 0 -4.17 1.89 35.61 35.61 0 0 0 -2.63 3.2l-3.65-2.75a26 26 0 0 0 6.05-7.28c-1.17 0-3.22-.06-4.71-.2v-4a36.56 36.56 0 0 0 5.09.34h1.11a16 16 0 0 0 .48-3.08l4.52.37c-.12.63-.32 1.51-.63 2.57a64.13 64.13 0 0 0 7.63-.8v4c-2.66.34-6.12.6-9.14.71a16.66 16.66 0 0 1 -1.09 2 13.74 13.74 0 0 1 2.8-.28 4.1 4.1 0 0 1 3.77 2c1.14-.55 2.06-.92 3.06-1.37 1.23-.55 2.4-1.09 3.6-1.66l1.68 3.94c-1 .29-2.77.94-3.85 1.37s-2.46.94-3.95 1.6c0 1.54.09 3.46.12 4.71z"/><path d="m313.89 49.39c.89 0 1.06-.48 1.2-3.74a12.06 12.06 0 0 0 3.8 1.66c-.43 4.74-1.51 6-4.6 6h-3.29c-3.8 0-4.71-1.26-4.71-5v-3.89h-2.75c-.54 4.58-2.16 7.63-9.54 9.29a12 12 0 0 0 -2.36-3.71c5.91-1.05 7-2.74 7.43-5.57h-3.29v-17.2h19.22v17.19h-4.43v3.86c0 1 .15 1.11 1.09 1.11zm-14.11-17.45h10.94v-1.11h-10.94zm0 4.43h10.94v-1.12h-10.94zm0 4.45h10.94v-1.11h-10.94z"/><path d="m344.84 31.37c-.75.46-1.46.88-2.17 1.37-1.6 1.08-4.09 3.11-5.63 4.31a9.66 9.66 0 0 1 2-.17c4.85 0 8.68 3.11 8.68 7.37 0 4.43-3.2 8.28-10.51 8.28-4 0-7.31-1.85-7.31-5 0-2.48 2.28-4.79 5.48-4.79 3.46 0 5.69 2 6.17 4.68a3.75 3.75 0 0 0 1.66-3.26c0-2.42-2.49-3.94-5.6-3.94-4.14 0-7.11 2.49-9.83 5.8l-3.11-3.23c1.83-1.43 5.11-4.23 6.8-5.6s4.2-3.34 5.57-4.57c-1.43 0-4.34.15-5.86.26-.85.06-1.85.14-2.54.26l-.14-4.43a24.49 24.49 0 0 0 2.88.17c1.52 0 7.17-.08 8.86-.23a15.12 15.12 0 0 0 2.51-.34zm-7.26 17.22c-.14-1.57-1-2.57-2.2-2.57-.91 0-1.46.54-1.46 1.12 0 .88.95 1.51 2.38 1.51.45 0 .88-.03 1.28-.06z"/></svg>