<svg viewBox="0 0 500 500" xmlns="http://www.w3.org/2000/svg"><path d="m38.14 4.82-33.32 33.32v423.72l24.57 24.57 8.75 8.75h423.72l8.75-8.75 24.57-24.57v-423.72l-33.32-33.32z" fill="#fff"/><path d="m463.86 0h-427.72l-36.14 36.14v427.72l36.14 36.14h427.72l36.14-36.14v-427.72zm31.32 461.86-24.57 24.57-8.75 8.75h-423.72l-8.75-8.75-24.57-24.57v-423.72l33.32-33.32h423.72l33.32 33.32z"/><path d="m40.14 9.64-30.5 30.5v419.72l30.5 30.5h419.72l30.5-30.5v-419.72l-30.5-30.5z" fill="#fff"/><path d="m460.36 8.43h-420.72l-31.21 31.21v420.72l31.21 31.21h420.72l31.21-31.21v-420.72zm30 451.43-30.5 30.5h-419.72l-30.5-30.5v-419.72l30.5-30.5h419.72l30.5 30.5z"/><path d="m194.2 144.85c6-5.4 9.6-9.57 9.6-13 0-2.25-1.23-3.6-3.33-3.6a5.75 5.75 0 0 0 -4.08 2.28l-2.4-2.4c2-2.16 4-3.36 7-3.36 4.2 0 7 2.7 7 6.84s-3.33 8.34-7.38 12.3c1.11-.12 2.58-.24 3.6-.24h4.83v3.72h-14.84z" fill="#2b2d3b"/><path d="m213.4 136.21c0-7.68 3-11.43 7.53-11.43s7.5 3.78 7.5 11.43-3 11.61-7.5 11.61-7.53-3.96-7.53-11.61zm10.86 0c0-6.21-1.44-8-3.33-8s-3.36 1.8-3.36 8 1.44 8.16 3.36 8.16 3.33-1.92 3.33-8.16z" fill="#2b2d3b"/><path d="m232.54 144.85c6-5.4 9.6-9.57 9.6-13 0-2.25-1.23-3.6-3.33-3.6a5.75 5.75 0 0 0 -4.08 2.28l-2.4-2.4c2-2.16 4-3.36 7-3.36 4.2 0 7 2.7 7 6.84s-3.33 8.39-7.33 12.31c1.11-.12 2.58-.24 3.6-.24h4.83v3.72h-14.89z" fill="#2b2d3b"/><path d="m251.74 136.21c0-7.68 3-11.43 7.53-11.43s7.5 3.78 7.5 11.43-3 11.61-7.5 11.61-7.53-3.96-7.53-11.61zm10.86 0c0-6.21-1.44-8-3.33-8s-3.36 1.8-3.36 8 1.44 8.16 3.36 8.16 3.33-1.92 3.33-8.16z" fill="#2b2d3b"/><path d="m306 144.1h-10v6.15h-4.5v-6.15h-13.33v-4.2h4.65v-6.75c-.36.42-.72.84-1.08 1.2a30 30 0 0 0 -3.74-2.85 22.51 22.51 0 0 0 6.06-9.87l4.47 1.14c-.24.69-.51 1.41-.81 2.1h16.53v4.2h-8.19v3.06h7.47v4.05h-7.47v3.72h10zm-20.4-15a30 30 0 0 1 -2 3.06h7.95v-3.06zm5.94 10.83v-3.72h-4.34v3.72z" fill="#2b2d3b"/><path d="m101.12 207.6h-6.59v14.4h-10.28v-14.4h-23.62v-7.5l20.7-33.6h13.2v32.7h6.59zm-16.87-8.4v-11.32c0-3.23.3-8.25.45-11.48h-.3c-1.35 2.93-2.85 6-4.42 9l-8.63 13.8z" fill="#2b2d3b"/><path d="m157.33 209.2c0 4.3-1 6.45-3.67 7.72s-6.62 1.47-12 1.47a30.75 30.75 0 0 0 -3.15-8c3.36.26 7.77.21 9 .21s1.63-.42 1.63-1.47v-6h-20.89c-1.42 5.83-4 11.45-8.82 15.39a30 30 0 0 0 -5.94-5.52c7.72-6.4 8.35-16.22 8.35-24v-18h35.49zm-8.13-13.55v-5h-19.48c-.05 1.58-.16 3.31-.32 5zm-19.48-17.33v5h19.48v-5z" fill="#2b2d3b"/><path d="m178.15 215.62c15.07-13.49 24-23.92 24-32.47 0-5.62-3.07-9-8.32-9-4.05 0-7.43 2.63-10.21 5.7l-6-6c5.1-5.4 10-8.4 17.62-8.4 10.5 0 17.47 6.75 17.47 17.1 0 10-8.32 20.85-18.44 30.75 2.77-.3 6.44-.6 9-.6h12.08v9.3h-37.2z" fill="#2b2d3b"/><path d="m221.8 215.48 5.1-7c3.15 3.07 7 5.62 12.22 5.62 5.78 0 9.83-3.68 9.83-10.2s-3.75-10-9.38-10c-3.3 0-5.1.83-8.32 2.93l-5-3.3 1.5-26.93h29.7v9.23h-20.2l-1.05 11.67a14.32 14.32 0 0 1 6.67-1.57c9.3 0 17.1 5.55 17.1 17.62 0 12.37-9.15 19.5-19.42 19.5a25.3 25.3 0 0 1 -18.75-7.57z" fill="#2b2d3b"/><path d="m317.21 171.5v46.31h-8.21v-3.47h-21.82v3.47h-7.88v-46.31zm-30 7.72v9.6h21.79v-9.6zm21.79 27.4v-10.23h-21.82v10.23z" fill="#2b2d3b"/><path d="m345.35 170.92h12.91v4.94h-6v41.79h6v4.94h-12.91z" fill="#009ee2"/><path d="m414.76 208.78v7.5h-48.26v-7.5h19.85v-16.78h-16.35v-7.51h16.33v-15.88h8.24v15.91h16.6v7.48h-16.6v16.75z" fill="#009ee2"/><path d="m422.84 217.65h6v-41.79h-6v-4.94h12.91v51.67h-12.91z" fill="#009ee2"/><g fill="#2b2d3b"><path d="m63.73 255.11c0-6.83 3.87-10.69 9.55-10.69s9.55 3.89 9.55 10.69-3.83 10.89-9.55 10.89-9.55-4.06-9.55-10.89zm14 0c0-4-1.71-6.41-4.45-6.41s-4.42 2.38-4.42 6.41 1.68 6.61 4.42 6.61 4.45-2.55 4.45-6.61z"/><path d="m87 244.81h7.31c4.59 0 8.37 1.62 8.37 6.77 0 5-3.83 7.14-8.23 7.14h-2.45v6.92h-5zm7.2 10c2.43 0 3.61-1.15 3.61-3.2s-1.34-2.82-3.75-2.82h-2.06v6z"/><path d="m106.49 244.81h13.21v4.19h-8.2v3.87h7v4.13h-7v4.42h8.5v4.2h-13.51z"/><path d="m124.41 244.81h5.09l5.18 10 2 4.62h.14a65.88 65.88 0 0 1 -.67-7.7v-6.89h4.85v20.83h-5.1l-5.15-10-2.09-4.67h-.14c.23 2.33.65 5.18.65 7.7v6.92h-4.76z"/><path d="m154.31 260.57a4.7 4.7 0 0 0 3.19 1.43c2.13 0 3.81-1.51 4-6.08a5.46 5.46 0 0 1 -4 2.1c-3.5 0-6.1-2.07-6.1-6.55a6.68 6.68 0 0 1 6.86-7.05c4 0 7.78 3 7.78 10.55s-4 11.06-8.23 11.06a8.44 8.44 0 0 1 -6.13-2.49zm7.11-8c-.42-3.44-1.73-4.42-3-4.42s-2.44.92-2.44 3.33c0 2.24 1.12 3.05 2.52 3.05a3.39 3.39 0 0 0 2.92-1.97z"/><path d="m169.66 252.7a3 3 0 1 1 3 3.08 2.95 2.95 0 0 1 -3-3.08zm0 10.22a3 3 0 1 1 3 3.11 3 3 0 0 1 -3-3.11z"/><path d="m178.48 263.12 2.29-3.14a6.35 6.35 0 0 0 4.34 2c1.93 0 3.19-.81 3.19-2.38 0-1.79-1-2.86-5.32-2.86v-3.5c3.56 0 4.68-1.09 4.68-2.74 0-1.43-.84-2.21-2.38-2.21a5.53 5.53 0 0 0 -3.72 1.73l-2.56-3.02a9.79 9.79 0 0 1 6.46-2.57c4.32 0 7.14 2 7.14 5.74a4.78 4.78 0 0 1 -3.36 4.59v.14a5.15 5.15 0 0 1 4 5.07c0 3.89-3.56 6.07-7.7 6.07a8.94 8.94 0 0 1 -7.06-2.92z"/><path d="m196.28 255.11c0-7.17 3-10.69 7.37-10.69s7.35 3.58 7.35 10.69-3 10.89-7.35 10.89-7.37-3.72-7.37-10.89zm10.06 0c0-5.68-1.21-6.86-2.69-6.86s-2.66 1.18-2.66 6.86 1.17 7.06 2.66 7.06 2.69-1.35 2.69-7.06z"/><path d="m241.84 263 2.83-3.45a8.4 8.4 0 0 0 5.07 2.13c1.84 0 2.71-.7 2.71-1.82s-1.15-1.6-2.94-2.35l-2.66-1.12a6.11 6.11 0 0 1 -4.23-5.71c0-3.5 3.14-6.3 7.56-6.3a9.7 9.7 0 0 1 6.78 2.74l-2.49 3.14a6.78 6.78 0 0 0 -4.29-1.6c-1.54 0-2.49.62-2.49 1.74s1.32 1.59 3.17 2.32l2.6 1c2.58 1 4.12 2.77 4.12 5.71 0 3.47-2.92 6.52-8 6.52a11.7 11.7 0 0 1 -7.74-2.95z"/><path d="m265.36 249h-5.63v-4.14h16.27v4.14h-5.66v16.69h-5z"/><path d="m289.36 260.85h-6.16l-1.2 4.79h-5.1l6.46-20.83h6l6.46 20.83h-5.26zm-1-3.86-.44-1.77c-.56-2.07-1.1-4.56-1.66-6.69h-.11c-.5 2.19-1.06 4.62-1.6 6.69l-.44 1.77z"/><path d="m309.54 265.64-3.83-7.34h-2.41v7.34h-5v-20.83h7.64c4.45 0 8.15 1.51 8.15 6.55a6.17 6.17 0 0 1 -3.59 6l4.65 8.26zm-6.24-11.28h2.24c2.38 0 3.64-1 3.64-3s-1.26-2.6-3.64-2.6h-2.24z"/><path d="m322.42 249h-5.63v-4.14h16.3v4.14h-5.66v16.69h-5z"/><path d="m343.06 261.61h4.42v-11.85h-3.83v-3.08a14.18 14.18 0 0 0 5.15-1.87h3.67v16.8h3.75v4h-13.16z"/><path d="m359.35 255.11c0-7.17 3-10.69 7.37-10.69s7.39 3.58 7.39 10.69-3 10.92-7.39 10.92-7.37-3.75-7.37-10.92zm10.06 0c0-5.68-1.21-6.86-2.69-6.86s-2.66 1.18-2.66 6.86 1.17 7.06 2.66 7.06 2.69-1.35 2.69-7.06z"/><path d="m377.5 252.7a3 3 0 1 1 3 3.08 2.95 2.95 0 0 1 -3-3.08zm0 10.22a3 3 0 1 1 3 3.11 3 3 0 0 1 -3-3.11z"/><path d="m386.32 263.12 2.29-3.14a6.35 6.35 0 0 0 4.34 2c1.94 0 3.2-.81 3.2-2.38 0-1.79-1-2.86-5.32-2.86v-3.5c3.55 0 4.67-1.09 4.67-2.74 0-1.43-.84-2.21-2.38-2.21a5.53 5.53 0 0 0 -3.72 1.71l-2.52-3a9.79 9.79 0 0 1 6.47-2.57c4.31 0 7.14 2 7.14 5.74a4.78 4.78 0 0 1 -3.36 4.59v.14a5.15 5.15 0 0 1 4 5.07c0 3.89-3.56 6.07-7.7 6.07a8.94 8.94 0 0 1 -7.11-2.92z"/><path d="m404.13 255.11c0-7.17 3-10.69 7.36-10.69s7.39 3.58 7.39 10.69-3 10.92-7.39 10.92-7.36-3.75-7.36-10.92zm10.05 0c0-5.68-1.21-6.86-2.69-6.86s-2.66 1.18-2.66 6.86 1.18 7.06 2.66 7.06 2.69-1.35 2.69-7.06z"/><path d="m428.4 255.78h7.93v3.5h-7.93z"/><path d="m82.86 349.26c1.26.87 4.16 3.18 5 3.81l-2.42 3a33.45 33.45 0 0 0 -2.55-2.73v7.46h-4v-7a24.53 24.53 0 0 1 -4.44 4.93 15.39 15.39 0 0 0 -2.7-2.94 22.88 22.88 0 0 0 6.25-6.79h-5.33v-3.5h6.16v-2.7h-6.26v-3.43h3.22a15.9 15.9 0 0 0 -1.05-3.85l2.13-.49h-3.87v-3.39h5.88v-3.19h4v3.19h5.81v3.36h-3.63l2 .39c-.63 1.5-1.19 2.9-1.68 4h3.62v3.43h-6.14v2.7h5.77v3.48h-5.77zm-4.86-14.26a14 14 0 0 1 1.19 3.85l-1.75.49h6.86l-2.3-.48a26.75 26.75 0 0 0 1.31-3.86zm26.81 8.51h-3.32v17.11h-4v-17.1h-3.57c0 5.21-.77 12.6-5.39 17.4a9.51 9.51 0 0 0 -3-2.84c4-4.27 4.45-10.22 4.45-15.05v-12.15l2.45.7a40.13 40.13 0 0 0 8.89-3.08l3.33 3.05a57.25 57.25 0 0 1 -10.75 3.22v4.9h10.92z"/><path d="m112.75 344.32a23.5 23.5 0 0 0 -5.64-3.5l2.28-3a20.61 20.61 0 0 1 5.81 3.18zm-4.94 13.86a109 109 0 0 0 5-11.23l3.33 2.27c-1.33 3.75-3 7.81-4.55 11.24zm6.55-23.1a22.37 22.37 0 0 0 -5.64-3.67l2.38-3.08a26.68 26.68 0 0 1 5.74 3.39zm15.43 13.55c-.07.63-.13 1.26-.24 1.85h7v3.26h-5.64c1.71 2 4.41 3.15 8.26 3.6a15.33 15.33 0 0 0 -2.38 3.5c-4.3-.8-7.1-2.48-9-5.21-1.57 2.38-4.3 4.09-9.24 5.21a10.17 10.17 0 0 0 -2.1-3.25c4.24-.84 6.51-2.07 7.77-3.85h-5v-3.19a11.74 11.74 0 0 1 -1.08.77 19.65 19.65 0 0 0 -3-3.08 16.36 16.36 0 0 0 5.22-4.51h-4.13v-3.36h6.16c.24-.53.45-1.05.66-1.61h-4.93v-3.08h5.88c.14-.49.25-1 .35-1.47h-6.86v-3.21h7.46c.1-.91.21-1.85.31-2.83l4 .31c-.1.88-.21 1.72-.35 2.52h9.84v3.26h-10.4c-.11.49-.21 1-.32 1.47h10.05v3.08h-5.35c.17.56.42 1.08.63 1.61h6.3v3.36h-4.31a13.36 13.36 0 0 0 5 4.16 14.12 14.12 0 0 0 -2.66 3.29 15.34 15.34 0 0 1 -4.59-3.88v1.33zm-4.34 1.85c.11-.59.21-1.19.28-1.85h-3.22v-1.16a21.18 21.18 0 0 1 -3.18 3zm-.38-6.75c-.35.59-.7 1.19-1 1.75h7.84a17.72 17.72 0 0 1 -1-1.75zm2.1-5c-.18.56-.39 1.08-.56 1.61h2.87c-.21-.53-.35-1.05-.52-1.61z"/><path d="m171.45 341.84a41.43 41.43 0 0 1 -5.36 1.4c.87 1.85 1.86 3.88 2.87 5.77l-2.06 2.63c-1.93-.35-5.26-.88-7.57-1.16l.39-3.32c1.36.17 2.73.28 3.67.38l-1.57-3.6a87.63 87.63 0 0 1 -15.23.21l-.17-4a70.3 70.3 0 0 0 13.82.07l-.59-1.37-.84-2a68.78 68.78 0 0 1 -11.94-.14l-.21-3.95a64.65 64.65 0 0 0 10.5.38 30.84 30.84 0 0 0 -1.68-3l4.94-.94a29.2 29.2 0 0 0 1.08 3.46 41.58 41.58 0 0 0 6.66-1.61l.73 3.89a52 52 0 0 1 -5.95 1.4l.66 1.5.81 1.75a37.24 37.24 0 0 0 6.2-1.71zm-19.45 6.51a10.14 10.14 0 0 0 -.84 3.36c0 2.17 1.54 3.64 6 3.64a50.54 50.54 0 0 0 9.18-.77l-.15 4.45a62.14 62.14 0 0 1 -8.92.66c-6.48 0-10.47-2.21-10.47-7a18.24 18.24 0 0 1 .84-4.73z"/><path d="m184.85 342c2.34-.7 8.22-2.69 12.42-2.69 5.47 0 9.14 3.25 9.14 8.5 0 6.27-5.49 10.57-16.52 11.24l-1.82-4.31c7.87-.21 13.76-2.27 13.76-7 0-2.59-2-4.41-5-4.41-4 0-10.92 2.87-13.89 4.13l-1.79-4.55a28.62 28.62 0 0 0 3.7-.91z"/><path d="m239.38 337.43c-1 .63-2.17 1.22-3.43 1.85a107.62 107.62 0 0 0 -9.66 5.15c-2.91 1.89-4.83 3.88-4.83 6.3s2.41 3.81 7.21 3.81a58 58 0 0 0 11.33-1.26l-.07 5a67.83 67.83 0 0 1 -11.13.84c-6.9 0-12.11-1.92-12.11-7.88 0-3.85 2.41-6.68 5.74-9.13-1.61-3-3.29-6.65-4.87-10.33l4.44-1.78a81.63 81.63 0 0 0 4.34 9.59c2.83-1.65 5.84-3.19 7.49-4.1a22.76 22.76 0 0 0 3.18-2.1z"/><path d="m276.45 341.84a41.43 41.43 0 0 1 -5.36 1.4c.87 1.85 1.86 3.88 2.87 5.77l-2.06 2.63c-1.93-.35-5.26-.88-7.57-1.16l.39-3.32c1.36.17 2.73.28 3.67.38l-1.57-3.6a87.63 87.63 0 0 1 -15.23.21l-.17-4a70.3 70.3 0 0 0 13.82.07l-.59-1.37-.84-2a68.78 68.78 0 0 1 -11.94-.14l-.21-3.95a64.65 64.65 0 0 0 10.5.38 30.84 30.84 0 0 0 -1.68-3l4.94-.94a29.2 29.2 0 0 0 1.08 3.46 41.58 41.58 0 0 0 6.66-1.61l.73 3.89a52 52 0 0 1 -5.95 1.4l.66 1.5.81 1.75a37.24 37.24 0 0 0 6.2-1.71zm-19.45 6.51a10.14 10.14 0 0 0 -.84 3.36c0 2.17 1.54 3.64 6.05 3.64a50.54 50.54 0 0 0 9.18-.77l-.15 4.45a62.14 62.14 0 0 1 -8.92.66c-6.48 0-10.47-2.21-10.47-7a18.24 18.24 0 0 1 .84-4.73z"/><path d="m309.38 337.43c-1.05.63-2.17 1.22-3.43 1.85a107.62 107.62 0 0 0 -9.66 5.15c-2.91 1.89-4.83 3.88-4.83 6.3s2.41 3.81 7.21 3.81a58 58 0 0 0 11.33-1.26l-.07 5a67.83 67.83 0 0 1 -11.13.84c-6.9 0-12.11-1.92-12.11-7.88 0-3.85 2.41-6.68 5.74-9.13-1.61-3-3.29-6.65-4.87-10.33l4.44-1.78a81.63 81.63 0 0 0 4.34 9.59c2.83-1.65 5.84-3.19 7.49-4.1a22.76 22.76 0 0 0 3.18-2.1z"/><path d="m335.59 336.62v3.68h11v11.83c0 2-.42 3.18-1.85 3.81s-3.47.7-6.2.7a15.25 15.25 0 0 0 -1.4-4.09c1.75.07 3.82.07 4.37.07s.74-.18.74-.56v-7.7h-6.69v16.52h-4.34v-16.52h-6.12v12.28h-4.2v-16.34h10.32v-3.68h-13.58v-4.06h13.58v-4.56h4.44v4.55h13.9v4.06z"/><path d="m370.94 345.69c-.28.56-.63 1.12-1 1.68h14.22s0 .94-.07 1.43c-.49 6.83-1.05 9.63-2 10.65a3.23 3.23 0 0 1 -2.31 1.18 21.25 21.25 0 0 1 -3.54.08 8.21 8.21 0 0 0 -.94-3.26c1.12.1 2 .1 2.48.1a1.23 1.23 0 0 0 1.06-.38c.49-.53.91-2.31 1.29-6.55h-1.36c-1.44 3.92-4.17 8.16-7 10.37a11.61 11.61 0 0 0 -2.94-2.32 19.12 19.12 0 0 0 6.51-8.05h-2.06a26.82 26.82 0 0 1 -8.19 8.79 12.16 12.16 0 0 0 -2.73-2.45 21.12 21.12 0 0 0 7.14-6.34h-2.1a21.94 21.94 0 0 1 -4.06 3.43 14.91 14.91 0 0 0 -2.73-2.45c-2.52 1.26-5 2.52-7.18 3.57l-1.53-4.17c1.19-.45 2.66-1.05 4.31-1.71v-9.87h-3.5v-3.92h3.5v-6.9h3.85v6.9h3.29v3.92h-3.29v8.26l2.8-1.23.73 3a17.15 17.15 0 0 0 3.22-3.71h-3.95v-3.5h22v3.5zm11.56-4.83h-16.56v-11.86h16.56zm-3.85-9h-9v1.68h9zm0 4.41h-9v1.73h9z"/><path d="m426.67 354.19h-18.35v-12.25h7v-1.85h-8.44v-.91h-3.18v1.64c.94 1.26 3.39 5 3.92 5.85l-2.1 3.25c-.39-1.05-1.09-2.55-1.82-4v14.91h-3.85v-12.9a28.09 28.09 0 0 1 -3.19 6.72 20.24 20.24 0 0 0 -1.89-3.71 34.65 34.65 0 0 0 4.83-11.76h-4v-3.85h4.24v-7.18h3.85v7.18h3.53v1.33h4.34v-2.35h-3.67v-3.31h3.67v-2.83h3.89v2.83h3.78v-2.83h3.89v2.83h3.91v3.29h-3.91v2.35h4.72v3.43h-8.72v1.85h7.5zm-10.51 2.31a33.14 33.14 0 0 1 -7.52 4.45 23.67 23.67 0 0 0 -2.77-2.7 26.24 26.24 0 0 0 6.9-4.06zm-4.23-9.8h3.43v-1.89h-3.43zm3.43 4.62v-2h-3.43v2zm.14-14.66h3.78v-2.35h-3.78zm6.23 17.74a56.64 56.64 0 0 1 6.55 4l-3.16 2.49a50.79 50.79 0 0 0 -6.33-4.31zm1.15-9.59h-3.71v1.89h3.71zm0 4.55h-3.71v2h3.71z"/></g><path d="m435.23 299.74h-4.11v-2h4.11zm-9.11 0h-5v-2h5zm-10 0h-5v-2h5zm-10 0h-5v-2h5zm-10 0h-5v-2h5zm-10 0h-5v-2h5zm-10 0h-5v-2h5zm-10 0h-5v-2h5zm-10 0h-5v-2h5zm-10 0h-5v-2h5zm-10 0h-5v-2h5zm-10 0h-5v-2h5zm-10 0h-5v-2h5zm-10 0h-5v-2h5zm-10 0h-5v-2h5zm-10 0h-5v-2h5zm-10 0h-5v-2h5zm-10 0h-5v-2h5zm-10 0h-5v-2h5zm-10 0h-5v-2h5zm-10 0h-5v-2h5zm-10 0h-5v-2h5zm-10 0h-5v-2h5zm-10 0h-5v-2h5zm-10 0h-5v-2h5zm-10 0h-5v-2h5zm-10 0h-5v-2h5zm-10 0h-5v-2h5zm-10 0h-5v-2h5zm-10 0h-5v-2h5zm-10 0h-5v-2h5zm-10 0h-5v-2h5zm-10 0h-5v-2h5zm-10 0h-5v-2h5zm-10 0h-5v-2h5zm-10 0h-5v-2h5zm-10 0h-5v-2h5zm-10 0h-5v-2h5z"/><path d="m445.24 61.91h-49.89v-13.82-1.56h-290.59v1.56 13.82h-49.52l15.38 20-15.38 20h72.78l-23.26-15.38h23.26 244.07.37 22.89l-22.89 15.13v.25h72.78l-15.38-20z" fill="#ff0"/><path d="m172.29 65.34v11h-2.84v-18.34h8v7.33zm0-5.31v.68h2.44v-.71zm2.44 3.26v-.74h-2.44v.74zm6.38 8.71v4h-2.54v-4h-1.4a6.61 6.61 0 0 1 -2.5 4.36 9.71 9.71 0 0 0 -1.84-1.64 4.29 4.29 0 0 0 1.84-2.72h-1.67v-2.36h1.84v-1.14h-1.58v-2.27h9.56v2.27h-1.66v1.14h1.94v2.36zm-2.54-2.34v-1.16h-1.32v1.14zm8.06 3.4c0 1.38-.21 2.16-1 2.64a6.65 6.65 0 0 1 -3.43.54 10 10 0 0 0 -.84-2.86h2s.4-.12.4-.4v-7.58h-5.28v-7.4h8.14zm-5.38-13v.68h2.52v-.74zm2.52 3.32v-.8h-2.52v.8z" fill="#231815"/><path d="m211.46 75.62h-8.73v.64h-2.73v-7.72c-.26.28-.54.56-.8.8a21.83 21.83 0 0 0 -1.8-1.74v8.68h-2.76v-9.72c-.32.4-.66.78-1 1.14a19.34 19.34 0 0 0 -1.52-3.06 20.6 20.6 0 0 0 4.34-7.27l2.74.86a35.65 35.65 0 0 1 -1.82 4v4.77a12.77 12.77 0 0 0 3.24-4.49h-1.28v-4.6h2.66v2.18h1.66v-2.68h2.88v2.68h1.82v-2.18h2.79v4.6h-5l2.29.5-.63 1.18h3.39v2.23h-3.75v.92h3.24v2.06h-3.24v1h3.24v2.06h-3.24v1h4zm-8-12.61c-.16.4-.34.78-.54 1.18h2a16.16 16.16 0 0 0 .44-1.68h-3.64zm1.2 3.41h-1.94v.92h1.94zm0 3h-1.94v1h1.94zm-1.94 4h1.94v-1h-1.94z" fill="#231815"/><path d="m233.25 58.41v17.65h-3.14v-1.32h-8.3v1.32h-3v-17.65zm-11.44 2.94v3.65h8.3v-3.65zm8.3 10.45v-3.9h-8.3v3.9z" fill="#231815"/><path d="m255.92 74.64a24.75 24.75 0 0 1 -2.73-1.7 6.3 6.3 0 0 1 -4.6 1.7c-3.58 0-5.32-1.76-5.32-4.2 0-1.92 1.34-3.1 2.84-4a5.67 5.67 0 0 1 -1.22-3.29 3.8 3.8 0 0 1 4-3.92c2.44 0 4 1.26 4 3.48 0 1.9-1.32 3-2.76 4 .82.72 1.74 1.44 2.62 2.1a8.29 8.29 0 0 0 .86-2.86h3.12a14 14 0 0 1 -1.7 4.54 18.1 18.1 0 0 0 2.38 1.42zm-7-2.68a3.3 3.3 0 0 0 2-.84c-1.12-.92-2.24-1.88-3.2-2.84a2.7 2.7 0 0 0 -1.3 2.08c.01 1.1 1.07 1.64 2.49 1.64zm-.34-7c1-.63 1.7-1.29 1.7-2.19a1.15 1.15 0 0 0 -1.28-1.26c-.8 0-1.32.48-1.32 1.48a3.46 3.46 0 0 0 .89 2.01z" fill="#231815"/><path d="m268.29 65.34v11h-2.84v-18.34h8v7.33zm0-5.31v.68h2.44v-.71zm2.44 3.26v-.74h-2.44v.74zm6.38 8.71v4h-2.54v-4h-1.4a6.61 6.61 0 0 1 -2.5 4.36 9.71 9.71 0 0 0 -1.84-1.64 4.29 4.29 0 0 0 1.84-2.72h-1.67v-2.36h1.84v-1.14h-1.58v-2.27h9.56v2.27h-1.66v1.14h1.94v2.36zm-2.54-2.34v-1.16h-1.32v1.14zm8.06 3.4c0 1.38-.21 2.16-1 2.64a6.65 6.65 0 0 1 -3.43.54 10 10 0 0 0 -.84-2.86h2s.4-.12.4-.4v-7.58h-5.28v-7.4h8.14zm-5.38-13v.68h2.52v-.74zm2.52 3.32v-.8h-2.52v.8z" fill="#231815"/><path d="m307.46 75.62h-8.73v.64h-2.73v-7.72c-.26.28-.54.56-.8.8a21.83 21.83 0 0 0 -1.8-1.74v8.68h-2.76v-9.72c-.32.4-.66.78-1 1.14a19.34 19.34 0 0 0 -1.52-3.06 20.6 20.6 0 0 0 4.34-7.27l2.74.86a35.65 35.65 0 0 1 -1.82 4v4.77a12.77 12.77 0 0 0 3.24-4.49h-1.28v-4.6h2.66v2.18h1.66v-2.68h2.88v2.68h1.82v-2.18h2.79v4.6h-5l2.29.5-.63 1.18h3.39v2.23h-3.75v.92h3.24v2.06h-3.24v1h3.24v2.06h-3.24v1h4zm-8-12.61c-.16.4-.34.78-.54 1.18h2a16.16 16.16 0 0 0 .44-1.68h-3.64zm1.2 3.41h-1.94v.92h1.94zm0 3h-1.94v1h1.94zm-1.94 4h1.94v-1h-1.94z" fill="#231815"/><path d="m319.11 68 .66 2.56c-2.12 1.1-4.44 2.22-6.34 3.1l-1.16-2.92c.7-.24 1.56-.58 2.52-.94v-5.23h-2.2v-2.74h2.2v-4.24h2.7v4.24h1.86v2.74h-1.86v4.13zm8.64 5.34c1 0 1.25-.4 1.42-2.32a8.33 8.33 0 0 0 2.53 1c-.34 2.88-1.18 3.86-3.67 3.86h-3.92c-3 0-3.8-.84-3.8-3.94v-4.5l-.8.36-1.08-2.57 1.88-.79v-5.17h2.76v4l1.08-.46v-5.5h2.72v4.32l1-.42.46-.3.52-.34 2 .72-.11.46c0 3.87 0 6-.09 6.79a1.93 1.93 0 0 1 -1 1.86 4.86 4.86 0 0 1 -2.21.36 8.87 8.87 0 0 0 -.58-2.36v3.14h-2.72v-5.78l-1.08.47v5.77c0 1.22.14 1.36 1.32 1.36zm-.88-8.79v3.77h.74s.31-.06.35-.36 0-1.36 0-3.93z" fill="#231815"/><path d="m128.02 101.91v-15.38h-23.26z" fill="#e7a52d"/><path d="m372.46 86.53h-.37v15.38l.37-.25 22.89-15.13z" fill="#e7a52d"/></svg>