<svg viewBox="0 0 296.92 53.5" xmlns="http://www.w3.org/2000/svg"><path d="m271.92 3.5a25.07 25.07 0 0 1 25 25 25.07 25.07 0 0 1 -25 25h-243.42a25.07 25.07 0 0 1 -25-25 25.07 25.07 0 0 1 25-25z" fill="#009ee2"/><path d="m268.42 1.5a23.5 23.5 0 0 1 0 47h-243.42a23.5 23.5 0 0 1 0-47zm0-1.5h-243.42a25 25 0 0 0 0 50h243.42a25 25 0 0 0 0-50z"/><text/><g fill="#ff0"><path d="m52.32 22.65a19.45 19.45 0 0 1 -3 1.69 10.25 10.25 0 0 0 -1.55-2.2 17.06 17.06 0 0 0 7.23-5.87h2.77a15.24 15.24 0 0 0 7.49 5.48 12.91 12.91 0 0 0 -1.69 2.39 20.69 20.69 0 0 1 -2.9-1.64v1.5h-8.35zm8 4.84a23 23 0 0 1 3.8 4.38l-2.45 1.47a11.33 11.33 0 0 0 -.67-1.06c-4.14.23-8.5.43-11.58.58l-.32-2.56 2.76-.09a25.54 25.54 0 0 0 1.06-2.72h-3.87v-2.43h15v2.43zm-.94-5.91a15.11 15.11 0 0 1 -2.88-2.8 16.74 16.74 0 0 1 -2.75 2.8zm-3.24 5.91c-.45.88-.92 1.8-1.37 2.63l4.4-.16c-.47-.53-1-1-1.43-1.48l1.91-1z"/><path d="m79.1 25.6a6.44 6.44 0 0 1 -.36.63h7.13s0 .58-.05.86c-.24 3.41-.52 4.88-1 5.44a1.92 1.92 0 0 1 -1.3.68 9.91 9.91 0 0 1 -1.85.08 5.34 5.34 0 0 0 -.43-1.75 9 9 0 0 1 -1.75 1.87 8.7 8.7 0 0 0 -1.86-1.41 9.61 9.61 0 0 0 3.22-3.71h-.63a14 14 0 0 1 -4.14 4.34 7.64 7.64 0 0 0 -1.71-1.53 10.89 10.89 0 0 0 3.42-2.81h-.63a11.19 11.19 0 0 1 -1.91 1.59 15.2 15.2 0 0 0 -1.33-1.26c-1.41.72-2.83 1.42-4 2l-1-2.64c.58-.2 1.3-.47 2.09-.78v-4.77h-1.67v-2.43h1.66v-3.49h2.43v3.49h1.51v2.47h-1.51v3.76l1.21-.5.36 1.53a9.09 9.09 0 0 0 1.5-1.66h-1.74v-2.18h11.44v2.18zm5.9-2.68h-8.76v-6.27h8.76zm-2.41-4.5h-4v.58h4zm0 2.19h-4v.54h4zm.41 7.65a15.14 15.14 0 0 1 -1.63 3h.83a.58.58 0 0 0 .52-.22c.21-.23.41-1 .57-2.83z"/><path d="m106.05 20.32a10.65 10.65 0 0 0 -.7.87 31.11 31.11 0 0 1 -5.91 6.89c1 1 2 2.06 2.65 2.88l-2.58 2.04a48.81 48.81 0 0 0 -3.51-4 38.23 38.23 0 0 0 -3.88-3.4l2.31-1.87c.75.57 1.8 1.4 2.86 2.34a18.65 18.65 0 0 0 4-4.59h-8.94a19.36 19.36 0 0 0 -2.22.16v-3.06a16.19 16.19 0 0 0 2.22.2h9.56a7.19 7.19 0 0 0 2-.24z"/><path d="m114.79 25.87-2.67 1a33.29 33.29 0 0 0 -1.65-4.2l2.63-.93c.5 1 1.33 3.09 1.69 4.13zm9.2-3.64c-.25.7-.38 1.14-.51 1.57a14.57 14.57 0 0 1 -2.41 5.11 14.22 14.22 0 0 1 -6.07 4.59l-2.29-2.34a12.07 12.07 0 0 0 6-3.74 12 12 0 0 0 2.2-6.18zm-5.21 2.5-2.61.9a32.91 32.91 0 0 0 -1.49-4l2.59-.84c.36.76 1.24 3.1 1.51 3.94z"/><path d="m139.41 18.59a8.2 8.2 0 0 0 1.29-.09 1.77 1.77 0 0 1 0-.23 2.23 2.23 0 1 1 2.3 2.23c-.09.27-.16.54-.21.76a19.14 19.14 0 0 1 -2.79 6.52 14.78 14.78 0 0 1 -7.33 5.06l-2.38-2.61a11.8 11.8 0 0 0 7.08-4.16 10.15 10.15 0 0 0 2-4.65h-7.92c-.89 0-1.88.06-2.34.09v-3.08c.55.07 1.74.16 2.34.16zm4.46-.32a1 1 0 0 0 -1.91 0 1 1 0 1 0 1.91 0z"/><path d="m157.23 22.27a2.52 2.52 0 1 1 -2.52 2.52 2.53 2.53 0 0 1 2.52-2.52z"/><path d="m186.35 19.44c-.21.27-.63.79-.81 1.08a18.76 18.76 0 0 1 -4.25 4.94l-2.29-1.81a9.52 9.52 0 0 0 3-3h-8.89a21.9 21.9 0 0 0 -2.29.15v-3a15.48 15.48 0 0 0 2.29.2h9.34a12.32 12.32 0 0 0 2.17-.18zm-7.41 2.45c0 4.23.09 8.12-5 11l-2.54-2.07a7.16 7.16 0 0 0 2.05-1.1c2-1.51 2.45-3.05 2.45-6a11.09 11.09 0 0 0 -.14-1.8z"/><path d="m204.52 20.47a8.06 8.06 0 0 0 -.7 1.47 18.76 18.76 0 0 1 -3.11 5.91 17.43 17.43 0 0 1 -7.31 5.15l-2.6-2.31a14.55 14.55 0 0 0 7.3-4.43 11.51 11.51 0 0 0 2.37-4.5h-4.47a22.28 22.28 0 0 1 -4.54 4.3l-2.46-1.77a16.36 16.36 0 0 0 5.6-5.64 9.36 9.36 0 0 0 1-2.14l3.18 1c-.41.58-.84 1.32-1.11 1.78h2.9a7 7 0 0 0 1.78-.23z"/><path d="m218 26.32a14.94 14.94 0 0 0 2.68-3.3l-4.81 1v4.43c0 1.06.24 1.44 2.11 1.44a30.91 30.91 0 0 0 5.72-.63l-.09 3a45.87 45.87 0 0 1 -5.54.4c-4.52 0-5.1-1.05-5.1-3.39v-4.7c-1.49.31-2.81.58-3.58.76l-.52-2.85c.86-.1 2.39-.36 4.1-.66v-2.27a18.62 18.62 0 0 0 -.16-2.31h3.24a18.21 18.21 0 0 0 -.18 2.31v1.73c2.34-.43 4.54-.88 5.37-1.08a6.56 6.56 0 0 0 1.46-.49l2.1 1.64c-.18.29-.48.76-.66 1.12a24.92 24.92 0 0 1 -3.75 5.25z"/><path d="m243.29 19.33a10 10 0 0 0 -.73 1.32 28.4 28.4 0 0 1 -2.72 4.75 48.65 48.65 0 0 1 4.89 5l-2.5 2.18a35.69 35.69 0 0 0 -4.3-4.93 24.05 24.05 0 0 1 -6.61 4.91l-2.27-2.35a20.26 20.26 0 0 0 7.37-5.06 13.36 13.36 0 0 0 2.52-4.07h-5.6c-.81 0-1.8.11-2.31.14v-3.1a21.59 21.59 0 0 0 2.31.15h6a7.74 7.74 0 0 0 2.16-.27z"/></g></svg>