<svg viewBox="0 0 263.16 132.08" xmlns="http://www.w3.org/2000/svg"><g fill="#fff"><path d="m99.24 131.56a11 11 0 0 1 -.36-2.47 8.3 8.3 0 0 1 1.74-4.81c.73-.86.86-.92 3.85-2.67 2.08-1.18 2.94-2.83 2.94-5.56 0-3.43-1.09-5.11-3.3-5.11a4 4 0 0 0 -3.55 2.24 2.68 2.68 0 0 0 -.3 1.52 2.38 2.38 0 0 1 1.94-1 2.49 2.49 0 0 1 2.7 2.7 2.6 2.6 0 0 1 -2.76 2.73 3 3 0 0 1 -3-3.09 6 6 0 0 1 1.68-4 6.77 6.77 0 0 1 5-1.74c4.19 0 7.15 2.27 7.15 5.53a4.7 4.7 0 0 1 -1.71 3.69c-1 .85-2.18 1.38-4.88 2.17a13.14 13.14 0 0 0 -4.74 2.14 7.13 7.13 0 0 0 -2.37 4.91v.92l.07-.13c.79-2.27 3.1-3.56 6.32-3.56.63 0 1.35 0 2.08.1.89.07 1.81.1 2.17.1a3.76 3.76 0 0 0 2.77-.92 4 4 0 0 0 .59-2.11h.26c-.19 3.4-.46 4.88-1 6a4.36 4.36 0 0 1 -4.11 2.63 5.39 5.39 0 0 1 -2.51-.65 23.55 23.55 0 0 1 -2.37-2 2.79 2.79 0 0 0 -1.81-.69 2 2 0 0 0 -2.24 2 8.69 8.69 0 0 0 .1 1.06z"/><path d="m130 112.89c1.65 1.77 2.67 4.9 2.67 8.16 0 6.06-3.43 11-7.61 11-4.61 0-7.84-4.44-7.84-10.76a12.75 12.75 0 0 1 1.78-7.19 7.38 7.38 0 0 1 6-3.65 7.17 7.17 0 0 1 5 2.44zm-7.15-.6c-.33.92-.49 3-.49 6.46 0 5.83.23 10.27.63 11.42s1 1.59 1.84 1.59a1.94 1.94 0 0 0 1.84-1.39c.43-1 .63-3.92.63-8.86a54.3 54.3 0 0 0 -.49-8.79c-.3-1.28-1.06-2-2.08-2a2.16 2.16 0 0 0 -1.92 1.57z"/><path d="m136.72 131.56a11.68 11.68 0 0 1 -.36-2.47 8.37 8.37 0 0 1 1.74-4.81c.73-.86.86-.92 3.86-2.67 2.07-1.18 2.93-2.83 2.93-5.56 0-3.43-1.09-5.11-3.29-5.11a4 4 0 0 0 -3.56 2.24 2.77 2.77 0 0 0 -.3 1.52 2.41 2.41 0 0 1 1.95-1 2.5 2.5 0 0 1 2.7 2.7 2.6 2.6 0 0 1 -2.77 2.73 3 3 0 0 1 -3-3.09 6 6 0 0 1 1.67-4 6.81 6.81 0 0 1 5-1.74c4.18 0 7.14 2.27 7.14 5.53a4.7 4.7 0 0 1 -1.71 3.69c-1 .85-2.17 1.38-4.87 2.17a13 13 0 0 0 -4.74 2.14 7.11 7.11 0 0 0 -2.38 4.91 8.8 8.8 0 0 0 0 .92l.06-.13c.79-2.27 3.1-3.56 6.33-3.56.62 0 1.35 0 2.07.1.89.07 1.81.1 2.17.1a3.76 3.76 0 0 0 2.77-.92 4 4 0 0 0 .59-2.11h.27c-.2 3.4-.46 4.88-1 6a4.38 4.38 0 0 1 -4.12 2.63 5.32 5.32 0 0 1 -2.5-.65 23.55 23.55 0 0 1 -2.37-2 2.84 2.84 0 0 0 -1.82-.69 2 2 0 0 0 -2.24 2c0 .2 0 .56.1 1.06z"/><path d="m167.44 112.89c1.65 1.77 2.67 4.9 2.67 8.16 0 6.06-3.42 11-7.61 11-4.61 0-7.83-4.44-7.83-10.76a12.75 12.75 0 0 1 1.81-7.22 7.37 7.37 0 0 1 6-3.65 7.15 7.15 0 0 1 4.96 2.47zm-7.14-.6c-.33.92-.5 3-.5 6.46 0 5.83.23 10.27.63 11.42s.95 1.59 1.84 1.59a2 2 0 0 0 1.85-1.39c.43-1 .62-3.92.62-8.86a53.12 53.12 0 0 0 -.49-8.79c-.3-1.28-1.06-2-2.08-2a2.14 2.14 0 0 0 -1.87 1.57z"/><path d="m36.93 33.69c-12.71-5.83-20 7.86-20 36.23s7.31 42 20 36.15c12.71-5.42 20.15-18.77 20.15-36.22s-7.44-30.78-20.15-36.16zm1.07 67.13c-6.27 2.53-10.32-13.64-10.32-37.25.11-19.39 3.21-27.23 8-25.41 6.32 2.47 10.38 17.09 10.38 36.9 0 15.59-3.23 24.03-8.06 25.76z"/><path d="m72.65 46.19c-.42-.74-.74-1.27-1.54-1.42q-6.81-1.27-13.6-3c-.48-.12-.64 0-.64.67a1.05 1.05 0 0 0 .58 1.05c2.13 1.39 3.51 1.68 4.36 5.1v40.58a7.38 7.38 0 0 1 -4.36 7 1 1 0 0 0 -.58 1c0 .68.16.8.64.67q6-1.51 12.11-2.71c.48-.09.64-.25.64-.86s-.27-.7-.59-.71c-2.92-.12-4.89-1.78-4.89-4.91v-36.32a312.34 312.34 0 0 0 23.76 39.28c1 1.31 1.65 1.52 2.88 1.37.59-.07.64-.43.64-1.66v-37.2c0-2.54 1.66-4.07 4.65-4.42.32 0 .59-.12.59-.64s-.16-.64-.64-.69q-6.22-.6-12.44-1.46c-.48-.07-.64 0-.64.59a.72.72 0 0 0 .58.81c2.94 1 4.91 2.94 4.91 5.56v19.35c-5.48-8.12-10.95-16.94-16.42-27.03z"/><path d="m99.87 89.64a.66.66 0 0 0 -.59.73c0 .51.16.61.64.57q7.59-.68 15.19-1c3.16-.13 7.61-.22 15.1-.1.54 0 .75-.11.86-1 .27-2.12 1.34-7.63 2.09-10.44a1.08 1.08 0 0 0 .05-.37c0-.26-.16-.37-.43-.42a1.43 1.43 0 0 0 -.43-.11c-.32 0-.42.21-.64.58-2.46 4.93-5.41 7.49-8.73 8.83a14.33 14.33 0 0 1 -4.28.65 13.89 13.89 0 0 1 -2.84-.18c-.64-.13-1.76-.36-1.76-1.77v-15.49c1.23 0 2.89 0 3.42.11a4.75 4.75 0 0 1 2.48 1.28 21.93 21.93 0 0 1 3.64 5.9c.16.48.37.63.85.47s.59-.22.59-.54a2.43 2.43 0 0 1 0-.26 51.56 51.56 0 0 1 -.86-8 54.49 54.49 0 0 1 .86-8 2 2 0 0 1 0-.26c0-.32-.21-.43-.59-.54a.91.91 0 0 0 -.37-.06q-.33 0-.48.48a25.1 25.1 0 0 1 -3.64 5.94 4.81 4.81 0 0 1 -2.48 1.36c-.53 0-2.19.1-3.42.1v-16.48q2.36.1 4.71.18c4.65.15 9 3.37 11.08 8.88.11.37.22.58.59.58a1.73 1.73 0 0 0 .43-.1c.21 0 .27-.16.27-.37v-.32c-.43-2.6-1.18-7.9-1.34-10-.11-.74-.54-1-1-1h-.16a66.75 66.75 0 0 1 -9.31.34q-9.75-.31-19.48-1.16c-.48 0-.64.06-.64.57a.66.66 0 0 0 .59.73c3 .59 3.85.91 3.85 2.42v34.85c.03 1.51-.83 1.83-3.82 2.42z"/><path d="m144.19 88.55c-.32 0-.59.14-.59.62s.16.59.64.61q9 .3 18 1.07c.48 0 .64-.06.64-.57a.64.64 0 0 0 -.59-.72c-3-.58-3.85-.9-3.85-2.41v-16.4c1.24 0 4.5 0 5 .08a4.64 4.64 0 0 1 2.46 1.38 23.6 23.6 0 0 1 3.63 6.52c.16.53.38.72.86.57s.58-.21.58-.56c0-.06 0-.18 0-.3a63 63 0 0 1 -.85-8.86 66.69 66.69 0 0 1 .85-8.81c0-.12 0-.24 0-.3 0-.35-.21-.46-.58-.56a1.09 1.09 0 0 0 -.38 0c-.21 0-.37.2-.48.55a27 27 0 0 1 -3.53 6.54 4.67 4.67 0 0 1 -2.51 1.44c-.54.07-3.79.08-5 .08v-17.4q2.9-.19 5.78-.43c4.65-.39 9 2.63 11.06 8.79.1.41.21.65.58.63a1.71 1.71 0 0 0 .43-.15c.21-.07.27-.2.27-.44v-.36c-.43-2.95-1.18-8.9-1.34-11.28-.11-.83-.53-1-1-1h-.16a57.37 57.37 0 0 1 -9.29 1.59q-10.28 1-20.55 1.29c-.48 0-.64.12-.64.61s.27.58.59.62c3 .22 3.86.45 3.86 1.91v33.74c-.03 1.46-.89 1.68-3.89 1.91z"/><path d="m178.94 91.31c-.32 0-.58.11-.58.66s.15.7.64.76c5 .71 10.09 1.56 15.12 2.56 3.14.65 7.56 1.65 15 3.88.53.15.74 0 .85-1.25.26-3 1.32-11 2.06-15.15a1.89 1.89 0 0 0 .05-.55.65.65 0 0 0 -.42-.69 1.53 1.53 0 0 0 -.42-.2c-.32 0-.43.27-.64.79-2.44 7-5.35 10-8.64 11.08a10.16 10.16 0 0 1 -4.25-.12 12.76 12.76 0 0 1 -2.82-.87 2.64 2.64 0 0 1 -1.76-2.6v-19.37c1.23 0 2.87.08 3.41.15a4.43 4.43 0 0 1 2.46 1.72 31.66 31.66 0 0 1 3.61 8.19c.16.68.37.92.85.75s.59-.24.59-.69a3.57 3.57 0 0 1 -.05-.36 102.73 102.73 0 0 1 -.85-11.18 109.3 109.3 0 0 1 .85-11.12 3.57 3.57 0 0 1 .06-.37c0-.45-.22-.57-.59-.68a.82.82 0 0 0 -.37 0c-.21 0-.37.26-.48.71a36.74 36.74 0 0 1 -3.62 8.29 4.56 4.56 0 0 1 -2.49 1.82c-.54.08-2.18.18-3.41.19v-20.58c1.56-.27 3.12-.56 4.68-.86 4.63-.92 8.92 2.48 11 10.33.11.53.21.83.58.78a1.23 1.23 0 0 0 .43-.2c.21-.1.26-.27.26-.58v-.47c-.42-3.8-1.16-11.41-1.32-14.44-.11-1.06-.53-1.25-1-1.14h-.16a49 49 0 0 1 -9.23 3c-6.45 1.39-12.91 2.5-19.38 3.4-.49.07-.64.21-.64.76s.26.64.58.66c3 0 3.84.16 3.84 1.87v39.26c.04 1.71-.81 1.89-3.8 1.86z"/><path d="m230 102.59c-3.58-1.41-10.18-9.88-13.46-21.82-.1-.59-.21-.93-.58-1a1.24 1.24 0 0 0 -.42.12.68.68 0 0 0 -.42.7v.5c.69 4.41 1.37 13 1.53 16.35a2.55 2.55 0 0 0 1 1.89 44.76 44.76 0 0 0 11.87 8c11.17 5.07 16.7-1.1 16.7-18.15 0-16.49-5.17-26.53-13.8-30-7.5-3.18-10.36-6.18-10.36-11.07 0-5.08 2.54-9.22 8.23-11.33 4.32-1.69 10 3.54 12 14.68.11.75.21 1.17.53 1.11a1.68 1.68 0 0 0 .42-.31c.26-.17.31-.41.31-.86v-.67c-.47-5.42-1.15-16.25-1.31-20.57-.05-1.3-.16-1.69-.58-1.49a6.22 6.22 0 0 0 -.68.55 8 8 0 0 1 -1.94 1.23 3.53 3.53 0 0 1 -1 .35 22.21 22.21 0 0 0 -7.89 1.3c-9.69 4.23-15 12.76-15 23.13 0 11 4.45 16.21 13.73 22.9a21.7 21.7 0 0 1 8.84 17c.04 6.6-2.95 9.28-7.72 7.46z"/><path d="m245.85 17.52c-25.29 12.67-68 20.24-114.27 20.24s-89-7.57-114.27-20.24a1 1 0 0 0 -1.27.37 1 1 0 0 0 .29 1.3c22.43 15.08 66.58 24.45 115.25 24.45s92.82-9.37 115.24-24.45a1 1 0 0 0 -1-1.67z"/><path d="m246.82 120.94c-22.42-15.09-66.58-24.46-115.24-24.46s-92.82 9.37-115.25 24.46a1 1 0 0 0 1 1.66c25.29-12.67 68-20.24 114.27-20.24s89 7.57 114.27 20.24a1 1 0 0 0 1.27-.37 1 1 0 0 0 -.32-1.29z"/><path d="m4.42 68.87c0 14.13 2.44 27.13 6.47 37.13a147.54 147.54 0 0 1 -4.45-37.13 147.51 147.51 0 0 1 4.45-37.07c-4.03 9.99-6.47 22.93-6.47 37.07z"/><path d="m5.24 38.84c-3.24 8.09-5.24 18.58-5.24 30.03s2 21.94 5.24 30a119.4 119.4 0 0 1 -3.61-30 119.32 119.32 0 0 1 3.61-30.03z"/><path d="m258.73 68.87c0-14.14-2.43-27.08-6.46-37.07a147.51 147.51 0 0 1 4.45 37.07 147.54 147.54 0 0 1 -4.45 37.13c4.03-10 6.46-23 6.46-37.13z"/><path d="m257.92 38.84a119.35 119.35 0 0 1 3.6 30 119.43 119.43 0 0 1 -3.6 30c3.26-8.1 5.24-18.58 5.24-30s-1.98-21.91-5.24-30z"/><path d="m196.77 121.52q2.49-1.51 5.19-2.87a75.55 75.55 0 0 0 -29.46-7.76 74 74 0 0 1 17.5 5.54c-1.67 1.17-3.27 2.4-4.79 3.67a64.64 64.64 0 0 1 24 11.44 62.77 62.77 0 0 0 -12.44-10.02z"/><path d="m61.2 118.65q2.7 1.35 5.19 2.87a63.13 63.13 0 0 0 -12.4 10 64.79 64.79 0 0 1 24.01-11.42c-1.52-1.27-3.11-2.5-4.79-3.67a74.3 74.3 0 0 1 17.46-5.54 75.5 75.5 0 0 0 -29.47 7.76z"/><path d="m70.73 15a75 75 0 0 1 -6.87 3.74 85.91 85.91 0 0 0 35.49 14.11 85.52 85.52 0 0 1 -21.08-9.92 79.38 79.38 0 0 0 6.42-4.86 69.67 69.67 0 0 1 -26.96-18.07 68.28 68.28 0 0 0 13 15z"/><path d="m199.3 18.74a75 75 0 0 1 -6.87-3.74 68.55 68.55 0 0 0 13-15 69.63 69.63 0 0 1 -27 18.07 79.55 79.55 0 0 0 6.43 4.86 85.52 85.52 0 0 1 -21.08 9.92 85.91 85.91 0 0 0 35.52-14.11z"/><path d="m117.17 2.8v7h-.9v-7z"/><path d="m121.47 2.8 2.26 3.9 2.27-3.9h.82v7h-.9v-5l-2.17 3.76-2.18-3.76v5h-.9v-7z"/><path d="m131.18 2.8v7h-.9v-7z"/><path d="m137.7 3.7h-3.3v-.9h4.86l-3.5 6.05h3.3v.91h-4.86z"/><path d="m146.07 2.8h.9v4.9a2.42 2.42 0 0 1 -.69 1.42 2.37 2.37 0 0 1 -4-1.67v-4.65h.9v4.65a1.47 1.47 0 0 0 1.47 1.46 1.47 1.47 0 0 0 1.46-1.46z"/><path d="m115.33 13.17 2.26 3.9 2.25-3.9h.82v7h-.9v-5l-2.17 3.76-2.18-3.76v5h-.9v-7z"/><path d="m127.91 13.17h.9v4.9a2.48 2.48 0 0 1 -.69 1.42 2.37 2.37 0 0 1 -4-1.67v-4.65h.9v4.65a1.45 1.45 0 0 0 1.47 1.45 1.45 1.45 0 0 0 1.46-1.45z"/><path d="m133.78 16.56a3.21 3.21 0 0 1 -1.2-.71 1.59 1.59 0 0 1 -.46-1.14 1.54 1.54 0 0 1 .48-1.14 1.56 1.56 0 0 1 1.15-.48 1.59 1.59 0 0 1 1.15.47 2.13 2.13 0 0 1 .46.83l-.82.32a1.69 1.69 0 0 0 -.27-.52.72.72 0 0 0 -.52-.21.69.69 0 0 0 -.51.21.7.7 0 0 0 -.22.52.69.69 0 0 0 .22.52 2.51 2.51 0 0 0 .66.43 3.49 3.49 0 0 1 1.39.83 2.11 2.11 0 0 1 .64 1.54 2.19 2.19 0 0 1 -2.18 2.17 2.05 2.05 0 0 1 -1.53-.64 2.45 2.45 0 0 1 -.65-1.4l.88-.32a1.78 1.78 0 0 0 .4 1.09 1.29 1.29 0 0 0 1.81 0 1.26 1.26 0 0 0 .34-.93 1.23 1.23 0 0 0 -.37-.9 2.57 2.57 0 0 0 -.85-.54z"/><path d="m139.76 13.17v7h-.9v-7z"/><path d="m148.41 18.47.67.6a3.79 3.79 0 0 1 -2.61 1.13 3.47 3.47 0 0 1 -2.52-1 3.43 3.43 0 0 1 -1-2.51 3.55 3.55 0 0 1 3.56-3.56 3.82 3.82 0 0 1 2.61 1.12l-.67.62a2.91 2.91 0 0 0 -1.94-.83 2.64 2.64 0 0 0 -1.87 4.52 2.55 2.55 0 0 0 1.87.78 2.91 2.91 0 0 0 1.9-.87z"/><path d="m110.68 23.53v.9h-2.45v2.13h2.45v.9h-2.45v3h-.9v-7z"/><path d="m117.38 23.53v.9h-2.85v2.13h2.85v.9h-2.85v2.13h2.85v.9h-3.75v-7z"/><path d="m122.16 26.92a3.07 3.07 0 0 1 -1.2-.7 1.59 1.59 0 0 1 -.46-1.14 1.63 1.63 0 0 1 2.78-1.15 2.06 2.06 0 0 1 .46.83l-.82.32a1.57 1.57 0 0 0 -.27-.52.72.72 0 0 0 -.52-.21.69.69 0 0 0 -.51.21.67.67 0 0 0 -.22.52.7.7 0 0 0 .22.52 2.51 2.51 0 0 0 .66.43 3.38 3.38 0 0 1 1.39.83 2.09 2.09 0 0 1 .64 1.53 2.11 2.11 0 0 1 -.64 1.54 2.09 2.09 0 0 1 -1.54.64 2.05 2.05 0 0 1 -1.53-.64 2.45 2.45 0 0 1 -.65-1.41l.88-.31a1.81 1.81 0 0 0 .4 1.09 1.22 1.22 0 0 0 .9.37 1.19 1.19 0 0 0 .9-.37 1.27 1.27 0 0 0 0-1.81 2.44 2.44 0 0 0 -.87-.57z"/><path d="m129.05 24.43v6.06h-.9v-6.06h-1.62v-.9h4.15v.9z"/><path d="m134.38 23.53v7h-.9v-7z"/><path d="m139.72 30.49-2.53-7h1l1.81 5 1.82-5h1l-2.53 7z"/><path d="m147.4 23.53 2.54 7h-1l-.9-2.46h-1.84l-.89 2.46h-1l2.54-7zm.36 3.6-.6-1.63-.59 1.63z"/><path d="m152.7 30.49v-7h.9v6.06h2.49v.9z"/><path d="m99.24 131.56a11 11 0 0 1 -.36-2.47 8.3 8.3 0 0 1 1.74-4.81c.73-.86.86-.92 3.85-2.67 2.08-1.18 2.94-2.83 2.94-5.56 0-3.43-1.09-5.11-3.3-5.11a4 4 0 0 0 -3.55 2.24 2.68 2.68 0 0 0 -.3 1.52 2.38 2.38 0 0 1 1.94-1 2.49 2.49 0 0 1 2.7 2.7 2.6 2.6 0 0 1 -2.76 2.73 3 3 0 0 1 -3-3.09 6 6 0 0 1 1.68-4 6.77 6.77 0 0 1 5-1.74c4.19 0 7.15 2.27 7.15 5.53a4.7 4.7 0 0 1 -1.71 3.69c-1 .85-2.18 1.38-4.88 2.17a13.14 13.14 0 0 0 -4.74 2.14 7.13 7.13 0 0 0 -2.37 4.91v.92l.07-.13c.79-2.27 3.1-3.56 6.32-3.56.63 0 1.35 0 2.08.1.89.07 1.81.1 2.17.1a3.76 3.76 0 0 0 2.77-.92 4 4 0 0 0 .59-2.11h.26c-.19 3.4-.46 4.88-1 6a4.36 4.36 0 0 1 -4.11 2.63 5.39 5.39 0 0 1 -2.51-.65 23.55 23.55 0 0 1 -2.37-2 2.79 2.79 0 0 0 -1.81-.69 2 2 0 0 0 -2.24 2 8.69 8.69 0 0 0 .1 1.06z"/><path d="m130 112.89c1.65 1.77 2.67 4.9 2.67 8.16 0 6.06-3.43 11-7.61 11-4.61 0-7.84-4.44-7.84-10.76a12.75 12.75 0 0 1 1.78-7.19 7.38 7.38 0 0 1 6-3.65 7.17 7.17 0 0 1 5 2.44zm-7.15-.6c-.33.92-.49 3-.49 6.46 0 5.83.23 10.27.63 11.42s1 1.59 1.84 1.59a1.94 1.94 0 0 0 1.84-1.39c.43-1 .63-3.92.63-8.86a54.3 54.3 0 0 0 -.49-8.79c-.3-1.28-1.06-2-2.08-2a2.16 2.16 0 0 0 -1.92 1.57z"/><path d="m136.72 131.56a11.68 11.68 0 0 1 -.36-2.47 8.37 8.37 0 0 1 1.74-4.81c.73-.86.86-.92 3.86-2.67 2.07-1.18 2.93-2.83 2.93-5.56 0-3.43-1.09-5.11-3.29-5.11a4 4 0 0 0 -3.56 2.24 2.77 2.77 0 0 0 -.3 1.52 2.41 2.41 0 0 1 1.95-1 2.5 2.5 0 0 1 2.7 2.7 2.6 2.6 0 0 1 -2.77 2.73 3 3 0 0 1 -3-3.09 6 6 0 0 1 1.67-4 6.81 6.81 0 0 1 5-1.74c4.18 0 7.14 2.27 7.14 5.53a4.7 4.7 0 0 1 -1.71 3.69c-1 .85-2.17 1.38-4.87 2.17a13 13 0 0 0 -4.74 2.14 7.11 7.11 0 0 0 -2.38 4.91 8.8 8.8 0 0 0 0 .92l.06-.13c.79-2.27 3.1-3.56 6.33-3.56.62 0 1.35 0 2.07.1.89.07 1.81.1 2.17.1a3.76 3.76 0 0 0 2.77-.92 4 4 0 0 0 .59-2.11h.27c-.2 3.4-.46 4.88-1 6a4.38 4.38 0 0 1 -4.12 2.63 5.32 5.32 0 0 1 -2.5-.65 23.55 23.55 0 0 1 -2.37-2 2.84 2.84 0 0 0 -1.82-.69 2 2 0 0 0 -2.24 2c0 .2 0 .56.1 1.06z"/><path d="m167.44 112.89c1.65 1.77 2.67 4.9 2.67 8.16 0 6.06-3.42 11-7.61 11-4.61 0-7.83-4.44-7.83-10.76a12.75 12.75 0 0 1 1.81-7.22 7.37 7.37 0 0 1 6-3.65 7.15 7.15 0 0 1 4.96 2.47zm-7.14-.6c-.33.92-.5 3-.5 6.46 0 5.83.23 10.27.63 11.42s.95 1.59 1.84 1.59a2 2 0 0 0 1.85-1.39c.43-1 .62-3.92.62-8.86a53.12 53.12 0 0 0 -.49-8.79c-.3-1.28-1.06-2-2.08-2a2.14 2.14 0 0 0 -1.87 1.57z"/><path d="m36.93 33.69c-12.71-5.83-20 7.86-20 36.23s7.31 42 20 36.15c12.71-5.42 20.15-18.77 20.15-36.22s-7.44-30.78-20.15-36.16zm1.07 67.13c-6.27 2.53-10.32-13.64-10.32-37.25.11-19.39 3.21-27.23 8-25.41 6.32 2.47 10.38 17.09 10.38 36.9 0 15.59-3.23 24.03-8.06 25.76z"/><path d="m72.65 46.19c-.42-.74-.74-1.27-1.54-1.42q-6.81-1.27-13.6-3c-.48-.12-.64 0-.64.67a1.05 1.05 0 0 0 .58 1.05c2.13 1.39 3.51 1.68 4.36 5.1v40.58a7.38 7.38 0 0 1 -4.36 7 1 1 0 0 0 -.58 1c0 .68.16.8.64.67q6-1.51 12.11-2.71c.48-.09.64-.25.64-.86s-.27-.7-.59-.71c-2.92-.12-4.89-1.78-4.89-4.91v-36.32a312.34 312.34 0 0 0 23.76 39.28c1 1.31 1.65 1.52 2.88 1.37.59-.07.64-.43.64-1.66v-37.2c0-2.54 1.66-4.07 4.65-4.42.32 0 .59-.12.59-.64s-.16-.64-.64-.69q-6.22-.6-12.44-1.46c-.48-.07-.64 0-.64.59a.72.72 0 0 0 .58.81c2.94 1 4.91 2.94 4.91 5.56v19.35c-5.48-8.12-10.95-16.94-16.42-27.03z"/><path d="m99.87 89.64a.66.66 0 0 0 -.59.73c0 .51.16.61.64.57q7.59-.68 15.19-1c3.16-.13 7.61-.22 15.1-.1.54 0 .75-.11.86-1 .27-2.12 1.34-7.63 2.09-10.44a1.08 1.08 0 0 0 .05-.37c0-.26-.16-.37-.43-.42a1.43 1.43 0 0 0 -.43-.11c-.32 0-.42.21-.64.58-2.46 4.93-5.41 7.49-8.73 8.83a14.33 14.33 0 0 1 -4.28.65 13.89 13.89 0 0 1 -2.84-.18c-.64-.13-1.76-.36-1.76-1.77v-15.49c1.23 0 2.89 0 3.42.11a4.75 4.75 0 0 1 2.48 1.28 21.93 21.93 0 0 1 3.64 5.9c.16.48.37.63.85.47s.59-.22.59-.54a2.43 2.43 0 0 1 0-.26 51.56 51.56 0 0 1 -.86-8 54.49 54.49 0 0 1 .86-8 2 2 0 0 1 0-.26c0-.32-.21-.43-.59-.54a.91.91 0 0 0 -.37-.06q-.33 0-.48.48a25.1 25.1 0 0 1 -3.64 5.94 4.81 4.81 0 0 1 -2.48 1.36c-.53 0-2.19.1-3.42.1v-16.48q2.36.1 4.71.18c4.65.15 9 3.37 11.08 8.88.11.37.22.58.59.58a1.73 1.73 0 0 0 .43-.1c.21 0 .27-.16.27-.37v-.32c-.43-2.6-1.18-7.9-1.34-10-.11-.74-.54-1-1-1h-.16a66.75 66.75 0 0 1 -9.31.34q-9.75-.31-19.48-1.16c-.48 0-.64.06-.64.57a.66.66 0 0 0 .59.73c3 .59 3.85.91 3.85 2.42v34.85c.03 1.51-.83 1.83-3.82 2.42z"/><path d="m144.19 88.55c-.32 0-.59.14-.59.62s.16.59.64.61q9 .3 18 1.07c.48 0 .64-.06.64-.57a.64.64 0 0 0 -.59-.72c-3-.58-3.85-.9-3.85-2.41v-16.4c1.24 0 4.5 0 5 .08a4.64 4.64 0 0 1 2.46 1.38 23.6 23.6 0 0 1 3.63 6.52c.16.53.38.72.86.57s.58-.21.58-.56c0-.06 0-.18 0-.3a63 63 0 0 1 -.85-8.86 66.69 66.69 0 0 1 .85-8.81c0-.12 0-.24 0-.3 0-.35-.21-.46-.58-.56a1.09 1.09 0 0 0 -.38 0c-.21 0-.37.2-.48.55a27 27 0 0 1 -3.53 6.54 4.67 4.67 0 0 1 -2.51 1.44c-.54.07-3.79.08-5 .08v-17.4q2.9-.19 5.78-.43c4.65-.39 9 2.63 11.06 8.79.1.41.21.65.58.63a1.71 1.71 0 0 0 .43-.15c.21-.07.27-.2.27-.44v-.36c-.43-2.95-1.18-8.9-1.34-11.28-.11-.83-.53-1-1-1h-.16a57.37 57.37 0 0 1 -9.29 1.59q-10.28 1-20.55 1.29c-.48 0-.64.12-.64.61s.27.58.59.62c3 .22 3.86.45 3.86 1.91v33.74c-.03 1.46-.89 1.68-3.89 1.91z"/><path d="m178.94 91.31c-.32 0-.58.11-.58.66s.15.7.64.76c5 .71 10.09 1.56 15.12 2.56 3.14.65 7.56 1.65 15 3.88.53.15.74 0 .85-1.25.26-3 1.32-11 2.06-15.15a1.89 1.89 0 0 0 .05-.55.65.65 0 0 0 -.42-.69 1.53 1.53 0 0 0 -.42-.2c-.32 0-.43.27-.64.79-2.44 7-5.35 10-8.64 11.08a10.16 10.16 0 0 1 -4.25-.12 12.76 12.76 0 0 1 -2.82-.87 2.64 2.64 0 0 1 -1.76-2.6v-19.37c1.23 0 2.87.08 3.41.15a4.43 4.43 0 0 1 2.46 1.72 31.66 31.66 0 0 1 3.61 8.19c.16.68.37.92.85.75s.59-.24.59-.69a3.57 3.57 0 0 1 -.05-.36 102.73 102.73 0 0 1 -.85-11.18 109.3 109.3 0 0 1 .85-11.12 3.57 3.57 0 0 1 .06-.37c0-.45-.22-.57-.59-.68a.82.82 0 0 0 -.37 0c-.21 0-.37.26-.48.71a36.74 36.74 0 0 1 -3.62 8.29 4.56 4.56 0 0 1 -2.49 1.82c-.54.08-2.18.18-3.41.19v-20.58c1.56-.27 3.12-.56 4.68-.86 4.63-.92 8.92 2.48 11 10.33.11.53.21.83.58.78a1.23 1.23 0 0 0 .43-.2c.21-.1.26-.27.26-.58v-.47c-.42-3.8-1.16-11.41-1.32-14.44-.11-1.06-.53-1.25-1-1.14h-.16a49 49 0 0 1 -9.23 3c-6.45 1.39-12.91 2.5-19.38 3.4-.49.07-.64.21-.64.76s.26.64.58.66c3 0 3.84.16 3.84 1.87v39.26c.04 1.71-.81 1.89-3.8 1.86z"/><path d="m230 102.59c-3.58-1.41-10.18-9.88-13.46-21.82-.1-.59-.21-.93-.58-1a1.24 1.24 0 0 0 -.42.12.68.68 0 0 0 -.42.7v.5c.69 4.41 1.37 13 1.53 16.35a2.55 2.55 0 0 0 1 1.89 44.76 44.76 0 0 0 11.87 8c11.17 5.07 16.7-1.1 16.7-18.15 0-16.49-5.17-26.53-13.8-30-7.5-3.18-10.36-6.18-10.36-11.07 0-5.08 2.54-9.22 8.23-11.33 4.32-1.69 10 3.54 12 14.68.11.75.21 1.17.53 1.11a1.68 1.68 0 0 0 .42-.31c.26-.17.31-.41.31-.86v-.67c-.47-5.42-1.15-16.25-1.31-20.57-.05-1.3-.16-1.69-.58-1.49a6.22 6.22 0 0 0 -.68.55 8 8 0 0 1 -1.94 1.23 3.53 3.53 0 0 1 -1 .35 22.21 22.21 0 0 0 -7.89 1.3c-9.69 4.23-15 12.76-15 23.13 0 11 4.45 16.21 13.73 22.9a21.7 21.7 0 0 1 8.84 17c.04 6.6-2.95 9.28-7.72 7.46z"/><path d="m245.85 17.52c-25.29 12.67-68 20.24-114.27 20.24s-89-7.57-114.27-20.24a1 1 0 0 0 -1.27.37 1 1 0 0 0 .29 1.3c22.43 15.08 66.58 24.45 115.25 24.45s92.82-9.37 115.24-24.45a1 1 0 0 0 -1-1.67z"/><path d="m246.82 120.94c-22.42-15.09-66.58-24.46-115.24-24.46s-92.82 9.37-115.25 24.46a1 1 0 0 0 1 1.66c25.29-12.67 68-20.24 114.27-20.24s89 7.57 114.27 20.24a1 1 0 0 0 1.27-.37 1 1 0 0 0 -.32-1.29z"/><path d="m4.42 68.87c0 14.13 2.44 27.13 6.47 37.13a147.54 147.54 0 0 1 -4.45-37.13 147.51 147.51 0 0 1 4.45-37.07c-4.03 9.99-6.47 22.93-6.47 37.07z"/><path d="m5.24 38.84c-3.24 8.09-5.24 18.58-5.24 30.03s2 21.94 5.24 30a119.4 119.4 0 0 1 -3.61-30 119.32 119.32 0 0 1 3.61-30.03z"/><path d="m258.73 68.87c0-14.14-2.43-27.08-6.46-37.07a147.51 147.51 0 0 1 4.45 37.07 147.54 147.54 0 0 1 -4.45 37.13c4.03-10 6.46-23 6.46-37.13z"/><path d="m257.92 38.84a119.35 119.35 0 0 1 3.6 30 119.43 119.43 0 0 1 -3.6 30c3.26-8.1 5.24-18.58 5.24-30s-1.98-21.91-5.24-30z"/><path d="m196.77 121.52q2.49-1.51 5.19-2.87a75.55 75.55 0 0 0 -29.46-7.76 74 74 0 0 1 17.5 5.54c-1.67 1.17-3.27 2.4-4.79 3.67a64.64 64.64 0 0 1 24 11.44 62.77 62.77 0 0 0 -12.44-10.02z"/><path d="m61.2 118.65q2.7 1.35 5.19 2.87a63.13 63.13 0 0 0 -12.4 10 64.79 64.79 0 0 1 24.01-11.42c-1.52-1.27-3.11-2.5-4.79-3.67a74.3 74.3 0 0 1 17.46-5.54 75.5 75.5 0 0 0 -29.47 7.76z"/><path d="m70.73 15a75 75 0 0 1 -6.87 3.74 85.91 85.91 0 0 0 35.49 14.11 85.52 85.52 0 0 1 -21.08-9.92 79.38 79.38 0 0 0 6.42-4.86 69.67 69.67 0 0 1 -26.96-18.07 68.28 68.28 0 0 0 13 15z"/><path d="m199.3 18.74a75 75 0 0 1 -6.87-3.74 68.55 68.55 0 0 0 13-15 69.63 69.63 0 0 1 -27 18.07 79.55 79.55 0 0 0 6.43 4.86 85.52 85.52 0 0 1 -21.08 9.92 85.91 85.91 0 0 0 35.52-14.11z"/><path d="m117.17 2.8v7h-.9v-7z"/><path d="m121.47 2.8 2.26 3.9 2.27-3.9h.82v7h-.9v-5l-2.17 3.76-2.18-3.76v5h-.9v-7z"/><path d="m131.18 2.8v7h-.9v-7z"/><path d="m137.7 3.7h-3.3v-.9h4.86l-3.5 6.05h3.3v.91h-4.86z"/><path d="m146.07 2.8h.9v4.9a2.42 2.42 0 0 1 -.69 1.42 2.37 2.37 0 0 1 -4-1.67v-4.65h.9v4.65a1.47 1.47 0 0 0 1.47 1.46 1.47 1.47 0 0 0 1.46-1.46z"/><path d="m115.33 13.17 2.26 3.9 2.25-3.9h.82v7h-.9v-5l-2.17 3.76-2.18-3.76v5h-.9v-7z"/><path d="m127.91 13.17h.9v4.9a2.48 2.48 0 0 1 -.69 1.42 2.37 2.37 0 0 1 -4-1.67v-4.65h.9v4.65a1.45 1.45 0 0 0 1.47 1.45 1.45 1.45 0 0 0 1.46-1.45z"/><path d="m133.78 16.56a3.21 3.21 0 0 1 -1.2-.71 1.59 1.59 0 0 1 -.46-1.14 1.54 1.54 0 0 1 .48-1.14 1.56 1.56 0 0 1 1.15-.48 1.59 1.59 0 0 1 1.15.47 2.13 2.13 0 0 1 .46.83l-.82.32a1.69 1.69 0 0 0 -.27-.52.72.72 0 0 0 -.52-.21.69.69 0 0 0 -.51.21.7.7 0 0 0 -.22.52.69.69 0 0 0 .22.52 2.51 2.51 0 0 0 .66.43 3.49 3.49 0 0 1 1.39.83 2.11 2.11 0 0 1 .64 1.54 2.19 2.19 0 0 1 -2.18 2.17 2.05 2.05 0 0 1 -1.53-.64 2.45 2.45 0 0 1 -.65-1.4l.88-.32a1.78 1.78 0 0 0 .4 1.09 1.29 1.29 0 0 0 1.81 0 1.26 1.26 0 0 0 .34-.93 1.23 1.23 0 0 0 -.37-.9 2.57 2.57 0 0 0 -.85-.54z"/><path d="m139.76 13.17v7h-.9v-7z"/><path d="m148.41 18.47.67.6a3.79 3.79 0 0 1 -2.61 1.13 3.47 3.47 0 0 1 -2.52-1 3.43 3.43 0 0 1 -1-2.51 3.55 3.55 0 0 1 3.56-3.56 3.82 3.82 0 0 1 2.61 1.12l-.67.62a2.91 2.91 0 0 0 -1.94-.83 2.64 2.64 0 0 0 -1.87 4.52 2.55 2.55 0 0 0 1.87.78 2.91 2.91 0 0 0 1.9-.87z"/><path d="m110.68 23.53v.9h-2.45v2.13h2.45v.9h-2.45v3h-.9v-7z"/><path d="m117.38 23.53v.9h-2.85v2.13h2.85v.9h-2.85v2.13h2.85v.9h-3.75v-7z"/><path d="m122.16 26.92a3.07 3.07 0 0 1 -1.2-.7 1.59 1.59 0 0 1 -.46-1.14 1.63 1.63 0 0 1 2.78-1.15 2.06 2.06 0 0 1 .46.83l-.82.32a1.57 1.57 0 0 0 -.27-.52.72.72 0 0 0 -.52-.21.69.69 0 0 0 -.51.21.67.67 0 0 0 -.22.52.7.7 0 0 0 .22.52 2.51 2.51 0 0 0 .66.43 3.38 3.38 0 0 1 1.39.83 2.09 2.09 0 0 1 .64 1.53 2.11 2.11 0 0 1 -.64 1.54 2.09 2.09 0 0 1 -1.54.64 2.05 2.05 0 0 1 -1.53-.64 2.45 2.45 0 0 1 -.65-1.41l.88-.31a1.81 1.81 0 0 0 .4 1.09 1.22 1.22 0 0 0 .9.37 1.19 1.19 0 0 0 .9-.37 1.27 1.27 0 0 0 0-1.81 2.44 2.44 0 0 0 -.87-.57z"/><path d="m129.05 24.43v6.06h-.9v-6.06h-1.62v-.9h4.15v.9z"/><path d="m134.38 23.53v7h-.9v-7z"/><path d="m139.72 30.49-2.53-7h1l1.81 5 1.82-5h1l-2.53 7z"/><path d="m147.4 23.53 2.54 7h-1l-.9-2.46h-1.84l-.89 2.46h-1l2.54-7zm.36 3.6-.6-1.63-.59 1.63z"/><path d="m152.7 30.49v-7h.9v6.06h2.49v.9z"/></g></svg>