<svg viewBox="0 0 732 373.38" xmlns="http://www.w3.org/2000/svg"><path d="m302.65 372.75a20.19 20.19 0 0 1 -9.61-2.47l-.22-.12c-1.15-.66-1.15-.66-7.46-6.19a1.92 1.92 0 0 0 -1.09-.41c0 .33.08.84.18 1.59a6 6 0 0 1 -5.94 6.79h-1a6 6 0 0 1 -5.87-4.76 36.76 36.76 0 0 1 -1.12-8 28.52 28.52 0 0 1 6.22-17.05 18.72 18.72 0 0 1 5.3-4.56 14.23 14.23 0 0 1 -10.71-14.07 22.56 22.56 0 0 1 6.29-15.07c4.34-4.34 10.51-6.6 17.92-6.6 14.8 0 25.55 8.89 25.55 21.13a18.68 18.68 0 0 1 -6.17 14.1 6.38 6.38 0 0 1 1.8-.05l.72.09a6 6 0 0 1 5.26 6.31c-.58 10-1.44 14.75-3.39 18.75a17.93 17.93 0 0 1 -16.66 10.59zm-1.31-27.75c2.24.16 4.6.25 5.46.25a8.12 8.12 0 0 0 2.84-.45 21.57 21.57 0 0 0 .39-2.52 6 6 0 0 1 .65-2.12c-2.82 1.63-6.35 3-11.93 4.59l-.16.05c.91.06 1.84.12 2.75.2z" fill="#fff"/><path d="m348.05 373.38c-16.15 0-27.44-14.58-27.44-35.46 0-9.42 2-17.19 6-23.08 5.19-7.9 13.16-12.65 21.29-12.65 6.3 0 13.06 3.2 18.07 8.57 5.57 6 8.9 15.89 8.9 26.42 0 19.97-12.03 36.2-26.82 36.2zm-.79-56.11a107.59 107.59 0 0 0 -.59 13.62c0 13.15.43 21.64.88 26 .32-3 .63-8.53.63-18.46a185.43 185.43 0 0 0 -.92-21.16z" fill="#fff"/><path d="m405.21 372.75a20.2 20.2 0 0 1 -9.62-2.47l-.22-.12c-1.15-.66-1.15-.66-7.45-6.19a1.87 1.87 0 0 0 -1.09-.41c0 .33.08.84.18 1.59a6 6 0 0 1 -5.95 6.79h-1a6 6 0 0 1 -5.87-4.76 36.68 36.68 0 0 1 -1.12-8 28.52 28.52 0 0 1 6.22-17.05 18.81 18.81 0 0 1 5.29-4.56 14.23 14.23 0 0 1 -10.7-14.07 22.6 22.6 0 0 1 6.28-15.07c4.34-4.34 10.52-6.6 17.92-6.6 14.81 0 25.55 8.89 25.55 21.13a18.71 18.71 0 0 1 -6.16 14.1 6.37 6.37 0 0 1 1.8-.05l.72.09a6 6 0 0 1 5.25 6.31c-.58 10-1.44 14.75-3.38 18.76a18 18 0 0 1 -16.65 10.58zm-1.31-27.75c2.23.16 4.6.25 5.45.25a8.19 8.19 0 0 0 2.85-.45 25.29 25.29 0 0 0 .38-2.52 6 6 0 0 1 .66-2.12c-2.82 1.63-6.35 3-11.93 4.59l-.16.05c.91.06 1.85.12 2.75.2z" fill="#fff"/><path d="m450.61 373.38c-16.16 0-27.44-14.58-27.44-35.46 0-9.42 2-17.19 6-23.08 5.2-7.9 13.17-12.65 21.29-12.65 6.3 0 13.06 3.2 18.08 8.57 5.57 6 8.89 15.89 8.89 26.42-.01 19.97-12.04 36.2-26.82 36.2zm-.8-56.1a109.32 109.32 0 0 0 -.59 13.61c0 13.15.43 21.64.88 26a184.42 184.42 0 0 0 .64-18.46 184.5 184.5 0 0 0 -.93-21.15z" fill="#fff"/><path d="m92.14 305.85a30.12 30.12 0 0 1 -16.42-4.76c-24.34-15.57-29.46-65-29.47-103.79s5.13-88.3 29.49-103.92c6.69-4.29 18-7.89 33.71-.7 18.28 7.76 33.3 21.47 43.44 39.65 10 17.93 15.28 40.33 15.28 64.78s-5.28 46.84-15.28 64.81c-10.14 18.2-25.15 32-43.43 39.78a41.31 41.31 0 0 1 -17.32 4.15zm8-190.15a2.19 2.19 0 0 0 -1.33.46c-2.51 1.73-10.75 11.43-11 63.8 0 58 8.9 90.42 17.17 96a2.61 2.61 0 0 0 2.83.32l.2-.08c13.27-4.79 18-36.64 18-64.84 0-58.89-12.71-90.72-24.52-95.38a3.86 3.86 0 0 0 -1.31-.28z" fill="#fff"/><path d="m162.58 279.92a6.72 6.72 0 0 1 -4.23-1.42c-2.76-2.15-2.75-5.45-2.75-6.54a8.53 8.53 0 0 1 4.91-8.21c5.94-3.1 8.6-7.35 8.6-13.78v-110.16c-1.31-4.87-2.68-5.7-6.44-8-.87-.53-1.79-1.08-2.76-1.72l-.16-.11-.13-.09a8.65 8.65 0 0 1 -4-7.68c0-1.08 0-4.38 2.75-6.52a7.21 7.21 0 0 1 6.45-1.14c11.85 3 24.26 5.66 36.87 8 4.94.92 7 4.44 8.31 6.77l.08.14c10.49 19.36 21.57 38.09 33.65 56.82v-33c0-5.48-5.83-8.31-9.34-9.51a7.91 7.91 0 0 1 -5.7-7.93 7.53 7.53 0 0 1 2.43-6 7.4 7.4 0 0 1 6.14-1.59c11 1.52 22.36 2.86 33.8 4a7.82 7.82 0 0 1 .19 15.57c-7.34.88-7.34 4.43-7.34 6.14v101.89c0 2.89 0 9.66-7 10.51-5.71.7-9.45-1-13.35-6a1.77 1.77 0 0 1 -.16-.22 870.8 870.8 0 0 1 -54.1-86.67v75.22c0 3.31.87 7.15 7.64 7.44 4.36.12 7.35 3.31 7.35 7.93 0 4.42-2.41 7.43-6.59 8.26-11.21 2.2-22.26 4.67-32.83 7.34a9.29 9.29 0 0 1 -2.29.26z" fill="#fff"/><path d="m278.9 260.83a7.19 7.19 0 0 1 -4.9-1.83 7.4 7.4 0 0 1 -2.31-5.74 7.72 7.72 0 0 1 6.1-7.83l.35-.08a57.51 57.51 0 0 0 5.69-1.32v-94.1a57.15 57.15 0 0 0 -5.68-1.31l-.36-.09a7.71 7.71 0 0 1 -6.1-7.79 7.44 7.44 0 0 1 2.3-5.76 7.54 7.54 0 0 1 6-1.78c17.25 1.5 35.06 2.56 53 3.14a174.21 174.21 0 0 0 24.66-.91 5.31 5.31 0 0 1 .69 0h.42a8.59 8.59 0 0 1 8.53 7.78c0 .13 0 .26.05.4.42 5.64 2.45 19.92 3.6 26.89a6.37 6.37 0 0 1 .08 1v.86a6.82 6.82 0 0 1 -5 6.77 9.3 9.3 0 0 1 -2.9.54c-1.68 0-5.7-.56-7.3-5.66-4.67-12.15-14.17-19.9-24.84-20.25l-6.69-.22v32.65c1.25 0 2.24-.09 2.73-.13a7.65 7.65 0 0 0 3.27-1.91c2.61-3 7.66-11.5 8.32-13.73l.06-.19a7.34 7.34 0 0 1 7-5.41h.06a8.67 8.67 0 0 1 2.77.43c5.22 1.58 5.81 5.5 5.82 7.17a6.19 6.19 0 0 1 -.23 1.7 2.5 2.5 0 0 1 -.05.29 143 143 0 0 0 -2.21 20.57 135.91 135.91 0 0 0 2.21 20.71l.06.31a6.82 6.82 0 0 1 .22 1.7c0 1.6-.57 5.57-5.82 7.15a7.58 7.58 0 0 1 -5.89-.3 7.82 7.82 0 0 1 -3.93-4.81 1.72 1.72 0 0 1 -.07-.21c-.74-2.51-6-11.18-8.3-13.44a7.54 7.54 0 0 0 -3.3-1.93c-.49-.05-1.48-.1-2.72-.14v35.17a32.65 32.65 0 0 0 6.38.35c4.79-.15 8.3-.77 9.65-1.32 8.66-3.51 15.26-10.27 20.77-21.28.05-.11.11-.22.17-.33l.08-.12a7.76 7.76 0 0 1 6.87-4.46 8.81 8.81 0 0 1 2.8.51 7 7 0 0 1 5.55 6.95 9.14 9.14 0 0 1 -.39 2.7c-2 7.45-4.82 22-5.52 27.62-.79 6.59-4.94 8-8.28 8h-.12c-17.09-.28-30.11-.19-41 .26-13.9.62-27.8 1.54-41.29 2.74-.27-.01-.63.02-1.06.02z" fill="#fff"/><path d="m450.33 260.59c-.44 0-.78 0-1 0-15.95-1.36-32.39-2.34-48.87-2.91-4.59-.15-7.55-3.16-7.55-7.66a7.45 7.45 0 0 1 6.81-7.66h.36c1-.07 3.38-.25 5-.51v-89.6c-1.6-.26-4-.44-5-.51h-.34a7.43 7.43 0 0 1 -6.84-7.74c0-4.49 3-7.5 7.55-7.65 18.91-.64 37.7-1.81 55.85-3.48a157.61 157.61 0 0 0 24.52-4.2 5.55 5.55 0 0 1 .71-.13l.45-.06c3.92-.5 8.52 1.73 9.32 7.8v.37c.42 6.21 2.41 22.15 3.6 30.4a8.12 8.12 0 0 1 .07.85v1a6.91 6.91 0 0 1 -4.5 6.73 8.68 8.68 0 0 1 -3.07.82c-1.42.08-6.05-.14-7.68-6a7.44 7.44 0 0 1 .06 1 6.14 6.14 0 0 1 -.2 1.6c0 .11 0 .23-.05.34a178.86 178.86 0 0 0 -2.23 23 170 170 0 0 0 2.23 23.14c0 .11 0 .23.05.34a6.18 6.18 0 0 1 .2 1.59c0 1.71-.58 5.81-5.94 7.29a7.58 7.58 0 0 1 -5.83-.45 8.2 8.2 0 0 1 -3.91-5.12 1.87 1.87 0 0 1 -.07-.22c-.76-2.93-6.09-12.78-8.42-15.15a7.3 7.3 0 0 0 -3.15-2c-.41 0-1.89-.09-7-.14v38.23a54.13 54.13 0 0 0 5.67 1.3l.34.08a7.7 7.7 0 0 1 6.13 7.8 7.42 7.42 0 0 1 -2.3 5.74 7.17 7.17 0 0 1 -4.97 1.77zm-4.88-109.13v36c5.19 0 6.64-.11 7-.14a7.62 7.62 0 0 0 3.16-2.06c2.48-3.07 7.65-12.52 8.41-15.45l.06-.21c1.54-5.11 5.56-5.71 6.76-5.77a8.59 8.59 0 0 1 3 .34 8 8 0 0 1 4.59 3c-4.84-11.17-13.14-17.25-22.71-16.44-3.38.27-6.83.49-10.27.73z" fill="#fff"/><path d="m578.93 283.46a9.16 9.16 0 0 1 -2.42-.34h-.15c-20.14-6.07-32.2-8.79-40.44-10.49-13.18-2.62-27-4.95-41-6.93-4.34-.6-6.93-3.61-6.92-8a7.42 7.42 0 0 1 7.25-7.78 2.84 2.84 0 0 1 .41 0c1.94 0 3.42 0 4.45-.08v-105.55c-1-.07-2.52-.1-4.46-.09h-.42a7.42 7.42 0 0 1 -7.23-7.8c0-4.43 2.59-7.43 6.93-8 18.13-2.52 35.83-5.63 52.59-9.24a127.74 127.74 0 0 0 24.15-7.71 5.58 5.58 0 0 1 .84-.29l.42-.12a7.61 7.61 0 0 1 6.4 1c2.14 1.48 3.4 3.93 3.73 7.26v.28c.42 8.07 2.41 28.59 3.59 39.16a5 5 0 0 1 0 .67v1.28a7.28 7.28 0 0 1 -3.76 6.8 8.32 8.32 0 0 1 -3.45 1.31c-1.53.17-6.62.19-8.11-6.73-4.48-16.86-13.09-25.73-23-23.75-2.68.52-5.35 1-8 1.49v45c1-.07 1.88-.14 2.32-.2a8.32 8.32 0 0 0 3-2.61c2.58-3.95 7.87-16.32 8.7-20.4 0-.06 0-.12 0-.18 1.26-5.38 4.94-6.36 6.47-6.54a7.84 7.84 0 0 1 3.47.32 7.57 7.57 0 0 1 5.82 7.58 8 8 0 0 1 -.16 1.48v.42a293.86 293.86 0 0 0 -2.26 29.52 271.25 271.25 0 0 0 2.31 29.8v.41a7.39 7.39 0 0 1 .16 1.53 7.62 7.62 0 0 1 -5.73 7.54 7.39 7.39 0 0 1 -6-.41c-3-1.64-3.8-4.88-4.05-5.95 0-.06 0-.12 0-.18-.89-4.37-6.42-17-8.71-19.89a7.87 7.87 0 0 0 -2.91-2.5c-.45-.05-1.31-.11-2.38-.17v46.81c0 1 0 1 1.4 1.73a28.2 28.2 0 0 0 6.21 1.87c4.71.9 7.78.8 8.61.52 5.17-1.7 12.85-6.31 19.87-26.57 0-.09.06-.18.1-.27l.06-.15c1.69-4.21 4.35-6.15 7.91-5.75a8.16 8.16 0 0 1 3.32 1.22 7.75 7.75 0 0 1 4.34 7.18v.13a11.48 11.48 0 0 1 -.26 2.56c-2 11.26-4.87 32.82-5.56 40.79-.17 2.1-.46 5.68-3.47 7.79a6.81 6.81 0 0 1 -3.98 1.22z" fill="#fff"/><path d="m652.49 310.57q-9.35 0-20.86-5.22c-12.19-5.21-26.64-15.75-34.15-23.11a12.9 12.9 0 0 1 -4.65-9.08 1.09 1.09 0 0 0 0-.18c-.42-8.67-2.26-32.11-4.13-44.12q0-.3-.06-.6a9.88 9.88 0 0 1 -.15-1.68 7.74 7.74 0 0 1 4.38-7.18l.45-.21a8.09 8.09 0 0 1 4.09-.78c3.67.37 6 2.82 6.84 7.28 8.75 31.62 25.92 52.56 33.15 55.46 2.63 1 6.25 1.82 8.65.17 2.84-2 4.47-7.42 4.47-15 0-13-6.7-31-21.67-41.66-26.59-19.19-40.08-34.9-40.07-67.55 0-31.34 16.26-56.4 44.63-68.76h.09c7.88-3.28 17.93-4.09 23.22-4l.89-.39a16 16 0 0 0 3.81-2.39l.21-.17.64-.55a11 11 0 0 1 2.4-1.85 6.68 6.68 0 0 1 6.46.19c3.44 2 3.59 5.93 3.71 9 .45 12.14 2.35 42 3.57 56a4.36 4.36 0 0 1 0 .51v1.86a8.4 8.4 0 0 1 -3.08 7 7.81 7.81 0 0 1 -3.73 2.06 6.62 6.62 0 0 1 -5.19-1.08c-2.62-1.85-3.09-4.85-3.37-6.88-3.62-20.14-11.61-31.08-17.89-34.6-2.53-1.42-4.87-1.73-6.93-.93-12.43 4.62-18.69 13.16-18.69 25.41 0 9 4.05 16 24.73 24.93 18.92 7.68 41.45 29.13 41.46 87.67 0 29.84-6 48.21-18.37 56.16a27 27 0 0 1 -14.86 4.27z" fill="#fff"/><path d="m366 131.41c-134.27 0-256.38-26-318.66-67.94a8.65 8.65 0 0 1 8.71-14.9c68.4 34.28 184.28 54.74 310 54.74s241.5-20.46 309.95-54.75a8.65 8.65 0 0 1 8.71 14.91c-62.33 41.9-184.43 67.94-318.71 67.94z" fill="#fff"/><path d="m679.83 347.73a8.72 8.72 0 0 1 -3.88-.92c-68.4-34.28-184.28-54.75-310-54.75s-241.5 20.47-309.95 54.75a8.64 8.64 0 0 1 -8.7-14.9c62.32-41.91 184.43-67.91 318.7-67.91s256.38 26 318.66 67.94a8.65 8.65 0 0 1 -4.83 15.82z" fill="#fff"/><path d="m35.79 301.89a6 6 0 0 1 -5.56-3.76c-11.69-29-18.12-65.81-18.12-103.69s6.43-74.7 18.12-103.69a6 6 0 0 1 11.36 3.77c-7.83 29.67-12 64.22-12 99.92s4.13 70.26 12 99.92a6 6 0 0 1 -3.91 7.22 5.89 5.89 0 0 1 -1.89.31z" fill="#fff"/><path d="m20.33 282.62a6 6 0 0 1 -5.57-3.76c-9.52-23.61-14.76-53.59-14.76-84.42s5.24-60.81 14.76-84.44a6 6 0 0 1 11.37 3.78c-6.32 23.93-9.66 51.82-9.66 80.64s3.34 56.71 9.66 80.64a6 6 0 0 1 -5.8 7.54z" fill="#fff"/><path d="m696.21 301.89a6 6 0 0 1 -5.8-7.53c7.83-29.67 12-64.22 12-99.92s-4.13-70.25-12-99.92a6 6 0 0 1 11.36-3.77c11.69 29 18.13 65.81 18.13 103.69s-6.44 74.7-18.13 103.69a6 6 0 0 1 -5.56 3.76z" fill="#fff"/><path d="m711.67 282.62a6 6 0 0 1 -5.8-7.54c6.32-23.93 9.66-51.81 9.66-80.64s-3.34-56.71-9.66-80.64a6 6 0 0 1 11.37-3.8c9.52 23.62 14.76 53.6 14.76 84.42s-5.24 60.81-14.76 84.42a6 6 0 0 1 -5.57 3.78z" fill="#fff"/><path d="m578.27 371.89a6 6 0 0 1 -3.66-1.25 172 172 0 0 0 -63.41-30.21 6 6 0 0 1 -2.42-10.43c1.64-1.37 3.31-2.73 5-4.06a199.12 199.12 0 0 0 -36.92-10.65 6 6 0 0 1 1.45-11.89 211.61 211.61 0 0 1 82.93 21.87 6 6 0 0 1 0 10.74q-2.73 1.35-5.43 2.81a175.83 175.83 0 0 1 26.82 22.93 6 6 0 0 1 -4.35 10.14z" fill="#fff"/><path d="m153.73 371.89a6 6 0 0 1 -4.35-10.14 176.39 176.39 0 0 1 26.82-22.93c-1.79-1-3.61-1.91-5.43-2.81a6 6 0 0 1 0-10.74 211.61 211.61 0 0 1 82.93-21.87 6 6 0 0 1 1.45 11.89 199.12 199.12 0 0 0 -36.92 10.65c1.7 1.33 3.37 2.69 5 4.06a6 6 0 0 1 -2.42 10.42 172.22 172.22 0 0 0 -63.41 30.22 6 6 0 0 1 -3.67 1.25z" fill="#fff"/><path d="m277.83 101.87a6.42 6.42 0 0 1 -1-.07c-36.41-5.89-70.83-19.58-99.54-39.61a6 6 0 0 1 .85-10.33c3.86-1.86 7.6-3.79 11.28-5.86a191.43 191.43 0 0 1 -30.55-36.8 6 6 0 0 1 9.51-7.2c18.77 20.69 43.48 37.24 71.47 47.85a6 6 0 0 1 1.74 10.15c-3.43 2.88-7 5.7-10.64 8.4a229.43 229.43 0 0 0 48.68 21.73 6 6 0 0 1 -1.8 11.72z" fill="#fff"/><path d="m454.17 101.87a6 6 0 0 1 -1.79-11.72 229.29 229.29 0 0 0 48.67-21.73c-3.65-2.7-7.21-5.52-10.64-8.4a6 6 0 0 1 1.74-10.2c28-10.61 52.7-27.16 71.47-47.85a6 6 0 0 1 9.51 7.24 191.43 191.43 0 0 1 -30.55 36.79c3.68 2.06 7.46 4 11.28 5.85a6 6 0 0 1 .85 10.33c-28.7 20-63.13 33.72-99.57 39.61a6.42 6.42 0 0 1 -.97.08z" fill="#fff"/><path d="m433.05 81h-.81v-10.61a6 6 0 0 0 -6-6h-2.46a6 6 0 0 0 -6 6v5.76l-2.85-7.82a5.88 5.88 0 0 0 -1.76-2.5 19 19 0 0 0 4.77-3.21 6 6 0 0 0 0-8.9l-1.85-1.65a5.38 5.38 0 0 0 -.66-.52 5.85 5.85 0 0 0 .69-.54l1.85-1.68a6 6 0 0 0 0-8.87 17 17 0 0 0 -8.44-4.39c.34-.28.67-.57 1-.89a12.71 12.71 0 0 0 3.57-7.28 5.69 5.69 0 0 0 .06-.83v-13.41a6 6 0 0 0 -6-6h-2.47a6 6 0 0 0 -4 1.53 5.92 5.92 0 0 0 -4-1.53h-2.47a6 6 0 0 0 -4.08 1.61 6 6 0 0 0 -4.14-1.61h-13.27a6 6 0 0 0 -4.41 1.94 6 6 0 0 0 -4.41-1.94h-2.47a6 6 0 0 0 -4.75 2.34 6 6 0 0 0 -4.76-2.35h-2.25a6 6 0 0 0 -5.19 3l-1 1.68-1-1.69a6 6 0 0 0 -5.19-3h-2.2a6 6 0 0 0 -4.76 2.36 6 6 0 0 0 -4.76-2.35h-2.46a6 6 0 0 0 -6 6v19a6 6 0 0 0 1 3.33 6 6 0 0 0 -5.83 6v19a6 6 0 0 0 1.34 3.76 6.07 6.07 0 0 0 -1.77 1.26 5.92 5.92 0 0 0 -4-1.57h-9.17a6 6 0 0 0 -6 6v19a6 6 0 0 0 6 6h2.46a6 6 0 0 0 6-6v-2.29h.71a5.94 5.94 0 0 0 2.07-.38v2.67a6 6 0 0 0 6 6h10.26a6 6 0 0 0 5.08-2.82 11.88 11.88 0 0 0 16.36-.48 12.27 12.27 0 0 0 2-2.67 6 6 0 0 0 6 6h2.47a6 6 0 0 0 6-6v-10.81h.12v10.78a6 6 0 0 0 6 6h2.46a6 6 0 0 0 6-6v-6.11l3 8.16a6 6 0 0 0 5.64 4h1.33a6 6 0 0 0 5.64-3.94l.09-.24a5.95 5.95 0 0 0 5.62 4.13h2.63a6 6 0 0 0 5-2.64 6 6 0 0 0 5 2.64h2.61a6 6 0 0 0 3.76-1.34 5.94 5.94 0 0 0 3.78 1.34h9.27a6 6 0 0 0 6-6v-2.43a6 6 0 0 0 -6-6zm-30.8-12.41a5.69 5.69 0 0 0 -.79-1.6 5.8 5.8 0 0 0 -.72-.84 15 15 0 0 0 2.39.74 6.06 6.06 0 0 0 -.81 1.48zm5.82-16.59a2.79 2.79 0 0 1 -1.33.75 1.24 1.24 0 0 1 -.88-2.12 1 1 0 0 1 .88-.36 2.79 2.79 0 0 1 1.33.75 5.91 5.91 0 0 0 .63.49 5.91 5.91 0 0 0 -.63.49zm-9.94-13.68a16.4 16.4 0 0 0 -2.52 2.07 18 18 0 0 0 -1.24 1.4 6 6 0 0 0 -3.36-5.2 6 6 0 0 0 1.19-2.11c.2.23.4.46.62.68a12.26 12.26 0 0 0 5.31 3.2zm-65.67 29.25a6 6 0 0 0 -.48-.75 5.75 5.75 0 0 0 1 .2l-.25.23a2.89 2.89 0 0 0 -.27.32zm-.98-31.04a4.59 4.59 0 0 0 -.5.24 4.71 4.71 0 0 0 .36-.42zm10.52 25.73a13.63 13.63 0 0 0 1.12 1.31 12.34 12.34 0 0 0 4.52 2.89c-.14.16-.27.33-.4.5a10.29 10.29 0 0 0 -6-2.74 5.81 5.81 0 0 0 .76-1.96zm38.28-22.26a8.8 8.8 0 0 0 -1-1.13l-.16-.14h1.76a6.57 6.57 0 0 0 -.6 1.27zm-16.37-.39a6.78 6.78 0 0 0 -.48-.88h1.31l-.2.18c-.23.2-.43.43-.63.67zm16.48 24.19.11-.13a6.36 6.36 0 0 0 .43.77 6 6 0 0 0 -1.68.36 13.37 13.37 0 0 0 1.14-1.03zm8.78-41.85v3a5.76 5.76 0 0 0 -1.42-.53zm-18.26 2.73v-3.29a5.92 5.92 0 0 0 1.53.59zm-26.91 10.53h.51.49a5.43 5.43 0 0 0 .46.81 6 6 0 0 0 -2.25.44 6 6 0 0 0 .79-1.25zm-14.52 2.79a6 6 0 0 0 -.8 1.06l-1 1.68-1-1.68-.21-.32h.05a6 6 0 0 0 2.96-.74zm-2.73 26.43a5.07 5.07 0 0 0 .46-.82h.51a3.85 3.85 0 0 0 .48 0 6 6 0 0 0 .64 1.06 5.85 5.85 0 0 0 -1.69-.24zm33.12 0q.48-.4.93-.84a13.39 13.39 0 0 0 1.29-1.59 11.64 11.64 0 0 0 1.4 1.73c.24.24.49.46.75.68a5.53 5.53 0 0 0 -.71 0zm33.49 0a5.93 5.93 0 0 0 1-3.16 16 16 0 0 0 3.49 3.28 5.72 5.72 0 0 0 -1.31-.15h-2.64a5.07 5.07 0 0 0 -.54.02z" fill="#fff"/><g fill="#2b2d3b"><path d="m277.51 365.94a31.46 31.46 0 0 1 -1-6.75 22.77 22.77 0 0 1 4.79-13.19c2-2.34 2.34-2.52 10.54-7.3 5.68-3.24 8-7.75 8-15.23 0-9.37-3-14-9-14a10.93 10.93 0 0 0 -9.73 6.13 7.51 7.51 0 0 0 -.81 4.14c2-2.07 3.24-2.7 5.31-2.7 4.6 0 7.39 2.79 7.39 7.39s-3 7.57-7.56 7.57a8.12 8.12 0 0 1 -8.11-8.48 16.54 16.54 0 0 1 4.6-10.9c3.15-3.15 7.75-4.77 13.61-4.77 11.44 0 19.55 6.21 19.55 15.13a12.83 12.83 0 0 1 -4.69 10.1c-2.79 2.34-5.94 3.78-13.33 5.94-6.85 2.07-10.54 3.79-13 5.86-3.78 3.24-6.48 8.92-6.48 13.42 0 .63 0 1.36.09 2.53l.18-.36c2.16-6.22 8.47-9.73 17.3-9.73 1.71 0 3.69.08 5.67.27 2.43.18 5 .27 5.95.27 3.33 0 6.31-1 7.57-2.53.9-1.17 1.26-2.61 1.62-5.76l.72.09c-.54 9.28-1.26 13.33-2.79 16.48a12 12 0 0 1 -11.27 7.21 14.38 14.38 0 0 1 -6.84-1.8c-.63-.36-.63-.36-6.49-5.5a7.73 7.73 0 0 0 -5-1.89c-3.6 0-6.12 2.25-6.12 5.5a25.71 25.71 0 0 0 .27 2.88z"/><path d="m361.57 314.85c4.51 4.87 7.3 13.43 7.3 22.35 0 16.58-9.37 30.18-20.82 30.18-12.61 0-21.44-12.16-21.44-29.46 0-8.2 1.62-14.78 5-19.73 4.14-6.31 10.18-10 16.3-10 4.65 0 9.79 2.52 13.66 6.66zm-19.57-1.62c-.9 2.53-1.35 8.29-1.35 17.66 0 15.95.63 28.11 1.71 31.27 1 3 2.61 4.32 5 4.32s4.06-1.35 5.05-3.78c1.17-2.79 1.71-10.72 1.71-24.24 0-11.17-.54-20.72-1.35-24-.81-3.52-2.88-5.59-5.68-5.59-2.09-.05-3.99 1.57-5.09 4.36z"/><path d="m380.07 365.94a31.46 31.46 0 0 1 -1-6.75 22.76 22.76 0 0 1 4.78-13.19c2-2.34 2.35-2.52 10.55-7.3 5.67-3.24 8-7.75 8-15.23 0-9.37-3-14-9-14a10.94 10.94 0 0 0 -9.73 6.13 7.51 7.51 0 0 0 -.81 4.14c2-2.07 3.25-2.7 5.32-2.7 4.59 0 7.39 2.79 7.39 7.39s-3.07 7.57-7.57 7.57a8.11 8.11 0 0 1 -8.11-8.48 16.53 16.53 0 0 1 4.59-10.9c3.16-3.15 7.75-4.77 13.61-4.77 11.44 0 19.55 6.21 19.55 15.13a12.85 12.85 0 0 1 -4.68 10.1c-2.8 2.34-5.95 3.78-13.34 5.94-6.85 2.07-10.54 3.79-13 5.86-3.79 3.24-6.49 8.92-6.49 13.42 0 .63 0 1.36.09 2.53l.18-.36c2.16-6.22 8.47-9.73 17.3-9.73 1.71 0 3.69.08 5.68.27 2.43.18 4.95.27 5.94.27 3.34 0 6.31-1 7.57-2.53.9-1.17 1.26-2.61 1.62-5.76l.72.09c-.54 9.28-1.26 13.33-2.79 16.48a12 12 0 0 1 -11.26 7.21 14.39 14.39 0 0 1 -6.85-1.8c-.63-.36-.63-.36-6.49-5.5a7.7 7.7 0 0 0 -4.95-1.89c-3.61 0-6.13 2.25-6.13 5.5a25.71 25.71 0 0 0 .27 2.88z"/><path d="m464.12 314.85c4.51 4.87 7.3 13.43 7.3 22.35 0 16.58-9.37 30.18-20.81 30.18-12.61 0-21.44-12.16-21.44-29.46 0-8.2 1.62-14.78 4.95-19.73 4.15-6.31 10.18-10 16.31-10 4.68 0 9.82 2.52 13.69 6.66zm-19.55-1.62c-.9 2.53-1.35 8.29-1.35 17.66 0 15.95.63 28.11 1.71 31.27 1 3 2.62 4.32 5.05 4.32s4-1.35 5-3.78c1.18-2.79 1.72-10.72 1.72-24.24 0-11.17-.54-20.72-1.35-24-.82-3.52-2.89-5.59-5.68-5.59-2.12-.05-4.02 1.57-5.1 4.36z"/><path d="m107 98.17c-34.74-15.94-54.73 21.52-54.74 99.13s20 115 54.77 98.91c34.78-14.84 55.15-51.35 55.14-99.1s-20.36-84.22-55.17-98.94zm3 183.67c-17.17 6.92-28.24-37.31-28.24-101.91.29-53.05 8.77-74.5 21.89-69.53 17.17 6.77 28.32 46.75 28.32 101 .03 42.6-8.77 65.7-21.91 70.44z"/><path d="m204.78 132.37c-1.16-2-2-3.46-4.22-3.87q-18.65-3.51-37.22-8.11c-1.31-.32-1.74 0-1.74 1.84a2.81 2.81 0 0 0 1.6 2.86c5.8 3.8 9.58 4.61 11.91 14v110.91c0 8.51-3.79 14.94-11.91 19.15-.88.41-1.6 1-1.6 2.86s.44 2.16 1.74 1.83q16.54-4.17 33.14-7.41c1.31-.26 1.75-.71 1.75-2.38s-.73-1.9-1.6-1.92c-8-.35-13.38-4.89-13.39-13.44v-99.5a859.06 859.06 0 0 0 65 107.5c2.78 3.58 4.53 4.15 7.89 3.75 1.61-.2 1.76-1.18 1.76-4.56v-101.81c0-6.93 4.52-11.14 12.71-12.1.88-.07 1.61-.32 1.61-1.73s-.44-1.77-1.75-1.89q-17-1.66-34-4c-1.32-.18-1.75.09-1.75 1.61a2 2 0 0 0 1.6 2.24c8 2.74 13.44 8 13.44 15.2v52.93c-15.04-22.21-30.02-46.33-44.97-73.96z"/><path d="m279.24 251.25a1.8 1.8 0 0 0 -1.6 2c0 1.4.43 1.67 1.75 1.56q20.78-1.81 41.61-2.76c8.64-.36 20.8-.6 41.31-.27 1.47 0 2.05-.3 2.34-2.76.74-5.81 3.67-20.88 5.72-28.56a2.78 2.78 0 0 0 .15-1c0-.72-.45-1-1.18-1.16a4.39 4.39 0 0 0 -1.17-.29c-.88 0-1.17.58-1.76 1.59-6.74 13.48-14.79 20.48-23.88 24.16-2.64 1.07-7.32 1.62-11.71 1.76a38.48 38.48 0 0 1 -7.82-.52c-1.75-.38-4.83-1-4.83-4.84v-42.3c3.37 0 7.91.14 9.38.28a13.17 13.17 0 0 1 6.73 3.51c3.08 2.92 8.94 12.66 10 16.14.44 1.31 1 1.74 2.34 1.29 1-.3 1.62-.6 1.62-1.47a5.77 5.77 0 0 1 -.15-.72 140.53 140.53 0 0 1 -2.34-22 149.56 149.56 0 0 1 2.34-21.81 6.45 6.45 0 0 1 .15-.73c0-.87-.59-1.17-1.62-1.47a2.75 2.75 0 0 0 -1-.15c-.58 0-1 .42-1.32 1.3-1 3.47-6.89 13.05-9.81 16.27-1.9 1.74-4.4 3.35-6.88 3.63-1.47.14-6 .28-9.38.27v-45q6.45.27 12.89.46c12.74.42 24.61 9.23 30.32 24.31.29 1 .59 1.6 1.62 1.6a4.92 4.92 0 0 0 1.17-.29c.58-.14.73-.44.73-1v-.86c-1.17-7.11-3.23-21.62-3.67-27.42-.29-2-1.46-2.62-2.63-2.63h-.44a182 182 0 0 1 -25.49.94q-26.66-.87-53.28-3.17c-1.32-.11-1.75.16-1.75 1.56a1.8 1.8 0 0 0 1.6 2c8.19 1.59 10.54 2.48 10.54 6.61v95.29c-.06 4.16-2.41 5.05-10.6 6.65z"/><path d="m400.51 248.26c-.88.12-1.62.39-1.61 1.71s.44 1.62 1.75 1.67q24.62.84 49.19 2.92c1.31.12 1.75-.15 1.75-1.55a1.78 1.78 0 0 0 -1.61-2c-8.19-1.58-10.53-2.46-10.53-6.58v-44.86c3.37 0 12.29.05 13.75.21 2.48.32 5 2.05 6.73 3.8 3.07 3.13 8.92 13.92 9.94 17.83.44 1.45 1 2 2.34 1.55 1-.27 1.6-.56 1.6-1.53a8.1 8.1 0 0 1 -.14-.81 172.44 172.44 0 0 1 -2.34-24.26 184 184 0 0 1 2.34-24.1 6 6 0 0 1 .14-.81c0-1-.58-1.25-1.6-1.52a2.71 2.71 0 0 0 -1-.12c-.58 0-1 .54-1.31 1.51-1 3.91-6.87 14.54-9.8 18-1.9 1.9-4.38 3.63-6.87 4-1.47.16-10.38.2-13.75.21v-47.67q7.91-.53 15.8-1.16c12.72-1.08 24.55 7.19 30.25 24 .29 1.13.59 1.77 1.6 1.72a4.26 4.26 0 0 0 1.17-.4c.59-.19.74-.53.74-1.2v-1c-1.17-8.07-3.22-24.35-3.66-30.85-.29-2.27-1.46-2.77-2.62-2.63l-.44.06a162.47 162.47 0 0 1 -25.44 4.35q-28.07 2.6-56.2 3.51c-1.31 0-1.75.35-1.75 1.67s.73 1.59 1.61 1.7c8.2.62 10.55 1.24 10.54 5.23v92.14c-.03 4-2.37 4.65-10.57 5.26z"/><path d="m495.58 255.84c-.87 0-1.6.29-1.6 1.79s.43 1.91 1.75 2.09q20.72 2.91 41.39 7c8.59 1.76 20.67 4.5 41 10.61 1.45.4 2 .14 2.32-3.42.73-8.31 3.63-30.07 5.66-41.45a6.25 6.25 0 0 0 .14-1.51 1.76 1.76 0 0 0 -1.16-1.88 3.85 3.85 0 0 0 -1.16-.56c-.87-.1-1.16.74-1.74 2.18-6.7 19.22-14.68 27.31-23.69 30.31-2.61.86-7.26.5-11.62-.33a34.64 34.64 0 0 1 -7.71-2.36c-1.75-.88-4.8-2.33-4.8-7.14v-53c3.34 0 7.85.22 9.31.42 2.47.39 4.94 2.53 6.69 4.7 3 3.86 8.87 17.45 9.88 22.42.44 1.85 1 2.51 2.32 2 1-.3 1.6-.65 1.6-1.86a10 10 0 0 1 -.14-1 275.93 275.93 0 0 1 -2.33-30.57 292.84 292.84 0 0 1 2.31-30.41c0-.4.14-.82.14-1 0-1.21-.58-1.55-1.6-1.84a2.06 2.06 0 0 0 -1-.09c-.58.07-1 .72-1.31 2-1 5-6.83 18.47-9.74 22.76-1.89 2.4-4.36 4.56-6.83 5-1.46.22-6 .48-9.31.53v-56.43q6.4-1.1 12.8-2.33c12.65-2.52 24.4 6.78 30.06 28.25.29 1.45.58 2.26 1.6 2.15a3.92 3.92 0 0 0 1.16-.57c.58-.28.72-.72.72-1.58v-1.28c-1.16-10.39-3.19-31.22-3.63-39.52-.29-2.88-1.44-3.41-2.61-3.1l-.43.12a132.9 132.9 0 0 1 -25.26 8.06c-17.64 3.8-35.32 6.85-53 9.31-1.32.18-1.75.57-1.75 2.08s.73 1.75 1.6 1.8c8.18-.06 10.51.45 10.51 5.11v107.44c-.03 4.67-2.37 5.17-10.54 5.1z"/><path d="m635.21 286.69c-9.8-3.87-27.85-27-36.83-59.69-.29-1.63-.57-2.57-1.59-2.67a3 3 0 0 0 -1.16.34 1.83 1.83 0 0 0 -1.16 1.9c0 .45.15.92.15 1.37 1.88 12.07 3.76 35.69 4.2 44.75a6.87 6.87 0 0 0 2.74 5.15c7.53 7.41 21.4 17.3 32.49 22 30.55 13.89 45.69-3 45.7-49.64 0-45.13-14.17-72.58-37.77-82.13-20.6-8.86-28.42-17.19-28.42-30.47 0-13.9 7-25.22 22.51-31 11.82-4.6 27.48 9.7 32.92 40.17.29 2.05.58 3.2 1.44 3a3.63 3.63 0 0 0 1.15-.85c.71-.45.85-1.1.86-2.33v-1.79c-1.3-14.82-3.16-44.47-3.59-56.29-.14-3.56-.43-4.62-1.58-4.06a16 16 0 0 0 -1.86 1.49 22.21 22.21 0 0 1 -5.31 3.37 9.59 9.59 0 0 1 -2.73 1c-5.46-.14-15 .82-21.59 3.58-26.51 11.55-41 34.89-41 63.27 0 30.08 12.19 44.34 37.56 62.66 16 11.44 24.18 30.67 24.18 46.54-.01 17.96-8.2 25.31-21.31 20.33z"/><path d="m678.64 53.93c-69.2 34.68-186.08 55.38-312.64 55.38s-243.44-20.7-312.64-55.38a2.65 2.65 0 0 0 -2.67 4.56c61.31 41.28 182.16 66.92 315.31 66.92s254-25.64 315.31-66.92a2.65 2.65 0 0 0 -2.67-4.56z"/><path d="m681.31 336.88c-61.31-41.27-182.16-66.88-315.31-66.88s-254 25.61-315.31 66.88a2.65 2.65 0 0 0 2.67 4.57c69.2-34.68 186.08-55.39 312.64-55.39s243.44 20.71 312.64 55.39a2.65 2.65 0 0 0 2.67-4.57z"/><path d="m18.11 194.44c0 38.71 6.66 74.11 17.68 101.45-7.69-29.13-12.16-64-12.16-101.45s4.47-72.32 12.16-101.44c-11.02 27.33-17.68 62.74-17.68 101.44z"/><path d="m20.33 112.27c-8.93 22.14-14.33 50.82-14.33 82.17s5.4 60 14.33 82.18c-6.23-23.6-9.86-51.83-9.86-82.18s3.63-58.58 9.86-82.17z"/><path d="m713.9 194.44c0-38.7-6.67-74.11-17.69-101.45 7.69 29.13 12.16 64 12.16 101.45s-4.47 72.32-12.16 101.45c11.02-27.34 17.69-62.74 17.69-101.45z"/><path d="m711.67 112.27c6.23 23.59 9.86 51.82 9.86 82.17s-3.63 58.58-9.86 82.18c8.93-22.15 14.33-50.83 14.33-82.18s-5.4-60.03-14.33-82.17z"/><path d="m544.36 338.49q6.81-4.19 14.21-7.86a207 207 0 0 0 -80.57-21.24 202.57 202.57 0 0 1 47.77 15.16q-6.87 4.81-13.1 10.05a177.08 177.08 0 0 1 65.63 31.29 171.73 171.73 0 0 0 -33.94-27.4z"/><path d="m173.44 330.63q7.38 3.67 14.2 7.86a171.44 171.44 0 0 0 -33.91 27.4 177.08 177.08 0 0 1 65.63-31.29q-6.23-5.24-13.1-10.05a202.57 202.57 0 0 1 47.74-15.16 206.94 206.94 0 0 0 -80.56 21.24z"/><path d="m199.51 47.05a206.38 206.38 0 0 1 -18.78 10.22c26.69 18.62 59.66 32.56 97.09 38.6a233.65 233.65 0 0 1 -57.67-27.12q9.27-6.33 17.57-13.32c-30.27-11.43-55.27-29.02-73.78-49.43a187.85 187.85 0 0 0 35.57 41.05z"/><path d="m551.27 57.27a206.38 206.38 0 0 1 -18.78-10.22 187.85 187.85 0 0 0 35.57-41.05c-18.51 20.41-43.51 38-73.78 49.43q8.3 7 17.57 13.32a233.65 233.65 0 0 1 -57.67 27.12c37.43-6.04 70.4-19.98 97.09-38.6z"/><path d="m326.58 13.66v19h-2.46v-19z"/><path d="m338.35 13.66 6.18 10.67 6.15-10.67h2.25v19h-2.46v-13.72l-5.94 10.29-6-10.29v13.76h-2.43v-19z"/><path d="m364.91 13.66v19h-2.47v-19z"/><path d="m382.75 16.12h-9v-2.46h13.25l-9.59 16.57h9.05v2.47h-13.3z"/><path d="m405.65 13.66h2.47v13.41a6.67 6.67 0 0 1 -1.89 3.93 6.48 6.48 0 0 1 -11.06-4.57v-12.77h2.47v12.72a4 4 0 0 0 4 4 3.87 3.87 0 0 0 2.84-1.17 3.81 3.81 0 0 0 1.17-2.82z"/><path d="m321.54 42 6.18 10.68 6.16-10.68h2.25v19h-2.47v-13.69l-5.94 10.28-6-10.28v13.76h-2.47v-19.07z"/><path d="m356 42h2.48v13.44a6.64 6.64 0 0 1 -1.89 3.88 6.48 6.48 0 0 1 -11.06-4.57v-12.75h2.47v12.75a4 4 0 1 0 8 0z"/><path d="m372 51.3a8.41 8.41 0 0 1 -3.28-1.94 4.46 4.46 0 0 1 3.28-7.55 4.3 4.3 0 0 1 3.14 1.29 5.39 5.39 0 0 1 1.24 2.28l-2.24.88a4.4 4.4 0 0 0 -.73-1.43 2 2 0 0 0 -1.41-.57 2 2 0 0 0 -1.41 3.4 6.24 6.24 0 0 0 1.8 1.18 9.39 9.39 0 0 1 3.8 2.29 5.66 5.66 0 0 1 1.75 4.19 5.94 5.94 0 0 1 -5.94 6 5.69 5.69 0 0 1 -4.2-1.75 6.62 6.62 0 0 1 -1.8-3.89l2.39-.87a4.86 4.86 0 0 0 1.11 3 3.32 3.32 0 0 0 2.46 1 3.5 3.5 0 0 0 2.47-6 7.05 7.05 0 0 0 -2.43-1.51z"/><path d="m388.38 42v19h-2.46v-19z"/><path d="m412.05 56.53 1.84 1.66a10.52 10.52 0 0 1 -7.15 3.08 9.73 9.73 0 0 1 -6.88-16.61 9.35 9.35 0 0 1 6.88-2.85 10.52 10.52 0 0 1 7.15 3.08l-1.84 1.68a7.93 7.93 0 0 0 -5.31-2.26 7.24 7.24 0 0 0 -5.11 12.37 7 7 0 0 0 5.11 2.11 7.93 7.93 0 0 0 5.31-2.26z"/><path d="m308.83 70.39v2.46h-6.7v5.82h6.7v2.47h-6.7v8.29h-2.47v-19z"/><path d="m327.16 70.39v2.46h-7.8v5.82h7.8v2.47h-7.8v5.86h7.8v2.47h-10.26v-19z"/><path d="m340.23 79.66a8.33 8.33 0 0 1 -3.23-1.93 4.23 4.23 0 0 1 -1.25-3.12 4.45 4.45 0 0 1 7.6-3.14 5.45 5.45 0 0 1 1.24 2.27l-2.24.88a4.1 4.1 0 0 0 -.74-1.42 1.88 1.88 0 0 0 -1.4-.58 2 2 0 0 0 -1.42.58 2 2 0 0 0 0 2.83 6.52 6.52 0 0 0 1.81 1.18 9.33 9.33 0 0 1 3.8 2.28 5.66 5.66 0 0 1 1.75 4.19 5.93 5.93 0 0 1 -10.15 4.2 6.59 6.59 0 0 1 -1.8-3.88l2.39-.87a4.89 4.89 0 0 0 1.11 3 3.49 3.49 0 1 0 4.92-4.94 7.18 7.18 0 0 0 -2.39-1.53z"/><path d="m359.09 72.85v16.58h-2.47v-16.58h-4.44v-2.46h11.35v2.46z"/><path d="m373.67 70.39v19h-2.46v-19z"/><path d="m388.27 89.43-6.91-19h2.64l5 13.65 5-13.65h2.64l-6.95 19z"/><path d="m409.3 70.39 6.92 19h-2.61l-2.46-6.74h-5l-2.44 6.74h-2.71l6.93-19zm1 9.84-1.63-4.46-1.67 4.46z"/><path d="m423.78 89.43v-19h2.46v16.57h6.81v2.47z"/></g></svg>