<svg viewBox="0 0 715.92 269.34" xmlns="http://www.w3.org/2000/svg"><path d="m44.94 204.65v-.67l-3.66.38z" fill="none"/><path d="m123.01 188.37v-2.27l-1.38.15-1.68 2.44z" fill="none"/><path d="m23.65 207.53 6.64-.7-5.16-.46.11-.3-2.1.22c.19.43.34.83.51 1.24z" fill="none"/><path d="m166.45 227.64a23.85 23.85 0 0 1 -3.09-2.5v2.86z" fill="none"/><path d="m212.15 202.2a161.5 161.5 0 0 1 -3.5 22 14.57 14.57 0 0 0 3 0c1.45-.32 2.43-1.81 3-4.46a49.82 49.82 0 0 0 .79-9.49c0-2.87-.09-5.68-.22-8.46-.43.06-.82.12-1.15.19a15.88 15.88 0 0 1 -1.92.22z" fill="none"/><path d="m154.79 215.53v1.05l.85-.09c-.29-.32-.57-.62-.85-.96z" fill="none"/><path d="m397.48 52.2 29.37-3.12v-8.24l-29.37 3.12z" fill="none"/><path d="m397.48 81.23 29.37-3.11v-9.25l-29.37 3.12z" fill="none"/><path d="m374.58 166.17 1.77-.19v-1.57c-1.06.16-2 .3-2.74.4.39.48.66.92.97 1.36z" fill="none"/><path d="m382.35 189.53v-1.42l-1.12.12c-.57.54-1.15 1.07-1.73 1.6z" fill="none"/><path d="m396.49 163.84-1.82-.33v.53z" fill="none"/><path d="m394.67 188.22 3.11-.33c-1.06-.76-2.1-1.56-3.11-2.39z" fill="none"/><path d="m633.36 42.67c0 1.43 0 2.85.06 4.27a16.83 16.83 0 0 1 3-4.59q4.62-5 13.61-5.42v-4.47l-11.48 1.21v-7.48l-4.38.46c-.15 1.71-.28 3.48-.41 5.31q-.4 5.53-.4 10.71z" fill="none"/><path d="m157.56 68.72 25.62-2.72v-.71l-25.62 2.72z" fill="none"/><path d="m157.52 88.81 25.66-2.73v-.71l-25.62 2.72c-.01.24-.03.48-.04.72z" fill="none"/><path d="m42.69 210.07v2.93l2.25-.24v-8.1c-.39.88-1 2.3-1.79 4.28z" fill="none"/><path d="m71.5 103.55v-5.57l-3.85 5.98z" fill="none"/><path d="m41.86 228.4 2.36-.25c.19-1.44.33-2.81.42-4.1 0-.37 0-.76.07-1.14l-2.85.31z" fill="none"/><path d="m34.79 252.28c.05-.06.1-.14.16-.2l-.16-.16z" fill="none"/><path d="m40.19 239.92-1.52 2.08 1.75 1.09a44.65 44.65 0 0 0 1.63-4.3l-3.12.33c.67.4 1.07.68 1.26.8z" fill="none"/><path d="m648.56 57.89a2.06 2.06 0 0 0 .94-1 4.36 4.36 0 0 0 .2-.52 6.61 6.61 0 0 0 -1.14 1.52z" fill="none"/><g fill="#0069b4"><path d="m71.5 97.98v-15.94l-.17.02-14.73 22.9v.17l11.05-1.17z"/><path d="m85.31 113.55v11.96l-7.82.83v7.49l13.82-1.46v-11.97l9.07-.96v-11.47l-6 .64v3.97z"/><path d="m91.31 101.44v-31.67l-6 .64v31.67z"/><path d="m49.78 117.32v7.49l21.72-2.31v-7.49z"/><path d="m151.06 89.49 6.46-.68c0-.24 0-.48 0-.72l25.62-2.72v-7.49l-31.62 3.36q-.13 3.95-.46 8.25z"/><path d="m149.15 101.75q-4.08 17-14.31 26.62a26.28 26.28 0 0 0 -2.32-2.41c-.44.45-.87.9-1.34 1.33a33 33 0 0 1 5.08 3.57 32.28 32.28 0 0 1 4.57 4.36q10.24-9.61 14.32-26.62l28-3v-7.47z"/><path d="m151.56 69.36 6-.64v-.71l25.62-2.72v-7.49l-31.62 3.36z"/><path d="m195 115.08a10.84 10.84 0 0 1 -4.58 5 23.68 23.68 0 0 1 -7.44 2.72q-3.3.66-8.46 1.29c.13.3.26.59.39.9a34.15 34.15 0 0 1 2 6.35q7.65-.81 12-1.69a23.49 23.49 0 0 0 7.45-2.72 10.89 10.89 0 0 0 4.58-5 21.2 21.2 0 0 0 1.33-8.3v-62.51l-6 .64v55a21 21 0 0 1 -1.27 8.32z"/><path d="m238.67 109.23v7.49l42.61-4.53v-11.71l-6 .63v4.23z"/><path d="m251.4 56.58a38.45 38.45 0 0 0 -11.48 3.56v9.92q10.49-5.88 17.48-6.63a14.89 14.89 0 0 1 2.73 0q-.08-7.76-8.73-6.85z"/><path d="m270.29 75.49q-4.74 7.38-18.56 20.51v.17l14.27-1.56a87.86 87.86 0 0 0 10.26-12.26 27.42 27.42 0 0 0 4.74-15q0-8.7-5.57-13.05a14.16 14.16 0 0 0 -1.72-1.13 19.48 19.48 0 0 1 1.29 7.34 27.39 27.39 0 0 1 -4.71 14.98z"/><path d="m307.75 51.1-.58 11.69h.25a22.54 22.54 0 0 1 6.2-2.24l.13-2.58 24.88-2.64v-11.82l-6 .64v4.31z"/><path d="m312.83 71.56q-3.75.41-7.41 4l-6 .64-.42 7.58 12.4-1.31q3.66-3.66 7.41-4a12 12 0 0 1 2.46 0c-.27-5.2-3.06-7.47-8.44-6.91z"/><path d="m336.3 70.58a13.09 13.09 0 0 0 -2.3-1.58 22.94 22.94 0 0 1 1.51 8.74q0 22.08-26 24.85a56.89 56.89 0 0 1 -10.23.2v6a53.29 53.29 0 0 0 16.22.62q26.05-2.77 26-24.86-.04-9.47-5.2-13.97z"/><path d="m391.48 81.87 6-.64v-9.24l29.37-3.12v-7.49l-35.37 3.76z"/><path d="m391.48 52.84 6-.64v-8.24l29.37-3.12v-7.49l-35.37 3.75z"/><path d="m446.24 101.79v-75.56l-6 .63v68.08l-13.39 1.42v-5.69l-35.37 3.75v5.69l-6.82.73v7.49l12.82-1.36v-5.69l35.36-3.76v5.69z"/><path d="m499 86.58-9.2 1c-.31-.26-.61-.53-.91-.8a35.41 35.41 0 0 0 6.91 7.65l9.2-1q-12.53-12-12.53-30t12.53-32.77l-9.2 1a48.39 48.39 0 0 0 -6.45 8.34 48.15 48.15 0 0 0 -2.88 16.56q0 18.05 12.53 30.02z"/><path d="m539.12 43.32v21.01l6-.64v-13.52l20.64-2.19v-9.38l-6 .63v1.9z"/><path d="m510.1 76.79v7.49l60.06-6.38.07-.08v-9.3l-6 .63v1.85z"/><path d="m514.51 45.93v7.49l14.32-1.52v-7.49z"/><path d="m545.12 33.3v-12.43l-6 .63v12.44z"/><path d="m591.77 45.37a46 46 0 0 1 -3.51 17.57 48.45 48.45 0 0 1 -3.55 7 52.58 52.58 0 0 1 -9.56 16.06l9.14-1a47.9 47.9 0 0 0 10-15.23 45.93 45.93 0 0 0 3.51-17.56 40.79 40.79 0 0 0 -3.51-16.85 35.51 35.51 0 0 0 -9-12.29 36.53 36.53 0 0 1 3 5.44 40.78 40.78 0 0 1 3.48 16.86z"/><path d="m631.69 55.61a21.75 21.75 0 0 1 1.73-8.67c0-1.42-.06-2.84-.06-4.27q0-5.18.37-10.71c.13-1.83.26-3.6.41-5.31l-1.62.17v-12.88l3-.32q.16-1.3.33-2.67l-6.9.73c-.12 1.08-.24 2.13-.34 3.13q-.5 4.78-.87 10.3t-.38 10.71q0 6.1.46 12.09t1.08 10.93q.63 4.95 1.54 11l-6.79.72c.28 2.34.61 4.8 1 7.39l11.82-1.26c-.59-3.9-1.08-7.44-1.49-10.65a11.59 11.59 0 0 1 -.89-1.06q-2.4-3.17-2.4-9.37z"/><path d="m648.56 57.89a6.61 6.61 0 0 1 1.14-1.47 7.21 7.21 0 0 0 .3-2.25v-6.44q-3.91-.25-6 1.56a6.75 6.75 0 0 0 -2.33 4.71c-.11 1.85.39 3.11 1.5 3.77a6.41 6.41 0 0 0 4.58.43 2.5 2.5 0 0 0 .81-.31z"/><path d="m667.31 10.24v-3.39l-6 .6v3.43z"/><path d="m650 32.46v-7.49l-11.48 1.21v7.49z"/><path d="m661.31 23.77v13.47a61.19 61.19 0 0 1 6 1.87v-8.49l9.15-1v-12.86l-6 .64v5.39z"/><path d="m671 53.37c-2.05-1.18-3.78-2.12-5.2-2.84a21.41 21.41 0 0 0 -4.45-1.66v5.19q0 5.94-2 9.16a11.61 11.61 0 0 1 -5.25 4.66 21.4 21.4 0 0 1 -6.32 1.76 18.7 18.7 0 0 1 -7.66-.4 10.73 10.73 0 0 1 -1.59-.57 10.66 10.66 0 0 0 1.56 3.21 10.84 10.84 0 0 0 6 4.21 18.51 18.51 0 0 0 7.66.4 21.1 21.1 0 0 0 6.32-1.76 11.56 11.56 0 0 0 5.24-4.65q2-3.22 2-9.17v-5.19a22.22 22.22 0 0 1 4.45 1.66c1.41.72 3.15 1.66 5.2 2.84v-12.89c-2.26-.88-4.25-1.6-6-2.17z"/><path d="m34.79 252.28v-.36l.16.16a39.17 39.17 0 0 0 5.33-8.66c0-.11.09-.24.14-.36l-1.75-1.06-5.55 7.49c-.39-.46-1.08-1.19-2.08-2.17s-1.75-1.72-2.25-2.23v16.15l-6 .64v7.49l12-1.27v-15.81z"/><path d="m16.81 248.26a67 67 0 0 1 -8.81 10.48c-.46-.59-.91-1.14-1.36-1.68l-.63.51a38.73 38.73 0 0 1 8 8c1-1 2-2 3-3.12h-.19z"/><path d="m23.14 206.29 2.1-.22c1.21-3.44 2-6 2.47-7.75l-10.57 1.12a27.42 27.42 0 0 1 2.33 7.56l-3.74 1.41 7.92-.85c-.17-.44-.32-.84-.51-1.27z"/><path d="m16.81 218.39-8.4.89v5.19l8.4-.9z"/><path d="m8.66 234.82v7.48h.06a63.79 63.79 0 0 0 5.76-8.1z"/><path d="m9.41 200.26v.55l2.32-.8z"/><path d="m41.86 231.29-13.07 1.39v.08c.89.52 2.12 1.27 3.71 2.24s3.18 2 4.82 3.05l1.61 1 3.12-.33a44.87 44.87 0 0 0 1.35-5.37c.34-1.85.61-3.59.82-5.24l-2.36.25z"/><path d="m37 254.15c1 1 1.69 1.7 2.08 2.16l.6-.82a21 21 0 0 0 -4.22-2.86z"/><path d="m35.28 197.51 3.66.28c-.39.88-1 2.31-1.79 4.29s-1.4 3.39-1.78 4.21l7.32-.78v4.56l.46-1.13c.8-2 1.4-3.4 1.79-4.28l-3.66-.29 3.66-.38v-10l-2.75.29v2.55z"/><path d="m56.67 216.5q-.59 28.59-13 43.3a12.61 12.61 0 0 0 -1.67-2.21c-.39.52-.78 1.05-1.2 1.55a19.28 19.28 0 0 1 5 3.24 17.27 17.27 0 0 1 3.91 4.27q12.41-14.7 13-43.3h.32v-7.49z"/><path d="m74.98 214.55v41.42l-5.99.64v7.49l11.98-1.27v-41.43l7.24-.76v-11.55l-5.99.63v4.06z"/><path d="m88.21 190.93-7.49-6a155.17 155.17 0 0 1 -24 9.85v10.22l6-.64v-2.72q16.28-5.46 25.49-10.71z"/><path d="m42.69 215.64-13.9 1.47v5.19l13.07-1.39v2.31l2.85-.31c.15-2.47.23-5.18.23-8.18v-2l-2.25.24z"/><path d="m120 188.69 1.68-2.44-4.62.49v-3.74c-.91-.44-1.9-.88-3-1.31l-5.59 8.1a28.85 28.85 0 0 0 -5.58-3.8l-2.23 3.16q9.48 3.6 13.81 7.49l3.74-5.43v-2.37z"/><path d="m134.65 211.23 15.9-1.69a18.78 18.78 0 0 1 -1.33-2.45l-13.07 1.38q-.5.98-1.5 2.76z"/><path d="m131.24 233.51-3.74.4v2.83a18.65 18.65 0 0 0 3.74-3.23z"/><path d="m114.18 242.52c.72-.21 1.41-.43 2.09-.65 1.36-3.72 2.7-7.48 4-11.33l-7-4c-3.11 9-6.38 17.74-9.85 26l-3.74-1.86c-.49 1.05-1 2.1-1.5 3.13l11.24 5.58q3.14-7.53 6.08-15.48a16.15 16.15 0 0 0 -1.32-1.39z"/><path d="m113.69 206.83c-1.21-.61-2.55-1.21-4-1.78l-5.46 8.07a26.87 26.87 0 0 0 -5.31-3.57l-2.26 3.33q9.32 3.28 13.57 7.1l6.37-9.43-2.88.31z"/><path d="m119.68 210.22v2.3c.72-.81 1.41-1.65 2.08-2.52z"/><path d="m120.59 227.7a6.26 6.26 0 0 1 -.91.77 18.15 18.15 0 0 0 -1.84-2.14l-1.07.73a49 49 0 0 1 4.74 3.89v-4a5.74 5.74 0 0 0 -.92.75z"/><path d="m171.19 230.32a40.6 40.6 0 0 1 3.58-5.65 42.69 42.69 0 0 1 4.24-5.06 27.7 27.7 0 0 1 -7.87-4.81c-.75.89-1.54 1.88-2.37 3a42.6 42.6 0 0 0 -3.58 5.66c-.66-.32-1.27-.65-1.83-1v2.65a23.85 23.85 0 0 0 3.09 2.5l-3.09.33v2.13l-11.36 1.24q5.61 4.56 17.4 4.61v-6.58c.51.33 1.13.66 1.79.98z"/><path d="m155.64 216.49-.85.09v1.88l-6.74.72c-.11 1.35-.22 2.34-.33 3l12.73-1.35a25.54 25.54 0 0 1 -4.81-4.34z"/><path d="m141 196.75a9.56 9.56 0 0 0 -.42 1.3l4.83-.51-.75-2.44-3.25.35a8 8 0 0 1 -.41 1.3z"/><path d="m135.78 222q.12-1 .21-1.53l-6.16.65v-2.68a48.5 48.5 0 0 1 -5.66 6.21l11.48-1.22a12.3 12.3 0 0 1 .13-1.43z"/><path d="m142.14 237.8q-5.71 8-20.32 13.27a31 31 0 0 1 2 2.56 21.21 21.21 0 0 1 2.62 4.79q15.74-5.36 21.72-13.77 6.66 8.16 20.72 9.26a42.82 42.82 0 0 1 3.16-5.86 35 35 0 0 1 3.91-5.26 43.06 43.06 0 0 1 -10.23-1.06 43.43 43.43 0 0 0 -2.84 5.33q-14.07-1.06-20.74-9.26z"/><path d="m128.91 196.77-4.74.51v2.51l3.74-.4z"/><path d="m125.67 235.32a6.22 6.22 0 0 0 .92-.77 9.07 9.07 0 0 1 .71-.62l-2.52.27c.35.41.66.8.89 1.12z"/><path d="m162.78 205.65a27.93 27.93 0 0 0 8.92 6.54l5.56-.59v-10l-6 .64v2.47z"/><path d="m169.36 237v-.37l-.36.4z"/><path d="m131.74 187.44.5-2.31-9.23.97v2.27z"/><path d="m144.31 183.84-.5 2.32 23.88-2.54v5.23l7.16-.76v-9.62l-6 .63v2.14z"/><path d="m155.87 193.91.3.77c.13.34.26.65.37.92s.22.51.33.72l14.4-1.53v5l2.42-.26v-9l-6 .64v1.55z"/><path d="m245.18 180.79v-12l-5.74.61v11.91s0 .09.05.13z"/><path d="m204 223.45a39.17 39.17 0 0 0 4.66.72 161.5 161.5 0 0 0 3.5-22 15.88 15.88 0 0 0 1.87-.28c.33-.07.72-.13 1.15-.19 0-.8-.07-1.6-.12-2.39 0-2.12-.38-3.43-1.16-3.93a7.59 7.59 0 0 0 -4.16-.61 16.32 16.32 0 0 0 -1.71.27 15.56 15.56 0 0 1 -1.87.28 162.69 162.69 0 0 1 -3.49 22 198.79 198.79 0 0 1 -6.16 20.91l-4.29.45c-.94 2.54-2 5.14-3.11 7.82l13.4-1.42c.95-2.7 1.82-5.38 2.64-8a5.35 5.35 0 0 1 -1.15-.19z"/><path d="m230.31 193.77a10.62 10.62 0 0 0 -1.48-2.12 9.2 9.2 0 0 0 -3.5-2.42 31 31 0 0 1 1.54 8 117.94 117.94 0 0 1 .46 13 66.2 66.2 0 0 1 -1.33 12.6 23.8 23.8 0 0 1 -4.21 9.69 11.85 11.85 0 0 1 -8.11 4.55c-1.35.11-2.56.18-3.66.21v6.41a17.4 17.4 0 0 0 2.63.35 40.65 40.65 0 0 0 7-.12 11.88 11.88 0 0 0 8.11-4.54 23.76 23.76 0 0 0 4.2-9.7 67 67 0 0 0 1.38-12.57 117.94 117.94 0 0 0 -.46-13c0-.3-.06-.57-.09-.87l-1 .11c-.38-3.41-.88-6.59-1.48-9.58z"/><path d="m190.51 198.13v8.13c.1 0 .83-.17 2.18-.47.37-2.65.7-5.4 1-8.28-1.18.22-2.22.42-3.18.62z"/><path d="m236.2 174.25-2.76.3v-4.56l-2.98.31v7.41l5.74-.61z"/><path d="m208.77 182.19 2.42-.26 1.88-.2c0-1.67 0-3.39 0-5.23l-6 .64c0 1.86-.08 3.62-.15 5.25z"/><path d="m240.32 184.15a142.59 142.59 0 0 1 3.68 17.85l-7.28.78q.63 3.51 1.05 7.37l12.23-1.3q-2.41-16.14-6.16-25.11z"/><path d="m333.15 194.34-73.39 7.79v7.49l79.39-8.43v-13.64l-6 .63z"/><path d="m348.15 196.8c.32.27.62.55.93.83-.21-.32-.42-.64-.64-.95z"/><path d="m356.22 159.47c.1.27.2.54.29.8l2.37-1.14c-.66.07-1.56.19-2.66.34z"/><path d="m411.89 152.75c-1.19 2.06-2.29 3.93-3.32 5.64q7-1.57 13.31-3.56l-6.4-6.73q-6.23 2-13.16 3.49z"/><path d="m350 198.47a33.32 33.32 0 0 1 5 6v-8.47c-2 1.08-3.69 1.89-5 2.47z"/><path d="m350.31 178.87v7.47a86.28 86.28 0 0 0 14.48-9z"/><path d="m358 166.89 1-.13c-.45-.82-.92-1.66-1.44-2.51.19.89.33 1.75.44 2.64z"/><path d="m416.67 161.7c.39-.68.8-1.37 1.21-2.09l-9.36-1.14c-1 1.62-1.88 3.08-2.71 4.38z"/><path d="m400.4 173.55a65.82 65.82 0 0 0 17.2 5.67l9.85-1.05v-10.12l-6 .63v2.64z"/><path d="m388.5 200.76 10.65-1.13v-2.76l-10.65 1.13z"/><path d="m366.95 203.05 9.82-1.05v-2.76l-9.82 1.04z"/><path d="m394.67 188.22v-2.72c1 .83 2.05 1.63 3.11 2.39l5-.53a61.76 61.76 0 0 1 -14.15-8.71v8.79l-6.32.67v1.42z"/><path d="m381.23 188.23-4.88.51v-8.45a98.18 98.18 0 0 1 -14 11.36l17.13-1.82c.6-.53 1.18-1.06 1.75-1.6z"/><path d="m416.38 191.69c-1.44-.29-3.05-.68-4.83-1.16v30l-12.39 1.31v-2.17l-32.16 3.38v2.51l-5.9.62v7.49l11.9-1.26v-2.51l32.2-3.42v2.18l12.4-1.32v-30c1.77.48 3.38.87 4.83 1.16a50.2 50.2 0 0 1 8.15-11.41 87.73 87.73 0 0 1 -10.23-1.77 60.77 60.77 0 0 0 -3.97 6.37z"/><path d="m374.58 166.17c-.31-.44-.62-.88-1-1.36.77-.1 1.68-.24 2.74-.4v-7.8q-5.82 1-8.73 1.35a38.49 38.49 0 0 1 4.24 6.83l-4.24 2.12z"/><path d="m366.95 213.84 9.82-1.04v-2.93l-9.82 1.04z"/><path d="m399.15 207.49-10.65 1.14v2.92l10.65-1.13z"/><path d="m394.67 163.51-1.09-.19a87.5 87.5 0 0 0 4.08-10.65c-2.28.53-5.27 1.12-9 1.8v10.2l6-.63z"/><path d="m490.29 153.55a51.41 51.41 0 0 1 -6.29 16.53 41 41 0 0 1 -8.48 10.4c-1.22 1-2.32 1.84-3.33 2.6v10.76a16.15 16.15 0 0 0 2.62-1.53 73.82 73.82 0 0 0 6.7-5 40.79 40.79 0 0 0 8.49-10.4 51.69 51.69 0 0 0 6.33-16.53v-12.78l-6 .64z"/><path d="m440 158.89v7.49l34.43-3.66a37 37 0 0 0 2.26-7.73z"/><path d="m466.16 187v-14.4a7.7 7.7 0 0 0 1.54-1l-4.54.49v.71a45.73 45.73 0 0 1 -10.69 29.88 41.42 41.42 0 0 1 -8.41 7.58 44.57 44.57 0 0 1 -4 2.33v9.57a55.42 55.42 0 0 0 10-5 41.17 41.17 0 0 0 8.4-7.59 46.11 46.11 0 0 0 7.37-12.25 42 42 0 0 0 2.95-11.77 16.69 16.69 0 0 1 -2.62 1.45z"/><path d="m535.7 167.6c.88-2.07 1.65-4.1 2.37-6.12l-3.32-18.13-4.65.49 4.71 25.71c.31-.64.61-1.29.89-1.95z"/><path d="m529.15 170.26 1.13 6.54a42.05 42.05 0 0 0 4.47-7.13z"/><path d="m554.75 149.55a105.66 105.66 0 0 1 -4.36 15.45 72.62 72.62 0 0 1 -8.53 16.43 63.41 63.41 0 0 1 -13.61 14.33 50.05 50.05 0 0 1 -13.64 7.38v8.71a53.44 53.44 0 0 0 19.64-9.24 63.16 63.16 0 0 0 13.6-14.33 72.22 72.22 0 0 0 8.53-16.43 104.2 104.2 0 0 0 4.37-15.44 139.72 139.72 0 0 0 2-15.86l-6.75.71c-.32 2.92-.74 5.74-1.25 8.29z"/><path d="m512.77 172 1.26 7.35 10.32-1.09-5.91-33.18-4.69.5 4.6 25.83z"/><path d="m581.36 173.75c-2.72 1.71-5 3.08-7 4.11v9.65c.06 0 1.25-.54 3.58-1.6a83.59 83.59 0 0 0 9.4-5.3 75.36 75.36 0 0 0 6.32-4.49v-12a86.89 86.89 0 0 1 -12.3 9.63z"/><path d="m616 140.37q-5 7-9.2 12.19v44l-7.15.76v7.49l13.15-1.4v-44q4.15-5.22 9.19-12.19a85.83 85.83 0 0 0 8.53-14.63l-10.15 1.08c-1.37 2.33-2.78 4.51-4.37 6.7z"/><path d="m668.96 172.94 5.17-.54 2.08-43.07-6.36.68-1.72 35.53-7.51.8.33 6.83 8.01-.85z"/><path d="m660.15 186.14v7.49l14.81-1.57v-12.89l-6 .64v5.39z"/><path d="m708.67 180.99-8.81.93v7.49l14.81-1.57v-12.89l-6 .64z"/><path d="m708.67 168.73 5.17-.55 2.08-43.07-6.36.68-1.72 35.54-7.51.8.33 6.82 8.01-.85z"/></g><path d="m71.5 115v12l6-.64 7.82-.83v-12l9.07-1v-11.41l-3.07.32-6 .64v-39.16l-13.82 1.47-27.71 42.1v11.51l6-.64zm-14.9-10 14.73-22.9h.17v21.51l-3.85.41-11.05 1.11z" fill="#ff0"/><path d="m132.52 126a26.28 26.28 0 0 1 2.32 2.41q10.23-9.62 14.31-26.62l34-3.62v9.83c0 1.62-.89 2.52-2.66 2.71-6.82.72-11.71 1.13-14.64 1.22a44.85 44.85 0 0 1 3 6.16 33.19 33.19 0 0 1 2 6.35c1.26-.13 2.45-.27 3.57-.4q5.16-.63 8.46-1.29a23.68 23.68 0 0 0 7.44-2.72 10.84 10.84 0 0 0 4.58-5 21 21 0 0 0 1.33-8.3v-62.46l-57.58 6.11v29.37q0 5.86-.38 10.34a79.4 79.4 0 0 1 -1.62 10.17 38.9 38.9 0 0 1 -4.16 10.86 38.14 38.14 0 0 1 -7.41 9.32 31.92 31.92 0 0 1 5.08 3.56c.95.7 1.69 1.34 2.36 2zm50.66-60.67v.67l-25.62 2.72-6 .64v-8.2l31.62-3.36zm0 12.59v8.2l-25.66 2.73-6.46.68q.33-4.3.5-8.25z" fill="#ff0"/><path d="m275.28 105.34v-11.72l-9.25 1-14.3 1.52v-.14q13.82-13.09 18.56-20.47a27.39 27.39 0 0 0 4.74-15 19.48 19.48 0 0 0 -1.29-7.32 13.43 13.43 0 0 0 -4.28-5.72q-5.58-4.35-15.9-3.25a57.38 57.38 0 0 0 -19.63 5.68v13.29c2.1-1.19 4.09-2.2 6-3.07a38.45 38.45 0 0 1 11.48-3.56q8.66-.91 8.73 6.8s0 .09 0 .14q0 6-5.33 12.95t-22.13 21.68v11.71l6-.63z" fill="#ff0"/><path d="m309.42 102.55q26-2.76 26-24.85a22.94 22.94 0 0 0 -1.42-8.7 13.79 13.79 0 0 0 -3.65-5.24q-5.16-4.52-14.72-3.49c-.66.07-1.31.17-2 .3a22.54 22.54 0 0 0 -6.2 2.24h-.25l.58-11.69 24.88-2.64v-11.82l-37.86 4-1.78 36.27 6.36-.68 6-.64q3.66-3.64 7.41-4c5.38-.57 8.19 1.71 8.46 6.82v.82q0 10.55-12.49 11.87a46 46 0 0 1 -15.64-1.52v12.38a46.84 46.84 0 0 0 6 .82 56.89 56.89 0 0 0 10.32-.25z" fill="#ff0"/><path d="m391.48 94.42 35.37-3.75v5.69l13.39-1.42v-75.57l-61.57 6.54v75.57l6-.64 6.82-.72zm35.37-53.58v8.24l-29.37 3.12-6 .63v-15.73l35.37-3.75zm0 20.54v16.74l-29.37 3.12-6 .63v-16.73z" fill="#ff0"/><path d="m488.88 86.76c.3.27.6.54.91.8l9.2-1q-12.53-12-12.52-30a48.15 48.15 0 0 1 2.88-16.56 52.66 52.66 0 0 1 9.65-16.2l-9.2 1a48.64 48.64 0 0 0 -9.95 15.2 45.82 45.82 0 0 0 -3.54 17.59 40.29 40.29 0 0 0 3.54 16.82 36.17 36.17 0 0 0 9.03 12.35z" fill="#ff0"/><path d="m528.83 44.41v7.49 13.52l-24.73 2.63v9.38l6-.64 54.13-5.74v-1.9-7.49l-19.11 2.03-6 .64v-21.01l20.64-2.19v-1.9-7.49l-14.64 1.56-6 .64v-12.44-7.48l-10.29 1.09v19.92l-20.32 2.16v9.38l6-.64z" fill="#ff0"/><path d="m569.15 79.13 9.14-1a47.46 47.46 0 0 0 6.42-8.26 48.45 48.45 0 0 0 3.55-7 46 46 0 0 0 3.51-17.57 40.78 40.78 0 0 0 -3.51-16.84 36.53 36.53 0 0 0 -3-5.44 35 35 0 0 0 -7-7.71l-9.14 1q12.47 12 12.46 30.1 0 17.25-11.38 31.37l-.07.08c-.3.46-.63.87-.98 1.27z" fill="#ff0"/><path d="m647.75 69.64a21.4 21.4 0 0 0 6.32-1.76 11.61 11.61 0 0 0 5.25-4.66q2-3.22 2-9.16v-5.19a21.41 21.41 0 0 1 4.45 1.66c1.42.72 3.15 1.66 5.2 2.84v-12.89c-1.3-.51-2.52-1-3.65-1.37a61.19 61.19 0 0 0 -6-1.87v-13.47l9.16-1v-12.86l-3.16.33-6 .64v-10.88l-11.32 1.12v11l-14.48 1.54-3 .32v12.84l1.62-.17 4.38-.46 11.48-1.19v12q-9 .38-13.61 5.42a16.83 16.83 0 0 0 -3 4.59 21.75 21.75 0 0 0 -1.73 8.67q0 6.2 2.37 9.42a11.59 11.59 0 0 0 .89 1.06 10.75 10.75 0 0 0 5.14 3.15 18.7 18.7 0 0 0 7.69.33zm-4.58-11.9c-1.11-.66-1.61-1.92-1.5-3.77a6.75 6.75 0 0 1 2.33-4.68q2.09-1.82 6-1.56v6.44a7.21 7.21 0 0 1 -.3 2.25 4.36 4.36 0 0 1 -.2.52 2.06 2.06 0 0 1 -.94 1 2.5 2.5 0 0 1 -.81.28 6.41 6.41 0 0 1 -4.58-.48z" fill="#ff0"/><path d="m628.9 58.84q-.63-5-1.08-10.93t-.46-12.09q0-5.19.38-10.71t.87-10.3c.1-1 .22-2.05.34-3.13.27-2.35.57-4.87.91-7.59l-11.48 1.22q-1.26 9.77-1.84 17.06t-.54 15.08q0 8.37.62 16t2 17.69l5-.53 6.79-.72q-.88-6.09-1.51-11.05z" fill="#ff0"/><path d="m56.67 194.74a155.17 155.17 0 0 0 24-9.85c.5-.27 1-.54 1.49-.81l-9.81-7.91q-7.08 4.68-20.72 9.81l-6.74-1.21v19.88 10.07c0 3-.08 5.71-.23 8.18 0 .38 0 .77-.07 1.14-.09 1.29-.23 2.66-.42 4.1-.21 1.65-.48 3.39-.82 5.24a44.87 44.87 0 0 1 -1.35 5.37 44.65 44.65 0 0 1 -1.63 4.3c-.05.12-.09.25-.14.36a39.17 39.17 0 0 1 -5.23 8.67c-.06.06-.11.14-.16.2.23.1.47.22.71.34a21 21 0 0 1 4.22 2.86h.06a26.65 26.65 0 0 1 2.2 2.06 12.61 12.61 0 0 1 1.71 2.21q12.39-14.7 13-43.3l6.32-.68v41.43l6-.64 6-.64v-41.37l7.23-.77v-11.54l-19.54 2.07-6 .64z" fill="#ff0"/><path d="m28.79 245.06c.5.51 1.25 1.25 2.25 2.23s1.69 1.71 2.08 2.17l5.55-7.46 1.52-2.05c-.17-.12-.59-.4-1.26-.83l-1.61-1c-1.64-1.12-3.24-2.12-4.82-3.12s-2.82-1.72-3.71-2.24v-.08l13.07-1.39v-10.38l-13.07 1.39v-5.19l13.9-1.47v-10.13l-7.32.78c.38-.82 1-2.22 1.78-4.21s1.4-3.41 1.79-4.29l-3.66-.28 6.91-.73v-10l-13.4 1.42v-7.28l-12 1.27v7.28l-13.4 1.42v10.01l6-.64 2.32-.25-2.32.8-2.25.78a29.18 29.18 0 0 1 2.16 7.47l-6.91.73v10.12l6-.63 8.4-.89v5.18l-8.4.9-5.75.61v10.37l6-.63 5.82-.62a63.79 63.79 0 0 1 -5.76 8.1 54 54 0 0 1 -8.7 8.41 36.21 36.21 0 0 1 6.63 6.35c.45.54.9 1.09 1.36 1.68a67 67 0 0 0 8.82-10.48v14.23h.19l5.81-.62 6-.64zm-13.06-36.68 3.74-1.38a27.42 27.42 0 0 0 -2.33-7.53l10.57-1.12c-.43 1.72-1.26 4.31-2.47 7.75l-.11.3 5.16.46-6.64.7z" fill="#ff0"/><path d="m109.66 205.05 1.86-2.75q-4.58-3.44-14.14-6.19l-6.74 9.89a61.32 61.32 0 0 1 8.25 3.52 26.87 26.87 0 0 1 5.31 3.57z" fill="#ff0"/><path d="m163.36 230.1v-7.61c.56.33 1.17.66 1.83 1a42.6 42.6 0 0 1 3.58-5.66c.83-1.13 1.62-2.12 2.37-3s1.28-1.46 1.88-2c-.45-.18-.88-.37-1.32-.57a27.93 27.93 0 0 1 -8.92-6.54l8.49-.9v-10l-14.4 1.53q-.17-.31-.33-.72c-.11-.27-.24-.58-.37-.92l-.3-.77 11.82-1.25v-9l-23.88 2.54.5-2.32 24.54-2.6v-9.63l-23 2.45q.49-4.23.66-5.76l-12 .18q-.17 2.11-.67 6.85l-16.84 1.72v9.62l4.62-.49 1.38-.15 9.23-1-.5 2.32-8.73.92-3.06.33-1.77.19v9l6-.64 4.74-.51-1 2.62-3.74.4-10.48 1.11v10l2.88-.31 3.11-.33 2.08-.22c-.67.87-1.36 1.71-2.08 2.52a44.16 44.16 0 0 1 -8.91 7.69 51.24 51.24 0 0 1 5 4.07c.83.76 1.52 1.43 2.12 2.05a18.15 18.15 0 0 1 1.84 2.14 6.26 6.26 0 0 0 .91-.77 5.74 5.74 0 0 1 .92-.77v7.62l3.27-.35 2.52-.27h.2l3.74-.4a18.65 18.65 0 0 1 -3.74 3.23 44.87 44.87 0 0 1 -11.23 5.13c-.68.22-1.37.44-2.09.65a16.15 16.15 0 0 1 1.35 1.38 28.7 28.7 0 0 1 2.27 2.88 20.61 20.61 0 0 1 2.62 4.79l1.4-.5q14.6-5.23 20.32-13.27 6.66 8.16 20.72 9.26a43.43 43.43 0 0 1 2.84-5.33c.11-.18.21-.35.33-.53a41.52 41.52 0 0 1 3-4.21l.36-.4c.19-.22.39-.46.58-.66h-.58q-11.78-.06-17.4-4.61zm-12.81-20.56-15.9 1.69q1-1.78 1.5-2.76l13.07-1.38a18.78 18.78 0 0 0 1.33 2.45zm-20.72 8.89v2.68l6.16-.65q-.09.51-.21 1.53a12.3 12.3 0 0 0 -.13 1.43l-11.48 1.22a48.5 48.5 0 0 0 5.66-6.21zm14.81-23.33.75 2.44-4.83.51a9.56 9.56 0 0 1 .42-1.3 8 8 0 0 0 .41-1.3zm3.41 24.08 6.74-.72v-2.93c.28.34.56.64.85 1a25.54 25.54 0 0 0 4.81 4.3l-12.73 1.35c.11-.66.22-1.65.33-3z" fill="#ff0"/><path d="m114 181.73 1.82-2.65q-4.17-3.32-14.31-6.51l-6.91 9.77a68.88 68.88 0 0 1 8.23 3.69 28.85 28.85 0 0 1 5.58 3.8z" fill="#ff0"/><path d="m113.3 226.49c.32-.94.65-1.86 1-2.8l-10-5.81a264.38 264.38 0 0 1 -12.08 29.12l7.49 3.72 3.74 1.86c3.47-8.35 6.74-17.05 9.85-26.09z" fill="#ff0"/><path d="m230.2 162.84-5.74.61v12.05l5.74-.61z" fill="#ff0"/><path d="m236.2 174.25 2.99-.31v-12.05l-5.75.61v7.49 4.56z" fill="#ff0"/><path d="m240.32 184.15c-.27-1-.55-1.87-.83-2.76 0 0 0-.09-.05-.13-.51-1.56-1-3-1.58-4.34l-1.66.18-5.74.61-5.09.54a65.26 65.26 0 0 1 4.94 15.52c.6 3 1.1 6.17 1.47 9.57l1-.11 3.95-.41 7.27-.82a142.59 142.59 0 0 0 -3.68-17.85z" fill="#ff0"/><path d="m221.75 232.52a23.8 23.8 0 0 0 4.21-9.69 66.2 66.2 0 0 0 1.37-12.57 117.94 117.94 0 0 0 -.46-13 31 31 0 0 0 -1.54-8 13.36 13.36 0 0 0 -2.49-4.44q-3.37-3.73-9.62-3.08h-.15l-1.88.2-2.42.26-1.87.2c.07-1.63.12-3.39.15-5.25 0-2.32 0-4.8 0-7.49l-12.71 1.34q0 7.37-.09 13.31c-2.83.53-6.07 1.15-9.73 1.88v13.22c.11 0 1-.2 2.62-.57.94-.22 2.08-.45 3.37-.71 1-.2 2-.4 3.16-.62-.28 2.88-.61 5.63-1 8.28q-1 7.17-2.52 13.27a136 136 0 0 1 -7.07 20.58l9.11-1 4.29-.45a198.79 198.79 0 0 0 6.16-20.91 162.69 162.69 0 0 0 3.49-22 15.56 15.56 0 0 0 1.87-.28 16.32 16.32 0 0 1 1.71-.27 7.59 7.59 0 0 1 4.16.61c.78.5 1.16 1.81 1.16 3.93 0 .79.08 1.59.12 2.39.13 2.78.22 5.59.22 8.46a49.82 49.82 0 0 1 -.79 9.49c-.53 2.65-1.51 4.14-3 4.46a14.57 14.57 0 0 1 -3 0 39.17 39.17 0 0 1 -4.66-.72v13.39a5.35 5.35 0 0 0 1.15.19l1.47.15a26.87 26.87 0 0 0 3.37.1c1.1 0 2.31-.1 3.66-.21a11.85 11.85 0 0 0 8.18-4.45z" fill="#ff0"/><path d="m333.15 188.18v-7.49l-79.38 8.43v13.64l5.99-.63 73.39-7.79z" fill="#ff0"/><path d="m367 223.05 32.21-3.42v2.17l12.39-1.31v-30c1.78.48 3.39.87 4.83 1.16a60.77 60.77 0 0 1 3.92-6.33 43 43 0 0 1 4.23-5.08q-3.58-.42-6.93-1.06a65.82 65.82 0 0 1 -17.2-5.67l21.06-2.23v-10.09l-4.79.51-10.86 1.15c.83-1.3 1.74-2.76 2.71-4.38l.05-.08c1-1.71 2.13-3.58 3.32-5.64l-9.57-1.16q6.93-1.54 13.16-3.49l.4-.12-7.66-8.06q-21.21 6.44-58.66 11a29.84 29.84 0 0 1 2.39 9.08c.72-.08 1.85-.23 3.37-.45l.88-.12c1.1-.15 2-.27 2.66-.34l-2.37 1.14-1.21.58c.83 1.16 1.59 2.29 2.28 3.4.52.85 1 1.69 1.44 2.51.17.34.36.68.53 1l-15.23 1.61v10.13l6-.64 14.48-1.54a86.28 86.28 0 0 1 -14.48 9c-2.61 1.3-5.33 2.51-8.16 3.61a34.9 34.9 0 0 1 6.29 6.73c.22.31.43.63.64.95s.44.64.65 1l.28-.13c1.3-.58 3-1.39 5-2.44v30.79l6-.64 5.9-.62zm32.21-23.42-10.66 1.13v-2.76l10.66-1.13zm-22.39-.39v2.76l-9.82 1.05v-2.76zm0 10.63v2.93l-9.82 1v-2.93zm11.73-1.25 10.66-1.13v2.93l-10.66 1.13zm-20.93-50.62q2.91-.39 8.73-1.35v9.35l-1.77.19-7 .74 4.24-2.12a38.49 38.49 0 0 0 -4.2-6.81zm21.05-3.49c3.72-.68 6.71-1.27 9-1.8a87.5 87.5 0 0 1 -4.08 10.65l1.09.19 1.82.33-1.82.2-6 .63zm-12.32 25.82v8.45l4.88-.51 1.12-.12 6.32-.67v-8.79a61.76 61.76 0 0 0 14.15 8.71l-5 .53-3.11.33-12.32 1.31-2.85.3-17.13 1.82a98.18 98.18 0 0 0 13.94-11.4z" fill="#ff0"/><path d="m452.47 202.63a45.73 45.73 0 0 0 10.69-29.88v-8.2l-12.56 1.33v7.7q-.09 8.88-2.54 14.29a24.48 24.48 0 0 1 -5.58 8.2 19 19 0 0 1 -5.74 3.79 16.83 16.83 0 0 1 -2.7.92v14.47a62.29 62.29 0 0 0 6-2.71 44.57 44.57 0 0 0 4-2.33 41.42 41.42 0 0 0 8.43-7.58z" fill="#ff0"/><path d="m484 170.08a51.41 51.41 0 0 0 6.33-16.53v-12.8l-56.25 6v12.8l6-.63 36.69-3.9a37 37 0 0 1 -2.26 7.73 20.3 20.3 0 0 1 -1.6 3 22.77 22.77 0 0 1 -4.58 5.38l-.58.43a7.7 7.7 0 0 1 -1.54 1v14.44a16.69 16.69 0 0 0 2.62-1.53c1-.61 2.08-1.41 3.37-2.38 1-.76 2.11-1.62 3.33-2.6a41 41 0 0 0 8.47-10.41z" fill="#ff0"/><path d="m541.86 181.42a72.62 72.62 0 0 0 8.53-16.42 105.66 105.66 0 0 0 4.36-15.44c.51-2.59.93-5.37 1.29-8.3.3-2.41.55-4.92.75-7.57l-13.14 1.4c.05.11-.1 1.77-.46 5a102.54 102.54 0 0 1 -2.33 12.21 91.86 91.86 0 0 1 -2.79 9.2c-.72 2-1.49 4.05-2.37 6.12-.28.66-.58 1.31-.89 2l-4.71-25.71-1.35-7.35-10.07 1.07 5.74 33.2 4.73-.5 5.6-.59a42.05 42.05 0 0 1 -4.47 7.13 47.71 47.71 0 0 1 -4.65 5.17 39 39 0 0 1 -17 9.3v13.66c2.09-.54 4.08-1.16 6-1.86a50.05 50.05 0 0 0 13.64-7.38 63.41 63.41 0 0 0 13.59-14.34z" fill="#ff0"/><path d="m518.35 171.41-4.6-25.83-1.31-7.35-10.07 1.07 5.66 33.2 4.74-.5z" fill="#ff0"/><path d="m606.82 152.56q4.15-5.22 9.2-12.19c1.57-2.19 3-4.42 4.37-6.7a82 82 0 0 0 4.15-7.93l-15 1.59a92.65 92.65 0 0 1 -12.9 18.56 90.69 90.69 0 0 1 -24 19.13c-2.77 1.44-4.19 2.16-4.24 2.16v13.48s1.24-.54 3.57-1.6c.73-.33 1.54-.73 2.42-1.2 2-1 4.27-2.4 7-4.11a86.89 86.89 0 0 0 12.31-9.59v33.84l6-.64 7.15-.76z" fill="#ff0"/><path d="m668.96 172.32-8.01.85-6.8.72v12.89l6-.64 8.81-.94v-5.39-6.87z" fill="#ff0"/><path d="m669.85 130.01.36-7.53-17.31 1.84 2.08 42.62 5.64-.6 7.51-.8z" fill="#ff0"/><path d="m709.56 125.79.36-7.53-17.31 1.84 2.08 42.62 5.64-.59 7.51-.8z" fill="#ff0"/><path d="m708.67 175.59v-6.86-.63l-8.01.85-6.8.72v12.89l6-.64 8.81-.93z" fill="#ff0"/></svg>