<svg viewBox="0 0 390 55.38" xmlns="http://www.w3.org/2000/svg"><path d="m390 15.38h-49.89v-13.82-1.56h-290.59v1.56 13.82h-49.52l15.38 20-15.38 20h72.78l-23.26-15.38h23.26 244.07.37 22.89l-22.89 15.13v.25h72.78l-15.38-20z" fill="#ff0"/><path d="m72.78 55.38v-15.38h-23.26z" fill="#e7a52d"/><path d="m317.22 40h-.37v15.38l.37-.25 22.89-15.13z" fill="#e7a52d"/><g fill="#231815"><path d="m157.41 19.36a16.73 16.73 0 0 1 3.48-.42c3.12 0 5.73 1.62 5.73 4.54 0 2.32-1.07 4.22-4.47 5.08a18.54 18.54 0 0 1 -2.68.34l-1.1-3.1a15 15 0 0 0 2.48-.14c1.52-.26 2.64-1 2.64-2.2s-1-1.88-2.64-1.88a14 14 0 0 0 -3.38.44c0 1.5.08 2.88.08 3.48 0 2.8-1 3.48-2.42 3.48-2.14 0-5-1.74-5-4 0-1.78 2-3.64 4.48-4.72 0-.52 0-1 0-1.54v-1.16c-.32 0-.6 0-.86 0a28.1 28.1 0 0 1 -2.88-.1l-.06-2.88a23.13 23.13 0 0 0 2.86.14h.94v-1.26c0-.42-.08-1.56-.14-1.94h3.28c-.06.38-.16 1.4-.2 1.92l-.06 1a24.62 24.62 0 0 0 3.42-.68l.06 3c-1.1.24-2.36.42-3.56.56v1.28zm-2.66 5.56c0-.38 0-1 0-1.86-1 .56-1.58 1.2-1.58 1.78s.66.86 1 .86.58-.08.58-.78zm8.38-11.28a49.44 49.44 0 0 1 5.07 2.74l-1.43 2.44a36.65 36.65 0 0 0 -4.94-2.82z"/><path d="m179.61 21.34a4 4 0 0 1 -.08.52c1.06 1.08 3.14 3.46 3.66 4.1l-2 2.46c-.64-1-1.6-2.4-2.5-3.58a10.64 10.64 0 0 1 -3.58 4.87 11.18 11.18 0 0 0 -2.08-2.21 9 9 0 0 0 3.6-6.16h-3.26v-2.74h3.48v-2.7h-.38a14.08 14.08 0 0 1 -1.24 2.4 18.09 18.09 0 0 0 -2.23-1.68 14.4 14.4 0 0 0 2.1-5.84l2.78.56c-.12.62-.26 1.26-.44 1.88h5v2.68h-2.6v2.7h3v2.74zm11.67-8.86v16.38h-3v-1.06h-2.16v1.38h-2.82v-16.7zm-3 12.6v-9.88h-2.16v9.88z"/><path d="m203.19 19.9a10 10 0 0 1 5.48-1.6c3.72 0 5.75 2.32 5.75 4.74 0 3.68-2.71 6.67-11.43 5.9l-.94-3.14c5.78.86 9-.4 9-2.82 0-1.12-1.08-2-2.66-2a6.64 6.64 0 0 0 -5.12 2.16 5.09 5.09 0 0 0 -.82 1.24l-2.74-.68a75.94 75.94 0 0 0 1-8.42l3.22.44a34.38 34.38 0 0 0 -.74 4.18zm.26-8.32a61.36 61.36 0 0 0 8.08 1.54l-.72 3c-2.08-.28-6.56-1.22-8.12-1.62z"/><path d="m237.21 15.66 2.11-.16v2.92c-.39 0-1.59 0-2.13 0l-1.16.06a28.28 28.28 0 0 1 -.28 3.86c-.22 1.14-.76 1.4-1.84 1.4a31.13 31.13 0 0 1 -3.18-.32l.06-2.62a14.19 14.19 0 0 0 1.74.22c.34 0 .5-.06.54-.4s.1-1.16.12-1.92c-1.6.14-3.32.3-4.86.46v4.26c0 1.84.28 2.1 3 2.1a37 37 0 0 0 5.94-.54l-.12 3.3a55.43 55.43 0 0 1 -5.58.32c-5.44 0-6.16-1.1-6.24-4.68 0-.84 0-2.66 0-4.44l-.9.1c-.64.08-2.08.3-2.6.38l-.3-3c.52 0 1.54 0 2.7-.14l1.1-.1v-1.58a18 18 0 0 0 -.18-2.48h3.38a15.77 15.77 0 0 0 -.14 2.3v1.46l4.88-.44v-1.9a18.87 18.87 0 0 0 -.16-2h3.22c-.06.3-.12 1.28-.14 1.86v1.8z"/></g></svg>