<svg viewBox="0 0 100 70" xmlns="http://www.w3.org/2000/svg"><path d="m15-15h70v100h-70z" fill="#009ee2" transform="matrix(0 -1 1 0 15 85)"/><g fill="#fff"><path d="m31.38 31h-4v-3h11.62v3h-4v11.88h-3.62z"/><path d="m42.62 35.36c0-4.88 2.76-7.64 6.82-7.64s6.82 2.78 6.82 7.64-2.76 7.8-6.82 7.8-6.82-2.92-6.82-7.8zm10 0c0-2.88-1.22-4.58-3.18-4.58s-3.16 1.7-3.16 4.58 1.2 4.72 3.16 4.72 3.18-1.82 3.18-4.72z"/><path d="m61 28h5.22c3.28 0 6 1.16 6 4.84s-2.74 5.1-5.88 5.1h-1.74v4.94h-3.6zm5.14 7.12c1.74 0 2.58-.82 2.58-2.28s-1-2-2.68-2h-1.44v4.3z"/></g></svg>