<svg viewBox="0 0 290 76.81" xmlns="http://www.w3.org/2000/svg" xmlns:xlink="http://www.w3.org/1999/xlink"><clipPath id="a" transform="translate(-54.32 -104.19)"><path d="m0 0h398.97v264.37h-398.97z"/></clipPath><g clip-path="url(#a)"><path d="m339.58 147.54a15.94 15.94 0 0 0 -10.47-4.9 11.59 11.59 0 0 0 .85-4.38 18.14 18.14 0 0 0 -1.4-6.66 26.05 26.05 0 0 0 -3.28-5.92c-3.26-4.46-6.95-5.41-9.47-5.41l-4.05.9a3.34 3.34 0 0 1 -.41 0 3 3 0 0 1 -.45-.06 35.18 35.18 0 0 0 -6.45-.84 23.56 23.56 0 0 0 -4.16.4 25.18 25.18 0 0 0 -3.35-7.46c-3.31-5.13-7.19-7.73-11.55-7.73l-3.6.72a38.38 38.38 0 0 0 -11.12-2 29.09 29.09 0 0 0 -20.27 7.67 24.34 24.34 0 0 0 -6.08 8.31c-.2.44-.35.89-.53 1.34a26.43 26.43 0 0 0 -8.11-1.24 27 27 0 0 0 -9.68 1.72c.11-1.87.3-5.2.3-5.2 0-7.89-5.41-11.47-10.43-11.47a41.69 41.69 0 0 0 -7.32.88 60.46 60.46 0 0 0 -7 1.69 10.74 10.74 0 0 0 -7.36-2.69c-2 0-5.55.36-14.91 3.18s-10.71 8.63-10.71 11.81c0 .15 0 .27.06.41a23.61 23.61 0 0 0 -8.32 2.74 26.21 26.21 0 0 0 -2.83 1.88 24.9 24.9 0 0 0 -15.39-5 27.15 27.15 0 0 0 -16.32 5.37 24.87 24.87 0 0 0 -15.77-5.33 26.76 26.76 0 0 0 -11.36 2.44c-.89.42-1.75.87-2.58 1.36a11 11 0 0 0 -8.13-3.8l-4 .9a1.11 1.11 0 0 1 -.32 0 1.91 1.91 0 0 1 -.45 0 36.69 36.69 0 0 0 -6.54-.85 20.09 20.09 0 0 0 -16.46 7.9 20.47 20.47 0 0 0 -4.28 12.88 20.14 20.14 0 0 0 1.54 7.9 11.38 11.38 0 0 0 -3.1 8.34 22.35 22.35 0 0 0 1.84 8.33 20.49 20.49 0 0 0 4.56 7.27 11.12 11.12 0 0 0 8 3.1l2.7-.25 3.09.36a50.59 50.59 0 0 0 6.17.58 21.81 21.81 0 0 0 13.57-4.4 26.29 26.29 0 0 0 14.89 4.36 28.34 28.34 0 0 0 16.38-5 26 26 0 0 0 15.79 5 28.21 28.21 0 0 0 16.17-4.87 21.25 21.25 0 0 0 13.37 4.83 19.26 19.26 0 0 0 8.12-1.85 9.77 9.77 0 0 0 5.63 1.57 47.54 47.54 0 0 0 12.5-1.71.93.93 0 0 0 .2.1c2.84 1.15 6.93 1.7 12.8 1.7 5.16 0 8.77-.41 11.38-1.29a12 12 0 0 0 2-.86 27.14 27.14 0 0 0 11.35 2.38 28.39 28.39 0 0 0 15.53-4.47 33.93 33.93 0 0 0 8.48 3 52.18 52.18 0 0 0 11.75 1.42 40.3 40.3 0 0 0 8.32-.8c1.39 3 4.87 5.18 8.95 5.18a10.48 10.48 0 0 0 6.69-2.28 8 8 0 0 0 2.19-2.71l2.55-.24 3.1.36a50.71 50.71 0 0 0 6.18.58 22.35 22.35 0 0 0 10.8-2.61 15.46 15.46 0 0 0 8.63 2.58 15.9 15.9 0 0 0 11.51-4.91 17.82 17.82 0 0 0 0-24.25" fill="#00933b" transform="translate(-54.32 -104.19)"/><g fill="#d5d81b"><path d="m335.12 152.81a8.35 8.35 0 0 0 -6.15-2.67 8.46 8.46 0 0 0 -6 2.6 10.39 10.39 0 0 0 -2.19-3.69 31.71 31.71 0 0 0 -9.59-6.7c-2.33-1.17-3.51-2.4-3.51-3.73a2.78 2.78 0 0 1 .77-2 2.34 2.34 0 0 1 1.81-.83q1.54 0 3.93 2.5a24.42 24.42 0 0 0 3.27 3 4 4 0 0 0 2.31.69 3.47 3.47 0 0 0 2.6-1.07 3.73 3.73 0 0 0 1-2.7 11 11 0 0 0 -.88-3.91 18 18 0 0 0 -2.31-4.17c-1.16-1.59-2.3-2.38-3.43-2.38a3.68 3.68 0 0 0 -1.46.37 8.58 8.58 0 0 1 -2.42.71 7.45 7.45 0 0 1 -1.42-.15 33.63 33.63 0 0 0 -6.07-.88 12.54 12.54 0 0 0 -10.5 5 12.85 12.85 0 0 0 -2.64 7.28 18.88 18.88 0 0 0 -6.49-5.38 80.27 80.27 0 0 0 -9.82-3.6c-3.81-1.18-5.7-2.94-5.7-5.28a3.65 3.65 0 0 1 1.25-2.88 4.88 4.88 0 0 1 3.31-1.09q4.33 0 8.78 4.52a44.66 44.66 0 0 0 4.08 3.85 4.15 4.15 0 0 0 2.39.64 3.76 3.76 0 0 0 3-1.55 5.93 5.93 0 0 0 1.26-3.82 15.21 15.21 0 0 0 -2.77-8.17c-1.85-2.86-3.59-4.28-5.24-4.28a3.35 3.35 0 0 0 -1.25.23 10.13 10.13 0 0 1 -2.22.74 4.4 4.4 0 0 1 -1.22-.24 33.29 33.29 0 0 0 -10-2.06 21.66 21.66 0 0 0 -15.21 5.69 17.31 17.31 0 0 0 -5.83 12.77 16.16 16.16 0 0 0 .86 5.26 18.2 18.2 0 0 0 -2.86-3.28 17.48 17.48 0 0 0 -12-4.36 19.26 19.26 0 0 0 -8.2 1.74 20.2 20.2 0 0 0 -8.33 7 22.13 22.13 0 0 0 -1.26 2.08v-2.57c0-4 .24-8.43.56-13.27.24-3.09.37-5.07.37-5.93 0-2.64-1-4-2.92-4a35.54 35.54 0 0 0 -5.93.78 47.52 47.52 0 0 0 -6.64 1.62 16.76 16.76 0 0 0 -5.58 2.72c-.12.1-.21.21-.32.31v-2.23c0-2.2-1.06-3.31-3.19-3.31s-6.4 1-12.74 2.87q-5.37 1.65-5.37 4.61c0 1.34.79 2.29 2.34 2.83a5.15 5.15 0 0 1 2.33 1.35 3.48 3.48 0 0 1 .67 2.28c0 2.32-.41 3.48-1.22 3.48a2 2 0 0 1 -.88-.32 14.44 14.44 0 0 0 -7.73-2.11 15.58 15.58 0 0 0 -7.52 2.28 18.71 18.71 0 0 0 -6.53 6.35 17.34 17.34 0 0 0 -15.37-8.49 19.37 19.37 0 0 0 -8.21 1.74 20.23 20.23 0 0 0 -8.32 7 .61.61 0 0 0 -.07.1 17.23 17.23 0 0 0 -3.61-4.48 17.41 17.41 0 0 0 -12-4.36 19.35 19.35 0 0 0 -8.22 1.74 20.25 20.25 0 0 0 -7.67 6.13c-.12-.42-.27-.88-.45-1.35a18 18 0 0 0 -2.31-4.17c-1.16-1.59-2.3-2.38-3.44-2.38a3.6 3.6 0 0 0 -1.44.37 8.56 8.56 0 0 1 -2.44.71 7.36 7.36 0 0 1 -1.41-.15 33.52 33.52 0 0 0 -6.07-.88 12.54 12.54 0 0 0 -10.5 5 13.06 13.06 0 0 0 -2.71 8.29 12.44 12.44 0 0 0 2.68 7.83q2.66 3.39 8.63 6.58c1.9 1 2.83 2.11 2.83 3.31a2.49 2.49 0 0 1 -.72 1.88 2.65 2.65 0 0 1 -2 .71 3.88 3.88 0 0 1 -2.15-.66 13.15 13.15 0 0 1 -2.5-2.45c-1.87-2.15-3.08-3.48-3.66-4a2.91 2.91 0 0 0 -1.92-.74q-2.67 0-2.67 3.72a15.34 15.34 0 0 0 1.3 5.52 13.67 13.67 0 0 0 2.83 4.71 3.82 3.82 0 0 0 2.74 1 9.72 9.72 0 0 0 1.54-.17 7.39 7.39 0 0 1 1.13-.12c.3 0 1.64.15 4 .45a46.35 46.35 0 0 0 5.26.53 14.32 14.32 0 0 0 9.6-3.27 12.55 12.55 0 0 0 3.48-4.44 19 19 0 0 0 2.37 2.69 18.42 18.42 0 0 0 13 4.94 20.91 20.91 0 0 0 13.63-4.81 9.8 9.8 0 0 0 2.87-3.38 19 19 0 0 0 2.68 3.21 18.41 18.41 0 0 0 13.06 4.94 20.92 20.92 0 0 0 13.62-4.81 9.93 9.93 0 0 0 2.82-3.35 22.31 22.31 0 0 0 2.75 3.47 14.23 14.23 0 0 0 10.35 4.64 12.39 12.39 0 0 0 8.41-3.35 3.78 3.78 0 0 1 2-1.21c.76 0 1.2.69 1.34 2.06a3.75 3.75 0 0 0 .46 1.85 2.2 2.2 0 0 0 1.55.38 40.3 40.3 0 0 0 10.76-1.5 17 17 0 0 0 2.73-1 4.89 4.89 0 0 0 2 1.41c1.93.78 5.29 1.17 10.06 1.17 4.24 0 7.24-.29 9-.88a4.73 4.73 0 0 0 2.3-1.54 3.85 3.85 0 0 0 .84-1.88 18.45 18.45 0 0 0 12.59 4.55 21 21 0 0 0 13.63-4.81 11.47 11.47 0 0 0 2.3-2.44 7.7 7.7 0 0 0 2.22 3.08 22.32 22.32 0 0 0 7.59 2.89 44 44 0 0 0 10 1.23q10.63 0 17.22-5.58a18.86 18.86 0 0 0 2.55-2.59q.27.9.66 1.89a13.83 13.83 0 0 0 2.83 4.71 3.85 3.85 0 0 0 2.76 1 9.77 9.77 0 0 0 1.52-.17 7.64 7.64 0 0 1 1.14-.12c.29 0 1.64.15 4 .45a46.14 46.14 0 0 0 5.26.53 14.3 14.3 0 0 0 9.54-3.28 13.32 13.32 0 0 0 2-2.08 9.57 9.57 0 0 0 1.77 2.69 8.24 8.24 0 0 0 6.1 2.66 8.38 8.38 0 0 0 6.15-2.66 9.43 9.43 0 0 0 2.63-6.75 9.62 9.62 0 0 0 -2.63-7m-244.38-5.81a35.7 35.7 0 0 0 -7.41-4.67c-2.35-1.17-3.52-2.4-3.52-3.73a2.77 2.77 0 0 1 .76-2 2.4 2.4 0 0 1 1.83-.83q1.53 0 3.92 2.5a25.07 25.07 0 0 0 3.27 3 4.13 4.13 0 0 0 2.14.67 21.35 21.35 0 0 0 -1 5m16.6-10.13a3.64 3.64 0 0 1 3.24-1.78 3.72 3.72 0 0 1 3 1.37 5.34 5.34 0 0 1 1.15 3.56 2.1 2.1 0 0 1 -2.38 2.38h-3.72a2.8 2.8 0 0 1 -1.87-.48 2.17 2.17 0 0 1 -.56-1.7 5.92 5.92 0 0 1 1.14-3.35m14.92 18.88a12.1 12.1 0 0 1 -3.56 1.84 12.6 12.6 0 0 1 -4 .74 8.35 8.35 0 0 1 -5.61-2.32 6.65 6.65 0 0 1 -2.63-4.95c0-.73.38-1.1 1.17-1.1h15.25a21.92 21.92 0 0 0 .83 4.92 5.93 5.93 0 0 0 -1.48.87m17.24-18.88a3.66 3.66 0 0 1 3.23-1.78 3.75 3.75 0 0 1 3 1.37 5.35 5.35 0 0 1 1.16 3.56 2.11 2.11 0 0 1 -2.4 2.38h-3.72a2.82 2.82 0 0 1 -1.87-.48 2.17 2.17 0 0 1 -.55-1.7 5.84 5.84 0 0 1 1.13-3.35m14.92 18.88a12.22 12.22 0 0 1 -3.56 1.84 12.49 12.49 0 0 1 -4 .74 8.36 8.36 0 0 1 -5.63-2.32 6.64 6.64 0 0 1 -2.62-4.95c0-.73.39-1.1 1.17-1.1h15.15a21.59 21.59 0 0 0 .94 4.92 5.54 5.54 0 0 0 -1.5.87m27 .5c-.73 2-1.88 3.06-3.48 3.06a4.08 4.08 0 0 1 -3.56-2q-1.81-2.78-1.82-8.27a21.64 21.64 0 0 1 1.9-9.79c.94-1.86 2.23-2.8 3.84-2.8a3.45 3.45 0 0 1 2.92 1.7c.86 1.38 1.28 4.14 1.28 8.28 0 4.55-.36 7.81-1.08 9.85m20.81 1a6.62 6.62 0 0 1 -.8 2.77 11.29 11.29 0 0 0 -1.26-1.19 3.44 3.44 0 0 1 -1.33-1.74 20.72 20.72 0 0 1 -.25-4v-28.53a10.59 10.59 0 0 0 1.29.91 6.15 6.15 0 0 1 2.59 4.21 93 93 0 0 1 .53 12.7 140.4 140.4 0 0 1 -.61 15m30.78-20.46a3.62 3.62 0 0 1 3.23-1.78 3.73 3.73 0 0 1 3 1.37 5.4 5.4 0 0 1 1.15 3.56 2.1 2.1 0 0 1 -2.38 2.38h-3.72a2.85 2.85 0 0 1 -1.88-.48 2.17 2.17 0 0 1 -.55-1.7 5.92 5.92 0 0 1 1.14-3.35m14.91 18.88a12 12 0 0 1 -3.55 1.84 12.6 12.6 0 0 1 -4 .74 8.37 8.37 0 0 1 -5.62-2.32 6.64 6.64 0 0 1 -2.62-4.95c0-.73.39-1.1 1.17-1.1h16a7 7 0 0 0 -.05.93 26.35 26.35 0 0 0 .32 3.93 5.28 5.28 0 0 0 -1.68.93m25.81 2.28a7.94 7.94 0 0 1 -4.44 1.11 13.56 13.56 0 0 1 -6.18-1.49 10.33 10.33 0 0 1 -4.37-3.77 49.79 49.79 0 0 0 -3.68-5.69 5 5 0 0 0 -1.19-1.09 9 9 0 0 0 .48-3.12 13.36 13.36 0 0 0 -.8-4.41 22.1 22.1 0 0 0 2.92 3.48 25 25 0 0 0 5.2 3.82 53.09 53.09 0 0 0 8.11 3.34 13 13 0 0 1 4.33 2.18 3.62 3.62 0 0 1 1.33 2.79 3.32 3.32 0 0 1 -1.71 2.85m31.84 2.7a2.62 2.62 0 0 1 -2 .71 3.88 3.88 0 0 1 -2.15-.66 13.45 13.45 0 0 1 -2.5-2.45 51.29 51.29 0 0 0 -3.67-4 4.25 4.25 0 0 0 -.53-.37 20.93 20.93 0 0 0 .5-4.49v-.06a27.87 27.87 0 0 0 8.23 6.12c1.88 1 2.82 2.11 2.82 3.31a2.49 2.49 0 0 1 -.73 1.88" transform="translate(-54.32 -104.19)"/><path d="m293 169.75a8 8 0 0 0 -5.08-1.71c-3.88 0-7.05 2.48-7.05 5.52a4.47 4.47 0 0 0 .63 2.26 7.31 7.31 0 0 0 6.42 3.27 8 8 0 0 0 5.08-1.71 5.14 5.14 0 0 0 1-1 4.55 4.55 0 0 0 1-2.81 4.94 4.94 0 0 0 -2-3.81m0 2.74a1.85 1.85 0 0 1 -.56.59 2.69 2.69 0 0 1 -1.55.43 2.55 2.55 0 0 1 -.85-.12 4.26 4.26 0 0 1 -.91-.53.61.61 0 0 0 -.38-.15.37.37 0 0 0 -.37.23 3.83 3.83 0 0 0 -.07.95 6.23 6.23 0 0 0 .11 1.49.5.5 0 0 0 .18.29 1.9 1.9 0 0 0 .53.17c.61.14.9.36.9.68a.67.67 0 0 1 -.28.52 1.67 1.67 0 0 1 -.78.28 19.23 19.23 0 0 1 -2.79.15 12.63 12.63 0 0 1 -2.67-.22c-.54-.14-.82-.36-.82-.7s.2-.47.61-.66a1.61 1.61 0 0 0 .39-.26.5.5 0 0 0 .14-.3 11 11 0 0 0 .17-2.43.76.76 0 0 0 -.1-.46.63.63 0 0 0 -.39-.23c-.48-.14-.71-.34-.71-.58s.16-.43.48-.61a8.26 8.26 0 0 1 1.64-.48 12.46 12.46 0 0 1 2.58-.34 1.14 1.14 0 0 1 .65.11 1.53 1.53 0 0 1 .21.68c0 .22.13.32.31.32a.47.47 0 0 0 .37-.21 2.67 2.67 0 0 1 2.07-.89 2.36 2.36 0 0 1 1.48.42 1.34 1.34 0 0 1 .45.54 1.26 1.26 0 0 1 .18.63 1.3 1.3 0 0 1 -.22.69" transform="translate(-54.32 -104.19)"/></g></g></svg>