<svg viewBox="0 0 270 136.7" xmlns="http://www.w3.org/2000/svg" xmlns:xlink="http://www.w3.org/1999/xlink"><clipPath id="a" transform="translate(-64.65 -73.84)"><path d="m0 0h398.97v264.37h-398.97z"/></clipPath><g clip-path="url(#a)"><path d="m138.23 135.71s-2.91-1.35-13.61-5h-60s2.13 10.14 14.65 10.14h9s-.86-1.24-1.51-5.15z" transform="translate(-64.65 -73.84)"/><path d="m89.28 137.69h53.66l8.25 3.68v.68h-40.87a14.28 14.28 0 0 0 1.89 5.84h-8.52c-2.78 0-11.99-1.1-14.41-10.2z" transform="translate(-64.65 -73.84)"/><path d="m90.12 143.74h-18s2.12 10.16 14.79 10.16h12.16a29 29 0 0 1 -1.95-5.24 15.28 15.28 0 0 1 -7-4.92z" transform="translate(-64.65 -73.84)"/><path d="m79.49 156.8s2.06 10.2 15 10.2h42.15s6.49-2.92 11.35-5h-33.51a17.83 17.83 0 0 1 -13.22-5.2z" transform="translate(-64.65 -73.84)"/><path d="m113.55 149.81h-14s2 10.2 14.77 10.2h38.35l2.31-1s-1-2.4-1.24-3.35h-26.58c-6.27.02-10.45-1.94-13.61-5.85z" transform="translate(-64.65 -73.84)"/><path d="m112.64 144s2.15 9.8 14.31 9.8h26.17a56 56 0 0 1 -1.85-9.8z" transform="translate(-64.65 -73.84)"/><path d="m263.93 135.71s2.11-1.16 10.13-5h60.59s-2.13 10.15-14.65 10.15h-9s.86-1.25 1.51-5.16z" transform="translate(-64.65 -73.84)"/><path d="m310 137.69h-50.24l-7.76 4.36h37a14.24 14.24 0 0 1 -1.89 5.84h8.52c2.76 0 11.97-1.1 14.37-10.2z" transform="translate(-64.65 -73.84)"/><path d="m309.18 143.74h18s-2.12 10.16-14.79 10.16h-12.16a29 29 0 0 0 1.95-5.24 15.28 15.28 0 0 0 7-4.92z" transform="translate(-64.65 -73.84)"/><path d="m319.81 156.81s-2.06 10.19-15 10.19h-39.54s-7.08-2.76-11.93-5h31.48a17.87 17.87 0 0 0 13.22-5.2z" transform="translate(-64.65 -73.84)"/><path d="m285.75 149.81h14s-2.01 10.19-14.75 10.19h-36.23s-4.13-1.83-4.11-1.84c.31-.78.74-1.92.9-2.49h26.58c6.27.01 10.45-1.95 13.61-5.86z" transform="translate(-64.65 -73.84)"/><path d="m248.53 144h38.13s-2.15 9.8-14.31 9.8h-26.17a57.78 57.78 0 0 0 1.84-9.51z" transform="translate(-64.65 -73.84)"/><path d="m199.66 91.44a48.54 48.54 0 0 1 45 30.38l15.82-7.4a66 66 0 0 0 -121.65 0l15.82 7.4a48.55 48.55 0 0 1 45.01-30.38zm51.94 15.11a2.41 2.41 0 0 0 .45-.89l3.66 6.42-2.54 1.44a1.75 1.75 0 0 0 .27-.81 1.65 1.65 0 0 0 -.26-.82l-1.53-2.67-2.12 1.21a2.37 2.37 0 0 1 .8.5 3.23 3.23 0 0 1 .62.77 2.29 2.29 0 0 1 .28 1.55 1.72 1.72 0 0 1 -.88 1.23 2.06 2.06 0 0 1 -1.34.28 1.42 1.42 0 0 1 -1.13-.72 1 1 0 0 1 -.12-.75.91.91 0 0 1 .43-.61.76.76 0 0 1 .61-.06.82.82 0 0 1 .5.39.7.7 0 0 1 .09.63 1 1 0 0 1 -.43.45 1.6 1.6 0 0 1 -.35.15 1 1 0 0 0 .47.17.83.83 0 0 0 .89-.82 1.37 1.37 0 0 0 -.15-.87 2.09 2.09 0 0 0 -1.25-1 1.84 1.84 0 0 0 -1.55.1l-1 .57a.84.84 0 0 0 -.26.2.41.41 0 0 0 -.11.19c0 .13 0 .24.06.32s.09.18.17.33l1.29 2.26a1.72 1.72 0 0 0 .66.65 1.51 1.51 0 0 0 .89.2l-2.55 1.46-3.88-6.81a2.6 2.6 0 0 0 2-.31l6.54-3.74a2.72 2.72 0 0 0 .77-.59zm-6.33-7.77a3 3 0 0 0 .41-1.3l2.55 3.09a1.81 1.81 0 0 0 -1.08 0 3.18 3.18 0 0 0 -1 .58l-5.67 4.67a7.61 7.61 0 0 0 1.9 1.88c.64.29 1.44 0 2.4-.75a3.91 3.91 0 0 0 .61-.61.81.81 0 0 1 -.5-.09 1.41 1.41 0 0 1 -.43-.34.74.74 0 0 1 -.09-.67 1 1 0 0 1 .34-.64 1.19 1.19 0 0 1 .92-.29 1.29 1.29 0 0 1 .85.49 1.1 1.1 0 0 1 .1 1.29 3.43 3.43 0 0 1 -.91 1.08l-3.88 3.21-4.71-5.71a3 3 0 0 0 1.21-.09 3.59 3.59 0 0 0 1.1-.65l5-4.1a4.11 4.11 0 0 0 .88-1.05zm-7.82-8.78 2.31 2c-.13.15-.3.33-.49.52-.48.46-.76.74-.87.86l-4.72 5.42a4.73 4.73 0 0 0 .51.56c.16.16.38.35.67.6a3.58 3.58 0 0 0 1.34.87c.43.08.89-.15 1.37-.7l1.29-1.49a10.79 10.79 0 0 0 1.25-1.7c.52-.91.62-1.51.28-1.8l-.83-.73c-.29-.26-.77-.11-1.42.42a7.38 7.38 0 0 0 -.69.66 3 3 0 0 0 -.67 1.45.85.85 0 0 1 .65-.31.94.94 0 0 1 .7.25.83.83 0 0 1 .29.66 1 1 0 0 1 -.26.73 1.1 1.1 0 0 1 -.77.4 1 1 0 0 1 -.83-.28 1.42 1.42 0 0 1 -.28-1.72 5.58 5.58 0 0 1 1.05-1.67 17 17 0 0 1 1.38-1.42 15 15 0 0 1 1.49-1.23 9 9 0 0 1 1.05.78c.49.43.87.79 1.15 1.08a2.33 2.33 0 0 1 .54 1 4.23 4.23 0 0 1 -.88 2.75 17.53 17.53 0 0 1 -1.78 2.46l-1.14 1.3a3.78 3.78 0 0 1 -2.6 1.63 4.92 4.92 0 0 1 -2.69-1.47c-.44-.39-.91-.81-1.39-1.26-1.24-1.14-2-1.86-2.34-2.14a2 2 0 0 0 1-.28 3.4 3.4 0 0 0 .86-.72l5.13-5.89a1.61 1.61 0 0 0 .38-.76 1.33 1.33 0 0 0 -.04-.83zm-11.6-1a.93.93 0 0 0 -.28-.63.82.82 0 0 0 -.27 0 .49.49 0 0 0 -.25.1.69.69 0 0 1 .21.16 1.88 1.88 0 0 0 .16.23 2.64 2.64 0 0 1 0 .29 1.07 1.07 0 0 1 -.09.27.81.81 0 0 1 -.53.41.89.89 0 0 1 -.64-.09.73.73 0 0 1 -.37-.56 1.11 1.11 0 0 1 .13-.7 1.22 1.22 0 0 1 1-.66 2 2 0 0 1 1.24.27 2 2 0 0 1 .65.56l.7-.79a8.39 8.39 0 0 0 1.12-1.44 2.51 2.51 0 0 0 .29-.79 2.66 2.66 0 0 0 0-.89l3.81 2.17a18.93 18.93 0 0 0 -1.52 3.78c-.36 1.3-.73 2.6-1.09 3.9q-.44 1.4-.51 1.68a4.66 4.66 0 0 0 -.1 1.73l-3-1.72a1.39 1.39 0 0 0 .39-.23 1.26 1.26 0 0 0 .33-.32 8.08 8.08 0 0 0 .52-1.21c.08-.25.17-.51.26-.76a2.82 2.82 0 0 1 -.5 0 1 1 0 0 1 -.44-.15 1.57 1.57 0 0 1 -.52-.47 2.15 2.15 0 0 1 -.31-.7l-.79.89a5.91 5.91 0 0 0 -.71 1 1 1 0 0 0 -.13.48 1.49 1.49 0 0 0 .14.53l-2.94-1.68a5.1 5.1 0 0 0 2.35-1.75c.58-.71 1.16-1.42 1.76-2.13-.07-.58-.07-.78-.07-.86zm-13.09.5a2.53 2.53 0 0 0 .48-.82l2.62-7.68a1.9 1.9 0 0 0 -.14-1.66c.61.21 1.52.51 2.75.9s2.15.68 2.75.9c.86.3 1.37.65 1.51 1.06a3.32 3.32 0 0 1 -.29 1.88l-.58 1.66a1 1 0 0 1 -.64.71 2.81 2.81 0 0 0 -.79.33 2.93 2.93 0 0 0 0 .42v.37c0 .7-.05 1.4-.08 2.1a19.76 19.76 0 0 0 0 2.66 4.41 4.41 0 0 0 .66 2.16l-3-1a15.45 15.45 0 0 0 .27-2.27 18.34 18.34 0 0 0 0-2.89q-.15-1.47-.57-1.62a.85.85 0 0 0 -.34 0 2.29 2.29 0 0 0 -.42.09l-.21.28h.19l.23.06a.63.63 0 0 1 .45.54 1.67 1.67 0 0 1 -.08.82 1 1 0 0 1 -.58.61 1.17 1.17 0 0 1 -.88 0 .9.9 0 0 1 -.3-.17 1.54 1.54 0 0 1 -.27-.29l-.24.66a2.4 2.4 0 0 0 -.12.88 3.31 3.31 0 0 0 .18.94l-3.32-1.13a2 2 0 0 0 .76-.58zm-8.9-3.14.81-5.68a3.49 3.49 0 0 1 1.14-2.46 2.83 2.83 0 0 1 2.06-.3c.29 0 .67.12 1.13.22 1.06.23 1.75.37 2.09.42a6.62 6.62 0 0 0 1.29 0l-.49 3.38a4 4 0 0 1 -.89 2.06 2.16 2.16 0 0 1 -2.05.75 1.49 1.49 0 0 1 -.94-.52 1.21 1.21 0 0 1 -.31-1 1.31 1.31 0 0 1 .46-.83 1 1 0 0 1 .87-.26 1.07 1.07 0 0 1 .82 1.09 1.14 1.14 0 0 1 -.48.82l.19.11a.4.4 0 0 0 .13.07.89.89 0 0 0 1-.57 4.59 4.59 0 0 0 .31-1.26l.05-.34a1.78 1.78 0 0 0 -.21-1.2 1.26 1.26 0 0 0 -1-.61l-1.66-.25a1.37 1.37 0 0 0 -.86.09.85.85 0 0 0 -.4.7l-.7 4.92a1.3 1.3 0 0 0 .15 1 1.35 1.35 0 0 0 .92.42l1.56.23a4 4 0 0 0 1.38 0 1.67 1.67 0 0 0 1-.91l-.47 3.32a10 10 0 0 0 -1.26-.25c-.41-.06-.89-.11-1.45-.16-1.29-.11-2.1-.19-2.42-.23a2 2 0 0 1 -1.62-1 3.23 3.23 0 0 1 -.15-1.85zm-13.37-7.66c.32-.45 1.32-.75 3-.91l1.29-.13 1.44-.13a3.58 3.58 0 0 0 .66-.14l.61-.16.29 2.93a2.14 2.14 0 0 0 -1-.65 3.06 3.06 0 0 0 -1.21-.08l-2.22.21a1.16 1.16 0 0 0 -.87.41 1.43 1.43 0 0 0 -.17 1l.37 4.48a2.08 2.08 0 0 0 .47 1.32 1.76 1.76 0 0 0 1.34.26l2.08-.26-.26-2.76a1.38 1.38 0 0 0 -.51-1 1.42 1.42 0 0 0 -1.07-.3 1 1 0 0 0 -.74.3 1.54 1.54 0 0 0 -.23.82.85.85 0 0 1 .74-.51.82.82 0 0 1 .72.24 1.25 1.25 0 0 1 .3.76 1.06 1.06 0 0 1 -.4.93 1.61 1.61 0 0 1 -1 .41.88.88 0 0 1 -.84-.42 2 2 0 0 1 -.38-1 1.7 1.7 0 0 1 1.1-1.77 5.91 5.91 0 0 1 2.15-.55l2.48-.25a6 6 0 0 0 -.32 1.56 13.18 13.18 0 0 0 0 1.76c0 .39.1.84.18 1.36.18 1.21.28 1.93.31 2.18-.73.07-1.61.16-2.65.28l-1.59.18c-1.57.15-2.59.05-3-.31s-.81-1.35-1-2.91c0-.54-.12-1.2-.19-2s-.13-1.35-.16-1.62c-.11-1.92-.04-3.1.28-3.53zm-9 1.43 4.7 4.23-1-3.61a2.22 2.22 0 0 0 -.42-.81 2.09 2.09 0 0 0 -.75-.52l3.25-.93a3 3 0 0 0 -.06 1.83l2.06 7.26a3.32 3.32 0 0 0 1.16 1.69l-2.61.75-.57-2-4.59-3.8 1.48 5.19a1.84 1.84 0 0 0 .43.77 2.48 2.48 0 0 0 .71.57l-3.2.92a2.43 2.43 0 0 0 .11-1.68l-2.1-7.35a1.83 1.83 0 0 0 -.43-.79 9.06 9.06 0 0 0 -1.24-.83zm-4.62 1.58a1.49 1.49 0 0 0 -.24 1 4.44 4.44 0 0 0 .36 1.15l2.83 6.56a4.48 4.48 0 0 0 .58 1 2.32 2.32 0 0 0 .88.61l-3.28 1.45a1.64 1.64 0 0 0 .07-1.55l-3.07-7.09a4.88 4.88 0 0 0 -.58-1 2.37 2.37 0 0 0 -.85-.65zm-8.46 4.13a1.76 1.76 0 0 0 -.14 1.06 3.21 3.21 0 0 0 .41 1.1l3.72 6.33a7.93 7.93 0 0 0 2.17-1.58c.39-.6.27-1.43-.35-2.5a4.09 4.09 0 0 0 -.51-.69.81.81 0 0 1 -.17.49 1.49 1.49 0 0 1 -.41.38.77.77 0 0 1 -.68 0 1.27 1.27 0 0 1 -.59-.44 1.24 1.24 0 0 1 -.14-1 1.35 1.35 0 0 1 .62-.76 1.12 1.12 0 0 1 1.3.1 3.48 3.48 0 0 1 .93 1.08l2.54 4.32-6.38 3.76a2.84 2.84 0 0 0 .09-1.21 3.45 3.45 0 0 0 -.46-1.18l-3.26-5.55a4.12 4.12 0 0 0 -.92-1.1 2.85 2.85 0 0 0 -1.22-.6zm-8.34 5.76a1.86 1.86 0 0 0 0 1.07 3.08 3.08 0 0 0 .58 1l4.69 5.64a7.69 7.69 0 0 0 1.87-1.9c.29-.65 0-1.46-.76-2.41a4.4 4.4 0 0 0 -.61-.61.89.89 0 0 1 -.09.5 1.32 1.32 0 0 1 -.34.43.73.73 0 0 1 -.67.1 1.12 1.12 0 0 1 -.64-.33 1.22 1.22 0 0 1 -.29-.93 1.3 1.3 0 0 1 .48-.85 1.12 1.12 0 0 1 1.3-.1 3.36 3.36 0 0 1 1.09.9l3.23 3.89-5.69 4.74a2.91 2.91 0 0 0 -.09-1.2 3.68 3.68 0 0 0 -.65-1.1l-4.12-5a4 4 0 0 0 -1.08-.93 2.91 2.91 0 0 0 -1.3-.4zm-9.37 9.4a12 12 0 0 1 .87-1.13l.31-.36 1.16 1.84-.11.13a.65.65 0 0 0 -.08.79 2.28 2.28 0 0 0 .61.67l.27.24 3.44 3.06a.73.73 0 0 0 .57.21.79.79 0 0 0 .55-.3l1.83-2.15a.55.55 0 0 0 .13-.49 1 1 0 0 0 -.33-.46l-.9-.76-.9-.77c-.8-.68-1.37-1.15-1.74-1.42s-.76-.53-1.21-.8h-.35c-.11.1-.26.26-.47.48l-.46.51-.28.35a5.78 5.78 0 0 0 .84 1.47 8 8 0 0 0 1.25 1.29 1 1 0 0 1 .21-1.17.77.77 0 0 1 .72-.27 1.49 1.49 0 0 1 .78.34 1 1 0 0 1 .36.86 1.44 1.44 0 0 1 -.37.92 1.31 1.31 0 0 1 -1 .47 1.4 1.4 0 0 1 -1-.33 7.18 7.18 0 0 1 -1.21-1.46c-.27-.41-.63-1.05-1.1-1.9l-.93-1.75 1.16-1.36a2.41 2.41 0 0 1 1.91-1.1 3.44 3.44 0 0 1 1.7.94l.54.45c.24.22.43.38.56.49.43.36 1.09.89 2 1.59s1.57 1.24 2 1.62a1.94 1.94 0 0 1 .69 2.14 6.32 6.32 0 0 1 -1.37 2.2l-.6.71-.74.87a4.09 4.09 0 0 1 -1.85 1.49c-.55.1-1.26-.22-2.14-1-.15-.14-.32-.28-.5-.43l-.58-.49c-.78-.67-1.48-1.3-2.12-1.89a24.07 24.07 0 0 1 -1.74-1.78 3.7 3.7 0 0 1 -.9-1.42 2.1 2.1 0 0 1 .52-1.14zm2 16.24a2.32 2.32 0 0 0 -.71-.62l-6.91-4.07a1.93 1.93 0 0 0 -1.65-.19q.48-.82 1.41-2.52c.62-1.13 1.1-2 1.42-2.52.46-.79.91-1.21 1.34-1.27a3.32 3.32 0 0 1 1.78.65l1.51.89a1 1 0 0 1 .58.77 2.74 2.74 0 0 0 .17.83 2.09 2.09 0 0 0 .41.09l.37.06 2 .49a20.32 20.32 0 0 0 2.62.48 4.61 4.61 0 0 0 2.25-.23l-1.61 2.75a12.88 12.88 0 0 0 -2.18-.73 19.14 19.14 0 0 0 -2.84-.55c-1-.1-1.54 0-1.69.24a.62.62 0 0 0 -.11.32 3 3 0 0 0 0 .43l.23.27a1.46 1.46 0 0 0 .07-.19 1.89 1.89 0 0 1 .1-.21.65.65 0 0 1 .62-.34 1.65 1.65 0 0 1 .79.24 1 1 0 0 1 .48.69 1.17 1.17 0 0 1 -.13.88 1.12 1.12 0 0 1 -.22.26 2 2 0 0 1 -.34.21l.61.36a2.43 2.43 0 0 0 .83.3 3.4 3.4 0 0 0 1 0l-1.8 3a1.92 1.92 0 0 0 -.42-.79zm67-32 .47-1.37a.74.74 0 0 0 0-.62.93.93 0 0 0 -.53-.35l-1.87-.65-1.38 4a10.46 10.46 0 0 0 1.81-.24c.9-.27 1.39-.53 1.5-.83zm-69.81 24.4-1.25-.74a.79.79 0 0 0 -.6-.14 1 1 0 0 0 -.45.45l-1 1.72 3.64 2.14a9.18 9.18 0 0 0 .12-1.83c-.03-.96-.18-1.5-.46-1.66zm78.05-17.09a.43.43 0 0 0 .37 0l1.61-4.79-2.35 2.86c0 .51.05.85.07 1 .06.5.16.79.3.87zm-28.29 92.75a45.29 45.29 0 1 0 -45.23-45.3 45.26 45.26 0 0 0 45.23 45.3zm-.65-80.79c19.45.22 35.17 17.09 35.17 34.67 0 22.59-12.39 31.9-24.6 31.9s-14.9-9.26-14.9-13.43c0-6.39 3.44-8.71 7.6-8.71 3.51 0 5.5 1.94 5.5 4.86 0 .93-.35 3.54-3.19 3.54-3.19 0-2.8-4.11-3.05-3.34-3.13 9.43 14.21 11.39 14.21-1.39 0-6.8-4.4-11.71-13.29-11.71a13 13 0 0 0 -10 4.38c-1-4.64-3.23-8.68-9.32-10.87 0 0 30.56 1.35 31.41-13.33.8-14.12-17-15.59-32.89-11.13a35.22 35.22 0 0 1 17.35-5.44zm-31 21.63a24.77 24.77 0 0 1 15.3-12.71c9.18-1.88 17.62-1.59 17.45 6-.25 11.11-27.14 13.34-27.14 13.34 2.4 0 10.52 3.9 10 15.18-.75 15.88 4.94 23.83 12.9 27.3a35.47 35.47 0 0 1 -28.51-49.11zm145.61 38.74h.06zm.12-.02h-.06zm-68.12-40.41c.42 1.26.79 2.55 1.12 3.85h.05c3.23-1.44 14.16-4.78 14.51-4.76a11.72 11.72 0 0 0 2.7-.64c1-.37 2.05-1.24 3.1-1.56a26.77 26.77 0 0 0 4.08-1.15c1-.56 3.86-2.7 4.67-2.88s3.65-2.2 4.78-3 .22-1.82-.63-2-2.92.82-3.47 1.34a17.62 17.62 0 0 1 -4.13 2.24c-1.05.32-1.54-1.44-.13-1.78s2.71-1.89 3.37-2.66a18.2 18.2 0 0 1 3.61-2.67c.8-.42 3.23-2.88 4.05-3.18a1.49 1.49 0 0 0 .52-2.43c-.8-1.14-.06-2.27.85-2.94s.75-2.57.64-4a2.75 2.75 0 0 1 2-3c1.3-.22 1.85.69 1.94 1.88s-1.76 1.93-1 3.06 2.65.27 3.53.8.09 2.74.34 4.39 2.44 2.08 4 3.52.89 2.2-.08 2-1.68 0-2.76 1.42-2 1.35-2.66 2.59-3.59 3-4.84 3.73-1 2.35-2.15 3-1.45-.25-2.67-.51-3 1.07-4.86 1.93-5.36 1.84-7.14 3.31-5.91 2.17-7.27 3.18a104.37 104.37 0 0 1 -9.94 5.44c-.78.35-2.25 1.11-3.9 2a48.85 48.85 0 0 1 .26 5q0 .77 0 1.53c3.54-1.93 7.32-4.14 8.82-5 2.29-1.25 21.73-10.66 22.77-11.1s3-1.66 5-.39a12 12 0 0 0 5.5 1.72c2.06.32 4.27-1.88 5.73-3.07a13 13 0 0 1 5.5-2.94c2.12-.41 4.63-5 4.25-8.34s-3.19-5.61-4.73-7-1.88-5.71-1.86-6.91-.76-3.64 1.63-5.14 5-6.72 4.8-8.86-4.34-11.37-14-10.62-14.51 6.75-14.22 10.55c.51 6.42 3.13 6.33 4.21 7.92s.83 4.59.12 6.08-3.73 5.79-4.77 6.23-1.67 0-3.25-.34-4.13 2.12-5.94 3.45-3.32 4.8-4.92 7.31-6.56 5.24-8.42 5.86c-1.04.4-5.03 1.97-8.68 3.54zm36.76-39.7a4.6 4.6 0 0 1 1.41-3.33 12.58 12.58 0 0 1 3.22-1.81 11.12 11.12 0 0 1 4.54-1.43c3.7-.05 4.39 1.21 4.74 2.62s.45 4.15-.38 4.33a9 9 0 0 0 -2.82 2c-.9.78-3.28.85-4.74.49s-3.42.5-4.62.48-1.41-1.55-1.32-3.35zm-14.47 27.07a32.15 32.15 0 0 1 2.63-3c.9-.78 2.63-1.52 3.28-.85s.25 1.65-.9 2.22-2.41 2.82-3.3 3.73-2.59 1.14-3.08.24.85-1.7 1.4-2.34zm-168.26-15.54c1.2 1.56 3.51 5.17 1.66 8.4s-6.47 6.84-6.56 11 3.79 6.2 5.45 6.47 3.78.37 4.61 1.39 4.62 4.44 7.21 4.53 4-1.85 6.64-1.48 12.92 4.18 14.77 4.81c4.43 1.51 11.07 4.43 17.73 7.44a49.68 49.68 0 0 1 .53-6.14c-4.23-2-8.24-3.89-10.21-4.71l-22.64-9.99a.79.79 0 0 0 -.08.23c-.19 1 .55 2.87-.46 2.59s-2.22-1.94-3.33-2.22-3.32.74-4.25-.37-4.33-4.8-5.63-4.81-3.5 1-4.25-.28 2.78-3.23 3.51-4.06a8.15 8.15 0 0 0 1.48-5.45c-.18-2.4-.27-4.81-.55-6.19s-.36-3.33 1.11-3.61 1.2 1.48 1.85 2.22a1.29 1.29 0 0 0 2 0c.27-.55.55-.09 1 0 .91.18.74 3.14.65 4.44s1.11 4.71 2.49 5.82 3.79 3.14 5.53 3.24a10.35 10.35 0 0 1 5.27 2.4c.92.92 1.85 1.66 1 2.31s-2.67-.37-4-.65-1.84.38-1.2 1.2a.46.46 0 0 1 .06.48l22.08 8.51c1.86.78 5.48 2.46 9.4 4.32.38-1.48.81-2.93 1.32-4.35l-17.81-8.33.79-1.88c.3-.71.61-1.41.93-2.11a18.62 18.62 0 0 1 -3.37-2.82 8.49 8.49 0 0 0 -4.53-2.69c-1.48-.18-4.52.19-6.28-1s-3.32-2.13-4.52-4.44.46-6.66 1.66-7.3 3-3 2.41-6.75-5.91-11.65-13.58-11.65a18 18 0 0 0 -10.24 3.32c-1.94 1.49-5.73 6.47-5 11.19s4.15 5.39 5.35 6.97zm28.8 12.38c.53-.52 1.57-.18 2.22.65a8.4 8.4 0 0 0 3 2.5c.93.28 2.22 1.48 1.39 2.49s-2.4.37-3.51-.65-2.58-2.58-3.05-3-.97-1.06-.05-1.99zm-23.25-28.28c3.41-.74 8.58 0 9.68 5 .62 2.74-3.51 3.23-5.44 3s-4.9.83-6.47 1.47-4.52 1.49-4.52-1.66 3.32-7.07 6.75-7.81zm197.23 99.69c-.76-.42-1.65-4.06-1.72-5.17s-1.92-2.37-2.76-2.5a21.36 21.36 0 0 1 -4.34-1.3c-2-.79-5.08.06-6.69.91s-5.5.92-7.54.78-10.9-2.53-13.72-3.27c-2.15-.56-14.1-5.75-21.89-9.23-.59 1.29-1.23 2.54-1.93 3.76.38.19.7.35.94.49.84.45 2.45 1.51 4.49 2.85 4 2.59 14.5 8.79 17.69 9.77a40.28 40.28 0 0 0 5.47 1.68c.57.15 5.78 1.94 7.59 2.74s6.85 1.49 8.75 2.39a12.09 12.09 0 0 0 5 .78c.84 0 3.79-.16 3.62-1.34s-1.55-1-2.56-.86a1.29 1.29 0 0 1 -1.5-1.66 11.52 11.52 0 0 0 .61-3.46c-.06-.93-.69-2.09-1.66-1.28s-.58 2.35-.88 3.39-.72 1.8-1.84 1.6a12.61 12.61 0 0 1 -4.81-1.44c-3-1.38-2.26-.5-5.28-1.41a37.13 37.13 0 0 1 -6.45-2.45c-2.2-1.06-1.41-1.67-.22-1.84 0 0 7.38 2.39 8.5 2.5a32.35 32.35 0 0 0 5.29.3c1.94-.13 3.76-1.83 4.37-2.51a3.08 3.08 0 0 1 3.11-.39 42.75 42.75 0 0 0 4.47 1.74c.46 0 1 1.32.52 2.28a5.19 5.19 0 0 0 0 3.52c.32.73 1.49 3.15.82 4.21a3.44 3.44 0 0 1 -3.41 1.43c-1.41-.18-2.82-.65-3.85.62s-2.8 2.41-3 3.72a2.54 2.54 0 0 1 -2.28 2c-.91.15-3.76.52-4.25 1.48s-1 2.57-.18 3a2 2 0 0 0 2.27-.79c.24-.48 1.1-1.38 1.88-1s2.34 1.88 1.48 2.86a11.21 11.21 0 0 1 -2.44 2.3 3.12 3.12 0 0 1 -2.27.7c-1-.21-2.21-1.33-3.1-.81s-1.31 1.28-2.06 1.15-1.15-2.05-1.19-2.69.25-3.17.12-3.72.9-.44 1.15.57.49 1.73 1.32 1.76 1.55-1.67 1.09-3.12a20.28 20.28 0 0 0 -3.19-5 71.52 71.52 0 0 0 -5.51-4.92 25.35 25.35 0 0 0 -6.18-3.94c-.72-.31-1.46-.56-2.15-.79-.39.39-1.06.56-2.3.2-3.58-1-10.33-7.18-14.65-10-1.88-1.24-3.51-2.31-4.22-2.69a9.44 9.44 0 0 0 -1.19-.52c-.47.69-1 1.36-1.47 2-.18.24-.37.47-.55.7l-.32.4-.48.58c-.11.14-.22.27-.34.4l-.52.61-.3.33c-.26.3-.53.59-.81.88l-.29.3a48.46 48.46 0 0 1 -68.29 1.6c-.43-.4-.85-.82-1.27-1.24l-.12-.01c-.44-.45-.86-.9-1.28-1.36a2.85 2.85 0 0 0 -.23-.26c-.39-.44-.78-.89-1.16-1.35v-.06q-.65-.78-1.26-1.59a42.59 42.59 0 0 0 -4.82 1.44c-1.86.83-4.24 3-5.53 1.35s2.43-3.31 2.43-3.31c1.3-1.1 2.7-2 5-3.72q-1.19-2-2.19-4c-8 3.4-17.39 7.43-17.88 7.76-.85.56-10.83 3.37-11.79 3.44s-5.91 2.06-7.36 2.6-3.59.59-4.16-.15a10.19 10.19 0 0 0 -5.39-2.46c-1.9-.06-4.69 1.39-5.9 1.94s-5.39 4.22-6.73 5-3.75 4.87-3 7.28 1.8 6.27 3.08 6.91 4.72 1.24 5.38 2.7 0 4.65-.07 5.48a9.84 9.84 0 0 0 2.52 6.05c2 1.86 5.23 3.4 6.21 2.72s3-1.55 3.75-1.41 6.62 1.31 8.07.53 4.24-1.87 5.73-3.49 2.29-7.55 2.46-9 3.41-5.24 4.26-5.81c.59-.39 13.51-6.89 21.83-11.06l-.14.39-1.34 2.94-1.21 3.17c-1.4 3.34-1.16 7.72 1.69 9.25l1.58.77 1 .5.69.35 1.56.6h.08l.39.25 1.19.76s0 0 0 0a0 0 0 0 0 0 0 4.5 4.5 0 0 0 2.56.48 12.39 12.39 0 0 0 -.17 2c0 3 1.17 5.84 3.64 6.56l1.9.46 2 .53a6 6 0 0 0 1.72.27h.12.12l1.92.71a5.07 5.07 0 0 0 4.53-1.08 7.1 7.1 0 0 0 2.4-3.68 3.63 3.63 0 0 0 1.8.6h1.4 1.51l1.43-.17h.1.08l1.29.15c-.05 0 0 0 0 0a7 7 0 0 0 1 1.87 4.2 4.2 0 0 0 3 1.76l1.16.06h.64l1.13.07h.79a6.09 6.09 0 0 0 1.7-.07h.09l1.92.32a5 5 0 0 0 4.14-1.86 7.58 7.58 0 0 0 1.86-5.48 2.44 2.44 0 0 1 .05-.88 3.43 3.43 0 0 0 .55.06h1.64 1.75l1.46-.13h.1.11l1.71.13a4.82 4.82 0 0 0 3-1.08c.15.59.34 1.3.34 1.3l.4 1.57c.85 3.75 3.57 7.1 6.68 6.21l1.71-.57 1.84-.59a6.22 6.22 0 0 0 1.6-.7h.05l1.85-.38a5.52 5.52 0 0 0 3.36-3.23 7.94 7.94 0 0 0 .69-3.25 8.09 8.09 0 0 0 -.16-1.56 3.83 3.83 0 0 0 3.22-.57l1.42-1.08.9-.66.63-.46a7.46 7.46 0 0 0 1.31-1.15l1.58-.94a6.11 6.11 0 0 0 2.34-4.21 6.91 6.91 0 0 0 .08-1.11 7.39 7.39 0 0 0 -1.39-4.37 1.74 1.74 0 0 1 -.35-.61l-.76-1.62s-1.62-2.81-1.62-2.81l-.78-1.41c9.53 4.82 24.16 13.37 26.2 15.09 2.54 2.14 3.3 8.11 3.32 11.08s4.47 4.79 8.09 4.93 7.51-2.63 8.5-3.06 2.35.58 4.46.35 3.87-4.51 4.36-5.47-.31-4.8-.85-5.87-.13-3.51.77-3.76 3-.48 3.81-1.18 2.37-4.88 2.72-6.57-1.74-3.61-2.51-4.02zm-186.18-.49v-.36c0-1.31 2.56-1.7 3.52-1.9s2.91-1.44 4-1.53a.88.88 0 0 1 .41 1.69 12.19 12.19 0 0 0 -2.82 2.16 4.5 4.5 0 0 1 -3.49 1.07c-1.42-.05-1.64-.66-1.62-1.13zm27.58-2.11a28.73 28.73 0 0 0 -4 3.07c-.75.93-3 1.45-5.08 2.2a27.5 27.5 0 0 0 -6.47 4.3c-.62.69-4.39 2.83-5 3.76a8.18 8.18 0 0 0 -.43 5.34c.55 1.45-.59 3.32-1.34 4.37a2.76 2.76 0 0 1 -3.35.47c-.82-.5-2.37-.32-3.21-.35s-2-1-1.71-2 1.26-1.87 1.29-2.7-2-.9-2.72-.81a7.26 7.26 0 0 0 -2.3 1.11 1.88 1.88 0 0 1 -2.69-1.17 2.41 2.41 0 0 1 1.64-2.68c1-.32 2.71.81 3.53 1.2a1.5 1.5 0 0 0 2-1.13c0-.71-1.57-2.67-1.91-3.28s-3.62-2-4-2.17a5.63 5.63 0 0 0 -2.66 1.1 15.2 15.2 0 0 0 -2.44 1.69c-.62.58-2 .05-3-.34a4.3 4.3 0 0 1 -2.29-2.35c-.67-1.33-.57-4.07.38-4s1.4.89 1.36 2.08 1.15 1 2.22 1 1.46-.91 2.44-1.59.67-2.24.11-3a5.93 5.93 0 0 1 -1.07-3.49c.05-1.31 1.46-1.81 2.82-2.28 2.77-1 4.75.41 4.72 1.36a3.85 3.85 0 0 0 1.32 2.91c1 1.11.06 1.55-.56 2.24s-1 1 .15 2.51 5.47.2 6.57-.48a18.92 18.92 0 0 1 5.43-2.19c1.8-.29 2.3-1 3.39-1.43a20.75 20.75 0 0 0 4-3.19c.74-.68 3.5-1.06 4.7-1.26s2.42-1.46 3.76-2a37.6 37.6 0 0 1 4.47-1.87 2 2 0 0 1 2.68 1.77c.05 1.48-1.57 2.37-2.75 3.28zm23.67 16.18c-.43 1.61-2.05 2.3-2.88 1.86s-.74-.57-1.54-1-.85-.22-1.62-.64-.83-.4-1.64-.84-.78-.35-1.54-.76-.68-2.43 0-4 .55-1.59 1.19-3.14.7-1.43 1.32-2.9.48-1.57 1.11-3.06c.4-1 .55-1.34.76-1.87l.3-.15 1.09 1.06c.16.51.35 1 .56 1.53a8.59 8.59 0 0 1 0 6.27c-.79 1.79-1.77 3.36-1.77 4.48s1.57 1.12 1.77-.22a5.84 5.84 0 0 1 1.57-3.14c.79-.89.39-3.13 1.18-3.36a2.91 2.91 0 0 1 2.75 1.57c.07.33.17.85.27 1.38l-.45 1.07c-.62 1.5-.56 1.53-1.18 3a14.9 14.9 0 0 0 -1.25 2.86zm7.76 8.46c-.71.8-1.56 3-4 2.19-.66-.21-1.28-.4-1.82-.55a6 6 0 0 1 -.32-3.84c.41-1.82.29-1.85.7-3.68s.49-1.71.88-3.45.23-1.82.62-3.58c0-.12.05-.23.08-.34.48-1.19 1.23-2.6 2.42-2.36a11.79 11.79 0 0 1 3.79 1.59c.69.85 1.05 2.13.14 4a14.72 14.72 0 0 0 -1.48 4.29c0 1 .08 3.11.08 3.11a7.23 7.23 0 0 1 -1.09 2.62zm7.44-9c-.4 1.77-.38 1.78-.78 3.55s-.32 1.8-.71 3.57-.65 1.61-.79 3.3c-.17 1.84-1.83 3-2.83 2.68h-.07c-.62-.87-1.47-1.2-.82-3.43.18-.61 1.71-1.66 1.71-2.86s-1-3.62 0-4.63.88-2.81 1.23-3.62a4 4 0 0 1 1.77-1.81c.34-.13 1.14.51 1.65 1-.05.61-.05 1.04-.36 2.24zm5.63 5.91a14.68 14.68 0 0 1 -.95 1.48c-.62 0-1.16.53-2 .45a1.84 1.84 0 0 1 -1.07-.71 8 8 0 0 1 -.18-1.78c0-1.63 0-1.63 0-3.27 0-.47 0-.81 0-1.08.24-.77.61-1.5 1.12-1.5 1 0 1.35.41 2.25.87a5 5 0 0 1 1.28 2 4.27 4.27 0 0 1 -.45 3.52zm16.55.49a25.07 25.07 0 0 0 -.29 2.9c-.56 1-1.24 1.94-2.12 1.71-1.21-.32-.37-3.28-.1-4.45a2.35 2.35 0 0 0 -1.2-2.54c-.75-.42-.47 2-.19 3.18a3.66 3.66 0 0 1 -.56 3 8.65 8.65 0 0 1 -1.76 2.12 2.44 2.44 0 0 1 -.39.28c-.5 0-.66 0-1.4-.08s-.89 0-1.76-.09-1.47-2.12-1.35-3.94 0-1.84.14-3.66c.09-1.33.17-1.64.25-2.49.31-.88.86-1.86 1.74-1.91 1.59-.1 3 .19 4 .09s3.77-.67 4.27 0 .65 3 .77 4.56c.01.29-.01.69-.05 1.31zm5.93-1.82a.56.56 0 0 0 0 .12h-.52c-.38 0-.58 0-.77 0a8 8 0 0 1 -.57-3.12 2.2 2.2 0 0 1 .52-1.42c.47 0 .87 0 1.26-.07a2.36 2.36 0 0 0 .4 1.36c.59.65.14 1.95-.32 3.12zm6.32-2.3a2.12 2.12 0 0 1 -1.84 2.38c-.84 0-.84-.11-1.69-.13a3.85 3.85 0 0 0 -.54 0 4.85 4.85 0 0 0 -.16-.63c-.27-.91-.46-.91-.17-1.95s-.09-1.54-.28-2.55a9 9 0 0 1 2.38-1.22c.81-.11 1.54-.33 2.33 2.4a4.47 4.47 0 0 0 -.03 1.69zm14.47 8.16c-.88.26-.92.12-1.81.38s-.81.48-1.67.73-.9.32-1.81.58-.83.32-1.68.57-2-1.52-2.39-3.34-.52-1.78-.92-3.59-.29-1.76-.68-3.49-.54-1.71-.93-3.47c-.2-.86-.3-1.31-.4-1.73a2.15 2.15 0 0 1 1.21-1c.42-.19 1-.36 1.59-.57 1 .53 2.43 1.41 2.51 2.08.13 1 .77 4.75 1.4 5.43a5.23 5.23 0 0 1 1.14 3.23c.13 1.52 1.52 2.88 1.78 1.52s-.13-3 0-4.41-.64-1.7-1.27-3.39-.38-2.38-.64-4.08-1.83-.08-2.65-1.67a2.21 2.21 0 0 0 .35-.47c.8-1.43 2.73-1.3 3.76-.52.73.55 1.57 2.49 2.2 4.08.19.79.27 1.13.56 2.43.4 1.77.47 1.75.86 3.51a19.21 19.21 0 0 0 .69 3.31c.62 1.75-.27 3.61-1.2 3.87zm5.91-9.08a4.33 4.33 0 0 1 -1.78.28 5.85 5.85 0 0 1 -1.05-1.38c-.78-1.46-.87-1.39-1.66-2.85s-.67-1.45-1.42-2.84c-.2-.37-.35-.63-.49-.85a8.61 8.61 0 0 0 -.12-1c-.23-1.3-.34-3.38.91-4.55a11.57 11.57 0 0 1 1-.81l.2.11c.88.43 2.25.72 2.88 1.86s2.58 2.84 2.95 4.56-1.25 2.08.42 4.58c.81 1.17-.97 2.42-1.84 2.88zm6.13-7.06a3.18 3.18 0 0 1 .16 3.37 1.35 1.35 0 0 1 -.79.41c-.75 0-2-2-2.25-3a13.61 13.61 0 0 0 -1.62-3.71c-.76-1.15-.9-2.32-1.63-3.28a3.61 3.61 0 0 0 -1.5-1.2c-.18-.39 0-.67.31-1.13a1.61 1.61 0 0 1 2.39-.38h.05c.1.17.21.37.34.62.77 1.42.78 1.41 1.54 2.83s.83 1.37 1.6 2.78a15 15 0 0 0 1.4 2.68z" transform="translate(-64.65 -73.84)"/></g></svg>