<svg viewBox="0 0 240 180.73" xmlns="http://www.w3.org/2000/svg" xmlns:xlink="http://www.w3.org/1999/xlink"><clipPath id="a" transform="translate(-79.65 -53.34)"><path d="m0 0h399.3v264.38h-399.3z"/></clipPath><g clip-path="url(#a)"><path d="m194.81 201.89c-.51-.06-1.77-.13-3.14-.18a59.16 59.16 0 0 0 16 .35c-1.3 0-4 .17-5.27.17s-6.22-.17-7.59-.34z" fill="#201715" transform="translate(-79.65 -53.34)"/><path d="m180.61 194.34a30.77 30.77 0 0 1 2.92 1.2l4.12 1h.27a51.22 51.22 0 0 1 -7.94-2.5 2.85 2.85 0 0 0 .63.3z" fill="#201715" transform="translate(-79.65 -53.34)"/><path d="m185.08 113-2.42 1q2-.67 4-1.2z" fill="#201715" transform="translate(-79.65 -53.34)"/><path d="m219.05 194.34.24-.16c-.41.17-.83.33-1.26.49a4 4 0 0 0 1.02-.33z" fill="#201715" transform="translate(-79.65 -53.34)"/><path d="m229.19 194.37a52.37 52.37 0 0 0 6.87-5l-4.15 2.86z" fill="#201715" transform="translate(-79.65 -53.34)"/><g fill="#004385"><path d="m264.64 160.62.13.27-1.46-8-2-7-.78-3.68-1.37-5-.09-.38-.79 2.84-1.25 3.51-.72 3.6-4.17 15a43.38 43.38 0 0 0 .57-5.38l.29-2.25-.69-7-.17-3.6-2.9-6.55-2.06-5.15-2.4-2.92-2.4-3.25a19.45 19.45 0 0 1 -1.38-2.23 4.22 4.22 0 0 0 -1.37-1.89c-.68-.52-7.72-5.49-7.72-5.49s-2.57-2.06-3.09-2.4a53.18 53.18 0 0 0 -6.51-2.92 33 33 0 0 1 -4.81-1.71c-.68-.35-2.4-.69-3.26-1s-4.12-.85-5-1-8.07-1-8.07-1l-4.8.51-7.21.69-5.66 1.54-7.38 2.4-5.83 2.92a17.52 17.52 0 0 1 -2.74 1.89 49.85 49.85 0 0 0 -5 3.94l-4.46 3.44-5.49 7.89-2.74 5.31-1.72 4.64-1.2 5.49v3.89c-.12 1.32-.19 2.64-.19 4a43.47 43.47 0 0 0 .54 6.78l-.18-.91c-.38-2.44-1.8-11.74-1.8-12.11s-.86-4.21-.86-4.21l-1-4-1.25-4.72-.22-1.13v.15l-.13-.47-.69 2.23-1.54 5.74-1.71 4.81-1 6.43-2.41 9.52.11-.23-.14.54 1.49-3.34 2.83-5.89s.28-.84.56-1.71l2.47-5.53.26 1.13.23 1.65 1.46 6 .94 5.14 2.62 11.54 2 7.21.57-2.4s.48-1.42 1-2.83v.34l.13-.53.47 1.56 1.36 1.35a47.34 47.34 0 0 0 3.8 5.62l1.53 2.47s5 5.14 5.49 5.66a41.19 41.19 0 0 0 6.35 4.46c1.37.51 6.52 3.08 7.89 3.43s7.72 3.26 7.72 3.26 2.62.06 4.92.16c1.37 0 2.63.12 3.14.18 1.38.17 6.18.34 7.55.34s4-.15 5.28-.17h.21c1.2 0 7-1 7.89-1.2s8.41-2.4 8.92-2.75 2.92-1.71 3.44-2.05c.22-.15 1.21-.9 2.25-1.69l2.72-2.09 4.15-2.86c1-.67 1.79-1.25 2-1.43a40.43 40.43 0 0 0 2.89-3.14l4.29-4.8 2.23-4.29 1-2.43c.37-.8.73-1.6 1.06-2.41v.17l1 4.9.13-.49v.09l1.81-5.57 3.17-11.5a26.88 26.88 0 0 1 1.29-3.69c.26-.17 1.54-6.43 1.54-6.43l.09-1.17.18-.62.11.3 1.25 3.8 1.71 4 1.5 3.21 1.44 3.57zm-105.13-29.62 2.92-3.26 4.11-4 2.58-2.23s3.09-2.23 3.77-2.57 4-2.07 4.81-2.41 4.8-2.57 4.8-2.57l.16-.06 2.42-1 1.6-.23c1-.14 2.07-.28 2.34-.28.51 0 4.12-.18 4.12-.18l5-.85 3.78.68s3.26-.17 3.77-.17 4.12.34 4.12.34l6 2.06 3.78.69 5.15 2.57c.68.35 2.91 1.72 4.11 2.4.31.18.81.5 1.38.89a46.13 46.13 0 0 1 3.6 2.94c.29.26.57.53.85.8 1.08 1.4 4.35 5.08 4.64 5.67s2.4 3.6 2.4 3.6l1.49 1.88c.32.61.62 1.22.91 1.84l-1.22 7.08c-.18.88-.32 1.64-.32 1.81v.06.08a9 9 0 0 1 -.75 1.66s-1.56 10.34-2.08 13.18c-.23-2.93-.8-9.17-1.27-9.23s-1.29-12.18-1.29-12.18l-1.28-9-.91-4.91.05-.41-.07.28-.11-.57-.38 2.38-.81 3-.43 3.26-2.15 12.18-.42 5.41-1.12 5.74-.86 5.58-1.69 12v-.47l-.01-2.48-.51-5.4-.43-4.72s-.94-15.7-1.12-16.13-.46-3.12-.71-3.88l-.3-3.72c0-.92 0-1.66 0-1.66l-.35-7.12-.66-3.79-.12-1.57-1 6.24c-.16.47-.31.9-.34 1s-.52 2.57-.77 3.34-1 6.09-1 6.09l-.76 7-.53 3.25c-.19 1.05-.39 2.08-.43 2.2s-.94 5.15-1.11 5.58-1.12 7.2-1.12 7.2l-.4 3.39c-.06-1.1-.11-2.16-.11-2.27a46.11 46.11 0 0 1 -.51-5.06 55.58 55.58 0 0 0 -1-6.35c-.09-.34-.77-5.66-.77-6.18s-.52-4.63-.52-5.06-.6-6-.69-6.78-.51-4-.51-4l-.39-1.45-.65-5.53-.59 3.72s-.07.51-.16 1.23l-.52 3.4a8 8 0 0 1 -.26 1.12c-.35.86-1.38 6.09-1.38 6.35s-1.28 9.69-1.28 9.69-.06 1.41-.14 3l-1.45 9.57c-.27 1.59-.47 2.91-.47 2.91l-.64 3.59c-.11-1.72-.25-3.93-.31-4.19-.08-.43-1.11-6.17-1.2-6.52s-.51-4.55-.51-5.32a30.52 30.52 0 0 0 -.43-4.2c-.17-.52-.35-3.69-.51-4.37s-.78-3.69-.86-3.95-1-7.38-1.12-8-.26-4.46-.34-5.06-.35-5-.52-5.23-1.43-6.14-1.46-6.28v.08c-.15.72-1.28 5.43-1.36 5.67s-1 6.52-1.11 6.78c0 .09-.11 1-.2 2.15l-1.44 7.86c-.74 2.2-1.69 5-1.79 5.17s-1.2 8.41-1.2 8.67-1.21 7.29-1.29 7.55-.29 2.73-.45 4.5l-.09.5c-.4-2.43-1.07-6.37-1-6.55s-.34-6.86-.34-7.29-1.25-4-1.43-4.89v-.17c0-.54-.6-5.32-.6-5.66s-.86-5.41-.86-5.84-.43-4.2-.43-4.2l-1.19-7.41c0-.19 0-.3 0-.28l-1 5.38s-.69 4.2-.78 4.54-2 8-2 8.75-.43 6-.43 6.26-1 8.5-1.29 9a46.15 46.15 0 0 0 -.57 5l-1.26 8.1-.31-2.51-.62-2.64-.74-6.21-.6-7.48s-.94-5.75-.94-6-.17-6.26-.17-6.26l-.77-6-1.43-7-.89 4.27-.46 2.08-.14 2.26-.2 1.17-1 3.17-1.2 7.21-.6 5.49-.46 2.74-.23 1.31-.85 4.35v.44c-.06-.54-.51-4.84-.59-5.24s-.35-5.06-.52-5.83-.6-2.49-.6-2.75-.77-5.83-.77-5.83l-.84-5.49-.14-.15v-.28l-.74-3.33zm-7.13 25.3-.24-3.52.34-4.11 1-5.84.63-2c.33-.91.7-1.8 1.09-2.68l.6-1-.69 2.68s-.26 3.61-.34 3.77-1.1 5.89-1.71 9.3zm94.53 6.8c-.38 1.09-.7 2-.76 2.21s-.26 1.15-.41 2c-.33 1-.69 1.9-1.08 2.83l-1.25 2.08-2.41 3.42-1 2.58-4.81 5.48-3.43 2.58s-2.92 2.23-3.43 2.74a28.53 28.53 0 0 1 -3.6 2.06 11.11 11.11 0 0 1 -1.72 1 42.37 42.37 0 0 0 -3.7 2.07l-.24.16a4 4 0 0 1 -1 .33 25.77 25.77 0 0 1 -3.27.53c-.52 0-5.15 1.37-5.15 1.37l-4.12.17s-4.46 0-5 .17a26.08 26.08 0 0 1 -3.77 0s-2.92-.17-3.77-.34a47.07 47.07 0 0 0 -5.05 0h-.27l-4.12-1a30.77 30.77 0 0 0 -2.92-1.2 2.85 2.85 0 0 1 -.63-.28c-.76-.43-1.8-1.22-2.45-1.61-.86-.51-3.61-1.54-4.12-1.88s-2.57-1.89-2.57-1.89-3.44-2.75-4-3.09a29 29 0 0 1 -3.6-3.08c-.52-.69-2.23-2.24-2.58-2.92a31.41 31.41 0 0 0 -1.89-2.58c-.18-.27-.6-.79-1-1.29s-.58-1-.86-1.46a9.82 9.82 0 0 1 -.89-2.22 52.91 52.91 0 0 0 -2.06-5.15l-1-2.75c.21-1 .37-1.78.37-1.88s0-.07 0-.14l.13-.51c.34-1.32 1.14-4.16 1.14-4.16l1.54-5.91 1.29-7.47.35 1.36.75 4.56.44 4.81 1.2 6 .76 3.86 1 6 1.38-6.23 1.58-6.16 1.58-8.05 1.71-7.22.13 1 .44 4 .95 7.12.86 8.75 1.28 8.32.43 4.2 1.09 7s1.49-6.88 1.66-7.39 2.23-12 2.23-12l1.72-8.4s1.28-7 1.45-7.64c.09-.3.28-1.86.46-3.34.39 2.19.83 5.14.83 5.14s.86 6.27.86 6.78.85 6.18.85 6.18l2 8.15 1.35 6.77 2.68-11s.86-4.71 1-5.06 1.29-7.46 1.63-7.46 1.37-7 1.46-7.29 1.28-6.78 1.28-6.78l1.23-6.17 1.28 10.21c.51 4.67 1.37 12.78 1.18 13.2s.76 3.37 1.1 4.83l.1.82c0 .89.61 5.1.69 5.68s.43 8.23.26 8.57 1.63 7.72 2 9.13l.08.64.57-3.36 1.38-6.92 1.54-8.41 1-7.37 2.15-12 .31-1.37.37 2.48.69 5.15s.69 5.15.6 5.49 1.63 6.58 1.63 7.35.69 3.51.69 3.86a6 6 0 0 0 .44 1.34l.85 5.06.08-.34 2.94-11.03 1.81-7.72 1.8-7.63.45-2.78.84 6.21.51 5.14.69 5.67.85 8.32.61 3.86.94 6.52v-.16.07l.07.54.82-4.41.73-3.17s2.66-13.55 2.83-14a44.25 44.25 0 0 0 .6-4.54c0-.34 1.72-8.24 1.72-8.24l.87-6c.37 2.1 1 5.63 1.18 6.16.26.78 1.12 8.67 1.29 8.93s.77 4.63.86 5 1.82 7.89 2 8.65c0 .11 0 .14 0 .06a.41.41 0 0 0 0-.14l.26-1.28c.3-1.3.71-3 .71-3l1.54-7s1.38-7.81 1.46-8.07 1.13-6.55 1.14-6.59l2.22 10.67.16.81.19.88.19.91q-.14 1.29-.43 2.58z" transform="translate(-79.65 -53.34)"/><path d="m144.3 54.38h-4.21c-.85-.16-1.85-.4-1.85-.4l-.43 4.62.22 4.3-.32 3.87v2.37l-.32 4.52-1.3-5.27s-.85-3-.85-3.44a31.56 31.56 0 0 0 -.76-3.44c-.11-.33-.86-4.09-.86-4.09l-.21-2.58-1.09-.46-2.25-.83h-1.82l-2-.21-.1 4-.15 2.45-.76 6.55.48 4.19-.14 2.84-.44 4.8-.33 5.91.1 2.22-.42 8.22-.75 4.4 3.72-.21h3l.12-2.38c.22-.78.66-2.38.74-2.78a27.87 27.87 0 0 0 0-4.09 24.78 24.78 0 0 1 .21-4c.11-.43-.11-5.16-.11-5.16v-.3l.38-7.51v-.45l1.4 4.3.75 3 .76 3.87.86 3.55 1.12 2.94-.24 4.83-.45 2.35-.34 2.12 1.19.11s3.44-.22 3.76-.33a9.28 9.28 0 0 1 1.83.11 36.86 36.86 0 0 1 .53-4.3 32.07 32.07 0 0 0 .11-4.52l-.08-2.49.68-13.18c.11-1.1.2-1.93.2-2 0-.32.21-3.44.21-3.44s.12-3.72.22-6.72l.39-7.6h-.13a.34.34 0 0 0 -.23-.22" transform="translate(-79.65 -53.34)"/><path d="m119.22 55.38-1.51-1.08-1.94-.21-1.61-.65-1.93.33-3.44.21-2.69.43-1.51 1.51a15.05 15.05 0 0 0 -1.72 2.36c0 .32-.21 3.33-.21 3.33l-.43 6.13-.11 5 .22 2.9-.87 4.09.5 3-.41 7.82c0 .39-.07.66-.09.74-.1.43-1 7.85-1 7.85l2.9-.33 2.26.22 1.72-.32.11-1.83v-3.44s.1-3.66.21-4 .21-3.66.21-4c0-.15.1-1.26.19-2.47.48-.05 2.2-.43 2.51-.43h1.72l1.82.32h.17l-.18 3.6a3.22 3.22 0 0 1 -.2.79c-.22.32 0 3.66-.11 4a10.71 10.71 0 0 0 0 1.67l-.27 5.43h.2v.29h1.85l2 .1.43-.1h1.49v-.36l.43-.07.1-3.45s-.08-3.36-.1-4.76l.09-1.71c.13-1.2.34-2.77.34-2.77s0-2.68.08-5.24l.9-17.19c.22-1.15.63-2.94.63-2.94l-1.4-3.12zm-4.09 11.29-.54 2.47-.21 5.16.21 2.11c-.69.07-1.63.15-1.83.15s-2.9.21-2.9.21l-1.58-.77.72-13.48a3.26 3.26 0 0 1 .35-1.42 8.29 8.29 0 0 1 1.67-.78 4 4 0 0 0 1.08-.38h1.14a3 3 0 0 1 1.34.28l.53 1.29s.11 2.25.11 2.58-.11 2.58-.11 2.58" transform="translate(-79.65 -53.34)"/><path d="m184.15 55.81-1.5-1.08-1.94-.21-1.61-.65-1.93.32-3.44.22-2.69.43-1.51 1.51a15.05 15.05 0 0 0 -1.72 2.36c0 .12 0 .65-.07 1.24a13 13 0 0 0 -.29 2.2l-.9 17.3-.14.66.08.48-.94 18.08c-.06.55-.1.9-.1.9l2.9-.33 2.26.22 1.72-.32.11-1.83v-3.44s.1-3.66.21-4 .22-3.66.22-4c0-.15.09-1.26.18-2.47.48 0 2.2-.43 2.5-.43h1.72l1.45.25-.72 15.49h.55v.11l2 .32 2 .1 1.74-.42.63-.11.1-3.44s-.1-4.52-.1-5.27.43-4 .43-4 .1-8.49.21-9.68a17.42 17.42 0 0 0 0-2.38l.19-3.66c.17-2.46.37-5.5.44-6 .1-.86.75-3.65.75-3.65l-1.4-3.12zm-4.28 6.71-.79 14.36c-.59.06-1.22.11-1.38.11-.32 0-2.9.21-2.9.21l-1.61-.75c0-.43.21-3.44.21-3.44s0-1.06-.07-2.27l.24-4.51c.1-1 .16-2.17.16-2.47a19.08 19.08 0 0 1 .43-2.15 9.79 9.79 0 0 1 1.82-.86 6.26 6.26 0 0 0 1.4-.53l1.27-.08a2.15 2.15 0 0 1 1.22 2.38" transform="translate(-79.65 -53.34)"/><path d="m161.79 53.77c-.48 0-1.56 0-1.88 0a2.43 2.43 0 0 1 -.59 0h-.1l-.28-.06-.25.09-1.63.07-1.94.22-1.45-.27h-.15-.33c-1.08 0-3.61 0-3.86 0s-1.45 0-1.45 0l-.49 1.28a5.91 5.91 0 0 1 .16 1.19c0 .16-.1 1.77-.1 1.77l-.27 2.21h.82s2.09-.11 2.31-.11 1.56-.11 1.56-.11l.75.06-.16 2.52s.21 3.34.1 3.66a25.18 25.18 0 0 0 -.1 2.58l-.54 7 .09 5.13-.08 1.54-.55 4.41-.43 8.28.05 3.77 3.33.21 1.77-.53h.9l.07-1.14.31-1.44.33-5.6v-3.73l.64-5.27-.21-2.9.21-3.87.65-8.06.1-3.12.13-3.34c.34-.08.78-.21.89-.21h1.72c.22 0 1.46.27 1.46.27h1.61l.11-1s-.11-2.15-.11-2.47.27-1.89.27-1.89v-1l-.7-.11h-2.69" transform="translate(-79.65 -53.34)"/><path d="m98.79 57.5c0-.32-1.51-1.5-1.72-1.83s-1.4-.64-1.4-.64l-3.26-1.03-2.87-.14-2.15.79-3.55.32a22.73 22.73 0 0 0 -1.61 2.58c-.11.43-.64 1.83-.75 2.26s-.54 2.8-.54 2.8v.13l.11 2.15.08.74-.13 2.05-.5 1.86v.13l.11 4.73 1.19 1.6.1.12.62 1.61 1.91.19 1 .23.13.08 1.39.89 1.61 1.18 1.83 1 1.24.77.24 1v.26l-.24 4.11c-.32.44-.74 1-.74 1l.15 3.55-.86 1.18-.91.26h-1.27a3.11 3.11 0 0 1 -1.34-.26 2 2 0 0 1 -.57-1c0-.4-.18-1.61-.21-1.79l.1-1.84v-.13h-.98l-1.73-.57-3.11.46v.14h-.16v.59l-.28.78v.08s.08.35.18.84a11.72 11.72 0 0 0 .42 4v1.81l2.15 1.82 2.53 1.21 4.73.1c.32 0 2.47-.1 2.47-.1l2-1.29.24-.31a5.75 5.75 0 0 0 2-2.33 2.25 2.25 0 0 0 .46-.59c.11-.32.43-1.72.64-2.47a5.12 5.12 0 0 0 .13-1.11c.06-.93.07-2.08.27-2.18.64-.32.93-4.87.93-4.87s-.63-1.24-1.05-2.2c0-.38 0-.72 0-1a6.78 6.78 0 0 0 -.17-1.82l.09-.65v-.12s-.5-.37-1-.77a4.91 4.91 0 0 0 -.51-.51l-.24-.17.01-.18c-.1-.32-.86-1.07-1-1.39s-4.08-1.83-4.4-1.94a8 8 0 0 0 -1.47-.67l-.57-.32c-.28-.18-.52-.35-.73-.5a3.25 3.25 0 0 1 -.22-.57v-1.74c0-.33.14-2.05.14-2.05l-.7-2.17.07-1.39.27-2 1.08-1.08.86-.64a9.09 9.09 0 0 1 1.12-.17h.3a3.78 3.78 0 0 1 1.26.71l.74.18a1.48 1.48 0 0 1 .08.13 3.67 3.67 0 0 1 .09 1.19l-.18 3.87h.17v.3.12l.23.11.57.58 1.93-.14.74-.16.91-.07 1.4-.32.08-.3.89-1.8.43-3.09a6.28 6.28 0 0 1 -1-1.93c0-.54-.32-1.94-.32-2.26" transform="translate(-79.65 -53.34)"/><path d="m318.27 57.24a4.81 4.81 0 0 0 -.9-1.1l-.48-.59-1.5-1.08-1.94-.21-1.61-.65-1.93.32-3.44.22-2.69.43-1.55 1.42a15.18 15.18 0 0 0 -1.72 2.37c0 .32-.21 3.33-.21 3.33l-.43 6.13-.11 5 .21 2.9-.86 4.08.5 3-.41 7.84c0 .39-.07.65-.09.73-.1.43-1 7.84-1 7.84l2.9-.32 2.26.22 1.72-.33.11-1.82v-3.4l.19-3.88a.33.33 0 0 1 0-.12c.11-.32.22-3.66.22-4 0-.15.09-1.27.18-2.48.48 0 2.2-.42 2.5-.42h1.81l1.83.32h.17l-.18 3.59a2.8 2.8 0 0 1 -.21.8c-.21.32 0 3.65-.1 4a11.5 11.5 0 0 0 0 1.66l-.26 5.43.31.05v.17h1l.65.1 2 .11.86-.21h1.18v-.27l.31-.06.1-3.44s0-1.64-.07-3.11l.27-5.18.12-1s0-.79 0-1.92l1.11-21.29c.22-1 .48-2.17.48-2.17l-.87-2a6.47 6.47 0 0 0 -.51-1.13m-5.5 9.53-.54 2.48-.15 5.28.21 2.11c-.69.07-1.63.15-1.83.15s-2.9.21-2.9.21l-1.48-.68.74-13.68a3.37 3.37 0 0 1 .33-1.37 7.29 7.29 0 0 1 1.57-.72 5.37 5.37 0 0 0 1.31-.49h1a3.19 3.19 0 0 1 1.13.18l.62 1.49s.11 2.26.11 2.58-.11 2.58-.11 2.58" transform="translate(-79.65 -53.34)"/><path d="m216.12 54.16-.65-.39-1.4-.22-.86.32h-.32c-.7-.07-2.26-.43-2.26-.43l-.63.56h-.66l-.43 1.61-.64 2.48-.18 2.31-.22.84-1 2s-.21 2-.38 3.33l-.68 2.63-.88 2.64-.47 2.58-1.46 5.5v-.24l-.22-1.29-.21-1.73v-2l-.22-2-.75-2.8-.11-1.72-.32-1.82v-2.02c0-.32-.54-2.26-.54-2.26s-.43-2.79-.54-3.11-.21-2.48-.21-2.48l-.46-1.24v-.26l-.42-.79-.55-.39-1.29.1-2-.1-2.5.39-.09.43h-.06v.41l-.25 1.18a9.61 9.61 0 0 0 -.32 1.83 15.48 15.48 0 0 0 0 2.26 16.41 16.41 0 0 1 .19 2l-.27 4.73c-.13.74-.3 1.6-.37 1.86a10.14 10.14 0 0 0 -.11 2.58c.11.64-.53 7.09-.53 7.09a11.51 11.51 0 0 1 0 1.94 6.31 6.31 0 0 0 0 2c.05.28.11.83.15 1.31l-.12 2.29c0 .37-.1.73-.14.92a25.2 25.2 0 0 0 -.43 2.58c0 .43.11 3.44.11 3.44l-.11 2-.31 2.41-.22 1.5 1.22.08 1.81-.32h.11l2 .1.25-.1h.83v-.37l.14-.06s.18-1.83.29-2.15.21-3.34.21-3.34.43-2.9.54-3.33a21.63 21.63 0 0 0 0-2.69l-.43-6.45.54-2.58-.11-3.55.08-1.54.46 2.83.43 3 .33 1.56.13.88.18 1.86.65 3.44v.07l.68 4.26-.17.62 2.36.32 1.4-.64h1.4l.43-2.26.64-2.9.86-2.91.43-2.36 1-2.37.75-3.65.43-2.48.32-1.62-1.29 17.83c-.16 1.35-.36 3-.42 3.15s-.44 4.3-.44 4.3l.1 3v.1.35l1.59-.32h4.17v-.08h.79l-.11-3 .11-3.34.43-2.47v-6.46l-.24-1.44v-.79l.74-1.75s-.11-5.48-.11-5.8.32-2.91.32-3.44v-4.63l.65-6.12-.11-2.91z" transform="translate(-79.65 -53.34)"/><path d="m295.46 55.49s-1.08-1-1.72-1-4.09-.54-4.09-.54l-3.08.62-2.29-.73-2.15 1-1.13 1.51-1.19 2.36-.69 1.29.14 2.09-.57 3.91-.22 4.09.11 3.65-.65 5.59-.32 5 .28 3.67-.17 3.24v1.4.18.13a9.15 9.15 0 0 0 .35 1.87l.17.91.65.78a5.06 5.06 0 0 0 .41.49l1.09 1.31 2 .53 3.44.43 2.09-.53 2.64.43 1.72-1.08 1.61-1.4 1.11-2.39.43-2.15v-2.47-.55l.05-.74h-.09v-.65h-2.19l-1.93.43-1.57.22-.18 2.39-1.26 2.12-2.61.46-.94-.46-1-1 .11-2.36s.32-2.37.32-2.69.22-2.47.22-2.47a26.59 26.59 0 0 1 -.33-3.77c.11-.75.22-1.61.22-1.61v-2.6-.65l.61-2.23.22-3s0-6.13.21-6.67a6.33 6.33 0 0 0 .11-1.93l1.18-1.19 2-.81 1.27.49.54.75.1 1.72.11 1.94v2.79s1.72-.32 2-.32 2.26.32 2.26.32l1.66-.56.71-1.37v-4.07l-.54-4z" transform="translate(-79.65 -53.34)"/><path d="m272.45 54.09-1.94.21-1.93-.3-.32 2.37-.43 6.45s.21 3.33.1 3.65a25.18 25.18 0 0 0 -.1 2.58l-.54 7 .09 5.13-.08 1.53-.55 4.42-.43 8.27.11 3.87 3.33.22 2.49-.75.52-2.37.33-5.59v-3.78l.64-5.27-.21-2.9.21-3.87.64-8.07.11-3.12.32-8.49-.1-1.29z" transform="translate(-79.65 -53.34)"/><path d="m239.23 56.67-1.61-2.26-3.44-.41s-1.94.11-2.58.11h-2.37a21.3 21.3 0 0 0 -3.76.21c-.32.21-1.55 1.24-1.6 1.28a6.26 6.26 0 0 0 -2.81 4.07l-.65 1.21a6.62 6.62 0 0 1 0 2.58 29.13 29.13 0 0 0 -.86 4.84c0 .32.33 6.66.11 7s-.32 6.13-.32 6.13.06 3.18.09 4.75l-.13 2.55-.18 1.73h.09l-.05.79v1.44l-.16 1.61 1.72 3 2.25 1.4s2.58.43 3 .43 4 .21 4 .21 2.05-.54 2.37-.64 3.55-.33 3.55-.33l1.82-1.5 1.08-2.15-.11-2.9.14-1.49.72-2.6.11-7.1v-6.33s.32-6.45.43-6.77.43-4.52.43-4.52l-.11-3.65zm-5.38 10.64v2.26c0 1.18-.1 4.52-.21 5.05a27.62 27.62 0 0 0 -.65 2.91c0 .53-.11 5.37-.11 5.37s-.21 3.76-.21 4.2.06 1.87.1 2.86l-.42 1.65a20.38 20.38 0 0 1 -2.15 1.39 2.46 2.46 0 0 1 -1.4-.11l-2.37.11-.86-1.51-.32-2.25h-.06l.6-3.74.43-7.2.11-3.76.1-5.59.44-5.06v-2l.43-.86s.75-.65 1.07-.65 1-.21 1.72-.21a13.74 13.74 0 0 0 1.79-.17l2.12 1.08a2.92 2.92 0 0 1 .3.42 3.64 3.64 0 0 1 .08 1 3.51 3.51 0 0 0 -.7 2.1c0 1 .21 2 .21 2.69" transform="translate(-79.65 -53.34)"/><path d="m263.63 55.31v-.15c0-.54-.28-.56-.28-.56h-4.22c-.85-.17-1.84-.41-1.84-.41l-.43 4.63.22 4.3-.33 3.88v2.36l-.25 3.5-.86-3.52s-.86-3-.86-3.44a31.58 31.58 0 0 0 -.75-3.44c-.11-.32-.86-4.09-.86-4.09l-.17-2.59-.46-.14-.05-.59-1.09-.45-2.24-.83h-1.83l-2-.22-.11 4-.22 2.45-.7 6.14-.19.86.6 4.18-.13 2.4-.43 4.81-.33 5.91.1 2.22-.43 8.21-.74 4.41h.63l-.13.76 3.76-.21 2.55-.21.35-1.73a13.19 13.19 0 0 0 1.15-2.18 39.8 39.8 0 0 0 -.28-5.13 24.78 24.78 0 0 1 .21-4c.11-.43-.11-5.16-.11-5.16l-.22-3.18v-.77l.54-3.76 1 3 .75 3 .75 3.87.61 2.51.11 1.76 1.16 1.92.11.29-.24 4.83-.45 2.34-.32 2.15.6.06-.1.67 1.18.11s3.45-.22 3.77-.32a11 11 0 0 1 2.26.35s.35-3.58.43-4.37c0-.39-.22-4.69-.22-4.69l-.21-4.3v-2.26c0-.43.1-3 .1-3s1.11-5.84 1.11-6.17 0-5.44 0-5.44.32-9.89.32-10.43.65-2.3.65-2.83-.72-1.29-.72-1.29h-.22" transform="translate(-79.65 -53.34)"/><path d="m223.63 213.19-.64.19v1.56l-.24 1-.3 2.63-.53 2-.25 1.85-.12 1.86-.57 3.24-.23-2.41-.25-1.91-.23-2.12-.06-.84v-1.64l-.1-2.1-.11-1.5-.29-1.48-.63-.13-1.07-.15-.54.25-.39 2.05-.1 1.41-.63 3.9-.08.61-.41 2.33-.15.68-.39 1.65-.24 1.76-.2-3.12-.29-2.35v-1.8s0-3.9 0-4.19-.39-1.91-.39-1.91l-.15-1.17-.82-.29-1 .29-1 .2v1.07l.25 2.54.15 2.05s.29 3.8.29 4 .44 2.59.44 2.59.19 2 .14 2.2.34 2.34.29 2.48a7.42 7.42 0 0 0 .25 1.22l.23 1.81.36.14.63-.09h1.12l.74-.05 1-5.08.55-1.95.59-3.8.15.83.14 2 .2 1.85v1.56l.34 2.59.23 2 .31.05h.77 1l.74-.1.33-.83.3-1.95.83-4.2.48-2.44.88-2.83s-.09-1-.13-1.46l.25-1.25c.09-.33.17-.6.17-.6l.11-.82.71-3.64-1.21-.52z" transform="translate(-79.65 -53.34)"/><path d="m242.94 214-.68-.48-.88-.1-.73-.29-.88.14-1.56.1-1.22.19-.68.69a7.07 7.07 0 0 0 -.78 1.07c0 .15-.1 1.51-.1 1.51l-.19 2.79-.05 2.24.09 1.32-.39 1.85.23 1.39-.18 3.54a3 3 0 0 1 -.05.34c0 .19-.43 3.56-.43 3.56l1.31-.15 1 .1.78-.15v-.82-1.57s.05-1.65.09-1.8.1-1.66.1-1.81 0-.57.09-1.12c.21 0 1-.19 1.13-.19h.78l.83.14h.07l-.07 1.63a1.55 1.55 0 0 1 -.1.36c-.09.15 0 1.66-.05 1.81a5.9 5.9 0 0 0 0 .76l-.12 2.46.91.14.92.05.79-.19.28-.05.05-1.56s-.05-2-.05-2.39.2-1.81.2-1.81.05-3.85.1-4.39a9.94 9.94 0 0 0 0-1.08l.08-1.67c.08-1.12.17-2.49.2-2.71 0-.39.34-1.66.34-1.66l-.63-1.41zm-1.85 5.13-.24 1.12-.1 2.34.09 1-.82.07c-.15 0-1.32.09-1.32.09l-.73-.34c0-.19.09-1.56.09-1.56s0-.48 0-1l.11-2c.05-.44.07-1 .07-1.12a8.36 8.36 0 0 1 .2-1 4.35 4.35 0 0 1 .83-.39 2.91 2.91 0 0 0 .63-.25h.65a.94.94 0 0 1 .28.1l.29.71s0 1 0 1.18 0 1.17 0 1.17" transform="translate(-79.65 -53.34)"/><path d="m233.84 213.34h-2.65l-.37-.09h-.38l-1.65-.23-1.45.28-.41.5.26 1.59v.84l-.15 1.86-.24 1.42.09.41c-.09.77-.17 1.44-.21 1.54s-.39 2-.39 2l.44 1.8v.08l-.15 2.92-.27.71.05 1.42.1.16-.14 2.77h.22v.19h.09v.29h.78 1.95.9l1.88.34 1.17-.49v-1.91l.1-.73h-.48l-.35-.21-.73-.2-.83.25-.64.16h-.5c-.19-.1-.47-.26-.47-.36a8.23 8.23 0 0 1 .3-1s-.1-1.27-.15-1.42.1-2.88.1-2.88l.19-.58 1.32-.15h.19l.44.25h.88l.4-.36.14-.33v-1.22c0-.14.14-.78.14-.78l-.19-.29-.83-.2-.64.2h-1.63l-.22-.39.29-2.1-.14-.93.06-.93v-1l.34-.29.88.2h.87l.88.24 1.22-.34v-.78l.1-1 .15-1.07z" transform="translate(-79.65 -53.34)"/><path d="m254.64 217.56a1 1 0 0 0 -.19-.48.35.35 0 0 0 -.06-.09 3.78 3.78 0 0 0 -.53-2.38 2.2 2.2 0 0 0 -.17-.25 2.78 2.78 0 0 1 -.09-.35v-.08l-.58-.2a4.58 4.58 0 0 0 -1.18-.29h-.71l-.78-.3-.53.1a3.9 3.9 0 0 0 -.9.05 2 2 0 0 1 -1-.09l-.54.24-.87-.2-.11.28-.14 1s-.09 1.47-.09 1.66-.15 1.61-.15 1.61l-.1.77-.13.5-.19 1.61.08 1.2v1 2.3l-.15 2.83s-.09 1.56-.09 1.75-.05 2.1-.05 2.1l-.1 1.47-.05.48h.08v.09h.49 1.17.27l.31.17.88-.1.1-1.17-.05-.73v-1l.29-1.12v-1l-.28-.69c0-.33 0-.66-.06-.9v-.38c0-.22.13-.79.18-1.13l.87.27.51.07v.42l.29 1.07a16.32 16.32 0 0 1 .2 1.86 4.39 4.39 0 0 0 .24 1.07l.24 1.64-.12.8.29.93.22-.1h1.84l.28.1.31-.1.3-.1s-.15-.83-.19-1-.3-1.22-.3-1.22l.1-2.2-.29-.92-.35-.59s-.19-1.27-.19-1.46a5 5 0 0 0 -.22-.83l1-.59.54-1.12s.14-1.07.14-1.32.05-1.18.05-1.5l.15-.4.34-1.37.14-1.17zm-3.16 1v1.9l-.14 1-.39.88-.64.44-.59.09-.61.13-.21-.2.16-1-.09-.59v-1.65l.15-1.47-.19-.83v-.49l.13-.51h1.46a1 1 0 0 1 .86.35v.8z" transform="translate(-79.65 -53.34)"/><path d="m190.73 213.51-.29-.18-.64-.1-.39.15h-.14c-.32 0-1-.19-1-.19l-.28.22h-.3l-.2.73-.29 1.12-.09 1.14-.06.23-.49 1s-.11 1-.18 1.64l-.23.86-.47 1.41-.24 1.36-.61 2.35v-.15l-.1-.59-.1-.78v-.92l-.1-.93-.34-1.27v-.78l-.19-.83v-.88c0-.14-.25-1-.25-1s-.19-1.27-.24-1.42a11.19 11.19 0 0 1 -.1-1.12l-.2-.56v-.12l-.19-.36-.25-.18h-.59-.92l-1.14.18-.18.89a4.31 4.31 0 0 0 -.15.83 7.07 7.07 0 0 0 0 1 9.87 9.87 0 0 1 .1 1.22v1.32a12.92 12.92 0 0 1 -.24 1.36 4.41 4.41 0 0 0 -.05 1.17c.05.29-.25 3.22-.25 3.22a4.74 4.74 0 0 1 0 .88 3.6 3.6 0 0 0 0 .93c.05.24.1 1 .1 1s-.1.83-.14 1.08a11 11 0 0 0 -.2 1.17v1.56.93l-.14 1.07-.1.68.53.05.83-.15.93.05.6-.24s.08-.83.13-1 .1-1.51.1-1.51.2-1.32.24-1.51a9.78 9.78 0 0 0 0-1.22l-.19-2.93.24-1.17-.05-1.61v-.7l.21 1.29.19 1.36.2.93.09 1 .3 1.56.16.36.22 1.38-.14.51 1.07.15.64-.3h.63l.2-1 .29-1.32.39-1.32.2-1.07.44-1.07.34-1.66.19-1.12.23-1.15-.18 1.88-.1 1.51v.21l-.28 3.87v.16s-.24 2.15-.29 2.3-.2 1.95-.2 1.95l.05 1.56.73-.15 1.37-.05h.82l-.05-1.36.05-1.51.19-1.13v-2.92l-.1-.66v-.35l.34-.8s-.05-2.49-.05-2.63.14-1.32.14-1.56v-2.1l.3-2.78-.05-1.32z" transform="translate(-79.65 -53.34)"/><path d="m162.87 213.38-.82-.19h-.45v1.57l-.09 1.75.14.93a4.48 4.48 0 0 1 -.24.83 2.8 2.8 0 0 0 0 .92 8.38 8.38 0 0 1 0 1.57 14.73 14.73 0 0 0 -.05 2.09l.05.88v1l-.1 2-.05.27-.2 2.15-.24 1.17-.54.34-.73.24-.62.17-.75-.41-.18-.66v-1.3l.14-1s-.14-.63-.19-.83a.9.9 0 0 1 0-.13l.07-1.4a5.55 5.55 0 0 1 .19-.86 6.6 6.6 0 0 0 .15-1.17s0-2.78 0-2.92v-.83s.05-.93.05-1.08.15-1.8.1-2.05a5.61 5.61 0 0 1 0-.92v-.39l.06-1.13c0-.11 0-.19 0-.19l.05-.54-.83.05h-1.07l-.74-.1-.19.69.08.66-.11 2.17-.12.63s-.19 1.41-.19 1.56.1 1.17.1 1.17l-.1 2.29a7.67 7.67 0 0 1 -.25 1.08 2.85 2.85 0 0 0 0 .88l-.09.78.19.73-.1 2.63-.39 1.61.3.64.24 1.61 1 .92 1.17.34 1.12.1.73-.14h1.56c.2 0 1.13-.1 1.13-.1l.33-.44.69-.63.54-1 .19-1.17.15-1.76v-2.46-1.13l.15-1.75s.15-1 .15-1.12v-1.08l-.11-.8v-.66l.12-.54.24-2.34v-1.37l.15-2h-.93c-.15 0-1 .19-1 .19" transform="translate(-79.65 -53.34)"/><path d="m209.62 216.7a3.59 3.59 0 0 0 -.69-2.64c-.06-.2-.1-.39-.1-.39l-.59-.19a4.39 4.39 0 0 0 -1.17-.29h-.88a6.2 6.2 0 0 1 -1.07-.2 3.52 3.52 0 0 0 -1 0 1.92 1.92 0 0 1 -1-.1l-.54.25-.87-.2-.12.28v.24.43l-.05.32s-.1 1.46-.1 1.66-.14 1.61-.14 1.61l-.2 1.51-.19 3.56v2.29l-.15 2.83s-.1 1.56-.1 1.76 0 2.1 0 2.1l-.09 1.46-.05.49.49.05h1.17l.6-.05h.46.19l.25-2.78.1-1.76s-.12-1.3-.15-1.93v-.38c0-.22.14-.81.19-1.15h.86.55v.08.82l.26.94.12.75a8.62 8.62 0 0 1 .11 1.23 4.37 4.37 0 0 0 .24 1.08l.24 1.71.12.41.18 1.05h1.86l.28.1.31-.1.31-.1s-.15-.83-.2-1-.29-1.22-.29-1.22l-.1-1a10 10 0 0 0 -.09-1.56 9 9 0 0 1 -.35-1.12s-.19-1.27-.19-1.47a6.19 6.19 0 0 0 -.22-.82l.95-.59.54-1.12s.14-1.08.14-1.32 0-1.32 0-1.56.25-1.32.25-1.46a10.9 10.9 0 0 1 .3-1.21c.05-.2-.1-1.27-.33-1.32m-2.84 1.66v1.35.84l-.11.68-.39.88-.63.44-.59.1-1 .2v-.4l.05-1.36v-1.66s-.09-1.12-.09-1.27.09-1.61.09-1.61l.16-.61h1.46a1 1 0 0 1 .93.47v.78z" transform="translate(-79.65 -53.34)"/><path d="m177.66 213.32-.3-.19-.63-.09-.39.15h-.15c-.31 0-1-.2-1-.2l-.29.23h-.3l-.2.73-.29 1.13-.08 1.14-.06.22-.49 1s-.11 1-.19 1.63l-.22.87-.47 1.4-.25 1.37-.6 2.34v-.15l-.09-.58-.1-.78v-.93l-.1-.93-.34-1.26v-.78l-.15-.83v-.88c0-.15-.24-1-.24-1s-.2-1.26-.24-1.41-.1-1.13-.1-1.13l-.21-.56v-.12l-.18-.35-.26-.19-.58.06-.93-.06-1.13.19-.18.89a4.31 4.31 0 0 0 -.15.83 6.94 6.94 0 0 0 0 1 10.16 10.16 0 0 1 .09 1.22v.37l-.06 1.16c-.06.35-.19 1-.23 1.16a4.83 4.83 0 0 0 0 1.17c0 .29-.24 3.22-.24 3.22a4.71 4.71 0 0 1 0 .88 2.82 2.82 0 0 0 0 .92 8.46 8.46 0 0 1 .09.88v.27c0 .26-.09.73-.13.9a11.77 11.77 0 0 0 -.19 1.17c0 .2.05 1.56.05 1.56l-.05.93-.15 1.07-.1.69h.54l.82-.14h.05l.88.05.12-.05h.46v-.18s.08-.84.13-1 .1-1.51.1-1.51.19-1.32.24-1.52a9.8 9.8 0 0 0 0-1.22l-.2-2.92.25-1.17-.05-1.62v-.69l.21 1.28.2 1.37.19.92.1 1 .29 1.56.08.15.27 1.73-.1.36 1.07.15.64-.29h.63l.19-1 .3-1.31.39-1.32.19-1.07.44-1.08.34-1.66.2-1.12.16-.83v-.12.57l-.1 1.11-.1 1.52v.08l-.3 4.2c0 .28-.24 2.12-.29 2.25s-.19 2-.19 2v1.56l.72-.14h1.93v-.05h.32v-1.37-1.51l.2-1.12v-2.93l-.11-.65v-.36l.33-.79s-.05-2.49-.05-2.64.15-1.31.15-1.56v-2.1l.29-2.78-.05-1.32z" transform="translate(-79.65 -53.34)"/><path d="m153.1 214.64c0-.15-.68-.69-.78-.83s-.63-.29-.63-.29l-1.48-.49-1.31-.03-1 .36-1.61.15s-.53.75-.69 1.07a.78.78 0 0 0 -.08.16c0 .19-.29.83-.34 1s-.18 1.26-.18 1.26l.05 1 .09.85v.15l-.33 1.21v2.15l.54.73.11.13.25.66.81.07.48.11h.06l.63.41.73.53.83.44.56.35.19.75-.09 1.59c-.15.21-.4.52-.4.52l.06 1.53v.12l-.36.49-.92.26-.59-.16s-.35-.34-.35-.53-.09-.83-.09-.83v-.88h-.43l-.79-.26-1.41.21v.06l-.25.68s.08.34.16.72a5.23 5.23 0 0 0 .12 1.42v.89l1 .83 1.17.53 2.15.05 1.12-.05.93-.58.11-.14a2.68 2.68 0 0 0 .9-1.06 1 1 0 0 0 .21-.27s0 0 0-.06.2-.78.29-1.12.05-1.36.18-1.43c.29-.15.43-2.21.43-2.21s-.29-.57-.48-1a4.25 4.25 0 0 0 -.08-1.3v-.33a5.62 5.62 0 0 1 -.83-.73c-.05-.15-.39-.49-.44-.64a14 14 0 0 0 -2-.88c-.14 0-.53-.34-.86-.3l-.33-.23a1.61 1.61 0 0 1 -.13-.45v-.78c0-.15.06-.93.06-.93l-.32-1v-.94l.1-.61.46-.46.39-.3a4.26 4.26 0 0 1 .52-.07h.13a1.6 1.6 0 0 1 .57.32l.34.08.07.15.08.65-.09 1.75.17.08.23.24.88-.07.35-.07h.36l.64-.15.44-.89.19-1.4a2.85 2.85 0 0 1 -.43-.88c0-.24-.15-.88-.15-1" transform="translate(-79.65 -53.34)"/><path d="m200.18 213.37-.63-.09h-2.66l-.37-.09-.39.05-1.66-.24-1.45.28-.4.5.27 1.71v.38l-.18 2.2-.24 1.42.11.46c-.09.75-.17 1.39-.21 1.49s-.39 2-.39 2l.43 1.75-.16 3.05-.27.71.05 1.42.1.16-.14 2.77h.18v.25h.16v.23h.15v.22l.79-.05h1.95c.24 0 1-.05 1.12-.05s2 .15 2 .15l.83-.3v-1.9l.1-.73h-.2v-.27h-.48l-.34-.21-.74-.2-.83.25-.64.16h-.5l-.29-.17c.05-.25.28-.91.28-.91s-.1-1.27-.15-1.41.1-2.88.1-2.88l.2-.59 1.31-.14h1.36l.55-.09.14-.33v-1.22a7.29 7.29 0 0 1 .15-.78l-.17-.25-.2-.29-.83-.19-.63.19h-1.62l-.07-.14v-1-1.08-.3-.13l.08-1.47v-1l.34-.29h2.06l.41.12.32-.09h1.07v-.78l.09-1 .15-1.08h-.19z" transform="translate(-79.65 -53.34)"/></g></g></svg>