<svg viewBox="0 0 280.42 89.1" xmlns="http://www.w3.org/2000/svg" xmlns:xlink="http://www.w3.org/1999/xlink"><clipPath id="a" transform="translate(-59.23 -97.85)"><path d="m0 0h399.3v264.38h-399.3z"/></clipPath><g clip-path="url(#a)"><path d="m265.65 9.3.83-9.3-6.7 9.3-9.39-.07 5.44 5.47-7.03 9.51 10.49-5.95 5.28 5.57.63-8.85 15.22-5.76z" fill="#e9061e"/><g stroke="#000" stroke-width=".84"><path d="m111.37 153.37.43-.14c-.31-.82-1.39-1.58-3.89-1.58h-.09c-.8 0-2.36 0-4 0-2 0-4 0-4.84.11h-.18c-1.61 0-3.29-1.81-4.85-5.63-.8-1.9-9.26-24.7-10.14-27.31a3.61 3.61 0 0 1 -.2-1.08 2.71 2.71 0 0 1 .52-1.54 5.67 5.67 0 0 1 3-1.66 8.57 8.57 0 0 1 2.38-.27 22.76 22.76 0 0 1 7.4 1.31 1.84 1.84 0 0 0 .82.14 8.48 8.48 0 0 0 2.19-.35c.5-.27.74-.78 1.16-1.54a60.22 60.22 0 0 0 3.34-8.58 7.61 7.61 0 0 0 .22-1.82 2.87 2.87 0 0 0 -.09-.81c-.56-1.65-2.76-3.87-6.73-3.87a13.25 13.25 0 0 0 -3.8.6c-3.73 1.12-7.63 5.13-10.55 9.66a.74.74 0 0 0 -.12.16c-1 1.55-1.45 1.86-1.54 1.81a.68.68 0 0 1 -.29-.1 2.85 2.85 0 0 1 -1-1.21c-.45-1.73-.82-3.47-1.38-5.13a2.89 2.89 0 0 0 -2.34-1.43 1.37 1.37 0 0 0 -.44.06 11.25 11.25 0 0 0 -3 2.72c-1.94 2.12-7.61 6-12.4 9.17a2.9 2.9 0 0 0 -1.28 2.58 3.76 3.76 0 0 0 .12 1c.2.43.49.53.92.81a49.37 49.37 0 0 0 6 2.58c.76.23 1.79 2 2.55 4.4l7.34 21.78c1.12 3.53 1.77 5.79 1.76 7.38 0 2-.87 3-3.33 4.84a20.27 20.27 0 0 0 -1.69 1.31 2.72 2.72 0 0 0 -1.1 1.78 1.18 1.18 0 0 0 .06.36 2.35 2.35 0 0 0 2.41 1.47h.07a7.23 7.23 0 0 0 2.07-.34h.08l.06-.05a18.94 18.94 0 0 1 1.81-1.13c3.7-2.1 13.16-6.41 29.25-7.18 2.28-.12 3.84-1.45 3.88-2.86a1.35 1.35 0 0 0 -.07-.49z" transform="translate(-59.23 -97.85)"/><path d="m217.58 151.86a1.89 1.89 0 0 0 -.9-1.59 8.38 8.38 0 0 0 -2.56-1c-3-.85-3.62-2-3.89-3.72-.11-1.61-.36-19.36-.36-21.86 0-6.22-1.57-11.62-4.45-14.89a14.58 14.58 0 0 0 -2.86-2.49c-2.64-2-4.85-2.58-9.15-2.57h-1.43c-6 .14-12.18 4.18-12.93 4.72a3.12 3.12 0 0 1 -.7.42s0-.06 0-.08c0-1.27.1-3 .1-3.92a2.84 2.84 0 0 0 -.57-1.34c-.33-.42-.59-.85-1.21-.91-.89 0-2.34.89-4.3 1.85a92 92 0 0 1 -9.69 3.58 4.82 4.82 0 0 0 -1.62 1.34 3.21 3.21 0 0 0 -.86 1.75c0 .71.52 1 1.45 2 2.67 2.43 3.38 3.54 3.37 4.62 0 12.16-.25 21.81-.6 25.38-.46 4.47-.73 5-4.64 6.36-1.31.39-2.76 1-2.84 2.36s1.6 2.26 3.7 2.26 6.77-.36 11.21-.36c2.51 0 7 .24 9.28.24 2.13 0 3.72-.8 3.82-2.14-.06-1.12-1.16-1.92-2.31-2.46a8.61 8.61 0 0 1 -3.33-1.59 2.47 2.47 0 0 1 -.63-1.77c-.08-1-.24-15.95-.26-24.14 0-1.31.08-3.29.15-3.6a4 4 0 0 0 0-.62c.74-3.83 4-4.88 6.9-5.32a8 8 0 0 1 1.21-.08 15.9 15.9 0 0 1 5.47 1.17 8 8 0 0 1 1.53 1c1.54 1.4 2.51 4.6 2.5 6.89 0 3.5 0 18.45-.24 22.39s-.67 4.64-3.33 5.75c-1.55.53-3.06 1.13-3.18 2.47a1.89 1.89 0 0 0 1.27 1.76 6.5 6.5 0 0 0 2.43.38c1.73 0 6.54-.36 9.52-.36 3.36 0 8.05.24 11 .24 2.09.02 3.82-.64 3.93-2.12z" transform="translate(-59.23 -97.85)"/><path d="m264.14 150.08-.3.33.28-.35a17.34 17.34 0 0 0 -6.33-3c-3.59-.5-17.42-.85-22.72-1.09a5.8 5.8 0 0 1 -3.85-3.13 1 1 0 0 1 0-.17 4.23 4.23 0 0 1 .3-1.22 3.55 3.55 0 0 1 1.1-1.52 7.57 7.57 0 0 1 1.84-.91h.07c1.25.12 4.12.24 4.88.24a26.14 26.14 0 0 0 14.84-4.65c4.82-3.71 7.06-8.84 7-15.43a21.2 21.2 0 0 0 -.73-5.29v-.06a.48.48 0 0 1 .09-.23.26.26 0 0 1 .21-.12c2.88.25 6.26.25 7 .25.5-.07.62-.31.95-.63.86-1 2.12-2.88 2.15-4.41a2 2 0 0 0 -1.58-1.89c-2.12-.36-10.82-.84-13.66-.85-.77-.11-1.85-.46-3.16-.82a37.4 37.4 0 0 0 -11.52-1.79 24.85 24.85 0 0 0 -14.85 4.42c-4.79 3.56-7.41 8.41-7.41 14a16.48 16.48 0 0 0 3.58 10.38l.52.63a25.29 25.29 0 0 0 2.95 3 10.09 10.09 0 0 0 1.81 1 4.14 4.14 0 0 1 .57.29h.06a.41.41 0 0 0 0 .11c0 .28-.08.82-1.36 1.85-1.55 1.23-6.86 4.55-7.87 5.67a2.85 2.85 0 0 0 -.86 1.66 11.65 11.65 0 0 0 4.89 9.89 20.71 20.71 0 0 0 4.38 2.11 15.05 15.05 0 0 1 -2 1.56c-.35.23-3 2-5.07 3.55l-.13.09a11.06 11.06 0 0 0 -1.76 1.48 3.62 3.62 0 0 0 -.79.94.76.76 0 0 0 0 .11 8.76 8.76 0 0 0 -1.34 4.95c0 4 2.5 8.37 6.58 11.21 4.54 3 9.24 4.18 15.44 4.18a34.37 34.37 0 0 0 18.55-5.37c4.87-3 12.61-9.64 12.62-19.66a15.7 15.7 0 0 0 -5.37-11.31zm-29.09-40.39.37.25a5.58 5.58 0 0 1 4.33-2.33c2.18 0 4.37 1.55 6.12 4.26 1.73 2.48 2.59 7.92 2.58 9.63 0 5.09-1.37 10.25-3.11 11.83a7 7 0 0 1 -3.42 1.69c-2.67 0-4.95-1.8-6.6-4.65a21.42 21.42 0 0 1 -2.59-10.44c0-4.4 1-7.79 2.67-10l-.35-.28zm23 59a10.39 10.39 0 0 1 -5.19 9.12 20.15 20.15 0 0 1 -9.17 2c-4 0-8.4-1-11.41-3.39a10.52 10.52 0 0 1 -4-7.86 9.36 9.36 0 0 1 3.08-7.14 17.79 17.79 0 0 1 1.49-1.15 12 12 0 0 1 4.36-.76c6.28 0 8.28 0 12.47.6 3.2.48 5 1.38 6.49 3a8.85 8.85 0 0 1 1.92 5.62z" transform="translate(-59.23 -97.85)"/><path d="m157.14 146.68a5 5 0 0 0 -.4-1.89v-.07a1 1 0 0 0 -.71-.39 1 1 0 0 0 -.53.18 28.58 28.58 0 0 1 -4 1.4 4 4 0 0 1 -4-4.38c0-1.29.48-15.64.48-20.36 0-5.48-1.23-8.61-2.74-10.63-1.81-2.68-5.37-6.7-12.89-6.68-1.87 0-7.73 1.58-12.29 4.52-7.49 4.83-10.32 8.18-10.33 12a2.31 2.31 0 0 0 2 2.14 8.78 8.78 0 0 0 2-.66c1.46-.59 3.5-1.48 5.25-2.3a20.49 20.49 0 0 0 3.67-2 2 2 0 0 0 .61-1.41c0-.29 0-.56 0-.83a2 2 0 0 1 .91-1.37 12.55 12.55 0 0 1 6.19-2.19 4.13 4.13 0 0 1 2.27.6 8.31 8.31 0 0 1 2.37 5.14v1.37c0 2-.11 5.32-.21 7-1.6.53-4.35 1.43-8.15 2.6-7.14 2.2-11.19 4.72-13 6a7.48 7.48 0 0 0 -1 .82l-.1.09-.17.16a5 5 0 0 0 -.46.55 11.58 11.58 0 0 0 -2.25 6.41c0 6.95 4.9 12.58 9.73 12.62a19.09 19.09 0 0 0 5.45-1 65.34 65.34 0 0 0 9.63-5.11c.12 0 .38.17.38.24 1.86 4.91 5.82 6.12 9.36 6.12h.11a15 15 0 0 0 9-3.33c2.29-1.89 3.78-3.9 3.82-5.36zm-24.08-14.1.11-.05.5-.16a1.16 1.16 0 0 1 .34-.05.57.57 0 0 1 .27.1 1.75 1.75 0 0 1 .16.27c0 .14 0 .38.07.64 0 2.53-.11 5.44-.25 7.6a7.22 7.22 0 0 1 -3.91 5 7.31 7.31 0 0 1 -2.87.74 1.91 1.91 0 0 1 -.74-.21l-.43-.22a9.65 9.65 0 0 1 -.94-.64 7.19 7.19 0 0 1 -2.72-5.86c.11-1.64.35-2.26 1.19-3 1-.92 3.64-2.08 6-3 1.22-.46 2.35-.85 3.17-1.12z" transform="translate(-59.23 -97.85)"/><path d="m314.84 130c-.07-1.94-.93-3.52-2.46-3.56a1.39 1.39 0 0 0 -1.32.94 2.82 2.82 0 0 0 -.19 1.06v.06c-.58 5.4-4.29 8.5-7.95 10.3a25 25 0 0 1 -7.18 2.21 13 13 0 0 1 -1.5.09c-4.85 0-8.56-2.81-11.08-5.67a26.74 26.74 0 0 1 -3.22-4.6l5.83 2.57-.23-7.36 6.43 4.16-.51-8 6.78 3.57-1-7.85 6.61 2.05-.08-.69s0-.06 0-.16c-.08-8.86-2.17-13.85-9.43-15.72h-.2c-.63-.17-1.29-.31-2-.43a19.05 19.05 0 0 0 -3.63-.35 18.86 18.86 0 0 0 -10.51 3.29 19.53 19.53 0 0 0 -4.7 4.64 26.31 26.31 0 0 0 -5.1 9.48v.07a22.3 22.3 0 0 0 -.82 3.61 34.81 34.81 0 0 0 -.19 3.71v1.21a23.39 23.39 0 0 0 2.63 9.92c6.54 12.74 16.75 15.68 22.13 15.7h.22c5.57 0 9.85-1.47 16-6.93s6.69-13.81 6.7-16.69c-.02-.28-.03-.51-.03-.63zm-38-5.68c-.08-.45-.2-.89-.2-.89a20.28 20.28 0 0 1 -.35-3.85c0-2.85.6-6.55 3.13-8.75a6.65 6.65 0 0 1 4.38-1.52 8.72 8.72 0 0 1 .9 0 6.18 6.18 0 0 1 3.56 1.64c1 1.07 1.82 2.13 1.81 3.29s-1.08 2.53-2.3 3.4-9.47 6.19-9.48 6.2a2.84 2.84 0 0 1 -.45.3 1.74 1.74 0 0 1 -.75.25c-.19 0-.21 0-.29-.11z" transform="translate(-59.23 -97.85)"/></g></g></svg>