<svg viewBox="0 0 198.47 107.71" xmlns="http://www.w3.org/2000/svg"><g fill="#a4a4a5"><path d="m13.52 1.68a72.67 72.67 0 0 1 -3.72 8v27.71h-4.72v-20.39a33.14 33.14 0 0 1 -2.52 3 33 33 0 0 0 -2.56-4.76 42 42 0 0 0 9.12-15zm17.31 30.91c2.37 0 2.76-1 3.13-5.47a17 17 0 0 0 4.31 1.88c-.64 5.91-2 7.91-7.07 7.91h-8.84c-5.68 0-7.32-1.56-7.32-7v-10.99l-3 1.16-1.84-4.2 4.8-1.88v-9.44h4.72v7.56l3.88-1.48v-10.36h4.44v8.6l4-1.52.59-.48.88-.6 3.24 1.24-.16.72c0 7-.12 11.76-.36 13.52-.2 2-.92 3-2.23 3.6a11.38 11.38 0 0 1 -4.52.56 12.68 12.68 0 0 0 -1-4.36c.88 0 2 .08 2.44.08s.83-.16 1-.92a78.19 78.19 0 0 0 .28-8.6l-4.16 1.64v14.24h-4.4v-12.48l-3.88 1.48v12.83c0 2.4.4 2.76 3 2.76z"/><path d="m51.2 3.48a33.29 33.29 0 0 0 -1 3.52c-.56 2.64-1.92 10.56-1.92 14.52a19.12 19.12 0 0 0 .16 2.56c.56-1.4 1.2-2.72 1.76-4l2.52 1.92a95.42 95.42 0 0 0 -2.84 9.71 11.64 11.64 0 0 0 -.24 1.84c0 .44 0 1.08.08 1.64l-4.56.32a50.48 50.48 0 0 1 -1.56-12.95 109.83 109.83 0 0 1 1.64-15.68 29.6 29.6 0 0 0 .4-3.88zm9.28 19.52a13 13 0 0 0 -.48 3.36c0 1.76 1.52 2.8 5.52 2.8a46.12 46.12 0 0 0 9.91-1l.12 5.35a54.86 54.86 0 0 1 -10.23.8c-6.84 0-10.08-2.48-10.08-6.52a24.41 24.41 0 0 1 .68-5.15zm13.83-17v5.2a109.5 109.5 0 0 1 -17 0v-5.12a80.73 80.73 0 0 0 17 0z"/><path d="m111 16.44c2.63 3.36 3.84 6.16 3.84 9.52 0 5.95-5.36 10.27-14 10.27-6.24 0-10.64-2.72-10.64-9.31 0-1 .12-2.36.28-4a44.42 44.42 0 0 1 -7.6-1.32l.28-4.8a33.72 33.72 0 0 0 7.84 1.56c.24-1.76.44-3.6.68-5.4a49.51 49.51 0 0 1 -7.88-1.4l.2-4.56a36.72 36.72 0 0 0 8.12 1.48c.16-1.2.24-2.28.32-3.16a25 25 0 0 0 .08-3.52l5.56.32c-.32 1.44-.52 2.48-.68 3.52-.12.68-.24 1.72-.44 3a58.14 58.14 0 0 0 7.28-.48l-.16 4.72a71 71 0 0 1 -7.72.36c-.24 1.76-.48 3.64-.68 5.4h.32a78.58 78.58 0 0 0 8-.48l-.12 4.72c-2.24.2-4.56.36-7 .36h-1.6c-.08 1.16-.16 2.16-.16 2.88 0 3.23 2 5 5.92 5 5.52 0 8.56-2.52 8.56-5.79 0-2.68-1.52-5.24-4.08-7.68z"/><path d="m157 19c-4.83 11.88-16.31 16.59-30 18.47a18.76 18.76 0 0 0 -2-4.36 51.89 51.89 0 0 0 15.6-3.8 43.4 43.4 0 0 0 -5.88-4.19 52 52 0 0 1 -5.72 2.4 13.63 13.63 0 0 0 -3-3.64c7.68-2.32 13.12-5.76 16.32-9.24a53 53 0 0 1 -18.56 7.16 16.81 16.81 0 0 0 -2.2-4.08 53.61 53.61 0 0 0 13.48-4 45.79 45.79 0 0 0 -5.36-3.44 44.33 44.33 0 0 1 -4.6 2.08 16.67 16.67 0 0 0 -3.2-3.52c7.08-2.24 12-5.6 14.76-8.88l5.16 1.08q-.9 1-1.92 2h8l.8-.2 3 1.76a27.23 27.23 0 0 1 -8.23 9.16l4.8 1.12a30.77 30.77 0 0 1 -2.48 2.64h7.23l.83-.2zm-21.84-12c-.48.36-1 .68-1.48 1a32.94 32.94 0 0 1 5.52 3.48 24.91 24.91 0 0 0 5.52-4.48zm5.76 14.52c-.68.48-1.36.92-2.12 1.36a34.8 34.8 0 0 1 6 4.08 19.34 19.34 0 0 0 5.52-5.44z"/><path d="m195.75 11.72c-.84 5.92-2.2 10.88-4.36 14.92a18.83 18.83 0 0 0 7.08 6.63 18.37 18.37 0 0 0 -3.28 4.12 21.68 21.68 0 0 1 -6.71-6.39 26 26 0 0 1 -8.48 6.59 18.06 18.06 0 0 0 -1.52-2.72l-1.8 1.84a37.91 37.91 0 0 0 -4.16-3c-2.36 1.76-5.56 2.92-9.84 3.8a11 11 0 0 0 -1.88-4 21.32 21.32 0 0 0 7.6-2.12 23.07 23.07 0 0 0 -2.24-1.08l-.44.76-4.16-1.28c.88-1.39 1.88-3.19 2.88-5.11h-3.8v-3.8h5.8c.48-1 1-2 1.36-2.84l.88.2v-3.84a28.83 28.83 0 0 1 -6 4.64 14.39 14.39 0 0 0 -2.4-3.44 21.25 21.25 0 0 0 7-5h-6.24v-3.76h3a21.31 21.31 0 0 0 -2.08-4.64l3.56-1.44a17 17 0 0 1 2.4 5l-2.56 1.12h3.36v-6.76h4.36v6.72h3.16l-2.64-1.16a38.64 38.64 0 0 0 2.68-5.08l4 1.6c-1.24 1.72-2.48 3.4-3.44 4.64h3.8v3.76h-6.56c1.92 1.08 4.76 2.76 5.64 3.36l-2.52 3.28c-.88-.84-2.56-2.24-4.12-3.48v4.84h-2.56l1.72.36-1 1.92h9.52a27.73 27.73 0 0 0 -3.24-2.76c3.4-4.08 5.32-10.88 6.28-18l4.8.64c-.32 2.24-.76 4.44-1.28 6.56h10.68v4.4zm-27.59 15.11c1.2.49 2.36 1 3.52 1.53a12.16 12.16 0 0 0 1.52-3.64h-3.88zm9.52-2.11a16.11 16.11 0 0 1 -2.12 5.67 37.25 37.25 0 0 1 3.32 2.12 19.53 19.53 0 0 0 7-6 42.35 42.35 0 0 1 -2.72-7.88 25.37 25.37 0 0 1 -1.84 2.88c-.16-.16-.32-.36-.56-.6v3.84zm8.56-13a50.47 50.47 0 0 0 2.44 9.4 42.82 42.82 0 0 0 2.15-9.4z"/><path d="m35.63 90.52v16.91h-5v-2.28h-22.11v2.32h-4.84v-17h4.84v10h8.36v-12.07h-11.6v-14.52h4.72v9.88h6.88v-13.24h4.88v13.24h7.24v-9.88h5v14.52h-12.24v12.07h8.92v-10z"/><path d="m77.83 74.76v4.52h-29v5.56c0 6.44-.6 16.31-4.2 22.55a22.09 22.09 0 0 0 -4.12-2.68c3.29-5.71 3.57-14.11 3.57-19.87v-10.08h14.24v-4.6h5v4.6zm-13 8.88h12.48v4.2h-12.47v4.36h10.16v15.23h-4.92v-1.43h-14.2v1.48h-4.64v-15.28h8.76v-12.32h4.84zm5.25 12.76h-14.2v5.43h14.2z"/><path d="m118.08 86.68a53.28 53.28 0 0 1 -6.4 10.44l-4.08-2.36a50.56 50.56 0 0 0 3.12-4.92h-8.44v12.43c0 2.52-.56 3.72-2.48 4.4s-4.44.72-7.88.72a16.2 16.2 0 0 0 -1.72-4.56c2.36.08 5.32.08 6.12.08s1-.2 1-.8v-12.27h-15.8v-4.52h18.2c-3-1.24-6.2-2.52-8.76-3.48l2.36-3.6c1.8.64 4 1.4 6.28 2.24a41.64 41.64 0 0 0 5.08-3.76h-19.32v-4.36h23.92l1.08-.28 3.4 2.68a66 66 0 0 1 -9.24 7.6c1.32.52 2.52 1 3.44 1.4l-1 1.56h6.32l.88-.32z"/><path d="m142 102.07a41.33 41.33 0 0 0 4.56.24c2.16 0 8.76 0 11.44-.12a17.14 17.14 0 0 0 -1.68 4.84h-10c-7.4 0-12.88-1.2-16.48-6.91a20.45 20.45 0 0 1 -5.36 7.59 29.13 29.13 0 0 0 -3.92-3.24c4.32-3.2 6.28-8.71 7-15.55l5 .48c-.24 1.8-.52 3.48-.88 5.08a10.78 10.78 0 0 0 5.44 6.27v-14.11h-8.52v-4.52h22v4.52h-8.6v5h11v4.48h-11zm-14.84-17.91h-4.68v-10h14.52v-4h5v4h14.63v10h-4.91v-5.48h-24.6z"/><path d="m173.32 100.71a3.66 3.66 0 1 1 7.32 0 3.66 3.66 0 1 1 -7.32 0zm.88-21.55-.2-5.56h5.92l-.2 5.56-.84 14.76h-3.88z"/><path d="m188.12 100.71a3.66 3.66 0 1 1 7.32 0 3.66 3.66 0 1 1 -7.32 0zm.88-21.55-.2-5.56h5.92l-.2 5.56-.84 14.76h-3.84z"/></g></svg>