<svg viewBox="0 0 140.67 33.36" xmlns="http://www.w3.org/2000/svg"><path d="m28.6 18.17v15.12h-5.32v-2h-18.1v2h-5.18v-15.12h5.18v8.19h6.16v-9.87h-9.94v-13.16h5.11v8.22h4.83v-11.06h5.29v11.06h5.18v-8.26h5.39v13.2h-10.57v9.87h6.65v-8.19z"/><path d="m67.2 3.88v4.84h-25v3.88c0 5.85-.6 15-3.85 20.58a24 24 0 0 0 -4.35-2.87c2.94-5 3.15-12.56 3.15-17.71v-8.72h12.31v-3.88h5.32v3.88zm-11 8h10.5v4.45h-10.49v3.17h8.65v13.75h-5.22v-1.19h-11v1.19h-5v-13.75h7.36v-10.4h5.18zm3.43 12h-11v3.68h11z"/><path d="m104 3.88v4.84h-25v3.88c0 5.85-.6 15-3.85 20.58a24 24 0 0 0 -4.41-2.87c2.94-5 3.15-12.56 3.15-17.71v-8.72h12.32v-3.88h5.32v3.88zm-11 8h10.5v4.45h-10.5v3.17h8.65v13.75h-5.26v-1.19h-11v1.19h-5v-13.75h7.31v-10.4h5.3zm3.43 12h-11v3.68h11z"/><path d="m134 8.86v1.75h6.3v18c0 1.82-.21 3-1.3 3.75a6.5 6.5 0 0 1 -3.92.84 15.1 15.1 0 0 0 -1.08-4.1v3.89h-4.52v-7h-1.82v7.21h-4.34v-22.59h6.16v-1.75h-6.58v-2.07l-2.73 3.4a28.32 28.32 0 0 0 -4.23-5.53 32.24 32.24 0 0 1 -2.33 3.34h4.52v2.69h3.71v3.82h-3.71v1.71h4.37v4.06h-13.72v-4.11h4.76v-1.71h-3.71v-3.82h.07a17.53 17.53 0 0 0 -2.66-2.64 21.07 21.07 0 0 0 5.76-8h4.23a40.07 40.07 0 0 1 5.6 5.7v-1.18h6.58v-4.52h4.59v4.52h2.59a24.43 24.43 0 0 0 -2.49-2.31l2.9-2.21a20.12 20.12 0 0 1 3.46 3.12l-1.78 1.4h2v4.34zm-24.4 12.53h12.57v11.27h-4.59v-1.12h-3.6v1.82h-4.38zm4-13.37a32.45 32.45 0 0 1 -2.34 2.62h2.34zm.39 17.43v2h3.6v-2zm13.68-10.61v1.51h1.82v-1.51zm1.82 7.07v-1.54h-1.82v1.54zm4.51-7.07v1.51h1.89v-1.51zm0 7.07h1.89v-1.54h-1.89zm0 6.93h1.5s.39-.11.39-.42v-2.48h-1.89z"/></svg>