<svg viewBox="0 0 583.91 255.46" xmlns="http://www.w3.org/2000/svg"><g fill="#46b3a9"><path d="m416.33 98.47-16.13-3.79-1.2 5.15 5.49 1.29-3.63 15.44 5.15 1.21 3.62-15.44 5.49 1.28z"/><path d="m495.24 116.98-16.13-3.79-1.21 5.15 5.5 1.29-3.63 15.43 5.15 1.21 3.62-15.44 5.49 1.29z"/><path d="m475.85 117.86 1.2-5.15-8.57-2.01-5.15-1.21-4.83 20.58.35.08v.01l13.38 3.13 1.21-5.14-8.58-2.01.6-2.58 6.2 1.46 1.21-5.15-6.2-1.45.6-2.57z"/><path d="m408.32 107.28h21.14v5.28h-21.14z" transform="matrix(.22835087 -.9735789 .9735789 .22835087 216.24 492.66)"/><path d="m460.93 108.92-6.52-1.52-5.62 3.93 1.16-4.98-5.14-1.2-4.83 20.58 5.15 1.21 1.33-5.69 3.13 6.73 6.51 1.53-6.04-12.99z"/><path d="m431.07 118.21-.69-.16a2.65 2.65 0 0 1 -2-3.18l1.21-5.14a2.63 2.63 0 0 1 3.17-2l.69.16a2.65 2.65 0 0 1 2 3.18l5.14 1.2a7.94 7.94 0 0 0 -5.9-9.53l-.69-.16a7.93 7.93 0 0 0 -9.53 5.91l-1.21 5.14a7.93 7.93 0 0 0 5.91 9.53l.69.16a7.94 7.94 0 0 0 9.53-5.91l-5.15-1.2a2.65 2.65 0 0 1 -3.17 2z"/><path d="m508.4 195.88-3.89.46-.56-4.65 3.89-.46zm-1.11-9.3-3.89.47-.56-4.65 3.89-.46zm-1.11-9.29-3.89.46-.55-4.65 3.89-.46zm-1.11-9.3-3.89.46-.55-4.64 3.89-.47zm-1.07-9.29-3.89.46-.55-4.65 3.89-.46z"/><path d="m414.37 180.56-.63-5.25-16.44 1.96.62 5.25 5.6-.67 1.88 15.74 5.24-.62-1.87-15.75z"/><path d="m494.85 170.96-.63-5.25-16.44 1.96.62 5.25 5.6-.67 1.88 15.75 5.25-.63-1.88-15.74z"/><path d="m478.18 188.91-.63-5.25-8.74 1.05-.32-2.63 6.33-.75-.63-5.25-6.32.76-.31-2.63 8.74-1.04-.62-5.25-10.91 1.3-3.09.37 2.51 20.99 5.24-.62z"/><path d="m417.43 174.63h5.29v21.14h-5.29z" transform="matrix(.99296551 -.11840397 .11840397 .99296551 -18.97 51.04)"/><path d="m461.74 190.87-10.13-10.14 7.62-10.85-6.65.8-3.94 5.61-.6-5.07-5.25.62 2.5 21 5.25-.63-.69-5.8 5.24 5.26z"/><path d="m434.34 188.82-.7.08a2.65 2.65 0 0 1 -2.94-2.31l-.62-5.25a2.63 2.63 0 0 1 2.31-2.93l.7-.09a2.66 2.66 0 0 1 2.94 2.31l5.24-.62a7.94 7.94 0 0 0 -8.81-6.94l-.7.09a7.93 7.93 0 0 0 -6.93 8.81l.62 5.25a7.94 7.94 0 0 0 8.82 6.93l.7-.08a7.94 7.94 0 0 0 6.93-8.82l-5.25.63a2.64 2.64 0 0 1 -2.31 2.94z"/><path d="m524.52 103.08-122.6-28.76a8.58 8.58 0 0 0 -2.9-.16 8.45 8.45 0 0 0 -7.2 6.42l-10.22 43.59a8.41 8.41 0 0 0 6.26 10.1l48.06 11.27 16.25-1.94-63-14.78a2.79 2.79 0 0 1 -1.73-1.26 2.74 2.74 0 0 1 -.35-2.11l10.22-43.59a2.82 2.82 0 0 1 3.37-2.09l122.6 28.76a2.8 2.8 0 0 1 2.09 3.37l-5.69 24.1a15.11 15.11 0 0 1 5.36 1.66l5.74-24.46a8.41 8.41 0 0 0 -6.26-10.12z"/><path d="m384.6 166.88 5.3 44.46a8.4 8.4 0 0 0 9.33 7.34l125-14.91a8.41 8.41 0 0 0 7.34-9.33l-5.25-44.44a8.63 8.63 0 0 0 -.36-1.6 9.07 9.07 0 0 0 -.48-1.11c-.05-.1-.09-.21-.14-.31a8.65 8.65 0 0 0 -1.93-2.36 8.37 8.37 0 0 0 -6.42-2l-45.7 5.45-16.29 1.93-63.1 7.52a8.4 8.4 0 0 0 -7.3 9.36zm133-18.68a2.79 2.79 0 0 1 3.11 2.44l5.3 44.46a2.79 2.79 0 0 1 -2.45 3.11l-125 14.92a2.8 2.8 0 0 1 -3.11-2.45l-5.31-44.46a2.81 2.81 0 0 1 2.45-3.11z"/><path d="m503.08 109.03h4.68v3.92h-4.68z" transform="matrix(.2288606 -.97345921 .97345921 .2288606 281.67 577.58)"/><path d="m500.94 118.15h4.68v3.92h-4.68z" transform="matrix(.22818095 -.97361874 .97361874 .22818095 271.54 582.72)"/><path d="m498.8 127.26h4.68v3.92h-4.68z" transform="matrix(.2290305 -.97341925 .97341925 .2290305 260.62 587.46)"/><path d="m501.15 137.76.3-1.26-3.82-.89-.62 2.65z"/></g><path d="m133.24 114.12c.7 0 2.45-.13 3.21-.2v5.08c-1-.07-2.15-.14-3.11-.14h-8.15a17.38 17.38 0 0 1 -8.45 13.44l-5.11-3.44c4.88-2.21 7.42-5.61 8.22-10h-8.65c-1 0-2.28.07-3.17.14v-5.12c1 .1 2.08.2 3.13.2h8.92v-3.93c-3.07.23-6.31.36-8.39.4l-1.25-4.55a79.76 79.76 0 0 0 11.35-.53 32.11 32.11 0 0 0 8.22-2l3.27 4.39c-1.36.33-2.35.6-2.94.73a48.74 48.74 0 0 1 -5 1v4.59z" fill="#2b2d3b"/><path d="m167.3 108.87a26.08 26.08 0 0 0 3.63-.26v5.44c-1.35-.13-2.87-.13-3.63-.13h-4.09c-.63 8.42-3.9 14.49-10 18.32l-5.38-3.6a13.3 13.3 0 0 0 3.36-2c3.57-2.77 5.91-6.67 6.47-12.74h-6.14a29.18 29.18 0 0 1 -5.25 6.87l-5-3a25.65 25.65 0 0 0 5.64-6.63 23.4 23.4 0 0 0 1.95-4.46 15.78 15.78 0 0 0 .79-3.8l6.17 1.22c-.43.9-.92 2.18-1.22 2.91-.2.56-.46 1.19-.72 1.88z" fill="#2b2d3b"/><path d="m187.46 119.56-4.88 1.82a60 60 0 0 0 -3-7.69l4.82-1.72c.88 1.85 2.4 5.68 3.06 7.59zm16.87-6.66c-.46 1.28-.7 2.08-.93 2.87a27 27 0 0 1 -4.42 9.37 26.16 26.16 0 0 1 -11.19 8.42l-4.19-4.29a22.25 22.25 0 0 0 11.06-6.87 22 22 0 0 0 4-11.32zm-9.54 4.58-4.79 1.65a60.37 60.37 0 0 0 -2.74-7.39l4.76-1.55c.66 1.45 2.27 5.74 2.77 7.29z" fill="#2b2d3b"/><path d="m236.4 123.06a104.85 104.85 0 0 0 -11.35-4.72v8.48c0 .9.2 3.5.36 5h-6.27a37.25 37.25 0 0 0 .4-5v-18.82a22.53 22.53 0 0 0 -.4-4.29h6.24a39.53 39.53 0 0 0 -.33 4.29v4.52a109.71 109.71 0 0 1 13.63 5z" fill="#2b2d3b"/><path d="m255.47 124.85a31.3 31.3 0 0 1 2.88 5.41l-3.67 1.74a27.55 27.55 0 0 0 -2.6-5.52 22.48 22.48 0 0 1 -3.83 6.87 30.77 30.77 0 0 0 -3.57-2.31 14.79 14.79 0 0 0 3.5-6.2h-1.55v-21.71h10.53v21.72zm-.29 0h-6.87l4 1-.1.3zm-4.52-15.58h2.34v-2.38h-2.31zm0 5.9h2.34v-2.4h-2.31zm0 5.91h2.34v-2.44h-2.31zm18.34-5.51v.86h6v8.28h1.32v3.29h-1.32v1.09c0 1.88-.33 2.91-1.55 3.53s-2.81.66-4.85.66a16.64 16.64 0 0 0 -1.19-3.83c1 .07 2.38.07 2.74.07s.53-.13.53-.49v-1h-7.33v5.32h-4.22v-5.35h-1.56v-3.3h1.56v-8.28h5.77v-.86h-7.16v-3.3h3.79v-.79h-2.64v-3.14h2.64v-.76h-3.36v-3.3h3.36v-2.37h4.13v2.37h2.54v-2.37h4.23v2.37h3.3v3.3h-3.3v.76h2.83v3.14h-2.83v.79h3.89v3.3zm-5.68 4.16v1h1.55v-1zm0 5h1.55v-1.12h-1.55zm2.31-16.37h2.54v-.76h-2.54zm0 3.93h2.54v-.79h-2.54zm3.37 7.46v1h1.65v-1zm1.65 5v-1.12h-1.65v1.12z" fill="#2b2d3b"/><path d="m298.51 103.66c0 6.5.95 18.41 12.74 25.28a24.37 24.37 0 0 0 -3.86 4.22c-6.27-3.76-9.77-9.57-11.65-15.31-2.51 6.9-6.41 12.11-11.72 15.38a34.39 34.39 0 0 0 -4.39-3.93c6.67-3.3 10.53-9.57 12.21-18l2.38.43c-.2-1.13-.33-2.22-.43-3.24h-7.3v-4.88z" fill="#2b2d3b"/><path d="m323.49 104.58a30.9 30.9 0 0 0 -.89 3.33 91.4 91.4 0 0 0 -1.52 12.35 6.78 6.78 0 0 0 0 .76c.4-1 .79-1.59 1.22-2.55l2.41 1.92c-1 2.94-2 6.24-2.37 8.12a9.83 9.83 0 0 0 -.2 1.55v1.48l-4.46.3a37.67 37.67 0 0 1 -1.35-10.46 100.39 100.39 0 0 1 1.29-13.57c.13-1 .33-2.47.36-3.69zm19.44 25.15a36.06 36.06 0 0 0 -3.5-3c-.43 3.07-2.44 5-6.73 5-4.59 0-7.63-2-7.63-5.67s3-6 7.56-6c.56 0 1.12 0 1.65.06-.1-1.71-.2-3.72-.23-5.77-.63 0-1.25 0-1.85 0-1.95 0-3.89-.06-5.84-.2v-4.72a56.09 56.09 0 0 0 5.84.3h1.85c0-1.52 0-2.74-.07-3.34a15.92 15.92 0 0 0 -.26-2.24h5.64a20.26 20.26 0 0 0 -.2 2.18c0 .63-.06 1.71-.1 3.07 1.65-.17 3.27-.43 4.76-.73v4.92c-1.46.2-3.07.4-4.79.53.07 3 .23 5.31.33 7.23a20.55 20.55 0 0 1 6.27 4.22zm-8.48-5.54a8.31 8.31 0 0 0 -2.22-.3c-1.51 0-2.54.59-2.54 1.61s1.16 1.56 2.54 1.56c1.59 0 2.22-.86 2.22-2.64z" fill="#2b2d3b"/><path d="m150.83 178.29a13.31 13.31 0 0 0 -.49 3.1c0 1.85 1.68 3.23 6.1 3.23a49.7 49.7 0 0 0 11.65-1.28v5.61a53.82 53.82 0 0 1 -11.45 1.05c-7.95 0-11.65-2.71-11.65-7.4a23.07 23.07 0 0 1 .63-4.81zm-3.56-14.23a85.23 85.23 0 0 0 9 .4c3.27 0 7.26-.2 9.84-.46v5.31c-2.31.2-6.64.4-9.81.4-3.49 0-6.37-.17-9.07-.37z" fill="#2b2d3b"/><path d="m201.29 169.34a126.12 126.12 0 0 1 -12.84 1.36c-.36 1.58-.76 3.17-1.15 4.55a17.43 17.43 0 0 1 7.52-1.62c5.32 0 9.11 2.91 9.11 7.3 0 7.62-7.16 10.36-18.08 9.17l-1.42-5.1c7 1.22 14.12.59 14.12-3.93 0-1.65-1.52-3.17-4.35-3.17-3.7 0-6.87 1.39-8.68 3.8a8.59 8.59 0 0 0 -.86 1.38l-4.66-1.66a50.87 50.87 0 0 0 3.66-10.62c-1.94-.07-3.76-.14-5.28-.3v-4.88a51.8 51.8 0 0 0 6.21.66c.06-.33.1-.63.13-.9a18.15 18.15 0 0 0 .17-3.63l5.57.23c-.39 1.32-.59 2.48-.85 3.67l-.1.49a78 78 0 0 0 11.71-1.52z" fill="#2b2d3b"/><path d="m220.23 175.32a16.51 16.51 0 0 1 9-2.64c6.14 0 9.48 3.83 9.48 7.82 0 6.07-4.46 11-18.85 9.74l-1.55-5.19c9.54 1.42 14.82-.66 14.82-4.65 0-1.85-1.78-3.23-4.39-3.23a11 11 0 0 0 -8.45 3.56 8.28 8.28 0 0 0 -1.35 2.05l-4.53-1.13a124.21 124.21 0 0 0 1.62-13.89l5.32.73a57.23 57.23 0 0 0 -1.12 6.83zm.43-13.73a101.83 101.83 0 0 0 13.34 2.54l-1.19 4.87c-3.44-.46-10.83-2-13.4-2.67z" fill="#2b2d3b"/><path d="m259.93 162.31c-.23 1-.49 2.22-.69 3.14s-.37 1.78-.56 2.64c.86-.07 1.61-.1 2.21-.1 3.76 0 6.24 1.78 6.24 6.67 0 3.83-.43 9.07-1.82 12-1.12 2.34-3 3.17-5.71 3.17a19.77 19.77 0 0 1 -4-.46l-.86-5.22a20.73 20.73 0 0 0 4 .69 2.22 2.22 0 0 0 2.21-1.25c.82-1.62 1.22-5.35 1.22-8.38 0-2.38-1-2.68-3-2.68-.36 0-.92 0-1.52.07-1.32 5.08-3.76 12.94-6.53 17.42l-5.18-2.07c3.1-4.2 5.21-10.3 6.43-14.76l-2 .3c-1.06.13-2.94.4-4 .59l-.43-5.31a37 37 0 0 0 3.8 0c1 0 2.31-.13 3.76-.23a33.38 33.38 0 0 0 .63-6.83zm11.29 2.81a60.78 60.78 0 0 1 5.61 12.44l-5.05 2.35c-.79-3.8-3-9.77-5.35-12.81z" fill="#2b2d3b"/><path d="m289.53 175.32a16.51 16.51 0 0 1 9-2.64c6.14 0 9.48 3.83 9.48 7.82 0 6.07-4.46 11-18.85 9.74l-1.55-5.19c9.54 1.42 14.82-.66 14.82-4.65 0-1.85-1.78-3.23-4.39-3.23a10.93 10.93 0 0 0 -8.45 3.56 8.28 8.28 0 0 0 -1.35 2.05l-4.53-1.13a124.21 124.21 0 0 0 1.62-13.89l5.32.73a57.23 57.23 0 0 0 -1.12 6.83zm.43-13.73a101.83 101.83 0 0 0 13.33 2.54l-1.18 4.87c-3.44-.46-10.83-2-13.4-2.67z" fill="#2b2d3b"/><path d="m55.53 121.87v16.6 16.84.22 16.6 16.83.23 16.6 16.83.23 13.57h3.04 10.54 6.29 16.83 10.53 6.3 16.83 10.53 6.3 16.82 10.54 6.3 16.83 10.53 6.29 16.83 10.54 6.29 16.83 10.54 6.29 16.83 10.54 6.29 16.83 10.54 6.29 16.83 10.54 6.29 16.83 10.54 6.29 16.83 10.54 6.29 16.83 10.53 6.3 16.83 10.53 6.3 16.82 10.54 6.3 16.82 1.42v-1.41-7.72-9.11-16.83-7.72-9.11-16.83-7.72-9.11-16.83-7.72-9.11-16.83-7.71-9.12-16.83-7.71-4.26h-4.26-.6-16.83-16.23-.6-16.83-16.23-.6-16.83-16.23-.6-16.83-16.23-.6-16.83-16.23-.6-16.83-16.23-.6-16.83-16.22-.61-16.83-16.22-.61-16.83-16.22-.61-16.82-16.23-.6-16.83-16.23-.6-16.83-16.23-.6-16.83-16.23-.6-16.83-3.08l-.11.13 7.06 7.81-8.89 5.63 4.58 9.49-10.12 2.91 1.73 10.39-10.53-.07-1.28 10.45-10.08-3.03-4.16 9.68-8.83-5.74-6.37 7.67v11.59z" fill="none"/><path d="m577.14 239.56-15.9 15.9h16.83l5.84-5.83v-3.3-13.53z" fill="#66b7ae"/><path d="m583.91 255.46v-5.83l-5.84 5.83z" fill="#aed5d0"/><path d="m577.14 205.91-12.27 12.27v9.11 7.72l3.85-3.86 15.19-15.18v-3.3-13.53z" fill="#66b7ae"/><path d="m546.63 236.42-3.15 3.14-15.9 15.9h16.83l7.48-7.48 11.56-11.56z" fill="#66b7ae"/><path d="m568.72 231.15-3.85 3.86v1.41h-1.42l-11.56 11.56-7.48 7.48h14.96 1.87l15.9-15.9 6.77-6.76v-16.83z" fill="#aed5d0"/><path d="m577.14 172.25-12.27 12.27v9.11 7.72l3.85-3.86 15.19-15.18v-3.3-13.53z" fill="#66b7ae"/><path d="m568.72 197.49-3.85 3.86v16.83l12.27-12.27 6.77-6.77v-16.83z" fill="#aed5d0"/><path d="m512.97 236.42-3.15 3.14-15.89 15.9h16.82l7.48-7.48 11.56-11.56z" fill="#66b7ae"/><path d="m540.33 236.42h-10.54l-11.56 11.56-7.48 7.48h14.96 1.87l15.9-15.9 3.15-3.14z" fill="#aed5d0"/><path d="m577.14 138.59-12.27 12.27v9.11 7.72l3.85-3.86 15.19-15.18v-3.29-13.54z" fill="#66b7ae"/><path d="m568.72 163.83-3.85 3.86v16.83l12.27-12.27 6.77-6.77v-16.83z" fill="#aed5d0"/><path d="m479.31 236.42-3.15 3.14-15.89 15.9h16.83l7.47-7.48 11.57-11.56z" fill="#66b7ae"/><path d="m506.67 236.42h-10.53l-11.57 11.56-7.47 7.48h14.95 1.88l15.89-15.9 3.15-3.14z" fill="#aed5d0"/><path d="m577.14 104.93-12.27 12.27v9.11 7.72l3.85-3.86 15.19-15.18v-3.29-13.54z" fill="#66b7ae"/><path d="m568.72 130.17-3.85 3.86v16.83l12.27-12.27 6.77-6.77v-16.83z" fill="#aed5d0"/><path d="m445.65 236.42-3.15 3.14-15.89 15.9h16.83l7.48-7.48 11.56-11.56z" fill="#66b7ae"/><path d="m473.01 236.42h-10.53l-11.56 11.56-7.48 7.48h14.95 1.88l15.89-15.9 3.15-3.14z" fill="#aed5d0"/><path d="m577.14 71.27-12.27 12.27v9.12 7.71l3.85-3.86 15.19-15.18v-3.29-13.54z" fill="#66b7ae"/><path d="m568.72 96.51-3.85 3.86v16.83l12.27-12.27 6.77-6.77v-16.83z" fill="#aed5d0"/><path d="m411.99 236.42-3.15 3.14-15.89 15.9h16.83l7.48-7.48 11.56-11.56z" fill="#66b7ae"/><path d="m439.36 236.42h-10.54l-11.56 11.56-7.48 7.48h14.96 1.87l15.89-15.9 3.15-3.14z" fill="#aed5d0"/><path d="m560.61 54.74-.3-.3-.3.3z" fill="#66b7ae"/><path d="m579.05 35.7-1.91 1.91-16.83 16.83.3.3h4.26v4.26 7.71l3.85-3.86 15.19-15.18v-3.29-8.68z" fill="#66b7ae"/><path d="m568.72 62.85-3.85 3.86v16.83l12.27-12.27 6.77-6.77v-16.83z" fill="#aed5d0"/><path d="m378.33 236.42-3.15 3.14-15.89 15.9h16.83l7.48-7.48 11.56-11.56z" fill="#66b7ae"/><path d="m405.7 236.42h-10.54l-11.56 11.56-7.48 7.48h14.96 1.87l15.89-15.9 3.15-3.14z" fill="#aed5d0"/><path d="m545.39 35.7-1.91 1.91-16.83 16.83.3.3h16.23l8.71-8.72 10.33-10.32z" fill="#66b7ae"/><path d="m575.23 35.7h-13.01l-10.33 10.32-8.71 8.72h16.83l.3-.3 16.83-16.83 1.91-1.91z" fill="#aed5d0"/><path d="m526.95 54.74-.3-.3-.3.3z" fill="#66b7ae"/><path d="m344.67 236.42-3.15 3.14-15.89 15.9h16.83l7.48-7.48 11.56-11.56z" fill="#66b7ae"/><path d="m372.04 236.42h-10.54l-11.56 11.56-7.48 7.48h14.96 1.87l15.89-15.9 3.15-3.14z" fill="#aed5d0"/><path d="m511.73 35.7-1.91 1.91-16.83 16.83.3.3h16.23l8.71-8.72 10.33-10.32z" fill="#66b7ae"/><path d="m541.57 35.7h-13.01l-10.33 10.32-8.71 8.72h16.83l.3-.3 16.83-16.83 1.91-1.91z" fill="#aed5d0"/><path d="m493.29 54.74-.3-.3-.3.3z" fill="#66b7ae"/><path d="m311.01 236.42-3.14 3.14-15.9 15.9h16.83l7.48-7.48 11.56-11.56z" fill="#66b7ae"/><path d="m338.38 236.42h-10.54l-11.56 11.56-7.48 7.48h14.96 1.87l15.89-15.9 3.15-3.14z" fill="#aed5d0"/><path d="m478.07 35.7-1.91 1.91-16.83 16.83.3.3h16.23l8.71-8.72 10.33-10.32z" fill="#66b7ae"/><path d="m507.91 35.7h-13.01l-10.33 10.32-8.71 8.72h16.83l.3-.3 16.83-16.83 1.91-1.91z" fill="#aed5d0"/><path d="m459.63 54.74-.3-.3-.3.3z" fill="#66b7ae"/><path d="m277.35 236.42-3.14 3.14-15.9 15.9h16.83l7.48-7.48 11.56-11.56z" fill="#66b7ae"/><path d="m304.72 236.42h-10.54l-11.56 11.56-7.48 7.48h14.96 1.87l15.9-15.9 3.14-3.14z" fill="#aed5d0"/><path d="m444.41 35.7-1.91 1.91-16.83 16.83.3.3h16.23l8.72-8.72 10.32-10.32z" fill="#66b7ae"/><path d="m474.25 35.7h-13.01l-10.32 10.32-8.72 8.72h16.83l.3-.3 16.83-16.83 1.91-1.91z" fill="#aed5d0"/><path d="m425.97 54.74-.3-.3-.3.3z" fill="#66b7ae"/><path d="m243.69 236.42-3.14 3.14-15.9 15.9h16.83l7.48-7.48 11.56-11.56z" fill="#66b7ae"/><path d="m271.06 236.42h-10.54l-11.56 11.56-7.48 7.48h14.96 1.87l15.9-15.9 3.14-3.14z" fill="#aed5d0"/><path d="m410.75 35.7-1.91 1.91-16.83 16.83.3.3h16.23l8.72-8.72 10.32-10.32z" fill="#66b7ae"/><path d="m440.59 35.7h-13.01l-10.32 10.32-8.72 8.72h16.83l.3-.3 16.83-16.83 1.91-1.91z" fill="#aed5d0"/><path d="m392.31 54.74-.3-.3-.3.3z" fill="#66b7ae"/><path d="m210.03 236.42-3.14 3.14-15.9 15.9h16.83l7.48-7.48 11.56-11.56z" fill="#66b7ae"/><path d="m237.4 236.42h-10.54l-11.56 11.56-7.48 7.48h14.96 1.87l15.9-15.9 3.14-3.14z" fill="#aed5d0"/><path d="m377.09 35.7-1.91 1.91-16.83 16.83.3.3h16.23l8.72-8.72 10.32-10.32z" fill="#66b7ae"/><path d="m406.93 35.7h-13.01l-10.32 10.32-8.72 8.72h16.83l.3-.3 16.83-16.83 1.91-1.91z" fill="#aed5d0"/><path d="m358.65 54.74-.3-.3-.3.3z" fill="#66b7ae"/><path d="m176.38 236.42-3.15 3.14-15.89 15.9h16.82l7.48-7.48 11.57-11.56z" fill="#66b7ae"/><path d="m203.74 236.42h-10.53l-11.57 11.56-7.48 7.48h14.96 1.87l15.9-15.9 3.14-3.14z" fill="#aed5d0"/><path d="m343.43 35.7-1.91 1.91-16.83 16.83.31.3h16.22l8.72-8.72 10.32-10.32z" fill="#66b7ae"/><path d="m373.27 35.7h-13.01l-10.32 10.32-8.72 8.72h16.83l.3-.3 16.83-16.83 1.91-1.91z" fill="#aed5d0"/><path d="m325 54.74-.31-.3-.3.3z" fill="#66b7ae"/><path d="m142.72 236.42-3.15 3.14-15.89 15.9h16.82l7.48-7.48 11.56-11.56z" fill="#66b7ae"/><path d="m170.08 236.42h-10.54l-11.56 11.56-7.48 7.48h14.96 1.88l15.89-15.9 3.15-3.14z" fill="#aed5d0"/><path d="m309.77 35.7-1.9 1.91-16.83 16.83.3.3h16.22l8.72-8.72 10.32-10.32z" fill="#66b7ae"/><path d="m339.61 35.7h-13.01l-10.32 10.32-8.72 8.72h16.83l.3-.3 16.83-16.83 1.91-1.91z" fill="#aed5d0"/><path d="m291.34 54.74-.3-.3-.31.3z" fill="#66b7ae"/><path d="m109.06 236.42-3.15 3.14-15.89 15.9h16.83l7.48-7.48 11.56-11.56z" fill="#66b7ae"/><path d="m136.42 236.42h-10.53l-11.56 11.56-7.48 7.48h14.96 1.87l15.89-15.9 3.15-3.14z" fill="#aed5d0"/><path d="m276.12 35.7-1.91 1.91-16.83 16.83.3.3h16.22l8.72-8.72 10.32-10.32z" fill="#66b7ae"/><path d="m305.95 35.7h-13.01l-10.32 10.32-8.72 8.72h16.83l.31-.3 16.83-16.83 1.9-1.91z" fill="#aed5d0"/><path d="m257.68 54.74-.3-.3-.31.3z" fill="#66b7ae"/><path d="m75.4 236.42-3.15 3.14-15.89 15.9h16.83l7.48-7.48 11.56-11.56z" fill="#66b7ae"/><path d="m102.76 236.42h-10.53l-11.56 11.56-7.48 7.48h14.96 1.87l15.89-15.9 3.15-3.14z" fill="#aed5d0"/><path d="m242.46 35.7-1.91 1.91-16.83 16.83.3.3h16.23l8.71-8.72 10.33-10.32z" fill="#66b7ae"/><path d="m272.3 35.7h-13.01l-10.33 10.32-8.71 8.72h16.82l.31-.3 16.83-16.83 1.91-1.91z" fill="#aed5d0"/><path d="m224.02 54.74-.3-.3-.3.3z" fill="#66b7ae"/><path d="m55.53 222.62-.11.12.11.11z" fill="#66b7ae"/><path d="m55.53 236.42v-13.57l-.11-.11-16.83 16.82-2.1 2.1v13.8h3.04l7.48-7.48 11.56-11.56z" fill="#66b7ae"/><path d="m69.11 236.42h-10.54l-11.56 11.56-7.48 7.48h14.96 1.87l15.89-15.9 3.15-3.14z" fill="#aed5d0"/><path d="m208.8 35.7-1.91 1.91-16.83 16.83.3.3h16.23l8.71-8.72 10.33-10.32z" fill="#66b7ae"/><path d="m238.64 35.7h-13.01l-10.33 10.32-8.71 8.72h16.83l.3-.3 16.83-16.83 1.91-1.91z" fill="#aed5d0"/><path d="m190.36 54.74-.3-.3-.3.3z" fill="#66b7ae"/><path d="m55.53 188.96-.11.12.11.11z" fill="#66b7ae"/><path d="m55.42 189.08-16.83 16.83-2.1 2.09v16.83l10.52-10.51 8.52-8.53v-16.6z" fill="#66b7ae"/><path d="m47.01 214.32-10.52 10.51v12.64 4.19l2.1-2.1 16.83-16.82.11-.12v-16.83z" fill="#aed5d0"/><path d="m175.14 35.7-1.91 1.91-16.83 16.83.3.3h16.23l8.71-8.72 10.33-10.32z" fill="#66b7ae"/><path d="m204.98 35.7h-13.01l-10.33 10.32-8.71 8.72h16.83l.3-.3 16.83-16.83 1.91-1.91z" fill="#aed5d0"/><path d="m55.53 155.31-.11.11.11.11z" fill="#66b7ae"/><path d="m55.42 155.42-16.83 16.83-2.1 2.09v16.83l10.52-10.51 8.52-8.53v-16.6z" fill="#66b7ae"/><path d="m47.01 180.66-10.52 10.51v12.64 4.19l2.1-2.09 16.83-16.83.11-.12v-16.83z" fill="#aed5d0"/><path d="m141.48 35.7-1.91 1.91-16.83 16.83.3.3h16.23l8.71-8.72 10.33-10.32z" fill="#66b7ae"/><path d="m175.14 35.7h-3.82-13.01l-10.33 10.32-8.71 8.72h16.83.6l-.3-.3 16.83-16.83z" fill="#aed5d0"/><path d="m123.04 54.74-.3-.3-.3.3z" fill="#66b7ae"/><path d="m55.53 121.65-.11.11.11.11z" fill="#66b7ae"/><path d="m55.42 121.76-16.83 16.83-2.1 2.1v16.83l10.52-10.52 8.52-8.53v-16.6z" fill="#66b7ae"/><path d="m47.01 147-10.52 10.52v12.63 4.19l2.1-2.09 16.83-16.83.11-.11v-16.84z" fill="#aed5d0"/><path d="m107.82 35.7-1.91 1.91-4.49 4.49 7.95 4.85-6.84 7.79h3.08l8.72-8.72 10.32-10.32z" fill="#66b7ae"/><path d="m137.66 35.7h-13.01l-10.32 10.32-8.72 8.72h16.83l.3-.3 16.83-16.83 1.91-1.91z" fill="#aed5d0"/><path d="m48.34 102.49-7.29 4.9-1.45.98-1.38-3.07-1.73 1.73v16.83l10.52-10.52 5.71-5.71z" fill="#66b7ae"/><path d="m55.18 110.5-2.46-2.87-5.71 5.71-10.52 10.52v12.63 4.2l2.1-2.1 16.83-16.83.11-.11v-11.59z" fill="#aed5d0"/><path d="m104 35.7h-.95l-2.67 5.76 1.04.64 4.49-4.49 1.91-1.91z" fill="#aed5d0"/><path d="m37.61 103.94-1.12-2.47v1.36 4.2l1.73-1.73z" fill="#aed5d0"/><path d="m14.84 81.34-1.57 10.42 10.53-.23 1.45 10.43 10.03-3.19 1.21 2.7 1.12 2.47.61 1.36 1.38 3.07 1.45-.98 7.29-4.9 4.38 5.14 2.46 2.87.35-.44 6.37-7.67 8.83 5.74 4.16-9.68 10.08 3.03 1.28-10.45 10.53.07-1.73-10.39 10.12-2.91-4.58-9.49 8.89-5.63-7.06-7.81.11-.13 6.84-7.79-7.95-4.85-1.04-.64 2.67-5.76 1.75-3.8-10.16-2.75 1.57-10.41-10.53.23-1.44-10.43-10.04 3.19-4.31-9.6-8.74 5.87-6.85-8-6.72 8.1-8.83-5.73-4.16 9.67-10.08-3.03-1.28 10.45-10.53-.06 1.73 10.39-10.11 2.91 4.58 9.48-8.9 5.64 7.06 7.81-6.94 7.92 8.98 5.49-4.42 9.55z" fill="#f9ef00"/><g fill="#2b2d3b"><path d="m23.18 37.24 2.43-.61.62 2.46-.61.16.3 1.22-1.85.46.09.4 1.69-.42.32 1.27-1.69.43.1.39 2.34-.58.37 1.46-6.29 1.59-.42-1.47 2.36-.59-.1-.39-1.68.42-.32-1.28 1.69-.42-.1-.4-1.85.47-.31-1.23-.56.14-.61-2.45 2.36-.6-.28-1.08 1.73-.43zm1.16 1.27-3.34.83.21.86.86-.21-.17-.66 1.64-.41.17.66.83-.21zm-2.7 7.13 5.23-1.31 1 4.07-1.67.42-.12-.45-1.95.49.14.57-1.59.4zm1.95 1 .19.73 1.95-.49-.18-.73zm6.08-2.62-1.67.47-1.92-7.71 1.67-.42zm.38-9.54 2.58 10.33c.27 1 .24 1.61-.22 2.06a4.9 4.9 0 0 1 -2.29 1 8.59 8.59 0 0 0 -1.06-1.87c.68-.13 1.39-.31 1.63-.37s.27-.16.22-.39l-2.58-10.24z"/><path d="m38.77 39s.12.55.15.82c.54 2.94.66 4.34.34 5a1.82 1.82 0 0 1 -1.17 1 13.4 13.4 0 0 1 -1.9.53 5.12 5.12 0 0 0 -1.19-1.87c.72-.11 1.49-.29 1.83-.37a.84.84 0 0 0 .53-.31 5.12 5.12 0 0 0 -.09-2.49l-2.07.52v.64l-1.86.13c-.06-1.44-.27-3.57-.53-5.29l3.29-.83-.3-1.19-3.52.88-.46-1.83 5.32-1.34 1.21 4.87-3.46.86c0 .41.09.8.13 1.2zm2.52-7.3 3.17 12.67-1.8.44-3.17-12.66z"/><path d="m54.28 35a6.86 6.86 0 0 0 2.58 1.1 7.06 7.06 0 0 0 -.76 1.9 8.13 8.13 0 0 1 -1.38-.51c.37 2 .43 3 .21 3.52a1.51 1.51 0 0 1 -.9.87 9.77 9.77 0 0 1 -1.55.45 4.73 4.73 0 0 0 -1-1.72c.48-.08.94-.18 1.18-.24a.53.53 0 0 0 .39-.27 4.24 4.24 0 0 0 -.05-1.89l-1.59.39c.13 1.86-.38 3.35-2.89 4.78a5.71 5.71 0 0 0 -1.41-1.45c1.9-1 2.38-1.81 2.42-2.86l-1.66.42-.11-.43a9.53 9.53 0 0 1 -1.13 1.26 11.15 11.15 0 0 0 -1.53-1.32 7.3 7.3 0 0 0 1.71-2.13l-1.81.43-.44-1.78 3-.75c.07-.31.14-.61.19-.93l-2.58.65-.43-1.73 1-.26a10.11 10.11 0 0 0 -.94-1.24l1.32-1a8.64 8.64 0 0 1 1.4 1.74l-.28.19.69-.17a20.54 20.54 0 0 0 -.1-2.21l2-.12c0 .63.05 1.25 0 1.86l1.3-.33a11.73 11.73 0 0 0 .29-2.24l1.9.12c-.12.6-.25 1.18-.39 1.68l1.47-.37.43 1.73-2.7.68c.18.25.37.49.57.73l3-.75.45 1.78zm-5.14 1.29a10.84 10.84 0 0 1 -.44 1.12l4.3-1.08a7.84 7.84 0 0 1 -.84-.8zm.59-2.92-.12.91 1.23-.28c-.16-.25-.33-.5-.49-.76z"/><path d="m60.09 27.47a25.64 25.64 0 0 1 -.44 2.93l2.35 9.54-1.81.45-1.62-6.48c-.14.33-.29.66-.45 1a15.21 15.21 0 0 0 -1.51-1.91 14.5 14.5 0 0 0 1.56-5.75zm8.17 2.42-1.26.31 1.43 5.72c.3 1.18.19 1.75-.39 2.21a8.21 8.21 0 0 1 -2.94 1.08 8.56 8.56 0 0 0 -1.1-1.79c.91-.17 2-.45 2.32-.53s.4-.22.32-.52l-1.43-5.71-4.51 1.13-.5-2 4.51-1.12-.71-2.75 1.84-.46.69 2.74 1.25-.31zm-4.53 6.17a32 32 0 0 0 -2.27-2.84l1.38-1.22c.74.83 1.81 2 2.36 2.67z"/><path d="m79.4 27.77a15.15 15.15 0 0 1 -1.63.94c.44.58.94 1.23 1.48 1.89l-.55 1.4c-.75 0-2.06.11-2.92.21l-.23-1.59 1.18-.18c-.26-.35-.48-.69-.69-1a30.77 30.77 0 0 1 -5.25 1.39l-.54-1.83a23.6 23.6 0 0 0 4.75-1.07l-.13-.19-.57-.74a23 23 0 0 1 -4.12.95l-.56-1.82a22.62 22.62 0 0 0 3.52-.69 9.48 9.48 0 0 0 -.81-.93l2-.95a11 11 0 0 0 .67 1.19 14.87 14.87 0 0 0 2.11-1.18l.75 1.73a16 16 0 0 1 -1.82 1c.12.19.26.37.38.54l.24.34a12.84 12.84 0 0 0 2-1.18zm-6.09 4a4.59 4.59 0 0 0 0 1.35c.18.72.74 1.14 2.22.77a17.71 17.71 0 0 0 3.26-1.13l.45 2.09a18 18 0 0 1 -3.11 1.15c-2.34.59-4 .08-4.51-1.9a8.12 8.12 0 0 1 -.17-2z"/><path d="m29.81 67.48c.32-.08.33-.32 0-1.86a5 5 0 0 0 1.81.37c.39 2.27.08 3-1.16 3.31l-1.25.31c-1.54.39-2-.13-2.49-1.9l-.72-2.94-1.47.37c.32 2.36.19 4.56-2.32 6.52a6.41 6.41 0 0 0 -1.55-1.48 4.11 4.11 0 0 0 2-4.57l-2.74.69-.48-1.9 4.56-1.16-.47-1.91-1.88.46a9.36 9.36 0 0 1 -.44 2 8.7 8.7 0 0 0 -1.8-.47 12.48 12.48 0 0 0 .5-4.74l1.91-.05v1.24l1.24-.31-.42-1.69 1.81-.45.43 1.68 3.58-.89.48 1.89-3.59.89.48 1.92 4.6-1.15.48 1.9-3.13.78.73 2.93c.12.47.18.51.51.43z"/><path d="m34.57 55.61a18.2 18.2 0 0 1 -2.57 4.6 12.08 12.08 0 0 0 -1.38-1.39 11.5 11.5 0 0 0 2-3.57zm1.16 2.81a19.24 19.24 0 0 1 -.73 2.38l1.79 7.14-1.79.45-1.22-4.91c-.2.34-.39.68-.59 1a15.08 15.08 0 0 0 -1.66-1.48 13.53 13.53 0 0 0 2.33-4.91zm6.06-2.67-5.95 1.49-.47-1.88 6-1.49zm1.21 3.7-1.6.4 1.07 4.3c.26 1 .23 1.58-.3 2a5.87 5.87 0 0 1 -2.37.93 8.3 8.3 0 0 0 -1-1.89c.61-.11 1.42-.31 1.64-.36s.28-.13.23-.32l-1.06-4.24-3.35.84-.47-1.88 6.77-1.69z"/><path d="m53.34 55.41c.26-.06.9-.28 1.17-.37l.53 2.1-1.17.23-3 .76a7.54 7.54 0 0 1 -1.74 6.32l-2.25-.94a5.48 5.48 0 0 0 2-4.88l-3.2.8c-.37.09-.84.24-1.16.35l-.52-2.11a10.09 10.09 0 0 0 1.18-.21l3.3-.83-.42-1.63c-1.11.38-2.3.73-3.06.94l-.94-1.77a28.44 28.44 0 0 0 4.15-1.27 11.49 11.49 0 0 0 2.79-1.59l1.67 1.51-1 .57a18.81 18.81 0 0 1 -1.74.87l.47 1.88z"/><path d="m64.81 50.25a8.53 8.53 0 0 0 1.31-.45l.56 2.25a13.37 13.37 0 0 0 -1.35.28l-1.52.38c.63 3.52 0 6.32-1.83 8.47l-2.36-1a5.09 5.09 0 0 0 1-1.13 7.46 7.46 0 0 0 1.08-5.85l-2.27.57a12.11 12.11 0 0 1 -1.24 3.32l-2.17-.79a10.49 10.49 0 0 0 1.41-3.25 10.36 10.36 0 0 0 .26-2 6.81 6.81 0 0 0 -.1-1.63l2.42-.07c-.07.4-.12 1-.16 1.31s0 .53-.07.84z"/><path d="m72.76 52.94-1.62 1.2a26.34 26.34 0 0 0 -1.92-2.89l1.61-1.15c.53.67 1.49 2.11 1.93 2.84zm2.5-1.54-1.6 1.13a28.13 28.13 0 0 0 -1.78-2.8l1.61-1.08c.39.54 1.43 2.16 1.77 2.75zm3.06-2.77v1.26a11.93 11.93 0 0 1 -.68 4.27 10.15 10.15 0 0 1 -3.27 4.51l-2-1.38a8.4 8.4 0 0 0 3.39-3.85 10 10 0 0 0 .33-5z"/><path d="m90.64 50a38.33 38.33 0 0 0 -4.64-.9l.87 3.5c.09.36.44 1.42.65 2l-2.32.58a17 17 0 0 0 -.37-2.08l-1.94-7.76a10.67 10.67 0 0 0 -.59-1.73l2.26-.61c.08.53.16 1.14.32 1.8l.47 1.86a39.76 39.76 0 0 1 5.56.78z"/><path d="m50.15 77.07a16 16 0 0 1 .08 5.87 6.14 6.14 0 0 0 2.22 1.06 6.93 6.93 0 0 0 -.76 1.86 7.54 7.54 0 0 1 -2.09-1.12 6.82 6.82 0 0 1 -1.34 1.9 9 9 0 0 0 -1.15-1.18 6 6 0 0 1 -.32 1.64 8 8 0 0 0 -1.67-.65 4.37 4.37 0 0 0 .17-.62l-.91.82a11 11 0 0 0 -1.32-1.59 9.39 9.39 0 0 1 -.79 3.19 10.89 10.89 0 0 0 -1.64-.69 6.14 6.14 0 0 0 .73-2.85h1.72v.1l1-.8-3.25.81-2.26-8.82 4.12-1 2.23 8.9-.72.1a11.62 11.62 0 0 1 1.19 1.25 15.31 15.31 0 0 0 -.62-5.08l-1.31-5.17 5.79-1.45.45 1.78-4.17 1 .39 1.58 2.84-.71.29-.12zm-8.71-.16-.92.23.24 1 .92-.23zm.6 2.4-.92.23.25 1 .92-.23zm.6 2.41-.91.23.24 1 .92-.23zm5.55 1.7a13.62 13.62 0 0 1 -1.42-2 16.05 16.05 0 0 1 .36 3.58 5.07 5.07 0 0 0 1.06-1.58zm-.85-4a15.14 15.14 0 0 0 1.35 2 11.84 11.84 0 0 0 0-2.39z"/><path d="m55.53 74.07-4.45 1.12-.45-1.79 4.45-1.12-.23-.91 1.86-.46.22.91 4.6-1.15.47 1.79-4.6 1.15.16.61 3.44-.87.43 1.71-8.6 2.16-.43-1.72 3.27-.81zm6.07 4.71-.33-1.33-7.27 1.82.34 1.33-1.73.4-.77-3.09 10.79-2.7.77 3.09zm-4.56 0c.52 2.78.49 4.69-2.83 6.5a5.55 5.55 0 0 0 -1.39-1.47c2.84-1.37 2.74-2.56 2.38-4.56zm5.33 2.39c.38-.09.4-.33.12-1.66a4.54 4.54 0 0 0 1.77.34c.32 2.07 0 2.73-1.27 3l-1.46.36c-1.61.41-2.14-.07-2.56-1.75l-.75-3 1.78-.4.74 3c.12.46.2.5.61.4z"/><path d="m73.8 69.07 1.76 7.07-1.87.46-.16-.6-2.36.59 1 4.16-1.88.48-1-4.16-2.35.58.18.71-1.79.45-1.78-7.14 4.13-1-.58-2.32 1.9-.55.59 2.33zm-5 6-.63-2.54-2.35.59.64 2.54zm4.25-1.07-.64-2.54-2.36.59.64 2.54z"/><path d="m78.26 69.05-.61-2.13 2.18-.55.47 2.17.83 4.67-1.41.35zm1.47 7a1.34 1.34 0 1 1 2.58-.64 1.35 1.35 0 1 1 -2.58.64z"/></g></svg>