<svg viewBox="0 0 203.18 203.18" xmlns="http://www.w3.org/2000/svg"><path d="m101.59 18.3c27.12 0 30.34.11 41 .6 9.9.45 15.28 2.1 18.86 3.49a33.65 33.65 0 0 1 19.28 19.28c1.39 3.58 3.05 9 3.5 18.87.49 10.71.59 13.92.59 41.05s-.1 30.34-.59 41c-.45 9.9-2.11 15.28-3.5 18.86a33.65 33.65 0 0 1 -19.28 19.28c-3.58 1.39-9 3.05-18.86 3.5-10.71.49-13.92.59-41 .59s-30.34-.1-41.05-.59c-9.91-.45-15.29-2.11-18.87-3.5a33.65 33.65 0 0 1 -19.28-19.23c-1.39-3.58-3-9-3.49-18.86-.49-10.71-.6-13.93-.6-41s.11-30.34.6-41.05c.45-9.91 2.1-15.29 3.49-18.87a31.68 31.68 0 0 1 7.61-11.72 31.68 31.68 0 0 1 11.68-7.6c3.58-1.39 9-3 18.87-3.49 10.71-.49 13.92-.6 41.05-.6m0-18.3c-27.6-.01-31.06.11-41.9.6s-18.19 2.21-24.7 4.72a49.83 49.83 0 0 0 -18 11.72 49.83 49.83 0 0 0 -11.67 17.95c-2.51 6.51-4.23 13.89-4.72 24.7s-.61 14.3-.61 41.89.12 31 .61 41.88 2.21 18.2 4.72 24.66a49.87 49.87 0 0 0 11.72 18 49.8 49.8 0 0 0 18 11.71c6.47 2.52 13.85 4.23 24.66 4.73s14.3.61 41.89.61 31-.12 41.88-.61 18.2-2.21 24.66-4.73a51.84 51.84 0 0 0 29.71-29.71c2.52-6.46 4.23-13.84 4.73-24.66s.61-14.29.61-41.88-.12-31-.61-41.89-2.22-18.19-4.74-24.7a49.8 49.8 0 0 0 -11.71-18 49.87 49.87 0 0 0 -18-11.72c-6.46-2.46-13.84-4.18-24.66-4.67s-14.29-.61-41.88-.61z"/><path d="m101.59 49.42a52.17 52.17 0 1 0 52.17 52.17 52.17 52.17 0 0 0 -52.17-52.17zm0 86a33.86 33.86 0 1 1 33.86-33.86 33.86 33.86 0 0 1 -33.86 33.89z"/><circle cx="155.82" cy="47.36" r="12.19"/></svg>