<svg viewBox="0 0 203.18 203.18" xmlns="http://www.w3.org/2000/svg"><path d="m203.18 101.59a101.59 101.59 0 1 0 -117.46 100.35v-70.94h-25.8v-29.41h25.8v-22.38c0-25.46 15.16-39.53 38.37-39.53a155.85 155.85 0 0 1 22.74 2v25h-12.83c-12.62 0-16.56 7.83-16.56 15.86v19.06h28.18l-4.49 29.4h-23.67v71a101.61 101.61 0 0 0 85.72-100.41z" fill="#1877f2"/><path d="m141.13 131 4.51-29.36h-28.18v-19.11c0-8 3.94-15.86 16.56-15.86h12.81v-25a155.85 155.85 0 0 0 -22.74-2c-23.21 0-38.37 14.07-38.37 39.53v22.38h-25.8v29.42h25.8v71a102.18 102.18 0 0 0 31.74 0v-71z" fill="#fff"/></svg>