<svg viewBox="0 0 250 203.18" xmlns="http://www.w3.org/2000/svg"><path d="m78.62 203.18c94.38 0 145.94-78.18 145.94-145.94q0-3.33-.15-6.63a104.24 104.24 0 0 0 25.59-26.56 102.11 102.11 0 0 1 -29.46 8.08 51.52 51.52 0 0 0 22.56-28.37 103.15 103.15 0 0 1 -32.57 12.45 51.34 51.34 0 0 0 -87.41 46.79 145.59 145.59 0 0 1 -105.72-53.61 51.33 51.33 0 0 0 15.88 68.48 50.87 50.87 0 0 1 -23.23-6.42v.65a51.31 51.31 0 0 0 41.15 50.29 51.42 51.42 0 0 1 -23.17.88 51.34 51.34 0 0 0 47.92 35.62 102.91 102.91 0 0 1 -63.7 22 105.19 105.19 0 0 1 -12.25-.75 145.17 145.17 0 0 0 78.62 23" fill="#1da1f2"/></svg>