<svg xmlns="http://www.w3.org/2000/svg" viewBox="0 0 104.97 21.76"><defs><style>.cls-1{fill:#fff;}.cls-2{fill:#231815;}</style></defs><g id="レイヤー_2" data-name="レイヤー 2"><g id="レイヤー_1-2" data-name="レイヤー 1"><path d="M5,9A11,11,0,0,0,3.37,9V6.77A9.3,9.3,0,0,0,5,6.86H7.32V5.22a12.06,12.06,0,0,0-.1-2H9.68a11.85,11.85,0,0,0-.1,2v11.3a12.93,12.93,0,0,0,.1,2.1H7.22a13.34,13.34,0,0,0,.1-2.13V14.85c-.91.5-1.77.92-2.85,1.39-.37.15-.55.23-.79.35L3,14.23a6.59,6.59,0,0,0,1.39-.38,25.45,25.45,0,0,0,2.93-1.27V9Zm8.58,6.79c0,.35.2.44,1,.44,1.07,0,1.42-.1,1.58-.44a10.08,10.08,0,0,0,.27-3.18,12.62,12.62,0,0,0,2.09.83c-.1,2.54-.4,3.77-1.07,4.31-.5.4-1.19.51-2.94.51A6.72,6.72,0,0,1,12.2,18c-.6-.29-.84-.74-.84-1.66V5.22a11.59,11.59,0,0,0-.1-2h2.41a12.13,12.13,0,0,0-.1,2v3A13.83,13.83,0,0,0,17,5.57l1.57,1.85a3,3,0,0,0-.5.39c-.47.36-1.82,1.3-2.64,1.8-.63.39-1.15.67-1.85,1Z"/><path d="M31.73,3.83a13.29,13.29,0,0,0,1.82-.08,16.85,16.85,0,0,0-.09,1.79V16.35a20.77,20.77,0,0,0,.1,2.14H31.17v-.92H23.8v.92H21.44a19.47,19.47,0,0,0,.1-2.14V5.59c0-.64,0-1.22-.08-1.84.53,0,1.12.08,1.89.08Zm-.56,5.68V5.94H23.8V9.51ZM23.8,11.58v3.89h7.37V11.58Z"/><path d="M46.18,7.84a14.1,14.1,0,0,0,2.57,3.47,13.77,13.77,0,0,0,3.44,2.54A7.64,7.64,0,0,0,50.94,16a16.37,16.37,0,0,1-2.72-2.21v1.71a16.5,16.5,0,0,0-1.67-.09H45.19v1a16.92,16.92,0,0,0,.12,2.15H42.86A17.19,17.19,0,0,0,43,16.47v-1H41.75a16.13,16.13,0,0,0-1.66.09V13.85a15,15,0,0,1-2.63,2.22A6.84,6.84,0,0,0,36.25,14a14.36,14.36,0,0,0,3.37-2.81,15.41,15.41,0,0,0,2.29-3.32H38.83a16.63,16.63,0,0,0-2,.12V5.65a14.41,14.41,0,0,0,2,.12H43V4.67a9.48,9.48,0,0,0-.1-1.55h2.42a10.45,10.45,0,0,0-.1,1.55v1.1h4.34a13.85,13.85,0,0,0,2.09-.12V8a17.18,17.18,0,0,0-2.09-.12ZM43,11.35c0-.52,0-1,.1-1.66a14.72,14.72,0,0,1-2.58,3.73,11.34,11.34,0,0,0,1.15,0H43Zm3.74,2.1a10.44,10.44,0,0,0,1.09,0,16.5,16.5,0,0,1-2.71-3.74,15.33,15.33,0,0,1,.1,1.63v2.14Z"/><path d="M58.43,11.15h1a9.45,9.45,0,0,0,1.62-.09v2.07a14,14,0,0,0-1.62-.06h-.31a6.52,6.52,0,0,0,1.55,1.3c-.35.67-.65,1.28-.92,1.92a7.8,7.8,0,0,1-1.38-1.54c0,.7,0,.95,0,1.2v1.34a7.56,7.56,0,0,0,.08,1.37H56.29a6.78,6.78,0,0,0,.09-1.29V16.1c0-.28,0-.66,0-1a7.91,7.91,0,0,1-2.59,2.77,8,8,0,0,0-.92-2.09,8.62,8.62,0,0,0,2.82-2.68h-.91a10,10,0,0,0-1.61.08V11.06a9.79,9.79,0,0,0,1.64.09h1.54v-1H54.79a13.64,13.64,0,0,0-1.6.07V8.11a11.15,11.15,0,0,0,1.68.08,10.9,10.9,0,0,0-.4-1.88c-.42,0-.62,0-.95.06v-2a10,10,0,0,0,1.65.08h1.12V4.3a7.49,7.49,0,0,0-.08-1.25H58.6a6.15,6.15,0,0,0-.09,1.25v.1h.92a9.88,9.88,0,0,0,1.64-.08V6.37c-.34,0-.45,0-.89,0a15.54,15.54,0,0,1-.43,1.87,8.74,8.74,0,0,0,1.42-.08v2.1a14.13,14.13,0,0,0-1.62-.07H58.43Zm-.59-3a9.57,9.57,0,0,0,.37-1.88H56.44a.39.39,0,0,1,.07.18,8.8,8.8,0,0,1,.35,1.7Zm9.42-.1A7.88,7.88,0,0,0,68.79,8v2.19a8.28,8.28,0,0,0-1.28-.07h-.32v6.46a13.46,13.46,0,0,0,.1,2.1H65a13.87,13.87,0,0,0,.1-2.1V10.11H63.72c-.08,4.21-.63,6.51-2,8.65a9.73,9.73,0,0,0-2-1.29c1.6-2.1,2-4,2-10.75a19.39,19.39,0,0,0-.1-2.32,20.08,20.08,0,0,0,3.89-.7A5.87,5.87,0,0,0,67.11,3l1.62,2c-.25.07-.25.07-.59.19a24.81,24.81,0,0,1-4.4,1V8.09Z"/><path d="M72.56,16.5a16.85,16.85,0,0,0,.1,2.12h-2.3a15.32,15.32,0,0,0,.1-2.15V5.4a18.13,18.13,0,0,0-.07-1.88,15.76,15.76,0,0,0,1.71.06h3.25a14,14,0,0,0,1.7-.06c0,.53,0,.9,0,1.53V7.52A12.89,12.89,0,0,0,77,9L75.59,9h-3Zm0-10.85h2.49v-.6H72.56Zm0,1.91h2.49V7H72.56Zm1.72,3.67a8.87,8.87,0,0,0-1,.07V9.53a13.17,13.17,0,0,0,1.55.06h5.57A13.66,13.66,0,0,0,82,9.53V11.3a9.62,9.62,0,0,0-1.09-.07v5.48a10.92,10.92,0,0,0,.07,1.5h-2A11.88,11.88,0,0,0,79,16.66l-4.62.53a5.61,5.61,0,0,0-.94.15l-.23-1.87a2.51,2.51,0,0,0,.35,0l.73-.05Zm1.86.52H79V11.2H76.14Zm0,1.73H79v-.56H76.14Zm0,1.87c.8,0,.86-.06,2.35-.21l.5-.05v-.44H76.14Zm8.58,1c0,1.82-.37,2.16-2.36,2.16l-.82,0a6.53,6.53,0,0,0-.5-2.1,10.29,10.29,0,0,0,1,.08c.45,0,.53-.06.53-.42V9H79.46c-.54,0-1,0-1.45,0,0-.37,0-.73,0-1.49V5.05C78,4.44,78,4,78,3.52a15.13,15.13,0,0,0,1.7.06h3.39a15.45,15.45,0,0,0,1.7-.06c0,.55-.06,1-.06,1.87ZM80,5.65h2.58v-.6H80Zm0,1.91h2.58V7H80Z"/><path d="M91.11,16.92a11.67,11.67,0,0,0,.08,1.74H88.85a12,12,0,0,0,.1-1.79V13a10.77,10.77,0,0,1-1.68,1.24,8.49,8.49,0,0,0-1-2.06,11.59,11.59,0,0,0,2.75-2.08,8.58,8.58,0,0,0,1.75-2.46H88.3a11.12,11.12,0,0,0-1.43.07V5.59a9.52,9.52,0,0,0,1.3.06H89V4.34a7.43,7.43,0,0,0-.1-1.27h2.32a6.57,6.57,0,0,0-.1,1.28v1.3h.58a5.46,5.46,0,0,0,1-.05l.94,1a6.58,6.58,0,0,0-.39.75,13.51,13.51,0,0,1-1.58,2.77,8.9,8.9,0,0,0,2.65,2.08,10.71,10.71,0,0,0-1.07,2,8.62,8.62,0,0,1-2.08-1.78Zm7.22-1H100a15.69,15.69,0,0,0,2-.08v2.29a18.06,18.06,0,0,0-2-.1H94.43a16.77,16.77,0,0,0-1.9.1V15.87a15.73,15.73,0,0,0,1.93.08h1.62V9.66H95c-.55,0-1.08,0-1.63.08V7.49A14.49,14.49,0,0,0,95,7.57h1.07V5A15.42,15.42,0,0,0,96,3.1h2.46A11.72,11.72,0,0,0,98.33,5V7.57h1.54a10.52,10.52,0,0,0,1.65-.08V9.74c-.56-.05-1.06-.08-1.65-.08H98.33Z"/><path class="cls-1" d="M7.22,21.62a3,3,0,0,1-2.26-1,2.88,2.88,0,0,1-.6-1.08,3.08,3.08,0,0,1-.68.08,2.92,2.92,0,0,1-1.19-.25A3,3,0,0,1,.8,17.43L.12,15.07a3,3,0,0,1,.34-2.43,3.06,3.06,0,0,1,1.23-1.11l-.27-.2A3,3,0,0,1,.37,9V6.77a3,3,0,0,1,3-3,2.25,2.25,0,0,1,.44,0l.47,0,0-.22a3,3,0,0,1,3-3.41H9.68a3,3,0,0,1,.79.1,3,3,0,0,1,.79-.1h2.41a3,3,0,0,1,2.26,1,3.07,3.07,0,0,1,.68,1.36l.33,0h0a3,3,0,0,1,2.3,1l1.57,1.85a3,3,0,0,1,.67,2.39A3,3,0,0,1,20.17,10l-.09.08-.17.14-.48.36a3,3,0,0,1,2.13,3c-.1,2.49-.35,5.05-2.2,6.53-1.36,1.09-2.91,1.17-4.81,1.17a10.85,10.85,0,0,1-3-.26,3,3,0,0,1-1.88.66Z"/><path class="cls-1" d="M31.17,21.49A3,3,0,0,1,29,20.57H26a3,3,0,0,1-2.16.92H21.44a3,3,0,0,1-3-3.31,16.77,16.77,0,0,0,.08-1.83V5.59c0-.48,0-1-.07-1.6a3,3,0,0,1,.88-2.38A3.05,3.05,0,0,1,21.46.75h.28c.52.05,1,.07,1.61.07h8.38a12.22,12.22,0,0,0,1.43,0l.39,0a3,3,0,0,1,3,3.29,14,14,0,0,0-.07,1.5V16.35a15.94,15.94,0,0,0,.09,1.83,3,3,0,0,1-3,3.31Z"/><path class="cls-1" d="M42.86,21.62a3,3,0,0,1-2.26-1,3,3,0,0,1-.74-2.07,4.68,4.68,0,0,1-.54-.09l-.16.11a3.06,3.06,0,0,1-1.7.52,2.8,2.8,0,0,1-.86-.13,3,3,0,0,1-1.91-1.74,4,4,0,0,0-.79-1.36,3,3,0,0,1-.61-2.39,3,3,0,0,1,1.4-2c.35-.21.68-.43,1-.65a2.89,2.89,0,0,1-.88-.55,3,3,0,0,1-1-2.24V5.65a3,3,0,0,1,3-3,2.31,2.31,0,0,1,.37,0,12.25,12.25,0,0,0,1.68.09h1.06a3,3,0,0,1,3-2.65h2.42a3,3,0,0,1,2.28,1,3,3,0,0,1,.7,1.61h1.26a11,11,0,0,0,1.68-.09,2.73,2.73,0,0,1,.41,0,3,3,0,0,1,3,3V8a3,3,0,0,1-1,2.24,3.27,3.27,0,0,1-.85.53c.25.16.52.31.8.46a3,3,0,0,1,1,4.51,4.68,4.68,0,0,0-.84,1.49,3,3,0,0,1-1.9,1.72,3.27,3.27,0,0,1-.87.13,3,3,0,0,1-1.66-.5l-.2-.13a3.35,3.35,0,0,1-.77.13,3,3,0,0,1-3,3.08Z"/><path class="cls-1" d="M61.67,21.76a3,3,0,0,1-1.66-.5,3,3,0,0,1-1.5.4H56.29a3,3,0,0,1-2.08-.84l-.39,0a3.2,3.2,0,0,1-1-.17,3,3,0,0,1-1.88-2,4.51,4.51,0,0,0-.59-1.32A3,3,0,0,1,50,15a3.13,3.13,0,0,1,.38-.88,3,3,0,0,1-.17-1V11.06a2.19,2.19,0,0,1,0-.36,2.63,2.63,0,0,1,0-.49V8.11a3,3,0,0,1,.35-1.41c0-.11,0-.22,0-.33v-2a3,3,0,0,1,3-3h.23l.18-.23a3,3,0,0,1,2.28-1H58.6a3,3,0,0,1,2.28,1.06l.17.21h0a3.05,3.05,0,0,1,.6.06,19.4,19.4,0,0,0,3-.57,5,5,0,0,0,.77-.28A2.94,2.94,0,0,1,67.11,0a3,3,0,0,1,2.31,1.08L71,3a3,3,0,0,1,.55,2.82,3.17,3.17,0,0,1-.25.56A3,3,0,0,1,71.79,8v2.19a3,3,0,0,1-1,2.26,2.81,2.81,0,0,1-.58.39v3.74a10.66,10.66,0,0,0,.07,1.64,3,3,0,0,1-3,3.46H65a2.88,2.88,0,0,1-1.58-.45,3,3,0,0,1-1.25.5A2.38,2.38,0,0,1,61.67,21.76Z"/><path class="cls-1" d="M70.36,21.62a3,3,0,0,1-2.25-1,3,3,0,0,1-.72-2.37,15,15,0,0,0,.07-1.77V5.4c0-.88,0-1.21,0-1.6a3,3,0,0,1,3-3.28h.3a11.82,11.82,0,0,0,1.41,0h3.25a12.52,12.52,0,0,0,1.36,0,2,2,0,0,1,.34,0,3.59,3.59,0,0,1,.47,0,3.71,3.71,0,0,1,.47,0h.3a11.21,11.21,0,0,0,1.4,0h3.39a11.92,11.92,0,0,0,1.41,0h.29a3,3,0,0,1,3,3.27c0,.45,0,.84,0,1.6v11c0,4.62-3.06,5.16-5.36,5.16h0l-.87,0a3,3,0,0,1-1.19-.28H78.92a3,3,0,0,1-2.23-1,2.43,2.43,0,0,1-.2-.25l-1.22.14a2.38,2.38,0,0,1-.34.49,3,3,0,0,1-2.27,1Z"/><path class="cls-1" d="M88.85,21.66a3,3,0,0,1-3-3.39A8.66,8.66,0,0,0,86,17a3,3,0,0,1-1.52-1.74,5.69,5.69,0,0,0-.62-1.37,3,3,0,0,1,.82-4.12,3,3,0,0,1-.76-2V5.59a3,3,0,0,1,1-2.25,3.12,3.12,0,0,1,1-.59,3,3,0,0,1,.69-1.62A3,3,0,0,1,88.87.07h2.32a3,3,0,0,1,2.3,1.07l.11.14a1.46,1.46,0,0,1,.16-.19A3,3,0,0,1,96,.1h2.46a3,3,0,0,1,3,3.38,6.63,6.63,0,0,0-.07,1h.18a3,3,0,0,1,2,.73,3,3,0,0,1,1,2.27V9.74a3,3,0,0,1-3,3h-.19v.18l.3,0,.34,0a3,3,0,0,1,3,3v2.29a3,3,0,0,1-3,3l-.32,0c-.48-.05-1.09-.08-1.63-.08H94.43a13.07,13.07,0,0,0-1.55.08,3,3,0,0,1-1.69.52Z"/><path class="cls-2" d="M5,9A11,11,0,0,0,3.37,9V6.77A9.3,9.3,0,0,0,5,6.86H7.32V5.22a12.06,12.06,0,0,0-.1-2H9.68a11.85,11.85,0,0,0-.1,2v11.3a12.93,12.93,0,0,0,.1,2.1H7.22a13.34,13.34,0,0,0,.1-2.13V14.85c-.91.5-1.77.92-2.85,1.39-.37.15-.55.23-.79.35L3,14.23a6.59,6.59,0,0,0,1.39-.38,25.45,25.45,0,0,0,2.93-1.27V9Zm8.58,6.79c0,.35.2.44,1,.44,1.07,0,1.42-.1,1.58-.44a10.08,10.08,0,0,0,.27-3.18,12.62,12.62,0,0,0,2.09.83c-.1,2.54-.4,3.77-1.07,4.31-.5.4-1.19.51-2.94.51A6.72,6.72,0,0,1,12.2,18c-.6-.29-.84-.74-.84-1.66V5.22a11.59,11.59,0,0,0-.1-2h2.41a12.13,12.13,0,0,0-.1,2v3A13.83,13.83,0,0,0,17,5.57l1.57,1.85a3,3,0,0,0-.5.39c-.47.36-1.82,1.3-2.64,1.8-.63.39-1.15.67-1.85,1Z"/><path class="cls-2" d="M31.73,3.83a13.29,13.29,0,0,0,1.82-.08,16.85,16.85,0,0,0-.09,1.79V16.35a20.77,20.77,0,0,0,.1,2.14H31.17v-.92H23.8v.92H21.44a19.47,19.47,0,0,0,.1-2.14V5.59c0-.64,0-1.22-.08-1.84.53,0,1.12.08,1.89.08Zm-.56,5.68V5.94H23.8V9.51ZM23.8,11.58v3.89h7.37V11.58Z"/><path class="cls-2" d="M46.18,7.84a14.1,14.1,0,0,0,2.57,3.47,13.77,13.77,0,0,0,3.44,2.54A7.64,7.64,0,0,0,50.94,16a16.37,16.37,0,0,1-2.72-2.21v1.71a16.5,16.5,0,0,0-1.67-.09H45.19v1a16.92,16.92,0,0,0,.12,2.15H42.86A17.19,17.19,0,0,0,43,16.47v-1H41.75a16.13,16.13,0,0,0-1.66.09V13.85a15,15,0,0,1-2.63,2.22A6.84,6.84,0,0,0,36.25,14a14.36,14.36,0,0,0,3.37-2.81,15.41,15.41,0,0,0,2.29-3.32H38.83a16.63,16.63,0,0,0-2,.12V5.65a14.41,14.41,0,0,0,2,.12H43V4.67a9.48,9.48,0,0,0-.1-1.55h2.42a10.45,10.45,0,0,0-.1,1.55v1.1h4.34a13.85,13.85,0,0,0,2.09-.12V8a17.18,17.18,0,0,0-2.09-.12ZM43,11.35c0-.52,0-1,.1-1.66a14.72,14.72,0,0,1-2.58,3.73,11.34,11.34,0,0,0,1.15,0H43Zm3.74,2.1a10.44,10.44,0,0,0,1.09,0,16.5,16.5,0,0,1-2.71-3.74,15.33,15.33,0,0,1,.1,1.63v2.14Z"/><path class="cls-2" d="M58.43,11.15h1a9.45,9.45,0,0,0,1.62-.09v2.07a14,14,0,0,0-1.62-.06h-.31a6.52,6.52,0,0,0,1.55,1.3c-.35.67-.65,1.28-.92,1.92a7.8,7.8,0,0,1-1.38-1.54c0,.7,0,.95,0,1.2v1.34a7.56,7.56,0,0,0,.08,1.37H56.29a6.78,6.78,0,0,0,.09-1.29V16.1c0-.28,0-.66,0-1a7.91,7.91,0,0,1-2.59,2.77,8,8,0,0,0-.92-2.09,8.62,8.62,0,0,0,2.82-2.68h-.91a10,10,0,0,0-1.61.08V11.06a9.79,9.79,0,0,0,1.64.09h1.54v-1H54.79a13.64,13.64,0,0,0-1.6.07V8.11a11.15,11.15,0,0,0,1.68.08,10.9,10.9,0,0,0-.4-1.88c-.42,0-.62,0-.95.06v-2a10,10,0,0,0,1.65.08h1.12V4.3a7.49,7.49,0,0,0-.08-1.25H58.6a6.15,6.15,0,0,0-.09,1.25v.1h.92a9.88,9.88,0,0,0,1.64-.08V6.37c-.34,0-.45,0-.89,0a15.54,15.54,0,0,1-.43,1.87,8.74,8.74,0,0,0,1.42-.08v2.1a14.13,14.13,0,0,0-1.62-.07H58.43Zm-.59-3a9.57,9.57,0,0,0,.37-1.88H56.44a.39.39,0,0,1,.07.18,8.8,8.8,0,0,1,.35,1.7Zm9.42-.1A7.88,7.88,0,0,0,68.79,8v2.19a8.28,8.28,0,0,0-1.28-.07h-.32v6.46a13.46,13.46,0,0,0,.1,2.1H65a13.87,13.87,0,0,0,.1-2.1V10.11H63.72c-.08,4.21-.63,6.51-2,8.65a9.73,9.73,0,0,0-2-1.29c1.6-2.1,2-4,2-10.75a19.39,19.39,0,0,0-.1-2.32,20.08,20.08,0,0,0,3.89-.7A5.87,5.87,0,0,0,67.11,3l1.62,2c-.25.07-.25.07-.59.19a24.81,24.81,0,0,1-4.4,1V8.09Z"/><path class="cls-2" d="M72.56,16.5a16.85,16.85,0,0,0,.1,2.12h-2.3a15.32,15.32,0,0,0,.1-2.15V5.4a18.13,18.13,0,0,0-.07-1.88,15.76,15.76,0,0,0,1.71.06h3.25a14,14,0,0,0,1.7-.06c0,.53,0,.9,0,1.53V7.52A12.89,12.89,0,0,0,77,9L75.59,9h-3Zm0-10.85h2.49v-.6H72.56Zm0,1.91h2.49V7H72.56Zm1.72,3.67a8.87,8.87,0,0,0-1,.07V9.53a13.17,13.17,0,0,0,1.55.06h5.57A13.66,13.66,0,0,0,82,9.53V11.3a9.62,9.62,0,0,0-1.09-.07v5.48a10.92,10.92,0,0,0,.07,1.5h-2A11.88,11.88,0,0,0,79,16.66l-4.62.53a5.61,5.61,0,0,0-.94.15l-.23-1.87a2.51,2.51,0,0,0,.35,0l.73-.05Zm1.86.52H79V11.2H76.14Zm0,1.73H79v-.56H76.14Zm0,1.87c.8,0,.86-.06,2.35-.21l.5-.05v-.44H76.14Zm8.58,1c0,1.82-.37,2.16-2.36,2.16l-.82,0a6.53,6.53,0,0,0-.5-2.1,10.29,10.29,0,0,0,1,.08c.45,0,.53-.06.53-.42V9H79.46c-.54,0-1,0-1.45,0,0-.37,0-.73,0-1.49V5.05C78,4.44,78,4,78,3.52a15.13,15.13,0,0,0,1.7.06h3.39a15.45,15.45,0,0,0,1.7-.06c0,.55-.06,1-.06,1.87ZM80,5.65h2.58v-.6H80Zm0,1.91h2.58V7H80Z"/><path class="cls-2" d="M91.11,16.92a11.67,11.67,0,0,0,.08,1.74H88.85a12,12,0,0,0,.1-1.79V13a10.77,10.77,0,0,1-1.68,1.24,8.49,8.49,0,0,0-1-2.06,11.59,11.59,0,0,0,2.75-2.08,8.58,8.58,0,0,0,1.75-2.46H88.3a11.12,11.12,0,0,0-1.43.07V5.59a9.52,9.52,0,0,0,1.3.06H89V4.34a7.43,7.43,0,0,0-.1-1.27h2.32a6.57,6.57,0,0,0-.1,1.28v1.3h.58a5.46,5.46,0,0,0,1-.05l.94,1a6.58,6.58,0,0,0-.39.75,13.51,13.51,0,0,1-1.58,2.77,8.9,8.9,0,0,0,2.65,2.08,10.71,10.71,0,0,0-1.07,2,8.62,8.62,0,0,1-2.08-1.78Zm7.22-1H100a15.69,15.69,0,0,0,2-.08v2.29a18.06,18.06,0,0,0-2-.1H94.43a16.77,16.77,0,0,0-1.9.1V15.87a15.73,15.73,0,0,0,1.93.08h1.62V9.66H95c-.55,0-1.08,0-1.63.08V7.49A14.49,14.49,0,0,0,95,7.57h1.07V5A15.42,15.42,0,0,0,96,3.1h2.46A11.72,11.72,0,0,0,98.33,5V7.57h1.54a10.52,10.52,0,0,0,1.65-.08V9.74c-.56-.05-1.06-.08-1.65-.08H98.33Z"/></g></g></svg>