<svg xmlns="http://www.w3.org/2000/svg" viewBox="0 0 122.08 21.93"><defs><style>.cls-1{fill:#fff;}.cls-2{fill:#231815;}</style></defs><g id="レイヤー_2" data-name="レイヤー 2"><g id="レイヤー_1-2" data-name="レイヤー 1"><path d="M8.69,14.4A19.78,19.78,0,0,1,4.08,18,6.8,6.8,0,0,0,3,16.12a15.59,15.59,0,0,0,4.16-2.8c-.64.1-.64.1-2.87.4a5.84,5.84,0,0,0-.92.15l-.22-2a3.27,3.27,0,0,0,.4,0,5.68,5.68,0,0,0,.65,0V6.32a9.82,9.82,0,0,0-.1-1.73,10.27,10.27,0,0,0,1.45.08h.59A6.4,6.4,0,0,0,6.72,3l2.21.27-.22.47s-.1.2-.2.43a5.44,5.44,0,0,1-.22.5H9.34a8.93,8.93,0,0,0,1.37-.08,14.1,14.1,0,0,0-.08,1.63v3L11.8,10a1.9,1.9,0,0,0-.27.43c-.17.29-.6,1-.9,1.47v4.84c0,1.49-.44,1.82-2.39,1.82-.43,0-.68,0-1.22-.05a4.81,4.81,0,0,0-.48-2,15.48,15.48,0,0,0,1.73.11c.34,0,.42-.05.42-.26Zm0-8.11H6.11V7H8.69Zm-2.58,3H8.69V8.53H6.11Zm0,2.42c1.21-.1,1.21-.1,2.58-.28V10.8H6.11Zm9-6.21c0-.78,0-1.35-.1-2.1h2.32a18,18,0,0,0-.1,2.12v1a8.44,8.44,0,0,0,1.46-.1V8.56a9.09,9.09,0,0,0-1.46-.08v8c0,1.77-.5,2.14-2.88,2.14-.5,0-.88,0-1.36-.05a6.53,6.53,0,0,0-.51-2.14,13.28,13.28,0,0,0,1.69.14c.77,0,.94-.09.94-.42V8.48H12.88a16.5,16.5,0,0,0-1.8.1V6.41a14,14,0,0,0,1.79.1h2.22ZM13,14.67a14.08,14.08,0,0,0-1.66-3.89l1.72-.85a15.32,15.32,0,0,1,1.81,3.75Z"/><path d="M26.27,8.18a9.54,9.54,0,0,0-.35,1.13,16.17,16.17,0,0,1-2,4.82,12.76,12.76,0,0,1-2.62,3,9.91,9.91,0,0,0-1.74-1.8,10.83,10.83,0,0,0,2.31-2.27,10.12,10.12,0,0,0,1.9-3.94H21.88a11.46,11.46,0,0,0-1.71.1V6.92A9.72,9.72,0,0,0,22,7h1.73a7.35,7.35,0,0,0,1.44-.08Zm8.43-1c-.35.38-.39.42-.92,1A24.84,24.84,0,0,1,30.87,11,13.27,13.27,0,0,0,35.5,15a9.94,9.94,0,0,0-1.57,2.22A14.43,14.43,0,0,1,31.29,15a15.56,15.56,0,0,1-2.6-4.17c0,1.39.06,2.17.06,2.35l0,3.54a1.78,1.78,0,0,1-.45,1.47,2.72,2.72,0,0,1-1.77.44c-.68,0-1.55,0-2.24-.09a5.81,5.81,0,0,0-.55-2.24,18.16,18.16,0,0,0,2.17.19c.5,0,.6-.07.6-.39V5.15a11.11,11.11,0,0,0-.11-1.78h2.47a10.18,10.18,0,0,0-.12,1.8v1.2a9.77,9.77,0,0,0,1,2.74,11.89,11.89,0,0,0,2.9-3.51Z"/><path d="M43,4.39a6.18,6.18,0,0,0-.1-1.16h2.45a5.76,5.76,0,0,0-.1,1.14V5.1h4.51A19.17,19.17,0,0,0,52,5V7.19a17,17,0,0,0-2.14-.08h-11c-.78,0-1.45,0-2.15.08V5a20.38,20.38,0,0,0,2.2.1H43Zm0,4.24a9.14,9.14,0,0,0-.07-1.16h2.37a5.77,5.77,0,0,0-.07,1.16v.18H49.1a15,15,0,0,0,1.67-.07,12.36,12.36,0,0,0-.07,1.47v4.84c0,1.72-.51,2.16-2.6,2.16-.39,0-.74,0-1.44-.07a6.93,6.93,0,0,0-.51-2.1,13.25,13.25,0,0,0,1.51.15c.71,0,.86-.1.86-.54V10.76H45.24v5.86a17.09,17.09,0,0,0,.12,2.16H42.89A17.79,17.79,0,0,0,43,16.64V10.76H40v4.56a16.44,16.44,0,0,0,.08,2.05h-2.4c.06-.65.1-1.25.1-2V10.21a13.93,13.93,0,0,0-.07-1.47c.55,0,1,.07,1.78.07H43Z"/><path d="M64.15,13.3a8.58,8.58,0,0,1-.56,2.7,7.3,7.3,0,0,1-2.17,2.93,7.84,7.84,0,0,0-.79-.94,10.32,10.32,0,0,0-1.4-.07h-3v.77h-2a11.9,11.9,0,0,0,.1-1.77V14c0-.28,0-.3.05-1.45a5.92,5.92,0,0,1-.78.85,7.77,7.77,0,0,0-1-1.75,9.51,9.51,0,0,0,2.62-2.71h-.74A7.69,7.69,0,0,0,53.15,9V7.11a8.14,8.14,0,0,0,1.16.06h.25a6.64,6.64,0,0,0-1.37-.85,7.58,7.58,0,0,0,1.73-3.1l2,.4c-.25.53-.25.53-.42.85h2.54a11.78,11.78,0,0,0,1.67-.08V6.27a13,13,0,0,0-1.56-.06h-.65c-.13.4-.18.53-.35,1h1.49a8.28,8.28,0,0,0,1.23-.06V9a9.5,9.5,0,0,0-1.27-.07H57.34A11.25,11.25,0,0,1,56.61,10h1.1A5.6,5.6,0,0,0,58.24,9l1.59.38c-.17.27-.22.37-.43.69h.28a10.18,10.18,0,0,0,1.17,0V11.6c-.35,0-.72,0-1.17,0h-.57v.65h.42a8.8,8.8,0,0,0,1.12,0v1.46c-.32,0-.69-.05-1.12-.05h-.42v.66h.42a6.37,6.37,0,0,0,1.12-.06v1.49a6.12,6.12,0,0,0-1.12-.05h-.42v.7h.29a6.55,6.55,0,0,0,1.25-.05v.45a5,5,0,0,0,1.67-3.42h-.15a9.41,9.41,0,0,0-1,0,15.57,15.57,0,0,0,.06-1.77V5.37a10,10,0,0,0-.08-1.65,14.33,14.33,0,0,0,1.63.07h3.58A13.11,13.11,0,0,0,68,3.72,18,18,0,0,0,68,5.57v6A18.15,18.15,0,0,0,68,13.38a10.48,10.48,0,0,0-1.47-.08v3c0,.18.09.25.34.25s.37-.05.42-.22a14.39,14.39,0,0,0,.08-2.11A5.41,5.41,0,0,0,69,15a6.93,6.93,0,0,1-.43,3c-.27.45-.85.63-2,.63-1.6,0-2-.25-2-1.3v-4Zm-8-6.13a5.41,5.41,0,0,0,.32-1h-.88a8.59,8.59,0,0,1-.67,1Zm1.29,5v-.65H56.24v.65Zm-1.22,2h1.22v-.66H56.24Zm0,2.08h1.22v-.7H56.24Zm7-9.83H66v-1H63.24Zm0,2.54H66V8.08H63.24Zm0,2.57H66v-1H63.24Z"/><path d="M76.37,5.15a13.43,13.43,0,0,0-.1-1.75h2.42a11.9,11.9,0,0,0-.1,1.77V9.11h2.94l-1.8-1a16.22,16.22,0,0,0,2.4-4l2.1.92A22,22,0,0,1,81.7,9.11H83A18.86,18.86,0,0,0,85,9v2.2a16.8,16.8,0,0,0-2-.1H80.38v5c0,.38.11.44,1.2.44s1.28-.07,1.42-.39a7.42,7.42,0,0,0,.23-2.39,6.56,6.56,0,0,0,2.09.79c-.14,2.19-.39,3.05-1,3.55-.47.37-1.12.47-3.06.47-2.65,0-3.07-.21-3.07-1.6V11.11H76.45A10.7,10.7,0,0,1,76,14.2a6.52,6.52,0,0,1-2.27,3.21A8.24,8.24,0,0,1,71,18.81a9.35,9.35,0,0,0-1.31-2,5.75,5.75,0,0,0,3.42-1.92,5.28,5.28,0,0,0,1-2.64c0-.3.05-.52.09-1.12H72.13c-.7,0-1.3,0-2,.1V9a17.71,17.71,0,0,0,2,.1h4.21ZM72.76,4.07a19.89,19.89,0,0,1,2.43,3.87l-2,1.1a17.73,17.73,0,0,0-2.42-4Z"/><path d="M100.4,11a13.42,13.42,0,0,0,1.54-.07c0,.35,0,.35-.12,3-.06,2.36-.31,3.64-.75,4.16a2.49,2.49,0,0,1-1.83.5h-.75a6.87,6.87,0,0,0-.32-1.91,7.52,7.52,0,0,1-1.34,2.12,9.24,9.24,0,0,0-1.27-1.37,1.34,1.34,0,0,1-.68.94,3.6,3.6,0,0,1-1.37.22,6.53,6.53,0,0,1-.73,0,6.91,6.91,0,0,0-.25-1.7,6.89,6.89,0,0,1-1.16,1.9,6.62,6.62,0,0,0-1.08-1.43l-.17-.17a15,15,0,0,0,.1,1.67H87.89a20.62,20.62,0,0,0,.1-2.22V9.29a10.69,10.69,0,0,0-1.49.09V7.21A9.08,9.08,0,0,0,88,7.29V5a14.86,14.86,0,0,0-.1-1.79h2.33A9.54,9.54,0,0,0,90.12,5V7.29a5.69,5.69,0,0,0,1.17-.07V9.36a9,9,0,0,0-1.17-.07v7.58a6.84,6.84,0,0,0,1.6-4h-.26a2.92,2.92,0,0,0-.75.05v-2a3.87,3.87,0,0,0,.88,0h.25v-.24a6.2,6.2,0,0,0,0-.88h.72a5.65,5.65,0,0,0-1.2-1.35,5.85,5.85,0,0,0,2.87-2.07h-1a9.9,9.9,0,0,0-1.6.08V4.42a17.22,17.22,0,0,0,1.73.08H94.8a7.3,7.3,0,0,0,.06-.93,2.51,2.51,0,0,0,0-.42l2.39.1A4,4,0,0,0,97.1,4c0,.15,0,.16-.07.46h2.59a12.26,12.26,0,0,0,1.64-.08c-.05.35-.05.37-.14,2a6,6,0,0,1-.63,2.86,1.57,1.57,0,0,1-1.15.58A5.28,5.28,0,0,0,99.25,11Zm-6.87,1.92a13,13,0,0,1-.87,3.67,5.38,5.38,0,0,0,.85.08c.28,0,.38-.12.45-.48a19.83,19.83,0,0,0,.25-3.27Zm.23-3c0,.11,0,.15-.05.4v.37a2.38,2.38,0,0,0,0,.35h.88a13.61,13.61,0,0,0,1.55-.07,10.17,10.17,0,0,0,0,1.1,30.78,30.78,0,0,1-.36,4.93,7.19,7.19,0,0,0,1.55-4,3.75,3.75,0,0,0-.82.05v-2a3.78,3.78,0,0,0,.94.07v-.5a4.7,4.7,0,0,0,0-.54l-.8,0A6,6,0,0,0,96.06,8a13.8,13.8,0,0,0,2,.16c.6,0,.7-.21.79-1.71H96.52a6.81,6.81,0,0,1-3.21,3.42Zm5.36,3a12,12,0,0,1-.89,3.65,5.27,5.27,0,0,0,1,.1c.32,0,.43-.06.48-.28a18.26,18.26,0,0,0,.3-3.47Z"/><path d="M106.68,8.94a17.65,17.65,0,0,1-2.52,1.31,7,7,0,0,0-1.1-2.07,14.38,14.38,0,0,0,4-2.11,10.27,10.27,0,0,0,2.72-2.75h2.32A10.05,10.05,0,0,0,114.94,6a15.85,15.85,0,0,0,4.14,2.06,9.63,9.63,0,0,0-1,2.23,15,15,0,0,1-2.67-1.36v1.13a14.19,14.19,0,0,0-1.56-.06h-5.66a14.18,14.18,0,0,0-1.48.06Zm-.87,4.23a15.5,15.5,0,0,0-2,.1V11.05c.57,0,1.24.08,2,.08h10.47c.8,0,1.43,0,2-.08v2.22a15.44,15.44,0,0,0-2-.1h-5.65a20.4,20.4,0,0,1-1.6,3c3.36-.17,3.36-.17,4.78-.33-.54-.6-.81-.9-1.61-1.74l2-.83A36.43,36.43,0,0,1,118,17.67l-2,1.24c-.46-.74-.61-.95-.88-1.35-1.6.21-1.64.21-2.56.3s-5.7.52-6.34.55a18.31,18.31,0,0,0-1.84.2l-.28-2.39c.5,0,.75,0,1.17,0h1.18a21,21,0,0,0,1.64-3.07ZM114,8a13.14,13.14,0,0,1-3-2.77A12.75,12.75,0,0,1,108.06,8Z"/><path class="cls-1" d="M14.33,21.66c-.57,0-1,0-1.57-.06a2.92,2.92,0,0,1-1.53-.55,7.3,7.3,0,0,1-3,.54c-.48,0-.77,0-1.35-.05a3.1,3.1,0,0,1-1.79-.72,3.21,3.21,0,0,1-1,.17,3.14,3.14,0,0,1-1-.15,3,3,0,0,1-1.81-1.7A3.94,3.94,0,0,0,.66,18a3,3,0,0,1-.21-3.45c0-.12,0-.24-.07-.36l-.21-2A3,3,0,0,1,1,9.78L1.2,9.6V6.32A8.29,8.29,0,0,0,1.13,5,3,3,0,0,1,2,2.46a3,3,0,0,1,2.09-.87A3,3,0,0,1,6.72,0l.36,0L9.29.29a3,3,0,0,1,2.18,1.39,2.87,2.87,0,0,1,.84.37,3.07,3.07,0,0,1,.46-.67A3,3,0,0,1,15,.4h2.32a3,3,0,0,1,3,3.31l0,.16a2.35,2.35,0,0,1,.32.23,3,3,0,0,1,1.08,2.31V8.56a3,3,0,0,1-1,2.26,3.28,3.28,0,0,1-.44.32v5.38C20.21,21.66,15.94,21.66,14.33,21.66Z"/><path class="cls-1" d="M26.55,21.58c-.75,0-1.69,0-2.46-.1a3,3,0,0,1-2.29-1.36,2.47,2.47,0,0,1-.54.05H21A3,3,0,0,1,18.87,19a6.82,6.82,0,0,0-1.22-1.28,3,3,0,0,1-1.13-2.39A3,3,0,0,1,17.72,13a9,9,0,0,0,1.15-1,3,3,0,0,1-1.7-2.7V6.92a3,3,0,0,1,3-3A3.17,3.17,0,0,1,20.7,4,8.73,8.73,0,0,0,22,4h1.45a1.11,1.11,0,0,1,0-.17,3,3,0,0,1,3-3.48h2.47a3,3,0,0,1,2.28,1,3.11,3.11,0,0,1,.65,1.31l.15,0a2.72,2.72,0,0,1,.69-.09,3,3,0,0,1,1.81.61l2,1.54a2.92,2.92,0,0,1,1.18,2.11,3,3,0,0,1-.77,2.3l-.08.09-.78.89c-.3.34-.61.68-.95,1a9.29,9.29,0,0,0,1.8,1.21A3,3,0,0,1,37.72,17a7,7,0,0,0-1.2,1.7,3,3,0,0,1-2,1.43,2.7,2.7,0,0,1-.63.07,3,3,0,0,1-1.74-.56c-.32-.22-.61-.44-.87-.64a4.15,4.15,0,0,1-1,1.33A5.43,5.43,0,0,1,26.55,21.58Z"/><path class="cls-1" d="M42.89,21.78a3,3,0,0,1-2.24-1,2,2,0,0,1-.3-.41H37.72a3,3,0,0,1-2.23-1,3,3,0,0,1-.76-2.31,16,16,0,0,0,.09-1.73V10.21c0-.25,0-.46,0-.65l-.2-.17a3,3,0,0,1-1-2.2V5a3,3,0,0,1,3-3l.28,0c.58,0,1.08.08,1.92.08h1.26a3.59,3.59,0,0,1,.44-.75A3,3,0,0,1,42.91.23h2.45a3,3,0,0,1,2.31,1.09,2.85,2.85,0,0,1,.47.78h1.63A17.89,17.89,0,0,0,51.67,2L52,2a3,3,0,0,1,3,3V7.19a3,3,0,0,1-1,2.23,1.71,1.71,0,0,1-.26.21c0,.17,0,.35,0,.58v4.84c0,3.42-1.88,5.16-5.6,5.16H48a3.44,3.44,0,0,1-.39.55,3,3,0,0,1-2.25,1Z"/><path class="cls-1" d="M61.42,21.93l-.3,0a3,3,0,0,1-1.94-1h-.93a3,3,0,0,1-2,.77h-2a3,3,0,0,1-3-3.4,10.47,10.47,0,0,0,.07-1.37v-1.6a3.13,3.13,0,0,1-.53-.88,4.5,4.5,0,0,0-.59-1.1,3,3,0,0,1-.52-2.26,3.12,3.12,0,0,1,.54-1.27A2.92,2.92,0,0,1,50.15,9V7.11a3,3,0,0,1,.05-.52,3,3,0,0,1,.74-2.25A4.88,4.88,0,0,0,52,2.5,3,3,0,0,1,54.92.22a3,3,0,0,1,.59.06l2,.4A3,3,0,0,1,59,1.47h.19a3,3,0,0,1,2-.75,1.77,1.77,0,0,1,.32,0c.34,0,.68.05,1.31.05h3.58A10.57,10.57,0,0,0,67.7.74l.34,0A3,3,0,0,1,71,4a14.73,14.73,0,0,0,0,1.55v6c0,.61,0,.94,0,1.23a3,3,0,0,1,1,2.33c-.06,2.13-.22,3.41-.89,4.46-1.26,2-3.7,2-4.51,2a6.5,6.5,0,0,1-3-.63l-.24.22A3,3,0,0,1,61.42,21.93Z"/><path class="cls-1" d="M71,21.81a3,3,0,0,1-2.67-1.64,6.45,6.45,0,0,0-.95-1.46,3,3,0,0,1,1.47-4.8,2.91,2.91,0,0,1-.69-.47,3,3,0,0,1-1-2.23V9a3,3,0,0,1,1-2.24l.12-.1a3,3,0,0,1,1.19-4.33l2-1a3,3,0,0,1,2.63,0,3,3,0,0,1,2.2-1h2.42a3,3,0,0,1,2.17.93,3.09,3.09,0,0,1,1.27-.28,3,3,0,0,1,1.2.25l2.1.92a3,3,0,0,1,1.5,4.07c-.05.1-.1.19-.14.28l.26.21A3,3,0,0,1,88,9v2.2a3,3,0,0,1-.38,1.47,3,3,0,0,1,.66,2.07c-.13,2.23-.4,4.35-2.15,5.73-1.32,1-2.8,1.11-4.92,1.11-1.48,0-4.19,0-5.42-2l-.22.17a11,11,0,0,1-3.67,1.88A3,3,0,0,1,71,21.81Z"/><path class="cls-1" d="M87.89,21.81a3,3,0,0,1-2.25-1,3,3,0,0,1-.73-2.34A17.65,17.65,0,0,0,85,16.59V12a3,3,0,0,1-.46-.33,3,3,0,0,1-1-2.26V7.21a3,3,0,0,1,1-2.28A2.61,2.61,0,0,1,85,4.62a10,10,0,0,0-.07-1,3,3,0,0,1,.73-2.35,3,3,0,0,1,2.25-1h2.33a3,3,0,0,1,2.27,1,.86.86,0,0,1,.13-.14,3,3,0,0,1,2.21-1l2.51.1a3,3,0,0,1,2.28,1.21l0,0a8.59,8.59,0,0,0,1.24-.06l.37,0a3,3,0,0,1,3,3.42c0,.21,0,.21-.1,1.61v.13a13.52,13.52,0,0,1-.24,2l.18.16a3,3,0,0,1,.87,2.42c0,.24,0,.25-.11,2.86-.09,3.17-.49,4.85-1.45,6l-.12.14a5.46,5.46,0,0,1-4,1.43c-.12,0-.46,0-.89,0a1.73,1.73,0,0,1-.32,0,2.87,2.87,0,0,1-1.2.25h-.12a3,3,0,0,1-1.41-.42,7.59,7.59,0,0,1-1.79.21h0c-.18,0-.45,0-1,0h0a3,3,0,0,1-1.12.21h-.12a1.27,1.27,0,0,1-.28,0,2.66,2.66,0,0,1-.75.1Z"/><path class="cls-1" d="M116.05,21.91a3,3,0,0,1-2.36-1.14l-.81.07c-.76.08-5.73.53-6.46.56s-1.26.13-1.48.16a3,3,0,0,1-.52.05,3,3,0,0,1-1.79-.6A3,3,0,0,1,101.45,19l-.29-2.38a3.06,3.06,0,0,1,.23-1.56,3,3,0,0,1-.57-1.75V11.05a2.82,2.82,0,0,1,.09-.71,3.38,3.38,0,0,0-.25-.36,3,3,0,0,1,1.4-4.63,11.28,11.28,0,0,0,3.26-1.71,7.4,7.4,0,0,0,2-2A3,3,0,0,1,109.8.32h2.32a3,3,0,0,1,2.41,1.22,7.47,7.47,0,0,0,2.09,2A13,13,0,0,0,120,5.21a3,3,0,0,1,1.65,4.37c-.21.35-.35.61-.47.86a3.08,3.08,0,0,1,.06.61v2.22a3,3,0,0,1-1,2.24l-.07.07.23.31a3,3,0,0,1,.53,2.34,3,3,0,0,1-1.34,2l-1.95,1.23A3,3,0,0,1,116.05,21.91Z"/><path class="cls-2" d="M8.69,14.4A19.78,19.78,0,0,1,4.08,18,6.8,6.8,0,0,0,3,16.12a15.59,15.59,0,0,0,4.16-2.8c-.64.1-.64.1-2.87.4a5.84,5.84,0,0,0-.92.15l-.22-2a3.27,3.27,0,0,0,.4,0,5.68,5.68,0,0,0,.65,0V6.32a9.82,9.82,0,0,0-.1-1.73,10.27,10.27,0,0,0,1.45.08h.59A6.4,6.4,0,0,0,6.72,3l2.21.27-.22.47s-.1.2-.2.43a5.44,5.44,0,0,1-.22.5H9.34a8.93,8.93,0,0,0,1.37-.08,14.1,14.1,0,0,0-.08,1.63v3L11.8,10a1.9,1.9,0,0,0-.27.43c-.17.29-.6,1-.9,1.47v4.84c0,1.49-.44,1.82-2.39,1.82-.43,0-.68,0-1.22-.05a4.81,4.81,0,0,0-.48-2,15.48,15.48,0,0,0,1.73.11c.34,0,.42-.05.42-.26Zm0-8.11H6.11V7H8.69Zm-2.58,3H8.69V8.53H6.11Zm0,2.42c1.21-.1,1.21-.1,2.58-.28V10.8H6.11Zm9-6.21c0-.78,0-1.35-.1-2.1h2.32a18,18,0,0,0-.1,2.12v1a8.44,8.44,0,0,0,1.46-.1V8.56a9.09,9.09,0,0,0-1.46-.08v8c0,1.77-.5,2.14-2.88,2.14-.5,0-.88,0-1.36-.05a6.53,6.53,0,0,0-.51-2.14,13.28,13.28,0,0,0,1.69.14c.77,0,.94-.09.94-.42V8.48H12.88a16.5,16.5,0,0,0-1.8.1V6.41a14,14,0,0,0,1.79.1h2.22ZM13,14.67a14.08,14.08,0,0,0-1.66-3.89l1.72-.85a15.32,15.32,0,0,1,1.81,3.75Z"/><path class="cls-2" d="M26.27,8.18a9.54,9.54,0,0,0-.35,1.13,16.17,16.17,0,0,1-2,4.82,12.76,12.76,0,0,1-2.62,3,9.91,9.91,0,0,0-1.74-1.8,10.83,10.83,0,0,0,2.31-2.27,10.12,10.12,0,0,0,1.9-3.94H21.88a11.46,11.46,0,0,0-1.71.1V6.92A9.72,9.72,0,0,0,22,7h1.73a7.35,7.35,0,0,0,1.44-.08Zm8.43-1c-.35.38-.39.42-.92,1A24.84,24.84,0,0,1,30.87,11,13.27,13.27,0,0,0,35.5,15a9.94,9.94,0,0,0-1.57,2.22A14.43,14.43,0,0,1,31.29,15a15.56,15.56,0,0,1-2.6-4.17c0,1.39.06,2.17.06,2.35l0,3.54a1.78,1.78,0,0,1-.45,1.47,2.72,2.72,0,0,1-1.77.44c-.68,0-1.55,0-2.24-.09a5.81,5.81,0,0,0-.55-2.24,18.16,18.16,0,0,0,2.17.19c.5,0,.6-.07.6-.39V5.15a11.11,11.11,0,0,0-.11-1.78h2.47a10.18,10.18,0,0,0-.12,1.8v1.2a9.77,9.77,0,0,0,1,2.74,11.89,11.89,0,0,0,2.9-3.51Z"/><path class="cls-2" d="M43,4.39a6.18,6.18,0,0,0-.1-1.16h2.45a5.76,5.76,0,0,0-.1,1.14V5.1h4.51A19.17,19.17,0,0,0,52,5V7.19a17,17,0,0,0-2.14-.08h-11c-.78,0-1.45,0-2.15.08V5a20.38,20.38,0,0,0,2.2.1H43Zm0,4.24a9.14,9.14,0,0,0-.07-1.16h2.37a5.77,5.77,0,0,0-.07,1.16v.18H49.1a15,15,0,0,0,1.67-.07,12.36,12.36,0,0,0-.07,1.47v4.84c0,1.72-.51,2.16-2.6,2.16-.39,0-.74,0-1.44-.07a6.93,6.93,0,0,0-.51-2.1,13.25,13.25,0,0,0,1.51.15c.71,0,.86-.1.86-.54V10.76H45.24v5.86a17.09,17.09,0,0,0,.12,2.16H42.89A17.79,17.79,0,0,0,43,16.64V10.76H40v4.56a16.44,16.44,0,0,0,.08,2.05h-2.4c.06-.65.1-1.25.1-2V10.21a13.93,13.93,0,0,0-.07-1.47c.55,0,1,.07,1.78.07H43Z"/><path class="cls-2" d="M64.15,13.3a8.58,8.58,0,0,1-.56,2.7,7.3,7.3,0,0,1-2.17,2.93,7.84,7.84,0,0,0-.79-.94,10.32,10.32,0,0,0-1.4-.07h-3v.77h-2a11.9,11.9,0,0,0,.1-1.77V14c0-.28,0-.3.05-1.45a5.92,5.92,0,0,1-.78.85,7.77,7.77,0,0,0-1-1.75,9.51,9.51,0,0,0,2.62-2.71h-.74A7.69,7.69,0,0,0,53.15,9V7.11a8.14,8.14,0,0,0,1.16.06h.25a6.64,6.64,0,0,0-1.37-.85,7.58,7.58,0,0,0,1.73-3.1l2,.4c-.25.53-.25.53-.42.85h2.54a11.78,11.78,0,0,0,1.67-.08V6.27a13,13,0,0,0-1.56-.06h-.65c-.13.4-.18.53-.35,1h1.49a8.28,8.28,0,0,0,1.23-.06V9a9.5,9.5,0,0,0-1.27-.07H57.34A11.25,11.25,0,0,1,56.61,10h1.1A5.6,5.6,0,0,0,58.24,9l1.59.38c-.17.27-.22.37-.43.69h.28a10.18,10.18,0,0,0,1.17,0V11.6c-.35,0-.72,0-1.17,0h-.57v.65h.42a8.8,8.8,0,0,0,1.12,0v1.46c-.32,0-.69-.05-1.12-.05h-.42v.66h.42a6.37,6.37,0,0,0,1.12-.06v1.49a6.12,6.12,0,0,0-1.12-.05h-.42v.7h.29a6.55,6.55,0,0,0,1.25-.05v.45a5,5,0,0,0,1.67-3.42h-.15a9.41,9.41,0,0,0-1,0,15.57,15.57,0,0,0,.06-1.77V5.37a10,10,0,0,0-.08-1.65,14.33,14.33,0,0,0,1.63.07h3.58A13.11,13.11,0,0,0,68,3.72,18,18,0,0,0,68,5.57v6A18.15,18.15,0,0,0,68,13.38a10.48,10.48,0,0,0-1.47-.08v3c0,.18.09.25.34.25s.37-.05.42-.22a14.39,14.39,0,0,0,.08-2.11A5.41,5.41,0,0,0,69,15a6.93,6.93,0,0,1-.43,3c-.27.45-.85.63-2,.63-1.6,0-2-.25-2-1.3v-4Zm-8-6.13a5.41,5.41,0,0,0,.32-1h-.88a8.59,8.59,0,0,1-.67,1Zm1.29,5v-.65H56.24v.65Zm-1.22,2h1.22v-.66H56.24Zm0,2.08h1.22v-.7H56.24Zm7-9.83H66v-1H63.24Zm0,2.54H66V8.08H63.24Zm0,2.57H66v-1H63.24Z"/><path class="cls-2" d="M76.37,5.15a13.43,13.43,0,0,0-.1-1.75h2.42a11.9,11.9,0,0,0-.1,1.77V9.11h2.94l-1.8-1a16.22,16.22,0,0,0,2.4-4l2.1.92A22,22,0,0,1,81.7,9.11H83A18.86,18.86,0,0,0,85,9v2.2a16.8,16.8,0,0,0-2-.1H80.38v5c0,.38.11.44,1.2.44s1.28-.07,1.42-.39a7.42,7.42,0,0,0,.23-2.39,6.56,6.56,0,0,0,2.09.79c-.14,2.19-.39,3.05-1,3.55-.47.37-1.12.47-3.06.47-2.65,0-3.07-.21-3.07-1.6V11.11H76.45A10.7,10.7,0,0,1,76,14.2a6.52,6.52,0,0,1-2.27,3.21A8.24,8.24,0,0,1,71,18.81a9.35,9.35,0,0,0-1.31-2,5.75,5.75,0,0,0,3.42-1.92,5.28,5.28,0,0,0,1-2.64c0-.3.05-.52.09-1.12H72.13c-.7,0-1.3,0-2,.1V9a17.71,17.71,0,0,0,2,.1h4.21ZM72.76,4.07a19.89,19.89,0,0,1,2.43,3.87l-2,1.1a17.73,17.73,0,0,0-2.42-4Z"/><path class="cls-2" d="M100.4,11a13.42,13.42,0,0,0,1.54-.07c0,.35,0,.35-.12,3-.06,2.36-.31,3.64-.75,4.16a2.49,2.49,0,0,1-1.83.5h-.75a6.87,6.87,0,0,0-.32-1.91,7.52,7.52,0,0,1-1.34,2.12,9.24,9.24,0,0,0-1.27-1.37,1.34,1.34,0,0,1-.68.94,3.6,3.6,0,0,1-1.37.22,6.53,6.53,0,0,1-.73,0,6.91,6.91,0,0,0-.25-1.7,6.89,6.89,0,0,1-1.16,1.9,6.62,6.62,0,0,0-1.08-1.43l-.17-.17a15,15,0,0,0,.1,1.67H87.89a20.62,20.62,0,0,0,.1-2.22V9.29a10.69,10.69,0,0,0-1.49.09V7.21A9.08,9.08,0,0,0,88,7.29V5a14.86,14.86,0,0,0-.1-1.79h2.33A9.54,9.54,0,0,0,90.12,5V7.29a5.69,5.69,0,0,0,1.17-.07V9.36a9,9,0,0,0-1.17-.07v7.58a6.84,6.84,0,0,0,1.6-4h-.26a2.92,2.92,0,0,0-.75.05v-2a3.87,3.87,0,0,0,.88,0h.25v-.24a6.2,6.2,0,0,0,0-.88h.72a5.65,5.65,0,0,0-1.2-1.35,5.85,5.85,0,0,0,2.87-2.07h-1a9.9,9.9,0,0,0-1.6.08V4.42a17.22,17.22,0,0,0,1.73.08H94.8a7.3,7.3,0,0,0,.06-.93,2.51,2.51,0,0,0,0-.42l2.39.1A4,4,0,0,0,97.1,4c0,.15,0,.16-.07.46h2.59a12.26,12.26,0,0,0,1.64-.08c-.05.35-.05.37-.14,2a6,6,0,0,1-.63,2.86,1.57,1.57,0,0,1-1.15.58A5.28,5.28,0,0,0,99.25,11Zm-6.87,1.92a13,13,0,0,1-.87,3.67,5.38,5.38,0,0,0,.85.08c.28,0,.38-.12.45-.48a19.83,19.83,0,0,0,.25-3.27Zm.23-3c0,.11,0,.15-.05.4v.37a2.38,2.38,0,0,0,0,.35h.88a13.61,13.61,0,0,0,1.55-.07,10.17,10.17,0,0,0,0,1.1,30.78,30.78,0,0,1-.36,4.93,7.19,7.19,0,0,0,1.55-4,3.75,3.75,0,0,0-.82.05v-2a3.78,3.78,0,0,0,.94.07v-.5a4.7,4.7,0,0,0,0-.54l-.8,0A6,6,0,0,0,96.06,8a13.8,13.8,0,0,0,2,.16c.6,0,.7-.21.79-1.71H96.52a6.81,6.81,0,0,1-3.21,3.42Zm5.36,3a12,12,0,0,1-.89,3.65,5.27,5.27,0,0,0,1,.1c.32,0,.43-.06.48-.28a18.26,18.26,0,0,0,.3-3.47Z"/><path class="cls-2" d="M106.68,8.94a17.65,17.65,0,0,1-2.52,1.31,7,7,0,0,0-1.1-2.07,14.38,14.38,0,0,0,4-2.11,10.27,10.27,0,0,0,2.72-2.75h2.32A10.05,10.05,0,0,0,114.94,6a15.85,15.85,0,0,0,4.14,2.06,9.63,9.63,0,0,0-1,2.23,15,15,0,0,1-2.67-1.36v1.13a14.19,14.19,0,0,0-1.56-.06h-5.66a14.18,14.18,0,0,0-1.48.06Zm-.87,4.23a15.5,15.5,0,0,0-2,.1V11.05c.57,0,1.24.08,2,.08h10.47c.8,0,1.43,0,2-.08v2.22a15.44,15.44,0,0,0-2-.1h-5.65a20.4,20.4,0,0,1-1.6,3c3.36-.17,3.36-.17,4.78-.33-.54-.6-.81-.9-1.61-1.74l2-.83A36.43,36.43,0,0,1,118,17.67l-2,1.24c-.46-.74-.61-.95-.88-1.35-1.6.21-1.64.21-2.56.3s-5.7.52-6.34.55a18.31,18.31,0,0,0-1.84.2l-.28-2.39c.5,0,.75,0,1.17,0h1.18a21,21,0,0,0,1.64-3.07ZM114,8a13.14,13.14,0,0,1-3-2.77A12.75,12.75,0,0,1,108.06,8Z"/></g></g></svg>