<svg xmlns="http://www.w3.org/2000/svg" viewBox="0 0 240.71 21.88"><defs><style>.cls-1{fill:#fff;}.cls-2{fill:#231815;}</style></defs><g id="レイヤー_2" data-name="レイヤー 2"><g id="レイヤー_1-2" data-name="レイヤー 1"><path d="M13.28,3.88A13.21,13.21,0,0,0,15.1,3.8C15,4.5,15,5,15,5.59V16.4a18.28,18.28,0,0,0,.1,2.14H12.73v-.92H5.35v.92H3a19.47,19.47,0,0,0,.1-2.14V5.64C3.1,5,3.07,4.42,3,3.8c.53.05,1.11.08,1.88.08Zm-.55,5.68V6H5.35V9.56ZM5.35,11.63v3.89h7.38V11.63Z"/><path d="M27.74,7.89a14.1,14.1,0,0,0,2.57,3.47,13.77,13.77,0,0,0,3.44,2.54,7.66,7.66,0,0,0-1.26,2.19,16.79,16.79,0,0,1-2.72-2.21v1.71a16.17,16.17,0,0,0-1.67-.09H26.75v1a15.25,15.25,0,0,0,.12,2.15H24.41a15.34,15.34,0,0,0,.12-2.15v-1H23.31a16.34,16.34,0,0,0-1.67.09V13.9A15.29,15.29,0,0,1,19,16.12,6.86,6.86,0,0,0,17.8,14a14.21,14.21,0,0,0,3.38-2.81,15,15,0,0,0,2.28-3.32H20.39A14.78,14.78,0,0,0,18.34,8V5.7a14.41,14.41,0,0,0,2.05.12h4.14V4.72a9.48,9.48,0,0,0-.1-1.55h2.42a9.24,9.24,0,0,0-.1,1.55v1.1h4.34a13.93,13.93,0,0,0,2.09-.12V8a15.48,15.48,0,0,0-2.09-.12ZM24.53,11.4a14.68,14.68,0,0,1,.1-1.66A14.51,14.51,0,0,1,22,13.47c.29,0,.59,0,1.16,0h1.33Zm3.74,2.1a10.55,10.55,0,0,0,1.09,0,16.2,16.2,0,0,1-2.71-3.74c.08.95.1,1.27.1,1.63V13.5Z"/><path d="M38.43,15.55a11.5,11.5,0,0,1-2.17,3.33,8,8,0,0,0-1.6-1.42,9,9,0,0,0,2-2.88Zm5.45-7.16a17.9,17.9,0,0,0-1.82.1V6.32a14.52,14.52,0,0,0,1.83.1h2.56V5.32a17.68,17.68,0,0,0-.1-1.94h2.32a15.39,15.39,0,0,0-.1,1.94v1.1h.1a9.56,9.56,0,0,0,1.58-.1V8.49a8.47,8.47,0,0,0-1.52-.1h-.16v8.13c0,1-.24,1.54-.84,1.82a4.43,4.43,0,0,1-1.72.22c-.47,0-1.07,0-1.55-.07a7.39,7.39,0,0,0-.5-2.15,15.22,15.22,0,0,0,1.7.16c.64,0,.79-.08.79-.45V11a14.89,14.89,0,0,1-1.86,2.79,13.12,13.12,0,0,1-2.23,2.13,11.39,11.39,0,0,0-.91-1.3c-.16,0-.5,0-1,0H36.7a9.17,9.17,0,0,0-1.15,0,16.11,16.11,0,0,0,.06-1.7V5.2c0-.61,0-.87-.06-1.53A14.18,14.18,0,0,0,37,3.73h3.25a11.42,11.42,0,0,0,1.42-.06,11.56,11.56,0,0,0-.07,1.4V13.6a13.63,13.63,0,0,0,4.11-5.21ZM37.62,6.86h2V5.6h-2Zm0,2.9h2V8.53h-2Zm0,3h2V11.46h-2Zm2.8,1.89a13.14,13.14,0,0,0,1.94,2.6,9.92,9.92,0,0,0-1.72,1.32,21.61,21.61,0,0,1-1.87-3Z"/><path d="M51.83,18.62a16.79,16.79,0,0,0,.1-2.23V5.69a17.17,17.17,0,0,0-.08-2,15.61,15.61,0,0,0,1.95.08H64.45a16,16,0,0,0,2-.08,17.1,17.1,0,0,0-.09,2V16.4a19.3,19.3,0,0,0,.1,2.22H64.19v-.86H54.09v.86Zm2.26-2.8H64.17V5.72H54.09ZM60,7.22a4.07,4.07,0,0,0-.1-1.15H62.2a4.34,4.34,0,0,0-.1,1.15v.37h.28a8.64,8.64,0,0,0,1.29-.08v2a9.4,9.4,0,0,0-1.34-.08H62.1v4.16c0,1.52-.48,1.87-2.52,1.87-.42,0-.6,0-1.57-.05a5.05,5.05,0,0,0-.5-1.94,14.58,14.58,0,0,0,1.94.17c.43,0,.56-.1.56-.49V9.46H56.22a10.85,10.85,0,0,0-1.53.08v-2a10.15,10.15,0,0,0,1.53.08H60Zm-2.82,6.36a11.88,11.88,0,0,0-1.83-3l1.72-1a15.24,15.24,0,0,1,2,3Z"/><path d="M74.7,7.47a13,13,0,0,1,2.69,2.11L76,11.21A11.4,11.4,0,0,0,73.3,9Zm2.67,6.05a27.42,27.42,0,0,1-2,5.19l-1.87-1.59a14.64,14.64,0,0,0,2.1-5Zm-2-10.29A14.52,14.52,0,0,1,78,5.4L76.44,7A11.77,11.77,0,0,0,73.86,4.7Zm11,1.32a16.25,16.25,0,0,0,2.51-.11V6.56a21.65,21.65,0,0,0-2.24-.07H80.44c-.23.35-.38.58-.63.93h6.31c.8,0,1.37,0,1.77,0a24.21,24.21,0,0,0-.17,3.36,8.41,8.41,0,0,0,1.39-.08v2.08a10.15,10.15,0,0,0-1.32-.08h-.15c0,.68,0,.68-.14,1.63a5,5,0,0,0,1.17-.08v2.07a8.79,8.79,0,0,0-1.23-.07H87.3c-.33,2-.75,2.44-2.5,2.44-.25,0-.87,0-1.55-.08a4.68,4.68,0,0,0-.39-1.87,9.63,9.63,0,0,0,1.46.13c.58,0,.68-.07.85-.62H80c-.1.55-.13.72-.28,1.37l-2.22-.2a27.81,27.81,0,0,0,1.07-4.72h-.32a7.46,7.46,0,0,0-1.18.08V10.65a10.94,10.94,0,0,0,1.53.08h.19c.1-1.12.11-1.52.13-2.17a11,11,0,0,1-.94.88,5.7,5.7,0,0,0-1.36-1.72,8.85,8.85,0,0,0,2.2-2.4,7.05,7.05,0,0,0,1-2.32L82,3.42c-.1.21-.1.21-.35.78-.06.13-.1.2-.16.35Zm-5.79,8.1c-.06.55-.06.55-.23,1.63h1.55c.07-.48.1-.71.18-1.63Zm1.67-1.92c.05-.67.05-.74.09-1.47H80.83c0,.73,0,.93-.1,1.47ZM84,12.65c-.09.85-.12,1.13-.2,1.63h1.67c.06-.58.1-1,.15-1.63Zm1.7-1.92q0-1.05,0-1.47h-1.5l-.08,1.47Z"/><path d="M97.13,3.52a28.06,28.06,0,0,0,1,5.09c.92-.33,1.62-.55,4.22-1.37A3.38,3.38,0,0,0,103,7l.84,2.54a33,33,0,0,0-5.75,1.57c-2.28.85-3.45,1.82-3.45,2.88s1.1,1.59,3.57,1.59a19.06,19.06,0,0,0,5.59-.74l.2,2.73c-.36,0-.45,0-1.4.13a41.72,41.72,0,0,1-4.19.27c-2.89,0-4.74-.55-5.62-1.67a3.62,3.62,0,0,1-.74-2.22,4.08,4.08,0,0,1,1.49-3.14,9.53,9.53,0,0,1,2.3-1.45C95.48,8.11,95.21,7,94.81,5a5.82,5.82,0,0,0-.27-1.08Z"/><path d="M119,3.88a13.29,13.29,0,0,0,1.82-.08,16.65,16.65,0,0,0-.08,1.79V16.4a18.28,18.28,0,0,0,.1,2.14h-2.39v-.92h-7.38v.92H108.7c.06-.63.1-1.33.1-2.14V5.64c0-.64,0-1.22-.09-1.84.54.05,1.12.08,1.89.08Zm-.55,5.68V6h-7.38V9.56Zm-7.38,2.07v3.89h7.38V11.63Z"/><path d="M133.43,7.89A14.36,14.36,0,0,0,136,11.36a14.14,14.14,0,0,0,3.44,2.54,7.88,7.88,0,0,0-1.25,2.19,16.79,16.79,0,0,1-2.72-2.21v1.71a16.17,16.17,0,0,0-1.67-.09h-1.35v1a15.25,15.25,0,0,0,.12,2.15h-2.46a17,17,0,0,0,.12-2.15v-1H129a16.17,16.17,0,0,0-1.67.09V13.9a15.29,15.29,0,0,1-2.62,2.22A6.86,6.86,0,0,0,123.5,14a14,14,0,0,0,3.37-2.81,15.06,15.06,0,0,0,2.29-3.32h-3.07A15,15,0,0,0,124,8V5.7a14.56,14.56,0,0,0,2.06.12h4.14V4.72a10.76,10.76,0,0,0-.1-1.55h2.42a9.24,9.24,0,0,0-.1,1.55v1.1h4.34a14,14,0,0,0,2.09-.12V8a15.48,15.48,0,0,0-2.09-.12Zm-3.2,3.51a14.68,14.68,0,0,1,.1-1.66,14.77,14.77,0,0,1-2.59,3.73,11.45,11.45,0,0,0,1.15,0h1.34ZM134,13.5a10.23,10.23,0,0,0,1.08,0,16.17,16.17,0,0,1-2.7-3.74c.08.95.1,1.27.1,1.63V13.5Z"/><path d="M151.71,5a5.13,5.13,0,0,0,.72,0,1.84,1.84,0,0,1,1.83-1.72,1.86,1.86,0,0,1,0,3.71h-.07l-.06.23a15.94,15.94,0,0,1-3.31,6.76,16.45,16.45,0,0,1-6.29,4.39,7.65,7.65,0,0,0-1.77-2.38,13.54,13.54,0,0,0,3.59-1.66,11.1,11.1,0,0,0,5-7H144a20.3,20.3,0,0,0-2.59.1V4.87a17,17,0,0,0,2.62.12Zm1.73.1a.82.82,0,0,0,1.64,0,.82.82,0,0,0-1.64,0Z"/><path d="M161,16.55v1.16h-2.57c.05-.65.08-1.36.08-2.36V7.11a19.66,19.66,0,0,0-.07-2.21,19.81,19.81,0,0,0,2.41.07h7.79c1.41,0,1.82,0,2.51-.07-.05.59-.07,1.32-.07,2.29v8.06a23.74,23.74,0,0,0,.08,2.44h-2.57V16.55Zm7.59-9.33H161V14.3h7.61Z"/><path d="M175.84,8a23.23,23.23,0,0,1,4.54,2.3l-1.22,2.24a19.37,19.37,0,0,0-4.64-2.52Zm-.9,7.4a15,15,0,0,0,5-1.11,9.93,9.93,0,0,0,4.74-3.63A12.54,12.54,0,0,0,186.56,7a9.07,9.07,0,0,0,2.08,1.78,14.83,14.83,0,0,1-2.55,4.28c-2.22,2.55-5,4-9.26,4.77-.52.1-.84.18-1.19.28ZM177.11,4a27.43,27.43,0,0,1,4.61,2.17l-1.27,2.19A19.66,19.66,0,0,0,175.84,6Zm9,.22a8.92,8.92,0,0,1,1.39,2.25L186,7.12a10.22,10.22,0,0,0-1.37-2.32ZM188,3.35a9.39,9.39,0,0,1,1.39,2.17L188,6.21A12,12,0,0,0,186.64,4Z"/><path d="M199.29,15.54h2.61a17.16,17.16,0,0,0,2.28-.1v2.22c-.58-.05-1.25-.09-2.3-.09h-7.55a13.25,13.25,0,0,0-2.12.09V15.44a12.83,12.83,0,0,0,2.11.1H197V10.36h-1.63a18.9,18.9,0,0,0-2.12.09V8.26a15.64,15.64,0,0,0,2.1.1h5.59a13.75,13.75,0,0,0,2.19-.12v2.21a18.11,18.11,0,0,0-2.19-.09h-1.65Z"/><path d="M215.55,3.8a7.14,7.14,0,0,0-.49,1c-.15.33-.21.48-.4.85l4.34,0a3.57,3.57,0,0,0,1.2-.19l1.22,1.21A3.7,3.7,0,0,0,221,7.69a17.86,17.86,0,0,1-3.42,6.51,17.26,17.26,0,0,1-6.06,4.29,6.47,6.47,0,0,0-1.72-2.15c4.51-1.76,7.11-4.38,8.48-8.58l-4.74,0a16.59,16.59,0,0,1-3.86,4.25,6.17,6.17,0,0,0-2-1.7,13,13,0,0,0,4.37-5,6.38,6.38,0,0,0,.8-2.12Z"/><path d="M227.5,18.14a17.79,17.79,0,0,0,.1-2.35V5.9a15,15,0,0,0-.1-2.23h2.72a13.82,13.82,0,0,0-.1,2.23V8.44A40.48,40.48,0,0,1,237.71,12l-1.37,2.4a36.66,36.66,0,0,0-5.59-3,4.14,4.14,0,0,1-.63-.3v4.81a19.84,19.84,0,0,0,.1,2.32Z"/><path class="cls-1" d="M12.73,21.54a3,3,0,0,1-2.16-.92H7.51a3,3,0,0,1-2.16.92H3a3,3,0,0,1-3-3.31c.05-.54.08-1.14.08-1.83V5.64c0-.48,0-1-.07-1.6A3,3,0,0,1,3,.8H3.3A16,16,0,0,0,4.9.88h8.38A12.31,12.31,0,0,0,14.72.83a2.34,2.34,0,0,1,.38,0,3,3,0,0,1,3,3.29A14,14,0,0,0,18,5.59V16.4a16.42,16.42,0,0,0,.08,1.83,3,3,0,0,1-3,3.31Z"/><path class="cls-1" d="M24.41,21.67a3,3,0,0,1-2.25-1,2.94,2.94,0,0,1-.74-2.07,4.34,4.34,0,0,1-.54-.09l-.16.11a3.06,3.06,0,0,1-1.7.52,2.8,2.8,0,0,1-.86-.13,3,3,0,0,1-1.92-1.74,3.8,3.8,0,0,0-.78-1.36,3,3,0,0,1-.61-2.39,3,3,0,0,1,1.39-2.05,10.64,10.64,0,0,0,1-.66,2.68,2.68,0,0,1-.88-.54,3,3,0,0,1-1-2.24V5.7a3,3,0,0,1,3-3,2.31,2.31,0,0,1,.37,0,12.25,12.25,0,0,0,1.68.09h1.06a3.09,3.09,0,0,1,.71-1.62,3,3,0,0,1,2.27-1h2.42a3,3,0,0,1,2.28,1,3,3,0,0,1,.7,1.61h1.26a12.16,12.16,0,0,0,1.67-.09,3,3,0,0,1,2.39.71,3,3,0,0,1,1,2.26V8a3,3,0,0,1-1,2.24,3.22,3.22,0,0,1-.84.53c.25.16.52.31.8.46a3,3,0,0,1,1,4.51,4.87,4.87,0,0,0-.85,1.49A3,3,0,0,1,33.37,19a3.29,3.29,0,0,1-.88.13,3,3,0,0,1-1.65-.5l-.2-.13a3.35,3.35,0,0,1-.77.13,3,3,0,0,1-3,3.08Z"/><path class="cls-1" d="M36.26,21.88a3,3,0,0,1-2.2-1,5.61,5.61,0,0,0-1.15-1,3,3,0,0,1-.4-4.52l.1-.11a3.16,3.16,0,0,1,0-1,12.89,12.89,0,0,0,0-1.32V5.2a12,12,0,0,0-.06-1.31,3,3,0,0,1,3-3.22h.28A10.86,10.86,0,0,0,37,.73h3.25a9,9,0,0,0,1,0l.37,0a3,3,0,0,1,2.12.88l.1.1a2.75,2.75,0,0,1,.22-.26,3,3,0,0,1,2.24-1h2.32a3,3,0,0,1,3,3.29,2.63,2.63,0,0,1,.56.38,3,3,0,0,1,1,2.27V8.49a3,3,0,0,1-1.06,2.29,2.78,2.78,0,0,1-.62.41v5.33A4.55,4.55,0,0,1,49,21.05a7.06,7.06,0,0,1-3,.51c-.53,0-1.21,0-1.76-.08a3,3,0,0,1-1.67-.65,3,3,0,0,1-1.94.71h-.31a3,3,0,0,1-1.72-.78l-.12.14a3.06,3.06,0,0,1-2.21,1Z"/><path class="cls-1" d="M64.19,21.62a3,3,0,0,1-2.11-.86H56.2a3,3,0,0,1-2.11.86H51.83a3,3,0,0,1-2.24-1,3,3,0,0,1-.73-2.36,15,15,0,0,0,.07-1.86V5.69A15,15,0,0,0,48.87,4a3,3,0,0,1,3-3.32l.33,0A13.67,13.67,0,0,0,53.8.78H64.45A14.26,14.26,0,0,0,66.09.72l.32,0a3,3,0,0,1,3,3.29,16.21,16.21,0,0,0-.07,1.7V16.4a12,12,0,0,0,.08,1.81,3.06,3.06,0,0,1-.71,2.39,3,3,0,0,1-2.27,1Z"/><path class="cls-1" d="M75.35,21.71A3,3,0,0,1,73.41,21l-1.87-1.59a3,3,0,0,1-.27-4.31A14.84,14.84,0,0,0,72.49,12c-.23-.17-.49-.35-.82-.56a3,3,0,0,1-.55-4.58l.36-.38A2.93,2.93,0,0,1,70.88,5a3,3,0,0,1,.89-2.44l1.5-1.47A3,3,0,0,1,77,.74l.45.31a3,3,0,0,1,2.28-1,3.51,3.51,0,0,1,.55.05l2.27.42A3,3,0,0,1,84.4,1.55h1.93a13.75,13.75,0,0,0,2.08-.08,3.11,3.11,0,0,1,.43,0,2.94,2.94,0,0,1,2,.73,3,3,0,0,1,1,2.27V6.56a3,3,0,0,1-.68,1.9,3,3,0,0,1,1,2.19v2.08a3,3,0,0,1-.44,1.56v2a3,3,0,0,1-1,2.25,3,3,0,0,1-1.12.62c-.72,1.43-2.06,2.5-4.74,2.5-.29,0-1,0-1.78-.09a3,3,0,0,1-2.18-1.2,3.18,3.18,0,0,1-1.15.22h-.27l-1.6-.14A3,3,0,0,1,76,21.64,2.56,2.56,0,0,1,75.35,21.71Z"/><path class="cls-1" d="M98.45,21c-3.87,0-6.48-.92-8-2.81a6.69,6.69,0,0,1-1.38-4.08,7.05,7.05,0,0,1,2.53-5.41A8.82,8.82,0,0,1,92.4,8c-.17-.71-.34-1.49-.53-2.45-.07-.35-.11-.52-.14-.63A3.07,3.07,0,0,1,92,2.4,3,3,0,0,1,94.09,1l2.58-.4.46,0a3,3,0,0,1,3,2.82,12,12,0,0,0,.19,1.4l1.36-.43.09,0A3,3,0,0,1,103,4a2.89,2.89,0,0,1,1.19.25,3,3,0,0,1,1.66,1.81l.84,2.54a3,3,0,0,1-1.47,3.6l.23.14a3,3,0,0,1,1.34,2.29l.2,2.72a3,3,0,0,1-.74,2.21,3,3,0,0,1-2.11,1c-.22,0-.31,0-.65.06l-.58.06A42.68,42.68,0,0,1,98.45,21Z"/><path class="cls-1" d="M118.43,21.54a3,3,0,0,1-2.16-.92h-3.06a3,3,0,0,1-2.16.92H108.7a3,3,0,0,1-3-3.31,16.58,16.58,0,0,0,.09-1.83V5.64c0-.48,0-1-.08-1.6a3,3,0,0,1,3-3.24H109a16,16,0,0,0,1.6.07H119a12.22,12.22,0,0,0,1.43-.05l.39,0a3,3,0,0,1,2.08.84,3,3,0,0,1,.91,2.45,14,14,0,0,0-.07,1.5V16.4a16.42,16.42,0,0,0,.08,1.83,3,3,0,0,1-3,3.31Z"/><path class="cls-1" d="M130.11,21.67a3,3,0,0,1-3-3.09,5.07,5.07,0,0,1-.54-.09l-.16.11a3,3,0,0,1-1.69.52,2.91,2.91,0,0,1-.87-.13,3,3,0,0,1-1.91-1.74,4.12,4.12,0,0,0-.78-1.36,3,3,0,0,1-.61-2.39,3,3,0,0,1,1.39-2.05,10.64,10.64,0,0,0,1-.66,2.68,2.68,0,0,1-.88-.54A3,3,0,0,1,121,8V5.7a3,3,0,0,1,1-2.25,3,3,0,0,1,2-.75,2.43,2.43,0,0,1,.38,0,12.16,12.16,0,0,0,1.68.09h1.06a3,3,0,0,1,3-2.65h2.42a3,3,0,0,1,3,2.65h1.26a12.16,12.16,0,0,0,1.67-.09,3,3,0,0,1,2.38.71,3,3,0,0,1,1,2.26V8a3,3,0,0,1-1,2.24,3.11,3.11,0,0,1-.85.53c.26.16.52.31.81.46a3,3,0,0,1,1,4.51,5.09,5.09,0,0,0-.84,1.49A3,3,0,0,1,139.07,19a3.35,3.35,0,0,1-.88.13,3,3,0,0,1-1.65-.5l-.2-.13a3.35,3.35,0,0,1-.78.13,2.93,2.93,0,0,1-.73,2.05,3,3,0,0,1-2.26,1Z"/><path class="cls-1" d="M144.55,21.33a3,3,0,0,1-2.67-1.63,4.75,4.75,0,0,0-1.22-1.64,3,3,0,0,1,1.23-5,10.59,10.59,0,0,0,2.88-1.32,8.66,8.66,0,0,0,1.72-1.43H144a17.52,17.52,0,0,0-2.22.08,2.3,2.3,0,0,1-.37,0,3,3,0,0,1-3-3V4.87a3,3,0,0,1,3.42-3,14.7,14.7,0,0,0,2.2.09h6.48a4.85,4.85,0,1,1,6.12,7.32,18.32,18.32,0,0,1-3.54,6.58,19.5,19.5,0,0,1-7.35,5.17A2.92,2.92,0,0,1,144.55,21.33Z"/><path class="cls-1" d="M158.47,20.71a3,3,0,0,1-3-3.23c.05-.68.07-1.32.07-2.13V7.11a16.61,16.61,0,0,0-.06-2,3,3,0,0,1,3-3.25l.29,0a18.83,18.83,0,0,0,2.12.05h7.79c1.36,0,1.71,0,2.29-.06h.22a3,3,0,0,1,2.13.89,3,3,0,0,1,.86,2.37c0,.45-.06,1.08-.06,2v8.06c0,1.15,0,1.68.06,2.1a3,3,0,0,1-3,3.34h-2.57a3,3,0,0,1-2.35-1.14H163.4A3,3,0,0,1,161,20.71Zm7.16-9.41V10.22H164V11.3Z"/><path class="cls-1" d="M175.64,21.12a3,3,0,0,1-2.9-2.24l-.7-2.69a3,3,0,0,1,.51-2.56,2.94,2.94,0,0,1,.87-.78A3,3,0,0,1,172,8.42l1-1.5a3,3,0,0,1,.31-2.53l1.27-2A3,3,0,0,1,177.11,1a3.12,3.12,0,0,1,1,.18A31.83,31.83,0,0,1,182.27,3a3,3,0,0,1,1.2-1l1.42-.62.31-.11.24-.12,1.37-.6A2.93,2.93,0,0,1,188,.35a3,3,0,0,1,2.29,1.06,12.47,12.47,0,0,1,1.84,2.89,3,3,0,0,1-.7,3.41,3,3,0,0,1-.05,2.28,17.71,17.71,0,0,1-3,5c-2.65,3.05-6,4.82-11,5.75a7.65,7.65,0,0,0-.91.22A2.91,2.91,0,0,1,175.64,21.12Z"/><path class="cls-1" d="M192.21,20.66a3,3,0,0,1-2-.78,3,3,0,0,1-1-2.22V15.44a3,3,0,0,1,1-2.28,2.86,2.86,0,0,1,.92-.54,3,3,0,0,1-.93-2.17V8.26a3,3,0,0,1,1-2.25,3,3,0,0,1,2-.75,2.06,2.06,0,0,1,.35,0,13.88,13.88,0,0,0,1.75.08h5.59a11.75,11.75,0,0,0,1.79-.09l.4,0a3,3,0,0,1,3,3v2.21a3,3,0,0,1-.93,2.17,3,3,0,0,1,2,2.82v2.22a3,3,0,0,1-3,3h-.25a20.45,20.45,0,0,0-2.05-.08h-7.55a11.68,11.68,0,0,0-1.81.07Z"/><path class="cls-1" d="M211.51,21.49a3,3,0,0,1-2.64-1.57,3.79,3.79,0,0,0-1.09-1.36,3,3,0,0,1-.15-4.3,2.44,2.44,0,0,1-.27-.29,3.5,3.5,0,0,0-1.24-1.05,3,3,0,0,1-.14-5A9.94,9.94,0,0,0,209.4,4a4,4,0,0,0,.49-1.15,3,3,0,0,1,3-2.58,2.76,2.76,0,0,1,.57.06l2.68.51a3,3,0,0,1,2.18,1.74H219l.28,0a2.68,2.68,0,0,1,1-.19,3,3,0,0,1,2.07.89l1.22,1.2a3,3,0,0,1,.45,3.7c0,.09-.07.21-.12.38a20.79,20.79,0,0,1-4,7.63,20.16,20.16,0,0,1-7.06,5A3.06,3.06,0,0,1,211.51,21.49Z"/><path class="cls-1" d="M227.5,21.14a3,3,0,0,1-3-3.39,14,14,0,0,0,.08-2V5.9a12.45,12.45,0,0,0-.07-1.81,3,3,0,0,1,.7-2.39,3,3,0,0,1,2.27-1h2.72a3,3,0,0,1,3,3.39,12,12,0,0,0-.07,1.84v.45a43.5,43.5,0,0,1,6.1,3,3,3,0,0,1,1.1,4.07L239,15.84A3,3,0,0,1,237,17.28a3.14,3.14,0,0,1-.68.07,3,3,0,0,1-1.69-.52c-.45-.31-1-.63-1.53-1a17.85,17.85,0,0,0,.08,2,3,3,0,0,1-3,3.31Z"/><path class="cls-2" d="M13.28,3.88A13.21,13.21,0,0,0,15.1,3.8C15,4.5,15,5,15,5.59V16.4a18.28,18.28,0,0,0,.1,2.14H12.73v-.92H5.35v.92H3a19.47,19.47,0,0,0,.1-2.14V5.64C3.1,5,3.07,4.42,3,3.8c.53.05,1.11.08,1.88.08Zm-.55,5.68V6H5.35V9.56ZM5.35,11.63v3.89h7.38V11.63Z"/><path class="cls-2" d="M27.74,7.89a14.1,14.1,0,0,0,2.57,3.47,13.77,13.77,0,0,0,3.44,2.54,7.66,7.66,0,0,0-1.26,2.19,16.79,16.79,0,0,1-2.72-2.21v1.71a16.17,16.17,0,0,0-1.67-.09H26.75v1a15.25,15.25,0,0,0,.12,2.15H24.41a15.34,15.34,0,0,0,.12-2.15v-1H23.31a16.34,16.34,0,0,0-1.67.09V13.9A15.29,15.29,0,0,1,19,16.12,6.86,6.86,0,0,0,17.8,14a14.21,14.21,0,0,0,3.38-2.81,15,15,0,0,0,2.28-3.32H20.39A14.78,14.78,0,0,0,18.34,8V5.7a14.41,14.41,0,0,0,2.05.12h4.14V4.72a9.48,9.48,0,0,0-.1-1.55h2.42a9.24,9.24,0,0,0-.1,1.55v1.1h4.34a13.93,13.93,0,0,0,2.09-.12V8a15.48,15.48,0,0,0-2.09-.12ZM24.53,11.4a14.68,14.68,0,0,1,.1-1.66A14.51,14.51,0,0,1,22,13.47c.29,0,.59,0,1.16,0h1.33Zm3.74,2.1a10.55,10.55,0,0,0,1.09,0,16.2,16.2,0,0,1-2.71-3.74c.08.95.1,1.27.1,1.63V13.5Z"/><path class="cls-2" d="M38.43,15.55a11.5,11.5,0,0,1-2.17,3.33,8,8,0,0,0-1.6-1.42,9,9,0,0,0,2-2.88Zm5.45-7.16a17.9,17.9,0,0,0-1.82.1V6.32a14.52,14.52,0,0,0,1.83.1h2.56V5.32a17.68,17.68,0,0,0-.1-1.94h2.32a15.39,15.39,0,0,0-.1,1.94v1.1h.1a9.56,9.56,0,0,0,1.58-.1V8.49a8.47,8.47,0,0,0-1.52-.1h-.16v8.13c0,1-.24,1.54-.84,1.82a4.43,4.43,0,0,1-1.72.22c-.47,0-1.07,0-1.55-.07a7.39,7.39,0,0,0-.5-2.15,15.22,15.22,0,0,0,1.7.16c.64,0,.79-.08.79-.45V11a14.89,14.89,0,0,1-1.86,2.79,13.12,13.12,0,0,1-2.23,2.13,11.39,11.39,0,0,0-.91-1.3c-.16,0-.5,0-1,0H36.7a9.17,9.17,0,0,0-1.15,0,16.11,16.11,0,0,0,.06-1.7V5.2c0-.61,0-.87-.06-1.53A14.18,14.18,0,0,0,37,3.73h3.25a11.42,11.42,0,0,0,1.42-.06,11.56,11.56,0,0,0-.07,1.4V13.6a13.63,13.63,0,0,0,4.11-5.21ZM37.62,6.86h2V5.6h-2Zm0,2.9h2V8.53h-2Zm0,3h2V11.46h-2Zm2.8,1.89a13.14,13.14,0,0,0,1.94,2.6,9.92,9.92,0,0,0-1.72,1.32,21.61,21.61,0,0,1-1.87-3Z"/><path class="cls-2" d="M51.83,18.62a16.79,16.79,0,0,0,.1-2.23V5.69a17.17,17.17,0,0,0-.08-2,15.61,15.61,0,0,0,1.95.08H64.45a16,16,0,0,0,2-.08,17.1,17.1,0,0,0-.09,2V16.4a19.3,19.3,0,0,0,.1,2.22H64.19v-.86H54.09v.86Zm2.26-2.8H64.17V5.72H54.09ZM60,7.22a4.07,4.07,0,0,0-.1-1.15H62.2a4.34,4.34,0,0,0-.1,1.15v.37h.28a8.64,8.64,0,0,0,1.29-.08v2a9.4,9.4,0,0,0-1.34-.08H62.1v4.16c0,1.52-.48,1.87-2.52,1.87-.42,0-.6,0-1.57-.05a5.05,5.05,0,0,0-.5-1.94,14.58,14.58,0,0,0,1.94.17c.43,0,.56-.1.56-.49V9.46H56.22a10.85,10.85,0,0,0-1.53.08v-2a10.15,10.15,0,0,0,1.53.08H60Zm-2.82,6.36a11.88,11.88,0,0,0-1.83-3l1.72-1a15.24,15.24,0,0,1,2,3Z"/><path class="cls-2" d="M74.7,7.47a13,13,0,0,1,2.69,2.11L76,11.21A11.4,11.4,0,0,0,73.3,9Zm2.67,6.05a27.42,27.42,0,0,1-2,5.19l-1.87-1.59a14.64,14.64,0,0,0,2.1-5Zm-2-10.29A14.52,14.52,0,0,1,78,5.4L76.44,7A11.77,11.77,0,0,0,73.86,4.7Zm11,1.32a16.25,16.25,0,0,0,2.51-.11V6.56a21.65,21.65,0,0,0-2.24-.07H80.44c-.23.35-.38.58-.63.93h6.31c.8,0,1.37,0,1.77,0a24.21,24.21,0,0,0-.17,3.36,8.41,8.41,0,0,0,1.39-.08v2.08a10.15,10.15,0,0,0-1.32-.08h-.15c0,.68,0,.68-.14,1.63a5,5,0,0,0,1.17-.08v2.07a8.79,8.79,0,0,0-1.23-.07H87.3c-.33,2-.75,2.44-2.5,2.44-.25,0-.87,0-1.55-.08a4.68,4.68,0,0,0-.39-1.87,9.63,9.63,0,0,0,1.46.13c.58,0,.68-.07.85-.62H80c-.1.55-.13.72-.28,1.37l-2.22-.2a27.81,27.81,0,0,0,1.07-4.72h-.32a7.46,7.46,0,0,0-1.18.08V10.65a10.94,10.94,0,0,0,1.53.08h.19c.1-1.12.11-1.52.13-2.17a11,11,0,0,1-.94.88,5.7,5.7,0,0,0-1.36-1.72,8.85,8.85,0,0,0,2.2-2.4,7.05,7.05,0,0,0,1-2.32L82,3.42c-.1.21-.1.21-.35.78-.06.13-.1.2-.16.35Zm-5.79,8.1c-.06.55-.06.55-.23,1.63h1.55c.07-.48.1-.71.18-1.63Zm1.67-1.92c.05-.67.05-.74.09-1.47H80.83c0,.73,0,.93-.1,1.47ZM84,12.65c-.09.85-.12,1.13-.2,1.63h1.67c.06-.58.1-1,.15-1.63Zm1.7-1.92q0-1.05,0-1.47h-1.5l-.08,1.47Z"/><path class="cls-2" d="M97.13,3.52a28.06,28.06,0,0,0,1,5.09c.92-.33,1.62-.55,4.22-1.37A3.38,3.38,0,0,0,103,7l.84,2.54a33,33,0,0,0-5.75,1.57c-2.28.85-3.45,1.82-3.45,2.88s1.1,1.59,3.57,1.59a19.06,19.06,0,0,0,5.59-.74l.2,2.73c-.36,0-.45,0-1.4.13a41.72,41.72,0,0,1-4.19.27c-2.89,0-4.74-.55-5.62-1.67a3.62,3.62,0,0,1-.74-2.22,4.08,4.08,0,0,1,1.49-3.14,9.53,9.53,0,0,1,2.3-1.45C95.48,8.11,95.21,7,94.81,5a5.82,5.82,0,0,0-.27-1.08Z"/><path class="cls-2" d="M119,3.88a13.29,13.29,0,0,0,1.82-.08,16.65,16.65,0,0,0-.08,1.79V16.4a18.28,18.28,0,0,0,.1,2.14h-2.39v-.92h-7.38v.92H108.7c.06-.63.1-1.33.1-2.14V5.64c0-.64,0-1.22-.09-1.84.54.05,1.12.08,1.89.08Zm-.55,5.68V6h-7.38V9.56Zm-7.38,2.07v3.89h7.38V11.63Z"/><path class="cls-2" d="M133.43,7.89A14.36,14.36,0,0,0,136,11.36a14.14,14.14,0,0,0,3.44,2.54,7.88,7.88,0,0,0-1.25,2.19,16.79,16.79,0,0,1-2.72-2.21v1.71a16.17,16.17,0,0,0-1.67-.09h-1.35v1a15.25,15.25,0,0,0,.12,2.15h-2.46a17,17,0,0,0,.12-2.15v-1H129a16.17,16.17,0,0,0-1.67.09V13.9a15.29,15.29,0,0,1-2.62,2.22A6.86,6.86,0,0,0,123.5,14a14,14,0,0,0,3.37-2.81,15.06,15.06,0,0,0,2.29-3.32h-3.07A15,15,0,0,0,124,8V5.7a14.56,14.56,0,0,0,2.06.12h4.14V4.72a10.76,10.76,0,0,0-.1-1.55h2.42a9.24,9.24,0,0,0-.1,1.55v1.1h4.34a14,14,0,0,0,2.09-.12V8a15.48,15.48,0,0,0-2.09-.12Zm-3.2,3.51a14.68,14.68,0,0,1,.1-1.66,14.77,14.77,0,0,1-2.59,3.73,11.45,11.45,0,0,0,1.15,0h1.34ZM134,13.5a10.23,10.23,0,0,0,1.08,0,16.17,16.17,0,0,1-2.7-3.74c.08.95.1,1.27.1,1.63V13.5Z"/><path class="cls-2" d="M151.71,5a5.13,5.13,0,0,0,.72,0,1.84,1.84,0,0,1,1.83-1.72,1.86,1.86,0,0,1,0,3.71h-.07l-.06.23a15.94,15.94,0,0,1-3.31,6.76,16.45,16.45,0,0,1-6.29,4.39,7.65,7.65,0,0,0-1.77-2.38,13.54,13.54,0,0,0,3.59-1.66,11.1,11.1,0,0,0,5-7H144a20.3,20.3,0,0,0-2.59.1V4.87a17,17,0,0,0,2.62.12Zm1.73.1a.82.82,0,0,0,1.64,0,.82.82,0,0,0-1.64,0Z"/><path class="cls-2" d="M161,16.55v1.16h-2.57c.05-.65.08-1.36.08-2.36V7.11a19.66,19.66,0,0,0-.07-2.21,19.81,19.81,0,0,0,2.41.07h7.79c1.41,0,1.82,0,2.51-.07-.05.59-.07,1.32-.07,2.29v8.06a23.74,23.74,0,0,0,.08,2.44h-2.57V16.55Zm7.59-9.33H161V14.3h7.61Z"/><path class="cls-2" d="M175.84,8a23.23,23.23,0,0,1,4.54,2.3l-1.22,2.24a19.37,19.37,0,0,0-4.64-2.52Zm-.9,7.4a15,15,0,0,0,5-1.11,9.93,9.93,0,0,0,4.74-3.63A12.54,12.54,0,0,0,186.56,7a9.07,9.07,0,0,0,2.08,1.78,14.83,14.83,0,0,1-2.55,4.28c-2.22,2.55-5,4-9.26,4.77-.52.1-.84.18-1.19.28ZM177.11,4a27.43,27.43,0,0,1,4.61,2.17l-1.27,2.19A19.66,19.66,0,0,0,175.84,6Zm9,.22a8.92,8.92,0,0,1,1.39,2.25L186,7.12a10.22,10.22,0,0,0-1.37-2.32ZM188,3.35a9.39,9.39,0,0,1,1.39,2.17L188,6.21A12,12,0,0,0,186.64,4Z"/><path class="cls-2" d="M199.29,15.54h2.61a17.16,17.16,0,0,0,2.28-.1v2.22c-.58-.05-1.25-.09-2.3-.09h-7.55a13.25,13.25,0,0,0-2.12.09V15.44a12.83,12.83,0,0,0,2.11.1H197V10.36h-1.63a18.9,18.9,0,0,0-2.12.09V8.26a15.64,15.64,0,0,0,2.1.1h5.59a13.75,13.75,0,0,0,2.19-.12v2.21a18.11,18.11,0,0,0-2.19-.09h-1.65Z"/><path class="cls-2" d="M215.55,3.8a7.14,7.14,0,0,0-.49,1c-.15.33-.21.48-.4.85l4.34,0a3.57,3.57,0,0,0,1.2-.19l1.22,1.21A3.7,3.7,0,0,0,221,7.69a17.86,17.86,0,0,1-3.42,6.51,17.26,17.26,0,0,1-6.06,4.29,6.47,6.47,0,0,0-1.72-2.15c4.51-1.76,7.11-4.38,8.48-8.58l-4.74,0a16.59,16.59,0,0,1-3.86,4.25,6.17,6.17,0,0,0-2-1.7,13,13,0,0,0,4.37-5,6.38,6.38,0,0,0,.8-2.12Z"/><path class="cls-2" d="M227.5,18.14a17.79,17.79,0,0,0,.1-2.35V5.9a15,15,0,0,0-.1-2.23h2.72a13.82,13.82,0,0,0-.1,2.23V8.44A40.48,40.48,0,0,1,237.71,12l-1.37,2.4a36.66,36.66,0,0,0-5.59-3,4.14,4.14,0,0,1-.63-.3v4.81a19.84,19.84,0,0,0,.1,2.32Z"/></g></g></svg>