<svg viewBox="0 0 223.96 68.59" xmlns="http://www.w3.org/2000/svg"><rect fill="#fff" height="68.59" rx="3" width="223.96"/><path d="m3 3h217.96v62.59h-217.96z" fill="#1b643d"/><g fill="#fff"><path d="m26 21.55a12 12 0 0 1 5 .67 6.36 6.36 0 0 1 4 6.05 6.53 6.53 0 0 1 -2.47 5.28 6.86 6.86 0 0 1 3.27 6.14c.1 7.31-7.07 7.31-9.34 7.31h-9.09l-.07-25.43zm-2.89 5.37v4.54h3.59a2.36 2.36 0 0 0 2.55-2.28c0-1.35-1.11-2.27-2.72-2.26zm0 9.31v5.43h3.66c2.43 0 3.15-1.37 3.14-2.73 0-1.61-1.11-2.71-3-2.7z"/><path d="m62.47 23.82v22.59h-7v-2c-1 1-2.55 2.63-6.74 2.63-4.45 0-6.79-2.33-7.57-3.72-.99-1.72-1.16-3.6-1.16-6.8v-12.7h7.39v12.93c0 1.62 0 4.32 3.54 4.32a3.94 3.94 0 0 0 4.07-4.32v-12.93z"/><path d="m67.91 47.05v-22.59h7v2c1-.94 2.55-2.63 6.74-2.63 4.45 0 6.78 2.37 7.56 3.76 1 1.69 1.21 3.53 1.21 6.73v12.73h-7.42v-12.93c0-1.62 0-4.36-3.55-4.36-.6 0-4.14.11-4.14 4.36v12.93z"/><path d="m123.44 47.05v-22.59h7v2c.95-.94 2.55-2.63 6.74-2.63 4.45 0 6.78 2.37 7.56 3.76.95 1.69 1.21 3.53 1.21 6.73v12.73h-7.43v-12.93c0-1.62 0-4.36-3.54-4.36-.61 0-4.15.11-4.15 4.36v12.93z"/><path d="m117.78 31.26v5.24h-10.07v5.15h11.39v5.35h-17.23v-25.46h16.82v5.37h-11v4.35z"/><path d="m158.24 21.54h9.12a13.73 13.73 0 0 1 5.85.95c5.13 2.05 6.63 7.54 6.63 11.8 0 2.09-.38 9.19-6.6 11.78a15.07 15.07 0 0 1 -6.08.94h-8.92zm5.43 20.11h2.87c3.41 0 7.87 0 7.87-7.39s-4.46-7.35-7.72-7.35h-3z"/><path d="m194.75 22.66a11.71 11.71 0 0 1 11.92 12.16 11.93 11.93 0 1 1 -23.85 0 11.71 11.71 0 0 1 11.93-12.16zm0 18.27c1.72 0 5.05-1 5.05-6.11 0-3.5-1.72-6.12-5.05-6.12-1.65 0-5.06.89-5.06 6.12s3.53 6.11 5.06 6.11z"/></g><rect fill="none" height="57.01" rx="2.24" stroke="#fff" stroke-miterlimit="10" stroke-width=".56" width="212.37" x="5.79" y="5.79"/></svg>