<svg viewBox="0 0 135.32 45.61" xmlns="http://www.w3.org/2000/svg"><path d="m5.57 16.1v1.16h-2.57c0-.65.08-1.36.08-2.36v-8.24c0-1.19 0-1.39-.06-2.21a19.62 19.62 0 0 0 2.4.07h7.8c1.4 0 1.82 0 2.5-.07-.05.59-.07 1.32-.07 2.29v8.06a20.66 20.66 0 0 0 .09 2.44h-2.57v-1.14zm7.6-9.33h-7.62v7.08h7.62z"/><path d="m18.77 9a20.6 20.6 0 0 0 3.06.14h8.44a21.86 21.86 0 0 0 3.06-.12v2.78c-.67-.05-1.77-.09-3.07-.09h-8.43c-1.46 0-2.41 0-3.06.1z"/><path d="m38.65 4.15a24.76 24.76 0 0 1 2.24 5.41l-2.62.9a22.39 22.39 0 0 0 -2.09-5.46zm10.53.6a7.78 7.78 0 0 0 -.43 1.67 18.16 18.16 0 0 1 -3.67 7.75 16.22 16.22 0 0 1 -5 3.79 7.88 7.88 0 0 0 -1.87-2.19 12.79 12.79 0 0 0 4.79-3.25 12.28 12.28 0 0 0 2.67-4.76 13.75 13.75 0 0 0 .77-3.64z"/><path d="m54.49 4.19a23.8 23.8 0 0 1 4.44 3.23l-1.69 2.19a17.25 17.25 0 0 0 -4.39-3.45zm-1.57 10.35a16.08 16.08 0 0 0 5-1.22 10.41 10.41 0 0 0 4.88-4.09 14.82 14.82 0 0 0 1.69-3.32 9 9 0 0 0 2.12 1.93 14.33 14.33 0 0 1 -6.53 7.31 21 21 0 0 1 -4.86 1.74l-.73.15a7.39 7.39 0 0 0 -.84.23z"/><path d="m82 5.1a9.55 9.55 0 0 0 -.92.29 21.46 21.46 0 0 1 -3.27.83v2.54h3.1a14.44 14.44 0 0 0 2.37-.12v2.36a20.48 20.48 0 0 0 -2.32-.09h-3.3a8.74 8.74 0 0 1 -1.12 3.59 8.76 8.76 0 0 1 -2.74 2.67 11.67 11.67 0 0 1 -1.59.84 6.44 6.44 0 0 0 -1.75-2.12 8.5 8.5 0 0 0 2.54-1.34 4.88 4.88 0 0 0 2.09-3.64h-3.68a20.91 20.91 0 0 0 -2.41.09v-2.36a14.7 14.7 0 0 0 2.41.12h3.84c0-.43 0-1.29 0-1.9v-.29c-1.34.17-2 .22-4.52.34a7.92 7.92 0 0 0 -.74-2.16h1.07a30.39 30.39 0 0 0 7.21-.94 9 9 0 0 0 2.07-.78z"/><path d="m96.1 8.24a12.45 12.45 0 0 1 -1 4.66c-1 2.19-2.67 3.67-5.64 5a6.24 6.24 0 0 0 -1.65-2.22 9.64 9.64 0 0 0 3.32-1.81c1.55-1.28 2.22-2.85 2.4-5.64h-3.7a13.8 13.8 0 0 1 -2.74 3.32 6.28 6.28 0 0 0 -2-1.56 12.75 12.75 0 0 0 3.51-4.58 8.15 8.15 0 0 0 .77-2.41l2.63.57c-.13.26-.13.26-.57 1.32a10.31 10.31 0 0 1 -.51 1.11h6.85a14.17 14.17 0 0 0 2.35-.12v2.46c-.63-.06-1.47-.1-2.37-.1z"/><path d="m105.69 7a19.37 19.37 0 0 1 1.66 4.09l-2.24.68a17.34 17.34 0 0 0 -1.5-4.17zm9.67.2a5.38 5.38 0 0 0 -.25.93 15.44 15.44 0 0 1 -2.19 5.53 12.9 12.9 0 0 1 -5.31 4.22 7.36 7.36 0 0 0 -1.58-2 11.79 11.79 0 0 0 2.97-1.51 9.44 9.44 0 0 0 3.72-5.79 9.15 9.15 0 0 0 .3-1.92zm-6-.89a16.9 16.9 0 0 1 1.62 4l-2.19.67a19.79 19.79 0 0 0 -1.5-4.06z"/><path d="m122.1 17.69a17.79 17.79 0 0 0 .1-2.35v-9.89a15 15 0 0 0 -.1-2.23h2.72a15.12 15.12 0 0 0 -.1 2.23v2.55a40.26 40.26 0 0 1 7.6 3.51l-1.32 2.39a37.15 37.15 0 0 0 -5.59-3 4.29 4.29 0 0 1 -.64-.3v4.81a19.84 19.84 0 0 0 .1 2.32z"/><path d="m42 29a11.73 11.73 0 0 0 -.1-1.87h2.29a10.45 10.45 0 0 0 -.1 1.88v2a5.61 5.61 0 0 0 1.11-.01v2a6.26 6.26 0 0 0 -1.08 0v3.46c.26-.14.41-.2.85-.44v1.98a29.93 29.93 0 0 1 -3.46 1.72 5.28 5.28 0 0 0 -.73.36l-.39-2.32a7.26 7.26 0 0 0 1.61-.46v-4.3h-.3a5.86 5.86 0 0 0 -1.17.09v-2.15a6 6 0 0 0 1.17.06h.3zm10.58 5.91h1v-1.2a5.92 5.92 0 0 0 0-1h1.92a6.09 6.09 0 0 0 -.06 1.07v1.82a8.87 8.87 0 0 0 0 1.19 9.4 9.4 0 0 0 -1.12 0h-1.71v3.15h1.25v-1.64a5.28 5.28 0 0 0 -.06-1h2a7.19 7.19 0 0 0 -.06 1.18v2.49a14.36 14.36 0 0 0 .08 1.54h-1.9v-.7h-4.55v.71h-2a11.45 11.45 0 0 0 .06-1.4v-2.67a9 9 0 0 0 -.05-1.18h2a6.21 6.21 0 0 0 0 1v1.59h1.28v-3.12h-1.66a7.91 7.91 0 0 0 -1 0 6.6 6.6 0 0 0 0-1v-2a9.68 9.68 0 0 0 0-.98h1.8a6.64 6.64 0 0 0 -.05 1v1.21h.88v-2.83h-3c-.08 5.23-.78 7.93-2.7 10.34a6.06 6.06 0 0 0 -1.84-1.42 7.52 7.52 0 0 0 2.16-4.06 41.71 41.71 0 0 0 .45-7.23 19.44 19.44 0 0 0 -.08-2.43 15.53 15.53 0 0 0 1.83.08h6.45a15.34 15.34 0 0 0 1.82-.08 12.88 12.88 0 0 0 0 1.37v2.15a11.52 11.52 0 0 0 0 1.33c-.37 0-.79 0-1.32 0h-1.79zm1-4.56v-1.08h-5.89v1.09z"/><path d="m58.39 31.08a21 21 0 0 1 3.27 2.2l-1.27 1.85a14.94 14.94 0 0 0 -3.32-2.3zm3.33 5.86a25.27 25.27 0 0 1 -2 4.35c-.2.35-.25.44-.38.64a3.77 3.77 0 0 0 -.25.41l-1.94-1.65a16.34 16.34 0 0 0 2.74-5zm-2.67-9.94a18.52 18.52 0 0 1 3.24 2.25l-1.37 1.75a16.49 16.49 0 0 0 -3.24-2.42zm6.8 3.17h-1.54a14.66 14.66 0 0 0 -2 .1v-2.33a18 18 0 0 0 2 .1h5.89a17.44 17.44 0 0 0 2-.1v2.32a15.93 15.93 0 0 0 -2-.1h-2.05v9.21h2.39a15.1 15.1 0 0 0 2-.1v2.34a16.76 16.76 0 0 0 -2-.1h-7a16.89 16.89 0 0 0 -2.07.1v-2.34a15.77 15.77 0 0 0 2.06.1h2.32z"/><path d="m84.12 38.89v-.45h-2v1.2h-2.12a16.6 16.6 0 0 0 .1-2.09v-7.88a16.75 16.75 0 0 0 -.1-1.75h1.71 3 1.42a14.36 14.36 0 0 0 -.05 1.49v7.88 1.46c.72-1.51 1-3.63 1-7.42 0-2.09 0-3.06-.1-3.83a14.89 14.89 0 0 0 2 .09h3.61a12.51 12.51 0 0 0 1.89-.09 17.63 17.63 0 0 0 -.07 2v10.77a1.85 1.85 0 0 1 -.7 1.74 4.69 4.69 0 0 1 -2.36.33h-.9a7.9 7.9 0 0 0 -.45-2.2 14.25 14.25 0 0 0 1.7.15c.52 0 .65-.1.65-.47v-2.52h-3.49a8.94 8.94 0 0 1 -2.86 5.31 6.53 6.53 0 0 0 -1.68-1.55 7.25 7.25 0 0 0 1.78-2.17zm-2-6.73h2v-2.24h-2zm0 4.36h2v-2.52h-2zm7.11-3.14c-.05 1.07-.06 1.24-.13 2h3.2v-2zm3-3.79h-3v1.89h3z"/><g fill="#fff"><path d="m3 20.26a3 3 0 0 1 -2.2-1 3 3 0 0 1 -.8-2.26c0-.68.07-1.32.07-2.13v-8.21c0-1.17 0-1.27 0-2a3 3 0 0 1 2.93-3.21h.29a18.5 18.5 0 0 0 2.11.05h7.8c1.35 0 1.7 0 2.28-.06h.22a3 3 0 0 1 2.13.89 3 3 0 0 1 .86 2.37c0 .45-.06 1.08-.06 2v8.1a18.49 18.49 0 0 0 .07 2.1 3 3 0 0 1 -.7 2.34 3 3 0 0 1 -2.23 1h-2.6a3 3 0 0 1 -2.35-1.14h-2.89a3 3 0 0 1 -2.36 1.16zm7.17-9.41v-1.08h-1.62v1.08z"/><path d="m18.77 14.81a3 3 0 0 1 -3-3v-2.81a3 3 0 0 1 1-2.25 3 3 0 0 1 2-.75 2.69 2.69 0 0 1 .4 0 18.14 18.14 0 0 0 2.66.11h8.44a18.35 18.35 0 0 0 2.67-.1h.39a3 3 0 0 1 3 3v2.79a3 3 0 0 1 -3 3h-.22c-.64 0-1.71-.08-2.85-.08h-8.43c-1.29 0-2.19 0-2.75.09z"/><path d="m40.1 21a3 3 0 0 1 -2.52-1.38 5.47 5.47 0 0 0 -1.32-1.62 3 3 0 0 1 .59-4.92 3 3 0 0 1 -1.47-1.95 19.22 19.22 0 0 0 -1.77-4.71 3 3 0 0 1 1.65-4.32l2.47-.8a2.91 2.91 0 0 1 .92-.15 3 3 0 0 1 2.62 1.54 25.3 25.3 0 0 1 1.73 3.67 10.13 10.13 0 0 0 .45-2.36 3 3 0 0 1 3-2.85 2.56 2.56 0 0 1 .67.08l2.74.63a3 3 0 0 1 2 1.57 3 3 0 0 1 .08 2.54c-.07.21-.12.48-.26 1.11a20.89 20.89 0 0 1 -4.33 9.08 19.1 19.1 0 0 1 -5.86 4.49 3 3 0 0 1 -1.39.35z"/><path d="m53.65 20.27a3.1 3.1 0 0 1 -1.42-.35 3 3 0 0 1 -1.47-1.87l-.76-2.74a3 3 0 0 1 2.71-3.77 11.58 11.58 0 0 0 1.91-.3 14.61 14.61 0 0 0 -3.22-2.46 3 3 0 0 1 -.85-4.54l1.63-2a3 3 0 0 1 3.82-.62 26.14 26.14 0 0 1 5 3.6 4.09 4.09 0 0 1 .39.44c.1-.24.21-.51.32-.8a3 3 0 0 1 2.29-1.86 3.15 3.15 0 0 1 .53 0 3 3 0 0 1 2.28 1 6.62 6.62 0 0 0 1.53 1.4 3 3 0 0 1 1 3.7 17.33 17.33 0 0 1 -7.85 8.71 23.84 23.84 0 0 1 -5.62 2l-.77.19a2.43 2.43 0 0 0 -.49.14 3.15 3.15 0 0 1 -.96.13z"/><path d="m72.17 21a3 3 0 0 1 -2.61-1.51 3.72 3.72 0 0 0 -1.12-1.35 3 3 0 0 1 -1-2.82 3.06 3.06 0 0 1 .73-1.46 2.85 2.85 0 0 1 -1.17-.64 3 3 0 0 1 -1-2.22v-2.36a3 3 0 0 1 1-2.27l.31-.23a.61.61 0 0 0 0-.12 3 3 0 0 1 2.72-4.27h.63.44a27.27 27.27 0 0 0 6.47-.75 6.24 6.24 0 0 0 1.43-.55 3 3 0 0 1 1.41-.38 3 3 0 0 1 2.37 1.15l1.58 2a3 3 0 0 1 .48 2.79s0 0 0 0a4.22 4.22 0 0 1 .36.27 3 3 0 0 1 1 2.27v2.45a3 3 0 0 1 -3 3h-.3a19.18 19.18 0 0 0 -2-.07h-.9a9.46 9.46 0 0 1 -1 2.16 11.78 11.78 0 0 1 -3.67 3.63 15.53 15.53 0 0 1 -2 1 3 3 0 0 1 -1.16.28z"/><path d="m89.47 20.91a3 3 0 0 1 -2.69-1.68 3.42 3.42 0 0 0 -1-1.36 3 3 0 0 1 -.44-3.87 3.55 3.55 0 0 1 -.46-.41 3.28 3.28 0 0 0 -1.28-1 3 3 0 0 1 -.46-4.93 9.78 9.78 0 0 0 2.71-3.53 5.6 5.6 0 0 0 .55-1.53 3 3 0 0 1 1.25-2.06 3 3 0 0 1 1.72-.54 2.79 2.79 0 0 1 .63.07l2.62.57a3 3 0 0 1 2.31 2.36h2.84a12.55 12.55 0 0 0 2-.09h.38a3 3 0 0 1 3 3v2.43a3 3 0 0 1 -3 3h-.31a9.88 9.88 0 0 0 -1.06-.07 12.42 12.42 0 0 1 -.9 2.88c-1.35 2.85-3.55 4.85-7.18 6.49a3 3 0 0 1 -1.23.27z"/><path d="m107.62 20.89a3 3 0 0 1 -2.6-1.48 4.37 4.37 0 0 0 -1.02-1.34 3 3 0 0 1 -.86-2.76 2.92 2.92 0 0 1 .4-1 3 3 0 0 1 -1.29-1.81 14.77 14.77 0 0 0 -1.28-3.56 3 3 0 0 1 -.06-2.54 3 3 0 0 1 1.92-1.68l2.08-.6a3 3 0 0 1 .83-.11 2.59 2.59 0 0 1 .56 0l.2-.06 2.07-.57a3.15 3.15 0 0 1 .8-.11 3 3 0 0 1 2.05.81 3 3 0 0 1 1.58-.42 3.14 3.14 0 0 1 .68.07l2.37.56a3 3 0 0 1 2.15 3.92 3.66 3.66 0 0 0 -.15.58 18.19 18.19 0 0 1 -2.64 6.57 15.89 15.89 0 0 1 -6.41 5.21 3 3 0 0 1 -1.38.32z"/><path d="m122.1 20.69a3 3 0 0 1 -3-3.39 16.58 16.58 0 0 0 .07-2v-9.85a12.45 12.45 0 0 0 -.07-1.81 3 3 0 0 1 3-3.42h2.72a3 3 0 0 1 3 3.39 11.53 11.53 0 0 0 -.08 1.84v.45a43.6 43.6 0 0 1 6.11 3 3 3 0 0 1 1.07 4.1l-1.37 2.41a3 3 0 0 1 -1.93 1.44 3.09 3.09 0 0 1 -2.37-.45c-.44-.31-1-.63-1.53-1a17.85 17.85 0 0 0 .08 2 3 3 0 0 1 -3 3.31z"/><path d="m47.39 45.49a3 3 0 0 1 -1.23-.26 3.1 3.1 0 0 1 -1.08.25h-.08a3 3 0 0 1 -2.21-1 3.09 3.09 0 0 0 -1.06-.81 3.12 3.12 0 0 1 -.74-.57h-.19a3.17 3.17 0 0 1 -1.24-.26 3 3 0 0 1 -1.71-2.27l-.39-2.32a3 3 0 0 1 1.2-2.92 3 3 0 0 1 -1.06-2.29v-2.1a3 3 0 0 1 1.07-2.29 2 2 0 0 1 .42-.3 4.81 4.81 0 0 0 -.09-.75 3 3 0 0 1 3-3.46h2.29a3 3 0 0 1 1.11.21h.29a2.17 2.17 0 0 1 .36 0 10.89 10.89 0 0 0 1.47.06h6.38a10.47 10.47 0 0 0 1.45-.06 2.23 2.23 0 0 1 .37 0 3 3 0 0 1 3 3.24v1.13 2.15 1a3 3 0 0 1 -.28 1.61v2.25a3 3 0 0 1 .38 2 4.18 4.18 0 0 0 0 .72v2.49a12 12 0 0 0 .06 1.21 3 3 0 0 1 -.74 2.33 3 3 0 0 1 -2.24 1h-1.98a3 3 0 0 1 -1.93-.7h-.67a3 3 0 0 1 -2 .71z"/><path d="m59.09 45.34a3 3 0 0 1 -2-.71l-1.89-1.63a3 3 0 0 1 -.28-4.29 10.51 10.51 0 0 0 1.6-2.71c-.25-.15-.53-.3-.88-.49a3 3 0 0 1 -1.5-2 3 3 0 0 1 .53-2.51l.55-.73a3.06 3.06 0 0 1 -.5-1.24 3 3 0 0 1 .68-2.42l1.37-1.61a3 3 0 0 1 3.78-.65c.41.23.75.44 1.06.63a2.74 2.74 0 0 1 .7-.08 1.83 1.83 0 0 1 .33 0 14.39 14.39 0 0 0 1.69.08h5.89a14 14 0 0 0 1.62.02h.37a3 3 0 0 1 3 3v2.32a3 3 0 0 1 -3 3h-.34a7.21 7.21 0 0 0 -.72-.06v3.19a9.3 9.3 0 0 0 1-.07h.44a3 3 0 0 1 3 3v2.34a3 3 0 0 1 -3 3h-.34a13.9 13.9 0 0 0 -1.71-.08h-7a14.25 14.25 0 0 0 -1.73.08h-.34a2.56 2.56 0 0 1 -.39 0 2.94 2.94 0 0 1 -2 .76z"/><path d="m86 45.61h-.21a3 3 0 0 1 -2.11-1.09 3.83 3.83 0 0 0 -1-.93 2.88 2.88 0 0 1 -.93-.94h-1.75a3 3 0 0 1 -3-3.36 15.42 15.42 0 0 0 .08-1.73v-7.89c0-.76 0-1.07 0-1.47a3 3 0 0 1 .84-2.38 3 3 0 0 1 2.14-.9h.23 1.48 3.73a3 3 0 0 1 1.59-.46h.32a12.69 12.69 0 0 0 1.63.07h3.61a10.63 10.63 0 0 0 1.49-.06 2.6 2.6 0 0 1 .4 0 3 3 0 0 1 3 3.33 14.61 14.61 0 0 0 0 1.63v10.84a4.71 4.71 0 0 1 -2.06 4.25 7.14 7.14 0 0 1 -4 .82h-1a3 3 0 0 1 -2-.86l-.36.34a3 3 0 0 1 -2.12.79z"/></g><path d="m5.57 16.1v1.16h-2.57c0-.65.08-1.36.08-2.36v-8.24c0-1.19 0-1.39-.06-2.21a19.62 19.62 0 0 0 2.4.07h7.8c1.4 0 1.82 0 2.5-.07-.05.59-.07 1.32-.07 2.29v8.06a20.66 20.66 0 0 0 .09 2.44h-2.57v-1.14zm7.6-9.33h-7.62v7.08h7.62z" fill="#231815"/><path d="m18.77 9a20.6 20.6 0 0 0 3.06.14h8.44a21.86 21.86 0 0 0 3.06-.12v2.78c-.67-.05-1.77-.09-3.07-.09h-8.43c-1.46 0-2.41 0-3.06.1z" fill="#231815"/><path d="m38.65 4.15a24.76 24.76 0 0 1 2.24 5.41l-2.62.9a22.39 22.39 0 0 0 -2.09-5.46zm10.53.6a7.78 7.78 0 0 0 -.43 1.67 18.16 18.16 0 0 1 -3.67 7.75 16.22 16.22 0 0 1 -5 3.79 7.88 7.88 0 0 0 -1.87-2.19 12.79 12.79 0 0 0 4.79-3.25 12.28 12.28 0 0 0 2.67-4.76 13.75 13.75 0 0 0 .77-3.64z" fill="#231815"/><path d="m54.49 4.19a23.8 23.8 0 0 1 4.44 3.23l-1.69 2.19a17.25 17.25 0 0 0 -4.39-3.45zm-1.57 10.35a16.08 16.08 0 0 0 5-1.22 10.41 10.41 0 0 0 4.88-4.09 14.82 14.82 0 0 0 1.69-3.32 9 9 0 0 0 2.12 1.93 14.33 14.33 0 0 1 -6.53 7.31 21 21 0 0 1 -4.86 1.74l-.73.15a7.39 7.39 0 0 0 -.84.23z" fill="#231815"/><path d="m82 5.1a9.55 9.55 0 0 0 -.92.29 21.46 21.46 0 0 1 -3.27.83v2.54h3.1a14.44 14.44 0 0 0 2.37-.12v2.36a20.48 20.48 0 0 0 -2.32-.09h-3.3a8.74 8.74 0 0 1 -1.12 3.59 8.76 8.76 0 0 1 -2.74 2.67 11.67 11.67 0 0 1 -1.59.84 6.44 6.44 0 0 0 -1.75-2.12 8.5 8.5 0 0 0 2.54-1.34 4.88 4.88 0 0 0 2.09-3.64h-3.68a20.91 20.91 0 0 0 -2.41.09v-2.36a14.7 14.7 0 0 0 2.41.12h3.84c0-.43 0-1.29 0-1.9v-.29c-1.34.17-2 .22-4.52.34a7.92 7.92 0 0 0 -.74-2.16h1.07a30.39 30.39 0 0 0 7.21-.94 9 9 0 0 0 2.07-.78z" fill="#231815"/><path d="m96.1 8.24a12.45 12.45 0 0 1 -1 4.66c-1 2.19-2.67 3.67-5.64 5a6.24 6.24 0 0 0 -1.65-2.22 9.64 9.64 0 0 0 3.32-1.81c1.55-1.28 2.22-2.85 2.4-5.64h-3.7a13.8 13.8 0 0 1 -2.74 3.32 6.28 6.28 0 0 0 -2-1.56 12.75 12.75 0 0 0 3.51-4.58 8.15 8.15 0 0 0 .77-2.41l2.63.57c-.13.26-.13.26-.57 1.32a10.31 10.31 0 0 1 -.51 1.11h6.85a14.17 14.17 0 0 0 2.35-.12v2.46c-.63-.06-1.47-.1-2.37-.1z" fill="#231815"/><path d="m105.69 7a19.37 19.37 0 0 1 1.66 4.09l-2.24.68a17.34 17.34 0 0 0 -1.5-4.17zm9.67.2a5.38 5.38 0 0 0 -.25.93 15.44 15.44 0 0 1 -2.19 5.53 12.9 12.9 0 0 1 -5.31 4.22 7.36 7.36 0 0 0 -1.58-2 11.79 11.79 0 0 0 2.97-1.51 9.44 9.44 0 0 0 3.72-5.79 9.15 9.15 0 0 0 .3-1.92zm-6-.89a16.9 16.9 0 0 1 1.62 4l-2.19.67a19.79 19.79 0 0 0 -1.5-4.06z" fill="#231815"/><path d="m122.1 17.69a17.79 17.79 0 0 0 .1-2.35v-9.89a15 15 0 0 0 -.1-2.23h2.72a15.12 15.12 0 0 0 -.1 2.23v2.55a40.26 40.26 0 0 1 7.6 3.51l-1.32 2.39a37.15 37.15 0 0 0 -5.59-3 4.29 4.29 0 0 1 -.64-.3v4.81a19.84 19.84 0 0 0 .1 2.32z" fill="#231815"/><path d="m42 29a11.73 11.73 0 0 0 -.1-1.87h2.29a10.45 10.45 0 0 0 -.1 1.88v2a5.61 5.61 0 0 0 1.11-.01v2a6.26 6.26 0 0 0 -1.08 0v3.46c.26-.14.41-.2.85-.44v1.98a29.93 29.93 0 0 1 -3.46 1.72 5.28 5.28 0 0 0 -.73.36l-.39-2.32a7.26 7.26 0 0 0 1.61-.46v-4.3h-.3a5.86 5.86 0 0 0 -1.17.09v-2.15a6 6 0 0 0 1.17.06h.3zm10.58 5.91h1v-1.2a5.92 5.92 0 0 0 0-1h1.92a6.09 6.09 0 0 0 -.06 1.07v1.82a8.87 8.87 0 0 0 0 1.19 9.4 9.4 0 0 0 -1.12 0h-1.71v3.15h1.25v-1.64a5.28 5.28 0 0 0 -.06-1h2a7.19 7.19 0 0 0 -.06 1.18v2.49a14.36 14.36 0 0 0 .08 1.54h-1.9v-.7h-4.55v.71h-2a11.45 11.45 0 0 0 .06-1.4v-2.67a9 9 0 0 0 -.05-1.18h2a6.21 6.21 0 0 0 0 1v1.59h1.28v-3.12h-1.66a7.91 7.91 0 0 0 -1 0 6.6 6.6 0 0 0 0-1v-2a9.68 9.68 0 0 0 0-.98h1.8a6.64 6.64 0 0 0 -.05 1v1.21h.88v-2.83h-3c-.08 5.23-.78 7.93-2.7 10.34a6.06 6.06 0 0 0 -1.84-1.42 7.52 7.52 0 0 0 2.16-4.06 41.71 41.71 0 0 0 .45-7.23 19.44 19.44 0 0 0 -.08-2.43 15.53 15.53 0 0 0 1.83.08h6.45a15.34 15.34 0 0 0 1.82-.08 12.88 12.88 0 0 0 0 1.37v2.15a11.52 11.52 0 0 0 0 1.33c-.37 0-.79 0-1.32 0h-1.79zm1-4.56v-1.08h-5.89v1.09z" fill="#231815"/><path d="m58.39 31.08a21 21 0 0 1 3.27 2.2l-1.27 1.85a14.94 14.94 0 0 0 -3.32-2.3zm3.33 5.86a25.27 25.27 0 0 1 -2 4.35c-.2.35-.25.44-.38.64a3.77 3.77 0 0 0 -.25.41l-1.94-1.65a16.34 16.34 0 0 0 2.74-5zm-2.67-9.94a18.52 18.52 0 0 1 3.24 2.25l-1.37 1.75a16.49 16.49 0 0 0 -3.24-2.42zm6.8 3.17h-1.54a14.66 14.66 0 0 0 -2 .1v-2.33a18 18 0 0 0 2 .1h5.89a17.44 17.44 0 0 0 2-.1v2.32a15.93 15.93 0 0 0 -2-.1h-2.05v9.21h2.39a15.1 15.1 0 0 0 2-.1v2.34a16.76 16.76 0 0 0 -2-.1h-7a16.89 16.89 0 0 0 -2.07.1v-2.34a15.77 15.77 0 0 0 2.06.1h2.32z" fill="#231815"/><path d="m84.12 38.89v-.45h-2v1.2h-2.12a16.6 16.6 0 0 0 .1-2.09v-7.88a16.75 16.75 0 0 0 -.1-1.75h1.71 3 1.42a14.36 14.36 0 0 0 -.05 1.49v7.88 1.46c.72-1.51 1-3.63 1-7.42 0-2.09 0-3.06-.1-3.83a14.89 14.89 0 0 0 2 .09h3.61a12.51 12.51 0 0 0 1.89-.09 17.63 17.63 0 0 0 -.07 2v10.77a1.85 1.85 0 0 1 -.7 1.74 4.69 4.69 0 0 1 -2.36.33h-.9a7.9 7.9 0 0 0 -.45-2.2 14.25 14.25 0 0 0 1.7.15c.52 0 .65-.1.65-.47v-2.52h-3.49a8.94 8.94 0 0 1 -2.86 5.31 6.53 6.53 0 0 0 -1.68-1.55 7.25 7.25 0 0 0 1.78-2.17zm-2-6.73h2v-2.24h-2zm0 4.36h2v-2.52h-2zm7.11-3.14c-.05 1.07-.06 1.24-.13 2h3.2v-2zm3-3.79h-3v1.89h3z" fill="#231815"/></svg>