<svg viewBox="0 0 137.64 44.94" xmlns="http://www.w3.org/2000/svg"><path d="m59.67 3a13.28 13.28 0 0 0 -.13 2.29v9a15.28 15.28 0 0 0 .13 2.3h-3a14.13 14.13 0 0 0 .14-2.3v-3.54h-6.2v3.52a15 15 0 0 0 .14 2.3h-3a14.16 14.16 0 0 0 .13-2.3v-9a14.39 14.39 0 0 0 -.16-2.27h3a15.26 15.26 0 0 0 -.14 2.29v3h6.2v-3a13.81 13.81 0 0 0 -.13-2.29z"/><path d="m68 16.57a11.57 11.57 0 0 0 -.72-2.35l-2.07-5.22c-.2-.52-.43-1.29-.78-2.54.1 1.62.13 2.29.13 2.7v4.86a16.31 16.31 0 0 0 .14 2.52h-2.79a17.06 17.06 0 0 0 .09-2.49v-8.51a18.14 18.14 0 0 0 -.09-2.54h3.7a10.84 10.84 0 0 0 .62 2.15l3 7.78 3-7.78a10.27 10.27 0 0 0 .54-2.15h3.71a18.41 18.41 0 0 0 -.13 2.54v8.51a15.59 15.59 0 0 0 .13 2.52h-2.79a17 17 0 0 0 .14-2.52v-4.91c0-.4 0-1.07.13-2.65l-.27 1c-.08.28-.36 1.19-.46 1.44l-2.11 5.25a15.24 15.24 0 0 0 -.72 2.34z"/><path d="m84.09 13c.15.49.28.94.33 1.15.1-.35.22-.73.35-1.15l2.59-8.21a7.55 7.55 0 0 0 .42-1.79h3.32a15.69 15.69 0 0 0 -.8 2l-3.56 9.81a10.59 10.59 0 0 0 -.53 1.74h-3.57a13.22 13.22 0 0 0 -.54-1.74l-3.55-9.81a20 20 0 0 0 -.82-2h3.32a11.35 11.35 0 0 0 .42 1.77z"/><path d="m17.17 28.35a6.24 6.24 0 0 0 -.63.61 28.49 28.49 0 0 1 -3.91 3.4v6.58a19.78 19.78 0 0 0 .09 2.47h-2.72a16.89 16.89 0 0 0 .1-2.42v-5.08a28 28 0 0 1 -5.75 2.59 8.32 8.32 0 0 0 -1.35-2.27 24.58 24.58 0 0 0 8.8-4.34 13.41 13.41 0 0 0 3.09-3.09z"/><path d="m28.32 35.05c0-.15 0-.64 0-1.42a15.22 15.22 0 0 1 -2.3 2.84 21.5 21.5 0 0 1 -4.88 3.53 6.28 6.28 0 0 0 -1.67-2.1 16.88 16.88 0 0 0 5.08-3.46 13 13 0 0 0 2.15-2.6h-3.92a20.06 20.06 0 0 0 -2.36.09v-2.37a16.35 16.35 0 0 0 2.41.11h5.42v-.89a13 13 0 0 0 -.09-1.9h2.62c0 .48-.05.8-.05 1.25v.63.92h1.2a12.41 12.41 0 0 0 2.36-.11v2.43c-.59-.05-1.36-.09-2.31-.09h-1.22l.08 7.27a19.71 19.71 0 0 0 .16 2.3h-2.75a13.5 13.5 0 0 0 .1-1.94v-.37-3.89z"/><path d="m39 27.85a23.9 23.9 0 0 1 4.44 3.24l-1.68 2.19a17.88 17.88 0 0 0 -4.39-3.46zm-1.62 10.35a15.93 15.93 0 0 0 5-1.22 10.28 10.28 0 0 0 4.9-4.09 13.66 13.66 0 0 0 1.72-3.32 9 9 0 0 0 2.12 1.94 14.33 14.33 0 0 1 -6.53 7.31 21.11 21.11 0 0 1 -4.85 1.74l-.74.15a5.32 5.32 0 0 0 -.83.23z"/><path d="m55.71 34.71a20.11 20.11 0 0 0 -2.29.09v-2.39a14 14 0 0 0 2.32.12h2.76v-2.59h-1.76a21.63 21.63 0 0 0 -2.3.08v-2.37a12.91 12.91 0 0 0 2.34.12h7.31a15.39 15.39 0 0 0 2.47-.12v2.35a23.67 23.67 0 0 0 -2.42-.08h-3.14v2.59h4.2a17.7 17.7 0 0 0 2.44-.12v2.41a20.85 20.85 0 0 0 -2.4-.09h-4.24v2.37c0 .86 0 1.06.25 1.24a2.71 2.71 0 0 0 1.53.27 17.63 17.63 0 0 0 4.22-.42l.07 2.5h-.25a5.43 5.43 0 0 0 -.69 0c-1.27.1-2.45.15-3.42.15-3.42 0-4.22-.59-4.22-3.06v-3.05z"/><path d="m70 32.71a21.13 21.13 0 0 0 3.06.13h8.44a22.26 22.26 0 0 0 3-.11v2.74c-.67 0-1.77-.09-3.07-.09h-8.38c-1.45 0-2.41 0-3.06.1z"/><path d="m91.91 27.4a36.19 36.19 0 0 0 -.18 3.79c-.12 3.47-.44 5.21-1.32 7a11.06 11.06 0 0 1 -2.29 3.19 7.55 7.55 0 0 0 -2-1.95 7.79 7.79 0 0 0 2.5-3.83 14.23 14.23 0 0 0 .6-3.84c0-.81.07-1.95.07-2.85a12.86 12.86 0 0 0 -.07-1.69zm4.57-.25a12.33 12.33 0 0 0 -.13 2l-.08 8.88a6.67 6.67 0 0 0 2.28-1.87 8.21 8.21 0 0 0 1.49-3 9 9 0 0 0 1.87 1.87 9.66 9.66 0 0 1 -6.3 6 3.63 3.63 0 0 0 -.76.33l-1.24-1.32a6.25 6.25 0 0 0 .17-1.6l.06-9.38v-.47a12.21 12.21 0 0 0 -.06-1.53z"/><path d="m109.48 27.32a6.74 6.74 0 0 0 -.08-1h2.4a5.65 5.65 0 0 0 -.1 1v.15h4.81a13.15 13.15 0 0 0 1.79-.1v2a12.55 12.55 0 0 0 -1.77-.09h-11.65a12.49 12.49 0 0 0 -1.76.09v-2a14 14 0 0 0 1.87.1h4.49zm4.91 11.85v.69h.88c.37 0 .45-.07.45-.35v-3.59h-10.04v4.08a13.82 13.82 0 0 0 .08 1.9h-2.3a14.34 14.34 0 0 0 .1-1.9v-4.32a15 15 0 0 0 -.07-1.52c.55.05 1.05.07 1.79.07h11a14.07 14.07 0 0 0 1.67-.07 13.81 13.81 0 0 0 -.07 1.51v4c0 1-.08 1.33-.4 1.62s-.95.47-2.1.47c-.28 0-.55 0-1.22 0a4.66 4.66 0 0 0 -.23-1.52h-4.93v.65h-2.1a9.29 9.29 0 0 0 .06-1.35v-2a7.59 7.59 0 0 0 0-1 12.58 12.58 0 0 0 1.35 0h4.86a11.54 11.54 0 0 0 1.32 0 9.35 9.35 0 0 0 0 1zm-8.83-8.23a7.9 7.9 0 0 0 -.07-1.17c.5 0 .91.05 1.67.05h7.26c.71 0 1.06 0 1.56-.05a7.81 7.81 0 0 0 -.07 1.17v1.6a7.25 7.25 0 0 0 .07 1.19c-.47 0-.89 0-1.62 0h-7.23c-.68 0-1.12 0-1.64 0a7.92 7.92 0 0 0 .07-1.19zm2.09 1.25h6.16v-.88h-6.16zm1.3 6.53h3.54v-.72h-3.49z"/><path d="m124.8 31.58a11.31 11.31 0 0 0 -1-2l1.85-.65h-3.25v11a14.32 14.32 0 0 0 .07 2h-2.32a14.78 14.78 0 0 0 .11-2v-11.43a16.38 16.38 0 0 0 -.06-1.68 15.45 15.45 0 0 0 2 .08h10.43a15.71 15.71 0 0 0 2-.07 14.49 14.49 0 0 0 -.09 2v11.17a1.47 1.47 0 0 1 -.9 1.55 6.23 6.23 0 0 1 -1.93.2h-1.41a5.13 5.13 0 0 0 -.56-2c.56 0 1.48.1 1.82.1.71 0 .85-.05.85-.3v-10.66h-3.26l2 .68a15.43 15.43 0 0 1 -1.08 2h.55a11.24 11.24 0 0 0 1.49-.07v2a11.54 11.54 0 0 0 -1.49-.07h-2.25v3.57h1.25v-1.5c0-.47 0-.87-.07-1.25h2a11.48 11.48 0 0 0 -.07 1.42v2.49a12.73 12.73 0 0 0 .07 1.35h-1.92v-.62h-4.36v1.35h-1.93a16.71 16.71 0 0 0 .08-1.78v-2.74a11.86 11.86 0 0 0 -.08-1.49h2a9.9 9.9 0 0 0 0 1.3v1.47h1.17v-3.5h-2.17a11 11 0 0 0 -1.49.07v-2a12 12 0 0 0 1.49.07zm3.06 0a11.55 11.55 0 0 0 1.23-2.69h-3.38a13.93 13.93 0 0 1 1.08 2.19l-1.52.5z"/><g fill="#fff"><path d="m56.65 19.57a3 3 0 0 1 -2.27-1 3 3 0 0 1 -.69-1.57 3.06 3.06 0 0 1 -.7 1.5 3 3 0 0 1 -2.26 1h-3a3 3 0 0 1 -2.27-1 3 3 0 0 1 -.7-2.4 11.09 11.09 0 0 0 .1-1.86v-9a11.56 11.56 0 0 0 -.1-1.87 3 3 0 0 1 3-3.43h3a3 3 0 0 1 2.24 1.06 3.06 3.06 0 0 1 .7 1.5 2.93 2.93 0 0 1 .68-1.47 3 3 0 0 1 2.27-1.03h3a3 3 0 0 1 2.95 3.55 13.57 13.57 0 0 0 -.08 1.74v9a11.54 11.54 0 0 0 .11 1.9 3 3 0 0 1 -.72 2.38 3 3 0 0 1 -2.26 1zm-3.06-5.3a11.82 11.82 0 0 0 .1 1.83 11 11 0 0 0 .1-1.83v-.52h-.2zm.2-9a11 11 0 0 0 -.1-1.81 12.93 12.93 0 0 0 -.1 1.82h.2z"/><path d="m73.69 19.57a3 3 0 0 1 -1.64-.49 3 3 0 0 1 -1.65.49h-2.4a3.06 3.06 0 0 1 -1.64-.48 3 3 0 0 1 -1.63.48h-2.82a3 3 0 0 1 -3-3.42 15.44 15.44 0 0 0 .1-2.1v-8.51a15.88 15.88 0 0 0 -.1-2.12 3 3 0 0 1 .73-2.42 3 3 0 0 1 2.27-1h3.7a3 3 0 0 1 3 2.52 8.87 8.87 0 0 0 .39 1.57l.15.41.16-.41a7.35 7.35 0 0 0 .46-1.56 3 3 0 0 1 3-2.53h3.71a3 3 0 0 1 3 3.37 14.76 14.76 0 0 0 -.11 2.17v8.51a13.35 13.35 0 0 0 .09 2.05 3 3 0 0 1 -3 3.47z"/><path d="m82.64 19.57a3 3 0 0 1 -2.94-2.41 13.63 13.63 0 0 0 -.42-1.31l-3.55-9.85a17.42 17.42 0 0 0 -.73-1.7 3 3 0 0 1 2.73-4.3h3.32a3 3 0 0 1 3 2.54 8.37 8.37 0 0 0 .32 1.35l.08.25.08-.27a5.16 5.16 0 0 0 .31-1.29 3 3 0 0 1 3-2.58h3.26a3 3 0 0 1 2.68 4.34 16.15 16.15 0 0 0 -.65 1.66l-3.57 9.84a7.54 7.54 0 0 0 -.39 1.21 3 3 0 0 1 -3 2.5z"/><path d="m10 44.41a3 3 0 0 1 -3-3.41 14.92 14.92 0 0 0 .07-2v-.31l-1.67.63a2.9 2.9 0 0 1 -1 .19 3 3 0 0 1 -2.8-1.81 5.54 5.54 0 0 0 -1-1.63 3 3 0 0 1 1.6-4.73 21.93 21.93 0 0 0 7.8-3.82 10.86 10.86 0 0 0 2.35-2.26 3 3 0 0 1 1.93-1.39 3.5 3.5 0 0 1 .65-.07 3 3 0 0 1 1.68.52l2.29 1.55a3 3 0 0 1 .27 4.76 3.15 3.15 0 0 0 -.41.38 32.45 32.45 0 0 1 -3.09 2.84v5.09a18 18 0 0 0 .07 2.12 3 3 0 0 1 -3 3.35z"/><path d="m28.25 44.48a3 3 0 0 1 -3-3.41.22.22 0 0 0 0-.08c-.76.53-1.61 1.06-2.66 1.66a3 3 0 0 1 -1.49.39 3 3 0 0 1 -2.64-1.58 3.65 3.65 0 0 0 -1.06-1.32 3 3 0 0 1 .79-4.93c.35-.16.67-.32 1-.49a2.88 2.88 0 0 1 -.82-.53 3 3 0 0 1 -1-2.21v-2.42a3 3 0 0 1 1-2.25 3 3 0 0 1 2-.75 2.17 2.17 0 0 1 .36 0 13.5 13.5 0 0 0 2 .09h2.33a3.09 3.09 0 0 1 .75-1.8 3 3 0 0 1 2.24-1h2.62a3 3 0 0 1 3 2.73h.07a3.71 3.71 0 0 1 .47 0 3 3 0 0 1 3 3v2.42a3 3 0 0 1 -3 3h-.21-.25l.05 4.17c0 1.16 0 1.59.09 2a3 3 0 0 1 -3 3.38z"/><path d="m38.12 43.94a3 3 0 0 1 -2.9-2.22l-.74-2.72a3 3 0 0 1 2.71-3.77 12.74 12.74 0 0 0 1.91-.3 13.88 13.88 0 0 0 -3.24-2.46 3 3 0 0 1 -.86-4.56l1.63-2a3 3 0 0 1 2.37-1.06 2.92 2.92 0 0 1 1.55.44 26.14 26.14 0 0 1 4.93 3.6 2.67 2.67 0 0 1 .39.44c.1-.25.21-.51.32-.8a3 3 0 0 1 2.29-1.91 3.05 3.05 0 0 1 .52-.05 3 3 0 0 1 2.28 1.05 6.11 6.11 0 0 0 1.58 1.44 3 3 0 0 1 1 3.71 17.34 17.34 0 0 1 -7.86 8.7 23.73 23.73 0 0 1 -5.62 2l-.76.15a3.17 3.17 0 0 0 -.5.15 3.09 3.09 0 0 1 -1 .17z"/><path d="m62.72 43.86c-2.35 0-7.22 0-7.22-6.06v-.09c-.87 0-1.34 0-1.76.07h-.32a3 3 0 0 1 -3-3v-2.37a3 3 0 0 1 1-2.25v-2.51a3 3 0 0 1 3-3 2.28 2.28 0 0 1 .45 0 11.14 11.14 0 0 0 1.89.08h7.31a13.67 13.67 0 0 0 2-.08 2.18 2.18 0 0 1 .44 0 3 3 0 0 1 3 3v2.48a3 3 0 0 1 1 2.25v2.42a3 3 0 0 1 -.88 2.12 2.92 2.92 0 0 1 .37 1.17l.06 2.5a3 3 0 0 1 -3 3.08h-.25a2.81 2.81 0 0 0 -.43 0c-1.32.13-2.59.19-3.66.19z"/><path d="m70 38.48a3 3 0 0 1 -3-3v-2.77a3 3 0 0 1 3-3 2.6 2.6 0 0 1 .4 0 19 19 0 0 0 2.66.1h8.44a18.79 18.79 0 0 0 2.66-.09h.39a3 3 0 0 1 3 3v2.74a3 3 0 0 1 -3 3h-.22c-.64-.05-1.7-.08-2.85-.08h-8.43c-1.29 0-2.19 0-2.75.09z"/><path d="m94.84 44.47a3 3 0 0 1 -2.18-1l-1.22-1.27a15.15 15.15 0 0 1 -1.18 1.31 3 3 0 0 1 -2.14.9h-.12a3 3 0 0 1 -2.19-1.14 4.85 4.85 0 0 0 -1.39-1.35 3 3 0 0 1 -.26-4.7 4.76 4.76 0 0 0 1.63-2.46 11.58 11.58 0 0 0 .47-3.13c0-.73.06-1.82.06-2.68a9.73 9.73 0 0 0 0-1.34 3 3 0 0 1 3-3.35h.17l2.71.15h.36a3.06 3.06 0 0 1 1.34-.31h2.6a3 3 0 0 1 3 3.44 8.27 8.27 0 0 0 -.1 1.63v1.09h.13a3.66 3.66 0 0 1 .57-.05 3 3 0 0 1 2.35 1.14 6.54 6.54 0 0 0 1.39 1.39 3 3 0 0 1 .91 3.46 13.39 13.39 0 0 1 -3.58 5.2 13.17 13.17 0 0 1 -4.45 2.5l-.33.12a2.82 2.82 0 0 1 -1.55.45z"/><path d="m103.46 44.94a3 3 0 0 1 -3-3.51 10.34 10.34 0 0 0 .06-1.39v-4.36c0-.48 0-.86 0-1.22a3 3 0 0 1 .85-2.41l.17-.15a3.79 3.79 0 0 1 -.4-.3 3 3 0 0 1 -1-2.24v-2a3 3 0 0 1 3-3h.38a10.51 10.51 0 0 0 1.49.08h1.99l.09-.12a3 3 0 0 1 2.27-1h2.4a3 3 0 0 1 2.32 1.09v.06h2.34a11.08 11.08 0 0 0 1.43-.08h.36a3 3 0 0 1 3 3v2a3 3 0 0 1 -1 2.24 3.79 3.79 0 0 1 -.4.3l.19.07a2.94 2.94 0 0 1 .87 2.43v1.2 4a4.74 4.74 0 0 1 -1.4 3.85 5.72 5.72 0 0 1 -4.1 1.24c-.31 0-.61 0-1.35 0a3 3 0 0 1 -2.47-1.53h-.69a3 3 0 0 1 -1.86.65h-.9l-.07.08a3 3 0 0 1 -2.24 1z"/><path d="m120.15 44.86a3 3 0 0 1 -3-3.41 11.92 11.92 0 0 0 .08-1.61v-11.34a13.86 13.86 0 0 0 -.05-1.4 3 3 0 0 1 .9-2.43 3 3 0 0 1 2.09-.85h.36a13.12 13.12 0 0 0 1.69.06h10.43a14.13 14.13 0 0 0 1.66 0h.3a3 3 0 0 1 2.15.92 3 3 0 0 1 .82 2.47 13.27 13.27 0 0 0 -.06 1.57v11.16a4.44 4.44 0 0 1 -2.81 4.34 8.28 8.28 0 0 1 -3 .41h-1.16-.33a3 3 0 0 1 -2.86-2.4 3 3 0 0 1 -2.15.9h-.08a2.94 2.94 0 0 1 -.42.62 3 3 0 0 1 -2.25 1z"/></g><path d="m59.67 3a13.28 13.28 0 0 0 -.13 2.29v9a15.28 15.28 0 0 0 .13 2.3h-3a14.13 14.13 0 0 0 .14-2.3v-3.54h-6.2v3.52a15 15 0 0 0 .14 2.3h-3a14.16 14.16 0 0 0 .13-2.3v-9a14.39 14.39 0 0 0 -.16-2.27h3a15.26 15.26 0 0 0 -.14 2.29v3h6.2v-3a13.81 13.81 0 0 0 -.13-2.29z" fill="#231815"/><path d="m68 16.57a11.57 11.57 0 0 0 -.72-2.35l-2.07-5.22c-.2-.52-.43-1.29-.78-2.54.1 1.62.13 2.29.13 2.7v4.86a16.31 16.31 0 0 0 .14 2.52h-2.79a17.06 17.06 0 0 0 .09-2.49v-8.51a18.14 18.14 0 0 0 -.09-2.54h3.7a10.84 10.84 0 0 0 .62 2.15l3 7.78 3-7.78a10.27 10.27 0 0 0 .54-2.15h3.71a18.41 18.41 0 0 0 -.13 2.54v8.51a15.59 15.59 0 0 0 .13 2.52h-2.79a17 17 0 0 0 .14-2.52v-4.91c0-.4 0-1.07.13-2.65l-.27 1c-.08.28-.36 1.19-.46 1.44l-2.11 5.25a15.24 15.24 0 0 0 -.72 2.34z" fill="#231815"/><path d="m84.09 13c.15.49.28.94.33 1.15.1-.35.22-.73.35-1.15l2.59-8.21a7.55 7.55 0 0 0 .42-1.79h3.32a15.69 15.69 0 0 0 -.8 2l-3.56 9.81a10.59 10.59 0 0 0 -.53 1.74h-3.57a13.22 13.22 0 0 0 -.54-1.74l-3.55-9.81a20 20 0 0 0 -.82-2h3.32a11.35 11.35 0 0 0 .42 1.77z" fill="#231815"/><path d="m17.17 28.35a6.24 6.24 0 0 0 -.63.61 28.49 28.49 0 0 1 -3.91 3.4v6.58a19.78 19.78 0 0 0 .09 2.47h-2.72a16.89 16.89 0 0 0 .1-2.42v-5.08a28 28 0 0 1 -5.75 2.59 8.32 8.32 0 0 0 -1.35-2.27 24.58 24.58 0 0 0 8.8-4.34 13.41 13.41 0 0 0 3.09-3.09z" fill="#231815"/><path d="m28.32 35.05c0-.15 0-.64 0-1.42a15.22 15.22 0 0 1 -2.3 2.84 21.5 21.5 0 0 1 -4.88 3.53 6.28 6.28 0 0 0 -1.67-2.1 16.88 16.88 0 0 0 5.08-3.46 13 13 0 0 0 2.15-2.6h-3.92a20.06 20.06 0 0 0 -2.36.09v-2.37a16.35 16.35 0 0 0 2.41.11h5.42v-.89a13 13 0 0 0 -.09-1.9h2.62c0 .48-.05.8-.05 1.25v.63.92h1.2a12.41 12.41 0 0 0 2.36-.11v2.43c-.59-.05-1.36-.09-2.31-.09h-1.22l.08 7.27a19.71 19.71 0 0 0 .16 2.3h-2.75a13.5 13.5 0 0 0 .1-1.94v-.37-3.89z" fill="#231815"/><path d="m39 27.85a23.9 23.9 0 0 1 4.44 3.24l-1.68 2.19a17.88 17.88 0 0 0 -4.39-3.46zm-1.62 10.35a15.93 15.93 0 0 0 5-1.22 10.28 10.28 0 0 0 4.9-4.09 13.66 13.66 0 0 0 1.72-3.32 9 9 0 0 0 2.12 1.94 14.33 14.33 0 0 1 -6.53 7.31 21.11 21.11 0 0 1 -4.85 1.74l-.74.15a5.32 5.32 0 0 0 -.83.23z" fill="#231815"/><path d="m55.71 34.71a20.11 20.11 0 0 0 -2.29.09v-2.39a14 14 0 0 0 2.32.12h2.76v-2.59h-1.76a21.63 21.63 0 0 0 -2.3.08v-2.37a12.91 12.91 0 0 0 2.34.12h7.31a15.39 15.39 0 0 0 2.47-.12v2.35a23.67 23.67 0 0 0 -2.42-.08h-3.14v2.59h4.2a17.7 17.7 0 0 0 2.44-.12v2.41a20.85 20.85 0 0 0 -2.4-.09h-4.24v2.37c0 .86 0 1.06.25 1.24a2.71 2.71 0 0 0 1.53.27 17.63 17.63 0 0 0 4.22-.42l.07 2.5h-.25a5.43 5.43 0 0 0 -.69 0c-1.27.1-2.45.15-3.42.15-3.42 0-4.22-.59-4.22-3.06v-3.05z" fill="#231815"/><path d="m70 32.71a21.13 21.13 0 0 0 3.06.13h8.44a22.26 22.26 0 0 0 3-.11v2.74c-.67 0-1.77-.09-3.07-.09h-8.38c-1.45 0-2.41 0-3.06.1z" fill="#231815"/><path d="m91.91 27.4a36.19 36.19 0 0 0 -.18 3.79c-.12 3.47-.44 5.21-1.32 7a11.06 11.06 0 0 1 -2.29 3.19 7.55 7.55 0 0 0 -2-1.95 7.79 7.79 0 0 0 2.5-3.83 14.23 14.23 0 0 0 .6-3.84c0-.81.07-1.95.07-2.85a12.86 12.86 0 0 0 -.07-1.69zm4.57-.25a12.33 12.33 0 0 0 -.13 2l-.08 8.88a6.67 6.67 0 0 0 2.28-1.87 8.21 8.21 0 0 0 1.49-3 9 9 0 0 0 1.87 1.87 9.66 9.66 0 0 1 -6.3 6 3.63 3.63 0 0 0 -.76.33l-1.24-1.32a6.25 6.25 0 0 0 .17-1.6l.06-9.38v-.47a12.21 12.21 0 0 0 -.06-1.53z" fill="#231815"/><path d="m109.48 27.32a6.74 6.74 0 0 0 -.08-1h2.4a5.65 5.65 0 0 0 -.1 1v.15h4.81a13.15 13.15 0 0 0 1.79-.1v2a12.55 12.55 0 0 0 -1.77-.09h-11.65a12.49 12.49 0 0 0 -1.76.09v-2a14 14 0 0 0 1.87.1h4.49zm4.91 11.85v.69h.88c.37 0 .45-.07.45-.35v-3.59h-10.04v4.08a13.82 13.82 0 0 0 .08 1.9h-2.3a14.34 14.34 0 0 0 .1-1.9v-4.32a15 15 0 0 0 -.07-1.52c.55.05 1.05.07 1.79.07h11a14.07 14.07 0 0 0 1.67-.07 13.81 13.81 0 0 0 -.07 1.51v4c0 1-.08 1.33-.4 1.62s-.95.47-2.1.47c-.28 0-.55 0-1.22 0a4.66 4.66 0 0 0 -.23-1.52h-4.93v.65h-2.1a9.29 9.29 0 0 0 .06-1.35v-2a7.59 7.59 0 0 0 0-1 12.58 12.58 0 0 0 1.35 0h4.86a11.54 11.54 0 0 0 1.32 0 9.35 9.35 0 0 0 0 1zm-8.83-8.23a7.9 7.9 0 0 0 -.07-1.17c.5 0 .91.05 1.67.05h7.26c.71 0 1.06 0 1.56-.05a7.81 7.81 0 0 0 -.07 1.17v1.6a7.25 7.25 0 0 0 .07 1.19c-.47 0-.89 0-1.62 0h-7.23c-.68 0-1.12 0-1.64 0a7.92 7.92 0 0 0 .07-1.19zm2.09 1.25h6.16v-.88h-6.16zm1.3 6.53h3.54v-.72h-3.49z" fill="#231815"/><path d="m124.8 31.58a11.31 11.31 0 0 0 -1-2l1.85-.65h-3.25v11a14.32 14.32 0 0 0 .07 2h-2.32a14.78 14.78 0 0 0 .11-2v-11.43a16.38 16.38 0 0 0 -.06-1.68 15.45 15.45 0 0 0 2 .08h10.43a15.71 15.71 0 0 0 2-.07 14.49 14.49 0 0 0 -.09 2v11.17a1.47 1.47 0 0 1 -.9 1.55 6.23 6.23 0 0 1 -1.93.2h-1.41a5.13 5.13 0 0 0 -.56-2c.56 0 1.48.1 1.82.1.71 0 .85-.05.85-.3v-10.66h-3.26l2 .68a15.43 15.43 0 0 1 -1.08 2h.55a11.24 11.24 0 0 0 1.49-.07v2a11.54 11.54 0 0 0 -1.49-.07h-2.25v3.57h1.25v-1.5c0-.47 0-.87-.07-1.25h2a11.48 11.48 0 0 0 -.07 1.42v2.49a12.73 12.73 0 0 0 .07 1.35h-1.92v-.62h-4.36v1.35h-1.93a16.71 16.71 0 0 0 .08-1.78v-2.74a11.86 11.86 0 0 0 -.08-1.49h2a9.9 9.9 0 0 0 0 1.3v1.47h1.17v-3.5h-2.17a11 11 0 0 0 -1.49.07v-2a12 12 0 0 0 1.49.07zm3.06 0a11.55 11.55 0 0 0 1.23-2.69h-3.38a13.93 13.93 0 0 1 1.08 2.19l-1.52.5z" fill="#231815"/></svg>