<svg viewBox="0 0 55.14 21.71" xmlns="http://www.w3.org/2000/svg"><path d="m4.4 7.47a13 13 0 0 1 2.69 2.11l-1.42 1.63a11.4 11.4 0 0 0 -2.67-2.21zm2.67 6.05a27.42 27.42 0 0 1 -2 5.19l-1.89-1.59a14.8 14.8 0 0 0 2.11-5zm-2-10.29a15 15 0 0 1 2.59 2.17l-1.52 1.6a11.74 11.74 0 0 0 -2.57-2.3zm10.93 1.32a16.18 16.18 0 0 0 2.5-.11v2.12a21.52 21.52 0 0 0 -2.24-.07h-6.12c-.23.35-.38.58-.63.93h6.31 1.77a29 29 0 0 0 -.17 3.36 8.25 8.25 0 0 0 1.39-.08v2.08a10.15 10.15 0 0 0 -1.32-.08h-.15c-.05.68-.05.68-.13 1.63a4.92 4.92 0 0 0 1.16-.08v2.07a8.79 8.79 0 0 0 -1.23-.07h-.14c-.34 2-.76 2.44-2.51 2.44-.25 0-.87 0-1.55-.08a4.52 4.52 0 0 0 -.39-1.87 9.75 9.75 0 0 0 1.46.13c.58 0 .68-.07.85-.62h-5.18c-.1.55-.14.72-.29 1.37l-2.22-.2a27.81 27.81 0 0 0 1.07-4.72h-.32a7.54 7.54 0 0 0 -1.18.08v-2.13a11.12 11.12 0 0 0 1.53.08h.19c.1-1.12.12-1.52.13-2.17a12.3 12.3 0 0 1 -.93.88 5.72 5.72 0 0 0 -1.37-1.72 8.85 8.85 0 0 0 2.2-2.4 7.31 7.31 0 0 0 .99-2.32l2.27.42c-.1.21-.1.21-.35.78-.07.13-.1.2-.17.35zm-5.8 8.1c-.06.55-.06.55-.23 1.63h1.55c.07-.48.1-.71.19-1.63zm1.67-1.92c.13-.67.13-.73.13-1.47h-1.47c0 .73 0 .93-.1 1.47zm1.79 1.92c-.08.85-.12 1.13-.2 1.63h1.67c.07-.58.1-1 .15-1.63zm1.7-1.92c0-.7 0-1.19 0-1.47h-1.43l-.08 1.47z"/><path d="m22.31 10.31a16.78 16.78 0 0 0 -2.07.1v-2.17a15.23 15.23 0 0 0 2.07.1h3.59v-1.34h-2.42a19.2 19.2 0 0 0 -1.94 0v-2.11a15.47 15.47 0 0 0 2 .1h2.36v-.39a7.88 7.88 0 0 0 -.1-1.43h2.4a7.2 7.2 0 0 0 -.1 1.47v.36h1.29a15 15 0 0 0 1.83-.1v1.26a11.08 11.08 0 0 0 1.57-2.24l2.06 1.17c-.2.21-.2.23-.64.76a28 28 0 0 1 -2.27 2.49h1.4a14.2 14.2 0 0 0 2-.1v2.17a17.39 17.39 0 0 0 -2.06-.1h-3.57a33.5 33.5 0 0 1 -3.43 2.4v.47a24.2 24.2 0 0 0 5.93-2l1.62 1.74a1.82 1.82 0 0 1 -.37.13l-.55.22c-.67.26-2.09.71-3.12 1a32.24 32.24 0 0 1 -3.51.84v.83c0 .52.25.57 2.92.57 1.86 0 2.51-.07 2.74-.32s.3-.71.34-2.18a7.61 7.61 0 0 0 2.13.75c-.16 2.25-.36 2.9-1 3.32s-1.63.47-4.94.47c-3.84 0-4.39-.24-4.39-1.92v-2.63c-1.11.57-1.65.82-2.92 1.37a7.38 7.38 0 0 0 -1.28-2 28.42 28.42 0 0 0 6.46-3.06zm6.68-2c.62-.53 1-.92 1.48-1.37h-2.37v1.4z"/><path d="m40.09 10.23a31.29 31.29 0 0 1 -.52 4.64 11.59 11.59 0 0 1 -1.39 3.79 10 10 0 0 0 -1.75-1.86 8.89 8.89 0 0 0 1.09-2.8 40.28 40.28 0 0 0 .6-8.33 15.28 15.28 0 0 0 -.12-2.17 18.56 18.56 0 0 0 2.27.1h9.39a15.41 15.41 0 0 0 1.87-.08v1.42 1.68a9.58 9.58 0 0 0 0 1.27c-.56 0-1.08 0-1.83 0h-9.55v.72h9.69a16.67 16.67 0 0 0 1.92-.07v1.8c-.53 0-.86-.06-1.7-.06h-.82a23.32 23.32 0 0 1 2.29 2.4l-1.82 1-.8-1.05c-.88.07-1.64.11-2.25.17v1.11h2.84a13.29 13.29 0 0 0 1.62-.05v1.82c-.53-.05-1-.06-1.65-.06h-2.82v1h3.5a17.87 17.87 0 0 0 2-.06v1.92a14.69 14.69 0 0 0 -2.27-.1h-8.38a17.49 17.49 0 0 0 -2.17.1v-1.99a18.61 18.61 0 0 0 1.94.06h3.24v-1h-2.35c-.71 0-1.17 0-1.71.06v-1.78a16.89 16.89 0 0 0 1.72.05h2.34v-1c-3.56.19-3.56.19-3.92.24l-.24-1.84a6.94 6.94 0 0 0 1.12.05h.8a7 7 0 0 0 .65-1.1zm9.33-4v-.88h-9.27v.84zm-4.28 4a8.63 8.63 0 0 1 -.65 1.07c1.79 0 1.79 0 3.17-.14a6 6 0 0 0 -.56-.51l1-.42z"/><g fill="#fff"><path d="m5.05 21.71a3 3 0 0 1 -1.94-.71l-1.87-1.59a3 3 0 0 1 -1-2.15 3 3 0 0 1 .76-2.16 14.84 14.84 0 0 0 1.19-3.1c-.23-.17-.49-.35-.82-.56a3 3 0 0 1 -.55-4.54l.36-.38a3.11 3.11 0 0 1 -.6-1.52 3 3 0 0 1 .89-2.44l1.53-1.47a3 3 0 0 1 3.74-.35l.45.31a3 3 0 0 1 2.28-1.05 3.41 3.41 0 0 1 .53.05l2.27.42a3 3 0 0 1 1.83 1.08h1.9a13.91 13.91 0 0 0 2.08-.08 3 3 0 0 1 2.39.7 3 3 0 0 1 1 2.27v2.12a3 3 0 0 1 -.68 1.9 3 3 0 0 1 .95 2.19v2.08a2.94 2.94 0 0 1 -.44 1.56v2a3 3 0 0 1 -1 2.25 3 3 0 0 1 -1.12.62c-.72 1.43-2.06 2.5-4.74 2.5-.28 0-1 0-1.77-.09a3 3 0 0 1 -2.19-1.2 3.12 3.12 0 0 1 -1.14.22h-.22l-1.6-.14a3 3 0 0 1 -1.84 1.22 2.7 2.7 0 0 1 -.63.04z"/><path d="m28.45 21.51c-2.7 0-6.26 0-7.17-3.19h-.14a3 3 0 0 1 -2.71-1.73 4.35 4.35 0 0 0 -.83-1.24 3 3 0 0 1 -.6-2.77 3.1 3.1 0 0 1 .51-1 2.9 2.9 0 0 1 -.23-1.14v-2.2a3 3 0 0 1 1-2.25 2.69 2.69 0 0 1 .28-.22v-.88a3 3 0 0 1 3-3 2.83 2.83 0 0 1 .41 0c.26.11.6.11 1.03.11a3 3 0 0 1 .49-.77 3 3 0 0 1 2.27-1h2.4a3 3 0 0 1 2.32 1.09 3.71 3.71 0 0 1 .28.41 3 3 0 0 1 2-.75 3 3 0 0 1 1.49.39l2 1.17a3 3 0 0 1 1.34 3.76 3 3 0 0 1 .71 1.94v2.17a3.07 3.07 0 0 1 -1.45 2.59 2.92 2.92 0 0 1 .55 2c-.14 2-.31 4.3-2.39 5.63-1.32.79-2.93.88-6.56.88z"/><path d="m38.18 21.66a3 3 0 0 1 -2.4-1.2 6.62 6.62 0 0 0 -1.28-1.36 3 3 0 0 1 -.67-3.8 5.74 5.74 0 0 0 .76-2 37.3 37.3 0 0 0 .53-7.66 11.46 11.46 0 0 0 -.12-1.73 3 3 0 0 1 3-3.41h.33a16.42 16.42 0 0 0 1.96.1h9.39a10.87 10.87 0 0 0 1.5-.06h.37a3 3 0 0 1 3 3.18v.15 1.09 1.66.69a3 3 0 0 1 .24 1.18v1.8a3 3 0 0 1 -.37 1.45 3 3 0 0 1 .1 1.4 3.09 3.09 0 0 1 -.36 1v.11a3 3 0 0 1 1 2.23v1.92a3 3 0 0 1 -1 2.26 3 3 0 0 1 -2.38.71 12.52 12.52 0 0 0 -1.85-.07h-8.43a14.23 14.23 0 0 0 -1.81.08h-.31a3.05 3.05 0 0 1 -1 .24z"/></g><path d="m4.4 7.47a13 13 0 0 1 2.69 2.11l-1.42 1.63a11.4 11.4 0 0 0 -2.67-2.21zm2.67 6.05a27.42 27.42 0 0 1 -2 5.19l-1.89-1.59a14.8 14.8 0 0 0 2.11-5zm-2-10.29a15 15 0 0 1 2.59 2.17l-1.52 1.6a11.74 11.74 0 0 0 -2.57-2.3zm10.93 1.32a16.18 16.18 0 0 0 2.5-.11v2.12a21.52 21.52 0 0 0 -2.24-.07h-6.12c-.23.35-.38.58-.63.93h6.31 1.77a29 29 0 0 0 -.17 3.36 8.25 8.25 0 0 0 1.39-.08v2.08a10.15 10.15 0 0 0 -1.32-.08h-.15c-.05.68-.05.68-.13 1.63a4.92 4.92 0 0 0 1.16-.08v2.07a8.79 8.79 0 0 0 -1.23-.07h-.14c-.34 2-.76 2.44-2.51 2.44-.25 0-.87 0-1.55-.08a4.52 4.52 0 0 0 -.39-1.87 9.75 9.75 0 0 0 1.46.13c.58 0 .68-.07.85-.62h-5.18c-.1.55-.14.72-.29 1.37l-2.22-.2a27.81 27.81 0 0 0 1.07-4.72h-.32a7.54 7.54 0 0 0 -1.18.08v-2.13a11.12 11.12 0 0 0 1.53.08h.19c.1-1.12.12-1.52.13-2.17a12.3 12.3 0 0 1 -.93.88 5.72 5.72 0 0 0 -1.37-1.72 8.85 8.85 0 0 0 2.2-2.4 7.31 7.31 0 0 0 .99-2.32l2.27.42c-.1.21-.1.21-.35.78-.07.13-.1.2-.17.35zm-5.8 8.1c-.06.55-.06.55-.23 1.63h1.55c.07-.48.1-.71.19-1.63zm1.67-1.92c.13-.67.13-.73.13-1.47h-1.47c0 .73 0 .93-.1 1.47zm1.79 1.92c-.08.85-.12 1.13-.2 1.63h1.67c.07-.58.1-1 .15-1.63zm1.7-1.92c0-.7 0-1.19 0-1.47h-1.43l-.08 1.47z" fill="#231815"/><path d="m22.31 10.31a16.78 16.78 0 0 0 -2.07.1v-2.17a15.23 15.23 0 0 0 2.07.1h3.59v-1.34h-2.42a19.2 19.2 0 0 0 -1.94 0v-2.11a15.47 15.47 0 0 0 2 .1h2.36v-.39a7.88 7.88 0 0 0 -.1-1.43h2.4a7.2 7.2 0 0 0 -.1 1.47v.36h1.29a15 15 0 0 0 1.83-.1v1.26a11.08 11.08 0 0 0 1.57-2.24l2.06 1.17c-.2.21-.2.23-.64.76a28 28 0 0 1 -2.27 2.49h1.4a14.2 14.2 0 0 0 2-.1v2.17a17.39 17.39 0 0 0 -2.06-.1h-3.57a33.5 33.5 0 0 1 -3.43 2.4v.47a24.2 24.2 0 0 0 5.93-2l1.62 1.74a1.82 1.82 0 0 1 -.37.13l-.55.22c-.67.26-2.09.71-3.12 1a32.24 32.24 0 0 1 -3.51.84v.83c0 .52.25.57 2.92.57 1.86 0 2.51-.07 2.74-.32s.3-.71.34-2.18a7.61 7.61 0 0 0 2.13.75c-.16 2.25-.36 2.9-1 3.32s-1.63.47-4.94.47c-3.84 0-4.39-.24-4.39-1.92v-2.63c-1.11.57-1.65.82-2.92 1.37a7.38 7.38 0 0 0 -1.28-2 28.42 28.42 0 0 0 6.46-3.06zm6.68-2c.62-.53 1-.92 1.48-1.37h-2.37v1.4z" fill="#231815"/><path d="m40.09 10.23a31.29 31.29 0 0 1 -.52 4.64 11.59 11.59 0 0 1 -1.39 3.79 10 10 0 0 0 -1.75-1.86 8.89 8.89 0 0 0 1.09-2.8 40.28 40.28 0 0 0 .6-8.33 15.28 15.28 0 0 0 -.12-2.17 18.56 18.56 0 0 0 2.27.1h9.39a15.41 15.41 0 0 0 1.87-.08v1.42 1.68a9.58 9.58 0 0 0 0 1.27c-.56 0-1.08 0-1.83 0h-9.55v.72h9.69a16.67 16.67 0 0 0 1.92-.07v1.8c-.53 0-.86-.06-1.7-.06h-.82a23.32 23.32 0 0 1 2.29 2.4l-1.82 1-.8-1.05c-.88.07-1.64.11-2.25.17v1.11h2.84a13.29 13.29 0 0 0 1.62-.05v1.82c-.53-.05-1-.06-1.65-.06h-2.82v1h3.5a17.87 17.87 0 0 0 2-.06v1.92a14.69 14.69 0 0 0 -2.27-.1h-8.38a17.49 17.49 0 0 0 -2.17.1v-1.99a18.61 18.61 0 0 0 1.94.06h3.24v-1h-2.35c-.71 0-1.17 0-1.71.06v-1.78a16.89 16.89 0 0 0 1.72.05h2.34v-1c-3.56.19-3.56.19-3.92.24l-.24-1.84a6.94 6.94 0 0 0 1.12.05h.8a7 7 0 0 0 .65-1.1zm9.33-4v-.88h-9.27v.84zm-4.28 4a8.63 8.63 0 0 1 -.65 1.07c1.79 0 1.79 0 3.17-.14a6 6 0 0 0 -.56-.51l1-.42z" fill="#231815"/></svg>