<svg viewBox="0 0 215.85 77.54" xmlns="http://www.w3.org/2000/svg"><g fill="#005eaa"><path d="m96.81 13.28.09.14h.13 11.46a1.34 1.34 0 0 0 .51-.14 28.67 28.67 0 0 1 8.41-2.77 29.58 29.58 0 0 1 6.65-.28 26.88 26.88 0 0 1 5.84 1 27.71 27.71 0 0 1 13.69 8.82 28 28 0 0 1 6.78 20.57 27.08 27.08 0 0 1 -1.26 6.63 28.6 28.6 0 0 1 -17.92 18.29 26.18 26.18 0 0 1 -7.59 1.46c-1.31 0-2.63 0-3.94-.07a23.69 23.69 0 0 1 -5.61-1 28 28 0 0 1 -11.44-6.55c-.44-.4-.86-.82-1.32-1.26-1.25 2.16-2.45 4.25-3.67 6.34-.16.28 0 .38.15.52a35.69 35.69 0 0 0 27.66 9.36 35.79 35.79 0 0 0 9.29-2.17 35.86 35.86 0 0 0 21.05-21.72 34.69 34.69 0 0 0 1.82-8.54 37.33 37.33 0 0 0 -.06-6.85 34.78 34.78 0 0 0 -2.49-10 35.33 35.33 0 0 0 -5.87-9.6 35.73 35.73 0 0 0 -17.31-11.07 33.67 33.67 0 0 0 -6.67-1.25 36.18 36.18 0 0 0 -8.38.24 35.79 35.79 0 0 0 -6.29 1.51 34.53 34.53 0 0 0 -9.76 5.11c-1.36 1.05-2.64 2.19-3.95 3.28zm92.69 5.72h-.5c-2.78 0-5.57 0-8.36 0a.72.72 0 0 0 -.72.42c-.65 1.13-1.33 2.26-2 3.39q-4.53 7.59-9 15.17l-10.92 18.2c-.32.53-.62 1.06-1 1.63h.28 10a.71.71 0 0 0 .48-.3c.46-.73.89-1.48 1.33-2.22l5.15-8.72c1.28-2.16 2.55-4.32 3.84-6.48a1.32 1.32 0 0 1 1.36-.59 1 1 0 0 1 .8 1.14v16.64c0 .35 0 .56.47.55h8.63a.59.59 0 0 0 .59-.32l3.85-6.48q4.5-7.56 9-15.14 4.75-8 9.54-16c.18-.29.33-.59.5-.9h-.15c-3 0-6 0-9 0a.69.69 0 0 0 -.48.31c-.93 1.52-1.84 3-2.75 4.59l-9 15.14a3.07 3.07 0 0 1 -.45.62.92.92 0 0 1 -1 .29.9.9 0 0 1 -.54-1c0-6.46 0-12.91 0-19.37zm-129.27 13h.56 7.82a.82.82 0 0 0 .8-.43c1.28-2.08 2.59-4.13 3.85-6.21a4.68 4.68 0 0 0 .38-3.9 4.05 4.05 0 0 0 -3.58-2.53c-7.06.07-14.06.07-21.06.07a6.8 6.8 0 0 0 -1.35.14 6.69 6.69 0 0 0 -4.35 3.32c-2.54 4.26-5 8.57-7.56 12.83a3.83 3.83 0 0 0 -.4 3.38 3 3 0 0 0 3 2.08h14.5a1 1 0 0 1 1 1.64c-1.51 2.51-2.98 5.05-4.44 7.61a2.09 2.09 0 0 1 -1.95 1.1h-10.45a.91.91 0 0 1 -.93-1.31 3 3 0 0 1 .28-.57c.46-.78.94-1.56 1.4-2.34.35-.57.69-1.15 1-1.77h-.24c-2.8 0-5.61 0-8.41 0a.72.72 0 0 0 -.5.34q-1.59 2.7-3.13 5.43a5 5 0 0 0 -.76 1.71 7.36 7.36 0 0 0 .15 2.52 4.08 4.08 0 0 0 3.58 2.8q10.68-.08 21.36 0a5.34 5.34 0 0 0 4.99-2.91c2-3.5 4-7 6-10.55a9.09 9.09 0 0 0 1.45-3.34 6.29 6.29 0 0 0 -.5-3.9 5.42 5.42 0 0 0 -5-2.8c-3.55-.06-7.09 0-10.64 0a1 1 0 0 1 -1-1.29 3 3 0 0 1 .28-.72c1-1.64 2-3.28 3-4.91a1.82 1.82 0 0 1 1.54-1h11a.88.88 0 0 1 .78 1.4c-.4.69-.82 1.37-1.23 2.06zm56.53-13h-8.65a.67.67 0 0 0 -.68.39c-2.86 4.84-5.74 9.68-8.6 14.53a.8.8 0 0 1 -.78.47c-3.67 0-7.33 0-11 0h-.36a.62.62 0 0 1 -.55-.86 4.29 4.29 0 0 1 .43-.89q3.92-6.6 7.85-13.19c.07-.12.13-.25.22-.43h-7.72c-1.4 0-1.39 0-2.11 1.22q-3.69 6.26-7.41 12.49l-6.75 11.32q-3.75 6.31-7.51 12.64c-.22.37-.43.74-.65 1.13h.19 8.6a.71.71 0 0 0 .47-.32c1-1.67 2-3.36 3.06-5 2-3.37 4.07-6.73 6.09-10.12a1 1 0 0 1 1-.55h9.77 1.05c.78.06 1 .45.7 1.16a3.24 3.24 0 0 1 -.17.32l-7.87 13.15-.78 1.35a2.12 2.12 0 0 0 .29.06h8.46a.76.76 0 0 0 .51-.34c1-1.6 1.93-3.22 2.89-4.83l6.87-11.55 5.13-8.61 6.41-10.77zm3.84 5.64a14.79 14.79 0 0 1 8.19 27.84 14.08 14.08 0 0 1 -10 1.29 14.73 14.73 0 0 1 -10.18-8.23s-.08.05-.09.08c-1.33 2.29-2.67 4.57-4 6.87a.6.6 0 0 0 .06.52 22 22 0 0 0 20 8.41 20.77 20.77 0 0 0 4.8-1.1 22.2 22.2 0 0 0 14.77-20 21.15 21.15 0 0 0 -.48-5.5 22.14 22.14 0 0 0 -18.39-17.25.66.66 0 0 0 -.79.4c-.74 1.33-1.5 2.63-2.26 3.94zm-117.6 33.18h.27 10a.81.81 0 0 0 .55-.36q4-6.76 8.05-13.53 3.05-5.12 6.13-10.27l8.07-13.58c.21-.35.41-.71.64-1.12h-10.36a.61.61 0 0 0 -.42.27c-.4.62-.76 1.27-1.14 1.91q-3.72 6.24-7.42 12.48l-5.65 9.48q-3.49 5.9-6.98 11.75zm128.13-18.82a9.14 9.14 0 1 0 -9.13 9.18 9.11 9.11 0 0 0 9.13-9.18z"/><path d="m96.81 13.28c1.31-1.09 2.59-2.23 4-3.26a34.53 34.53 0 0 1 9.76-5.13 35.79 35.79 0 0 1 6.29-1.51 36.18 36.18 0 0 1 8.38-.24 33.67 33.67 0 0 1 6.67 1.25 35.73 35.73 0 0 1 17.31 11.15 35.33 35.33 0 0 1 5.87 9.6 34.78 34.78 0 0 1 2.49 10 37.33 37.33 0 0 1 .06 6.85 34.69 34.69 0 0 1 -1.82 8.54 35.69 35.69 0 0 1 -30.34 23.89 35.69 35.69 0 0 1 -27.71-9.42c-.16-.14-.31-.24-.15-.52 1.22-2.09 2.42-4.18 3.67-6.34.46.44.88.86 1.32 1.26a28 28 0 0 0 11.44 6.6 23.69 23.69 0 0 0 5.61 1c1.31 0 2.63.12 3.94.07a26.18 26.18 0 0 0 7.59-1.46 28.6 28.6 0 0 0 17.92-18.29 27.08 27.08 0 0 0 1.26-6.63 28 28 0 0 0 -6.78-20.57 27.71 27.71 0 0 0 -13.69-8.82 26.88 26.88 0 0 0 -5.84-1 29.58 29.58 0 0 0 -6.65.28 28.67 28.67 0 0 0 -8.41 2.71 1.34 1.34 0 0 1 -.51.14h-11.49-.13z"/><path d="m189.5 19v.64 19.37a.9.9 0 0 0 .54 1 .92.92 0 0 0 1-.29 3.07 3.07 0 0 0 .45-.62l9-15.14c.91-1.54 1.82-3.07 2.75-4.59a.69.69 0 0 1 .48-.31h9 .15c-.17.31-.32.61-.5.9q-4.77 8-9.54 16-4.51 7.57-9 15.14l-3.83 6.44a.59.59 0 0 1 -.59.32c-2.87 0-5.75 0-8.63 0-.45 0-.47-.2-.47-.55 0-5.54 0-11.09 0-16.64a1 1 0 0 0 -.8-1.14 1.32 1.32 0 0 0 -1.36.59c-1.29 2.16-2.56 4.32-3.84 6.48l-5.15 8.72c-.44.74-.87 1.49-1.33 2.22a.71.71 0 0 1 -.48.3c-3.33 0-6.67 0-10 0h-.28c.33-.57.63-1.1 1-1.63l10.85-18.25q4.51-7.59 9-15.17c.67-1.13 1.35-2.26 2-3.39a.72.72 0 0 1 .72-.42h8.36z"/><path d="m60.23 32 1.23-2.09c.41-.69.83-1.37 1.23-2.06a.88.88 0 0 0 -.78-1.4h-11a1.82 1.82 0 0 0 -1.54 1c-1 1.63-2 3.27-3 4.91a3 3 0 0 0 -.28.72 1 1 0 0 0 1 1.29c3.55 0 7.09-.06 10.64 0a5.42 5.42 0 0 1 5 2.8 6.29 6.29 0 0 1 .5 3.9 9.09 9.09 0 0 1 -1.45 3.34c-2 3.52-4 7-6 10.55a5.34 5.34 0 0 1 -4.95 2.89q-10.68-.06-21.36 0a4.08 4.08 0 0 1 -3.58-2.8 7.36 7.36 0 0 1 -.15-2.52 5 5 0 0 1 .76-1.71q1.54-2.73 3.13-5.43a.72.72 0 0 1 .5-.34h8.41.24c-.36.62-.7 1.2-1 1.77-.46.78-.94 1.56-1.4 2.34a3 3 0 0 0 -.28.57.91.91 0 0 0 .9 1.36h10.45a2.09 2.09 0 0 0 1.95-1.09c1.46-2.55 2.93-5.09 4.38-7.64a1 1 0 0 0 -1-1.64h-14.46a3 3 0 0 1 -3-2.08 3.83 3.83 0 0 1 .4-3.38c2.55-4.26 5-8.57 7.56-12.83a6.69 6.69 0 0 1 4.35-3.32 6.8 6.8 0 0 1 1.37-.11h21.05a4.05 4.05 0 0 1 3.58 2.53 4.68 4.68 0 0 1 -.38 3.9c-1.26 2.08-2.57 4.13-3.85 6.21a.82.82 0 0 1 -.8.43c-2.61 0-5.22 0-7.82 0z"/><path d="m116.76 19-1.6 2.72-6.41 10.77-5.13 8.61-6.87 11.59c-1 1.61-1.91 3.23-2.89 4.83a.76.76 0 0 1 -.51.34c-2.82 0-5.64 0-8.46 0a2.12 2.12 0 0 1 -.29-.06l.78-1.35 7.83-13.14a3.24 3.24 0 0 0 .17-.32c.31-.71.08-1.1-.7-1.16-.35 0-.7 0-1.05 0-3.26 0-6.51 0-9.77 0a1 1 0 0 0 -1 .55c-2 3.39-4.06 6.75-6.09 10.12-1 1.68-2 3.37-3.06 5a.71.71 0 0 1 -.47.32c-2.87 0-5.73 0-8.6 0h-.19c.22-.39.43-.76.65-1.13q3.77-6.31 7.51-12.64l6.79-11.31q3.7-6.24 7.41-12.49c.72-1.25.71-1.25 2.11-1.25h7.72c-.09.18-.15.31-.22.43q-3.93 6.6-7.85 13.19a4.29 4.29 0 0 0 -.43.89.62.62 0 0 0 .55.86h.36 11a.8.8 0 0 0 .78-.47c2.86-4.85 5.74-9.69 8.6-14.53a.67.67 0 0 1 .68-.39z"/><path d="m120.6 24.68 1.61-2.76c.76-1.31 1.52-2.61 2.26-3.94a.66.66 0 0 1 .79-.4 22.16 22.16 0 0 1 18.39 17.25 21.15 21.15 0 0 1 .48 5.5 22.2 22.2 0 0 1 -14.77 20 20.77 20.77 0 0 1 -4.8 1.1 22 22 0 0 1 -20-8.41.6.6 0 0 1 -.06-.52c1.31-2.3 2.65-4.58 4-6.87 0 0 0 0 .09-.08a14.73 14.73 0 0 0 10.18 8.23 14.08 14.08 0 0 0 10-1.29 14.79 14.79 0 0 0 -8.19-27.84z"/><path d="m3 57.82 1.76-3q3.49-5.88 7-11.75l5.65-9.47q3.7-6.24 7.42-12.48c.38-.64.74-1.29 1.14-1.91a.61.61 0 0 1 .42-.27h10.31c-.23.41-.43.77-.64 1.12l-8.06 13.6q-3.07 5.15-6.15 10.34-4 6.77-8 13.53a.81.81 0 0 1 -.55.36c-3.33 0-6.67 0-10 0z"/><path d="m131.13 39a9.14 9.14 0 1 1 -9-9.17 9.11 9.11 0 0 1 9 9.17z"/></g><path d="m122 77.54a38.66 38.66 0 0 1 -26.26-10.32 3.29 3.29 0 0 1 -.74-4.22c.92-1.57 1.83-3.15 2.75-4.75l.91-1.58a3 3 0 0 1 2.6-1.5 3 3 0 0 1 1.39.34l-.49-.6a3.53 3.53 0 0 1 -.29-3.84c1.14-2 2.3-4 3.46-6l.52-.91a3.25 3.25 0 0 1 .93-1 3 3 0 0 1 1.76-.58 3.08 3.08 0 0 1 .68.08 3 3 0 0 1 1.47.83 12.34 12.34 0 0 1 -.86-4.47 12.57 12.57 0 0 1 .41-3.19l-4.07 6.85-7.17 12.07c-.86 1.45-1.72 2.9-2.6 4.33a3.72 3.72 0 0 1 -3.06 1.78h-8.45a3.2 3.2 0 0 1 -.85-.11 3 3 0 0 1 -2-4.43l.25-.44c.18-.33.36-.65.55-1l6-10.1h-5.91c-1.4 2.34-2.81 4.67-4.23 7l-1.94 3.22c-.82 1.35-1.63 2.7-2.46 4a3.68 3.68 0 0 1 -3 1.75h-4.87-3.75a3.43 3.43 0 0 1 -.9-.13 3 3 0 0 1 -2.05-1.62 3 3 0 0 1 .16-2.69l.67-1.15 7.52-12.65 6.74-11.3q3.71-6.21 7.41-12.48c1.26-2.13 2.26-2.7 4.69-2.7h7.72a3 3 0 0 1 2.66 4.38l-.07.14c-.08.16-.15.31-.23.44s-4.94 8.29-6.2 10.42h6c1.23-2.08 6.57-11.09 8-13.52a3.71 3.71 0 0 1 1.52-1.45h-9.32a4.41 4.41 0 0 1 -.72-.08 3.14 3.14 0 0 1 -1.87-1.23l-.05-.13a3 3 0 0 1 .54-4l1.19-1c.91-.81 1.91-1.61 2.91-2.37a37.39 37.39 0 0 1 10.6-5.58 38.6 38.6 0 0 1 6.77-1.63 38.07 38.07 0 0 1 5.63-.42c1.13 0 2.29.05 3.43.15a38.12 38.12 0 0 1 7.27 1.35 38.79 38.79 0 0 1 18.75 12.09 38.51 38.51 0 0 1 9.07 21.21 41.52 41.52 0 0 1 .06 7.39 36.32 36.32 0 0 1 -.78 5.07l6.46-10.87 9.05-15.16c.7-1.17 1.35-2.27 2-3.37a3.68 3.68 0 0 1 3.29-1.86h8.9a3 3 0 0 1 3 3v12.5l5.5-9.33q1.32-2.24 2.67-4.46a3.66 3.66 0 0 1 3-1.74h9a3.51 3.51 0 0 1 1 .16 3 3 0 0 1 1.81 4.34l-.14.26c-.13.25-.26.48-.4.71l-9.55 16-10.45 17.6c-.8 1.33-1.59 2.67-2.38 4a3.61 3.61 0 0 1 -3.17 1.8h-8.65a3.41 3.41 0 0 1 -2.49-1 3.49 3.49 0 0 1 -1-2.57v-9.83l-5.87 9.93c-.35.59-.7 1.19-1.07 1.77a3.65 3.65 0 0 1 -3 1.7h-10a4.46 4.46 0 0 1 -.66-.06 3.07 3.07 0 0 1 -2-1.17 39.26 39.26 0 0 1 -6.87 8.07 38.21 38.21 0 0 1 -12 7.31 38.91 38.91 0 0 1 -10.06 2.35 36 36 0 0 1 -3.72.2zm-1.7-26.48a11.48 11.48 0 0 0 1.83.15 10.71 10.71 0 0 0 3.16-.47 12.43 12.43 0 0 1 -3.29.44 11.94 11.94 0 0 1 -1.72-.12zm4.8-36.49a4.59 4.59 0 0 1 .62 0 25.24 25.24 0 0 1 5.94 1.65 25.24 25.24 0 0 1 14.94 17.93 23.92 23.92 0 0 1 .54 6.3 26.12 26.12 0 0 1 -1.73 8.2c.32-.76.61-1.53.87-2.32a24.42 24.42 0 0 0 1.11-5.9 25.47 25.47 0 0 0 -18.31-26.32 24.29 24.29 0 0 0 -5.21-.92c-.64 0-1.28-.06-1.91-.06a26 26 0 0 0 -4.06.31 25.59 25.59 0 0 0 -7.56 2.56l-.14.07h6.56a3 3 0 0 1 2.59 4.52l-1.61 2.73-4.13 7a12 12 0 0 1 5.42-3 2.93 2.93 0 0 1 -1-1 3 3 0 0 1 0-3.09l2.11-3.62c.58-1 1.16-2 1.72-3a3.63 3.63 0 0 1 3.22-2.04zm-95.64 46.31a7.06 7.06 0 0 1 -6.46-5.12 10.35 10.35 0 0 1 -.21-3.54 6.69 6.69 0 0 1 1-2.61l.14-.23c1-1.84 2.08-3.66 3.15-5.48a3.69 3.69 0 0 1 3.07-1.82h4a6 6 0 0 1 -1.57-2.46 6.84 6.84 0 0 1 .67-5.89c1.26-2.1 2.5-4.22 3.74-6.34s2.53-4.33 3.82-6.48a9.65 9.65 0 0 1 6.19-4.74 9.38 9.38 0 0 1 2-.17h10.87q5.13 0 10.13-.07a7.07 7.07 0 0 1 6.48 4.68 7.64 7.64 0 0 1 -.68 6.3c-.76 1.26-1.55 2.52-2.34 3.77l-1.46 2.46a3.78 3.78 0 0 1 -3.38 1.86h-3.76c.17.24.32.49.47.75a9.14 9.14 0 0 1 .85 5.69 10 10 0 0 1 -1.53 4l-.49.86c-1.88 3.36-3.82 6.82-5.77 10.21a8.28 8.28 0 0 1 -7.51 4.4h-10.4q-5.49 0-11 0zm17.54-12.79q1.26-2.19 2.51-4.38h-8.08l.06.11a3 3 0 0 1 -.12 2.8l-.86 1.47zm6-16.74h4.27a3.2 3.2 0 0 1 .36-.91l.6-1h-6.56l-1.2 1.93zm-49.75 29.5a4.14 4.14 0 0 1 -.54 0 3.07 3.07 0 0 1 -2.38-1.69 3 3 0 0 1 .07-2.87l8.74-14.72 5.65-9.48 7.72-13c.29-.49.58-1 .89-1.47a3.59 3.59 0 0 1 3-1.66h10.3a3 3 0 0 1 2.6 4.5l-.2.35-.46.8-8.07 13.58-6.14 10.29-2.29 3.85q-2.88 4.85-5.77 9.67a3.75 3.75 0 0 1 -3.1 1.82h-10z" fill="#fff"/><path d="m122 77.54a38.66 38.66 0 0 1 -26.26-10.32 3.29 3.29 0 0 1 -.74-4.22c.92-1.57 1.83-3.15 2.75-4.75l.91-1.58a3 3 0 0 1 4.67-.66l.44.42c.29.27.57.55.86.81a25.3 25.3 0 0 0 10.23 5.86 19.9 19.9 0 0 0 4.88.89h.69c.74 0 1.48.06 2.23.06h.8a23.41 23.41 0 0 0 6.72-1.29 25.6 25.6 0 0 0 16-16.38 24.42 24.42 0 0 0 1.11-5.9 25.47 25.47 0 0 0 -18.31-26.32 24.29 24.29 0 0 0 -5.21-.92c-.64 0-1.28-.06-1.91-.06a26 26 0 0 0 -4.06.31 25.59 25.59 0 0 0 -7.46 2.51 4.15 4.15 0 0 1 -1.85.46h-11.49a4.41 4.41 0 0 1 -.72-.08 3.14 3.14 0 0 1 -1.87-1.23l-.05-.15a3 3 0 0 1 .54-4l1.19-1c.91-.81 1.91-1.61 2.91-2.37a37.39 37.39 0 0 1 10.6-5.58 38.6 38.6 0 0 1 6.77-1.63 38.07 38.07 0 0 1 5.63-.42c1.13 0 2.29.05 3.43.15a38.12 38.12 0 0 1 7.27 1.35 38.79 38.79 0 0 1 18.75 12.09 38.51 38.51 0 0 1 9.07 21.21 41.52 41.52 0 0 1 .06 7.39 38 38 0 0 1 -2 9.28 38.79 38.79 0 0 1 -22.8 23.53 38.91 38.91 0 0 1 -10.06 2.35 36 36 0 0 1 -3.72.19z" fill="#fff"/><path d="m180.73 60.86a3.41 3.41 0 0 1 -2.49-1 3.49 3.49 0 0 1 -1-2.57v-9.85l-5.87 9.93c-.35.59-.7 1.19-1.07 1.77a3.65 3.65 0 0 1 -3 1.7h-10a4.46 4.46 0 0 1 -.66-.06 3 3 0 0 1 -2.3-1.67 3 3 0 0 1 .09-2.82l.32-.56.64-1.09s8-13.52 10.85-18.26l9.05-15.16c.7-1.17 1.35-2.26 2-3.37a3.68 3.68 0 0 1 3.31-1.85h8.9a3 3 0 0 1 3 3v12.5l5.53-9.3q1.32-2.23 2.67-4.45a3.66 3.66 0 0 1 3-1.74h9a3.51 3.51 0 0 1 1 .16 3 3 0 0 1 1.81 4.34l-.14.27c-.13.24-.26.47-.4.7l-9.55 16c-1.83 3.07-10.45 17.59-10.45 17.59l-2.38 4a3.61 3.61 0 0 1 -3.17 1.8h-8.65z" fill="#fff"/><path d="m29.46 60.88a7.06 7.06 0 0 1 -6.46-5.12 10.35 10.35 0 0 1 -.21-3.54 6.69 6.69 0 0 1 1-2.61l.14-.23c1-1.84 2.08-3.66 3.15-5.48a3.69 3.69 0 0 1 3.07-1.82h4a6 6 0 0 1 -1.57-2.46 6.84 6.84 0 0 1 .67-5.89c1.26-2.1 2.49-4.22 3.73-6.34s2.54-4.33 3.83-6.48a9.65 9.65 0 0 1 6.19-4.74 9.38 9.38 0 0 1 2-.17h10.87q5.13 0 10.13-.07a7.07 7.07 0 0 1 6.48 4.68 7.68 7.68 0 0 1 -.68 6.3c-.76 1.26-1.55 2.52-2.34 3.77l-1.46 2.46a3.78 3.78 0 0 1 -3.38 1.86h-3.76c.17.24.32.49.47.75a9.14 9.14 0 0 1 .85 5.69 10 10 0 0 1 -1.53 4l-.49.87c-1.88 3.35-3.82 6.81-5.77 10.2a8.28 8.28 0 0 1 -7.51 4.4h-10.4q-5.49 0-11 0zm17.54-12.79q1.26-2.19 2.51-4.38h-8.08l.06.11a3 3 0 0 1 -.12 2.8l-.86 1.47zm6-16.74h4.27a3.2 3.2 0 0 1 .36-.91l.6-1h-6.56l-1.2 1.93z" fill="#fff"/><path d="m84.89 60.87a3.2 3.2 0 0 1 -.85-.11 3 3 0 0 1 -2-4.43l.25-.44c.18-.33.36-.65.55-1l6-10.1h-5.91q-2.1 3.51-4.22 7l-1.95 3.23c-.82 1.35-1.63 2.7-2.46 4a3.68 3.68 0 0 1 -3 1.75h-4.87-3.75a3.43 3.43 0 0 1 -.9-.13 3 3 0 0 1 -2.05-1.64 3 3 0 0 1 .16-2.69l.67-1.15 7.52-12.65 6.74-11.3q3.71-6.21 7.41-12.48c1.26-2.13 2.26-2.7 4.69-2.7h7.72a3 3 0 0 1 2.66 4.38l-.07.14c-.08.16-.15.31-.23.44l-6.2 10.42h6c1.23-2.08 6.57-11.09 8-13.52a3.66 3.66 0 0 1 3.3-1.89h8.66a3 3 0 0 1 2.59 4.52l-1.61 2.73-6.41 10.77-5.13 8.62-7.2 12.11c-.86 1.45-1.72 2.9-2.6 4.33a3.72 3.72 0 0 1 -3.06 1.78h-8.45z" fill="#fff"/><path d="m121.92 64.62a24.62 24.62 0 0 1 -9.68-2 24.89 24.89 0 0 1 -10-7.75 3.53 3.53 0 0 1 -.29-3.84c1.14-2 2.3-4 3.46-6l.52-.9a3.25 3.25 0 0 1 .93-1 3 3 0 0 1 1.76-.58 3.08 3.08 0 0 1 .68.08 3 3 0 0 1 2 1.59 11.72 11.72 0 0 0 8.18 6.64 11.1 11.1 0 0 0 8-1 11.77 11.77 0 0 0 -5.63-22.22h-1-.21a3 3 0 0 1 -2.64-4.47l2.1-3.62c.59-1 1.17-2 1.73-3a3.63 3.63 0 0 1 3.24-2 4.59 4.59 0 0 1 .62 0 25.24 25.24 0 0 1 5.94 1.65 25.24 25.24 0 0 1 14.94 17.93 23.92 23.92 0 0 1 .54 6.3 25.22 25.22 0 0 1 -16.74 22.7 24.84 24.84 0 0 1 -5.49 1.26 27 27 0 0 1 -2.96.23z" fill="#fff"/><path d="m3.25 60.85a4.14 4.14 0 0 1 -.54 0 3.07 3.07 0 0 1 -2.38-1.69 3 3 0 0 1 .07-2.87l8.74-14.72 5.65-9.48 7.72-13c.29-.5.58-1 .89-1.48a3.59 3.59 0 0 1 3-1.66h10.3a3 3 0 0 1 2.6 4.5l-.2.35-.46.8s-5.78 9.74-8.07 13.58l-6.14 10.3-2.29 3.85q-2.88 4.85-5.77 9.67a3.75 3.75 0 0 1 -3.1 1.82h-10z" fill="#fff"/><path d="m122 51.18a12.18 12.18 0 0 1 -12.14-12.18 12.14 12.14 0 0 1 12.14-12.13h.14a12.16 12.16 0 0 1 -.14 24.31z" fill="#fff"/><path d="m96.81 13.28.09.14h.13 11.46a1.34 1.34 0 0 0 .51-.14 28.67 28.67 0 0 1 8.41-2.77 29.58 29.58 0 0 1 6.65-.28 26.88 26.88 0 0 1 5.84 1 27.71 27.71 0 0 1 13.69 8.82 28 28 0 0 1 6.78 20.57 27.08 27.08 0 0 1 -1.26 6.63 28.6 28.6 0 0 1 -17.92 18.29 26.18 26.18 0 0 1 -7.59 1.46c-1.31 0-2.63 0-3.94-.07a23.69 23.69 0 0 1 -5.61-1 28 28 0 0 1 -11.44-6.55c-.44-.4-.86-.82-1.32-1.26-1.25 2.16-2.45 4.25-3.67 6.34-.16.28 0 .38.15.52a35.69 35.69 0 0 0 27.66 9.36 35.79 35.79 0 0 0 9.29-2.17 35.86 35.86 0 0 0 21.05-21.72 34.69 34.69 0 0 0 1.82-8.54 37.33 37.33 0 0 0 -.06-6.85 34.78 34.78 0 0 0 -2.49-10 35.33 35.33 0 0 0 -5.87-9.6 35.73 35.73 0 0 0 -17.31-11.07 33.67 33.67 0 0 0 -6.67-1.25 36.18 36.18 0 0 0 -8.38.24 35.79 35.79 0 0 0 -6.29 1.51 34.53 34.53 0 0 0 -9.76 5.11c-1.36 1.05-2.64 2.19-3.95 3.28zm92.69 5.72h-.5c-2.78 0-5.57 0-8.36 0a.72.72 0 0 0 -.72.42c-.65 1.13-1.33 2.26-2 3.39q-4.53 7.59-9 15.17l-10.92 18.2c-.32.53-.62 1.06-1 1.63h.28 10a.71.71 0 0 0 .48-.3c.46-.73.89-1.48 1.33-2.22l5.15-8.72c1.28-2.16 2.55-4.32 3.84-6.48a1.32 1.32 0 0 1 1.36-.59 1 1 0 0 1 .8 1.14v16.64c0 .35 0 .56.47.55h8.63a.59.59 0 0 0 .59-.32l3.85-6.48q4.5-7.56 9-15.14 4.75-8 9.54-16c.18-.29.33-.59.5-.9h-.15c-3 0-6 0-9 0a.69.69 0 0 0 -.48.31c-.93 1.52-1.84 3-2.75 4.59l-9 15.14a3.07 3.07 0 0 1 -.45.62.92.92 0 0 1 -1 .29.9.9 0 0 1 -.54-1c0-6.46 0-12.91 0-19.37zm-129.27 13h.56 7.82a.82.82 0 0 0 .8-.43c1.28-2.08 2.59-4.13 3.85-6.21a4.68 4.68 0 0 0 .38-3.9 4.05 4.05 0 0 0 -3.58-2.53c-7.06.07-14.06.07-21.06.07a6.8 6.8 0 0 0 -1.35.14 6.69 6.69 0 0 0 -4.35 3.32c-2.54 4.26-5 8.57-7.56 12.83a3.83 3.83 0 0 0 -.4 3.38 3 3 0 0 0 3 2.08h14.5a1 1 0 0 1 1 1.64c-1.51 2.51-2.98 5.05-4.44 7.61a2.09 2.09 0 0 1 -1.95 1.1h-10.45a.91.91 0 0 1 -.93-1.31 3 3 0 0 1 .28-.57c.46-.78.94-1.56 1.4-2.34.35-.57.69-1.15 1-1.77h-.24c-2.8 0-5.61 0-8.41 0a.72.72 0 0 0 -.5.34q-1.59 2.7-3.13 5.43a5 5 0 0 0 -.76 1.71 7.36 7.36 0 0 0 .15 2.52 4.08 4.08 0 0 0 3.58 2.8q10.68-.08 21.36 0a5.34 5.34 0 0 0 4.99-2.91c2-3.5 4-7 6-10.55a9.09 9.09 0 0 0 1.45-3.34 6.29 6.29 0 0 0 -.5-3.9 5.42 5.42 0 0 0 -5-2.8c-3.55-.06-7.09 0-10.64 0a1 1 0 0 1 -1-1.29 3 3 0 0 1 .28-.72c1-1.64 2-3.28 3-4.91a1.82 1.82 0 0 1 1.54-1h11a.88.88 0 0 1 .78 1.4c-.4.69-.82 1.37-1.23 2.06zm56.53-13h-8.65a.67.67 0 0 0 -.68.39c-2.86 4.84-5.74 9.68-8.6 14.53a.8.8 0 0 1 -.78.47c-3.67 0-7.33 0-11 0h-.36a.62.62 0 0 1 -.55-.86 4.29 4.29 0 0 1 .43-.89q3.92-6.6 7.85-13.19c.07-.12.13-.25.22-.43h-7.72c-1.4 0-1.39 0-2.11 1.22q-3.69 6.26-7.41 12.49l-6.75 11.32q-3.75 6.31-7.51 12.64c-.22.37-.43.74-.65 1.13h.19 8.6a.71.71 0 0 0 .47-.32c1-1.67 2-3.36 3.06-5 2-3.37 4.07-6.73 6.09-10.12a1 1 0 0 1 1-.55h9.77 1.05c.78.06 1 .45.7 1.16a3.24 3.24 0 0 1 -.17.32l-7.87 13.15-.78 1.35a2.12 2.12 0 0 0 .29.06h8.46a.76.76 0 0 0 .51-.34c1-1.6 1.93-3.22 2.89-4.83l6.87-11.55 5.13-8.61 6.41-10.77zm3.84 5.64a14.79 14.79 0 0 1 8.19 27.84 14.08 14.08 0 0 1 -10 1.29 14.73 14.73 0 0 1 -10.18-8.23s-.08.05-.09.08c-1.33 2.29-2.67 4.57-4 6.87a.6.6 0 0 0 .06.52 22 22 0 0 0 20 8.41 20.77 20.77 0 0 0 4.8-1.1 22.2 22.2 0 0 0 14.77-20 21.15 21.15 0 0 0 -.48-5.5 22.14 22.14 0 0 0 -18.39-17.25.66.66 0 0 0 -.79.4c-.74 1.33-1.5 2.63-2.26 3.94zm-117.6 33.18h.27 10a.81.81 0 0 0 .55-.36q4-6.76 8.05-13.53 3.05-5.12 6.13-10.27l8.07-13.58c.21-.35.41-.71.64-1.12h-10.36a.61.61 0 0 0 -.42.27c-.4.62-.76 1.27-1.14 1.91q-3.72 6.24-7.42 12.48l-5.65 9.48q-3.49 5.9-6.98 11.75zm128.13-18.82a9.14 9.14 0 1 0 -9.13 9.18 9.11 9.11 0 0 0 9.13-9.18z" fill="#005eaa"/><path d="m96.81 13.28c1.31-1.09 2.59-2.23 4-3.26a34.53 34.53 0 0 1 9.76-5.13 35.79 35.79 0 0 1 6.29-1.51 36.18 36.18 0 0 1 8.38-.24 33.67 33.67 0 0 1 6.67 1.25 35.73 35.73 0 0 1 17.31 11.15 35.33 35.33 0 0 1 5.87 9.6 34.78 34.78 0 0 1 2.49 10 37.33 37.33 0 0 1 .06 6.85 34.69 34.69 0 0 1 -1.82 8.54 35.69 35.69 0 0 1 -30.34 23.89 35.69 35.69 0 0 1 -27.71-9.42c-.16-.14-.31-.24-.15-.52 1.22-2.09 2.42-4.18 3.67-6.34.46.44.88.86 1.32 1.26a28 28 0 0 0 11.44 6.6 23.69 23.69 0 0 0 5.61 1c1.31 0 2.63.12 3.94.07a26.18 26.18 0 0 0 7.59-1.46 28.6 28.6 0 0 0 17.92-18.29 27.08 27.08 0 0 0 1.26-6.63 28 28 0 0 0 -6.78-20.57 27.71 27.71 0 0 0 -13.69-8.82 26.88 26.88 0 0 0 -5.84-1 29.58 29.58 0 0 0 -6.65.28 28.67 28.67 0 0 0 -8.41 2.71 1.34 1.34 0 0 1 -.51.14h-11.49-.13z" fill="#005eaa"/><path d="m189.5 19v.64 19.37a.9.9 0 0 0 .54 1 .92.92 0 0 0 1-.29 3.07 3.07 0 0 0 .45-.62l9-15.14c.91-1.54 1.82-3.07 2.75-4.59a.69.69 0 0 1 .48-.31h9 .15c-.17.31-.32.61-.5.9q-4.77 8-9.54 16-4.51 7.57-9 15.14l-3.83 6.44a.59.59 0 0 1 -.59.32c-2.87 0-5.75 0-8.63 0-.45 0-.47-.2-.47-.55 0-5.54 0-11.09 0-16.64a1 1 0 0 0 -.8-1.14 1.32 1.32 0 0 0 -1.36.59c-1.29 2.16-2.56 4.32-3.84 6.48l-5.15 8.72c-.44.74-.87 1.49-1.33 2.22a.71.71 0 0 1 -.48.3c-3.33 0-6.67 0-10 0h-.28c.33-.57.63-1.1 1-1.63l10.85-18.25q4.51-7.59 9-15.17c.67-1.13 1.35-2.26 2-3.39a.72.72 0 0 1 .72-.42h8.36z" fill="#005eaa"/><path d="m60.23 32 1.23-2.09c.41-.69.83-1.37 1.23-2.06a.88.88 0 0 0 -.78-1.4h-11a1.82 1.82 0 0 0 -1.54 1c-1 1.63-2 3.27-3 4.91a3 3 0 0 0 -.28.72 1 1 0 0 0 1 1.29c3.55 0 7.09-.06 10.64 0a5.42 5.42 0 0 1 5 2.8 6.29 6.29 0 0 1 .5 3.9 9.09 9.09 0 0 1 -1.45 3.34c-2 3.52-4 7-6 10.55a5.34 5.34 0 0 1 -4.95 2.89q-10.68-.06-21.36 0a4.08 4.08 0 0 1 -3.58-2.8 7.36 7.36 0 0 1 -.15-2.52 5 5 0 0 1 .76-1.71q1.54-2.73 3.13-5.43a.72.72 0 0 1 .5-.34h8.41.24c-.36.62-.7 1.2-1 1.77-.46.78-.94 1.56-1.4 2.34a3 3 0 0 0 -.28.57.91.91 0 0 0 .9 1.36h10.45a2.09 2.09 0 0 0 1.95-1.09c1.46-2.55 2.93-5.09 4.38-7.64a1 1 0 0 0 -1-1.64h-14.46a3 3 0 0 1 -3-2.08 3.83 3.83 0 0 1 .4-3.38c2.55-4.26 5-8.57 7.56-12.83a6.69 6.69 0 0 1 4.35-3.32 6.8 6.8 0 0 1 1.37-.11h21.05a4.05 4.05 0 0 1 3.58 2.53 4.68 4.68 0 0 1 -.38 3.9c-1.26 2.08-2.57 4.13-3.85 6.21a.82.82 0 0 1 -.8.43c-2.61 0-5.22 0-7.82 0z" fill="#005eaa"/><path d="m116.76 19-1.6 2.72-6.41 10.77-5.13 8.61-6.87 11.59c-1 1.61-1.91 3.23-2.89 4.83a.76.76 0 0 1 -.51.34c-2.82 0-5.64 0-8.46 0a2.12 2.12 0 0 1 -.29-.06l.78-1.35 7.83-13.14a3.24 3.24 0 0 0 .17-.32c.31-.71.08-1.1-.7-1.16-.35 0-.7 0-1.05 0-3.26 0-6.51 0-9.77 0a1 1 0 0 0 -1 .55c-2 3.39-4.06 6.75-6.09 10.12-1 1.68-2 3.37-3.06 5a.71.71 0 0 1 -.47.32c-2.87 0-5.73 0-8.6 0h-.19c.22-.39.43-.76.65-1.13q3.77-6.31 7.51-12.64l6.79-11.31q3.7-6.24 7.41-12.49c.72-1.25.71-1.25 2.11-1.25h7.72c-.09.18-.15.31-.22.43q-3.93 6.6-7.85 13.19a4.29 4.29 0 0 0 -.43.89.62.62 0 0 0 .55.86h.36 11a.8.8 0 0 0 .78-.47c2.86-4.85 5.74-9.69 8.6-14.53a.67.67 0 0 1 .68-.39z" fill="#005eaa"/><path d="m120.6 24.68 1.61-2.76c.76-1.31 1.52-2.61 2.26-3.94a.66.66 0 0 1 .79-.4 22.16 22.16 0 0 1 18.39 17.25 21.15 21.15 0 0 1 .48 5.5 22.2 22.2 0 0 1 -14.77 20 20.77 20.77 0 0 1 -4.8 1.1 22 22 0 0 1 -20-8.41.6.6 0 0 1 -.06-.52c1.31-2.3 2.65-4.58 4-6.87 0 0 0 0 .09-.08a14.73 14.73 0 0 0 10.18 8.23 14.08 14.08 0 0 0 10-1.29 14.79 14.79 0 0 0 -8.19-27.84z" fill="#005eaa"/><path d="m3 57.82 1.76-3q3.49-5.88 7-11.75l5.65-9.47q3.7-6.24 7.42-12.48c.38-.64.74-1.29 1.14-1.91a.61.61 0 0 1 .42-.27h10.31c-.23.41-.43.77-.64 1.12l-8.06 13.6q-3.07 5.15-6.15 10.34-4 6.77-8 13.53a.81.81 0 0 1 -.55.36c-3.33 0-6.67 0-10 0z" fill="#005eaa"/><path d="m131.13 39a9.14 9.14 0 1 1 -9-9.17 9.11 9.11 0 0 1 9 9.17z" fill="#005eaa"/></svg>