<svg viewBox="0 0 103.44 21.26" xmlns="http://www.w3.org/2000/svg"><path d="m10.14 11.48a2.42 2.42 0 0 0 -.45-1 1.88 1.88 0 0 0 -1.58-.72c-1.52 0-2.42 1.18-2.42 3.15s.95 3.21 2.47 3.21a2 2 0 0 0 1.75-.85 2.11 2.11 0 0 0 .34-.82l2.53.45a4.89 4.89 0 0 1 -.72 1.52 4.62 4.62 0 0 1 -4 1.82 5 5 0 0 1 -3.62-1.34 5.61 5.61 0 0 1 -1.44-3.9 5.5 5.5 0 0 1 1.47-4 4.9 4.9 0 0 1 3.59-1.33 4.55 4.55 0 0 1 4 2 5.38 5.38 0 0 1 .59 1.29z"/><path d="m20.68 17a4.7 4.7 0 0 1 -3.21 1.05 3.84 3.84 0 0 1 -2.64-.78 2.79 2.79 0 0 1 -.95-2.17c0-1.62 1.14-2.76 3.21-3.23a17.19 17.19 0 0 1 3.59-.31v-.67c0-.82-.57-1.22-1.71-1.22a2.9 2.9 0 0 0 -1.57.38 1.8 1.8 0 0 0 -.63.92l-2.64-.43a3.57 3.57 0 0 1 1.25-1.87 5.79 5.79 0 0 1 3.61-1 4.86 4.86 0 0 1 3.49 1 2.88 2.88 0 0 1 .78 2.38v4.53a17.88 17.88 0 0 0 .12 2.22h-2.7zm0-3.66a10.73 10.73 0 0 0 -3 .37c-.76.23-1.16.68-1.16 1.32s.5 1.08 1.4 1.08a3.41 3.41 0 0 0 2-.71 1.72 1.72 0 0 0 .76-1.4z"/><path d="m26.1 10.18a9.57 9.57 0 0 0 -1.6.11v-2.37a13.48 13.48 0 0 0 1.6.1h.67v-.83c0-2.1 1.17-3.11 3.62-3.11a7.63 7.63 0 0 1 2.32.34l-.48 2.07a3.18 3.18 0 0 0 -1.59-.4c-.89 0-1.2.37-1.2 1.38v.53h.75a17.81 17.81 0 0 0 1.93-.11v2.38a12.85 12.85 0 0 0 -1.88-.11h-.8v5.39a15.77 15.77 0 0 0 .13 2.34h-2.94a16.54 16.54 0 0 0 .14-2.34v-5.37z"/><path d="m36 13.68a2.82 2.82 0 0 0 .57 1.62 2.35 2.35 0 0 0 1.9.84 2.25 2.25 0 0 0 2.32-1.57l2.42.72a4.59 4.59 0 0 1 -1.06 1.62 5.09 5.09 0 0 1 -3.68 1.35 5 5 0 0 1 -3.62-1.32 5.51 5.51 0 0 1 -1.47-4c0-3.18 2-5.28 5-5.28a4.46 4.46 0 0 1 4.49 3 7.46 7.46 0 0 1 .45 2.6 2.69 2.69 0 0 0 0 .4zm4.68-1.93a2.46 2.46 0 0 0 -.47-1.17 2.19 2.19 0 0 0 -1.8-.8 2.28 2.28 0 0 0 -2.36 2zm-2.91-4.56-.87-.9 2.94-3.29 1.68 1.77z"/><path d="m60.8 6.59a12.07 12.07 0 0 0 -2 2.85 21.14 21.14 0 0 0 -2.74 8.47h-3.19a23 23 0 0 1 1.9-6.41 27.06 27.06 0 0 1 2.87-4.74h-4.94a18.18 18.18 0 0 0 -2.33.11v-2.65a21.73 21.73 0 0 0 2.48.12h5.48c1.38 0 1.85 0 2.47-.07z"/><path d="m65.69 4.34a16.1 16.1 0 0 0 -.12 2.33v8.9a18.63 18.63 0 0 0 .12 2.34h-2.92a15.11 15.11 0 0 0 .13-2.34v-8.9a14.42 14.42 0 0 0 -.13-2.33z"/><path d="m77.41 8a16.25 16.25 0 0 0 -.14 2.34v5.21a14.35 14.35 0 0 0 .14 2.34h-2.78v-.67c0-.13 0-.35 0-.67a4.41 4.41 0 0 1 -3.49 1.55 3.54 3.54 0 0 1 -2.56-.91 3.59 3.59 0 0 1 -.9-2.64v-4.19a15.35 15.35 0 0 0 -.09-2.36h2.92a17 17 0 0 0 -.13 2.34v3.57c0 .89.13 1.27.53 1.57a1.62 1.62 0 0 0 1 .29 3.54 3.54 0 0 0 2.73-2v-3.41a17.57 17.57 0 0 0 -.14-2.36z"/><path d="m86.07 11.48a2.42 2.42 0 0 0 -.45-1 1.91 1.91 0 0 0 -1.62-.7c-1.52 0-2.42 1.18-2.42 3.15s1 3.21 2.47 3.21a2 2 0 0 0 1.75-.85 2 2 0 0 0 .34-.82l2.53.45a5.12 5.12 0 0 1 -.67 1.52 4.64 4.64 0 0 1 -4 1.82 5 5 0 0 1 -3.62-1.34 5.61 5.61 0 0 1 -1.44-4 5.54 5.54 0 0 1 1.45-3.92 4.92 4.92 0 0 1 3.61-1.33 4.54 4.54 0 0 1 4 2 5.38 5.38 0 0 1 .59 1.29z"/><path d="m93 4.34a17.94 17.94 0 0 0 -.12 2.32v5.12l2.19-2.17a8.79 8.79 0 0 0 1.38-1.61h3.75c-.78.69-.88.79-1.7 1.59l-2.4 2.31 2.82 4a22.89 22.89 0 0 0 1.52 2h-3.59a9.89 9.89 0 0 0 -1.1-2.06l-1.54-2.37-1.32 1.27v.87a12.62 12.62 0 0 0 .11 2.3h-2.85a15.62 15.62 0 0 0 .14-2.34v-8.91a14.08 14.08 0 0 0 -.14-2.32z"/><g fill="#fff"><path d="m8.06 21.26a8 8 0 0 1 -5.77-2.26 8.5 8.5 0 0 1 -2.29-6 8.46 8.46 0 0 1 2.35-6.1 7.9 7.9 0 0 1 5.71-2.23 7.49 7.49 0 0 1 6.54 3.33 7.87 7.87 0 0 1 .9 2 3 3 0 0 1 -.22 2.44 2.91 2.91 0 0 1 -.32.46 2.53 2.53 0 0 1 .39.52 3 3 0 0 1 .29 2.46 8.11 8.11 0 0 1 -1.12 2.32 7.63 7.63 0 0 1 -6.46 3.06z"/><path d="m17.47 21.09a6.64 6.64 0 0 1 -4.63-1.54 5.68 5.68 0 0 1 -2-4.41 5.92 5.92 0 0 1 .74-2.92l-.08-.12a3 3 0 0 1 -.23-2.54 6.48 6.48 0 0 1 2.24-3.23 8.69 8.69 0 0 1 5.49-1.59 7.65 7.65 0 0 1 5.56 1.87 5.83 5.83 0 0 1 1.71 4.55v4.53a14.87 14.87 0 0 0 .1 1.89 3 3 0 0 1 -.74 2.33 3 3 0 0 1 -2.24 1h-2.7a2.82 2.82 0 0 1 -.83-.12 8.52 8.52 0 0 1 -2.39.3z"/><path d="m26.63 20.91a3 3 0 0 1 -3-3.38 14.14 14.14 0 0 0 .11-2v-2.32a3.09 3.09 0 0 1 -1.23-.64 3 3 0 0 1 -1-2.28v-2.37a3 3 0 0 1 1-2.25 3 3 0 0 1 1.62-.67c.73-2.12 2.62-3.87 6.26-3.87a10.36 10.36 0 0 1 3.15.46 3 3 0 0 1 2.09 3.51l-.48 2.07a1.55 1.55 0 0 1 -.07.23 2.92 2.92 0 0 1 0 .51v2.38a3 3 0 0 1 -1 2.26 3.05 3.05 0 0 1 -1.66.73v2.29a12.73 12.73 0 0 0 .11 1.95 3 3 0 0 1 -3 3.39z"/><path d="m38.48 21.26a7.89 7.89 0 0 1 -5.74-2.2 8.41 8.41 0 0 1 -2.35-6.06 8.15 8.15 0 0 1 3.52-7 3 3 0 0 1 .75-1.69l2.94-3.31a3 3 0 0 1 2.19-1h.05a3 3 0 0 1 2.16.93l1.69 1.77a3 3 0 0 1 .1 4 7.57 7.57 0 0 1 1.89 2.9 10.45 10.45 0 0 1 .64 3.49s0 .25 0 .25a2.93 2.93 0 0 1 -.17 1.35 3 3 0 0 1 -.15 1.85 7.66 7.66 0 0 1 -1.71 2.53 8 8 0 0 1 -5.81 2.19z"/><path d="m52.87 20.91a3 3 0 0 1 -2.3-1.07 3 3 0 0 1 -.65-2.45 26.33 26.33 0 0 1 2.13-7.15l.23-.48a14.06 14.06 0 0 0 -1.55.09 2.17 2.17 0 0 1 -.36 0 3 3 0 0 1 -3-3v-2.63a3 3 0 0 1 3-3 1.77 1.77 0 0 1 .32 0 19.11 19.11 0 0 0 2.16.1h5.48c1.38 0 1.74 0 2.22-.06h.25a3 3 0 0 1 3 3v2.33a3 3 0 0 1 -.8 2.09 9.18 9.18 0 0 0 -1.54 2.24 18.35 18.35 0 0 0 -2.46 7.37 3 3 0 0 1 -3 2.62z"/><path d="m62.77 20.91a3 3 0 0 1 -3-3.41 11.79 11.79 0 0 0 .11-1.93v-8.9a10.82 10.82 0 0 0 -.1-1.88 3 3 0 0 1 3-3.45h2.92a3 3 0 0 1 3 3.37 12.73 12.73 0 0 0 -.1 2v8.9a18.08 18.08 0 0 0 .1 2 3 3 0 0 1 -3 3.32z"/><path d="m71.18 21.12a6.48 6.48 0 0 1 -4.68-1.79 6.55 6.55 0 0 1 -1.78-4.76v-4.21a11.84 11.84 0 0 0 -.1-1.9 3 3 0 0 1 3-3.44h2.92a3.05 3.05 0 0 1 2 .76 3 3 0 0 1 2-.76h2.91a3 3 0 0 1 3 3.4 13.28 13.28 0 0 0 -.11 1.94v5.21a11.81 11.81 0 0 0 .1 1.87 3 3 0 0 1 -.68 2.42 3 3 0 0 1 -2.28 1.05h-2.85a2.93 2.93 0 0 1 -1-.17 7.65 7.65 0 0 1 -2.45.38z"/><path d="m84 21.26a8 8 0 0 1 -5.78-2.26 8.51 8.51 0 0 1 -2.3-6 8.5 8.5 0 0 1 2.35-6.1 7.9 7.9 0 0 1 5.73-2.23 7.49 7.49 0 0 1 6.52 3.33 8.28 8.28 0 0 1 .91 2 3 3 0 0 1 -.23 2.44 2.91 2.91 0 0 1 -.32.46 3 3 0 0 1 .68 3 8.11 8.11 0 0 1 -1.12 2.32 7.63 7.63 0 0 1 -6.44 3.04z"/><path d="m96.85 20.91a3 3 0 0 1 -1.91-.69 3 3 0 0 1 -1.91.69h-2.88a3 3 0 0 1 -2.26-1 3 3 0 0 1 -.71-2.38 12.7 12.7 0 0 0 .11-1.93v-8.94a11.83 11.83 0 0 0 -.1-1.86 3 3 0 0 1 3-3.46h2.81a3 3 0 0 1 3 3.38v.35a2.73 2.73 0 0 1 .5-.05h3.75a3 3 0 0 1 2 5.27c-.71.61-.81.71-1.51 1.39l-.62.6 1.52 2.14a18.41 18.41 0 0 0 1.07 1.58 3 3 0 0 1 -2.27 4.95z"/></g><path d="m10.14 11.48a2.42 2.42 0 0 0 -.45-1 1.88 1.88 0 0 0 -1.58-.72c-1.52 0-2.42 1.18-2.42 3.15s.95 3.21 2.47 3.21a2 2 0 0 0 1.75-.85 2.11 2.11 0 0 0 .34-.82l2.53.45a4.89 4.89 0 0 1 -.72 1.52 4.62 4.62 0 0 1 -4 1.82 5 5 0 0 1 -3.62-1.34 5.61 5.61 0 0 1 -1.44-3.9 5.5 5.5 0 0 1 1.47-4 4.9 4.9 0 0 1 3.59-1.33 4.55 4.55 0 0 1 4 2 5.38 5.38 0 0 1 .59 1.29z" fill="#231815"/><path d="m20.68 17a4.7 4.7 0 0 1 -3.21 1.05 3.84 3.84 0 0 1 -2.64-.78 2.79 2.79 0 0 1 -.95-2.17c0-1.62 1.14-2.76 3.21-3.23a17.19 17.19 0 0 1 3.59-.31v-.67c0-.82-.57-1.22-1.71-1.22a2.9 2.9 0 0 0 -1.57.38 1.8 1.8 0 0 0 -.63.92l-2.64-.43a3.57 3.57 0 0 1 1.25-1.87 5.79 5.79 0 0 1 3.61-1 4.86 4.86 0 0 1 3.49 1 2.88 2.88 0 0 1 .78 2.38v4.53a17.88 17.88 0 0 0 .12 2.22h-2.7zm0-3.66a10.73 10.73 0 0 0 -3 .37c-.76.23-1.16.68-1.16 1.32s.5 1.08 1.4 1.08a3.41 3.41 0 0 0 2-.71 1.72 1.72 0 0 0 .76-1.4z" fill="#231815"/><path d="m26.1 10.18a9.57 9.57 0 0 0 -1.6.11v-2.37a13.48 13.48 0 0 0 1.6.1h.67v-.83c0-2.1 1.17-3.11 3.62-3.11a7.63 7.63 0 0 1 2.32.34l-.48 2.07a3.18 3.18 0 0 0 -1.59-.4c-.89 0-1.2.37-1.2 1.38v.53h.75a17.81 17.81 0 0 0 1.93-.11v2.38a12.85 12.85 0 0 0 -1.88-.11h-.8v5.39a15.77 15.77 0 0 0 .13 2.34h-2.94a16.54 16.54 0 0 0 .14-2.34v-5.37z" fill="#231815"/><path d="m36 13.68a2.82 2.82 0 0 0 .57 1.62 2.35 2.35 0 0 0 1.9.84 2.25 2.25 0 0 0 2.32-1.57l2.42.72a4.59 4.59 0 0 1 -1.06 1.62 5.09 5.09 0 0 1 -3.68 1.35 5 5 0 0 1 -3.62-1.32 5.51 5.51 0 0 1 -1.47-4c0-3.18 2-5.28 5-5.28a4.46 4.46 0 0 1 4.49 3 7.46 7.46 0 0 1 .45 2.6 2.69 2.69 0 0 0 0 .4zm4.68-1.93a2.46 2.46 0 0 0 -.47-1.17 2.19 2.19 0 0 0 -1.8-.8 2.28 2.28 0 0 0 -2.36 2zm-2.91-4.56-.87-.9 2.94-3.29 1.68 1.77z" fill="#231815"/><path d="m60.8 6.59a12.07 12.07 0 0 0 -2 2.85 21.14 21.14 0 0 0 -2.74 8.47h-3.19a23 23 0 0 1 1.9-6.41 27.06 27.06 0 0 1 2.87-4.74h-4.94a18.18 18.18 0 0 0 -2.33.11v-2.65a21.73 21.73 0 0 0 2.48.12h5.48c1.38 0 1.85 0 2.47-.07z" fill="#231815"/><path d="m65.69 4.34a16.1 16.1 0 0 0 -.12 2.33v8.9a18.63 18.63 0 0 0 .12 2.34h-2.92a15.11 15.11 0 0 0 .13-2.34v-8.9a14.42 14.42 0 0 0 -.13-2.33z" fill="#231815"/><path d="m77.41 8a16.25 16.25 0 0 0 -.14 2.34v5.21a14.35 14.35 0 0 0 .14 2.34h-2.78v-.67c0-.13 0-.35 0-.67a4.41 4.41 0 0 1 -3.49 1.55 3.54 3.54 0 0 1 -2.56-.91 3.59 3.59 0 0 1 -.9-2.64v-4.19a15.35 15.35 0 0 0 -.09-2.36h2.92a17 17 0 0 0 -.13 2.34v3.57c0 .89.13 1.27.53 1.57a1.62 1.62 0 0 0 1 .29 3.54 3.54 0 0 0 2.73-2v-3.41a17.57 17.57 0 0 0 -.14-2.36z" fill="#231815"/><path d="m86.07 11.48a2.42 2.42 0 0 0 -.45-1 1.91 1.91 0 0 0 -1.62-.7c-1.52 0-2.42 1.18-2.42 3.15s1 3.21 2.47 3.21a2 2 0 0 0 1.75-.85 2 2 0 0 0 .34-.82l2.53.45a5.12 5.12 0 0 1 -.67 1.52 4.64 4.64 0 0 1 -4 1.82 5 5 0 0 1 -3.62-1.34 5.61 5.61 0 0 1 -1.44-4 5.54 5.54 0 0 1 1.45-3.92 4.92 4.92 0 0 1 3.61-1.33 4.54 4.54 0 0 1 4 2 5.38 5.38 0 0 1 .59 1.29z" fill="#231815"/><path d="m93 4.34a17.94 17.94 0 0 0 -.12 2.32v5.12l2.19-2.17a8.79 8.79 0 0 0 1.38-1.61h3.75c-.78.69-.88.79-1.7 1.59l-2.4 2.31 2.82 4a22.89 22.89 0 0 0 1.52 2h-3.59a9.89 9.89 0 0 0 -1.1-2.06l-1.54-2.37-1.32 1.27v.87a12.62 12.62 0 0 0 .11 2.3h-2.85a15.62 15.62 0 0 0 .14-2.34v-8.91a14.08 14.08 0 0 0 -.14-2.32z" fill="#231815"/></svg>