<svg viewBox="0 0 188.59 21.78" xmlns="http://www.w3.org/2000/svg"><path d="m8.53 11.15h1a9.45 9.45 0 0 0 1.62-.09v2.07a14.08 14.08 0 0 0 -1.62-.06h-.29a6.8 6.8 0 0 0 1.56 1.3c-.35.67-.66 1.28-.92 1.92a7.55 7.55 0 0 1 -1.39-1.54v1.2 1.34a7.56 7.56 0 0 0 .08 1.37h-2.18a6.88 6.88 0 0 0 .08-1.29v-1.27c0-.28 0-.66 0-1a8.1 8.1 0 0 1 -2.59 2.77 8 8 0 0 0 -.88-2.12 8.62 8.62 0 0 0 2.82-2.68h-.92a10 10 0 0 0 -1.6.08v-2.09a9.71 9.71 0 0 0 1.64.09h1.53v-1h-1.58a13.94 13.94 0 0 0 -1.61.07v-2.11a11.31 11.31 0 0 0 1.72.08 11.93 11.93 0 0 0 -.4-1.88c-.42 0-.62 0-1 .06v-2a10 10 0 0 0 1.65.08h1.14v-.15a7.49 7.49 0 0 0 -.08-1.25h2.38a7.11 7.11 0 0 0 -.08 1.25v.1h.92a9.74 9.74 0 0 0 1.63-.08v2.05c-.33 0-.45 0-.88 0a15.37 15.37 0 0 1 -.44 1.87 8.58 8.58 0 0 0 1.42-.08v2.1a14 14 0 0 0 -1.62-.07h-1.11zm-.59-3a9.57 9.57 0 0 0 .37-1.88h-1.77a1 1 0 0 1 .07.18 9.65 9.65 0 0 1 .39 1.74zm9.42-.1a7.88 7.88 0 0 0 1.53-.05v2.19a8.28 8.28 0 0 0 -1.28-.07h-.32v6.46a13.46 13.46 0 0 0 .1 2.1h-2.34a12.65 12.65 0 0 0 .1-2.1v-6.47h-1.33c-.09 4.21-.64 6.51-2.06 8.65a9.42 9.42 0 0 0 -2-1.29c1.6-2.1 2-4 2-10.75a19.39 19.39 0 0 0 -.1-2.32 20.08 20.08 0 0 0 3.89-.7 6 6 0 0 0 1.66-.7l1.62 2a4.86 4.86 0 0 0 -.59.19 25 25 0 0 1 -4.41 1v1.9z"/><path d="m27.8 12.82a9.38 9.38 0 0 0 -1.17 0v-1.22a13.69 13.69 0 0 1 -2.42 2.22 6.44 6.44 0 0 0 -1.21-1.69 11.62 11.62 0 0 0 2.1-1.63 13.87 13.87 0 0 0 -1.59.08v-1l-1 1.47a16.44 16.44 0 0 0 -2.81-2.12l1.3-1.62a18.34 18.34 0 0 1 2.51 1.69v-.3l1.07.1h1.82c.13-.25.2-.37.35-.67h-.88a13.83 13.83 0 0 0 -1.61.07v-1.78a13.72 13.72 0 0 0 1.61.07h1.52a6 6 0 0 0 .16-.64h-1.72a14.82 14.82 0 0 0 -1.83.07v-.45l-1 1.34a18.54 18.54 0 0 0 -2.74-2.14l1.35-1.59a16.72 16.72 0 0 1 2.39 1.72v-.8a15.81 15.81 0 0 0 1.87.1h2a6.06 6.06 0 0 0 .08-1 1.16 1.16 0 0 0 0-.17l2.25.08c-.07.3-.1.44-.22 1h3.02a14.27 14.27 0 0 0 1.93-.01v1.9a16.19 16.19 0 0 0 -1.84-.07h-3.5c-.08.32-.08.32-.18.64h3.59a11.21 11.21 0 0 0 1.5-.07v1.76a12 12 0 0 0 -1.47-.07h-1.4c.12.25.18.37.35.67h1.62a12.72 12.72 0 0 0 1.8-.08v1.9a10.74 10.74 0 0 0 -1.65-.08h-.35a8.83 8.83 0 0 0 2.39 1.56 7.06 7.06 0 0 0 -1 1.82l-.55-.35v1.77a11.53 11.53 0 0 0 -1.66-.08h-1.58a6.88 6.88 0 0 0 2 1.07 9 9 0 0 0 2.5.53 9.54 9.54 0 0 0 -1 1.85 10.36 10.36 0 0 1 -3.22-1.11 9 9 0 0 1 -2.05-1.67 5.43 5.43 0 0 1 -2.3 1.92 11.25 11.25 0 0 1 -2.84.88 5.1 5.1 0 0 0 -.92-1.88 9.8 9.8 0 0 0 2.42-.47 3.76 3.76 0 0 0 1.77-1.12h-1.06a11.42 11.42 0 0 0 -1.59.08v-1.82a7.41 7.41 0 0 0 1.44.09h1.9c0-.24.05-.34.09-.75zm-4.1.45a25.7 25.7 0 0 1 -1.47 3.95 9.84 9.84 0 0 1 -.49 1l-.16.35-1.79-1.6a6 6 0 0 0 .8-1.22 17.14 17.14 0 0 0 1.41-3.75zm3.82-2.77c-.23.31-.33.46-.58.76h.9 3 .82c-.24-.3-.34-.43-.57-.76zm1.33-2.41c-.11.25-.15.37-.3.67h1.52a5.46 5.46 0 0 1 -.28-.67zm1.31 4.73c0 .38 0 .45-.07.75h2.5a11.68 11.68 0 0 0 1.59-.07 12.44 12.44 0 0 1 -2.18-1.82v1.19a9.07 9.07 0 0 0 -1.18 0z"/><path d="m38.05 8.74a12.9 12.9 0 0 0 2.07-.28 31.17 31.17 0 0 1 5.54-.55 5.32 5.32 0 0 1 3.61 1.09 3.78 3.78 0 0 1 1.15 2.8 5.77 5.77 0 0 1 -3.32 5 14.41 14.41 0 0 1 -5.46 1.52 6.55 6.55 0 0 0 -1-2.45c2.8-.17 4.61-.65 5.83-1.59a3 3 0 0 0 1.3-2.37 1.5 1.5 0 0 0 -.7-1.32 3.41 3.41 0 0 0 -1.71-.35 24 24 0 0 0 -6.74 1.15zm2.67-5.39a23 23 0 0 0 6.89.95h.84l-.32 2.43a38.68 38.68 0 0 1 -8.13-1.03z"/><path d="m66.56 17.57a7.06 7.06 0 0 0 -.79-.76 12.28 12.28 0 0 0 -3-1.92 1.43 1.43 0 0 1 0 .26c0 1.92-1.27 2.84-3.94 2.84s-4-1-4-2.82 1.79-3 4.76-3h.83v-1.33l-1.42.06c-1.08 0-1.65 0-3.17-.1-.23 0-.38 0-.67 0v-2.14a21.64 21.64 0 0 0 3.84.25h1.39v-1-.4h-.89c-.64 0-2.06 0-4.23-.16a4 4 0 0 0 -.41 0 1.59 1.59 0 0 0 -.27 0v-2.22a22.21 22.21 0 0 0 4.58.36h1.15a10.69 10.69 0 0 0 -.1-2h2.52a8.53 8.53 0 0 0 -.13 1.89 24.13 24.13 0 0 0 4.79-.6l.09 2.22a12.38 12.38 0 0 0 -1.38.15c-1.3.17-2.36.27-3.49.32v1.37a22.75 22.75 0 0 0 4.38-.6l.06 2.19a1.79 1.79 0 0 0 -.35 0 2.76 2.76 0 0 1 -.28 0l-1.24.13c-.8.09-1.88.17-2.55.2v1.74a14.92 14.92 0 0 1 4.57 2.32c.27.18.37.25.62.4zm-7.3-3.39c-1.17 0-1.88.37-1.88 1s.62.82 1.62.82 1.55-.35 1.55-1.32c0-.13 0-.34 0-.34a4.68 4.68 0 0 0 -1.29-.16z"/><path d="m73.67 4.75a19.72 19.72 0 0 0 -.15 2.76c0 4 .61 6.94 1.47 6.94.21 0 .41-.23.6-.68a14 14 0 0 0 .88-3 8.36 8.36 0 0 0 2 1.8c-.88 3.27-2 4.76-3.51 4.76-1.21 0-2.2-.89-2.9-2.62s-.92-3.83-1-8.89a6.34 6.34 0 0 0 -.07-1.11zm7.79.67a17.07 17.07 0 0 1 3.81 9.33l-2.52.94a17.19 17.19 0 0 0 -1-5 15 15 0 0 0 -2.4-4.28z"/><path d="m87.82 9.84a11.29 11.29 0 0 0 2.92.62c.12-1 .12-1 .28-2a18.57 18.57 0 0 1 -2.35-.46l-.58-.1.18-2.2a12 12 0 0 0 3 .59 18.08 18.08 0 0 0 .28-2.59v-.2l2.64.23a14 14 0 0 0 -.52 2.64 15.78 15.78 0 0 0 3.75-.37l-.09 2.34-1.21.1a22.27 22.27 0 0 1 -2.53.1h-.25c-.11.8-.16 1.14-.28 2.06h.58a12.69 12.69 0 0 0 3.36-.35v2.28a5.3 5.3 0 0 0 -.54.05 20.79 20.79 0 0 1 -2.57.17h-.9v1a1.94 1.94 0 0 0 .57 1.57 2.86 2.86 0 0 0 1.95.59c2 0 3.12-.87 3.12-2.39a4 4 0 0 0 -1.45-2.8 7.24 7.24 0 0 0 2.47-.49 5.44 5.44 0 0 1 1.35 3.64 4 4 0 0 1 -1.68 3.13 7.08 7.08 0 0 1 -7 .4 3.77 3.77 0 0 1 -1.79-3.56c0-.41 0-.58.05-1.3a21.92 21.92 0 0 1 -2.25-.37l-.66-.1z"/><path d="m111.09 4a13.55 13.55 0 0 0 -.67 1.5l-.82 2.09-1.19 3a3.18 3.18 0 0 1 2.26-1 2.3 2.3 0 0 1 1.88.9 2.81 2.81 0 0 1 .45 1.51v1.5c0 1.3 0 1.54.3 1.77a1.12 1.12 0 0 0 .77.23c.79 0 1.42-.56 1.85-1.65a9.7 9.7 0 0 0 .6-2.79 6.85 6.85 0 0 0 2.24 1.46 9 9 0 0 1 -1.42 3.62 4.38 4.38 0 0 1 -3.59 1.78 3.1 3.1 0 0 1 -2.4-.88 3.44 3.44 0 0 1 -.7-2.47c0-.1 0-.69 0-1.24v-.16a2.12 2.12 0 0 0 -.12-.85.67.67 0 0 0 -.67-.37c-.85 0-1.74.82-2.45 2.27a19.16 19.16 0 0 0 -1.37 3.84l-2.59-.8c.27-.57.27-.57 3.07-8.45a43.14 43.14 0 0 0 1.79-5.48z"/><path d="m131.3 9.48h2.22a15.44 15.44 0 0 0 1.87-.1v2.22a15 15 0 0 0 -1.89-.1h-1.63a11 11 0 0 0 4 3.89 7.55 7.55 0 0 0 -1.2 2.15 12 12 0 0 1 -3.48-4.09v1.57 1.67a14 14 0 0 0 .12 2h-2.27a16.65 16.65 0 0 0 .1-2v-1.52c0-.47 0-1 0-1.65a11.68 11.68 0 0 1 -3.72 4 8.35 8.35 0 0 0 -1.2-1.94 11 11 0 0 0 2.48-1.87 11 11 0 0 0 1.76-2.25h-1a14.74 14.74 0 0 0 -1.91.11v-1a10.61 10.61 0 0 0 -.63 1.93 7.39 7.39 0 0 1 -.9-1.8v2 3.89a17.32 17.32 0 0 0 .1 2.1h-2.12a19.93 19.93 0 0 0 .1-2.1v-3c0-.38 0-1.1.08-1.88a11.17 11.17 0 0 1 -1.55 3.34 8.92 8.92 0 0 0 -.79-2.32 13.44 13.44 0 0 0 2.09-4.73h-.53a4.64 4.64 0 0 0 -1.1.08v-2.08a4.55 4.55 0 0 0 1.1.08h.7v-1.24a10.89 10.89 0 0 0 -.1-1.76h2.29a11.45 11.45 0 0 0 -.1 1.74v1.23h.36a4.13 4.13 0 0 0 .84-.06v1.48a10.73 10.73 0 0 0 1.15-3.87l2 .5c-.07.2-.12.42-.25 1-.07.27-.09.35-.15.64h1.08v-.99a10.32 10.32 0 0 0 -.1-1.63h2.29a10.18 10.18 0 0 0 -.1 1.62v1h1.75a14.36 14.36 0 0 0 1.85-.1v2.2a13.82 13.82 0 0 0 -1.87-.1h-1.74zm-3.84-1.79a10 10 0 0 1 -.84 1.7 7.26 7.26 0 0 0 -1.55-1.39h-.8a8.51 8.51 0 0 0 1.4 2.37v-1a9.51 9.51 0 0 0 1.91.12h1.63v-1.8z"/><path d="m150.39 5.82a10.49 10.49 0 0 0 1.61-.08v2.17a16.11 16.11 0 0 0 -2-.1h-2.21a19.3 19.3 0 0 0 1.07 6c.4.95 1 2 1.24 2s.36-1 .55-2.52a8.26 8.26 0 0 0 1.8 1.08 8 8 0 0 1 -.95 3.29 1.55 1.55 0 0 1 -1.29.82 3 3 0 0 1 -2-1.25 11.25 11.25 0 0 1 -1.65-3.31 24.82 24.82 0 0 1 -1-6.09h-6.52a19 19 0 0 0 -2.06.1v-2.21a16.61 16.61 0 0 0 2.06.1h6.44c0-.72 0-.72 0-1.32a9.84 9.84 0 0 0 -.09-1.2h2.36a9 9 0 0 0 -.07 1.19v1.33h2.07a10.43 10.43 0 0 0 -1.67-1.52l1.55-1a16.09 16.09 0 0 1 1.84 1.62l-1.34.92zm-11 5.74c-.63 0-1.23 0-1.75.07v-2.05a16.19 16.19 0 0 0 1.8.08h3.91a15.91 15.91 0 0 0 1.78-.08v2.05c-.51-.05-1.12-.07-1.75-.07h-.93v3.44c1.16-.22 1.8-.37 3.28-.74v2c-3.08.74-5.1 1.14-7.24 1.45a9.5 9.5 0 0 0 -1.1.19l-.39-2.18a25.15 25.15 0 0 0 3.24-.33v-3.83z"/><path d="m156.88 8.81a18.69 18.69 0 0 1 -2.52 1.3 7.23 7.23 0 0 0 -1.1-2.11 14 14 0 0 0 4-2.1 10.3 10.3 0 0 0 2.74-2.72h2.32a10.12 10.12 0 0 0 2.83 2.69 15.81 15.81 0 0 0 4.14 2.05 9.94 9.94 0 0 0 -1 2.24 15.77 15.77 0 0 1 -2.67-1.37v1.14a13.73 13.73 0 0 0 -1.62-.07h-5.66a14.19 14.19 0 0 0 -1.49.07zm-.88 4.19a17.25 17.25 0 0 0 -2 .1v-2.19c.57.05 1.23.09 2 .09h10.47c.8 0 1.44 0 2-.09v2.22a17.58 17.58 0 0 0 -2-.1h-5.64a20 20 0 0 1 -1.6 3c3.35-.17 3.35-.17 4.77-.34-.53-.6-.8-.9-1.6-1.73l2-.84a34.93 34.93 0 0 1 3.79 4.46l-1.95 1.24c-.47-.74-.62-1-.89-1.36-1.6.22-1.63.22-2.55.3s-5.71.52-6.35.55-1.45.14-1.83.2l-.29-2.38h1.17 1.19a19.9 19.9 0 0 0 1.64-3.13zm8.15-5.15a13.11 13.11 0 0 1 -2.95-2.78 13 13 0 0 1 -2.94 2.78z"/><path d="m174.72 16.92a11.43 11.43 0 0 0 .09 1.74h-2.34a12 12 0 0 0 .1-1.79v-3.87a10.43 10.43 0 0 1 -1.69 1.24 7.8 7.8 0 0 0 -.95-2.06 11.64 11.64 0 0 0 2.76-2.08 8.78 8.78 0 0 0 1.75-2.46h-2.52a11.4 11.4 0 0 0 -1.44.07v-2.12a9.67 9.67 0 0 0 1.31.06h.8v-1.31a8.6 8.6 0 0 0 -.1-1.27h2.32a6.57 6.57 0 0 0 -.1 1.28v1.3h.58a5.46 5.46 0 0 0 1-.05l.93 1c-.16.28-.23.43-.38.75a13.09 13.09 0 0 1 -1.59 2.77 9 9 0 0 0 2.66 2.08 10.71 10.71 0 0 0 -1.07 2 8.66 8.66 0 0 1 -2.09-1.78zm7.28-.92h1.67a15.69 15.69 0 0 0 2-.08v2.29a18.19 18.19 0 0 0 -2-.1h-5.59a17 17 0 0 0 -1.91.1v-2.34a16 16 0 0 0 1.94.08h1.62v-6.29h-1.07c-.55 0-1.08 0-1.64.08v-2.25a14.81 14.81 0 0 0 1.64.08h1.07v-2.57a15.42 15.42 0 0 0 -.1-1.85h2.45a13.15 13.15 0 0 0 -.08 1.85v2.57h1.54a10.59 10.59 0 0 0 1.65-.08v2.25c-.57-.05-1.07-.08-1.65-.08h-1.54z"/><g fill="#fff"><path d="m11.76 21.76a3 3 0 0 1 -1.65-.5 3 3 0 0 1 -1.5.4h-2.22a3.05 3.05 0 0 1 -2.09-.84h-.38a3.15 3.15 0 0 1 -1-.17 3 3 0 0 1 -1.88-2 5.11 5.11 0 0 0 -.59-1.32 3 3 0 0 1 -.36-2.33 3.13 3.13 0 0 1 .38-.88 3 3 0 0 1 -.17-1v-2.06c0-.12 0-.24 0-.36a3.89 3.89 0 0 1 0-.49v-2.1a3 3 0 0 1 .34-1.41 1.83 1.83 0 0 1 0-.33v-2a3 3 0 0 1 3-3h.23c0-.08.11-.15.17-.23a3 3 0 0 1 2.29-1h2.36a3 3 0 0 1 2.31.97l.16.21a3.08 3.08 0 0 1 .61.06 19.07 19.07 0 0 0 3-.57 4.65 4.65 0 0 0 .73-.28 3 3 0 0 1 1.7-.53 3 3 0 0 1 2.32 1.08l1.61 2a3 3 0 0 1 .55 2.82 2.56 2.56 0 0 1 -.24.56 3 3 0 0 1 .45 1.54v2.19a3 3 0 0 1 -1 2.26 2.74 2.74 0 0 1 -.57.39v3.74a11.21 11.21 0 0 0 .06 1.64 3 3 0 0 1 -3 3.46h-2.33a2.93 2.93 0 0 1 -1.58-.45 2.88 2.88 0 0 1 -1.24.5 2.42 2.42 0 0 1 -.47.03z"/><path d="m24.09 21.69a3 3 0 0 1 -1.41-.36 3.68 3.68 0 0 1 -.54.16 3.64 3.64 0 0 1 -.56.05 3 3 0 0 1 -2-.77l-1.78-1.6a3 3 0 0 1 -.19-4.28c0-.06.15-.23.35-.6a11.67 11.67 0 0 0 .9-2.29l-.7-.45a3 3 0 0 1 -.82-4.38l.53-.69a2.94 2.94 0 0 1 -.55-1.34 3 3 0 0 1 .68-2.42l1.35-1.58a3 3 0 0 1 3.88-.6l.77.46h.35c.38 0 .72.07 1.27.08a3 3 0 0 1 2.32-1.08l2.36.09a3 3 0 0 1 2.16 1h.54a10.1 10.1 0 0 0 1.45-.07h.44a3 3 0 0 1 2 .73 3 3 0 0 1 1 2.27v1.9a3 3 0 0 1 -.14.9 3 3 0 0 1 .64 1.86v1.92a2.8 2.8 0 0 1 .3.76 3 3 0 0 1 -.52 2.51 4.21 4.21 0 0 0 -.54.92 3 3 0 0 1 .3 3.68 5.6 5.6 0 0 0 -.65 1.26 3 3 0 0 1 -3.46 1.87 13 13 0 0 1 -4.06-1.44l-.44-.27a12.16 12.16 0 0 1 -1.14.63 14 14 0 0 1 -3.51 1.11 3.26 3.26 0 0 1 -.58.06z"/><path d="m41.64 21.29a3 3 0 0 1 -2.93-2.29 3.65 3.65 0 0 0 -.63-1.54 3 3 0 0 1 -.13-3l.09-.15a3.08 3.08 0 0 1 -.88-.31 3 3 0 0 1 -1.5-2l-.55-2.62a3 3 0 0 1 1.89-3.44 3 3 0 0 1 .13-1.15l.75-2.35a3 3 0 0 1 2.84-2.09 3.19 3.19 0 0 1 .91.14 20.12 20.12 0 0 0 6 .81h.84a3 3 0 0 1 2.21 1 3 3 0 0 1 .76 2.41l-.26 2 .11.1a6.75 6.75 0 0 1 2.15 5 8.77 8.77 0 0 1 -4.88 7.59 17.29 17.29 0 0 1 -6.49 1.86z"/><path d="m58.85 21c-5.15 0-7-3.14-7-5.82a5.59 5.59 0 0 1 .73-2.76 3.08 3.08 0 0 1 -.48-1.65v-1.68a2.93 2.93 0 0 1 -.55-1.77v-2.22a3 3 0 0 1 3-2.95 3.06 3.06 0 0 1 .74.09 13 13 0 0 0 2.07.23 3.08 3.08 0 0 1 .64-.93 3 3 0 0 1 2.27-1h2.52a3 3 0 0 1 2.31 1.07 4.21 4.21 0 0 1 .34.52 11.08 11.08 0 0 0 1.23-.25 3.22 3.22 0 0 1 .76-.09 3 3 0 0 1 3 2.9l.07 2.19a3 3 0 0 1 -.5 1.68v1.78a3 3 0 0 1 -.84 2.18l.23.15a3 3 0 0 1 1 4.09l-1.35 2.3a3 3 0 0 1 -2.28 1.47h-.31a3 3 0 0 1 -2.22-1 3.54 3.54 0 0 0 -.26-.27 7.36 7.36 0 0 1 -5.12 1.74z"/><path d="m74.93 20.36c-1.44 0-4.1-.59-5.68-4.5-.93-2.31-1.14-5-1.24-9.95v-.12a5.68 5.68 0 0 0 0-.66 3 3 0 0 1 3-3.39h2.74a3 3 0 0 1 2.25 1.07 3 3 0 0 1 .7 2.25 3 3 0 0 1 1.4-1.35l2.14-1a3 3 0 0 1 3.58.8 20.26 20.26 0 0 1 4.48 10.9 3 3 0 0 1 -1.94 3.16l-2.52.94a3.13 3.13 0 0 1 -1 .19 2.9 2.9 0 0 1 -1.66-.51 3 3 0 0 1 -1.18-1.28c-.95 1.77-2.51 3.45-5.07 3.45zm1.73-12.56a2.52 2.52 0 0 1 -.14-.33v.33z"/><path d="m95.45 21.19a9.14 9.14 0 0 1 -4.78-1.19 6.45 6.45 0 0 1 -3.1-4.85h-.27a3 3 0 0 1 -2.66-3.22l.19-2.27a3 3 0 0 1 .31-1.1 2.86 2.86 0 0 1 0-.83l.18-2.2a3 3 0 0 1 3-2.75 2.69 2.69 0 0 1 .4 0 3.08 3.08 0 0 1 .88-1.45 3 3 0 0 1 2-.78h.27l2.64.23a3 3 0 0 1 2.61 2.22h.3a3 3 0 0 1 3 3.11v1.22a3 3 0 0 1 1.49 1 8.42 8.42 0 0 1 2.09 5.54 7 7 0 0 1 -2.86 5.58 9.11 9.11 0 0 1 -5.69 1.74z"/><path d="m106.08 21.06a3 3 0 0 1 -.89-.14l-2.59-.8a3 3 0 0 1 -1.82-4.12c.19-.42.28-.65 3-8.18 1-2.68 1.58-4.48 1.64-4.92a3 3 0 0 1 3-2.55 3 3 0 0 1 .66.08l2.74.62a3 3 0 0 1 2 4.3 11.1 11.1 0 0 0 -.55 1.25c0 .09 0 .14-.18.46a5.09 5.09 0 0 1 1.89 1.51 3 3 0 0 1 .53-.28 3 3 0 0 1 3.15.6 3.93 3.93 0 0 0 1.45.92 3 3 0 0 1 1.68 3.31 11.78 11.78 0 0 1 -1.92 4.78 7.37 7.37 0 0 1 -6 3 6 6 0 0 1 -4.75-1.9l-.15-.19a3 3 0 0 1 -1.38 1.81 3 3 0 0 1 -1.51.44z"/><path d="m129.11 21.69a3 3 0 0 1 -2.24-1 1.63 1.63 0 0 1 -.17-.2c0 .07-.11.13-.17.2a3 3 0 0 1 -2.24 1h-2.29a3 3 0 0 1 -2.24-1 3 3 0 0 1 -.74-2.35c0-.2 0-.43 0-.69a3 3 0 0 1 -1.38-2 6.35 6.35 0 0 0 -.54-1.59 3 3 0 0 1 .34-3.17 6.1 6.1 0 0 0 .51-.84 3 3 0 0 1 -.72-2v-2.05a3 3 0 0 1 1.13-2.35 3.13 3.13 0 0 1 .58-.36 3 3 0 0 1 .71-2.13 3 3 0 0 1 2.28-1h2.29a3 3 0 0 1 1.78.48 4.38 4.38 0 0 1 .51 0 3 3 0 0 1 .73.09h.06a3 3 0 0 1 1.78-.59h2.29a3 3 0 0 1 3 2.51h.16.38a3 3 0 0 1 2 .75 3 3 0 0 1 1 2.25v2.09a3 3 0 0 1 .49 1.64v2.22a3 3 0 0 1 -.46 1.59 3.06 3.06 0 0 1 .9 1.59 3 3 0 0 1 -.56 2.43 4.82 4.82 0 0 0 -.81 1.48 3 3 0 0 1 -2 1.74 3.22 3.22 0 0 1 -.81.11 3 3 0 0 1 -.85-.12l-.18.22a3 3 0 0 1 -2.28 1.05z"/><path d="m150.17 21.46a5.65 5.65 0 0 1 -4.17-2.14c-2.94.69-5 1.1-7.16 1.42h-.21a5.19 5.19 0 0 0 -.64.11 3.25 3.25 0 0 1 -.69.08 3 3 0 0 1 -3-2.56l-.3-2.21a3 3 0 0 1 .69-2.4 3.78 3.78 0 0 1 .41-.39 3 3 0 0 1 -.55-1.74v-1.94a3 3 0 0 1 -.55-1.78v-2.19a3 3 0 0 1 3-3h.36a13.12 13.12 0 0 0 1.7.08h3.36a3 3 0 0 1 3-2.52h2.36a2.82 2.82 0 0 1 .92.15 3 3 0 0 1 2.78.43 18.8 18.8 0 0 1 2.14 1.88 3.21 3.21 0 0 1 .66 1 3 3 0 0 1 .77 2v2.17a3 3 0 0 1 -2.58 3 4.84 4.84 0 0 0 1.2.72 3 3 0 0 1 1.73 3.15 10.65 10.65 0 0 1 -1.4 4.49 4.52 4.52 0 0 1 -3.83 2.19z"/><path d="m166.25 21.78a3 3 0 0 1 -2.36-1.15c-.2 0-.81.08-.81.08-.76.08-5.73.52-6.46.56s-1.26.12-1.48.16a2.92 2.92 0 0 1 -.51 0 3 3 0 0 1 -3-2.64l-.28-2.39a2.93 2.93 0 0 1 .22-1.55 3 3 0 0 1 -.56-1.76v-2.18a3.36 3.36 0 0 1 .08-.71l-.25-.36a3 3 0 0 1 1.4-4.63 11.12 11.12 0 0 0 3.26-1.7 7.4 7.4 0 0 0 2-2 3 3 0 0 1 2.5-1.33h2.32a3 3 0 0 1 2.42 1.22 7 7 0 0 0 2.08 2 13 13 0 0 0 3.4 1.7 3 3 0 0 1 1.87 1.79 3 3 0 0 1 -.22 2.58c-.21.35-.35.61-.47.85a2.54 2.54 0 0 1 .07.61v2.22a3 3 0 0 1 -1 2.25l-.08.06.24.32a3 3 0 0 1 -.82 4.32l-2 1.23a3 3 0 0 1 -1.56.45z"/><path d="m172.47 21.66a3 3 0 0 1 -3-3.39 10.26 10.26 0 0 0 .07-1.3 3 3 0 0 1 -1.54-1.74 5.39 5.39 0 0 0 -.61-1.37 3 3 0 0 1 -.39-2.36 3 3 0 0 1 1.22-1.76 3.05 3.05 0 0 1 -.76-2v-2.15a3 3 0 0 1 1-2.25 3.18 3.18 0 0 1 1-.59 3 3 0 0 1 3-2.68h2.32a3 3 0 0 1 2.3 1.07l.11.14.15-.19a3 3 0 0 1 2.23-1h2.45a3 3 0 0 1 2.25 1 3 3 0 0 1 .73 2.39 8.12 8.12 0 0 0 -.08 1h.19a3 3 0 0 1 3 3v2.26a3 3 0 0 1 -3 3h-.11v.18h.3.34a3 3 0 0 1 2 .76 3 3 0 0 1 1 2.24v2.29a3 3 0 0 1 -3 3h-.32c-.48-.05-1.09-.08-1.63-.08h-5.59a13.07 13.07 0 0 0 -1.55.08 3.06 3.06 0 0 1 -1.69.52z"/></g><path d="m8.53 11.15h1a9.45 9.45 0 0 0 1.62-.09v2.07a14.08 14.08 0 0 0 -1.62-.06h-.29a6.8 6.8 0 0 0 1.56 1.3c-.35.67-.66 1.28-.92 1.92a7.55 7.55 0 0 1 -1.39-1.54v1.2 1.34a7.56 7.56 0 0 0 .08 1.37h-2.18a6.88 6.88 0 0 0 .08-1.29v-1.27c0-.28 0-.66 0-1a8.1 8.1 0 0 1 -2.59 2.77 8 8 0 0 0 -.88-2.12 8.62 8.62 0 0 0 2.82-2.68h-.92a10 10 0 0 0 -1.6.08v-2.09a9.71 9.71 0 0 0 1.64.09h1.53v-1h-1.58a13.94 13.94 0 0 0 -1.61.07v-2.11a11.31 11.31 0 0 0 1.72.08 11.93 11.93 0 0 0 -.4-1.88c-.42 0-.62 0-1 .06v-2a10 10 0 0 0 1.65.08h1.14v-.15a7.49 7.49 0 0 0 -.08-1.25h2.38a7.11 7.11 0 0 0 -.08 1.25v.1h.92a9.74 9.74 0 0 0 1.63-.08v2.05c-.33 0-.45 0-.88 0a15.37 15.37 0 0 1 -.44 1.87 8.58 8.58 0 0 0 1.42-.08v2.1a14 14 0 0 0 -1.62-.07h-1.11zm-.59-3a9.57 9.57 0 0 0 .37-1.88h-1.77a1 1 0 0 1 .07.18 9.65 9.65 0 0 1 .39 1.74zm9.42-.1a7.88 7.88 0 0 0 1.53-.05v2.19a8.28 8.28 0 0 0 -1.28-.07h-.32v6.46a13.46 13.46 0 0 0 .1 2.1h-2.34a12.65 12.65 0 0 0 .1-2.1v-6.47h-1.33c-.09 4.21-.64 6.51-2.06 8.65a9.42 9.42 0 0 0 -2-1.29c1.6-2.1 2-4 2-10.75a19.39 19.39 0 0 0 -.1-2.32 20.08 20.08 0 0 0 3.89-.7 6 6 0 0 0 1.66-.7l1.62 2a4.86 4.86 0 0 0 -.59.19 25 25 0 0 1 -4.41 1v1.9z" fill="#231815"/><path d="m27.8 12.82a9.38 9.38 0 0 0 -1.17 0v-1.22a13.69 13.69 0 0 1 -2.42 2.22 6.44 6.44 0 0 0 -1.21-1.69 11.62 11.62 0 0 0 2.1-1.63 13.87 13.87 0 0 0 -1.59.08v-1l-1 1.47a16.44 16.44 0 0 0 -2.81-2.12l1.3-1.62a18.34 18.34 0 0 1 2.51 1.69v-.3l1.07.1h1.82c.13-.25.2-.37.35-.67h-.88a13.83 13.83 0 0 0 -1.61.07v-1.78a13.72 13.72 0 0 0 1.61.07h1.52a6 6 0 0 0 .16-.64h-1.72a14.82 14.82 0 0 0 -1.83.07v-.45l-1 1.34a18.54 18.54 0 0 0 -2.74-2.14l1.35-1.59a16.72 16.72 0 0 1 2.39 1.72v-.8a15.81 15.81 0 0 0 1.87.1h2a6.06 6.06 0 0 0 .08-1 1.16 1.16 0 0 0 0-.17l2.25.08c-.07.3-.1.44-.22 1h3.02a14.27 14.27 0 0 0 1.93-.01v1.9a16.19 16.19 0 0 0 -1.84-.07h-3.5c-.08.32-.08.32-.18.64h3.59a11.21 11.21 0 0 0 1.5-.07v1.76a12 12 0 0 0 -1.47-.07h-1.4c.12.25.18.37.35.67h1.62a12.72 12.72 0 0 0 1.8-.08v1.9a10.74 10.74 0 0 0 -1.65-.08h-.35a8.83 8.83 0 0 0 2.39 1.56 7.06 7.06 0 0 0 -1 1.82l-.55-.35v1.77a11.53 11.53 0 0 0 -1.66-.08h-1.58a6.88 6.88 0 0 0 2 1.07 9 9 0 0 0 2.5.53 9.54 9.54 0 0 0 -1 1.85 10.36 10.36 0 0 1 -3.22-1.11 9 9 0 0 1 -2.05-1.67 5.43 5.43 0 0 1 -2.3 1.92 11.25 11.25 0 0 1 -2.84.88 5.1 5.1 0 0 0 -.92-1.88 9.8 9.8 0 0 0 2.42-.47 3.76 3.76 0 0 0 1.77-1.12h-1.06a11.42 11.42 0 0 0 -1.59.08v-1.82a7.41 7.41 0 0 0 1.44.09h1.9c0-.24.05-.34.09-.75zm-4.1.45a25.7 25.7 0 0 1 -1.47 3.95 9.84 9.84 0 0 1 -.49 1l-.16.35-1.79-1.6a6 6 0 0 0 .8-1.22 17.14 17.14 0 0 0 1.41-3.75zm3.82-2.77c-.23.31-.33.46-.58.76h.9 3 .82c-.24-.3-.34-.43-.57-.76zm1.33-2.41c-.11.25-.15.37-.3.67h1.52a5.46 5.46 0 0 1 -.28-.67zm1.31 4.73c0 .38 0 .45-.07.75h2.5a11.68 11.68 0 0 0 1.59-.07 12.44 12.44 0 0 1 -2.18-1.82v1.19a9.07 9.07 0 0 0 -1.18 0z" fill="#231815"/><path d="m38.05 8.74a12.9 12.9 0 0 0 2.07-.28 31.17 31.17 0 0 1 5.54-.55 5.32 5.32 0 0 1 3.61 1.09 3.78 3.78 0 0 1 1.15 2.8 5.77 5.77 0 0 1 -3.32 5 14.41 14.41 0 0 1 -5.46 1.52 6.55 6.55 0 0 0 -1-2.45c2.8-.17 4.61-.65 5.83-1.59a3 3 0 0 0 1.3-2.37 1.5 1.5 0 0 0 -.7-1.32 3.41 3.41 0 0 0 -1.71-.35 24 24 0 0 0 -6.74 1.15zm2.67-5.39a23 23 0 0 0 6.89.95h.84l-.32 2.43a38.68 38.68 0 0 1 -8.13-1.03z" fill="#231815"/><path d="m66.56 17.57a7.06 7.06 0 0 0 -.79-.76 12.28 12.28 0 0 0 -3-1.92 1.43 1.43 0 0 1 0 .26c0 1.92-1.27 2.84-3.94 2.84s-4-1-4-2.82 1.79-3 4.76-3h.83v-1.33l-1.42.06c-1.08 0-1.65 0-3.17-.1-.23 0-.38 0-.67 0v-2.14a21.64 21.64 0 0 0 3.84.25h1.39v-1-.4h-.89c-.64 0-2.06 0-4.23-.16a4 4 0 0 0 -.41 0 1.59 1.59 0 0 0 -.27 0v-2.22a22.21 22.21 0 0 0 4.58.36h1.15a10.69 10.69 0 0 0 -.1-2h2.52a8.53 8.53 0 0 0 -.13 1.89 24.13 24.13 0 0 0 4.79-.6l.09 2.22a12.38 12.38 0 0 0 -1.38.15c-1.3.17-2.36.27-3.49.32v1.37a22.75 22.75 0 0 0 4.38-.6l.06 2.19a1.79 1.79 0 0 0 -.35 0 2.76 2.76 0 0 1 -.28 0l-1.24.13c-.8.09-1.88.17-2.55.2v1.74a14.92 14.92 0 0 1 4.57 2.32c.27.18.37.25.62.4zm-7.3-3.39c-1.17 0-1.88.37-1.88 1s.62.82 1.62.82 1.55-.35 1.55-1.32c0-.13 0-.34 0-.34a4.68 4.68 0 0 0 -1.29-.16z" fill="#231815"/><path d="m73.67 4.75a19.72 19.72 0 0 0 -.15 2.76c0 4 .61 6.94 1.47 6.94.21 0 .41-.23.6-.68a14 14 0 0 0 .88-3 8.36 8.36 0 0 0 2 1.8c-.88 3.27-2 4.76-3.51 4.76-1.21 0-2.2-.89-2.9-2.62s-.92-3.83-1-8.89a6.34 6.34 0 0 0 -.07-1.11zm7.79.67a17.07 17.07 0 0 1 3.81 9.33l-2.52.94a17.19 17.19 0 0 0 -1-5 15 15 0 0 0 -2.4-4.28z" fill="#231815"/><path d="m87.82 9.84a11.29 11.29 0 0 0 2.92.62c.12-1 .12-1 .28-2a18.57 18.57 0 0 1 -2.35-.46l-.58-.1.18-2.2a12 12 0 0 0 3 .59 18.08 18.08 0 0 0 .28-2.59v-.2l2.64.23a14 14 0 0 0 -.52 2.64 15.78 15.78 0 0 0 3.75-.37l-.09 2.34-1.21.1a22.27 22.27 0 0 1 -2.53.1h-.25c-.11.8-.16 1.14-.28 2.06h.58a12.69 12.69 0 0 0 3.36-.35v2.28a5.3 5.3 0 0 0 -.54.05 20.79 20.79 0 0 1 -2.57.17h-.9v1a1.94 1.94 0 0 0 .57 1.57 2.86 2.86 0 0 0 1.95.59c2 0 3.12-.87 3.12-2.39a4 4 0 0 0 -1.45-2.8 7.24 7.24 0 0 0 2.47-.49 5.44 5.44 0 0 1 1.35 3.64 4 4 0 0 1 -1.68 3.13 7.08 7.08 0 0 1 -7 .4 3.77 3.77 0 0 1 -1.79-3.56c0-.41 0-.58.05-1.3a21.92 21.92 0 0 1 -2.25-.37l-.66-.1z" fill="#231815"/><path d="m111.09 4a13.55 13.55 0 0 0 -.67 1.5l-.82 2.09-1.19 3a3.18 3.18 0 0 1 2.26-1 2.3 2.3 0 0 1 1.88.9 2.81 2.81 0 0 1 .45 1.51v1.5c0 1.3 0 1.54.3 1.77a1.12 1.12 0 0 0 .77.23c.79 0 1.42-.56 1.85-1.65a9.7 9.7 0 0 0 .6-2.79 6.85 6.85 0 0 0 2.24 1.46 9 9 0 0 1 -1.42 3.62 4.38 4.38 0 0 1 -3.59 1.78 3.1 3.1 0 0 1 -2.4-.88 3.44 3.44 0 0 1 -.7-2.47c0-.1 0-.69 0-1.24v-.16a2.12 2.12 0 0 0 -.12-.85.67.67 0 0 0 -.67-.37c-.85 0-1.74.82-2.45 2.27a19.16 19.16 0 0 0 -1.37 3.84l-2.59-.8c.27-.57.27-.57 3.07-8.45a43.14 43.14 0 0 0 1.79-5.48z" fill="#231815"/><path d="m131.3 9.48h2.22a15.44 15.44 0 0 0 1.87-.1v2.22a15 15 0 0 0 -1.89-.1h-1.63a11 11 0 0 0 4 3.89 7.55 7.55 0 0 0 -1.2 2.15 12 12 0 0 1 -3.48-4.09v1.57 1.67a14 14 0 0 0 .12 2h-2.27a16.65 16.65 0 0 0 .1-2v-1.52c0-.47 0-1 0-1.65a11.68 11.68 0 0 1 -3.72 4 8.35 8.35 0 0 0 -1.2-1.94 11 11 0 0 0 2.48-1.87 11 11 0 0 0 1.76-2.25h-1a14.74 14.74 0 0 0 -1.91.11v-1a10.61 10.61 0 0 0 -.63 1.93 7.39 7.39 0 0 1 -.9-1.8v2 3.89a17.32 17.32 0 0 0 .1 2.1h-2.12a19.93 19.93 0 0 0 .1-2.1v-3c0-.38 0-1.1.08-1.88a11.17 11.17 0 0 1 -1.55 3.34 8.92 8.92 0 0 0 -.79-2.32 13.44 13.44 0 0 0 2.09-4.73h-.53a4.64 4.64 0 0 0 -1.1.08v-2.08a4.55 4.55 0 0 0 1.1.08h.7v-1.24a10.89 10.89 0 0 0 -.1-1.76h2.29a11.45 11.45 0 0 0 -.1 1.74v1.23h.36a4.13 4.13 0 0 0 .84-.06v1.48a10.73 10.73 0 0 0 1.15-3.87l2 .5c-.07.2-.12.42-.25 1-.07.27-.09.35-.15.64h1.08v-.99a10.32 10.32 0 0 0 -.1-1.63h2.29a10.18 10.18 0 0 0 -.1 1.62v1h1.75a14.36 14.36 0 0 0 1.85-.1v2.2a13.82 13.82 0 0 0 -1.87-.1h-1.74zm-3.84-1.79a10 10 0 0 1 -.84 1.7 7.26 7.26 0 0 0 -1.55-1.39h-.8a8.51 8.51 0 0 0 1.4 2.37v-1a9.51 9.51 0 0 0 1.91.12h1.63v-1.8z" fill="#231815"/><path d="m150.39 5.82a10.49 10.49 0 0 0 1.61-.08v2.17a16.11 16.11 0 0 0 -2-.1h-2.21a19.3 19.3 0 0 0 1.07 6c.4.95 1 2 1.24 2s.36-1 .55-2.52a8.26 8.26 0 0 0 1.8 1.08 8 8 0 0 1 -.95 3.29 1.55 1.55 0 0 1 -1.29.82 3 3 0 0 1 -2-1.25 11.25 11.25 0 0 1 -1.65-3.31 24.82 24.82 0 0 1 -1-6.09h-6.52a19 19 0 0 0 -2.06.1v-2.21a16.61 16.61 0 0 0 2.06.1h6.44c0-.72 0-.72 0-1.32a9.84 9.84 0 0 0 -.09-1.2h2.36a9 9 0 0 0 -.07 1.19v1.33h2.07a10.43 10.43 0 0 0 -1.67-1.52l1.55-1a16.09 16.09 0 0 1 1.84 1.62l-1.34.92zm-11 5.74c-.63 0-1.23 0-1.75.07v-2.05a16.19 16.19 0 0 0 1.8.08h3.91a15.91 15.91 0 0 0 1.78-.08v2.05c-.51-.05-1.12-.07-1.75-.07h-.93v3.44c1.16-.22 1.8-.37 3.28-.74v2c-3.08.74-5.1 1.14-7.24 1.45a9.5 9.5 0 0 0 -1.1.19l-.39-2.18a25.15 25.15 0 0 0 3.24-.33v-3.83z" fill="#231815"/><path d="m156.88 8.81a18.69 18.69 0 0 1 -2.52 1.3 7.23 7.23 0 0 0 -1.1-2.11 14 14 0 0 0 4-2.1 10.3 10.3 0 0 0 2.74-2.72h2.32a10.12 10.12 0 0 0 2.83 2.69 15.81 15.81 0 0 0 4.14 2.05 9.94 9.94 0 0 0 -1 2.24 15.77 15.77 0 0 1 -2.67-1.37v1.14a13.73 13.73 0 0 0 -1.62-.07h-5.66a14.19 14.19 0 0 0 -1.49.07zm-.88 4.19a17.25 17.25 0 0 0 -2 .1v-2.19c.57.05 1.23.09 2 .09h10.47c.8 0 1.44 0 2-.09v2.22a17.58 17.58 0 0 0 -2-.1h-5.64a20 20 0 0 1 -1.6 3c3.35-.17 3.35-.17 4.77-.34-.53-.6-.8-.9-1.6-1.73l2-.84a34.93 34.93 0 0 1 3.79 4.46l-1.95 1.24c-.47-.74-.62-1-.89-1.36-1.6.22-1.63.22-2.55.3s-5.71.52-6.35.55-1.45.14-1.83.2l-.29-2.38h1.17 1.19a19.9 19.9 0 0 0 1.64-3.13zm8.15-5.15a13.11 13.11 0 0 1 -2.95-2.78 13 13 0 0 1 -2.94 2.78z" fill="#231815"/><path d="m174.72 16.92a11.43 11.43 0 0 0 .09 1.74h-2.34a12 12 0 0 0 .1-1.79v-3.87a10.43 10.43 0 0 1 -1.69 1.24 7.8 7.8 0 0 0 -.95-2.06 11.64 11.64 0 0 0 2.76-2.08 8.78 8.78 0 0 0 1.75-2.46h-2.52a11.4 11.4 0 0 0 -1.44.07v-2.12a9.67 9.67 0 0 0 1.31.06h.8v-1.31a8.6 8.6 0 0 0 -.1-1.27h2.32a6.57 6.57 0 0 0 -.1 1.28v1.3h.58a5.46 5.46 0 0 0 1-.05l.93 1c-.16.28-.23.43-.38.75a13.09 13.09 0 0 1 -1.59 2.77 9 9 0 0 0 2.66 2.08 10.71 10.71 0 0 0 -1.07 2 8.66 8.66 0 0 1 -2.09-1.78zm7.28-.92h1.67a15.69 15.69 0 0 0 2-.08v2.29a18.19 18.19 0 0 0 -2-.1h-5.59a17 17 0 0 0 -1.91.1v-2.34a16 16 0 0 0 1.94.08h1.62v-6.29h-1.07c-.55 0-1.08 0-1.64.08v-2.25a14.81 14.81 0 0 0 1.64.08h1.07v-2.57a15.42 15.42 0 0 0 -.1-1.85h2.45a13.15 13.15 0 0 0 -.08 1.85v2.57h1.54a10.59 10.59 0 0 0 1.65-.08v2.25c-.57-.05-1.07-.08-1.65-.08h-1.54z" fill="#231815"/></svg>