<svg viewBox="0 0 200.86 21.44" xmlns="http://www.w3.org/2000/svg"><path d="m3 17.91a18 18 0 0 0 .1-2.36v-9.88a15 15 0 0 0 -.1-2.23h2.72a15 15 0 0 0 -.1 2.23v2.54a40.19 40.19 0 0 1 7.6 3.5l-1.37 2.41a37.64 37.64 0 0 0 -5.59-3 5.59 5.59 0 0 1 -.64-.3v4.81a20 20 0 0 0 .1 2.32zm7.36-13.44a9.87 9.87 0 0 1 1.49 2.39l-1.45.72a12 12 0 0 0 -1.49-2.48zm1.94-.9a11.18 11.18 0 0 1 1.52 2.3l-1.46.72a12.48 12.48 0 0 0 -1.46-2.37z"/><path d="m21.63 3.74a17.6 17.6 0 0 0 -.1 2.26v3.28c0 1 0 1.85.08 2.3h-2.74a19.65 19.65 0 0 0 .13-2.34v-3.24a17.33 17.33 0 0 0 -.08-2.27zm7.64 0a18.59 18.59 0 0 0 -.08 2.26v1.74a18.4 18.4 0 0 1 -.34 4.81 6.62 6.62 0 0 1 -3.43 4.21 14.22 14.22 0 0 1 -3.36 1.32 6.33 6.33 0 0 0 -1.43-2.39 11.43 11.43 0 0 0 3.25-1.07 4.3 4.3 0 0 0 2.55-3.34 25.82 25.82 0 0 0 .19-3.69v-1.59a15.59 15.59 0 0 0 -.1-2.26z"/><path d="m33.51 9.26a21 21 0 0 0 3.05.13h8.44a22.35 22.35 0 0 0 3.06-.11v2.72c-.67 0-1.77-.09-3.08-.09h-8.42c-1.45 0-2.4 0-3.05.1z"/><path d="m58.31 4a6 6 0 0 0 -.43 1.22c-1.1 3.67-2.17 6.83-3.21 9.37a61.07 61.07 0 0 0 6.38-.75c-.17-.37-.33-.71-.69-1.39a20.21 20.21 0 0 0 -1.55-2.69l2.26-.87a37.46 37.46 0 0 1 4 7.85l-2.43 1.25a14.15 14.15 0 0 0 -.71-2 93.06 93.06 0 0 1 -9.93 1.25 8.31 8.31 0 0 0 -1.58.22l-.35-2.69h.45 1.42a86.07 86.07 0 0 0 2.82-8.25 18.15 18.15 0 0 0 .7-3.07z"/><path d="m79.56 17.91a29.67 29.67 0 0 0 -5-4.86 19.2 19.2 0 0 1 -6.23 4.66 7.49 7.49 0 0 0 -1.6-2.22 15.19 15.19 0 0 0 3.71-2 15.41 15.41 0 0 0 4.37-4.82c.22-.37.5-1 .89-1.82l-4.88.08a14.8 14.8 0 0 0 -2.3.07v-2.54a11.78 11.78 0 0 0 2 .1h.31l5.7-.1c.92 0 1 0 1.4-.2l1.29 1.34a2.66 2.66 0 0 0 -.56.93 21.63 21.63 0 0 1 -2.52 4.54 37.63 37.63 0 0 1 5.43 4.63z"/><path d="m91.26 3.55a7 7 0 0 0 -.44.85c-.15.3-.2.42-.36.72h4.4a3 3 0 0 0 1.26-.22l1.3 1.29c-.24.26-.25.3-.54 1.13a18.69 18.69 0 0 1 -4.15 7.31 18 18 0 0 1 -5.66 3.84 7.15 7.15 0 0 0 -1.65-2.1 18.89 18.89 0 0 0 3.18-1.55 12.1 12.1 0 0 0 2.64-2.17 18.08 18.08 0 0 0 -3.24-2.27l1.52-1.79a23.23 23.23 0 0 1 3.2 2.07 13.83 13.83 0 0 0 1.64-3.47h-4.89a18 18 0 0 1 -3.86 4.47 6.38 6.38 0 0 0 -2-1.58 14.84 14.84 0 0 0 4.18-4.79 9.65 9.65 0 0 0 .91-2.29z"/><path d="m101.87 7.81a23.23 23.23 0 0 1 4.54 2.3l-1.22 2.24a19.37 19.37 0 0 0 -4.64-2.52zm-.87 7.39a14.69 14.69 0 0 0 5-1.1 10 10 0 0 0 4.75-3.64 12.51 12.51 0 0 0 1.9-3.69 8.9 8.9 0 0 0 2.08 1.79 14.62 14.62 0 0 1 -2.55 4.27c-2.22 2.56-5 4-9.26 4.78-.52.1-.84.18-1.19.28zm2.17-11.46a26.67 26.67 0 0 1 4.61 2.17l-1.27 2.18a20 20 0 0 0 -4.61-2.33zm9 .21a8.87 8.87 0 0 1 1.39 2.26l-1.44.68a10 10 0 0 0 -1.37-2.32zm1.83-.83a9.39 9.39 0 0 1 1.39 2.17l-1.39.71a12.25 12.25 0 0 0 -1.35-2.25z"/><path d="m131.7 5.59a2.52 2.52 0 0 0 -.49.82 10.9 10.9 0 0 1 -4.72 5.32 6.56 6.56 0 0 0 -1.75-1.7 9 9 0 0 1 -1 4.07c-1 1.75-2.39 2.94-5 4a7 7 0 0 0 -1.58-2.29 7.35 7.35 0 0 0 3.89-2.4c.83-1 1.13-2.3 1.13-4.62a5.28 5.28 0 0 0 -.08-1.12h2.68a10.12 10.12 0 0 0 -.08 1.42v.78a7.19 7.19 0 0 0 3.69-3.37h-8.26c-1 0-1.82 0-2.57.1v-2.46a16.44 16.44 0 0 0 2.6.13h8.62a3.59 3.59 0 0 0 1.53-.17z"/><path d="m141.76 4a6 6 0 0 0 -.43 1.22c-1.1 3.67-2.17 6.83-3.21 9.37a61.07 61.07 0 0 0 6.38-.75c-.17-.37-.33-.71-.69-1.39a20.21 20.21 0 0 0 -1.55-2.69l2.26-.87a37.94 37.94 0 0 1 4 7.85l-2.43 1.25a14.15 14.15 0 0 0 -.71-2 93.06 93.06 0 0 1 -9.93 1.27 8.31 8.31 0 0 0 -1.58.22l-.35-2.69h.45 1.41a83.32 83.32 0 0 0 2.83-8.25 18.15 18.15 0 0 0 .7-3.07z"/><path d="m156.68 3.29a28.4 28.4 0 0 0 1 5.09c.92-.34 1.62-.55 4.22-1.37a4.15 4.15 0 0 0 .67-.25l.84 2.53a34.82 34.82 0 0 0 -5.75 1.57c-2.28.85-3.45 1.82-3.45 2.89s1.1 1.59 3.57 1.59a19.41 19.41 0 0 0 5.59-.74l.2 2.72c-.36 0-.45 0-1.4.14a41.25 41.25 0 0 1 -4.19.26c-2.89 0-4.74-.55-5.62-1.66a3.64 3.64 0 0 1 -.74-2.23 4.06 4.06 0 0 1 1.49-3.13 9.63 9.63 0 0 1 2.3-1.46 45.36 45.36 0 0 1 -1.07-4.47 5.82 5.82 0 0 0 -.27-1.08z"/><path d="m171 3.69a13.86 13.86 0 0 0 .55 2c.12.35.17.55.35 1.15 1.47-.4 2-.54 2.74-.67 0-.35 0-.35 0-1.25a8 8 0 0 0 -.11-1.67h2.47a12.76 12.76 0 0 0 -.1 2.62h.87c2.4 0 4 1.41 4 3.57 0 2.4-1.91 4.09-4.65 4.09a9 9 0 0 1 -2.53-.4 8.09 8.09 0 0 0 -.35-2.41 6.75 6.75 0 0 0 2.57.57c1.48 0 2.45-.7 2.45-1.77s-.71-1.52-2.05-1.52a17.36 17.36 0 0 0 -4.71 1l.34 1.2c.7 2.56.88 3.27 1.73 6.8a5.33 5.33 0 0 0 .29.85l-2.66.62a33.2 33.2 0 0 0 -.88-4.61c-.27-1.17-.49-2-.87-3.34-.1-.37-.18-.67-.23-.87a28.87 28.87 0 0 0 -2.89 1.1l-.75-2.32a7 7 0 0 0 .8-.18c1.13-.37 2.09-.67 2.24-.7a16.13 16.13 0 0 0 -1.11-3.09z"/><path d="m196.51 17.39a7.16 7.16 0 0 0 -.79-.77 12.59 12.59 0 0 0 -3-1.92v.27c0 1.92-1.27 2.84-3.94 2.84s-4-1-4-2.82 1.79-3 4.76-3h.83v-1.33h-1.47c-1.09 0-1.65 0-3.17-.1h-.67v-2.14a21.64 21.64 0 0 0 3.87.27h1.39v-1-.36h-.89c-.63 0-2.05 0-4.22-.17h-.68v-2.22a21.34 21.34 0 0 0 4.57.37h1.16a10.69 10.69 0 0 0 -.1-2h2.52a8.94 8.94 0 0 0 -.14 1.89 23.76 23.76 0 0 0 4.79-.61l.07 2.19a12.7 12.7 0 0 0 -1.39.15c-1.3.17-2.35.27-3.48.32v1.37a23.45 23.45 0 0 0 4.47-.56l.07 2.19a1.79 1.79 0 0 0 -.35 0 2.8 2.8 0 0 1 -.29 0l-1.23.13c-.8.08-1.89.17-2.55.2v1.74a14.8 14.8 0 0 1 4.57 2.32c.27.18.37.25.62.4zm-7.3-3.39c-1.17 0-1.89.37-1.89 1s.59.83 1.57.83c1.14 0 1.56-.35 1.56-1.31 0-.14 0-.34 0-.34a4.74 4.74 0 0 0 -1.24-.18z"/><g fill="#fff"><path d="m3 20.91a3 3 0 0 1 -2.26-1 3 3 0 0 1 -.74-2.39 16.67 16.67 0 0 0 .07-2v-9.85a12.35 12.35 0 0 0 -.07-1.81 3 3 0 0 1 3-3.42h2.72a3 3 0 0 1 2.28 1.02 2.77 2.77 0 0 1 .41.6l.77-.34.2-.08.27-.14 1.35-.65a3 3 0 0 1 3.58.81 13.31 13.31 0 0 1 1.86 2.82 3 3 0 0 1 .2 2.32 3 3 0 0 1 -1.52 1.76l-.75.37.33.19a3 3 0 0 1 1.09 4.08l-1.37 2.4a3 3 0 0 1 -1.9 1.4 3.07 3.07 0 0 1 -.67.08 3 3 0 0 1 -1.7-.53c-.44-.3-1-.63-1.53-.95a17.5 17.5 0 0 0 .08 1.95 3 3 0 0 1 -3 3.32z"/><path d="m22.06 21.08a3 3 0 0 1 -2.81-1.95 3.46 3.46 0 0 0 -.9-1.49 3 3 0 0 1 -.56-2.92 1.88 1.88 0 0 1 .12-.3 2.92 2.92 0 0 1 -1.27-.84 3 3 0 0 1 -.75-2.32 17.84 17.84 0 0 0 .08-2v-3.26a15 15 0 0 0 -.06-1.94 3 3 0 0 1 .74-2.34 3 3 0 0 1 2.24-1h2.74a3 3 0 0 1 2.24 1 2.65 2.65 0 0 1 .21.26 2.35 2.35 0 0 1 .19-.25 3 3 0 0 1 2.25-1h2.75a3 3 0 0 1 2.24 1 3 3 0 0 1 .74 2.33 16.42 16.42 0 0 0 -.06 1.94v1.74a21.17 21.17 0 0 1 -.43 5.57 9.7 9.7 0 0 1 -4.86 6.06 16.64 16.64 0 0 1 -4 1.59 2.91 2.91 0 0 1 -.84.12z"/><path d="m33.51 15a3 3 0 0 1 -3-3v-2.74a3 3 0 0 1 3-3h.4a18.74 18.74 0 0 0 2.65.1h8.44a19 19 0 0 0 2.67-.09h.39a3 3 0 0 1 3 3v2.73a3 3 0 0 1 -3 3h-.23c-.63 0-1.7-.08-2.85-.08h-8.42c-1.29 0-2.19 0-2.75.09z"/><path d="m62.64 20.94a3 3 0 0 1 -1.21-.25 3 3 0 0 1 -1.43-1.33c-1.81.27-3.94.51-7.7.87a6.14 6.14 0 0 0 -1.15.14 3 3 0 0 1 -.72.09 3 3 0 0 1 -3-2.62l-.35-2.68a3 3 0 0 1 .79-2.45 3 3 0 0 1 2-.93c.72-1.95 1.38-4 2-6.12a13.34 13.34 0 0 0 .6-2.56 3 3 0 0 1 3-2.68 3.41 3.41 0 0 1 .55 0l2.84.58a3 3 0 0 1 2.14 1.59 3 3 0 0 1 0 2.65 3.1 3.1 0 0 0 -.22.61h.27a3 3 0 0 1 2.48 1.33 40.15 40.15 0 0 1 4.34 8.48 3 3 0 0 1 -1.45 3.71l-2.42 1.24a3 3 0 0 1 -1.36.33z"/><path d="m79.45 20.91a3.05 3.05 0 0 1 -2.23-1.12 24.8 24.8 0 0 0 -2.47-2.67 24.36 24.36 0 0 1 -5.06 3.29 3.06 3.06 0 0 1 -1.31.3 3 3 0 0 1 -2.66-1.61 4.77 4.77 0 0 0 -1.11-1.53 3 3 0 0 1 1-4.87 12.22 12.22 0 0 0 3-1.67 11.47 11.47 0 0 0 1.35-1.12 7.18 7.18 0 0 0 -.96.09 2.42 2.42 0 0 1 -.47 0 3 3 0 0 1 -3-3v-2.54a3 3 0 0 1 1-2.3 3 3 0 0 1 2-.74 3.57 3.57 0 0 1 .46 0 9.88 9.88 0 0 0 1.58.06h.31l5.84-.1h.2a3.09 3.09 0 0 1 1.05-.18 3 3 0 0 1 2.17.9l1.29 1.34a3 3 0 0 1 .11 4l-.06.12c-.42 1-.84 1.86-1.27 2.66.89.74 1.78 1.57 3.48 3.19a3 3 0 0 1 .12 4.21l-2 2.17a3 3 0 0 1 -2.19 1z"/><path d="m87.07 21.44a3 3 0 0 1 -2.61-1.52 4.24 4.24 0 0 0 -1.1-1.39 3 3 0 0 1 .23-4.53 3 3 0 0 1 -.25-.25 3.44 3.44 0 0 0 -1.26-1 3 3 0 0 1 -1.51-2.39 3 3 0 0 1 1.15-2.59 11.61 11.61 0 0 0 3.38-3.87 7.06 7.06 0 0 0 .69-1.61 3 3 0 0 1 2.91-2.29 2.85 2.85 0 0 1 .64.07l2.55.55a3 3 0 0 1 2 1.48h1.11a3.14 3.14 0 0 1 1.09-.2 3 3 0 0 1 2.11.86l1.32 1.24a3 3 0 0 1 .31 3.92c0 .08-.06.19-.11.32a21.62 21.62 0 0 1 -4.83 8.42 21.17 21.17 0 0 1 -6.57 4.49 3.09 3.09 0 0 1 -1.25.29z"/><path d="m101.67 20.89a3 3 0 0 1 -2.9-2.24l-.7-2.65a3 3 0 0 1 1.38-3.34 3 3 0 0 1 -1.45-4.47l1-1.5a3 3 0 0 1 .31-2.53l1.27-2a3 3 0 0 1 2.54-1.4 3.12 3.12 0 0 1 1 .18 31.83 31.83 0 0 1 4.12 1.85 3 3 0 0 1 1.21-.95l1.41-.62.31-.11.24-.12 1.37-.6a2.93 2.93 0 0 1 1.22-.27 3 3 0 0 1 2.29 1.06 12.26 12.26 0 0 1 1.84 2.89 3 3 0 0 1 -.7 3.41 3 3 0 0 1 0 2.28 17.65 17.65 0 0 1 -3 5c-2.65 3.06-6 4.83-11 5.76a7.65 7.65 0 0 0 -.91.22 3.32 3.32 0 0 1 -.85.15z"/><path d="m118.81 21.14a3 3 0 0 1 -2.7-1.69 4.25 4.25 0 0 0 -1-1.52 3 3 0 0 1 1.23-4.93 4.37 4.37 0 0 0 2.42-1.4c.16-.2.42-.52.48-2-.5 0-.94 0-1.36.08h-.27a3 3 0 0 1 -3-3v-2.54a3 3 0 0 1 3-3 2.83 2.83 0 0 1 .41 0 13.12 13.12 0 0 0 2.19.1h9.18a2.82 2.82 0 0 1 1-.15 3 3 0 0 1 2.25 1l1.34 1.48a3 3 0 0 1 .09 3.9v.09a14.06 14.06 0 0 1 -6 6.74 3.32 3.32 0 0 1 -1.2.39c-.11.26-.24.52-.38.79-1.31 2.41-3.23 4-6.43 5.39a3 3 0 0 1 -1.25.27z"/><path d="m146.09 20.94a3 3 0 0 1 -1.21-.25 3 3 0 0 1 -1.44-1.33c-1.81.27-3.95.51-7.7.87a6.14 6.14 0 0 0 -1.15.14 3 3 0 0 1 -.72.09 3 3 0 0 1 -3-2.62l-.35-2.68a3 3 0 0 1 .79-2.45 3 3 0 0 1 2-.93c.72-1.95 1.38-4 2-6.12a13.34 13.34 0 0 0 .6-2.56 3 3 0 0 1 3-2.68 3.41 3.41 0 0 1 .55 0l2.85.53a3 3 0 0 1 2.13 1.59 3 3 0 0 1 0 2.65 3.1 3.1 0 0 0 -.22.61h.26a3 3 0 0 1 2.52 1.37 40.15 40.15 0 0 1 4.34 8.48 3 3 0 0 1 -1.45 3.71l-2.43 1.25a3 3 0 0 1 -1.37.33z"/><path d="m158 20.72c-3.87 0-6.48-.91-8-2.8a6.7 6.7 0 0 1 -1.38-4.09 7.08 7.08 0 0 1 2.53-5.41c.26-.22.51-.42.77-.61-.16-.72-.33-1.49-.52-2.46-.07-.34-.11-.51-.14-.62a3.07 3.07 0 0 1 .24-2.56 3 3 0 0 1 2.14-1.45l2.58-.4h.46a3 3 0 0 1 1.89.66 3 3 0 0 1 1.11 2.16 12 12 0 0 0 .19 1.4l1.36-.43h.09a3 3 0 0 1 1.27-.28 3 3 0 0 1 1.19.24 3 3 0 0 1 1.66 1.82l.84 2.54a3 3 0 0 1 -1.47 3.6l.23.14a3 3 0 0 1 1.34 2.28l.2 2.72a3 3 0 0 1 -2.85 3.22c-.22 0-.31 0-.65.06l-.58.06a42.47 42.47 0 0 1 -4.5.21z"/><path d="m172.2 21.38a3 3 0 0 1 -3-2.81 35 35 0 0 0 -.81-4.12c-.08-.32-.15-.62-.22-.91a3 3 0 0 1 -2-.12 3 3 0 0 1 -1.68-1.83l-.75-2.32a3 3 0 0 1 .26-2.46 3 3 0 0 1 1.72-1.34 3 3 0 0 1 2-4l2.49-.69a3.07 3.07 0 0 1 2.22.26 3 3 0 0 1 2.08-.83h2.49a3 3 0 0 1 3 2.89 6.36 6.36 0 0 1 4.76 6.27c0 4-3 6.89-7.22 7.08a.83.83 0 0 1 0 .12 3 3 0 0 1 -.08 2.53 3 3 0 0 1 -2 1.57l-2.66.62a3.08 3.08 0 0 1 -.6.09z"/><path d="m188.79 20.81c-5.14 0-7-3.14-7-5.82a5.55 5.55 0 0 1 .73-2.77 3 3 0 0 1 -.48-1.65v-1.67a3 3 0 0 1 -.54-1.77v-2.22a3 3 0 0 1 1.18-2.34 3 3 0 0 1 1.89-.57 2.64 2.64 0 0 1 .74.1 13 13 0 0 0 2.07.23 3.13 3.13 0 0 1 .55-.93 3 3 0 0 1 2.27-1h2.52a3 3 0 0 1 2.33 1.11 2.85 2.85 0 0 1 .33.52 10.82 10.82 0 0 0 1.24-.25 3.22 3.22 0 0 1 .75-.1 3 3 0 0 1 3 2.91l.07 2.19a2.93 2.93 0 0 1 -.44 1.6l.06 1.77a3 3 0 0 1 -.85 2.18l.24.14a3 3 0 0 1 1 4.1l-1.35 2.3a3 3 0 0 1 -2.27 1.47h-.31a3 3 0 0 1 -2.22-1l-.26-.27a7.37 7.37 0 0 1 -5.25 1.74z"/></g><path d="m3 17.91a18 18 0 0 0 .1-2.36v-9.88a15 15 0 0 0 -.1-2.23h2.72a15 15 0 0 0 -.1 2.23v2.54a40.19 40.19 0 0 1 7.6 3.5l-1.37 2.41a37.64 37.64 0 0 0 -5.59-3 5.59 5.59 0 0 1 -.64-.3v4.81a20 20 0 0 0 .1 2.32zm7.36-13.44a9.87 9.87 0 0 1 1.49 2.39l-1.45.72a12 12 0 0 0 -1.49-2.48zm1.94-.9a11.18 11.18 0 0 1 1.52 2.3l-1.46.72a12.48 12.48 0 0 0 -1.46-2.37z" fill="#231815"/><path d="m21.63 3.74a17.6 17.6 0 0 0 -.1 2.26v3.28c0 1 0 1.85.08 2.3h-2.74a19.65 19.65 0 0 0 .13-2.34v-3.24a17.33 17.33 0 0 0 -.08-2.27zm7.64 0a18.59 18.59 0 0 0 -.08 2.26v1.74a18.4 18.4 0 0 1 -.34 4.81 6.62 6.62 0 0 1 -3.43 4.21 14.22 14.22 0 0 1 -3.36 1.32 6.33 6.33 0 0 0 -1.43-2.39 11.43 11.43 0 0 0 3.25-1.07 4.3 4.3 0 0 0 2.55-3.34 25.82 25.82 0 0 0 .19-3.69v-1.59a15.59 15.59 0 0 0 -.1-2.26z" fill="#231815"/><path d="m33.51 9.26a21 21 0 0 0 3.05.13h8.44a22.35 22.35 0 0 0 3.06-.11v2.72c-.67 0-1.77-.09-3.08-.09h-8.42c-1.45 0-2.4 0-3.05.1z" fill="#231815"/><path d="m58.31 4a6 6 0 0 0 -.43 1.22c-1.1 3.67-2.17 6.83-3.21 9.37a61.07 61.07 0 0 0 6.38-.75c-.17-.37-.33-.71-.69-1.39a20.21 20.21 0 0 0 -1.55-2.69l2.26-.87a37.46 37.46 0 0 1 4 7.85l-2.43 1.25a14.15 14.15 0 0 0 -.71-2 93.06 93.06 0 0 1 -9.93 1.25 8.31 8.31 0 0 0 -1.58.22l-.35-2.69h.45 1.42a86.07 86.07 0 0 0 2.82-8.25 18.15 18.15 0 0 0 .7-3.07z" fill="#231815"/><path d="m79.56 17.91a29.67 29.67 0 0 0 -5-4.86 19.2 19.2 0 0 1 -6.23 4.66 7.49 7.49 0 0 0 -1.6-2.22 15.19 15.19 0 0 0 3.71-2 15.41 15.41 0 0 0 4.37-4.82c.22-.37.5-1 .89-1.82l-4.88.08a14.8 14.8 0 0 0 -2.3.07v-2.54a11.78 11.78 0 0 0 2 .1h.31l5.7-.1c.92 0 1 0 1.4-.2l1.29 1.34a2.66 2.66 0 0 0 -.56.93 21.63 21.63 0 0 1 -2.52 4.54 37.63 37.63 0 0 1 5.43 4.63z" fill="#231815"/><path d="m91.26 3.55a7 7 0 0 0 -.44.85c-.15.3-.2.42-.36.72h4.4a3 3 0 0 0 1.26-.22l1.3 1.29c-.24.26-.25.3-.54 1.13a18.69 18.69 0 0 1 -4.15 7.31 18 18 0 0 1 -5.66 3.84 7.15 7.15 0 0 0 -1.65-2.1 18.89 18.89 0 0 0 3.18-1.55 12.1 12.1 0 0 0 2.64-2.17 18.08 18.08 0 0 0 -3.24-2.27l1.52-1.79a23.23 23.23 0 0 1 3.2 2.07 13.83 13.83 0 0 0 1.64-3.47h-4.89a18 18 0 0 1 -3.86 4.47 6.38 6.38 0 0 0 -2-1.58 14.84 14.84 0 0 0 4.18-4.79 9.65 9.65 0 0 0 .91-2.29z" fill="#231815"/><path d="m101.87 7.81a23.23 23.23 0 0 1 4.54 2.3l-1.22 2.24a19.37 19.37 0 0 0 -4.64-2.52zm-.87 7.39a14.69 14.69 0 0 0 5-1.1 10 10 0 0 0 4.75-3.64 12.51 12.51 0 0 0 1.9-3.69 8.9 8.9 0 0 0 2.08 1.79 14.62 14.62 0 0 1 -2.55 4.27c-2.22 2.56-5 4-9.26 4.78-.52.1-.84.18-1.19.28zm2.17-11.46a26.67 26.67 0 0 1 4.61 2.17l-1.27 2.18a20 20 0 0 0 -4.61-2.33zm9 .21a8.87 8.87 0 0 1 1.39 2.26l-1.44.68a10 10 0 0 0 -1.37-2.32zm1.83-.83a9.39 9.39 0 0 1 1.39 2.17l-1.39.71a12.25 12.25 0 0 0 -1.35-2.25z" fill="#231815"/><path d="m131.7 5.59a2.52 2.52 0 0 0 -.49.82 10.9 10.9 0 0 1 -4.72 5.32 6.56 6.56 0 0 0 -1.75-1.7 9 9 0 0 1 -1 4.07c-1 1.75-2.39 2.94-5 4a7 7 0 0 0 -1.58-2.29 7.35 7.35 0 0 0 3.89-2.4c.83-1 1.13-2.3 1.13-4.62a5.28 5.28 0 0 0 -.08-1.12h2.68a10.12 10.12 0 0 0 -.08 1.42v.78a7.19 7.19 0 0 0 3.69-3.37h-8.26c-1 0-1.82 0-2.57.1v-2.46a16.44 16.44 0 0 0 2.6.13h8.62a3.59 3.59 0 0 0 1.53-.17z" fill="#231815"/><path d="m141.76 4a6 6 0 0 0 -.43 1.22c-1.1 3.67-2.17 6.83-3.21 9.37a61.07 61.07 0 0 0 6.38-.75c-.17-.37-.33-.71-.69-1.39a20.21 20.21 0 0 0 -1.55-2.69l2.26-.87a37.94 37.94 0 0 1 4 7.85l-2.43 1.25a14.15 14.15 0 0 0 -.71-2 93.06 93.06 0 0 1 -9.93 1.27 8.31 8.31 0 0 0 -1.58.22l-.35-2.69h.45 1.41a83.32 83.32 0 0 0 2.83-8.25 18.15 18.15 0 0 0 .7-3.07z" fill="#231815"/><path d="m156.68 3.29a28.4 28.4 0 0 0 1 5.09c.92-.34 1.62-.55 4.22-1.37a4.15 4.15 0 0 0 .67-.25l.84 2.53a34.82 34.82 0 0 0 -5.75 1.57c-2.28.85-3.45 1.82-3.45 2.89s1.1 1.59 3.57 1.59a19.41 19.41 0 0 0 5.59-.74l.2 2.72c-.36 0-.45 0-1.4.14a41.25 41.25 0 0 1 -4.19.26c-2.89 0-4.74-.55-5.62-1.66a3.64 3.64 0 0 1 -.74-2.23 4.06 4.06 0 0 1 1.49-3.13 9.63 9.63 0 0 1 2.3-1.46 45.36 45.36 0 0 1 -1.07-4.47 5.82 5.82 0 0 0 -.27-1.08z" fill="#231815"/><path d="m171 3.69a13.86 13.86 0 0 0 .55 2c.12.35.17.55.35 1.15 1.47-.4 2-.54 2.74-.67 0-.35 0-.35 0-1.25a8 8 0 0 0 -.11-1.67h2.47a12.76 12.76 0 0 0 -.1 2.62h.87c2.4 0 4 1.41 4 3.57 0 2.4-1.91 4.09-4.65 4.09a9 9 0 0 1 -2.53-.4 8.09 8.09 0 0 0 -.35-2.41 6.75 6.75 0 0 0 2.57.57c1.48 0 2.45-.7 2.45-1.77s-.71-1.52-2.05-1.52a17.36 17.36 0 0 0 -4.71 1l.34 1.2c.7 2.56.88 3.27 1.73 6.8a5.33 5.33 0 0 0 .29.85l-2.66.62a33.2 33.2 0 0 0 -.88-4.61c-.27-1.17-.49-2-.87-3.34-.1-.37-.18-.67-.23-.87a28.87 28.87 0 0 0 -2.89 1.1l-.75-2.32a7 7 0 0 0 .8-.18c1.13-.37 2.09-.67 2.24-.7a16.13 16.13 0 0 0 -1.11-3.09z" fill="#231815"/><path d="m196.51 17.39a7.16 7.16 0 0 0 -.79-.77 12.59 12.59 0 0 0 -3-1.92v.27c0 1.92-1.27 2.84-3.94 2.84s-4-1-4-2.82 1.79-3 4.76-3h.83v-1.33h-1.47c-1.09 0-1.65 0-3.17-.1h-.67v-2.14a21.64 21.64 0 0 0 3.87.27h1.39v-1-.36h-.89c-.63 0-2.05 0-4.22-.17h-.68v-2.22a21.34 21.34 0 0 0 4.57.37h1.16a10.69 10.69 0 0 0 -.1-2h2.52a8.94 8.94 0 0 0 -.14 1.89 23.76 23.76 0 0 0 4.79-.61l.07 2.19a12.7 12.7 0 0 0 -1.39.15c-1.3.17-2.35.27-3.48.32v1.37a23.45 23.45 0 0 0 4.47-.56l.07 2.19a1.79 1.79 0 0 0 -.35 0 2.8 2.8 0 0 1 -.29 0l-1.23.13c-.8.08-1.89.17-2.55.2v1.74a14.8 14.8 0 0 1 4.57 2.32c.27.18.37.25.62.4zm-7.3-3.39c-1.17 0-1.89.37-1.89 1s.59.83 1.57.83c1.14 0 1.56-.35 1.56-1.31 0-.14 0-.34 0-.34a4.74 4.74 0 0 0 -1.24-.18z" fill="#231815"/></svg>