<svg viewBox="0 0 54.97 21.78" xmlns="http://www.w3.org/2000/svg"><path d="m8.69 14.4a19.78 19.78 0 0 1 -4.61 3.6 6.8 6.8 0 0 0 -1.08-1.88 15.59 15.59 0 0 0 4.16-2.8c-.64.1-.64.1-2.87.4a5.84 5.84 0 0 0 -.92.15l-.22-2a3.27 3.27 0 0 0 .4 0 5.68 5.68 0 0 0 .65 0v-5.55a9.82 9.82 0 0 0 -.1-1.73 10.27 10.27 0 0 0 1.45.08h.59a6.4 6.4 0 0 0 .58-1.67l2.21.27-.22.47s-.1.2-.2.43a5.44 5.44 0 0 1 -.22.5h1.05a8.93 8.93 0 0 0 1.37-.08 14.1 14.1 0 0 0 -.08 1.63v3l1.17.78a1.9 1.9 0 0 0 -.27.43c-.17.29-.6 1-.9 1.47v4.84c0 1.49-.44 1.82-2.39 1.82-.43 0-.68 0-1.22-.05a4.81 4.81 0 0 0 -.48-2 15.48 15.48 0 0 0 1.73.11c.34 0 .42-.05.42-.26zm0-8.11h-2.58v.71h2.58zm-2.58 3h2.58v-.76h-2.58zm0 2.42c1.21-.1 1.21-.1 2.58-.28v-.63h-2.58zm9-6.21c0-.78 0-1.35-.1-2.1h2.32a18 18 0 0 0 -.1 2.12v1a8.44 8.44 0 0 0 1.46-.1v2.14a9.09 9.09 0 0 0 -1.46-.08v8c0 1.77-.5 2.14-2.88 2.14-.5 0-.88 0-1.36-.05a6.53 6.53 0 0 0 -.51-2.14 13.28 13.28 0 0 0 1.69.14c.77 0 .94-.09.94-.42v-7.67h-2.23a16.5 16.5 0 0 0 -1.8.1v-2.17a14 14 0 0 0 1.79.1h2.22zm-2.11 9.17a14.08 14.08 0 0 0 -1.66-3.89l1.72-.85a15.32 15.32 0 0 1 1.81 3.75z"/><path d="m26.27 8.18a9.54 9.54 0 0 0 -.35 1.13 16.17 16.17 0 0 1 -2 4.82 12.76 12.76 0 0 1 -2.62 3 9.91 9.91 0 0 0 -1.74-1.8 10.83 10.83 0 0 0 2.31-2.27 10.12 10.12 0 0 0 1.9-3.94h-1.89a11.46 11.46 0 0 0 -1.71.1v-2.3a9.72 9.72 0 0 0 1.83.08h1.73a7.35 7.35 0 0 0 1.44-.08zm8.43-1c-.35.38-.39.42-.92 1a24.84 24.84 0 0 1 -2.91 2.82 13.27 13.27 0 0 0 4.63 4 9.94 9.94 0 0 0 -1.57 2.22 14.43 14.43 0 0 1 -2.64-2.22 15.56 15.56 0 0 1 -2.6-4.17c0 1.39.06 2.17.06 2.35v3.54a1.78 1.78 0 0 1 -.45 1.47 2.72 2.72 0 0 1 -1.77.44c-.68 0-1.55 0-2.24-.09a5.81 5.81 0 0 0 -.55-2.24 18.16 18.16 0 0 0 2.17.19c.5 0 .6-.07.6-.39v-10.95a11.11 11.11 0 0 0 -.11-1.78h2.47a10.18 10.18 0 0 0 -.12 1.8v1.2a9.77 9.77 0 0 0 1 2.74 11.89 11.89 0 0 0 2.9-3.51z"/><path d="m43 4.39a6.18 6.18 0 0 0 -.1-1.16h2.45a5.76 5.76 0 0 0 -.1 1.14v.73h4.51a19.17 19.17 0 0 0 2.24-.1v2.19a17 17 0 0 0 -2.14-.08h-11c-.78 0-1.45 0-2.15.08v-2.19a20.38 20.38 0 0 0 2.2.1h4.09zm0 4.24a9.14 9.14 0 0 0 -.07-1.16h2.37a5.77 5.77 0 0 0 -.07 1.16v.18h3.87a15 15 0 0 0 1.67-.07 12.36 12.36 0 0 0 -.07 1.47v4.84c0 1.72-.51 2.16-2.6 2.16-.39 0-.74 0-1.44-.07a6.93 6.93 0 0 0 -.51-2.1 13.25 13.25 0 0 0 1.51.15c.71 0 .86-.1.86-.54v-3.89h-3.28v5.86a17.09 17.09 0 0 0 .12 2.16h-2.47a17.79 17.79 0 0 0 .11-2.14v-5.88h-3v4.56a16.44 16.44 0 0 0 .08 2.05h-2.4c.06-.65.1-1.25.1-2v-5.16a13.93 13.93 0 0 0 -.07-1.47c.55 0 1 .07 1.78.07h3.51z"/><g fill="#fff"><path d="m14.33 21.66c-.57 0-1 0-1.57-.06a2.92 2.92 0 0 1 -1.53-.55 7.3 7.3 0 0 1 -3 .54c-.48 0-.77 0-1.35-.05a3.1 3.1 0 0 1 -1.79-.72 3.21 3.21 0 0 1 -1 .17 3.14 3.14 0 0 1 -1-.15 3 3 0 0 1 -1.81-1.7 3.94 3.94 0 0 0 -.62-1.14 3 3 0 0 1 -.21-3.45c0-.12 0-.24-.07-.36l-.21-2a3 3 0 0 1 .83-2.41l.2-.18v-3.28a8.29 8.29 0 0 0 -.07-1.32 3 3 0 0 1 .87-2.54 3 3 0 0 1 2.09-.87 3 3 0 0 1 2.63-1.59h.36l2.21.29a3 3 0 0 1 2.18 1.39 2.87 2.87 0 0 1 .84.37 3.07 3.07 0 0 1 .46-.67 3 3 0 0 1 2.23-.98h2.32a3 3 0 0 1 3 3.31v.16a2.35 2.35 0 0 1 .32.23 3 3 0 0 1 1.08 2.31v2.15a3 3 0 0 1 -1 2.26 3.28 3.28 0 0 1 -.44.32v5.38c-.07 5.14-4.34 5.14-5.95 5.14z"/><path d="m26.55 21.58c-.75 0-1.69 0-2.46-.1a3 3 0 0 1 -2.29-1.36 2.47 2.47 0 0 1 -.54.05h-.26a3 3 0 0 1 -2.13-1.17 6.82 6.82 0 0 0 -1.22-1.28 3 3 0 0 1 -1.13-2.39 3 3 0 0 1 1.2-2.33 9 9 0 0 0 1.15-1 3 3 0 0 1 -1.7-2.7v-2.38a3 3 0 0 1 3-3 3.17 3.17 0 0 1 .53.08 8.73 8.73 0 0 0 1.3 0h1.45a1.11 1.11 0 0 1 0-.17 3 3 0 0 1 3-3.48h2.47a3 3 0 0 1 2.28 1 3.11 3.11 0 0 1 .65 1.31h.15a2.72 2.72 0 0 1 .69-.09 3 3 0 0 1 1.81.61l2 1.54a2.92 2.92 0 0 1 1.18 2.11 3 3 0 0 1 -.77 2.3l-.08.09-.78.89c-.3.34-.61.68-.95 1a9.29 9.29 0 0 0 1.8 1.21 3 3 0 0 1 .82 4.68 7 7 0 0 0 -1.2 1.7 3 3 0 0 1 -2 1.43 2.7 2.7 0 0 1 -.63.07 3 3 0 0 1 -1.74-.56c-.32-.22-.61-.44-.87-.64a4.15 4.15 0 0 1 -1 1.33 5.43 5.43 0 0 1 -3.73 1.25z"/><path d="m42.89 21.78a3 3 0 0 1 -2.24-1 2 2 0 0 1 -.3-.41h-2.63a3 3 0 0 1 -2.23-1 3 3 0 0 1 -.76-2.31 16 16 0 0 0 .09-1.73v-5.12c0-.25 0-.46 0-.65l-.2-.17a3 3 0 0 1 -1-2.2v-2.19a3 3 0 0 1 3-3h.28c.58 0 1.08.08 1.92.08h1.26a3.59 3.59 0 0 1 .44-.75 3 3 0 0 1 2.39-1.1h2.45a3 3 0 0 1 2.31 1.09 2.85 2.85 0 0 1 .47.78h1.63a17.89 17.89 0 0 0 1.9-.1h.33a3 3 0 0 1 3 3v2.19a3 3 0 0 1 -1 2.23 1.71 1.71 0 0 1 -.26.21v.58 4.84c0 3.42-1.88 5.16-5.6 5.16h-.14a3.44 3.44 0 0 1 -.39.55 3 3 0 0 1 -2.25 1z"/></g><path d="m8.69 14.4a19.78 19.78 0 0 1 -4.61 3.6 6.8 6.8 0 0 0 -1.08-1.88 15.59 15.59 0 0 0 4.16-2.8c-.64.1-.64.1-2.87.4a5.84 5.84 0 0 0 -.92.15l-.22-2a3.27 3.27 0 0 0 .4 0 5.68 5.68 0 0 0 .65 0v-5.55a9.82 9.82 0 0 0 -.1-1.73 10.27 10.27 0 0 0 1.45.08h.59a6.4 6.4 0 0 0 .58-1.67l2.21.27-.22.47s-.1.2-.2.43a5.44 5.44 0 0 1 -.22.5h1.05a8.93 8.93 0 0 0 1.37-.08 14.1 14.1 0 0 0 -.08 1.63v3l1.17.78a1.9 1.9 0 0 0 -.27.43c-.17.29-.6 1-.9 1.47v4.84c0 1.49-.44 1.82-2.39 1.82-.43 0-.68 0-1.22-.05a4.81 4.81 0 0 0 -.48-2 15.48 15.48 0 0 0 1.73.11c.34 0 .42-.05.42-.26zm0-8.11h-2.58v.71h2.58zm-2.58 3h2.58v-.76h-2.58zm0 2.42c1.21-.1 1.21-.1 2.58-.28v-.63h-2.58zm9-6.21c0-.78 0-1.35-.1-2.1h2.32a18 18 0 0 0 -.1 2.12v1a8.44 8.44 0 0 0 1.46-.1v2.14a9.09 9.09 0 0 0 -1.46-.08v8c0 1.77-.5 2.14-2.88 2.14-.5 0-.88 0-1.36-.05a6.53 6.53 0 0 0 -.51-2.14 13.28 13.28 0 0 0 1.69.14c.77 0 .94-.09.94-.42v-7.67h-2.23a16.5 16.5 0 0 0 -1.8.1v-2.17a14 14 0 0 0 1.79.1h2.22zm-2.11 9.17a14.08 14.08 0 0 0 -1.66-3.89l1.72-.85a15.32 15.32 0 0 1 1.81 3.75z" fill="#231815"/><path d="m26.27 8.18a9.54 9.54 0 0 0 -.35 1.13 16.17 16.17 0 0 1 -2 4.82 12.76 12.76 0 0 1 -2.62 3 9.91 9.91 0 0 0 -1.74-1.8 10.83 10.83 0 0 0 2.31-2.27 10.12 10.12 0 0 0 1.9-3.94h-1.89a11.46 11.46 0 0 0 -1.71.1v-2.3a9.72 9.72 0 0 0 1.83.08h1.73a7.35 7.35 0 0 0 1.44-.08zm8.43-1c-.35.38-.39.42-.92 1a24.84 24.84 0 0 1 -2.91 2.82 13.27 13.27 0 0 0 4.63 4 9.94 9.94 0 0 0 -1.57 2.22 14.43 14.43 0 0 1 -2.64-2.22 15.56 15.56 0 0 1 -2.6-4.17c0 1.39.06 2.17.06 2.35v3.54a1.78 1.78 0 0 1 -.45 1.47 2.72 2.72 0 0 1 -1.77.44c-.68 0-1.55 0-2.24-.09a5.81 5.81 0 0 0 -.55-2.24 18.16 18.16 0 0 0 2.17.19c.5 0 .6-.07.6-.39v-10.95a11.11 11.11 0 0 0 -.11-1.78h2.47a10.18 10.18 0 0 0 -.12 1.8v1.2a9.77 9.77 0 0 0 1 2.74 11.89 11.89 0 0 0 2.9-3.51z" fill="#231815"/><path d="m43 4.39a6.18 6.18 0 0 0 -.1-1.16h2.45a5.76 5.76 0 0 0 -.1 1.14v.73h4.51a19.17 19.17 0 0 0 2.24-.1v2.19a17 17 0 0 0 -2.14-.08h-11c-.78 0-1.45 0-2.15.08v-2.19a20.38 20.38 0 0 0 2.2.1h4.09zm0 4.24a9.14 9.14 0 0 0 -.07-1.16h2.37a5.77 5.77 0 0 0 -.07 1.16v.18h3.87a15 15 0 0 0 1.67-.07 12.36 12.36 0 0 0 -.07 1.47v4.84c0 1.72-.51 2.16-2.6 2.16-.39 0-.74 0-1.44-.07a6.93 6.93 0 0 0 -.51-2.1 13.25 13.25 0 0 0 1.51.15c.71 0 .86-.1.86-.54v-3.89h-3.28v5.86a17.09 17.09 0 0 0 .12 2.16h-2.47a17.79 17.79 0 0 0 .11-2.14v-5.88h-3v4.56a16.44 16.44 0 0 0 .08 2.05h-2.4c.06-.65.1-1.25.1-2v-5.16a13.93 13.93 0 0 0 -.07-1.47c.55 0 1 .07 1.78.07h3.51z" fill="#231815"/></svg>