<svg viewBox="0 0 54.97 21.79" xmlns="http://www.w3.org/2000/svg"><path d="m4.25 7.36a18 18 0 0 1 3.06 2.07l-1.24 1.82a17.72 17.72 0 0 0 -3.07-2.25zm3.12 5.86a31.32 31.32 0 0 1 -1.77 4.25c-.08.19-.33.62-.68 1.22l-1.92-1.62a16.48 16.48 0 0 0 2.59-5.07zm-2.45-10.02a17.31 17.31 0 0 1 3 2.19l-1.36 1.75a15.21 15.21 0 0 0 -3-2.34zm8.33 14c-1.92.53-3 .82-4.62 1.15l-.87.17a4.13 4.13 0 0 0 -.65.15l-.4-2.27h.16a9.32 9.32 0 0 0 1.42-.17v-9.88a14.36 14.36 0 0 0 -.08-1.61 14.52 14.52 0 0 0 1.68.06h1.84v-.3a5.25 5.25 0 0 0 -.12-1.25h2.39a7.26 7.26 0 0 0 -.1 1.25v.3h2a14.91 14.91 0 0 0 1.7-.06 13.32 13.32 0 0 0 -.08 1.7v4a13.92 13.92 0 0 0 .07 1.65h-.77l1.45 1.06a18 18 0 0 1 -2.4 2 8.91 8.91 0 0 0 3.05 1.52 8.31 8.31 0 0 0 -1.28 2.2 10.34 10.34 0 0 1 -4.36-3.25zm2.14-9.67v-1h-5v1zm-5 2.74h5v-1h-5zm0 5.59a24.27 24.27 0 0 0 2.61-.66 8.78 8.78 0 0 1 -1.44-3.14h-1.13zm3.29-3.84a5.52 5.52 0 0 0 .8 1.64 7.77 7.77 0 0 0 1.82-1.64z"/><path d="m23.73 4.18a5.54 5.54 0 0 0 -.07-.9h2.26a5.06 5.06 0 0 0 -.07.9v.39h3.15v-.39a5.37 5.37 0 0 0 -.07-.9h2.26a4.22 4.22 0 0 0 -.07.9v.39h2a14.66 14.66 0 0 0 2-.1v2.22a14.45 14.45 0 0 0 -2-.08h-2v.39a5.39 5.39 0 0 0 .05.82h-2.17a5.51 5.51 0 0 0 0-.73v-.48h-3.15v.39a5.82 5.82 0 0 0 0 .83h-1.7l1.5.59a3.69 3.69 0 0 0 -.3.55 13.51 13.51 0 0 1 -.74 1.33v6.5c0 .67 0 1.26.1 1.89h-2.38a14.17 14.17 0 0 0 .1-1.87v-2.14c0-.46 0-1 0-1.76-.12.13-.22.23-.27.3a9.17 9.17 0 0 1 -1.53 1.35c-.12-.25-.12-.25-.42-.94a7 7 0 0 0 -.7-1.15 10 10 0 0 0 4-4.89l.17.07c0-.24 0-.42 0-.64v-.41h-1.68a14.45 14.45 0 0 0 -2 .08v-2.22a15.44 15.44 0 0 0 2 .1h1.74zm5.73 11.82c0 .37.26.45 1.6.45a9.2 9.2 0 0 0 1.42-.1c.31-.1.43-.28.51-.87a14.56 14.56 0 0 0 .14-1.93 6.86 6.86 0 0 0 2.1.78c-.18 2.15-.28 2.67-.58 3.16-.49.76-1.34.95-4.23.95-2.67 0-3.17-.29-3.17-1.87v-6.78a12.27 12.27 0 0 0 -.08-1.79h2.37a13 13 0 0 0 -.08 1.7v1.45a13.42 13.42 0 0 0 3.65-2.52l1.67 1.6c-.23.15-.23.15-.83.59a25.52 25.52 0 0 1 -4.49 2.59z"/><path d="m42.29 7.19c.5 0 .78 0 1.22-.05v1.67 3.79 1.72c-.45 0-.78 0-1.68 0h-2.83c-.73 0-1.13 0-1.68 0 0-.45 0-.72 0-1.57v-4a7.1 7.1 0 0 0 -1.14-1.11 10.05 10.05 0 0 0 2.39-4.64l2.07.3-.14.37a4.79 4.79 0 0 0 -.16.46h1.38a3 3 0 0 0 .79-.06l.71.9a3.78 3.78 0 0 0 -.28.53c-.38.74-.7 1.27-1 1.69zm-3.37 7.81a12.22 12.22 0 0 1 -1.14 3.77l-1.5-1.15a8.16 8.16 0 0 0 1.13-3.19zm1.15-7.83a5.77 5.77 0 0 0 .63-1.27h-1.1c-.2.45-.4.85-.63 1.27zm-1.07 2.71h.75v-1h-.75zm0 2.7h.75v-1.12h-.75zm1.25 2.22a22.14 22.14 0 0 1 .47 3.46l-1.49.28a21.18 21.18 0 0 0 -.23-3.54zm1.57-.13a20 20 0 0 1 .72 3.14l-1.34.33a18.42 18.42 0 0 0 -.58-3.22zm-.65-4.79h.77v-1h-.77zm0 2.7h.77v-1.12h-.77zm2.15 1.92a18.3 18.3 0 0 1 .89 2.61l-1.21.41a14.62 14.62 0 0 0 -.79-2.67zm2.92-7c0 .41.17.5.95.5 1.74 0 2.31 0 2.51-.2s.28-.57.3-1.64a6.34 6.34 0 0 0 2 .7c0 1.44-.25 2.12-.67 2.49s-1.26.5-3.6.5c-3.06 0-3.61-.27-3.61-1.69v-3.41a11.61 11.61 0 0 0 -.12-1.5h2.27a10.16 10.16 0 0 0 -.07 1.39v.36a13.08 13.08 0 0 0 4.14-1.51l1.42 1.77c-.93.35-1.57.57-1.92.69a36.34 36.34 0 0 1 -3.64.92zm-2 4.57a12 12 0 0 0 -.07-1.49 15.41 15.41 0 0 0 1.57.06h4.11a13.89 13.89 0 0 0 1.53-.06 12.1 12.1 0 0 0 -.06 1.47v4.95a9.27 9.27 0 0 0 .1 1.72h-2.15v-.72h-3.09v.72h-2a11.87 11.87 0 0 0 .03-1.72zm2 1.29h3.09v-1h-3.15zm0 2.83h3.09v-1.14h-3.15z"/><g fill="#fff"><path d="m17.61 21.79a3.07 3.07 0 0 1 -1.26-.27 19.28 19.28 0 0 1 -2.46-1.34c-2 .54-3.1.82-4.65 1.15l-.92.17-.44.11a3.46 3.46 0 0 1 -.77.1 2.9 2.9 0 0 1 -1.11-.22 2.67 2.67 0 0 1 -.57.16 2.81 2.81 0 0 1 -.5 0 3 3 0 0 1 -1.93-.65l-1.92-1.65a3 3 0 0 1 -.3-4.26 11.5 11.5 0 0 0 1.55-3l-.87-.56a3 3 0 0 1 -.84-4.36l.48-.63a3 3 0 0 1 .17-3.69l1.37-1.6a3 3 0 0 1 2.28-1.05 2.93 2.93 0 0 1 1.51.41 19.91 19.91 0 0 1 1.75 1.13 2.11 2.11 0 0 1 .35 0h.43a3.71 3.71 0 0 1 .28-.41 3 3 0 0 1 2.37-1.08h2.39a3 3 0 0 1 2.3 1.09 3.58 3.58 0 0 1 .31.45 4.86 4.86 0 0 0 .63 0h.33a3 3 0 0 1 3 3.44 11.69 11.69 0 0 0 -.05 1.26v4 .68a3 3 0 0 1 .74 1.8 3.1 3.1 0 0 1 -.26 1.44 2.87 2.87 0 0 1 .8 1.27 3 3 0 0 1 -.49 2.75 5.3 5.3 0 0 0 -.9 1.56 3 3 0 0 1 -1.68 1.6 2.86 2.86 0 0 1 -1.12.2z"/><path d="m22.33 21.69a3 3 0 0 1 -3-3.35 7.78 7.78 0 0 0 .07-1 2.94 2.94 0 0 1 -1.48-1.47c-.13-.26-.13-.26-.45-1a4.93 4.93 0 0 0 -.41-.64 3 3 0 0 1 .94-4.3 6.05 6.05 0 0 0 .74-.54 3.06 3.06 0 0 1 -1.74-2.7v-2.22a3 3 0 0 1 3-3 2 2 0 0 1 .34 0c.27 0 .53.05.86.06l.17-.22a3 3 0 0 1 2.28-1h2.26a3 3 0 0 1 1.53.39 3 3 0 0 1 1.56-.42h2.26a3 3 0 0 1 2.3 1.09 1.25 1.25 0 0 1 .15.19 9.45 9.45 0 0 0 1.09-.07h.36a3 3 0 0 1 2 .75 3 3 0 0 1 1 2.25v2.2a3 3 0 0 1 -.78 2 3 3 0 0 1 .42 1.83 3.11 3.11 0 0 1 -.6 1.53 3 3 0 0 1 1 2.55c-.19 2.21-.31 3.33-1 4.48-1.5 2.37-4.18 2.37-6.78 2.37a9.3 9.3 0 0 1 -3.67-.56 3 3 0 0 1 -2 .79z"/><path d="m37.78 21.79a3 3 0 0 1 -1.78-.62l-1.54-1.17a3 3 0 0 1 -.74-3.94 4.71 4.71 0 0 0 .63-1.61c0-.13 0-.25 0-.38 0-.38 0-.61 0-1.34v-2.73a3 3 0 0 1 -.35-4.32 7.09 7.09 0 0 0 1.65-3.25 3 3 0 0 1 2.91-2.43 3.25 3.25 0 0 1 .44 0l2.07.3a3 3 0 0 1 1.22.46 3 3 0 0 1 1.71-.51h2.27a3 3 0 0 1 2.14.9l.22-.15a3.08 3.08 0 0 1 1.72-.5 3 3 0 0 1 2.34 1.11l1.42 1.77a3 3 0 0 1 .63 2.33 3 3 0 0 1 .26 1.29 8.12 8.12 0 0 1 -.64 3.25 2.81 2.81 0 0 1 0 .71 9.44 9.44 0 0 0 0 1.12v4.92a6.66 6.66 0 0 0 .06 1.24 3 3 0 0 1 -.68 2.43 3 3 0 0 1 -2.28 1.05h-2.19a2.91 2.91 0 0 1 -1.55-.43 2.9 2.9 0 0 1 -1.54.43h-2a3 3 0 0 1 -2-.71l-.28.07-.27.06a2.34 2.34 0 0 1 -.38.09l-1.49.29a3.43 3.43 0 0 1 -.56.05h-.2a2.55 2.55 0 0 1 -.53.18 3.25 3.25 0 0 1 -.69.04z"/></g><path d="m4.25 7.36a18 18 0 0 1 3.06 2.07l-1.24 1.82a17.72 17.72 0 0 0 -3.07-2.25zm3.12 5.86a31.32 31.32 0 0 1 -1.77 4.25c-.08.19-.33.62-.68 1.22l-1.92-1.62a16.48 16.48 0 0 0 2.59-5.07zm-2.45-10.02a17.31 17.31 0 0 1 3 2.19l-1.36 1.75a15.21 15.21 0 0 0 -3-2.34zm8.33 14c-1.92.53-3 .82-4.62 1.15l-.87.17a4.13 4.13 0 0 0 -.65.15l-.4-2.27h.16a9.32 9.32 0 0 0 1.42-.17v-9.88a14.36 14.36 0 0 0 -.08-1.61 14.52 14.52 0 0 0 1.68.06h1.84v-.3a5.25 5.25 0 0 0 -.12-1.25h2.39a7.26 7.26 0 0 0 -.1 1.25v.3h2a14.91 14.91 0 0 0 1.7-.06 13.32 13.32 0 0 0 -.08 1.7v4a13.92 13.92 0 0 0 .07 1.65h-.77l1.45 1.06a18 18 0 0 1 -2.4 2 8.91 8.91 0 0 0 3.05 1.52 8.31 8.31 0 0 0 -1.28 2.2 10.34 10.34 0 0 1 -4.36-3.25zm2.14-9.67v-1h-5v1zm-5 2.74h5v-1h-5zm0 5.59a24.27 24.27 0 0 0 2.61-.66 8.78 8.78 0 0 1 -1.44-3.14h-1.13zm3.29-3.84a5.52 5.52 0 0 0 .8 1.64 7.77 7.77 0 0 0 1.82-1.64z" fill="#231815"/><path d="m23.73 4.18a5.54 5.54 0 0 0 -.07-.9h2.26a5.06 5.06 0 0 0 -.07.9v.39h3.15v-.39a5.37 5.37 0 0 0 -.07-.9h2.26a4.22 4.22 0 0 0 -.07.9v.39h2a14.66 14.66 0 0 0 2-.1v2.22a14.45 14.45 0 0 0 -2-.08h-2v.39a5.39 5.39 0 0 0 .05.82h-2.17a5.51 5.51 0 0 0 0-.73v-.48h-3.15v.39a5.82 5.82 0 0 0 0 .83h-1.7l1.5.59a3.69 3.69 0 0 0 -.3.55 13.51 13.51 0 0 1 -.74 1.33v6.5c0 .67 0 1.26.1 1.89h-2.38a14.17 14.17 0 0 0 .1-1.87v-2.14c0-.46 0-1 0-1.76-.12.13-.22.23-.27.3a9.17 9.17 0 0 1 -1.53 1.35c-.12-.25-.12-.25-.42-.94a7 7 0 0 0 -.7-1.15 10 10 0 0 0 4-4.89l.17.07c0-.24 0-.42 0-.64v-.41h-1.68a14.45 14.45 0 0 0 -2 .08v-2.22a15.44 15.44 0 0 0 2 .1h1.74zm5.73 11.82c0 .37.26.45 1.6.45a9.2 9.2 0 0 0 1.42-.1c.31-.1.43-.28.51-.87a14.56 14.56 0 0 0 .14-1.93 6.86 6.86 0 0 0 2.1.78c-.18 2.15-.28 2.67-.58 3.16-.49.76-1.34.95-4.23.95-2.67 0-3.17-.29-3.17-1.87v-6.78a12.27 12.27 0 0 0 -.08-1.79h2.37a13 13 0 0 0 -.08 1.7v1.45a13.42 13.42 0 0 0 3.65-2.52l1.67 1.6c-.23.15-.23.15-.83.59a25.52 25.52 0 0 1 -4.49 2.59z" fill="#231815"/><path d="m42.29 7.19c.5 0 .78 0 1.22-.05v1.67 3.79 1.72c-.45 0-.78 0-1.68 0h-2.83c-.73 0-1.13 0-1.68 0 0-.45 0-.72 0-1.57v-4a7.1 7.1 0 0 0 -1.14-1.11 10.05 10.05 0 0 0 2.39-4.64l2.07.3-.14.37a4.79 4.79 0 0 0 -.16.46h1.38a3 3 0 0 0 .79-.06l.71.9a3.78 3.78 0 0 0 -.28.53c-.38.74-.7 1.27-1 1.69zm-3.37 7.81a12.22 12.22 0 0 1 -1.14 3.77l-1.5-1.15a8.16 8.16 0 0 0 1.13-3.19zm1.15-7.83a5.77 5.77 0 0 0 .63-1.27h-1.1c-.2.45-.4.85-.63 1.27zm-1.07 2.71h.75v-1h-.75zm0 2.7h.75v-1.12h-.75zm1.25 2.22a22.14 22.14 0 0 1 .47 3.46l-1.49.28a21.18 21.18 0 0 0 -.23-3.54zm1.57-.13a20 20 0 0 1 .72 3.14l-1.34.33a18.42 18.42 0 0 0 -.58-3.22zm-.65-4.79h.77v-1h-.77zm0 2.7h.77v-1.12h-.77zm2.15 1.92a18.3 18.3 0 0 1 .89 2.61l-1.21.41a14.62 14.62 0 0 0 -.79-2.67zm2.92-7c0 .41.17.5.95.5 1.74 0 2.31 0 2.51-.2s.28-.57.3-1.64a6.34 6.34 0 0 0 2 .7c0 1.44-.25 2.12-.67 2.49s-1.26.5-3.6.5c-3.06 0-3.61-.27-3.61-1.69v-3.41a11.61 11.61 0 0 0 -.12-1.5h2.27a10.16 10.16 0 0 0 -.07 1.39v.36a13.08 13.08 0 0 0 4.14-1.51l1.42 1.77c-.93.35-1.57.57-1.92.69a36.34 36.34 0 0 1 -3.64.92zm-2 4.57a12 12 0 0 0 -.07-1.49 15.41 15.41 0 0 0 1.57.06h4.11a13.89 13.89 0 0 0 1.53-.06 12.1 12.1 0 0 0 -.06 1.47v4.95a9.27 9.27 0 0 0 .1 1.72h-2.15v-.72h-3.09v.72h-2a11.87 11.87 0 0 0 .03-1.72zm2 1.29h3.09v-1h-3.15zm0 2.83h3.09v-1.14h-3.15z" fill="#231815"/></svg>