<svg xmlns="http://www.w3.org/2000/svg" viewBox="0 0 177.53 21.93"><defs><style>.cls-1{fill:#fff;}.cls-2{fill:#231815;}</style></defs><g id="レイヤー_2" data-name="レイヤー 2"><g id="レイヤー_1-2" data-name="レイヤー 1"><path d="M8.69,14.42A20,20,0,0,1,4.08,18,6.8,6.8,0,0,0,3,16.14a15.89,15.89,0,0,0,4.16-2.81c-.64.1-.64.1-2.87.4-.22,0-.51.07-.92.15l-.22-2h.4c.13,0,.23,0,.65,0V6.34A9.94,9.94,0,0,0,4.1,4.6a8.85,8.85,0,0,0,1.45.09h.59A6.4,6.4,0,0,0,6.72,3l2.21.26c0,.12,0,.12-.22.47a4.72,4.72,0,0,0-.2.44c-.08.21-.12.28-.22.5H9.34a7.71,7.71,0,0,0,1.37-.09,14.29,14.29,0,0,0-.08,1.64v3L11.8,10a2.28,2.28,0,0,0-.27.44c-.17.28-.6,1-.9,1.47v4.84c0,1.48-.44,1.82-2.39,1.82-.43,0-.68,0-1.22-.05a4.86,4.86,0,0,0-.48-2,13.67,13.67,0,0,0,1.73.12c.34,0,.42-.05.42-.27Zm0-8.11H6.11V7H8.69Zm-2.58,3H8.69V8.54H6.11Zm0,2.42c1.21-.1,1.21-.1,2.58-.28v-.64H6.11Zm9-6.21c0-.78,0-1.35-.1-2.1h2.32a18,18,0,0,0-.1,2.12v1a7.53,7.53,0,0,0,1.46-.1V8.58a9,9,0,0,0-1.46-.09v8c0,1.77-.5,2.13-2.88,2.13-.5,0-.88,0-1.36-.05a6.53,6.53,0,0,0-.51-2.13,15.09,15.09,0,0,0,1.69.13c.77,0,.94-.08.94-.41V8.49H12.88a16.5,16.5,0,0,0-1.8.1V6.42a12.38,12.38,0,0,0,1.79.1h2.22ZM13,14.69a14,14,0,0,0-1.66-3.89l1.72-.86a15.55,15.55,0,0,1,1.81,3.76Z"/><path d="M26.27,8.19a10.57,10.57,0,0,0-.35,1.14,16.39,16.39,0,0,1-2,4.82,12.76,12.76,0,0,1-2.62,3,9.91,9.91,0,0,0-1.74-1.8,11.07,11.07,0,0,0,2.31-2.27,10.12,10.12,0,0,0,1.9-3.94H21.88a11.46,11.46,0,0,0-1.71.1V6.94A10.64,10.64,0,0,0,22,7h1.73A8.25,8.25,0,0,0,25.2,7Zm8.43-1c-.35.38-.39.41-.92,1A24.84,24.84,0,0,1,30.87,11,13.27,13.27,0,0,0,35.5,15a9.71,9.71,0,0,0-1.57,2.22A14.43,14.43,0,0,1,31.29,15a15.72,15.72,0,0,1-2.6-4.17c0,1.38.06,2.17.06,2.35l0,3.54a1.78,1.78,0,0,1-.45,1.47,2.73,2.73,0,0,1-1.77.43c-.68,0-1.55,0-2.24-.08a5.81,5.81,0,0,0-.55-2.24,18.16,18.16,0,0,0,2.17.19c.5,0,.6-.07.6-.39V5.17a11.33,11.33,0,0,0-.11-1.79h2.47a10.38,10.38,0,0,0-.12,1.81v1.2a9.89,9.89,0,0,0,1,2.74,11.89,11.89,0,0,0,2.9-3.51Z"/><path d="M40.7,13.5V13c-.21.08-.28.13-.53.23a4.78,4.78,0,0,0-.74-1.15v4.59a18.24,18.24,0,0,0,.09,2.14H37.18a17.91,17.91,0,0,0,.1-2.12V9a14.29,14.29,0,0,0-.07-1.44c.3,0,1.06.05,1.69.05h1.74a5.43,5.43,0,0,0-.54-1.23H38.55a16.5,16.5,0,0,0-1.94.08V4.32a18.53,18.53,0,0,0,2.09.1h4.37V4.14a6.56,6.56,0,0,0-.08-1h2.42a5.7,5.7,0,0,0-.08,1v.28H50A16.78,16.78,0,0,0,52,4.32v2.1a16,16,0,0,0-1.92-.08H48.48a8.55,8.55,0,0,1-.63,1.23h2a14,14,0,0,0,1.57-.05A11.13,11.13,0,0,0,51.32,9v7.63c0,.91-.17,1.38-.55,1.68a3.25,3.25,0,0,1-2.05.4l-.57,0h-.62a7.46,7.46,0,0,0-.33-1.52c-.29,0-.4,0-.65,0H42.72v.7H40.64a8.25,8.25,0,0,0,.06-1.26ZM39.43,9.43v2c1.34-.43,2-1.06,2.11-2Zm4.18,0a3.73,3.73,0,0,1-.42,1.4,4.57,4.57,0,0,1-1.65,1.72H46.6a11.62,11.62,0,0,0,1.31-.05c0,.4,0,.73,0,1.15V16c0,.15,0,.27,0,.74l.79,0c.41,0,.51-.08.51-.45V11.75a1.32,1.32,0,0,1-.68.23,12.26,12.26,0,0,1-1.55.08c-1.14,0-1.59-.05-1.89-.25a.86.86,0,0,1-.42-.81V9.43Zm1.93-1.86a6,6,0,0,0,.57-1.23H42.46A10.13,10.13,0,0,1,43,7.57Zm-2.8,7.85H46V14.25H42.74Zm6.44-6h-2.5v.77c0,.26.13.31.85.31s.92,0,.94-.7a1.91,1.91,0,0,0,.71.37Z"/><path d="M56.42,6.71a20.64,20.64,0,0,0-2.27.1V4.49a21.85,21.85,0,0,0,2.31.1h9a17.93,17.93,0,0,0,2.27-.1V6.81a20.74,20.74,0,0,0-2.25-.1H62v8.64h4.19a20.39,20.39,0,0,0,2.4-.11v2.37a18.64,18.64,0,0,0-2.42-.12H55.67a20,20,0,0,0-2.4.12V15.24a20.68,20.68,0,0,0,2.44.11h3.92V6.71Z"/><path d="M73.3,9a18.69,18.69,0,0,1-2.52,1.3,7.23,7.23,0,0,0-1.1-2.07,14.1,14.1,0,0,0,4-2.1,10.45,10.45,0,0,0,2.72-2.76h2.32A10.08,10.08,0,0,0,81.56,6,16.16,16.16,0,0,0,85.7,8.08a9.63,9.63,0,0,0-1,2.23A15.4,15.4,0,0,1,82,8.94v1.14A13.92,13.92,0,0,0,80.44,10H74.78a14.12,14.12,0,0,0-1.48.07Zm-.87,4.22a17.58,17.58,0,0,0-2,.1V11.06c.57,0,1.24.09,2,.09H82.9c.8,0,1.43,0,2-.09v2.22a17.51,17.51,0,0,0-2-.1H77.25a20,20,0,0,1-1.6,3C79,16,79,16,80.43,15.8c-.54-.6-.8-.9-1.61-1.73l2-.84a35.76,35.76,0,0,1,3.79,4.46l-2,1.24c-.46-.74-.61-1-.88-1.36-1.6.22-1.64.22-2.56.3s-5.7.52-6.34.55-1.45.14-1.84.2l-.28-2.38c.5,0,.75,0,1.17,0l1.18,0a20,20,0,0,0,1.64-3.07ZM80.58,8a13,13,0,0,1-3-2.78A12.77,12.77,0,0,1,74.68,8Z"/><path d="M91.86,7.94a9.2,9.2,0,0,0-1.27-.05H87.82a7.8,7.8,0,0,0-1.22.05V6a8.09,8.09,0,0,0,1.22.07h2.72A6.89,6.89,0,0,0,91.86,6Zm-5,10.85c.05-.53.09-1.07.09-1.65V14.69a10.52,10.52,0,0,0-.07-1.37,7.26,7.26,0,0,0,1.1,0h2.46a10.2,10.2,0,0,0,1.11,0,12.58,12.58,0,0,0,0,1.32v2.49c0,.55,0,.82,0,1.35H89.92V18H88.7v.78Zm.19-15.16a7.69,7.69,0,0,0,1.18.07h2.12a7.8,7.8,0,0,0,1.2-.07V5.47a7.86,7.86,0,0,0-1.2,0H88.25a11.19,11.19,0,0,0-1.18,0Zm0,5a7.11,7.11,0,0,0,1.2.05h2a8.45,8.45,0,0,0,1.25-.05v1.71a10.91,10.91,0,0,0-1.25,0h-2a9.29,9.29,0,0,0-1.2,0Zm0,2.33a8.41,8.41,0,0,0,1.2.05h2a8.09,8.09,0,0,0,1.25-.05v1.72a8.81,8.81,0,0,0-1.25-.05h-2a11.21,11.21,0,0,0-1.2.05Zm1.6,5.43h1.22v-1.4H88.7Zm4.64-6.53A8.36,8.36,0,0,0,92,9.88V8.31a8.36,8.36,0,0,0,1.36.07h2.42V7.82H94a8.59,8.59,0,0,0-1.33.07V6.49A9.77,9.77,0,0,0,94,6.56h1.75V6H93.59a10.58,10.58,0,0,0-1.33.07V4.49a8,8,0,0,0,1.33.08h.59a6.48,6.48,0,0,0-.67-1.1L95.46,3a9.87,9.87,0,0,1,.82,1.55h1.3A7.57,7.57,0,0,0,98.25,3l2,.42c-.17.38-.4.8-.59,1.15h.6a8,8,0,0,0,1.36-.08V6.07A10.77,10.77,0,0,0,100.3,6H97.73v.56h2a9.67,9.67,0,0,0,1.33-.07v1.4a11.25,11.25,0,0,0-1.33-.07h-2v.56h2.79a6.35,6.35,0,0,0,1.4-.09V9.88a9.22,9.22,0,0,0-1.36-.07h-.44a9.74,9.74,0,0,1,1.55,1.35l-1.21.87h.16a6.27,6.27,0,0,0,1.37-.1v1.79a6.79,6.79,0,0,0-1.37-.09h-.23l1.27.89c-.72.77-1.17,1.22-1.62,1.65.28.39.55.6.7.6s.37-.43.48-1.42a3.87,3.87,0,0,0,1.29.87A4.66,4.66,0,0,1,102,18a1.11,1.11,0,0,1-1,.65,2.77,2.77,0,0,1-1.4-.48,3.2,3.2,0,0,1-.9-.93,16.13,16.13,0,0,1-2.1,1.28A7.45,7.45,0,0,0,95.53,17a9.89,9.89,0,0,0,2.34-1.18,8.26,8.26,0,0,1-.64-2.21H95.35v.64L96.92,14V15.5l-1,.19-.63.11v1.29a1.46,1.46,0,0,1-.45,1.27,2.76,2.76,0,0,1-1.76.35l-.78,0A6.15,6.15,0,0,0,92,17a7.33,7.33,0,0,0,1.08.09c.39,0,.47-.07.47-.35v-.64l-.88.13a5.26,5.26,0,0,0-.57.1l-.23-1.71h.18c.2,0,.37,0,1.5-.15v-.86H93a7.3,7.3,0,0,0-1.14.07V12a6.45,6.45,0,0,0,1.17.07h.5v-.48c-.42,0-.48,0-1.08.08a3.6,3.6,0,0,0-.52-1.1,9,9,0,0,0,3.8-.69l1,1.06a8,8,0,0,1-1.38.36V12H97a6.26,6.26,0,0,1-.06-.78,5.82,5.82,0,0,0-.1-1.12h1.9a4.72,4.72,0,0,0,0,.63c0,.3,0,.77.05,1.27h1.58a6.3,6.3,0,0,0-1.5-1.45l1.23-.77ZM99,13.63a8.12,8.12,0,0,0,.3,1.11,4.39,4.39,0,0,0,1-1.11Z"/><path d="M110.48,11.5a12.34,12.34,0,0,0,0,1.4c-.2,0-.77,0-1.69,0h-2.49a12.19,12.19,0,0,1-1.46,5.91,7.19,7.19,0,0,0-1.79-1.64c1-1.75,1.23-3.34,1.23-7.8A20.86,20.86,0,0,0,104.24,7c.57,0,1,0,1.79,0h2.77c.85,0,1.18,0,1.73,0,0,.38,0,1,0,1.63Zm-6.84-7.67a12.92,12.92,0,0,0,1.9.09H109a12,12,0,0,0,1.94-.09V6a16.58,16.58,0,0,0-1.84-.06h-3.67a12,12,0,0,0-1.77.08ZM108.45,11V8.84h-2v1c0,.6,0,.69,0,1.15Zm5.07-.6a15.56,15.56,0,0,1-.78,4.56,10.27,10.27,0,0,1-2.46,3.81,6.6,6.6,0,0,0-1.63-1.66A7.07,7.07,0,0,0,110.3,15a9.78,9.78,0,0,0,1-3.81c.08-1,.13-2.37.13-4.5a18.92,18.92,0,0,0-.07-2.07,16.08,16.08,0,0,0,3.86-.49,13,13,0,0,0,2.47-.85l1.07,2.05a7.32,7.32,0,0,0-.82.22,24.43,24.43,0,0,1-4.39.9V8.36h3.56a11.92,11.92,0,0,0,1.65-.08v2.2a12.47,12.47,0,0,0-1.47-.07h-.08v6.36a10.46,10.46,0,0,0,.1,1.87H115a13.61,13.61,0,0,0,.11-1.87V10.41Z"/><path d="M132.06,4.32A4.63,4.63,0,0,0,132,3.18h2.35a4.21,4.21,0,0,0-.1,1.14h4a14.43,14.43,0,0,0,2-.1V6a16.36,16.36,0,0,0-1.75-.06h-4.21v.58h3.71a13.08,13.08,0,0,0,1.57-.07V8a13.76,13.76,0,0,0-1.57-.07h-3.71v.64H139a12.83,12.83,0,0,0,1.74-.08v1.75a11.67,11.67,0,0,0-1.74-.08h-11.6a15.56,15.56,0,0,0-1.75.08V8.48a12.72,12.72,0,0,0,1.75.08h4.62V7.92h-3.47A14.18,14.18,0,0,0,127,8V6.42a13.72,13.72,0,0,0,1.58.07h3.47V5.91H128a16.57,16.57,0,0,0-1.76.06V4.22a15,15,0,0,0,2,.1Zm-2.25,11.83v.74c0,.73,0,1.37.08,1.87h-2.33a14,14,0,0,0,.1-2.17V12.35a11.07,11.07,0,0,0-.09-1.67c.44,0,.79.05,1.54.05h8.28c.75,0,1.1,0,1.55-.05a12.29,12.29,0,0,0-.08,1.65v4.53a1.45,1.45,0,0,1-.92,1.58,6.27,6.27,0,0,1-2.24.22c-.3,0-.61,0-1.18-.05a6.74,6.74,0,0,0-.4-1.79c.72.07,1.32.12,1.67.12.8,0,.92-.07.92-.45v-.34Zm6.9-4h-6.9v.62h6.9Zm-6.9,2v.61h6.9v-.61Z"/><path d="M144.91,9.69c0-.31,0-.56,0-.81a14.26,14.26,0,0,1-1.23,1.23,9.7,9.7,0,0,0-1.46-1.85,10.4,10.4,0,0,0,3.23-4A6.36,6.36,0,0,0,145.83,3l2.37.44-.36.77c-.12.26-.19.4-.3.66h7.57a10,10,0,0,0,1.79-.1V7a14.37,14.37,0,0,0-1.79-.1h-3.18V8.78h2.48a17.34,17.34,0,0,0,1.82-.07v2.07a17.1,17.1,0,0,0-1.73-.07h-2.57v2.47h3.67a13.88,13.88,0,0,0,1.88-.1V15.3a16.66,16.66,0,0,0-1.88-.1h-3.67V17a10.83,10.83,0,0,0,.1,1.9h-2.42a15,15,0,0,0,.1-1.94V15.2h-5.43a16.91,16.91,0,0,0-1.9.1V13.08a14.72,14.72,0,0,0,1.9.1h.63Zm1.51-2.82A16.52,16.52,0,0,1,145,8.74c.33,0,.62,0,1,0h3.68V6.87Zm3.29,6.31V10.71h-2.66v2.47Z"/><path d="M165.86,4.74a11.14,11.14,0,0,0,1.49-.07V6.74a5.46,5.46,0,0,0-1-.07,13.11,13.11,0,0,1-.47,2.21h.27a8.83,8.83,0,0,0,1.38-.07V11a9.37,9.37,0,0,0-1.28-.07h-5.6a12.36,12.36,0,0,0-1.7.08V8.79a10.28,10.28,0,0,0,1.72.09h.1a12.29,12.29,0,0,0-.43-2.21c-.54,0-.76,0-1.07.07V4.65a8.37,8.37,0,0,0,1.58.09h1.56V4.37a7.26,7.26,0,0,0-.09-1.12h2.34a6.89,6.89,0,0,0-.08,1.1v.39Zm-3.94,14h-2.17a10.81,10.81,0,0,0,.09-1.6V13.33a9.43,9.43,0,0,0-.07-1.35c.4,0,.73,0,1.35,0h4.49a9,9,0,0,0,1.22,0,9.28,9.28,0,0,0-.05,1.15v4.38a8.15,8.15,0,0,0,.07,1.23h-2.19v-.92h-2.74Zm0-2.86h2.76V14h-2.76Zm1.94-7a13.65,13.65,0,0,0,.4-2.21h-1.89a12.31,12.31,0,0,1,.45,2.21ZM174.53,5a5.73,5.73,0,0,0-.31.72,42.51,42.51,0,0,1-1.68,4A8.18,8.18,0,0,1,174,12.05a6,6,0,0,1,.43,2.18,2.18,2.18,0,0,1-1.25,2.23,5.2,5.2,0,0,1-1.79.23c-.15,0-.33,0-.68,0a4.28,4.28,0,0,0-.45-2.14,5.9,5.9,0,0,0,.88.06c.82,0,1.1-.16,1.1-.66a5.08,5.08,0,0,0-.36-1.67,7.85,7.85,0,0,0-1.55-2.37,19.33,19.33,0,0,0,1.6-4.16H170V16.84a14.11,14.11,0,0,0,.1,2h-2.29c0-.61.08-1.26.08-1.92V5c0-.5,0-.85,0-1.34a11.49,11.49,0,0,0,1.37.07h3a6.35,6.35,0,0,0,1.33-.09Z"/><path class="cls-1" d="M14.33,21.67c-.57,0-1,0-1.57-.05a3,3,0,0,1-1.53-.55,7.3,7.3,0,0,1-3,.54c-.48,0-.77,0-1.35-.05a3.11,3.11,0,0,1-1.79-.73,3,3,0,0,1-1,.18,2.87,2.87,0,0,1-1-.16,3,3,0,0,1-1.81-1.69A3.8,3.8,0,0,0,.66,18a3,3,0,0,1-.58-2.57,3,3,0,0,1,.37-.89c0-.11,0-.23-.07-.35l-.21-2A3,3,0,0,1,1,9.8a1.57,1.57,0,0,1,.19-.18V6.34A8.5,8.5,0,0,0,1.13,5,3,3,0,0,1,2,2.47,3,3,0,0,1,4.08,1.6,3,3,0,0,1,6.72,0a2.17,2.17,0,0,1,.36,0L9.29.31A3,3,0,0,1,11.47,1.7a3.13,3.13,0,0,1,.84.36,3.33,3.33,0,0,1,.46-.67A3,3,0,0,1,15,.42h2.32a3,3,0,0,1,3,3.3l0,.16.32.23a3,3,0,0,1,1.08,2.31V8.58a3,3,0,0,1-1,2.25,3.37,3.37,0,0,1-.44.33v5.38C20.21,21.67,15.94,21.67,14.33,21.67Z"/><path class="cls-1" d="M26.55,21.59c-.75,0-1.69,0-2.46-.09a3,3,0,0,1-2.29-1.36,3.29,3.29,0,0,1-.54.05H21A3.07,3.07,0,0,1,18.87,19a6.82,6.82,0,0,0-1.22-1.28A3,3,0,0,1,17.72,13a9,9,0,0,0,1.15-1,3,3,0,0,1-1.7-2.7V6.94a3,3,0,0,1,1.08-2.3,3,3,0,0,1,1.92-.7A3.17,3.17,0,0,1,20.7,4,8.73,8.73,0,0,0,22,4h1.45a1.1,1.1,0,0,1,0-.18,3,3,0,0,1,.67-2.42A3,3,0,0,1,26.42.38h2.47a3,3,0,0,1,2.28,1.06,3.13,3.13,0,0,1,.65,1.3l.15,0a3.25,3.25,0,0,1,.69-.08,3,3,0,0,1,1.81.61l2,1.53a3,3,0,0,1,.41,4.42l-.08.09c-.26.28-.32.35-.78.88-.3.35-.61.69-.95,1a9.25,9.25,0,0,0,1.8,1.2,3,3,0,0,1,.82,4.68,7,7,0,0,0-1.2,1.7,3,3,0,0,1-2,1.43,3.38,3.38,0,0,1-.63.07,3,3,0,0,1-1.74-.56l-.87-.64a4.38,4.38,0,0,1-1,1.33A5.43,5.43,0,0,1,26.55,21.59Z"/><path class="cls-1" d="M37.18,21.81a3,3,0,0,1-3-3.31,17.34,17.34,0,0,0,.08-1.81V9c0-.25,0-.46,0-.67a3,3,0,0,1-.66-1.87V4.32a3,3,0,0,1,3-3l.32,0c.55,0,1.08.08,1.77.08h1.83c0-.08.12-.16.18-.24A3,3,0,0,1,43,.13h2.42a3,3,0,0,1,2.27,1,2.35,2.35,0,0,1,.19.25H50a15.88,15.88,0,0,0,1.72-.08l.35,0a3,3,0,0,1,3,3v2.1a3,3,0,0,1-.69,1.92c0,.15,0,.35,0,.64v7.63a4.93,4.93,0,0,1-1.71,4.05l-.09.06a6,6,0,0,1-3.8,1h0l-.59,0-.72,0a3,3,0,0,1-2.46-1.53h-.26a3,3,0,0,1-1.93.7h-1a3,3,0,0,1-2.22,1Z"/><path class="cls-1" d="M68.61,20.61a2.43,2.43,0,0,1-.38,0,17.47,17.47,0,0,0-2-.09H55.67a18.46,18.46,0,0,0-2.08.1l-.32,0a3,3,0,0,1-3-3V15.24a3,3,0,0,1,1-2.24,3,3,0,0,1,2-.76h.33a15.91,15.91,0,0,0,2.11.1h.92V9.71h-.21a19.57,19.57,0,0,0-2,.08l-.3,0a3,3,0,0,1-3-3V4.49a3,3,0,0,1,3-3h.33a16.36,16.36,0,0,0,2,.09h9a15,15,0,0,0,1.92-.08,2.11,2.11,0,0,1,.35,0,3,3,0,0,1,3,3V6.81a3,3,0,0,1-3,3l-.28,0c-.62,0-1.09-.08-2-.08H65v2.64h1.19a17.3,17.3,0,0,0,2.06-.09,1.94,1.94,0,0,1,.34,0,3,3,0,0,1,3,3v2.37a3,3,0,0,1-3,3Z"/><path class="cls-1" d="M82.67,21.93a3,3,0,0,1-2.36-1.14l-.81.07c-.76.08-5.73.52-6.46.56s-1.26.12-1.48.16A3,3,0,0,1,68.07,19l-.29-2.39A3,3,0,0,1,68,15a3.05,3.05,0,0,1-.57-1.76V11.06a2.82,2.82,0,0,1,.09-.71L67.28,10a3,3,0,0,1-.48-2.66,3,3,0,0,1,1.88-2,11.25,11.25,0,0,0,3.26-1.7,7.4,7.4,0,0,0,2-2A3,3,0,0,1,76.42.33h2.32a3,3,0,0,1,2.41,1.22,7.36,7.36,0,0,0,2.09,2,13.32,13.32,0,0,0,3.4,1.69A3,3,0,0,1,88.29,9.6c-.21.35-.35.61-.47.86a3,3,0,0,1,.06.6v2.22a3,3,0,0,1-1,2.25l-.07.06c.07.11.15.21.23.32a3,3,0,0,1,.53,2.34,3,3,0,0,1-1.34,2l-2,1.23A3,3,0,0,1,82.67,21.93Z"/><path class="cls-1" d="M86.88,21.79a3,3,0,0,1-3-3.28c0-.52.07-.94.07-1.37V14.69c0-.46,0-.77,0-1a2.89,2.89,0,0,1,.17-1.46V10.91c0-.1,0-.2,0-.31a3,3,0,0,1,0-.31V9.6a3,3,0,0,1-.5-1.66V6a3,3,0,0,1,.47-1.61v-.8a3,3,0,0,1,3-3,3.42,3.42,0,0,1,.44,0,6.25,6.25,0,0,0,.74,0h2.12a6.14,6.14,0,0,0,.78,0,2,2,0,0,1,.42,0,3.56,3.56,0,0,1,.73.09,4.27,4.27,0,0,1,.54-.18l2-.45A3.05,3.05,0,0,1,95.46,0a3,3,0,0,1,1.38.33A3,3,0,0,1,98.25,0a3.05,3.05,0,0,1,.6.06l2,.42a3,3,0,0,1,1.85,1.21,3.33,3.33,0,0,1,.85.5,3,3,0,0,1,1.07,2.3V6.07a2.88,2.88,0,0,1-.11.78,3,3,0,0,1,.37,1.44V9.88a2.92,2.92,0,0,1-.15.93,2.87,2.87,0,0,1,.22,1.12v1.79a3.27,3.27,0,0,1-.08.7,3,3,0,0,1,.57,2.21,7.39,7.39,0,0,1-.83,2.85A4.13,4.13,0,0,1,101,21.67,5.77,5.77,0,0,1,98.43,21L98,21.2a3,3,0,0,1-1.38.34,2.92,2.92,0,0,1-1-.18,6.91,6.91,0,0,1-2.46.35l-.91,0a2.78,2.78,0,0,1-1-.2H90a3,3,0,0,1-1.31.3Z"/><path class="cls-1" d="M104.88,21.78a3,3,0,0,1-2.32-1.09,4.12,4.12,0,0,0-1.12-1.05,3,3,0,0,1-1-4c.6-1.05.85-2,.85-6.33,0-.72,0-1.14,0-1.47A3,3,0,0,1,100.64,6V3.83a3,3,0,0,1,1-2.25,3,3,0,0,1,2-.75,2.43,2.43,0,0,1,.38,0,11.61,11.61,0,0,0,1.52.06H109a11.88,11.88,0,0,0,1.5-.05,3.27,3.27,0,0,1,.44,0,3,3,0,0,1,1.94.72,14.53,14.53,0,0,0,1.68-.31,10.57,10.57,0,0,0,1.81-.6,3,3,0,0,1,4,1.28L121.46,4a3,3,0,0,1,0,2.68,1.3,1.3,0,0,1-.08.17,3.05,3.05,0,0,1,.38,1.46v2.2a3,3,0,0,1-1,2.23,3.58,3.58,0,0,1-.56.4v3.66a8.3,8.3,0,0,0,.06,1.41,3,3,0,0,1-.69,2.41,3,3,0,0,1-2.27,1.05H115a3,3,0,0,1-2.23-1l-.07-.08-.23.25a3,3,0,0,1-2.21,1h-.17a3,3,0,0,1-2.26-1.24l-.3-.39-.06.11a3,3,0,0,1-2.35,1.51Z"/><path class="cls-1" d="M127.56,21.76a3,3,0,0,1-3-3.44,10.45,10.45,0,0,0,.07-1.73V13.05a3,3,0,0,1-2-2.82V8.48a3,3,0,0,1,.64-1.86,2.82,2.82,0,0,1-.08-.65V4.22a3,3,0,0,1,3.43-3,11.57,11.57,0,0,0,1.58.07h1.4A3,3,0,0,1,132,.18h2.35a3,3,0,0,1,2.36,1.14h1.52a13,13,0,0,0,1.54-.07l.44,0a3,3,0,0,1,2,.73,3,3,0,0,1,1,2.27V6a3.39,3.39,0,0,1-.06.64,3,3,0,0,1,.65,1.87v1.75a3,3,0,0,1-1,2.26,3.26,3.26,0,0,1-.89.54v3.83A4.41,4.41,0,0,1,139,21.24a8.69,8.69,0,0,1-3.32.42c-.34,0-.71,0-1.36-.06a3,3,0,0,1-2.07-1l-.15.18a3,3,0,0,1-2.23,1Z"/><path class="cls-1" d="M149.61,21.86a3,3,0,0,1-3-3.39c0-.09,0-.17,0-.27h-2.38a14,14,0,0,0-1.55.08,2.11,2.11,0,0,1-.35,0,3,3,0,0,1-3-3V13.08a3,3,0,0,1,1-2.24l.07-.06c-.11-.13-.23-.25-.38-.4a3,3,0,0,1-.87-2.27,3,3,0,0,1,1.1-2.17A7.32,7.32,0,0,0,142.68,3a4,4,0,0,0,.22-.6A3,3,0,0,1,145.83,0a3.29,3.29,0,0,1,.54.05l2.37.44a3,3,0,0,1,2,1.38h4.35a7.67,7.67,0,0,0,1.33-.06,3.57,3.57,0,0,1,.46,0,3,3,0,0,1,3,3V7a3,3,0,0,1-.67,1.89v1.78l.24.19a3,3,0,0,1,1,2.25V15.3a3,3,0,0,1-3,3,2.11,2.11,0,0,1-.35,0,13.36,13.36,0,0,0-1.53-.08H155l0,.2a3,3,0,0,1-.68,2.41A3,3,0,0,1,152,21.86Z"/><path class="cls-1" d="M167.83,21.83a3.07,3.07,0,0,1-.74-.1h-2.43a2.89,2.89,0,0,1-1.35-.32,3,3,0,0,1-1.39.34h-2.17a3,3,0,0,1-3-3.38,9.52,9.52,0,0,0,.06-1.22s0-4,0-4A3,3,0,0,1,155.9,11V8.79a2.93,2.93,0,0,1,.38-1.45,3.05,3.05,0,0,1-.06-.6V4.65a3,3,0,0,1,3-3,4.22,4.22,0,0,1,.49,0,2.7,2.7,0,0,1,.29-.4,3,3,0,0,1,2.27-1h2.34a3,3,0,0,1,1.93.71,3,3,0,0,1,1.32-.31l.33,0a7.86,7.86,0,0,0,1,0h3a3.65,3.65,0,0,0,.8,0,3.27,3.27,0,0,1,.53-.05A3,3,0,0,1,176,1.92l1,1.37a3,3,0,0,1,.22,3.06,2.06,2.06,0,0,0-.15.36c-.32.87-.68,1.76-1.06,2.63a10.32,10.32,0,0,1,.81,1.63,8.8,8.8,0,0,1,.63,3.26,5.13,5.13,0,0,1-3.2,5,4.92,4.92,0,0,1-1.22.32,2.93,2.93,0,0,1-.64,1.22,3,3,0,0,1-2.26,1Z"/><path class="cls-2" d="M8.69,14.42A20,20,0,0,1,4.08,18,6.8,6.8,0,0,0,3,16.14a15.89,15.89,0,0,0,4.16-2.81c-.64.1-.64.1-2.87.4-.22,0-.51.07-.92.15l-.22-2h.4c.13,0,.23,0,.65,0V6.34A9.94,9.94,0,0,0,4.1,4.6a8.85,8.85,0,0,0,1.45.09h.59A6.4,6.4,0,0,0,6.72,3l2.21.26c0,.12,0,.12-.22.47a4.72,4.72,0,0,0-.2.44c-.08.21-.12.28-.22.5H9.34a7.71,7.71,0,0,0,1.37-.09,14.29,14.29,0,0,0-.08,1.64v3L11.8,10a2.28,2.28,0,0,0-.27.44c-.17.28-.6,1-.9,1.47v4.84c0,1.48-.44,1.82-2.39,1.82-.43,0-.68,0-1.22-.05a4.86,4.86,0,0,0-.48-2,13.67,13.67,0,0,0,1.73.12c.34,0,.42-.05.42-.27Zm0-8.11H6.11V7H8.69Zm-2.58,3H8.69V8.54H6.11Zm0,2.42c1.21-.1,1.21-.1,2.58-.28v-.64H6.11Zm9-6.21c0-.78,0-1.35-.1-2.1h2.32a18,18,0,0,0-.1,2.12v1a7.53,7.53,0,0,0,1.46-.1V8.58a9,9,0,0,0-1.46-.09v8c0,1.77-.5,2.13-2.88,2.13-.5,0-.88,0-1.36-.05a6.53,6.53,0,0,0-.51-2.13,15.09,15.09,0,0,0,1.69.13c.77,0,.94-.08.94-.41V8.49H12.88a16.5,16.5,0,0,0-1.8.1V6.42a12.38,12.38,0,0,0,1.79.1h2.22ZM13,14.69a14,14,0,0,0-1.66-3.89l1.72-.86a15.55,15.55,0,0,1,1.81,3.76Z"/><path class="cls-2" d="M26.27,8.19a10.57,10.57,0,0,0-.35,1.14,16.39,16.39,0,0,1-2,4.82,12.76,12.76,0,0,1-2.62,3,9.91,9.91,0,0,0-1.74-1.8,11.07,11.07,0,0,0,2.31-2.27,10.12,10.12,0,0,0,1.9-3.94H21.88a11.46,11.46,0,0,0-1.71.1V6.94A10.64,10.64,0,0,0,22,7h1.73A8.25,8.25,0,0,0,25.2,7Zm8.43-1c-.35.38-.39.41-.92,1A24.84,24.84,0,0,1,30.87,11,13.27,13.27,0,0,0,35.5,15a9.71,9.71,0,0,0-1.57,2.22A14.43,14.43,0,0,1,31.29,15a15.72,15.72,0,0,1-2.6-4.17c0,1.38.06,2.17.06,2.35l0,3.54a1.78,1.78,0,0,1-.45,1.47,2.73,2.73,0,0,1-1.77.43c-.68,0-1.55,0-2.24-.08a5.81,5.81,0,0,0-.55-2.24,18.16,18.16,0,0,0,2.17.19c.5,0,.6-.07.6-.39V5.17a11.33,11.33,0,0,0-.11-1.79h2.47a10.38,10.38,0,0,0-.12,1.81v1.2a9.89,9.89,0,0,0,1,2.74,11.89,11.89,0,0,0,2.9-3.51Z"/><path class="cls-2" d="M40.7,13.5V13c-.21.08-.28.13-.53.23a4.78,4.78,0,0,0-.74-1.15v4.59a18.24,18.24,0,0,0,.09,2.14H37.18a17.91,17.91,0,0,0,.1-2.12V9a14.29,14.29,0,0,0-.07-1.44c.3,0,1.06.05,1.69.05h1.74a5.43,5.43,0,0,0-.54-1.23H38.55a16.5,16.5,0,0,0-1.94.08V4.32a18.53,18.53,0,0,0,2.09.1h4.37V4.14a6.56,6.56,0,0,0-.08-1h2.42a5.7,5.7,0,0,0-.08,1v.28H50A16.78,16.78,0,0,0,52,4.32v2.1a16,16,0,0,0-1.92-.08H48.48a8.55,8.55,0,0,1-.63,1.23h2a14,14,0,0,0,1.57-.05A11.13,11.13,0,0,0,51.32,9v7.63c0,.91-.17,1.38-.55,1.68a3.25,3.25,0,0,1-2.05.4l-.57,0h-.62a7.46,7.46,0,0,0-.33-1.52c-.29,0-.4,0-.65,0H42.72v.7H40.64a8.25,8.25,0,0,0,.06-1.26ZM39.43,9.43v2c1.34-.43,2-1.06,2.11-2Zm4.18,0a3.73,3.73,0,0,1-.42,1.4,4.57,4.57,0,0,1-1.65,1.72H46.6a11.62,11.62,0,0,0,1.31-.05c0,.4,0,.73,0,1.15V16c0,.15,0,.27,0,.74l.79,0c.41,0,.51-.08.51-.45V11.75a1.32,1.32,0,0,1-.68.23,12.26,12.26,0,0,1-1.55.08c-1.14,0-1.59-.05-1.89-.25a.86.86,0,0,1-.42-.81V9.43Zm1.93-1.86a6,6,0,0,0,.57-1.23H42.46A10.13,10.13,0,0,1,43,7.57Zm-2.8,7.85H46V14.25H42.74Zm6.44-6h-2.5v.77c0,.26.13.31.85.31s.92,0,.94-.7a1.91,1.91,0,0,0,.71.37Z"/><path class="cls-2" d="M56.42,6.71a20.64,20.64,0,0,0-2.27.1V4.49a21.85,21.85,0,0,0,2.31.1h9a17.93,17.93,0,0,0,2.27-.1V6.81a20.74,20.74,0,0,0-2.25-.1H62v8.64h4.19a20.39,20.39,0,0,0,2.4-.11v2.37a18.64,18.64,0,0,0-2.42-.12H55.67a20,20,0,0,0-2.4.12V15.24a20.68,20.68,0,0,0,2.44.11h3.92V6.71Z"/><path class="cls-2" d="M73.3,9a18.69,18.69,0,0,1-2.52,1.3,7.23,7.23,0,0,0-1.1-2.07,14.1,14.1,0,0,0,4-2.1,10.45,10.45,0,0,0,2.72-2.76h2.32A10.08,10.08,0,0,0,81.56,6,16.16,16.16,0,0,0,85.7,8.08a9.63,9.63,0,0,0-1,2.23A15.4,15.4,0,0,1,82,8.94v1.14A13.92,13.92,0,0,0,80.44,10H74.78a14.12,14.12,0,0,0-1.48.07Zm-.87,4.22a17.58,17.58,0,0,0-2,.1V11.06c.57,0,1.24.09,2,.09H82.9c.8,0,1.43,0,2-.09v2.22a17.51,17.51,0,0,0-2-.1H77.25a20,20,0,0,1-1.6,3C79,16,79,16,80.43,15.8c-.54-.6-.8-.9-1.61-1.73l2-.84a35.76,35.76,0,0,1,3.79,4.46l-2,1.24c-.46-.74-.61-1-.88-1.36-1.6.22-1.64.22-2.56.3s-5.7.52-6.34.55-1.45.14-1.84.2l-.28-2.38c.5,0,.75,0,1.17,0l1.18,0a20,20,0,0,0,1.64-3.07ZM80.58,8a13,13,0,0,1-3-2.78A12.77,12.77,0,0,1,74.68,8Z"/><path class="cls-2" d="M91.86,7.94a9.2,9.2,0,0,0-1.27-.05H87.82a7.8,7.8,0,0,0-1.22.05V6a8.09,8.09,0,0,0,1.22.07h2.72A6.89,6.89,0,0,0,91.86,6Zm-5,10.85c.05-.53.09-1.07.09-1.65V14.69a10.52,10.52,0,0,0-.07-1.37,7.26,7.26,0,0,0,1.1,0h2.46a10.2,10.2,0,0,0,1.11,0,12.58,12.58,0,0,0,0,1.32v2.49c0,.55,0,.82,0,1.35H89.92V18H88.7v.78Zm.19-15.16a7.69,7.69,0,0,0,1.18.07h2.12a7.8,7.8,0,0,0,1.2-.07V5.47a7.86,7.86,0,0,0-1.2,0H88.25a11.19,11.19,0,0,0-1.18,0Zm0,5a7.11,7.11,0,0,0,1.2.05h2a8.45,8.45,0,0,0,1.25-.05v1.71a10.91,10.91,0,0,0-1.25,0h-2a9.29,9.29,0,0,0-1.2,0Zm0,2.33a8.41,8.41,0,0,0,1.2.05h2a8.09,8.09,0,0,0,1.25-.05v1.72a8.81,8.81,0,0,0-1.25-.05h-2a11.21,11.21,0,0,0-1.2.05Zm1.6,5.43h1.22v-1.4H88.7Zm4.64-6.53A8.36,8.36,0,0,0,92,9.88V8.31a8.36,8.36,0,0,0,1.36.07h2.42V7.82H94a8.59,8.59,0,0,0-1.33.07V6.49A9.77,9.77,0,0,0,94,6.56h1.75V6H93.59a10.58,10.58,0,0,0-1.33.07V4.49a8,8,0,0,0,1.33.08h.59a6.48,6.48,0,0,0-.67-1.1L95.46,3a9.87,9.87,0,0,1,.82,1.55h1.3A7.57,7.57,0,0,0,98.25,3l2,.42c-.17.38-.4.8-.59,1.15h.6a8,8,0,0,0,1.36-.08V6.07A10.77,10.77,0,0,0,100.3,6H97.73v.56h2a9.67,9.67,0,0,0,1.33-.07v1.4a11.25,11.25,0,0,0-1.33-.07h-2v.56h2.79a6.35,6.35,0,0,0,1.4-.09V9.88a9.22,9.22,0,0,0-1.36-.07h-.44a9.74,9.74,0,0,1,1.55,1.35l-1.21.87h.16a6.27,6.27,0,0,0,1.37-.1v1.79a6.79,6.79,0,0,0-1.37-.09h-.23l1.27.89c-.72.77-1.17,1.22-1.62,1.65.28.39.55.6.7.6s.37-.43.48-1.42a3.87,3.87,0,0,0,1.29.87A4.66,4.66,0,0,1,102,18a1.11,1.11,0,0,1-1,.65,2.77,2.77,0,0,1-1.4-.48,3.2,3.2,0,0,1-.9-.93,16.13,16.13,0,0,1-2.1,1.28A7.45,7.45,0,0,0,95.53,17a9.89,9.89,0,0,0,2.34-1.18,8.26,8.26,0,0,1-.64-2.21H95.35v.64L96.92,14V15.5l-1,.19-.63.11v1.29a1.46,1.46,0,0,1-.45,1.27,2.76,2.76,0,0,1-1.76.35l-.78,0A6.15,6.15,0,0,0,92,17a7.33,7.33,0,0,0,1.08.09c.39,0,.47-.07.47-.35v-.64l-.88.13a5.26,5.26,0,0,0-.57.1l-.23-1.71h.18c.2,0,.37,0,1.5-.15v-.86H93a7.3,7.3,0,0,0-1.14.07V12a6.45,6.45,0,0,0,1.17.07h.5v-.48c-.42,0-.48,0-1.08.08a3.6,3.6,0,0,0-.52-1.1,9,9,0,0,0,3.8-.69l1,1.06a8,8,0,0,1-1.38.36V12H97a6.26,6.26,0,0,1-.06-.78,5.82,5.82,0,0,0-.1-1.12h1.9a4.72,4.72,0,0,0,0,.63c0,.3,0,.77.05,1.27h1.58a6.3,6.3,0,0,0-1.5-1.45l1.23-.77ZM99,13.63a8.12,8.12,0,0,0,.3,1.11,4.39,4.39,0,0,0,1-1.11Z"/><path class="cls-2" d="M110.48,11.5a12.34,12.34,0,0,0,0,1.4c-.2,0-.77,0-1.69,0h-2.49a12.19,12.19,0,0,1-1.46,5.91,7.19,7.19,0,0,0-1.79-1.64c1-1.75,1.23-3.34,1.23-7.8A20.86,20.86,0,0,0,104.24,7c.57,0,1,0,1.79,0h2.77c.85,0,1.18,0,1.73,0,0,.38,0,1,0,1.63Zm-6.84-7.67a12.92,12.92,0,0,0,1.9.09H109a12,12,0,0,0,1.94-.09V6a16.58,16.58,0,0,0-1.84-.06h-3.67a12,12,0,0,0-1.77.08ZM108.45,11V8.84h-2v1c0,.6,0,.69,0,1.15Zm5.07-.6a15.56,15.56,0,0,1-.78,4.56,10.27,10.27,0,0,1-2.46,3.81,6.6,6.6,0,0,0-1.63-1.66A7.07,7.07,0,0,0,110.3,15a9.78,9.78,0,0,0,1-3.81c.08-1,.13-2.37.13-4.5a18.92,18.92,0,0,0-.07-2.07,16.08,16.08,0,0,0,3.86-.49,13,13,0,0,0,2.47-.85l1.07,2.05a7.32,7.32,0,0,0-.82.22,24.43,24.43,0,0,1-4.39.9V8.36h3.56a11.92,11.92,0,0,0,1.65-.08v2.2a12.47,12.47,0,0,0-1.47-.07h-.08v6.36a10.46,10.46,0,0,0,.1,1.87H115a13.61,13.61,0,0,0,.11-1.87V10.41Z"/><path class="cls-2" d="M132.06,4.32A4.63,4.63,0,0,0,132,3.18h2.35a4.21,4.21,0,0,0-.1,1.14h4a14.43,14.43,0,0,0,2-.1V6a16.36,16.36,0,0,0-1.75-.06h-4.21v.58h3.71a13.08,13.08,0,0,0,1.57-.07V8a13.76,13.76,0,0,0-1.57-.07h-3.71v.64H139a12.83,12.83,0,0,0,1.74-.08v1.75a11.67,11.67,0,0,0-1.74-.08h-11.6a15.56,15.56,0,0,0-1.75.08V8.48a12.72,12.72,0,0,0,1.75.08h4.62V7.92h-3.47A14.18,14.18,0,0,0,127,8V6.42a13.72,13.72,0,0,0,1.58.07h3.47V5.91H128a16.57,16.57,0,0,0-1.76.06V4.22a15,15,0,0,0,2,.1Zm-2.25,11.83v.74c0,.73,0,1.37.08,1.87h-2.33a14,14,0,0,0,.1-2.17V12.35a11.07,11.07,0,0,0-.09-1.67c.44,0,.79.05,1.54.05h8.28c.75,0,1.1,0,1.55-.05a12.29,12.29,0,0,0-.08,1.65v4.53a1.45,1.45,0,0,1-.92,1.58,6.27,6.27,0,0,1-2.24.22c-.3,0-.61,0-1.18-.05a6.74,6.74,0,0,0-.4-1.79c.72.07,1.32.12,1.67.12.8,0,.92-.07.92-.45v-.34Zm6.9-4h-6.9v.62h6.9Zm-6.9,2v.61h6.9v-.61Z"/><path class="cls-2" d="M144.91,9.69c0-.31,0-.56,0-.81a14.26,14.26,0,0,1-1.23,1.23,9.7,9.7,0,0,0-1.46-1.85,10.4,10.4,0,0,0,3.23-4A6.36,6.36,0,0,0,145.83,3l2.37.44-.36.77c-.12.26-.19.4-.3.66h7.57a10,10,0,0,0,1.79-.1V7a14.37,14.37,0,0,0-1.79-.1h-3.18V8.78h2.48a17.34,17.34,0,0,0,1.82-.07v2.07a17.1,17.1,0,0,0-1.73-.07h-2.57v2.47h3.67a13.88,13.88,0,0,0,1.88-.1V15.3a16.66,16.66,0,0,0-1.88-.1h-3.67V17a10.83,10.83,0,0,0,.1,1.9h-2.42a15,15,0,0,0,.1-1.94V15.2h-5.43a16.91,16.91,0,0,0-1.9.1V13.08a14.72,14.72,0,0,0,1.9.1h.63Zm1.51-2.82A16.52,16.52,0,0,1,145,8.74c.33,0,.62,0,1,0h3.68V6.87Zm3.29,6.31V10.71h-2.66v2.47Z"/><path class="cls-2" d="M165.86,4.74a11.14,11.14,0,0,0,1.49-.07V6.74a5.46,5.46,0,0,0-1-.07,13.11,13.11,0,0,1-.47,2.21h.27a8.83,8.83,0,0,0,1.38-.07V11a9.37,9.37,0,0,0-1.28-.07h-5.6a12.36,12.36,0,0,0-1.7.08V8.79a10.28,10.28,0,0,0,1.72.09h.1a12.29,12.29,0,0,0-.43-2.21c-.54,0-.76,0-1.07.07V4.65a8.37,8.37,0,0,0,1.58.09h1.56V4.37a7.26,7.26,0,0,0-.09-1.12h2.34a6.89,6.89,0,0,0-.08,1.1v.39Zm-3.94,14h-2.17a10.81,10.81,0,0,0,.09-1.6V13.33a9.43,9.43,0,0,0-.07-1.35c.4,0,.73,0,1.35,0h4.49a9,9,0,0,0,1.22,0,9.28,9.28,0,0,0-.05,1.15v4.38a8.15,8.15,0,0,0,.07,1.23h-2.19v-.92h-2.74Zm0-2.86h2.76V14h-2.76Zm1.94-7a13.65,13.65,0,0,0,.4-2.21h-1.89a12.31,12.31,0,0,1,.45,2.21ZM174.53,5a5.73,5.73,0,0,0-.31.72,42.51,42.51,0,0,1-1.68,4A8.18,8.18,0,0,1,174,12.05a6,6,0,0,1,.43,2.18,2.18,2.18,0,0,1-1.25,2.23,5.2,5.2,0,0,1-1.79.23c-.15,0-.33,0-.68,0a4.28,4.28,0,0,0-.45-2.14,5.9,5.9,0,0,0,.88.06c.82,0,1.1-.16,1.1-.66a5.08,5.08,0,0,0-.36-1.67,7.85,7.85,0,0,0-1.55-2.37,19.33,19.33,0,0,0,1.6-4.16H170V16.84a14.11,14.11,0,0,0,.1,2h-2.29c0-.61.08-1.26.08-1.92V5c0-.5,0-.85,0-1.34a11.49,11.49,0,0,0,1.37.07h3a6.35,6.35,0,0,0,1.33-.09Z"/></g></g></svg>