<svg viewBox="0 0 131.23 143.01" xmlns="http://www.w3.org/2000/svg"><path d="m120.26 58.68c-.71-.53-1.73-.75-2-1.76 8.36-5.76 10.47-15.11 7.83-22.27-4.31-11.68-13.28-15.11-24.92-12.8-1.43-9.92-6.22-16-14.59-18.1-8.86-2.23-16 .76-21.39 8-.86-.32-1.16-1.16-1.7-1.77-5.49-6.17-12.22-8.3-20.09-6.18s-12.51 7.53-14 15.58a4.72 4.72 0 0 1 -.8 2.55c-11.06-2.08-19.43 1.46-23.6 10.07a19.16 19.16 0 0 0 -1.5 12.94c1.35 5.87 5 10 10.08 13.12-.82.65-1.5 1.12-2.1 1.68-5.8 5.37-8 12-6 19.6s7 12.14 14.55 14c4.07 1 8 .3 11.84-.86a27.85 27.85 0 0 0 8.45-7c.84 1.3 1.52 2.38 2.37 3.7a30.64 30.64 0 0 0 -10 4.1 41 41 0 0 0 -7.15 8.85c-2.2 3.61-4.44 7.22-8.12 9.59-.15.1-.2.35-.29.54-.17.78 0 1.42 1 2.08 4.66 0 9.54-2.41 14.32-1 3 6 6.9 10.73 13.69 12.23-1.16 1.83-2.52 3.21-2.32 5.26a5.45 5.45 0 0 0 4.42 3.88 37.75 37.75 0 0 0 17.13-1.1c2.73 3.84 7.1 5 11.36 6.09a10.61 10.61 0 0 0 8.91-1.7c3-2 3.73-4.77 2.11-8.05a20.2 20.2 0 0 0 -2.43-3.12c1.81-1.31 3.44-2.63 5.47-3.1a8.52 8.52 0 0 0 4.4-2.7c2.19-2.4 5-4.39 5.63-7.51 4.87-2.91 9.81-5 13.62-8.54a3.18 3.18 0 0 0 -1.74-2.4c-1.66-1-3.33-2.08-4.89-3.26-2.68-2-5.1-4.31-7.65-6.59a57.16 57.16 0 0 0 -8.52-4.73 3.37 3.37 0 0 1 1.43-2l2.3 2.71c.52.72 4.66 3.25 4.86 3.34l2.34.74a19.46 19.46 0 0 0 17.69-34.14z"/><path d="m98.41 94.35a3 3 0 0 1 -1.81-.61c-.11-.09-.23-.19-.33-.29a3 3 0 0 1 3.88-4.55l.14.1a3 3 0 0 1 -1.87 5.35z" fill="#fff"/><path d="m98.35 94.3a3 3 0 0 1 -1.7-.53h-.05a3 3 0 0 1 3.4-4.98l.1.06a3.7 3.7 0 0 1 .29.24 3 3 0 0 1 -2 5.21z" fill="#fff"/><path d="m79.49 143a13.82 13.82 0 0 1 -3.49-.46l-.2-.05c-3.88-1-8.21-2.19-11.45-5.54a40.91 40.91 0 0 1 -9.81 1.21 41.68 41.68 0 0 1 -6.74-.55 8.48 8.48 0 0 1 -6.8-5.83 2.9 2.9 0 0 1 -.15-.71 7.23 7.23 0 0 1 .72-3.9c-5.55-2.47-8.83-7-11.11-11.23a9.65 9.65 0 0 0 -1.23-.08 27.7 27.7 0 0 0 -5.12.69 32.93 32.93 0 0 1 -5.95.78 3 3 0 0 1 -1.62-.48 4.75 4.75 0 0 1 -2.35-5.24 3.48 3.48 0 0 1 .21-.62 3.6 3.6 0 0 1 1.39-1.8c3.17-2 5.21-5.39 7.18-8.63.82-1.33 1.67-2.6 2.57-3.8-.49 0-1 0-1.48 0a19.84 19.84 0 0 1 -4.77-.57c-8.74-2.14-14.52-7.74-16.72-16.19-2.13-8.19 0-15.71 6.1-21.8a22.45 22.45 0 0 1 -8.08-12.65 22.11 22.11 0 0 1 1.72-14.91c3.86-7.93 11.09-12.29 20.38-12.29a33.17 33.17 0 0 1 3.8.22c1.8-9.2 7.37-15.31 16.13-17.67a24.86 24.86 0 0 1 6.49-.9c6 0 11.38 2.43 15.92 7.21a21.38 21.38 0 0 1 15.97-7.21 25.82 25.82 0 0 1 6.27.81c8.67 2.19 14.14 8.11 16.29 17.61a34.94 34.94 0 0 1 4-.25c10.21 0 17.58 5.34 21.3 15.44a21.68 21.68 0 0 1 -5.86 23.39 22.37 22.37 0 0 1 5.72 27.7 22.14 22.14 0 0 1 -19.3 12.1l.21.16c1.39 1.06 2.89 2 4.48 3l.18.12a6.18 6.18 0 0 1 3.11 4.44 3 3 0 0 1 -.93 2.7 48.3 48.3 0 0 1 -9.91 6.54c-1 .58-2.13 1.17-3.2 1.79a16.92 16.92 0 0 1 -4.46 6c-.5.5-1 1-1.5 1.53a11.42 11.42 0 0 1 -5.94 3.6 6.33 6.33 0 0 0 -1.75.77 8.69 8.69 0 0 1 .73 1.2c2.3 4.65 1.16 9-3.13 11.87a13.78 13.78 0 0 1 -7.82 2.48z" fill="#fff"/><path d="m98.35 91.3s-.01-.01 0 0z" fill="#231815"/><path d="m120.26 58.68c-.71-.53-1.73-.75-2-1.76 8.36-5.76 10.47-15.11 7.83-22.27-4.31-11.68-13.28-15.11-24.92-12.8-1.43-9.92-6.22-16-14.59-18.1-8.86-2.23-16 .76-21.39 8-.86-.32-1.16-1.16-1.7-1.77-5.49-6.17-12.22-8.3-20.09-6.18s-12.51 7.53-14 15.58a4.72 4.72 0 0 1 -.8 2.55c-11.06-2.08-19.43 1.46-23.6 10.07a19.16 19.16 0 0 0 -1.5 12.94c1.35 5.87 5 10 10.08 13.12-.82.65-1.5 1.12-2.1 1.68-5.8 5.37-8 12-6 19.6s7 12.14 14.55 14c4.07 1 8 .3 11.84-.86a27.85 27.85 0 0 0 8.45-7c.84 1.3 1.52 2.38 2.37 3.7a30.64 30.64 0 0 0 -10 4.1 41 41 0 0 0 -7.15 8.85c-2.2 3.61-4.44 7.22-8.12 9.59-.15.1-.2.35-.29.54-.17.78 0 1.42 1 2.08 4.66 0 9.54-2.41 14.32-1 3 6 6.9 10.73 13.69 12.23-1.16 1.83-2.52 3.21-2.32 5.26a5.45 5.45 0 0 0 4.42 3.88 37.75 37.75 0 0 0 17.13-1.1c2.73 3.84 7.1 5 11.36 6.09a10.61 10.61 0 0 0 8.91-1.7c3-2 3.73-4.77 2.11-8.05a20.2 20.2 0 0 0 -2.43-3.12c1.81-1.31 3.44-2.63 5.47-3.1a8.52 8.52 0 0 0 4.4-2.7c2.19-2.4 5-4.39 5.63-7.51 4.87-2.91 9.81-5 13.62-8.54a3.18 3.18 0 0 0 -1.74-2.4c-1.66-1-3.33-2.08-4.89-3.26-2.68-2-5.1-4.31-7.65-6.59a57.16 57.16 0 0 0 -8.52-4.73 3.37 3.37 0 0 1 1.43-2l2.3 2.71c.52.72 4.66 3.25 4.86 3.34l2.34.74a19.46 19.46 0 0 0 17.69-34.14z" fill="#231815"/><path d="m41.25 79.71a20.17 20.17 0 0 0 11.81.44 10.26 10.26 0 0 0 7.11-5.9 5 5 0 0 0 .3-3.4c-3.33-.41-6.8.16-10.24 0s-6.72.82-10.24.43a23.24 23.24 0 0 1 3.92-13.88l22.82 15.8 22.71-16a24.5 24.5 0 0 1 4.1 14.09c-3.45-.15-6.78-.34-10.12-.41s-6.57 0-9.65 0a2.15 2.15 0 0 0 -.49 2.73c1.29 3.63 4 5.63 7.57 6.61a19.52 19.52 0 0 0 11-.33c-.93 7.67-10.63 16.91-20.9 18.23-13.57 1.71-25.95-5.84-29.7-18.41z" fill="#fdfdfd"/><path d="m85.92 134.4a8.87 8.87 0 0 1 -9.92 2.6c-1.57-.49-3.06-1.19-4.61-1.76a6.76 6.76 0 0 1 -4.11-8.94c4.25-1 8.54-1.27 12.7.91.63.32 1.33.52 2 .79 2.7 1 4.02 3.05 3.94 6.4z" fill="#c7c7c8"/><path d="m46.34 130.15a3.32 3.32 0 0 1 .28-.82c.48-.78 1-1.55 1.48-2.26a33.31 33.31 0 0 1 16.32-.2 15.3 15.3 0 0 0 0 3.71c-2.33 1.68-9.55 2.73-13.25 2s-3.66-.68-4.83-2.43z" fill="#c6c6c7"/><path d="m91.6 91.25a19.51 19.51 0 0 1 7.67 5c2.41 2.56 5.4 4.41 8.26 6.41.84.59 1.68 1.16 2.81 1.94a71.23 71.23 0 0 1 -9.08 5.36 1.17 1.17 0 0 1 -.84-1.09c0-3.84-1.73-7.12-3.33-10.44-.82-1.71-2.37-2.81-3.81-4-1-.82-2.26-1.51-2.38-3a.44.44 0 0 1 .7-.18z" fill="#fbed02"/><path d="m40.67 93.68c-5.2 4.22-7.06 10-7.76 16.73-2.76-.7-5.54-.09-8.34 0a6 6 0 0 0 -.58-.25c0-.1-.08-.2-.11-.3 2.54-3.7 4.73-7.64 7.55-11.14a15 15 0 0 1 8.49-5.63c.61-.27.83-.03.75.59z" fill="#fbed02"/><path d="m37.12 103.68a13.2 13.2 0 0 1 3.88 1.46c.7 4.94-.38 10 .77 15a44.41 44.41 0 0 0 -4.3-4.14 4.59 4.59 0 0 1 -1.57-3 18 18 0 0 1 1.22-9.32z" fill="#f9f9f9"/><path d="m92.81 105.25a12.13 12.13 0 0 1 4-1.61c.88 3.28 1.92 6.44 1 9.88a4.57 4.57 0 0 1 -1.32 2.39 46.06 46.06 0 0 0 -5 5.1c.44-3.15 1.38-5.49 1.32-8s0-5.13 0-7.76z" fill="#f9f9f9"/><path d="m65.54 105.43a2 2 0 0 1 0-.34 2.1 2.1 0 0 0 -.65-.74 2.51 2.51 0 0 0 -.65-.65 2.82 2.82 0 0 0 -.64-.65 2.78 2.78 0 0 0 -.64-.64 2.59 2.59 0 0 0 -.64-.64.55.55 0 0 1 -.17-.48c0-.18.06-.26.1-.26a1.59 1.59 0 0 1 .8-.21 2.37 2.37 0 0 1 1.2.2h4.84a2.1 2.1 0 0 1 1-.2 5.81 5.81 0 0 1 .72 0l.3.23a.73.73 0 0 1 -.13.68v-.05a3.88 3.88 0 0 0 -.62.66 3 3 0 0 0 -.64.64 3 3 0 0 0 -.64.64 2.6 2.6 0 0 0 -.63.65 2.33 2.33 0 0 0 -.45.73 2.33 2.33 0 0 0 -.64.65c-.42.21-.6 1-1.3.52a2.89 2.89 0 0 1 -.52-.74z" fill="#e40212"/><path d="m45 77.78c-2.32-.43-4.46-1.18-6-3.6h5.1c.53.78.46 2.18 1.55 2.9.17.59-.03.84-.65.7z" fill="#eceded"/><path d="m88.39 77a10.83 10.83 0 0 0 1.38-3h5a7 7 0 0 1 -5.7 3.56 2.34 2.34 0 0 0 -.55-.27z" fill="#f0f0f0"/><path d="m52.42 77.06 1.44-3.44c1-.53 2.15-.13 3.49-.3-.77 2.24-2.37 3.15-4.18 3.85a.56.56 0 0 1 -.75-.11z" fill="#e3e3e3"/><path d="m78.39 75.89a2.09 2.09 0 0 1 -1.19-1.16c1.24-1.61 2-1.5 3.11.47a.48.48 0 0 1 .14.49 5.08 5.08 0 0 0 .44.75l.23.6a.48.48 0 0 1 -.75 0l-.59-.23a1.14 1.14 0 0 1 -.6-.43 2 2 0 0 0 -.79-.49z" fill="#fdfdfd"/><path d="m80.31 75.2c-.53-.16-.55-.74-.88-1.12-.81 0-1.76-.55-2.23.65-.44-.16-.56-.57-.74-1 1.23-.68 2.45 0 3.47-.21a1.94 1.94 0 0 1 .38 1.68z" fill="#ddd"/><path d="m45 77.78a.74.74 0 0 0 .64-.7 1.49 1.49 0 0 1 1.11 1c-.67.37-1.26.44-1.75-.3z" fill="#625f5a"/><path d="m41.32 92.54c.34-.72.92-.59 1.53-.51-.11.62-.53.51-.87.56l-.35.23z" fill="#9e985e"/><path d="m66.14 106.16 1.3-.52a1.26 1.26 0 0 1 -.43 1.07.65.65 0 0 1 -.87-.55z" fill="#774f44"/><path d="m88.53 77.86c-.51.69-1.12.45-1.78.27.28-.51.69-.43 1-.45l.46-.28z" fill="#5b5854"/><path d="m63 101.16c-.2 0-.39.09-.59.12a.46.46 0 0 1 -.68 0l-.35-.39c.48-.5 1-.2 1.59-.2.21.09.29.2.22.31s-.08.16-.19.16z" fill="#7e745a"/><path d="m40.67 93.68c-.1-.39-.41-.51-.75-.59.32-.55.88-.49 1.4-.55v.17c.16.1.21.21.16.32s-.11.17-.16.17c-.11.29-.32.52-.65.48z" fill="#f2e30b"/><path d="m52.42 77.06.75.11a.71.71 0 0 1 -1.1.4c-.07-.33.06-.46.35-.51z" fill="#676767"/><path d="m80.37 77.08h.75a.37.37 0 0 1 .51 0c.17.14.21.27.14.38s-.13.16-.2.16a1 1 0 0 1 -1.2-.54z" fill="#a1a2a2"/><path d="m91.6 91.25-.7.12-.42-.37c.52-.47.85-.29 1.12.25z" fill="#887c58"/><path d="m71.09 100.71a1 1 0 0 1 1 .15l-.33.37a.41.41 0 0 1 -.66 0c-.2-.13-.26-.25-.2-.38s.1-.14.19-.14z" fill="#bd4d31"/><path d="m82.22 77.67c.38 0 .8-.07 1.09.33-.56.49-.86.21-1.07-.35z" fill="#151413"/><path d="m70.47 101.16h-1.3c.28-.64.81-.52 1.33-.45.14.12.19.22.13.33s-.11.12-.16.12z" fill="#55504d"/><path d="m63 101.16a3.87 3.87 0 0 0 0-.48c.52-.06 1.05-.17 1.32.46z" fill="#55504d"/><path d="m41.32 93.2v-.49l.66-.12c.02.41-.29.57-.66.61z" fill="#dbce36"/><path d="m88.53 77.86-.73-.18a.65.65 0 0 1 .59-.64.25.25 0 0 1 .29.07.6.6 0 0 1 -.23.55z" fill="#b8b9b9"/><path d="m88.45 77.66a.59.59 0 0 1 .23-.55l.38.48z" fill="#fdfdfd"/><path d="m51 77.81c.06.07.17.16.15.18-.12.23-.24.22-.32 0-.06-.05.06-.12.17-.18z" fill="#151413"/><path d="m70.47 101.16a3.71 3.71 0 0 1 0-.47.71.71 0 0 1 .59 0v.56z" fill="#887c58"/><path d="m61.77 101.27h.68a4.18 4.18 0 0 0 -.05.61.69.69 0 0 1 -.63-.61z" fill="#bd4d31"/><path d="m81.57 77.6a2.48 2.48 0 0 0 .06-.54.58.58 0 0 1 .59.61z" fill="#55504d"/><path d="m71.06 101.24h.66a.7.7 0 0 1 -.61.67z" fill="#887c58"/><g fill="#bd4d31"><path d="m62.38 101.87a.63.63 0 0 1 .64.64.72.72 0 0 1 -.64-.64z"/><path d="m70.48 102.51a.66.66 0 0 1 .62-.66.68.68 0 0 1 -.62.66z"/><path d="m63 102.49a.63.63 0 0 1 .64.64.72.72 0 0 1 -.64-.64z"/><path d="m69.86 103.13a.63.63 0 0 1 .64-.64.71.71 0 0 1 -.64.64z"/><path d="m63.62 103.11a.63.63 0 0 1 .64.65.68.68 0 0 1 -.64-.65z"/><path d="m69.24 103.75a.63.63 0 0 1 .64-.64.71.71 0 0 1 -.64.64z"/><path d="m64.23 103.73a.64.64 0 0 1 .65.65.66.66 0 0 1 -.65-.65z"/><path d="m68.63 104.38a.62.62 0 0 1 .63-.65.68.68 0 0 1 -.63.65z"/><path d="m64.85 104.35a.66.66 0 0 1 .65.74.85.85 0 0 1 -.65-.74z"/><path d="m68 105a.62.62 0 0 1 .64-.65.65.65 0 0 1 -.64.65z"/><path d="m67.39 105.62a.62.62 0 0 1 .61-.62.65.65 0 0 1 -.61.62z"/></g><path d="m65.54 105.43a.91.91 0 0 1 .61.78.66.66 0 0 1 -.61-.78z" fill="#55504d"/><path d="m24 110.47c-.16 0-.42 0-.46-.06-.16-.31.06-.46.34-.55l.19.09a.31.31 0 0 1 -.07.52z" fill="#dbce36"/><path d="m24 110.47a.73.73 0 0 1 .07-.52.49.49 0 0 1 .5.46l-.28.11z" fill="#fdef00"/><path d="m79.18 76.42a.52.52 0 0 1 .6.43c-.38.15-.5-.15-.6-.43z" fill="#ddd"/><path d="m80.89 76.44a.57.57 0 0 1 -.44-.75.72.72 0 0 1 .44.75z" fill="#ddd"/><path d="m78.39 75.89a.61.61 0 0 1 .77.52.69.69 0 0 1 -.77-.52z" fill="#ddd"/><path d="m65.66 95.76c.83.61 2 .81 2.37 1.86.38 2.19-2.06 1.23-2.63 2.33.07.88.73 1.19 1.33 1.55.86.3 1.5-.82 2.38-.34s.93 1.22.63 2.07c-2.55 1.41-4.43 1.29-6.15-.38a3.11 3.11 0 0 1 -1.16-2.12c0-2 .51-3.9.44-5.92-.06-1.49 1.46-2.16 2.83-2.41a5.65 5.65 0 0 1 4.62.83 1.8 1.8 0 0 1 .07 1.87c-1.39 1.46-3.39-1.41-4.73.66z" fill="#030302"/></svg>