<svg xmlns="http://www.w3.org/2000/svg" viewBox="0 0 187.97 21.79"><defs><style>.cls-1{fill:#fff;}.cls-2{fill:#231815;}</style></defs><g id="レイヤー_2" data-name="レイヤー 2"><g id="レイヤー_1-2" data-name="レイヤー 1"><path d="M9.11,4.05A5.34,5.34,0,0,0,9,3h2.4a6.15,6.15,0,0,0-.08,1h4.47c.89,0,1.4,0,1.92-.06a7.27,7.27,0,0,0-.07,1.18V6.39a8.52,8.52,0,0,0,.07,1.2H15.6V5.79H5.15v1.8H3a9.14,9.14,0,0,0,.08-1.22V5.17c0-.42,0-.75-.06-1.18.5,0,1,.06,1.92.06ZM3.8,13.83a17.56,17.56,0,0,0-.07-1.77,15.45,15.45,0,0,0,1.74.07h9.78A15.85,15.85,0,0,0,17,12.06a13.28,13.28,0,0,0-.07,1.77v2.92A17,17,0,0,0,17,18.67H14.87v-.56h-9v.56H3.7a14.51,14.51,0,0,0,.1-1.9Zm11.92-3.4a7.45,7.45,0,0,0,0,1.2c-.53,0-1.08-.05-1.6-.05H6.56c-.54,0-1.06,0-1.61.05A7.55,7.55,0,0,0,5,10.43v-1A8.77,8.77,0,0,0,5,8.22c.54,0,1,.06,1.61.06h7.62c.62,0,1.06,0,1.59-.06a8.28,8.28,0,0,0,0,1.21ZM5.64,6.25a10.31,10.31,0,0,0,1.22.06h7a10.38,10.38,0,0,0,1.23-.06V7.79c-.38,0-.77,0-1.23,0h-7c-.43,0-.82,0-1.18,0Zm.23,8.12H9.23v-.69H5.87Zm0,2.12H9.23v-.74H5.87Zm1.22-6.9v.67h6.56V9.59Zm4.19,4.78h3.59v-.69H11.28Zm0,2.12h3.59v-.74H11.28Z"/><path d="M25.77,5a13.65,13.65,0,0,0-.12-1.76h2.57A12.37,12.37,0,0,0,28.1,5V15.3h3.66V7.86a11.16,11.16,0,0,0-.1-1.62h2.45A15.14,15.14,0,0,0,34,7.86v8.51a19.82,19.82,0,0,0,.12,2.19H31.76V17.44H22.38v1.12H20a18.19,18.19,0,0,0,.1-2.16V7.89A12.94,12.94,0,0,0,20,6.24h2.42a15,15,0,0,0-.06,1.65V15.3h3.39Z"/><path d="M41.29,11.18h1a10.91,10.91,0,0,0,1.62-.08v2.07a13.68,13.68,0,0,0-1.62-.07H42a6.52,6.52,0,0,0,1.55,1.3c-.35.67-.65,1.29-.92,1.92a8.11,8.11,0,0,1-1.39-1.53c0,.7,0,1,0,1.2v1.33a7.5,7.5,0,0,0,.08,1.37H39.15a6.83,6.83,0,0,0,.08-1.28V16.14c0-.29,0-.67,0-1a7.82,7.82,0,0,1-2.59,2.77,7.76,7.76,0,0,0-.92-2.08,8.65,8.65,0,0,0,2.82-2.69h-.91a11.37,11.37,0,0,0-1.61.08V11.1a11.31,11.31,0,0,0,1.64.08h1.53v-1H37.65a11.74,11.74,0,0,0-1.6.07V8.14a9.93,9.93,0,0,0,1.68.08,10.9,10.9,0,0,0-.4-1.88c-.42,0-.62,0-.95.07V4.35A9.7,9.7,0,0,0,38,4.44h1.12v-.1a7.61,7.61,0,0,0-.08-1.26h2.38a7.17,7.17,0,0,0-.08,1.26v.1h.92a9.71,9.71,0,0,0,1.64-.09V6.41a7.53,7.53,0,0,0-.89,0,15.33,15.33,0,0,1-.43,1.86A7.72,7.72,0,0,0,44,8.14v2.11a12.24,12.24,0,0,0-1.62-.07H41.29Zm-.59-3a9.57,9.57,0,0,0,.37-1.88H39.3l.07.18a9.86,9.86,0,0,1,.35,1.7Zm9.42-.1A7.88,7.88,0,0,0,51.65,8v2.19a8.28,8.28,0,0,0-1.28-.07h-.32V16.6a13.69,13.69,0,0,0,.1,2.11H47.81a12.54,12.54,0,0,0,.11-2.11V10.14H46.58c-.08,4.21-.63,6.52-2,8.65a9.27,9.27,0,0,0-2-1.28c1.6-2.11,2-4,2-10.75a19.16,19.16,0,0,0-.1-2.32,21,21,0,0,0,3.89-.71A5.6,5.6,0,0,0,50,3l1.62,2a4,4,0,0,0-.59.18,24,24,0,0,1-4.4,1V8.12Z"/><path d="M55.42,16.54a17.09,17.09,0,0,0,.1,2.12h-2.3a15.58,15.58,0,0,0,.1-2.16V5.44a18.34,18.34,0,0,0-.07-1.89A15.2,15.2,0,0,0,55,3.62h3.25a13.45,13.45,0,0,0,1.7-.07c0,.53,0,.9,0,1.54V7.56A12.89,12.89,0,0,0,59.9,9c-.35,0-1,0-1.46,0h-3Zm0-10.85h2.49v-.6H55.42Zm0,1.9h2.49V7H55.42Zm1.72,3.67c-.6,0-.66,0-1,.07V9.56a13.12,13.12,0,0,0,1.56.07h5.57a13.34,13.34,0,0,0,1.56-.07v1.77a9.62,9.62,0,0,0-1.09-.07v5.48a10.82,10.82,0,0,0,.07,1.5h-2a11.88,11.88,0,0,0,.07-1.55l-4.62.53a5.61,5.61,0,0,0-.94.15l-.23-1.87a2.51,2.51,0,0,0,.35,0l.73,0Zm1.86.52h2.85v-.55H59Zm0,1.74h2.85V13H59Zm0,1.87c.8-.05.86-.07,2.35-.22l.5-.05v-.43H59Zm8.58,1c0,1.82-.37,2.15-2.36,2.15l-.82,0a6.53,6.53,0,0,0-.5-2.1,10.29,10.29,0,0,0,1,.08c.45,0,.53-.06.53-.41V9H62.32c-.54,0-1,0-1.45,0,0-.36,0-.73,0-1.48V5.09c0-.62,0-1.07,0-1.54a14.65,14.65,0,0,0,1.7.07h3.39a15,15,0,0,0,1.7-.07c0,.55-.06,1-.06,1.87ZM62.89,5.69h2.58v-.6H62.89Zm0,1.9h2.58V7H62.89Z"/><path d="M74,17a11.52,11.52,0,0,0,.08,1.73H71.71a12,12,0,0,0,.1-1.78V13.07a11.44,11.44,0,0,1-1.68,1.23,8.4,8.4,0,0,0-.95-2.05,11.56,11.56,0,0,0,2.75-2.09,8.53,8.53,0,0,0,1.75-2.45H71.16a11.4,11.4,0,0,0-1.43.06V5.62a9.3,9.3,0,0,0,1.3.07h.8V4.37a7.43,7.43,0,0,0-.1-1.27h2.32A6.68,6.68,0,0,0,74,4.39v1.3h.58a6.67,6.67,0,0,0,1-.05l.94,1a6.58,6.58,0,0,0-.39.75,13.25,13.25,0,0,1-1.58,2.77,8.93,8.93,0,0,0,2.65,2.09,10.33,10.33,0,0,0-1.07,2A8.4,8.4,0,0,1,74,12.45Zm7.22-1h1.67a15.42,15.42,0,0,0,2-.09v2.29a18.06,18.06,0,0,0-2-.1H77.29a16.77,16.77,0,0,0-1.9.1V15.9a15.53,15.53,0,0,0,1.93.09h1.62V9.69H77.87c-.55,0-1.08,0-1.63.09V7.52a14.19,14.19,0,0,0,1.63.09h1.07V5a15.59,15.59,0,0,0-.1-1.86h2.45A13.21,13.21,0,0,0,81.19,5V7.61h1.54a10.3,10.3,0,0,0,1.65-.09V9.78c-.56,0-1.07-.09-1.65-.09H81.19Z"/><path d="M96.06,10.9a2.25,2.25,0,1,1-2.25-2.26A2.24,2.24,0,0,1,96.06,10.9Z"/><path d="M104.68,9a9.52,9.52,0,0,0-1.62.09V6.81a10.74,10.74,0,0,0,1.62.08H107V5.25a12.06,12.06,0,0,0-.1-2h2.46a11.85,11.85,0,0,0-.1,2v11.3a13,13,0,0,0,.1,2.11h-2.46a13.48,13.48,0,0,0,.1-2.14V14.89c-.92.5-1.77.91-2.85,1.38-.37.15-.55.23-.79.35l-.68-2.35a7,7,0,0,0,1.38-.39A23.47,23.47,0,0,0,107,12.62V9Zm8.58,6.8c0,.35.2.43,1,.43,1.07,0,1.42-.1,1.58-.43a10.16,10.16,0,0,0,.27-3.19,11.09,11.09,0,0,0,2.09.83c-.1,2.54-.4,3.78-1.07,4.31-.5.4-1.19.52-2.94.52a6.38,6.38,0,0,1-2.35-.22c-.6-.28-.84-.73-.84-1.65V5.25a11.59,11.59,0,0,0-.1-2h2.41a12.13,12.13,0,0,0-.1,2v3a13.79,13.79,0,0,0,3.42-2.64l1.57,1.86a2.45,2.45,0,0,0-.5.38c-.47.37-1.82,1.3-2.64,1.8-.64.39-1.15.67-1.85,1Z"/><path d="M119.8,18.61a19.07,19.07,0,0,0,.1-2.24V5.47c0-.8,0-1.35-.09-2a16.67,16.67,0,0,0,2,.09h10.8a15.81,15.81,0,0,0,2-.09c0,.6-.08,1.17-.08,2V16.39a17.86,17.86,0,0,0,.1,2.22H132.3v-.7H122.05v.7ZM122,16.19H132.4V5.37H122Zm5.5-2.49a7.18,7.18,0,0,0,.78-.78,21.49,21.49,0,0,1-.84-4.76H124a9.89,9.89,0,0,0-1.52.08V6.42a8.45,8.45,0,0,0,1.5.1h3.32c0-.18,0-.18,0-.48a1.44,1.44,0,0,0,0-.32h1.9a3.31,3.31,0,0,0-.07.8h.81a5,5,0,0,0-.49-.63l1.25-.49a6.57,6.57,0,0,1,.69,1.11l.58,0V8.22a13,13,0,0,0-1.57-.06h-1.22a21.52,21.52,0,0,0,.37,2.85,7.35,7.35,0,0,0,.72-2.32l1.64.67A17.66,17.66,0,0,1,130.15,13c.28.63.53,1,.66,1s.25-.45.37-1.45a4.1,4.1,0,0,0,1.17,1.07c-.32,1.58-.82,2.28-1.62,2.28s-1.19-.41-1.75-1.36a8.12,8.12,0,0,1-1.49,1.36,5.6,5.6,0,0,0-1.17-1.3l-.53.12c-.43.1-.9.18-1.4.25a13.46,13.46,0,0,0-1.77.32l-.3-1.87h.33c.17,0,1,0,1.67-.11a21.87,21.87,0,0,0,3.16-.49ZM123,9.94a10.27,10.27,0,0,0,0-1.18c.36,0,.67,0,1.07,0h2.06c.46,0,.8,0,1.1,0a7.81,7.81,0,0,0,0,1.12v1.55a11.72,11.72,0,0,0,0,1.22,8.18,8.18,0,0,0-.93,0H124a9.72,9.72,0,0,0-1.07,0,11.28,11.28,0,0,0,0-1.29Zm1.51,1.26h1.17v-1h-1.17Z"/><path d="M141.43,11.18h1a10.91,10.91,0,0,0,1.62-.08v2.07a13.68,13.68,0,0,0-1.62-.07h-.31a6.52,6.52,0,0,0,1.55,1.3c-.35.67-.65,1.29-.92,1.92a7.79,7.79,0,0,1-1.39-1.53c0,.7,0,1,0,1.2v1.33a7.5,7.5,0,0,0,.08,1.37h-2.22a6.83,6.83,0,0,0,.08-1.28V16.14c0-.29,0-.67,0-1a7.82,7.82,0,0,1-2.59,2.77,7.76,7.76,0,0,0-.92-2.08,8.65,8.65,0,0,0,2.82-2.69h-.92a11.3,11.3,0,0,0-1.6.08V11.1a11.31,11.31,0,0,0,1.64.08h1.53v-1h-1.58a11.74,11.74,0,0,0-1.6.07V8.14a9.93,9.93,0,0,0,1.68.08,11.93,11.93,0,0,0-.4-1.88c-.42,0-.62,0-.95.07V4.35a9.7,9.7,0,0,0,1.65.09h1.12v-.1a7.61,7.61,0,0,0-.08-1.26h2.38a7.17,7.17,0,0,0-.08,1.26v.1h.92a9.51,9.51,0,0,0,1.63-.09V6.41a7.23,7.23,0,0,0-.88,0,15.33,15.33,0,0,1-.43,1.86,7.72,7.72,0,0,0,1.42-.08v2.11a12.24,12.24,0,0,0-1.62-.07h-1.12Zm-.59-3a9.57,9.57,0,0,0,.37-1.88h-1.77l.07.18a9.86,9.86,0,0,1,.35,1.7Zm9.42-.1a7.88,7.88,0,0,0,1.53-.1v2.19a8.28,8.28,0,0,0-1.28-.07h-.32V16.6a13.69,13.69,0,0,0,.1,2.11H148a12.78,12.78,0,0,0,.1-2.11V10.14h-1.33c-.08,4.21-.64,6.52-2.05,8.65a9.27,9.27,0,0,0-2-1.28c1.6-2.11,1.95-4,1.95-10.75a19.16,19.16,0,0,0-.1-2.32,21,21,0,0,0,3.89-.71,5.6,5.6,0,0,0,1.69-.7l1.62,2a4,4,0,0,0-.59.18,24,24,0,0,1-4.4,1V8.12Z"/><path d="M155.56,16.54a17.09,17.09,0,0,0,.1,2.12h-2.3a15.58,15.58,0,0,0,.1-2.16V5.44a18.34,18.34,0,0,0-.07-1.89,15.2,15.2,0,0,0,1.71.07h3.25a13.45,13.45,0,0,0,1.7-.07c0,.53-.05.9-.05,1.54V7.56A12.89,12.89,0,0,0,160,9c-.35,0-1,0-1.46,0h-3Zm0-10.85h2.49v-.6h-2.49Zm0,1.9h2.49V7h-2.49Zm1.72,3.67c-.6,0-.67,0-1,.07V9.56a13.12,13.12,0,0,0,1.56.07h5.57a13,13,0,0,0,1.55-.07v1.77a9.26,9.26,0,0,0-1.08-.07v5.48a10.82,10.82,0,0,0,.07,1.5h-2a11.88,11.88,0,0,0,.07-1.55l-4.62.53a5.61,5.61,0,0,0-.94.15l-.23-1.87a2.44,2.44,0,0,0,.35,0l.73,0Zm1.86.52H162v-.55h-2.85Zm0,1.74H162V13h-2.85Zm0,1.87c.8-.05.86-.07,2.35-.22l.5-.05v-.43h-2.85Zm8.58,1c0,1.82-.37,2.15-2.36,2.15l-.82,0a6.53,6.53,0,0,0-.5-2.1,10.29,10.29,0,0,0,1,.08c.45,0,.53-.06.53-.41V9h-3.15c-.54,0-1,0-1.45,0,0-.36,0-.73,0-1.48V5.09c0-.62,0-1.07,0-1.54a14.65,14.65,0,0,0,1.7.07h3.39a15,15,0,0,0,1.7-.07c-.05.55-.06,1-.06,1.87ZM163,5.69h2.59v-.6H163Zm0,1.9h2.59V7H163Z"/><path d="M174.11,17a11.52,11.52,0,0,0,.08,1.73h-2.34a12,12,0,0,0,.1-1.78V13.07a11.44,11.44,0,0,1-1.68,1.23,8.4,8.4,0,0,0-1-2.05,11.56,11.56,0,0,0,2.75-2.09,8.73,8.73,0,0,0,1.75-2.45H171.3a11.4,11.4,0,0,0-1.43.06V5.62a9.3,9.3,0,0,0,1.3.07h.8V4.37a7.43,7.43,0,0,0-.1-1.27h2.32a6.68,6.68,0,0,0-.1,1.29v1.3h.58a6.67,6.67,0,0,0,1-.05l.94,1a6.58,6.58,0,0,0-.39.75,13.25,13.25,0,0,1-1.58,2.77,8.93,8.93,0,0,0,2.65,2.09,10.33,10.33,0,0,0-1.07,2,8.4,8.4,0,0,1-2.08-1.78Zm7.22-1H183a15.42,15.42,0,0,0,2-.09v2.29a18.06,18.06,0,0,0-1.95-.1h-5.59a17.07,17.07,0,0,0-1.91.1V15.9a15.8,15.8,0,0,0,1.94.09h1.62V9.69H178c-.55,0-1.08,0-1.63.09V7.52a14.19,14.19,0,0,0,1.63.09h1.07V5a15.59,15.59,0,0,0-.1-1.86h2.45a13.21,13.21,0,0,0-.1,1.86V7.61h1.54a10.3,10.3,0,0,0,1.65-.09V9.78c-.56,0-1.07-.09-1.65-.09h-1.54Z"/><path class="cls-1" d="M14.87,21.67a3,3,0,0,1-1.76-.56H7.63a3,3,0,0,1-1.76.56H3.7a3,3,0,0,1-2.25-1A3,3,0,0,1,.72,18.3,10.94,10.94,0,0,0,.8,16.77V13.83a14.46,14.46,0,0,0-.05-1.5,3,3,0,0,1,.68-2.18,3.07,3.07,0,0,1-.67-.57A3,3,0,0,1,0,7.23a5.26,5.26,0,0,0,.06-.86V5.17c0-.27,0-.49,0-.74V4.22A3,3,0,0,1,3,1h.29a16,16,0,0,0,1.63.05H6.75A3,3,0,0,1,9,0h2.4a3,3,0,0,1,2.28,1.05h2.11c.8,0,1.23,0,1.63-.05h.29a3,3,0,0,1,2.18.93,3,3,0,0,1,.79,2.51,4.13,4.13,0,0,0,0,.74V6.39a6,6,0,0,0,0,.79,3,3,0,0,1-1.4,3A3,3,0,0,1,20,12.4a10.22,10.22,0,0,0,0,1.43v2.92A14.23,14.23,0,0,0,20,18.29a3,3,0,0,1-3,3.38Z"/><path class="cls-1" d="M31.76,21.56a3,3,0,0,1-2.34-1.12H24.71a3,3,0,0,1-2.33,1.12H20a3,3,0,0,1-3-3.33,15.66,15.66,0,0,0,.08-1.83V7.89a10.13,10.13,0,0,0-.07-1.27,3,3,0,0,1,3-3.38h2.63a3,3,0,0,1,3-3h2.57a3,3,0,0,1,3,3,3.15,3.15,0,0,1,.44,0h2.45a3,3,0,0,1,2.25,1,3,3,0,0,1,.73,2.34A11.54,11.54,0,0,0,37,7.86v8.51a16.06,16.06,0,0,0,.1,1.86,3,3,0,0,1-3,3.33Z"/><path class="cls-1" d="M44.53,21.79a3,3,0,0,1-1.66-.5,3,3,0,0,1-1.5.4H39.15a3,3,0,0,1-2.08-.84,2.55,2.55,0,0,1-.39,0,2.94,2.94,0,0,1-1-.17,3,3,0,0,1-1.88-2,4.51,4.51,0,0,0-.59-1.32,3,3,0,0,1,0-3.17,3.09,3.09,0,0,1-.17-1V11.1c0-.13,0-.25,0-.37a3.87,3.87,0,0,1,0-.48V8.14a3,3,0,0,1,.35-1.41c0-.11,0-.22,0-.32V4.35a3,3,0,0,1,3-3h.23a1.84,1.84,0,0,1,.17-.22A3,3,0,0,1,39.07.08h2.38a3,3,0,0,1,2.29,1.06l.17.21h0a2.46,2.46,0,0,1,.6.07,20.83,20.83,0,0,0,3-.58,3.69,3.69,0,0,0,.76-.28A3.07,3.07,0,0,1,50,0a3,3,0,0,1,2.31,1.09L53.9,3.07a3,3,0,0,1,.55,2.83,3.43,3.43,0,0,1-.25.55A3,3,0,0,1,54.65,8v2.19a3,3,0,0,1-1,2.26,2.85,2.85,0,0,1-.58.4V16.6a10.82,10.82,0,0,0,.07,1.65,3,3,0,0,1-3,3.46H47.81a3,3,0,0,1-1.58-.45,3.15,3.15,0,0,1-1.24.5A3.55,3.55,0,0,1,44.53,21.79Z"/><path class="cls-1" d="M53.22,21.66a3,3,0,0,1-3-3.39,15,15,0,0,0,.07-1.77V5.44c0-.88,0-1.22,0-1.61a3,3,0,0,1,3-3.28l.3,0c.37,0,.65.05,1.41.05h3.25A11.56,11.56,0,0,0,59.57.57l.34,0a2.42,2.42,0,0,1,.47,0,2.49,2.49,0,0,1,.47,0l.3,0a13.68,13.68,0,0,0,1.4.05h3.39c.75,0,1,0,1.41-.05l.29,0a3,3,0,0,1,3,3.27c0,.46,0,.84,0,1.6v11c0,4.62-3.06,5.15-5.36,5.15h0l-.87,0a2.93,2.93,0,0,1-1.19-.28H61.78a3,3,0,0,1-2.23-1l-.2-.24-1.22.14a2.62,2.62,0,0,1-.34.48,3,3,0,0,1-2.27,1Z"/><path class="cls-1" d="M71.71,21.69a3,3,0,0,1-3-3.38A8.9,8.9,0,0,0,68.81,17a3,3,0,0,1-1.52-1.74,5.39,5.39,0,0,0-.62-1.36,3,3,0,0,1,.82-4.13,3,3,0,0,1-.76-2V5.62a3,3,0,0,1,1-2.25,2.92,2.92,0,0,1,1-.58,3,3,0,0,1,3-2.69h2.32a3,3,0,0,1,2.3,1.08l.11.13c.05-.06.1-.13.16-.19a3,3,0,0,1,2.22-1h2.45a3,3,0,0,1,3,3.39,6.41,6.41,0,0,0-.07,1h.18a3,3,0,0,1,3,3V9.78a3,3,0,0,1-3,3h-.19V13l.3,0,.34,0a3,3,0,0,1,3,3v2.29a3,3,0,0,1-3,3l-.32,0c-.48-.05-1.09-.08-1.63-.08H77.29c-.53,0-1.05,0-1.55.08a3,3,0,0,1-1.69.52Z"/><path class="cls-1" d="M93.81,16.15a5.26,5.26,0,1,1,5.25-5.25A5.26,5.26,0,0,1,93.81,16.15Z"/><path class="cls-1" d="M106.91,21.66a3,3,0,0,1-2.26-1,2.84,2.84,0,0,1-.6-1.07,3.08,3.08,0,0,1-.68.07,3,3,0,0,1-2.88-2.16l-.68-2.35a3,3,0,0,1,1.57-3.54l-.27-.21a3,3,0,0,1-1-2.28V6.81a3,3,0,0,1,3-3l.44,0,.47,0,0-.22a3,3,0,0,1,3-3.41h2.46a3,3,0,0,1,.79.11A3,3,0,0,1,111,.25h2.41a3,3,0,0,1,2.26,1,3.05,3.05,0,0,1,.67,1.36l.34,0h0a3,3,0,0,1,2.3,1l1.57,1.85a3,3,0,0,1-.68,4.47l-.1.07a1.07,1.07,0,0,1-.16.14c-.12.1-.29.22-.49.36a3,3,0,0,1,2.13,3c-.09,2.5-.34,5.06-2.19,6.53-1.36,1.09-2.92,1.18-4.81,1.18a10.78,10.78,0,0,1-3-.27,3,3,0,0,1-1.88.67Z"/><path class="cls-1" d="M132.3,21.61a3,3,0,0,1-1.93-.7H124a3,3,0,0,1-1.93.7H119.8a3,3,0,0,1-3-3.37,14.4,14.4,0,0,0,.08-1.87V5.47c0-.68,0-1.14-.08-1.75a3,3,0,0,1,3-3.24l.32,0a14.53,14.53,0,0,0,1.67.07h10.8A13,13,0,0,0,134.23.5l.34,0a3,3,0,0,1,3,3.25c-.05.54-.07,1-.07,1.74V16.39a17,17,0,0,0,.07,1.83,3,3,0,0,1-3,3.39Z"/><path class="cls-1" d="M144.67,21.79a3,3,0,0,1-1.66-.5,3,3,0,0,1-1.5.4h-2.22a3,3,0,0,1-2.08-.84,2.55,2.55,0,0,1-.39,0,2.94,2.94,0,0,1-1-.17,3,3,0,0,1-1.88-2,4.51,4.51,0,0,0-.59-1.32,3,3,0,0,1,0-3.17,3.09,3.09,0,0,1-.17-1V11.1c0-.13,0-.25,0-.37a3.87,3.87,0,0,1,0-.48V8.14a3,3,0,0,1,.35-1.41c0-.11,0-.22,0-.32V4.35a3,3,0,0,1,3-3h.23a1.84,1.84,0,0,1,.17-.22A3,3,0,0,1,139.21.08h2.38a3,3,0,0,1,2.29,1.06l.16.21h0a2.48,2.48,0,0,1,.61.07,20.83,20.83,0,0,0,3-.58,3.69,3.69,0,0,0,.76-.28A3.07,3.07,0,0,1,150.11,0a3,3,0,0,1,2.31,1.09L154,3.07a3,3,0,0,1,.55,2.83,3.43,3.43,0,0,1-.25.55A3,3,0,0,1,154.79,8v2.19a3,3,0,0,1-1,2.26,2.54,2.54,0,0,1-.57.4V16.6a10.82,10.82,0,0,0,.07,1.65,3,3,0,0,1-3,3.46H148a3,3,0,0,1-1.58-.45,3.15,3.15,0,0,1-1.24.5A3.55,3.55,0,0,1,144.67,21.79Z"/><path class="cls-1" d="M153.36,21.66a3,3,0,0,1-3-3.39,12.42,12.42,0,0,0,.08-1.77V5.44c0-.88,0-1.22-.05-1.61a3,3,0,0,1,3-3.28l.3,0c.37,0,.65.05,1.41.05h3.25a11.56,11.56,0,0,0,1.36-.05l.34,0a2.78,2.78,0,0,0,.94,0l.3,0a13.68,13.68,0,0,0,1.4.05h3.39c.75,0,1,0,1.41-.05l.29,0a3,3,0,0,1,3,3.27c0,.46-.05.84-.05,1.6v11c0,4.62-3.06,5.15-5.36,5.15h0l-.87,0a2.93,2.93,0,0,1-1.19-.28h-1.35a3,3,0,0,1-2.23-1l-.2-.24-1.22.14a2.62,2.62,0,0,1-.34.48,3,3,0,0,1-2.27,1Z"/><path class="cls-1" d="M171.85,21.69a3,3,0,0,1-3-3.38A8.9,8.9,0,0,0,169,17a3,3,0,0,1-1.52-1.74,5.39,5.39,0,0,0-.62-1.36,3,3,0,0,1,.82-4.13,3,3,0,0,1-.76-2V5.62a3,3,0,0,1,1-2.25,2.92,2.92,0,0,1,1-.58,3,3,0,0,1,3-2.69h2.32a3,3,0,0,1,2.3,1.08l.11.13c.05-.06.1-.13.16-.19a3,3,0,0,1,2.22-1h2.45a3,3,0,0,1,3,3.39,6.41,6.41,0,0,0-.07,1h.18a3,3,0,0,1,3,3V9.78a3,3,0,0,1-3,3h-.19V13l.3,0,.34,0a3,3,0,0,1,3,3v2.29a3,3,0,0,1-3,3l-.32,0c-.48-.05-1.09-.08-1.63-.08h-5.59c-.53,0-1.05,0-1.55.08a3,3,0,0,1-1.69.52Z"/><path class="cls-2" d="M9.11,4.05A5.34,5.34,0,0,0,9,3h2.4a6.15,6.15,0,0,0-.08,1h4.47c.89,0,1.4,0,1.92-.06a7.27,7.27,0,0,0-.07,1.18V6.39a8.52,8.52,0,0,0,.07,1.2H15.6V5.79H5.15v1.8H3a9.14,9.14,0,0,0,.08-1.22V5.17c0-.42,0-.75-.06-1.18.5,0,1,.06,1.92.06ZM3.8,13.83a17.56,17.56,0,0,0-.07-1.77,15.45,15.45,0,0,0,1.74.07h9.78A15.85,15.85,0,0,0,17,12.06a13.28,13.28,0,0,0-.07,1.77v2.92A17,17,0,0,0,17,18.67H14.87v-.56h-9v.56H3.7a14.51,14.51,0,0,0,.1-1.9Zm11.92-3.4a7.45,7.45,0,0,0,0,1.2c-.53,0-1.08-.05-1.6-.05H6.56c-.54,0-1.06,0-1.61.05A7.55,7.55,0,0,0,5,10.43v-1A8.77,8.77,0,0,0,5,8.22c.54,0,1,.06,1.61.06h7.62c.62,0,1.06,0,1.59-.06a8.28,8.28,0,0,0,0,1.21ZM5.64,6.25a10.31,10.31,0,0,0,1.22.06h7a10.38,10.38,0,0,0,1.23-.06V7.79c-.38,0-.77,0-1.23,0h-7c-.43,0-.82,0-1.18,0Zm.23,8.12H9.23v-.69H5.87Zm0,2.12H9.23v-.74H5.87Zm1.22-6.9v.67h6.56V9.59Zm4.19,4.78h3.59v-.69H11.28Zm0,2.12h3.59v-.74H11.28Z"/><path class="cls-2" d="M25.77,5a13.65,13.65,0,0,0-.12-1.76h2.57A12.37,12.37,0,0,0,28.1,5V15.3h3.66V7.86a11.16,11.16,0,0,0-.1-1.62h2.45A15.14,15.14,0,0,0,34,7.86v8.51a19.82,19.82,0,0,0,.12,2.19H31.76V17.44H22.38v1.12H20a18.19,18.19,0,0,0,.1-2.16V7.89A12.94,12.94,0,0,0,20,6.24h2.42a15,15,0,0,0-.06,1.65V15.3h3.39Z"/><path class="cls-2" d="M41.29,11.18h1a10.91,10.91,0,0,0,1.62-.08v2.07a13.68,13.68,0,0,0-1.62-.07H42a6.52,6.52,0,0,0,1.55,1.3c-.35.67-.65,1.29-.92,1.92a8.11,8.11,0,0,1-1.39-1.53c0,.7,0,1,0,1.2v1.33a7.5,7.5,0,0,0,.08,1.37H39.15a6.83,6.83,0,0,0,.08-1.28V16.14c0-.29,0-.67,0-1a7.82,7.82,0,0,1-2.59,2.77,7.76,7.76,0,0,0-.92-2.08,8.65,8.65,0,0,0,2.82-2.69h-.91a11.37,11.37,0,0,0-1.61.08V11.1a11.31,11.31,0,0,0,1.64.08h1.53v-1H37.65a11.74,11.74,0,0,0-1.6.07V8.14a9.93,9.93,0,0,0,1.68.08,10.9,10.9,0,0,0-.4-1.88c-.42,0-.62,0-.95.07V4.35A9.7,9.7,0,0,0,38,4.44h1.12v-.1a7.61,7.61,0,0,0-.08-1.26h2.38a7.17,7.17,0,0,0-.08,1.26v.1h.92a9.71,9.71,0,0,0,1.64-.09V6.41a7.53,7.53,0,0,0-.89,0,15.33,15.33,0,0,1-.43,1.86A7.72,7.72,0,0,0,44,8.14v2.11a12.24,12.24,0,0,0-1.62-.07H41.29Zm-.59-3a9.57,9.57,0,0,0,.37-1.88H39.3l.07.18a9.86,9.86,0,0,1,.35,1.7Zm9.42-.1A7.88,7.88,0,0,0,51.65,8v2.19a8.28,8.28,0,0,0-1.28-.07h-.32V16.6a13.69,13.69,0,0,0,.1,2.11H47.81a12.54,12.54,0,0,0,.11-2.11V10.14H46.58c-.08,4.21-.63,6.52-2,8.65a9.27,9.27,0,0,0-2-1.28c1.6-2.11,2-4,2-10.75a19.16,19.16,0,0,0-.1-2.32,21,21,0,0,0,3.89-.71A5.6,5.6,0,0,0,50,3l1.62,2a4,4,0,0,0-.59.18,24,24,0,0,1-4.4,1V8.12Z"/><path class="cls-2" d="M55.42,16.54a17.09,17.09,0,0,0,.1,2.12h-2.3a15.58,15.58,0,0,0,.1-2.16V5.44a18.34,18.34,0,0,0-.07-1.89A15.2,15.2,0,0,0,55,3.62h3.25a13.45,13.45,0,0,0,1.7-.07c0,.53,0,.9,0,1.54V7.56A12.89,12.89,0,0,0,59.9,9c-.35,0-1,0-1.46,0h-3Zm0-10.85h2.49v-.6H55.42Zm0,1.9h2.49V7H55.42Zm1.72,3.67c-.6,0-.66,0-1,.07V9.56a13.12,13.12,0,0,0,1.56.07h5.57a13.34,13.34,0,0,0,1.56-.07v1.77a9.62,9.62,0,0,0-1.09-.07v5.48a10.82,10.82,0,0,0,.07,1.5h-2a11.88,11.88,0,0,0,.07-1.55l-4.62.53a5.61,5.61,0,0,0-.94.15l-.23-1.87a2.51,2.51,0,0,0,.35,0l.73,0Zm1.86.52h2.85v-.55H59Zm0,1.74h2.85V13H59Zm0,1.87c.8-.05.86-.07,2.35-.22l.5-.05v-.43H59Zm8.58,1c0,1.82-.37,2.15-2.36,2.15l-.82,0a6.53,6.53,0,0,0-.5-2.1,10.29,10.29,0,0,0,1,.08c.45,0,.53-.06.53-.41V9H62.32c-.54,0-1,0-1.45,0,0-.36,0-.73,0-1.48V5.09c0-.62,0-1.07,0-1.54a14.65,14.65,0,0,0,1.7.07h3.39a15,15,0,0,0,1.7-.07c0,.55-.06,1-.06,1.87ZM62.89,5.69h2.58v-.6H62.89Zm0,1.9h2.58V7H62.89Z"/><path class="cls-2" d="M74,17a11.52,11.52,0,0,0,.08,1.73H71.71a12,12,0,0,0,.1-1.78V13.07a11.44,11.44,0,0,1-1.68,1.23,8.4,8.4,0,0,0-.95-2.05,11.56,11.56,0,0,0,2.75-2.09,8.53,8.53,0,0,0,1.75-2.45H71.16a11.4,11.4,0,0,0-1.43.06V5.62a9.3,9.3,0,0,0,1.3.07h.8V4.37a7.43,7.43,0,0,0-.1-1.27h2.32A6.68,6.68,0,0,0,74,4.39v1.3h.58a6.67,6.67,0,0,0,1-.05l.94,1a6.58,6.58,0,0,0-.39.75,13.25,13.25,0,0,1-1.58,2.77,8.93,8.93,0,0,0,2.65,2.09,10.33,10.33,0,0,0-1.07,2A8.4,8.4,0,0,1,74,12.45Zm7.22-1h1.67a15.42,15.42,0,0,0,2-.09v2.29a18.06,18.06,0,0,0-2-.1H77.29a16.77,16.77,0,0,0-1.9.1V15.9a15.53,15.53,0,0,0,1.93.09h1.62V9.69H77.87c-.55,0-1.08,0-1.63.09V7.52a14.19,14.19,0,0,0,1.63.09h1.07V5a15.59,15.59,0,0,0-.1-1.86h2.45A13.21,13.21,0,0,0,81.19,5V7.61h1.54a10.3,10.3,0,0,0,1.65-.09V9.78c-.56,0-1.07-.09-1.65-.09H81.19Z"/><path class="cls-2" d="M96.06,10.9a2.25,2.25,0,1,1-2.25-2.26A2.24,2.24,0,0,1,96.06,10.9Z"/><path class="cls-2" d="M104.68,9a9.52,9.52,0,0,0-1.62.09V6.81a10.74,10.74,0,0,0,1.62.08H107V5.25a12.06,12.06,0,0,0-.1-2h2.46a11.85,11.85,0,0,0-.1,2v11.3a13,13,0,0,0,.1,2.11h-2.46a13.48,13.48,0,0,0,.1-2.14V14.89c-.92.5-1.77.91-2.85,1.38-.37.15-.55.23-.79.35l-.68-2.35a7,7,0,0,0,1.38-.39A23.47,23.47,0,0,0,107,12.62V9Zm8.58,6.8c0,.35.2.43,1,.43,1.07,0,1.42-.1,1.58-.43a10.16,10.16,0,0,0,.27-3.19,11.09,11.09,0,0,0,2.09.83c-.1,2.54-.4,3.78-1.07,4.31-.5.4-1.19.52-2.94.52a6.38,6.38,0,0,1-2.35-.22c-.6-.28-.84-.73-.84-1.65V5.25a11.59,11.59,0,0,0-.1-2h2.41a12.13,12.13,0,0,0-.1,2v3a13.79,13.79,0,0,0,3.42-2.64l1.57,1.86a2.45,2.45,0,0,0-.5.38c-.47.37-1.82,1.3-2.64,1.8-.64.39-1.15.67-1.85,1Z"/><path class="cls-2" d="M119.8,18.61a19.07,19.07,0,0,0,.1-2.24V5.47c0-.8,0-1.35-.09-2a16.67,16.67,0,0,0,2,.09h10.8a15.81,15.81,0,0,0,2-.09c0,.6-.08,1.17-.08,2V16.39a17.86,17.86,0,0,0,.1,2.22H132.3v-.7H122.05v.7ZM122,16.19H132.4V5.37H122Zm5.5-2.49a7.18,7.18,0,0,0,.78-.78,21.49,21.49,0,0,1-.84-4.76H124a9.89,9.89,0,0,0-1.52.08V6.42a8.45,8.45,0,0,0,1.5.1h3.32c0-.18,0-.18,0-.48a1.44,1.44,0,0,0,0-.32h1.9a3.31,3.31,0,0,0-.07.8h.81a5,5,0,0,0-.49-.63l1.25-.49a6.57,6.57,0,0,1,.69,1.11l.58,0V8.22a13,13,0,0,0-1.57-.06h-1.22a21.52,21.52,0,0,0,.37,2.85,7.35,7.35,0,0,0,.72-2.32l1.64.67A17.66,17.66,0,0,1,130.15,13c.28.63.53,1,.66,1s.25-.45.37-1.45a4.1,4.1,0,0,0,1.17,1.07c-.32,1.58-.82,2.28-1.62,2.28s-1.19-.41-1.75-1.36a8.12,8.12,0,0,1-1.49,1.36,5.6,5.6,0,0,0-1.17-1.3l-.53.12c-.43.1-.9.18-1.4.25a13.46,13.46,0,0,0-1.77.32l-.3-1.87h.33c.17,0,1,0,1.67-.11a21.87,21.87,0,0,0,3.16-.49ZM123,9.94a10.27,10.27,0,0,0,0-1.18c.36,0,.67,0,1.07,0h2.06c.46,0,.8,0,1.1,0a7.81,7.81,0,0,0,0,1.12v1.55a11.72,11.72,0,0,0,0,1.22,8.18,8.18,0,0,0-.93,0H124a9.72,9.72,0,0,0-1.07,0,11.28,11.28,0,0,0,0-1.29Zm1.51,1.26h1.17v-1h-1.17Z"/><path class="cls-2" d="M141.43,11.18h1a10.91,10.91,0,0,0,1.62-.08v2.07a13.68,13.68,0,0,0-1.62-.07h-.31a6.52,6.52,0,0,0,1.55,1.3c-.35.67-.65,1.29-.92,1.92a7.79,7.79,0,0,1-1.39-1.53c0,.7,0,1,0,1.2v1.33a7.5,7.5,0,0,0,.08,1.37h-2.22a6.83,6.83,0,0,0,.08-1.28V16.14c0-.29,0-.67,0-1a7.82,7.82,0,0,1-2.59,2.77,7.76,7.76,0,0,0-.92-2.08,8.65,8.65,0,0,0,2.82-2.69h-.92a11.3,11.3,0,0,0-1.6.08V11.1a11.31,11.31,0,0,0,1.64.08h1.53v-1h-1.58a11.74,11.74,0,0,0-1.6.07V8.14a9.93,9.93,0,0,0,1.68.08,11.93,11.93,0,0,0-.4-1.88c-.42,0-.62,0-.95.07V4.35a9.7,9.7,0,0,0,1.65.09h1.12v-.1a7.61,7.61,0,0,0-.08-1.26h2.38a7.17,7.17,0,0,0-.08,1.26v.1h.92a9.51,9.51,0,0,0,1.63-.09V6.41a7.23,7.23,0,0,0-.88,0,15.33,15.33,0,0,1-.43,1.86,7.72,7.72,0,0,0,1.42-.08v2.11a12.24,12.24,0,0,0-1.62-.07h-1.12Zm-.59-3a9.57,9.57,0,0,0,.37-1.88h-1.77l.07.18a9.86,9.86,0,0,1,.35,1.7Zm9.42-.1a7.88,7.88,0,0,0,1.53-.1v2.19a8.28,8.28,0,0,0-1.28-.07h-.32V16.6a13.69,13.69,0,0,0,.1,2.11H148a12.78,12.78,0,0,0,.1-2.11V10.14h-1.33c-.08,4.21-.64,6.52-2.05,8.65a9.27,9.27,0,0,0-2-1.28c1.6-2.11,1.95-4,1.95-10.75a19.16,19.16,0,0,0-.1-2.32,21,21,0,0,0,3.89-.71,5.6,5.6,0,0,0,1.69-.7l1.62,2a4,4,0,0,0-.59.18,24,24,0,0,1-4.4,1V8.12Z"/><path class="cls-2" d="M155.56,16.54a17.09,17.09,0,0,0,.1,2.12h-2.3a15.58,15.58,0,0,0,.1-2.16V5.44a18.34,18.34,0,0,0-.07-1.89,15.2,15.2,0,0,0,1.71.07h3.25a13.45,13.45,0,0,0,1.7-.07c0,.53-.05.9-.05,1.54V7.56A12.89,12.89,0,0,0,160,9c-.35,0-1,0-1.46,0h-3Zm0-10.85h2.49v-.6h-2.49Zm0,1.9h2.49V7h-2.49Zm1.72,3.67c-.6,0-.67,0-1,.07V9.56a13.12,13.12,0,0,0,1.56.07h5.57a13,13,0,0,0,1.55-.07v1.77a9.26,9.26,0,0,0-1.08-.07v5.48a10.82,10.82,0,0,0,.07,1.5h-2a11.88,11.88,0,0,0,.07-1.55l-4.62.53a5.61,5.61,0,0,0-.94.15l-.23-1.87a2.44,2.44,0,0,0,.35,0l.73,0Zm1.86.52H162v-.55h-2.85Zm0,1.74H162V13h-2.85Zm0,1.87c.8-.05.86-.07,2.35-.22l.5-.05v-.43h-2.85Zm8.58,1c0,1.82-.37,2.15-2.36,2.15l-.82,0a6.53,6.53,0,0,0-.5-2.1,10.29,10.29,0,0,0,1,.08c.45,0,.53-.06.53-.41V9h-3.15c-.54,0-1,0-1.45,0,0-.36,0-.73,0-1.48V5.09c0-.62,0-1.07,0-1.54a14.65,14.65,0,0,0,1.7.07h3.39a15,15,0,0,0,1.7-.07c-.05.55-.06,1-.06,1.87ZM163,5.69h2.59v-.6H163Zm0,1.9h2.59V7H163Z"/><path class="cls-2" d="M174.11,17a11.52,11.52,0,0,0,.08,1.73h-2.34a12,12,0,0,0,.1-1.78V13.07a11.44,11.44,0,0,1-1.68,1.23,8.4,8.4,0,0,0-1-2.05,11.56,11.56,0,0,0,2.75-2.09,8.73,8.73,0,0,0,1.75-2.45H171.3a11.4,11.4,0,0,0-1.43.06V5.62a9.3,9.3,0,0,0,1.3.07h.8V4.37a7.43,7.43,0,0,0-.1-1.27h2.32a6.68,6.68,0,0,0-.1,1.29v1.3h.58a6.67,6.67,0,0,0,1-.05l.94,1a6.58,6.58,0,0,0-.39.75,13.25,13.25,0,0,1-1.58,2.77,8.93,8.93,0,0,0,2.65,2.09,10.33,10.33,0,0,0-1.07,2,8.4,8.4,0,0,1-2.08-1.78Zm7.22-1H183a15.42,15.42,0,0,0,2-.09v2.29a18.06,18.06,0,0,0-1.95-.1h-5.59a17.07,17.07,0,0,0-1.91.1V15.9a15.8,15.8,0,0,0,1.94.09h1.62V9.69H178c-.55,0-1.08,0-1.63.09V7.52a14.19,14.19,0,0,0,1.63.09h1.07V5a15.59,15.59,0,0,0-.1-1.86h2.45a13.21,13.21,0,0,0-.1,1.86V7.61h1.54a10.3,10.3,0,0,0,1.65-.09V9.78c-.56,0-1.07-.09-1.65-.09h-1.54Z"/></g></g></svg>