<svg viewBox="0 0 92.61 21.12" xmlns="http://www.w3.org/2000/svg"><path d="m9.79 16.47a4.65 4.65 0 0 1 -3.2 1.05 3.82 3.82 0 0 1 -2.59-.78 2.76 2.76 0 0 1 -1-2.17c0-1.57 1.14-2.76 3.21-3.22a17.5 17.5 0 0 1 3.58-.35v-.67c0-.82-.56-1.22-1.7-1.22a2.81 2.81 0 0 0 -1.57.39 1.72 1.72 0 0 0 -.63.92l-2.64-.42a3.57 3.57 0 0 1 1.25-1.86 5.79 5.79 0 0 1 3.61-1 4.87 4.87 0 0 1 3.49 1 2.92 2.92 0 0 1 .78 2.39v4.52a17.88 17.88 0 0 0 .12 2.22h-2.71zm0-3.65a10.67 10.67 0 0 0 -3 .36c-.77.24-1.17.69-1.17 1.32s.5 1.09 1.41 1.09a3.45 3.45 0 0 0 2.05-.72 1.74 1.74 0 0 0 .68-1.42z"/><path d="m16.79 14.1a1.74 1.74 0 0 0 .36.82 2.23 2.23 0 0 0 1.72.57c1.09 0 1.77-.39 1.77-1a.77.77 0 0 0 -.35-.66 4.44 4.44 0 0 0 -1.52-.46 12.25 12.25 0 0 1 -2.77-.75 2.57 2.57 0 0 1 -1.57-2.39c0-1.92 1.58-3.09 4.17-3.09a4.78 4.78 0 0 1 3.32 1 3.1 3.1 0 0 1 1.08 1.86l-2.69.31c-.1-.78-.59-1.11-1.59-1.11s-1.62.33-1.62.88a.75.75 0 0 0 .52.67 6.15 6.15 0 0 0 1.52.43 8.4 8.4 0 0 1 2.9.94 2.45 2.45 0 0 1 1.27 2.23c0 2.08-1.67 3.29-4.5 3.29-2 0-3.34-.53-4.09-1.58a3.71 3.71 0 0 1 -.65-1.6z"/><path d="m24.4 12.4a4.9 4.9 0 0 1 5.22-5.28 4.88 4.88 0 0 1 5.21 5.25 5 5 0 0 1 -5.23 5.3 4.89 4.89 0 0 1 -5.2-5.27zm2.65 0c0 2 1 3.17 2.57 3.17s2.56-1.17 2.56-3.12-.94-3.19-2.54-3.19-2.59 1.15-2.59 3.11z"/><path d="m36.35 17.34a17.07 17.07 0 0 0 .13-2.44v-8.73a18.69 18.69 0 0 0 -.13-2.4h2.83a16.88 16.88 0 0 0 -.11 2.42v1.47 1a4.31 4.31 0 0 1 3.44-1.42c2.91 0 4.63 1.87 4.63 5.07a5.64 5.64 0 0 1 -1.44 4.07 4.4 4.4 0 0 1 -3.3 1.26 4.2 4.2 0 0 1 -3.4-1.39v.47.62zm5.55-8a2.79 2.79 0 0 0 -2.78 3 3.75 3.75 0 0 0 .66 2.15 2.6 2.6 0 0 0 2 .95c1.57 0 2.63-1.27 2.63-3.17s-.94-2.94-2.51-2.94z"/><path d="m51.57 7.46a14.17 14.17 0 0 0 -.14 2.35v5.19a15.76 15.76 0 0 0 .14 2.35h-3a16.82 16.82 0 0 0 .18-2.35v-5.21a15 15 0 0 0 -.14-2.33zm0-3.69v2.3h-2.9v-2.3z"/><path d="m60.45 4.09a7.83 7.83 0 0 0 -.09-1.09h2.24a4.84 4.84 0 0 0 -.08 1.09h5a7.83 7.83 0 0 0 -.1-1.09h2.24a4.79 4.79 0 0 0 -.08 1.09h.9a16 16 0 0 0 1.9-.1v2.01a18.77 18.77 0 0 0 -1.9-.08h-.9v4.42h1.1a16.75 16.75 0 0 0 1.94-.1v2a15.91 15.91 0 0 0 -1.86-.09h-1.42a8.75 8.75 0 0 0 3.76 1.7 8.41 8.41 0 0 0 -.92 2 14 14 0 0 1 -2.94-1.5v1a13 13 0 0 0 -1.55-.07h-1.75v.89h3.85a13.21 13.21 0 0 0 1.92-.12v2a17 17 0 0 0 -2.1-.1h-9.15a17.29 17.29 0 0 0 -2.08.1v-2a15.68 15.68 0 0 0 1.93.1h3.59v-.85h-1.52a13.49 13.49 0 0 0 -1.55.07v-1a13.37 13.37 0 0 1 -2.95 1.55 7.11 7.11 0 0 0 -.89-2 8.17 8.17 0 0 0 3.66-1.75h-1.34a16.33 16.33 0 0 0 -1.85.09v-2a13.48 13.48 0 0 0 1.83.1h1.16v-4.47h-.77a18.65 18.65 0 0 0 -1.9.08v-1.97a16.77 16.77 0 0 0 1.9.1zm2.73 8a9.34 9.34 0 0 1 -1.35 1.47h2.07a4.56 4.56 0 0 0 -.08-1.07h2.18a5.43 5.43 0 0 0 -.08 1.07h2.24a8.91 8.91 0 0 1 -1.42-1.47zm4.33-5.74v-.56h-5v.57zm0 2v-.56h-5v.57zm0 2v-.56h-5v.59z"/><path d="m78.54 9a4.52 4.52 0 0 0 -.54 0h-.25v4.16c.51-.22.72-.32 1.44-.67v2.12a32.57 32.57 0 0 1 -4.16 1.82c-.48.18-.63.25-.86.35l-.39-2.27a8.33 8.33 0 0 0 1.87-.54v-4.97h-.28a6.76 6.76 0 0 0 -1.2 0v-2.06a6 6 0 0 0 1.25.06h.28v-2a12.61 12.61 0 0 0 -.1-2h2.25a12.52 12.52 0 0 0 -.1 2v2h.34a4.59 4.59 0 0 0 1-.06v1.75c.4-.1.5-.11.87-.21v-2a12.56 12.56 0 0 0 -.09-1.81h2.29a13.07 13.07 0 0 0 -.08 1.72v1.45l1.28-.38v-2.71a12.15 12.15 0 0 0 -.08-1.75h2.27a14.58 14.58 0 0 0 -.1 1.78v2l2.34-.7a10.84 10.84 0 0 0 1.38-.5c0 .57 0 .65-.06 1.35 0 .38 0 .48-.07 1.64-.04 1.43-.12 2.16-.13 2.43-.14 1.52-.31 2-.76 2.28a2.54 2.54 0 0 1 -1.36.27c-.22 0-.37 0-.77 0a6.2 6.2 0 0 0 -.54-2 3.78 3.78 0 0 0 .82.11c.44 0 .5-.05.57-.56a24.74 24.74 0 0 0 .13-2.71l-1.55.49v4a14 14 0 0 0 .08 1.7h-2.25a12.44 12.44 0 0 0 .08-1.76v-3.31l-1.28.4v5.61c0 .28.08.38.38.45a9.87 9.87 0 0 0 1.94.12c2 0 2.52-.09 2.77-.42a3.61 3.61 0 0 0 .27-1.85 11.43 11.43 0 0 0 2.17.58c-.09 1.77-.32 2.66-.82 3.07s-1.72.65-4.58.65c-3.5 0-4.25-.31-4.25-1.83v-5.73l-.22.07a6.52 6.52 0 0 0 -.93.35z"/><g fill="#fff"><path d="m6.59 20.52a6.63 6.63 0 0 1 -4.59-1.52 5.67 5.67 0 0 1 -2-4.41 5.92 5.92 0 0 1 .74-2.92l-.08-.12a3 3 0 0 1 -.23-2.55 6.46 6.46 0 0 1 2.24-3.23 8.63 8.63 0 0 1 5.44-1.6 7.67 7.67 0 0 1 5.56 1.83 5.85 5.85 0 0 1 1.71 4.56v4.52a14.87 14.87 0 0 0 .1 1.89 3 3 0 0 1 -.75 2.33 3 3 0 0 1 -2.23 1h-2.71a2.92 2.92 0 0 1 -.79-.08 8.4 8.4 0 0 1 -2.41.3z"/><path d="m18.76 20.62c-3.72 0-5.61-1.54-6.53-2.84a6.74 6.74 0 0 1 -1.15-2.71 3 3 0 0 1 .49-2.37 3.47 3.47 0 0 1 .3-.37 5.65 5.65 0 0 1 -.4-2.1c0-3 2.21-6.09 7.17-6.09a7.58 7.58 0 0 1 5.36 1.86 6.07 6.07 0 0 1 1.87 3.3 3 3 0 0 1 -.35 2.21 5.62 5.62 0 0 1 .74 2.82c0 3.14-2.32 6.29-7.5 6.29z"/><path d="m29.6 20.67a7.88 7.88 0 0 1 -8.2-8.27 7.9 7.9 0 0 1 8.22-8.28 7.88 7.88 0 0 1 8.21 8.25 7.9 7.9 0 0 1 -8.23 8.3z"/><path d="m42.36 20.61a8.14 8.14 0 0 1 -2.53-.37 3.33 3.33 0 0 1 -.78.1h-2.7a3 3 0 0 1 -2.26-1 3 3 0 0 1 -.72-2.38 14.06 14.06 0 0 0 .11-2v-8.79a17.08 17.08 0 0 0 -.11-2.06 3 3 0 0 1 3-3.34h2.83a3 3 0 0 1 3 3.39h.32c4.56 0 7.63 3.24 7.63 8.07a8.64 8.64 0 0 1 -2.28 6.16 7.45 7.45 0 0 1 -5.51 2.22z"/><path d="m48.61 20.34a3 3 0 0 1 -3-3.36 12.82 12.82 0 0 0 .12-2v-5.19a13.15 13.15 0 0 0 -.1-1.9 3 3 0 0 1 .06-1.19 3.21 3.21 0 0 1 -.06-.63v-2.3a3 3 0 0 1 3-3h2.9a3 3 0 0 1 3 3v2.3a2.84 2.84 0 0 1 -.07.66 3.17 3.17 0 0 1 .05 1.19 11.68 11.68 0 0 0 -.1 1.89v5.19a12.28 12.28 0 0 0 .11 1.93 3 3 0 0 1 -3 3.42z"/><path d="m58.38 21.09a3 3 0 0 1 -3-3v-.53a2.94 2.94 0 0 1 -.4-.86 4.16 4.16 0 0 0 -.57-1.3 3 3 0 0 1 -.18-2.71 2.93 2.93 0 0 1 .23-.43v-2a3 3 0 0 1 1-2.25 3 3 0 0 1 -.73-2v-2.01a3 3 0 0 1 1-2.24 3 3 0 0 1 2-.76h.34a3 3 0 0 1 2.24-1h2.29a3 3 0 0 1 2.31 1.09h.2a3 3 0 0 1 2.31-1.09h2.24a3 3 0 0 1 2.26 1h.08a2.17 2.17 0 0 1 .36 0 3 3 0 0 1 2 .75 3 3 0 0 1 1 2.25v2a3 3 0 0 1 -.76 2 3 3 0 0 1 1 2.23v2a2.64 2.64 0 0 1 .23.44 3 3 0 0 1 -.15 2.7 5.65 5.65 0 0 0 -.68 1.43 2.49 2.49 0 0 1 -.32.68v.61a3 3 0 0 1 -3 3h-.34a16.43 16.43 0 0 0 -1.73-.09h-9.15a16.56 16.56 0 0 0 -1.74.08z"/><path d="m84.21 21.12c-2 0-5.42 0-6.72-2.44-.42.17-.87.34-1.37.52l-.68.28a3.11 3.11 0 0 1 -1.21.24 3 3 0 0 1 -3-2.48l-.36-2.24a3 3 0 0 1 .54-2.27 3 3 0 0 1 1.29-1 2.77 2.77 0 0 1 -.45-.31 3 3 0 0 1 -1.08-2.42v-2.06a3 3 0 0 1 1.08-2.31 2.21 2.21 0 0 1 .45-.3 5.66 5.66 0 0 0 -.07-.85 3 3 0 0 1 2.97-3.48h2.25a3 3 0 0 1 2.28 1.05 3.6 3.6 0 0 1 .39.57h.09a2.93 2.93 0 0 1 .39-.62 3 3 0 0 1 2.24-1h2.27a3 3 0 0 1 2.24 1 3 3 0 0 1 .74 1.69 2.79 2.79 0 0 1 .64-.07 3 3 0 0 1 3 3.17l-.03 1.34-.1 1.63c-.07 1.4-.13 2.2-.14 2.42s-.07.74-.13 1.14a3 3 0 0 1 .83 2.22c-.08 1.84-.31 3.92-1.89 5.24-1.39 1.15-3.19 1.34-6.46 1.34z"/></g><path d="m9.79 16.47a4.65 4.65 0 0 1 -3.2 1.05 3.82 3.82 0 0 1 -2.59-.78 2.76 2.76 0 0 1 -1-2.17c0-1.57 1.14-2.76 3.21-3.22a17.5 17.5 0 0 1 3.58-.35v-.67c0-.82-.56-1.22-1.7-1.22a2.81 2.81 0 0 0 -1.57.39 1.72 1.72 0 0 0 -.63.92l-2.64-.42a3.57 3.57 0 0 1 1.25-1.86 5.79 5.79 0 0 1 3.61-1 4.87 4.87 0 0 1 3.49 1 2.92 2.92 0 0 1 .78 2.39v4.52a17.88 17.88 0 0 0 .12 2.22h-2.71zm0-3.65a10.67 10.67 0 0 0 -3 .36c-.77.24-1.17.69-1.17 1.32s.5 1.09 1.41 1.09a3.45 3.45 0 0 0 2.05-.72 1.74 1.74 0 0 0 .68-1.42z" fill="#231815"/><path d="m16.79 14.1a1.74 1.74 0 0 0 .36.82 2.23 2.23 0 0 0 1.72.57c1.09 0 1.77-.39 1.77-1a.77.77 0 0 0 -.35-.66 4.44 4.44 0 0 0 -1.52-.46 12.25 12.25 0 0 1 -2.77-.75 2.57 2.57 0 0 1 -1.57-2.39c0-1.92 1.58-3.09 4.17-3.09a4.78 4.78 0 0 1 3.32 1 3.1 3.1 0 0 1 1.08 1.86l-2.69.31c-.1-.78-.59-1.11-1.59-1.11s-1.62.33-1.62.88a.75.75 0 0 0 .52.67 6.15 6.15 0 0 0 1.52.43 8.4 8.4 0 0 1 2.9.94 2.45 2.45 0 0 1 1.27 2.23c0 2.08-1.67 3.29-4.5 3.29-2 0-3.34-.53-4.09-1.58a3.71 3.71 0 0 1 -.65-1.6z" fill="#231815"/><path d="m24.4 12.4a4.9 4.9 0 0 1 5.22-5.28 4.88 4.88 0 0 1 5.21 5.25 5 5 0 0 1 -5.23 5.3 4.89 4.89 0 0 1 -5.2-5.27zm2.65 0c0 2 1 3.17 2.57 3.17s2.56-1.17 2.56-3.12-.94-3.19-2.54-3.19-2.59 1.15-2.59 3.11z" fill="#231815"/><path d="m36.35 17.34a17.07 17.07 0 0 0 .13-2.44v-8.73a18.69 18.69 0 0 0 -.13-2.4h2.83a16.88 16.88 0 0 0 -.11 2.42v1.47 1a4.31 4.31 0 0 1 3.44-1.42c2.91 0 4.63 1.87 4.63 5.07a5.64 5.64 0 0 1 -1.44 4.07 4.4 4.4 0 0 1 -3.3 1.26 4.2 4.2 0 0 1 -3.4-1.39v.47.62zm5.55-8a2.79 2.79 0 0 0 -2.78 3 3.75 3.75 0 0 0 .66 2.15 2.6 2.6 0 0 0 2 .95c1.57 0 2.63-1.27 2.63-3.17s-.94-2.94-2.51-2.94z" fill="#231815"/><path d="m51.57 7.46a14.17 14.17 0 0 0 -.14 2.35v5.19a15.76 15.76 0 0 0 .14 2.35h-3a16.82 16.82 0 0 0 .18-2.35v-5.21a15 15 0 0 0 -.14-2.33zm0-3.69v2.3h-2.9v-2.3z" fill="#231815"/><path d="m60.45 4.09a7.83 7.83 0 0 0 -.09-1.09h2.24a4.84 4.84 0 0 0 -.08 1.09h5a7.83 7.83 0 0 0 -.1-1.09h2.24a4.79 4.79 0 0 0 -.08 1.09h.9a16 16 0 0 0 1.9-.1v2.01a18.77 18.77 0 0 0 -1.9-.08h-.9v4.42h1.1a16.75 16.75 0 0 0 1.94-.1v2a15.91 15.91 0 0 0 -1.86-.09h-1.42a8.75 8.75 0 0 0 3.76 1.7 8.41 8.41 0 0 0 -.92 2 14 14 0 0 1 -2.94-1.5v1a13 13 0 0 0 -1.55-.07h-1.75v.89h3.85a13.21 13.21 0 0 0 1.92-.12v2a17 17 0 0 0 -2.1-.1h-9.15a17.29 17.29 0 0 0 -2.08.1v-2a15.68 15.68 0 0 0 1.93.1h3.59v-.85h-1.52a13.49 13.49 0 0 0 -1.55.07v-1a13.37 13.37 0 0 1 -2.95 1.55 7.11 7.11 0 0 0 -.89-2 8.17 8.17 0 0 0 3.66-1.75h-1.34a16.33 16.33 0 0 0 -1.85.09v-2a13.48 13.48 0 0 0 1.83.1h1.16v-4.47h-.77a18.65 18.65 0 0 0 -1.9.08v-1.97a16.77 16.77 0 0 0 1.9.1zm2.73 8a9.34 9.34 0 0 1 -1.35 1.47h2.07a4.56 4.56 0 0 0 -.08-1.07h2.18a5.43 5.43 0 0 0 -.08 1.07h2.24a8.91 8.91 0 0 1 -1.42-1.47zm4.33-5.74v-.56h-5v.57zm0 2v-.56h-5v.57zm0 2v-.56h-5v.59z" fill="#231815"/><path d="m78.54 9a4.52 4.52 0 0 0 -.54 0h-.25v4.16c.51-.22.72-.32 1.44-.67v2.12a32.57 32.57 0 0 1 -4.16 1.82c-.48.18-.63.25-.86.35l-.39-2.27a8.33 8.33 0 0 0 1.87-.54v-4.97h-.28a6.76 6.76 0 0 0 -1.2 0v-2.06a6 6 0 0 0 1.25.06h.28v-2a12.61 12.61 0 0 0 -.1-2h2.25a12.52 12.52 0 0 0 -.1 2v2h.34a4.59 4.59 0 0 0 1-.06v1.75c.4-.1.5-.11.87-.21v-2a12.56 12.56 0 0 0 -.09-1.81h2.29a13.07 13.07 0 0 0 -.08 1.72v1.45l1.28-.38v-2.71a12.15 12.15 0 0 0 -.08-1.75h2.27a14.58 14.58 0 0 0 -.1 1.78v2l2.34-.7a10.84 10.84 0 0 0 1.38-.5c0 .57 0 .65-.06 1.35 0 .38 0 .48-.07 1.64-.04 1.43-.12 2.16-.13 2.43-.14 1.52-.31 2-.76 2.28a2.54 2.54 0 0 1 -1.36.27c-.22 0-.37 0-.77 0a6.2 6.2 0 0 0 -.54-2 3.78 3.78 0 0 0 .82.11c.44 0 .5-.05.57-.56a24.74 24.74 0 0 0 .13-2.71l-1.55.49v4a14 14 0 0 0 .08 1.7h-2.25a12.44 12.44 0 0 0 .08-1.76v-3.31l-1.28.4v5.61c0 .28.08.38.38.45a9.87 9.87 0 0 0 1.94.12c2 0 2.52-.09 2.77-.42a3.61 3.61 0 0 0 .27-1.85 11.43 11.43 0 0 0 2.17.58c-.09 1.77-.32 2.66-.82 3.07s-1.72.65-4.58.65c-3.5 0-4.25-.31-4.25-1.83v-5.73l-.22.07a6.52 6.52 0 0 0 -.93.35z" fill="#231815"/></svg>