<svg viewBox="0 0 155.48 21.93" xmlns="http://www.w3.org/2000/svg"><path d="m14.44 9.63h2.22a15.25 15.25 0 0 0 1.86-.1v2.22a14.7 14.7 0 0 0 -1.88-.1h-1.64a11.11 11.11 0 0 0 4 3.89 7.32 7.32 0 0 0 -1.21 2.15 12.06 12.06 0 0 1 -3.47-4.09c0 .55.05 1.12.05 1.57v1.67a14 14 0 0 0 .12 2h-2.24a16.65 16.65 0 0 0 .1-2v-1.52c0-.47 0-1 .05-1.65a11.68 11.68 0 0 1 -3.72 4 8.06 8.06 0 0 0 -1.21-1.94 10.82 10.82 0 0 0 2.53-1.83 11 11 0 0 0 1.75-2.25h-1a14.56 14.56 0 0 0 -1.9.11v-1a10.61 10.61 0 0 0 -.63 1.93 7.79 7.79 0 0 1 -.91-1.8c0 .5.05 1.29.05 2v3.89a19.65 19.65 0 0 0 .1 2.1h-2.31a17.54 17.54 0 0 0 .1-2.1v-3c0-.38 0-1.1.09-1.88a10.93 10.93 0 0 1 -1.56 3.34 8.56 8.56 0 0 0 -.78-2.32 13.62 13.62 0 0 0 2.07-4.76h-.53a4.79 4.79 0 0 0 -1.11.08v-2.12a4.59 4.59 0 0 0 1.11.09h.7v-1.21a12.2 12.2 0 0 0 -.1-1.76h2.28a12.93 12.93 0 0 0 -.1 1.76v1.21h.37a4.06 4.06 0 0 0 .84-.07v1.48a10.93 10.93 0 0 0 1.15-3.87l2 .5c-.06.2-.11.42-.25 1-.06.27-.08.35-.15.64h1.09v-.99a10.41 10.41 0 0 0 -.1-1.63h2.29a10.18 10.18 0 0 0 -.1 1.62v1h1.75a14.48 14.48 0 0 0 1.79-.15v2.2a15.81 15.81 0 0 0 -1.87-.1h-1.69zm-3.84-1.79a10 10 0 0 1 -.84 1.7 7.5 7.5 0 0 0 -1.55-1.37h-.8a8.51 8.51 0 0 0 1.4 2.37v-1a9.46 9.46 0 0 0 1.9.12h1.64v-1.82z"/><path d="m33.53 6a9.4 9.4 0 0 0 1.62-.08v2.14a16.18 16.18 0 0 0 -2.06-.06h-2.2a19.3 19.3 0 0 0 1.11 6c.4.95 1 2 1.23 2s.37-1 .56-2.52a8 8 0 0 0 1.8 1.08 8 8 0 0 1 -.95 3.29 1.58 1.58 0 0 1 -1.29.82 3 3 0 0 1 -2-1.25 11.51 11.51 0 0 1 -1.66-3.31 25.28 25.28 0 0 1 -1-6.09h-6.5a18.77 18.77 0 0 0 -2.05.1v-2.25a16.43 16.43 0 0 0 2.05.1h6.45c0-.72 0-.72 0-1.32 0-.41-.05-.9-.08-1.2h2.35a9 9 0 0 0 -.06 1.19v1.33h2.07a10.36 10.36 0 0 0 -1.66-1.52l1.55-1a15.31 15.31 0 0 1 1.83 1.62l-1.36.93zm-11 5.74c-.64 0-1.24 0-1.75.07v-2a16.19 16.19 0 0 0 1.8.08h3.9a16.12 16.12 0 0 0 1.79-.08v2c-.52 0-1.12-.07-1.75-.07h-.94v3.48c1.17-.22 1.81-.37 3.29-.74v2c-3.09.74-5.11 1.14-7.24 1.45a10.19 10.19 0 0 0 -1.11.19l-.33-2.24a25.15 25.15 0 0 0 3.24-.33v-3.84z"/><path d="m40 9a18.69 18.69 0 0 1 -2.52 1.3 7.23 7.23 0 0 0 -1.1-2.07 14.1 14.1 0 0 0 4-2.1 10.45 10.45 0 0 0 2.72-2.76h2.32a10.08 10.08 0 0 0 2.86 2.63 16.16 16.16 0 0 0 4.14 2.06 9.63 9.63 0 0 0 -1 2.23 15.4 15.4 0 0 1 -2.67-1.37v1.14a13.8 13.8 0 0 0 -1.59-.06h-5.66a14.12 14.12 0 0 0 -1.48.07zm-.87 4.22a17.58 17.58 0 0 0 -2 .1v-2.26c.57 0 1.24.09 2 .09h10.49c.8 0 1.43 0 2-.09v2.22a17.51 17.51 0 0 0 -2-.1h-5.62a21 21 0 0 1 -1.61 3c3.36-.17 3.36-.17 4.78-.34-.54-.6-.8-.9-1.61-1.73l2-.84a35.76 35.76 0 0 1 3.79 4.46l-2 1.24c-.46-.74-.61-1-.88-1.36-1.6.22-1.64.22-2.55.3s-5.71.52-6.35.55-1.45.14-1.83.2l-.29-2.38h1.17 1.19a20.81 20.81 0 0 0 1.63-3.07zm8.17-5.22a13.17 13.17 0 0 1 -3-2.78 12.77 12.77 0 0 1 -2.9 2.78z"/><path d="m57.86 17.07a13.22 13.22 0 0 0 .08 1.74h-2.33a13.55 13.55 0 0 0 .1-1.79v-3.84a10.89 10.89 0 0 1 -1.71 1.24 8.22 8.22 0 0 0 -1-2.05 11.69 11.69 0 0 0 2.75-2.09 8.81 8.81 0 0 0 1.76-2.46h-2.45a11.29 11.29 0 0 0 -1.44.07v-2.15a9.6 9.6 0 0 0 1.3.06h.8v-1.31a7.43 7.43 0 0 0 -.1-1.27h2.32a7.47 7.47 0 0 0 -.1 1.28v1.3h.59a5.53 5.53 0 0 0 1 0l.93 1a6.56 6.56 0 0 0 -.38.75 14 14 0 0 1 -1.59 2.77 9.14 9.14 0 0 0 2.61 2.05 10.33 10.33 0 0 0 -1.07 2 8.48 8.48 0 0 1 -2.09-1.78zm7.23-1h1.67a15.78 15.78 0 0 0 2-.08v2.29a18.38 18.38 0 0 0 -2-.1h-5.58a16.89 16.89 0 0 0 -1.9.1v-2.28a16 16 0 0 0 1.94.08h1.62v-6.27h-1.07c-.55 0-1.09 0-1.64.08v-2.25a14.68 14.68 0 0 0 1.64.08h1.07v-2.62a17.81 17.81 0 0 0 -.1-1.85h2.45a13.15 13.15 0 0 0 -.1 1.85v2.62h1.54a10.67 10.67 0 0 0 1.65-.08v2.25c-.57-.05-1.07-.08-1.65-.08h-1.54z"/><path d="m72.7 16.61a15.69 15.69 0 0 0 .1 2.12h-2.31a15.58 15.58 0 0 0 .1-2.16v-11c0-.92 0-1.37-.06-1.91a14.43 14.43 0 0 0 1.7.07h3.27a13.75 13.75 0 0 0 1.71-.07v1.56 2.66 1.46c-.39 0-.94 0-1.45 0h-3zm0-10.7h2.5v-.74h-2.5zm0 2.09h2.5v-.79h-2.5zm.6 5a16.53 16.53 0 0 0 1.79.06c0-.53 0-.53 0-1.38a12.61 12.61 0 0 0 -1.52.06v-1.74a15.5 15.5 0 0 0 1.74.06h4.77a16.62 16.62 0 0 0 1.8-.06v1.73a12.94 12.94 0 0 0 -1.57-.06v1.33a16.61 16.61 0 0 0 1.84 0v1.77a16.76 16.76 0 0 0 -1.81-.07v2.2a8.92 8.92 0 0 0 .07 1.42h-2.09a10 10 0 0 0 .07-1.42v-2.2h-1.49a6.13 6.13 0 0 1 -2 3.89 10.44 10.44 0 0 0 -1.67-1.37 3.77 3.77 0 0 0 1.64-2.52 12.21 12.21 0 0 0 -1.62.07zm3.7-1.35v.83.52h1.37v-1.35zm7.83 4.82c0 1.7-.5 2.11-2.61 2.11a8.2 8.2 0 0 1 -1 0 6.75 6.75 0 0 0 -.51-2.08 10.1 10.1 0 0 0 1.5.11c.42 0 .5-.07.5-.42v-6.88h-3.12c-.58 0-.9 0-1.45 0 0-.41 0-.71 0-1.46v-2.66c0-.62 0-1.07 0-1.56a14.18 14.18 0 0 0 1.71.07h3.4a14.43 14.43 0 0 0 1.7-.07c-.05.59-.06 1-.06 1.87zm-4.67-10.56h2.62v-.74h-2.62zm0 2.05h2.62v-.75h-2.62z"/><path d="m86.73 9.48a8.69 8.69 0 0 0 1.37.08h1.44a9.71 9.71 0 0 0 1.27-.07 17.08 17.08 0 0 0 -.07 1.86v3.59a2.42 2.42 0 0 0 1.6 1.27 14.44 14.44 0 0 0 3.21.26 50.4 50.4 0 0 0 7-.37 10 10 0 0 0 -.55 2.32c-1.44.07-3.87.11-5.93.11a15.06 15.06 0 0 1 -4.39-.39 4.14 4.14 0 0 1 -1.88-1.38 26.38 26.38 0 0 1 -2.16 1.71l-.27.2-1-2.26a9.45 9.45 0 0 0 2.26-1.47v-3.39h-.82a5.72 5.72 0 0 0 -1.09.08zm1.62-6.05a20.6 20.6 0 0 1 2.92 2.91l-1.65 1.66a16.49 16.49 0 0 0 -2.85-3zm10.07 10.17h1.79a13.56 13.56 0 0 0 1.7-.07v2a14.88 14.88 0 0 0 -1.67-.07h-6.66a13.75 13.75 0 0 0 -1.58.04c0-.48.05-.8.05-1.68v-3.93c0-.26 0-.66 0-1a5.26 5.26 0 0 1 -.82 1 5.7 5.7 0 0 0 -1.16-1.89 11.56 11.56 0 0 0 2-2.24 9 9 0 0 0 1.34-2.64l2.25.47a17.52 17.52 0 0 1 -1 1.7h1.8a10 10 0 0 0 1.06-2.09l2.2.33-.2.37-.83 1.42h1.45a12.72 12.72 0 0 0 1.67-.08v2a9.43 9.43 0 0 0 -1.35-.07h-2v1h1.14c1 0 1.27 0 1.71-.05v1.76a17 17 0 0 0 -1.71-.05h-1.18v1h1.18a13.84 13.84 0 0 0 1.71-.05v1.77c-.44 0-.75-.05-1.71-.05h-1.18zm-2-6.46h-2.31v1h2.26zm0 2.69h-2.31v1h2.26zm-2.31 2.67v1.1h2.26v-1.1z"/><path d="m107.85 12.77a14.55 14.55 0 0 0 -1.66.06 12.41 12.41 0 0 0 .07-1.62v-1.52c0-.51 0-.91 0-1.26a8.43 8.43 0 0 0 1 .05h7.9a7.45 7.45 0 0 0 .92-.05 9.63 9.63 0 0 0 0 1.33v1.45a10.23 10.23 0 0 0 .05 1.61c-.43 0-1-.05-1.68-.05h-2.27v.86h3.52a9.68 9.68 0 0 0 1.77-.1v2.06a11.7 11.7 0 0 0 -1.77-.09h-3.52v1h4.6a16 16 0 0 0 1.91-.09v2.06a17.61 17.61 0 0 0 -1.91-.09h-11.22a18.34 18.34 0 0 0 -1.94.09v-2.06a17.31 17.31 0 0 0 1.94.09h4.37v-1h-3.28a11.67 11.67 0 0 0 -1.79.09v-2.06a10.17 10.17 0 0 0 1.79.1h3.28v-.86zm2.08-8.13a7.59 7.59 0 0 0 -.08-1.34h2.34a7.35 7.35 0 0 0 -.09 1.34v1.18h1.42a12.12 12.12 0 0 0 1.25-2.35l2.13.83c-.19.27-.19.27-.69 1a5.42 5.42 0 0 1 -.37.5h.89c.67 0 1.25 0 1.77-.07a15 15 0 0 0 -.07 1.59v1.5a8.31 8.31 0 0 0 .08 1.27h-2.05v-2.42h-10.67v2.44h-2.05a7.79 7.79 0 0 0 .08-1.28v-1.66a12 12 0 0 0 -.06-1.42 17 17 0 0 0 1.72.07h1a10.48 10.48 0 0 0 -1.09-1.55l1.9-.75a11.71 11.71 0 0 1 1.49 2.3h1.13zm-1.51 6.52h5.42v-1h-5.42z"/><path d="m126.32 4.67a7.44 7.44 0 0 0 .55-1.67l2.22.22-.61 1.45h1.27a8.78 8.78 0 0 0 1.31 0 9.73 9.73 0 0 0 -.06 1.33v3.93c0 .78 0 1.12.05 1.45-.36 0-.76-.05-1.26-.05h-1v.95h4.38a13.55 13.55 0 0 0 2-.1v2.09a15.53 15.53 0 0 0 -2.07-.1h-2.88a10.41 10.41 0 0 0 2.13 1.23 15.41 15.41 0 0 0 3.24 1 11.87 11.87 0 0 0 -1.18 2 12.88 12.88 0 0 1 -3-1.22 10.89 10.89 0 0 1 -2.71-2.12 1.37 1.37 0 0 0 0 .3v.67.97a6.89 6.89 0 0 0 .13 1.7h-2.39a8.65 8.65 0 0 0 .14-1.7v-.9c0-.28 0-.55 0-1a11.66 11.66 0 0 1 -5.51 3.3 7.94 7.94 0 0 0 -1.25-1.94 16.52 16.52 0 0 0 2.89-.95 8.48 8.48 0 0 0 2.32-1.38h-2.76a15.39 15.39 0 0 0 -2 .1v-2.05a15.7 15.7 0 0 0 2 .1h4.26v-.95h-.85c-.52 0-1 0-1.3.05 0-.4.05-.85.05-1.44v-3.94a12 12 0 0 0 -.05-1.38 8.86 8.86 0 0 0 1.33 0zm-1.88 5a20.84 20.84 0 0 1 -3.17 1.74c-.25.12-.31.15-.52.27l-.75-2.09a14.28 14.28 0 0 0 3.92-1.83zm-2.67-5.76a18.86 18.86 0 0 1 2.55 2.38l-1.44 1.62a12.78 12.78 0 0 0 -2.57-2.53zm4.7 3.31h2.53v-.91h-2.57zm0 2.5h2.53v-.91h-2.57zm5.65-1.78a26.72 26.72 0 0 1 3.47 1.95l-1.14 1.84a20.22 20.22 0 0 0 -3.45-2.17zm3.22-2.59a24.18 24.18 0 0 1 -2.84 2.65l-1.4-1.54a12.8 12.8 0 0 0 2.6-2.6z"/><path d="m143.36 11.18a10.54 10.54 0 0 1 -1.68 1.52h1.08 1.22a12.06 12.06 0 0 0 0 1.3v3.44a9.17 9.17 0 0 0 .07 1.28h-2v-.61h-1.74v.73h-2.17c.05-.48.09-1 .09-1.53v-2.41l-.77.39a7.5 7.5 0 0 0 -.92-1.94 11.74 11.74 0 0 0 4.21-2.17h-1.94a16.51 16.51 0 0 0 -1.9.08v-2.07a18 18 0 0 0 1.9.09h3.61a5.94 5.94 0 0 0 .43-.84h-3.46c-.51 0-1.11 0-1.63.05a12.59 12.59 0 0 0 .06-1.43v-2a13.22 13.22 0 0 0 -.06-1.47 16.09 16.09 0 0 0 1.7.07h2.91a14.14 14.14 0 0 0 1.63-.03v1.27 2.39.5l.9.1v-3c0-.56 0-.88 0-1.27a13.73 13.73 0 0 0 1.64.07h3.05a16.55 16.55 0 0 0 1.71-.07 11.82 11.82 0 0 0 -.07 1.47v2a11.33 11.33 0 0 0 .07 1.43c-.52 0-1.14-.05-1.64-.05h-3.12a12.64 12.64 0 0 0 -1.27 0l-.43.8h5.45a15.93 15.93 0 0 0 1.89-.1v2.1a15.64 15.64 0 0 0 -1.89-.1h-2.08a10.2 10.2 0 0 0 4.39 2 8 8 0 0 0 -.87 1.95c-.52-.22-.65-.27-.88-.38v2.38c0 .5 0 1.15.08 1.62h-2.15v-.73h-1.91v.73h-2.17a10.29 10.29 0 0 0 .07-1.28v-3.46c0-.63 0-.9-.05-1.3h1.21 1.12a9.44 9.44 0 0 1 -1.65-1.52zm-3.55-4.32h2.1v-1.49h-2.1zm.4 9.39h1.79v-1.81h-1.77zm6.54 0h1.92v-1.81h-1.92zm.1-9.39h2.15v-1.47h-2.19z"/><g fill="#fff"><path d="m12.25 21.84a3 3 0 0 1 -2.24-1 1.63 1.63 0 0 1 -.17-.2l-.17.2a3 3 0 0 1 -2.25 1h-2.27a3 3 0 0 1 -3-3.35 6.34 6.34 0 0 0 .06-.69 3 3 0 0 1 -1.39-2 5.77 5.77 0 0 0 -.53-1.58 3 3 0 0 1 .34-3.18 5.61 5.61 0 0 0 .5-.84 3.07 3.07 0 0 1 -.72-2v-2.08a3 3 0 0 1 1.16-2.35 3.41 3.41 0 0 1 .57-.36 3 3 0 0 1 3-3.18h2.28a3 3 0 0 1 1.75.56 4.38 4.38 0 0 1 .51 0 3 3 0 0 1 .73.09h.05a3 3 0 0 1 1.79-.61h2.29a3 3 0 0 1 3 2.51h.16.38a3 3 0 0 1 2 .75 3 3 0 0 1 1 2.25v2.11a3.05 3.05 0 0 1 .48 1.64v2.22a3 3 0 0 1 -.45 1.59 3 3 0 0 1 .34 4 4.6 4.6 0 0 0 -.82 1.48 3 3 0 0 1 -1.95 1.74 3.24 3.24 0 0 1 -.82.11 3.12 3.12 0 0 1 -.85-.12l-.17.22a3 3 0 0 1 -2.28 1.05z"/><path d="m33.31 21.61a5.63 5.63 0 0 1 -4.13-2.14c-2.94.69-5 1.1-7.16 1.42h-.21a4.86 4.86 0 0 0 -.64.11 3.27 3.27 0 0 1 -.7.08 3 3 0 0 1 -3-2.56l-.34-2.24a3 3 0 0 1 1.11-2.79 3 3 0 0 1 -.55-1.74v-1.91a3 3 0 0 1 -.59-1.78v-2.19a3 3 0 0 1 3-3h.36a13.05 13.05 0 0 0 1.73.13h3.37a3 3 0 0 1 3-2.52h2.35a2.92 2.92 0 0 1 .89.12 3 3 0 0 1 1-.17 3.06 3.06 0 0 1 1.8.6 18.78 18.78 0 0 1 2.13 1.88 2.88 2.88 0 0 1 .66 1 3 3 0 0 1 .78 2v2.15a3 3 0 0 1 -1 2.25 3 3 0 0 1 -1.57.72 5.08 5.08 0 0 0 1.21.72 3 3 0 0 1 1.73 3.15 10.8 10.8 0 0 1 -1.4 4.49 4.52 4.52 0 0 1 -3.83 2.22z"/><path d="m49.39 21.93a3 3 0 0 1 -2.39-1.14l-.81.07c-.76.08-5.73.52-6.46.56s-1.26.12-1.48.16a2.92 2.92 0 0 1 -.51 0 3 3 0 0 1 -1.74-.58 3 3 0 0 1 -1.21-2l-.29-2.39a3 3 0 0 1 .23-1.61 3.05 3.05 0 0 1 -.57-1.76v-2.18a2.82 2.82 0 0 1 .09-.71l-.25-.35a3 3 0 0 1 -.47-2.66 3 3 0 0 1 1.87-2 11.25 11.25 0 0 0 3.26-1.7 7.4 7.4 0 0 0 2-2 3 3 0 0 1 2.48-1.31h2.32a3 3 0 0 1 2.41 1.22 7.36 7.36 0 0 0 2.09 2 13.32 13.32 0 0 0 3.4 1.69 3 3 0 0 1 1.64 4.36c-.21.35-.35.61-.47.86a3 3 0 0 1 .06.6v2.22a3 3 0 0 1 -1 2.25l-.07.06c.07.11.15.21.23.32a3 3 0 0 1 .54 2.34 3.07 3.07 0 0 1 -1.35 2l-1.94 1.21a3 3 0 0 1 -1.61.47z"/><path d="m55.61 21.81a3 3 0 0 1 -3-3.39 8.41 8.41 0 0 0 .08-1.3 3 3 0 0 1 -1.53-1.74 5.32 5.32 0 0 0 -.6-1.38 3 3 0 0 1 .82-4.12 3 3 0 0 1 -.76-2v-2.14a3 3 0 0 1 1-2.25 3.12 3.12 0 0 1 1-.59 3 3 0 0 1 .69-1.62 3 3 0 0 1 2.31-1.06h2.32a3 3 0 0 1 2.31 1.07l.1.14c0-.07.11-.13.16-.19a3 3 0 0 1 2.23-1h2.45a3 3 0 0 1 2.25 1 3 3 0 0 1 .73 2.36 8.12 8.12 0 0 0 -.08 1h.19a3 3 0 0 1 3 3v2.29a3 3 0 0 1 -1 2.22 3 3 0 0 1 -2 .78h-.19v.18h.29.35a3 3 0 0 1 3 3v2.29a3 3 0 0 1 -3 3h-.32c-.48-.05-1.09-.08-1.64-.08h-5.59a12.79 12.79 0 0 0 -1.54.08 3.09 3.09 0 0 1 -1.7.52z"/><path d="m70.49 21.73a3 3 0 0 1 -3-3.39 13 13 0 0 0 .07-1.77v-11a14.74 14.74 0 0 0 0-1.62 3 3 0 0 1 3-3.29h.33a11.91 11.91 0 0 0 1.37 0h3.24a9.43 9.43 0 0 0 1.36 0h.35a3.42 3.42 0 0 1 .45 0 3.73 3.73 0 0 1 .46 0h.33a10.16 10.16 0 0 0 1.38 0h3.4a11.91 11.91 0 0 0 1.37 0h.33a3 3 0 0 1 3 3.26v1.61 11c0 3.39-1.89 5.11-5.61 5.11-.47 0-.68 0-1.2 0a2.88 2.88 0 0 1 -1-.24h-1.8a3 3 0 0 1 -1.49-.4 2.93 2.93 0 0 1 -1.88.67 2.8 2.8 0 0 1 -.86-.13 3 3 0 0 1 -1.29.3z"/><path d="m87.34 21.66a2.82 2.82 0 0 1 -.71-.09 3 3 0 0 1 -2.06-1.74l-.95-2.27a3 3 0 0 1 1.13-3.67 3 3 0 0 1 -1-2.26v-2.15a3 3 0 0 1 1-2.27 3 3 0 0 1 -.09-4.41l1.59-1.52a3 3 0 0 1 2.1-.85 3 3 0 0 1 1.92.69l.58.5a3 3 0 0 1 2.58-1.47 3.23 3.23 0 0 1 .57.06l2 .41a3 3 0 0 1 1.52-.42 3.4 3.4 0 0 1 .45 0l2.2.34a3 3 0 0 1 2.28 1.71 3 3 0 0 1 2.35 2.93v2a3.05 3.05 0 0 1 -.5 1.66v1a3.42 3.42 0 0 1 0 .45 3.42 3.42 0 0 1 0 .45v1a3.06 3.06 0 0 1 .6 1.8v.77a3 3 0 0 1 .44 2.77 7.39 7.39 0 0 0 -.42 1.76 3 3 0 0 1 -2.83 2.59c-1.66.08-4.31.11-6.07.11a16.72 16.72 0 0 1 -5.41-.54 6.71 6.71 0 0 1 -.83-.36l-.5.36a3 3 0 0 1 -1.94.66z"/><path d="m118.6 21.47a2.06 2.06 0 0 1 -.35 0 14.4 14.4 0 0 0 -1.56-.07h-11.13a14.87 14.87 0 0 0 -1.59.07 2 2 0 0 1 -.35 0 3 3 0 0 1 -2-.75 3 3 0 0 1 -1-2.25v-2.06a3 3 0 0 1 1-2.26 1.84 1.84 0 0 1 .22-.17v-.45a2.85 2.85 0 0 1 .16-1 3.64 3.64 0 0 1 -.55-.49 3 3 0 0 1 -.7-2.39 5.53 5.53 0 0 0 0-.86v-1.62a9 9 0 0 0 0-1 3 3 0 0 1 1.94-3.19 3 3 0 0 1 1.59-1.46l1.9-.75a3 3 0 0 1 2.14 0 3 3 0 0 1 1.5-.4h2.34a3.12 3.12 0 0 1 1.47.38 3 3 0 0 1 1.12-.21 2.82 2.82 0 0 1 1.09.21l2.12.83a3 3 0 0 1 1.62 1.42 2.93 2.93 0 0 1 1 .68 3 3 0 0 1 .86 2.41 11.72 11.72 0 0 0 0 1.29v1.5a4.54 4.54 0 0 0 0 .8 3 3 0 0 1 -.68 2.42 3.18 3.18 0 0 1 -.58.52 3.05 3.05 0 0 1 .16.95v.43l.19.16a3 3 0 0 1 1 2.26v2.06a3 3 0 0 1 -1 2.25 3 3 0 0 1 -1.93.74z"/><path d="m126.52 21.66a3 3 0 0 1 -2.3-1.08v-.06a18.93 18.93 0 0 1 -2.09.78 2.82 2.82 0 0 1 -.9.14 3 3 0 0 1 -2.71-1.73 5.13 5.13 0 0 0 -.83-1.27 3 3 0 0 1 -.56-2.88 3.1 3.1 0 0 1 .32-.66 2.7 2.7 0 0 1 -.07-.63v-2.09a3.16 3.16 0 0 1 .11-.81l-.27-.73a3 3 0 0 1 .78-3.33 3 3 0 0 1 .14-4.06l1.45-1.47a3 3 0 0 1 4-.25l.2.16a2.38 2.38 0 0 1 .37-.06 3 3 0 0 1 2.71-1.63h.3l2.22.22a3 3 0 0 1 2.27 1.44 3 3 0 0 1 1.76-.79h.28a3 3 0 0 1 2 .75l1.64 1.46a3 3 0 0 1 .2 4.28.69.69 0 0 1 -.11.13 3 3 0 0 1 .72 3.95 3.36 3.36 0 0 1 .08.71v2.09a2.65 2.65 0 0 1 0 .56 3.45 3.45 0 0 1 .28.54 3 3 0 0 1 -.37 2.81 9.53 9.53 0 0 0 -.92 1.57 3 3 0 0 1 -2.7 1.71 2.91 2.91 0 0 1 -.87-.13 17.26 17.26 0 0 1 -2.3-.82 3 3 0 0 1 -2.33 1.11z"/><path d="m148.66 21.79a3 3 0 0 1 -1-.15 2.91 2.91 0 0 1 -.95.15h-2.01a2.92 2.92 0 0 1 -.83-.12h-1.87a3.08 3.08 0 0 1 -.68-.07 3.07 3.07 0 0 1 -1.06.19h-2.17a3 3 0 0 1 -3-3.3c0-.41.06-.84.07-1.2a3 3 0 0 1 -.64-1.12 4.81 4.81 0 0 0 -.61-1.26 3 3 0 0 1 -.25-2.61 2.65 2.65 0 0 1 .23-.48 2.59 2.59 0 0 1 0-.56v-2.07a3 3 0 0 1 .86-2.19v-1.9a10.84 10.84 0 0 0 0-1.12 3 3 0 0 1 3-3.35h.29a13.36 13.36 0 0 0 1.41 0h2.91a11.45 11.45 0 0 0 1.32 0h.33a3.42 3.42 0 0 1 .45 0 3 3 0 0 1 .42 0h.3a10.77 10.77 0 0 0 1.3 0h3.05a14.14 14.14 0 0 0 1.43 0h.28a3 3 0 0 1 2.15.92 3 3 0 0 1 .76 2.45 9.82 9.82 0 0 0 0 1.1v1.9a3 3 0 0 1 .95 2.19v2.1.37a2.22 2.22 0 0 1 .2.41 3 3 0 0 1 -.19 2.7 5.36 5.36 0 0 0 -.58 1.32 3.18 3.18 0 0 1 -.74 1.22c0 .38 0 .85.06 1.17a3 3 0 0 1 -3 3.32z"/></g><path d="m14.44 9.63h2.22a15.25 15.25 0 0 0 1.86-.1v2.22a14.7 14.7 0 0 0 -1.88-.1h-1.64a11.11 11.11 0 0 0 4 3.89 7.32 7.32 0 0 0 -1.21 2.15 12.06 12.06 0 0 1 -3.47-4.09c0 .55.05 1.12.05 1.57v1.67a14 14 0 0 0 .12 2h-2.24a16.65 16.65 0 0 0 .1-2v-1.52c0-.47 0-1 .05-1.65a11.68 11.68 0 0 1 -3.72 4 8.06 8.06 0 0 0 -1.21-1.94 10.82 10.82 0 0 0 2.53-1.83 11 11 0 0 0 1.75-2.25h-1a14.56 14.56 0 0 0 -1.9.11v-1a10.61 10.61 0 0 0 -.63 1.93 7.79 7.79 0 0 1 -.91-1.8c0 .5.05 1.29.05 2v3.89a19.65 19.65 0 0 0 .1 2.1h-2.31a17.54 17.54 0 0 0 .1-2.1v-3c0-.38 0-1.1.09-1.88a10.93 10.93 0 0 1 -1.56 3.34 8.56 8.56 0 0 0 -.78-2.32 13.62 13.62 0 0 0 2.07-4.76h-.53a4.79 4.79 0 0 0 -1.11.08v-2.12a4.59 4.59 0 0 0 1.11.09h.7v-1.21a12.2 12.2 0 0 0 -.1-1.76h2.28a12.93 12.93 0 0 0 -.1 1.76v1.21h.37a4.06 4.06 0 0 0 .84-.07v1.48a10.93 10.93 0 0 0 1.15-3.87l2 .5c-.06.2-.11.42-.25 1-.06.27-.08.35-.15.64h1.09v-.99a10.41 10.41 0 0 0 -.1-1.63h2.29a10.18 10.18 0 0 0 -.1 1.62v1h1.75a14.48 14.48 0 0 0 1.79-.15v2.2a15.81 15.81 0 0 0 -1.87-.1h-1.69zm-3.84-1.79a10 10 0 0 1 -.84 1.7 7.5 7.5 0 0 0 -1.55-1.37h-.8a8.51 8.51 0 0 0 1.4 2.37v-1a9.46 9.46 0 0 0 1.9.12h1.64v-1.82z" fill="#231815"/><path d="m33.53 6a9.4 9.4 0 0 0 1.62-.08v2.14a16.18 16.18 0 0 0 -2.06-.06h-2.2a19.3 19.3 0 0 0 1.11 6c.4.95 1 2 1.23 2s.37-1 .56-2.52a8 8 0 0 0 1.8 1.08 8 8 0 0 1 -.95 3.29 1.58 1.58 0 0 1 -1.29.82 3 3 0 0 1 -2-1.25 11.51 11.51 0 0 1 -1.66-3.31 25.28 25.28 0 0 1 -1-6.09h-6.5a18.77 18.77 0 0 0 -2.05.1v-2.25a16.43 16.43 0 0 0 2.05.1h6.45c0-.72 0-.72 0-1.32 0-.41-.05-.9-.08-1.2h2.35a9 9 0 0 0 -.06 1.19v1.33h2.07a10.36 10.36 0 0 0 -1.66-1.52l1.55-1a15.31 15.31 0 0 1 1.83 1.62l-1.36.93zm-11 5.74c-.64 0-1.24 0-1.75.07v-2a16.19 16.19 0 0 0 1.8.08h3.9a16.12 16.12 0 0 0 1.79-.08v2c-.52 0-1.12-.07-1.75-.07h-.94v3.48c1.17-.22 1.81-.37 3.29-.74v2c-3.09.74-5.11 1.14-7.24 1.45a10.19 10.19 0 0 0 -1.11.19l-.33-2.24a25.15 25.15 0 0 0 3.24-.33v-3.84z" fill="#231815"/><path d="m40 9a18.69 18.69 0 0 1 -2.52 1.3 7.23 7.23 0 0 0 -1.1-2.07 14.1 14.1 0 0 0 4-2.1 10.45 10.45 0 0 0 2.72-2.76h2.32a10.08 10.08 0 0 0 2.86 2.63 16.16 16.16 0 0 0 4.14 2.06 9.63 9.63 0 0 0 -1 2.23 15.4 15.4 0 0 1 -2.67-1.37v1.14a13.8 13.8 0 0 0 -1.59-.06h-5.66a14.12 14.12 0 0 0 -1.48.07zm-.87 4.22a17.58 17.58 0 0 0 -2 .1v-2.26c.57 0 1.24.09 2 .09h10.49c.8 0 1.43 0 2-.09v2.22a17.51 17.51 0 0 0 -2-.1h-5.62a21 21 0 0 1 -1.61 3c3.36-.17 3.36-.17 4.78-.34-.54-.6-.8-.9-1.61-1.73l2-.84a35.76 35.76 0 0 1 3.79 4.46l-2 1.24c-.46-.74-.61-1-.88-1.36-1.6.22-1.64.22-2.55.3s-5.71.52-6.35.55-1.45.14-1.83.2l-.29-2.38h1.17 1.19a20.81 20.81 0 0 0 1.63-3.07zm8.17-5.22a13.17 13.17 0 0 1 -3-2.78 12.77 12.77 0 0 1 -2.9 2.78z" fill="#231815"/><path d="m57.86 17.07a13.22 13.22 0 0 0 .08 1.74h-2.33a13.55 13.55 0 0 0 .1-1.79v-3.84a10.89 10.89 0 0 1 -1.71 1.24 8.22 8.22 0 0 0 -1-2.05 11.69 11.69 0 0 0 2.75-2.09 8.81 8.81 0 0 0 1.76-2.46h-2.45a11.29 11.29 0 0 0 -1.44.07v-2.15a9.6 9.6 0 0 0 1.3.06h.8v-1.31a7.43 7.43 0 0 0 -.1-1.27h2.32a7.47 7.47 0 0 0 -.1 1.28v1.3h.59a5.53 5.53 0 0 0 1 0l.93 1a6.56 6.56 0 0 0 -.38.75 14 14 0 0 1 -1.59 2.77 9.14 9.14 0 0 0 2.61 2.05 10.33 10.33 0 0 0 -1.07 2 8.48 8.48 0 0 1 -2.09-1.78zm7.23-1h1.67a15.78 15.78 0 0 0 2-.08v2.29a18.38 18.38 0 0 0 -2-.1h-5.58a16.89 16.89 0 0 0 -1.9.1v-2.28a16 16 0 0 0 1.94.08h1.62v-6.27h-1.07c-.55 0-1.09 0-1.64.08v-2.25a14.68 14.68 0 0 0 1.64.08h1.07v-2.62a17.81 17.81 0 0 0 -.1-1.85h2.45a13.15 13.15 0 0 0 -.1 1.85v2.62h1.54a10.67 10.67 0 0 0 1.65-.08v2.25c-.57-.05-1.07-.08-1.65-.08h-1.54z" fill="#231815"/><path d="m72.7 16.61a15.69 15.69 0 0 0 .1 2.12h-2.31a15.58 15.58 0 0 0 .1-2.16v-11c0-.92 0-1.37-.06-1.91a14.43 14.43 0 0 0 1.7.07h3.27a13.75 13.75 0 0 0 1.71-.07v1.56 2.66 1.46c-.39 0-.94 0-1.45 0h-3zm0-10.7h2.5v-.74h-2.5zm0 2.09h2.5v-.79h-2.5zm.6 5a16.53 16.53 0 0 0 1.79.06c0-.53 0-.53 0-1.38a12.61 12.61 0 0 0 -1.52.06v-1.74a15.5 15.5 0 0 0 1.74.06h4.77a16.62 16.62 0 0 0 1.8-.06v1.73a12.94 12.94 0 0 0 -1.57-.06v1.33a16.61 16.61 0 0 0 1.84 0v1.77a16.76 16.76 0 0 0 -1.81-.07v2.2a8.92 8.92 0 0 0 .07 1.42h-2.09a10 10 0 0 0 .07-1.42v-2.2h-1.49a6.13 6.13 0 0 1 -2 3.89 10.44 10.44 0 0 0 -1.67-1.37 3.77 3.77 0 0 0 1.64-2.52 12.21 12.21 0 0 0 -1.62.07zm3.7-1.35v.83.52h1.37v-1.35zm7.83 4.82c0 1.7-.5 2.11-2.61 2.11a8.2 8.2 0 0 1 -1 0 6.75 6.75 0 0 0 -.51-2.08 10.1 10.1 0 0 0 1.5.11c.42 0 .5-.07.5-.42v-6.88h-3.12c-.58 0-.9 0-1.45 0 0-.41 0-.71 0-1.46v-2.66c0-.62 0-1.07 0-1.56a14.18 14.18 0 0 0 1.71.07h3.4a14.43 14.43 0 0 0 1.7-.07c-.05.59-.06 1-.06 1.87zm-4.67-10.56h2.62v-.74h-2.62zm0 2.05h2.62v-.75h-2.62z" fill="#231815"/><path d="m86.73 9.48a8.69 8.69 0 0 0 1.37.08h1.44a9.71 9.71 0 0 0 1.27-.07 17.08 17.08 0 0 0 -.07 1.86v3.59a2.42 2.42 0 0 0 1.6 1.27 14.44 14.44 0 0 0 3.21.26 50.4 50.4 0 0 0 7-.37 10 10 0 0 0 -.55 2.32c-1.44.07-3.87.11-5.93.11a15.06 15.06 0 0 1 -4.39-.39 4.14 4.14 0 0 1 -1.88-1.38 26.38 26.38 0 0 1 -2.16 1.71l-.27.2-1-2.26a9.45 9.45 0 0 0 2.26-1.47v-3.39h-.82a5.72 5.72 0 0 0 -1.09.08zm1.62-6.05a20.6 20.6 0 0 1 2.92 2.91l-1.65 1.66a16.49 16.49 0 0 0 -2.85-3zm10.07 10.17h1.79a13.56 13.56 0 0 0 1.7-.07v2a14.88 14.88 0 0 0 -1.67-.07h-6.66a13.75 13.75 0 0 0 -1.58.04c0-.48.05-.8.05-1.68v-3.93c0-.26 0-.66 0-1a5.26 5.26 0 0 1 -.82 1 5.7 5.7 0 0 0 -1.16-1.89 11.56 11.56 0 0 0 2-2.24 9 9 0 0 0 1.34-2.64l2.25.47a17.52 17.52 0 0 1 -1 1.7h1.8a10 10 0 0 0 1.06-2.09l2.2.33-.2.37-.83 1.42h1.45a12.72 12.72 0 0 0 1.67-.08v2a9.43 9.43 0 0 0 -1.35-.07h-2v1h1.14c1 0 1.27 0 1.71-.05v1.76a17 17 0 0 0 -1.71-.05h-1.18v1h1.18a13.84 13.84 0 0 0 1.71-.05v1.77c-.44 0-.75-.05-1.71-.05h-1.18zm-2-6.46h-2.31v1h2.26zm0 2.69h-2.31v1h2.26zm-2.31 2.67v1.1h2.26v-1.1z" fill="#231815"/><path d="m107.85 12.77a14.55 14.55 0 0 0 -1.66.06 12.41 12.41 0 0 0 .07-1.62v-1.52c0-.51 0-.91 0-1.26a8.43 8.43 0 0 0 1 .05h7.9a7.45 7.45 0 0 0 .92-.05 9.63 9.63 0 0 0 0 1.33v1.45a10.23 10.23 0 0 0 .05 1.61c-.43 0-1-.05-1.68-.05h-2.27v.86h3.52a9.68 9.68 0 0 0 1.77-.1v2.06a11.7 11.7 0 0 0 -1.77-.09h-3.52v1h4.6a16 16 0 0 0 1.91-.09v2.06a17.61 17.61 0 0 0 -1.91-.09h-11.22a18.34 18.34 0 0 0 -1.94.09v-2.06a17.31 17.31 0 0 0 1.94.09h4.37v-1h-3.28a11.67 11.67 0 0 0 -1.79.09v-2.06a10.17 10.17 0 0 0 1.79.1h3.28v-.86zm2.08-8.13a7.59 7.59 0 0 0 -.08-1.34h2.34a7.35 7.35 0 0 0 -.09 1.34v1.18h1.42a12.12 12.12 0 0 0 1.25-2.35l2.13.83c-.19.27-.19.27-.69 1a5.42 5.42 0 0 1 -.37.5h.89c.67 0 1.25 0 1.77-.07a15 15 0 0 0 -.07 1.59v1.5a8.31 8.31 0 0 0 .08 1.27h-2.05v-2.42h-10.67v2.44h-2.05a7.79 7.79 0 0 0 .08-1.28v-1.66a12 12 0 0 0 -.06-1.42 17 17 0 0 0 1.72.07h1a10.48 10.48 0 0 0 -1.09-1.55l1.9-.75a11.71 11.71 0 0 1 1.49 2.3h1.13zm-1.51 6.52h5.42v-1h-5.42z" fill="#231815"/><path d="m126.32 4.67a7.44 7.44 0 0 0 .55-1.67l2.22.22-.61 1.45h1.27a8.78 8.78 0 0 0 1.31 0 9.73 9.73 0 0 0 -.06 1.33v3.93c0 .78 0 1.12.05 1.45-.36 0-.76-.05-1.26-.05h-1v.95h4.38a13.55 13.55 0 0 0 2-.1v2.09a15.53 15.53 0 0 0 -2.07-.1h-2.88a10.41 10.41 0 0 0 2.13 1.23 15.41 15.41 0 0 0 3.24 1 11.87 11.87 0 0 0 -1.18 2 12.88 12.88 0 0 1 -3-1.22 10.89 10.89 0 0 1 -2.71-2.12 1.37 1.37 0 0 0 0 .3v.67.97a6.89 6.89 0 0 0 .13 1.7h-2.39a8.65 8.65 0 0 0 .14-1.7v-.9c0-.28 0-.55 0-1a11.66 11.66 0 0 1 -5.51 3.3 7.94 7.94 0 0 0 -1.25-1.94 16.52 16.52 0 0 0 2.89-.95 8.48 8.48 0 0 0 2.32-1.38h-2.76a15.39 15.39 0 0 0 -2 .1v-2.05a15.7 15.7 0 0 0 2 .1h4.26v-.95h-.85c-.52 0-1 0-1.3.05 0-.4.05-.85.05-1.44v-3.94a12 12 0 0 0 -.05-1.38 8.86 8.86 0 0 0 1.33 0zm-1.88 5a20.84 20.84 0 0 1 -3.17 1.74c-.25.12-.31.15-.52.27l-.75-2.09a14.28 14.28 0 0 0 3.92-1.83zm-2.67-5.76a18.86 18.86 0 0 1 2.55 2.38l-1.44 1.62a12.78 12.78 0 0 0 -2.57-2.53zm4.7 3.31h2.53v-.91h-2.57zm0 2.5h2.53v-.91h-2.57zm5.65-1.78a26.72 26.72 0 0 1 3.47 1.95l-1.14 1.84a20.22 20.22 0 0 0 -3.45-2.17zm3.22-2.59a24.18 24.18 0 0 1 -2.84 2.65l-1.4-1.54a12.8 12.8 0 0 0 2.6-2.6z" fill="#231815"/><path d="m143.36 11.18a10.54 10.54 0 0 1 -1.68 1.52h1.08 1.22a12.06 12.06 0 0 0 0 1.3v3.44a9.17 9.17 0 0 0 .07 1.28h-2v-.61h-1.74v.73h-2.17c.05-.48.09-1 .09-1.53v-2.41l-.77.39a7.5 7.5 0 0 0 -.92-1.94 11.74 11.74 0 0 0 4.21-2.17h-1.94a16.51 16.51 0 0 0 -1.9.08v-2.07a18 18 0 0 0 1.9.09h3.61a5.94 5.94 0 0 0 .43-.84h-3.46c-.51 0-1.11 0-1.63.05a12.59 12.59 0 0 0 .06-1.43v-2a13.22 13.22 0 0 0 -.06-1.47 16.09 16.09 0 0 0 1.7.07h2.91a14.14 14.14 0 0 0 1.63-.03v1.27 2.39.5l.9.1v-3c0-.56 0-.88 0-1.27a13.73 13.73 0 0 0 1.64.07h3.05a16.55 16.55 0 0 0 1.71-.07 11.82 11.82 0 0 0 -.07 1.47v2a11.33 11.33 0 0 0 .07 1.43c-.52 0-1.14-.05-1.64-.05h-3.12a12.64 12.64 0 0 0 -1.27 0l-.43.8h5.45a15.93 15.93 0 0 0 1.89-.1v2.1a15.64 15.64 0 0 0 -1.89-.1h-2.08a10.2 10.2 0 0 0 4.39 2 8 8 0 0 0 -.87 1.95c-.52-.22-.65-.27-.88-.38v2.38c0 .5 0 1.15.08 1.62h-2.15v-.73h-1.91v.73h-2.17a10.29 10.29 0 0 0 .07-1.28v-3.46c0-.63 0-.9-.05-1.3h1.21 1.12a9.44 9.44 0 0 1 -1.65-1.52zm-3.55-4.32h2.1v-1.49h-2.1zm.4 9.39h1.79v-1.81h-1.77zm6.54 0h1.92v-1.81h-1.92zm.1-9.39h2.15v-1.47h-2.19z" fill="#231815"/></svg>