<svg viewBox="0 0 121.8 21.93" xmlns="http://www.w3.org/2000/svg"><path d="m8.69 14.42a20 20 0 0 1 -4.61 3.58 6.8 6.8 0 0 0 -1.08-1.86 15.89 15.89 0 0 0 4.16-2.81c-.64.1-.64.1-2.87.4-.22 0-.51.07-.92.15l-.22-2h.4.65v-5.54a9.94 9.94 0 0 0 -.1-1.74 8.85 8.85 0 0 0 1.45.09h.59a6.4 6.4 0 0 0 .58-1.69l2.21.26c0 .12 0 .12-.22.47a4.72 4.72 0 0 0 -.2.44c-.08.21-.12.28-.22.5h1.05a7.71 7.71 0 0 0 1.37-.09 14.29 14.29 0 0 0 -.08 1.64v3l1.17.78a2.28 2.28 0 0 0 -.27.44c-.17.28-.6 1-.9 1.47v4.84c0 1.48-.44 1.82-2.39 1.82-.43 0-.68 0-1.22-.05a4.86 4.86 0 0 0 -.48-2 13.67 13.67 0 0 0 1.73.12c.34 0 .42-.05.42-.27zm0-8.11h-2.58v.69h2.58zm-2.58 3h2.58v-.77h-2.58zm0 2.42c1.21-.1 1.21-.1 2.58-.28v-.64h-2.58zm9-6.21c0-.78 0-1.35-.1-2.1h2.32a18 18 0 0 0 -.1 2.12v1a7.53 7.53 0 0 0 1.46-.1v2.14a9 9 0 0 0 -1.46-.09v8c0 1.77-.5 2.13-2.88 2.13-.5 0-.88 0-1.36-.05a6.53 6.53 0 0 0 -.51-2.13 15.09 15.09 0 0 0 1.69.13c.77 0 .94-.08.94-.41v-7.67h-2.23a16.5 16.5 0 0 0 -1.8.1v-2.17a12.38 12.38 0 0 0 1.79.1h2.22zm-2.11 9.17a14 14 0 0 0 -1.66-3.89l1.72-.86a15.55 15.55 0 0 1 1.81 3.76z"/><path d="m26.27 8.19a10.57 10.57 0 0 0 -.35 1.14 16.39 16.39 0 0 1 -2 4.82 12.76 12.76 0 0 1 -2.62 3 9.91 9.91 0 0 0 -1.74-1.8 11.07 11.07 0 0 0 2.31-2.27 10.12 10.12 0 0 0 1.9-3.94h-1.89a11.46 11.46 0 0 0 -1.71.1v-2.3a10.64 10.64 0 0 0 1.83.06h1.73a8.25 8.25 0 0 0 1.47 0zm8.43-1c-.35.38-.39.41-.92 1a24.84 24.84 0 0 1 -2.91 2.81 13.27 13.27 0 0 0 4.63 4 9.71 9.71 0 0 0 -1.57 2.22 14.43 14.43 0 0 1 -2.64-2.22 15.72 15.72 0 0 1 -2.6-4.17c0 1.38.06 2.17.06 2.35v3.54a1.78 1.78 0 0 1 -.45 1.47 2.73 2.73 0 0 1 -1.77.43c-.68 0-1.55 0-2.24-.08a5.81 5.81 0 0 0 -.55-2.24 18.16 18.16 0 0 0 2.17.19c.5 0 .6-.07.6-.39v-10.93a11.33 11.33 0 0 0 -.11-1.79h2.47a10.38 10.38 0 0 0 -.12 1.81v1.2a9.89 9.89 0 0 0 1 2.74 11.89 11.89 0 0 0 2.9-3.51z"/><path d="m40.7 13.5v-.5c-.21.08-.28.13-.53.23a4.78 4.78 0 0 0 -.74-1.15v4.59a18.24 18.24 0 0 0 .09 2.14h-2.34a17.91 17.91 0 0 0 .1-2.12v-7.69a14.29 14.29 0 0 0 -.07-1.44c.3 0 1.06.05 1.69.05h1.74a5.43 5.43 0 0 0 -.54-1.23h-1.55a16.5 16.5 0 0 0 -1.94.08v-2.14a18.53 18.53 0 0 0 2.09.1h4.37v-.28a6.56 6.56 0 0 0 -.08-1h2.42a5.7 5.7 0 0 0 -.08 1v.28h4.67a16.78 16.78 0 0 0 2-.1v2.1a16 16 0 0 0 -1.92-.08h-1.6a8.55 8.55 0 0 1 -.63 1.23h2a14 14 0 0 0 1.57-.05 11.13 11.13 0 0 0 -.1 1.48v7.63c0 .91-.17 1.38-.55 1.68a3.25 3.25 0 0 1 -2.05.4h-.57-.62a7.46 7.46 0 0 0 -.33-1.52c-.29 0-.4 0-.65 0h-3.83v.7h-2.08a8.25 8.25 0 0 0 .06-1.26zm-1.27-4.07v2c1.34-.43 2-1.06 2.11-2zm4.18 0a3.73 3.73 0 0 1 -.42 1.4 4.57 4.57 0 0 1 -1.65 1.72h5.06a11.62 11.62 0 0 0 1.31-.05v1.15 2.35.74h.79c.41 0 .51-.08.51-.45v-4.54a1.32 1.32 0 0 1 -.68.23 12.26 12.26 0 0 1 -1.55.08c-1.14 0-1.59-.05-1.89-.25a.86.86 0 0 1 -.42-.81v-1.57zm1.93-1.86a6 6 0 0 0 .57-1.23h-3.65a10.13 10.13 0 0 1 .54 1.23zm-2.8 7.85h3.26v-1.17h-3.26zm6.44-6h-2.5v.77c0 .26.13.31.85.31s.92 0 .94-.7a1.91 1.91 0 0 0 .71.37z"/><path d="m56.42 6.71a20.64 20.64 0 0 0 -2.27.1v-2.32a21.85 21.85 0 0 0 2.31.1h9a17.93 17.93 0 0 0 2.27-.1v2.32a20.74 20.74 0 0 0 -2.25-.1h-3.48v8.64h4.19a20.39 20.39 0 0 0 2.4-.11v2.37a18.64 18.64 0 0 0 -2.42-.12h-10.5a20 20 0 0 0 -2.4.12v-2.37a20.68 20.68 0 0 0 2.44.11h3.92v-8.64z"/><path d="m73.3 9a18.69 18.69 0 0 1 -2.52 1.3 7.23 7.23 0 0 0 -1.1-2.07 14.1 14.1 0 0 0 4-2.1 10.45 10.45 0 0 0 2.72-2.76h2.32a10.08 10.08 0 0 0 2.84 2.63 16.16 16.16 0 0 0 4.14 2.08 9.63 9.63 0 0 0 -1 2.23 15.4 15.4 0 0 1 -2.7-1.37v1.14a13.92 13.92 0 0 0 -1.56-.08h-5.66a14.12 14.12 0 0 0 -1.48.07zm-.87 4.22a17.58 17.58 0 0 0 -2 .1v-2.26c.57 0 1.24.09 2 .09h10.47c.8 0 1.43 0 2-.09v2.22a17.51 17.51 0 0 0 -2-.1h-5.65a20 20 0 0 1 -1.6 3c3.35-.18 3.35-.18 4.78-.38-.54-.6-.8-.9-1.61-1.73l2-.84a35.76 35.76 0 0 1 3.79 4.46l-2 1.24c-.46-.74-.61-1-.88-1.36-1.6.22-1.64.22-2.56.3s-5.7.52-6.34.55-1.45.14-1.84.2l-.28-2.38h1.17 1.18a20 20 0 0 0 1.64-3.07zm8.15-5.22a13 13 0 0 1 -3-2.78 12.77 12.77 0 0 1 -2.9 2.78z"/><path d="m91.86 7.94a9.2 9.2 0 0 0 -1.27-.05h-2.77a7.8 7.8 0 0 0 -1.22.05v-1.94a8.09 8.09 0 0 0 1.22.07h2.72a6.89 6.89 0 0 0 1.32-.07zm-5 10.85c.05-.53.09-1.07.09-1.65v-2.45a10.52 10.52 0 0 0 -.07-1.37 7.26 7.26 0 0 0 1.1 0h2.46a10.2 10.2 0 0 0 1.11 0 12.58 12.58 0 0 0 0 1.32v2.49 1.35h-1.63v-.48h-1.22v.78zm.19-15.16a7.69 7.69 0 0 0 1.18.07h2.12a7.8 7.8 0 0 0 1.2-.07v1.84a7.86 7.86 0 0 0 -1.2 0h-2.1a11.19 11.19 0 0 0 -1.18 0zm0 5a7.11 7.11 0 0 0 1.2.05h2a8.45 8.45 0 0 0 1.25-.05v1.71a10.91 10.91 0 0 0 -1.25 0h-2a9.29 9.29 0 0 0 -1.2 0zm0 2.33a8.41 8.41 0 0 0 1.2.05h2a8.09 8.09 0 0 0 1.25-.05v1.72a8.81 8.81 0 0 0 -1.25-.05h-2a11.21 11.21 0 0 0 -1.2.05zm1.6 5.43h1.22v-1.4h-1.17zm4.64-6.53a8.36 8.36 0 0 0 -1.29.02v-1.57a8.36 8.36 0 0 0 1.36.07h2.42v-.56h-1.78a8.59 8.59 0 0 0 -1.33.07v-1.4a9.77 9.77 0 0 0 1.33.07h1.75v-.56h-2.16a10.58 10.58 0 0 0 -1.33.07v-1.58a8 8 0 0 0 1.33.08h.59a6.48 6.48 0 0 0 -.67-1.1l1.95-.47a9.87 9.87 0 0 1 .82 1.55h1.3a7.57 7.57 0 0 0 .67-1.55l2 .42c-.17.38-.4.8-.59 1.15h.6a8 8 0 0 0 1.36-.08v1.58a10.77 10.77 0 0 0 -1.32-.07h-2.57v.56h2a9.67 9.67 0 0 0 1.33-.07v1.4a11.25 11.25 0 0 0 -1.33-.07h-2v.56h2.79a6.35 6.35 0 0 0 1.4-.09v1.59a9.22 9.22 0 0 0 -1.36-.07h-.44a9.74 9.74 0 0 1 1.55 1.35l-1.21.87h.16a6.27 6.27 0 0 0 1.37-.1v1.79a6.79 6.79 0 0 0 -1.37-.09h-.23l1.27.89c-.72.77-1.17 1.22-1.62 1.65.28.39.55.6.7.6s.37-.43.48-1.42a3.87 3.87 0 0 0 1.29.87 4.66 4.66 0 0 1 -.51 1.78 1.11 1.11 0 0 1 -1 .65 2.77 2.77 0 0 1 -1.4-.48 3.2 3.2 0 0 1 -.9-.93 16.13 16.13 0 0 1 -2.1 1.28 7.45 7.45 0 0 0 -1.07-1.52 9.89 9.89 0 0 0 2.34-1.18 8.26 8.26 0 0 1 -.64-2.21h-1.88v.64l1.57-.25v1.5l-1 .19-.63.11v1.29a1.46 1.46 0 0 1 -.45 1.27 2.76 2.76 0 0 1 -1.76.35h-.78a6.15 6.15 0 0 0 -.3-1.71 7.33 7.33 0 0 0 1.08.09c.39 0 .47-.07.47-.35v-.64l-.88.13a5.26 5.26 0 0 0 -.57.1l-.23-1.71h.18c.2 0 .37 0 1.5-.15v-.86h-.55a7.3 7.3 0 0 0 -1.14.07v-1.68a6.45 6.45 0 0 0 1.17.07h.5v-.48c-.42 0-.48 0-1.08.08a3.6 3.6 0 0 0 -.52-1.1 9 9 0 0 0 3.8-.69l1 1.06a8 8 0 0 1 -1.38.36v.7h1.65a6.26 6.26 0 0 1 -.06-.78 5.82 5.82 0 0 0 -.1-1.12h1.9a4.72 4.72 0 0 0 0 .63c0 .3 0 .77.05 1.27h1.58a6.3 6.3 0 0 0 -1.5-1.45l1.23-.77zm5.71 3.77a8.12 8.12 0 0 0 .3 1.11 4.39 4.39 0 0 0 1-1.11z"/><path d="m110.48 11.5a12.34 12.34 0 0 0 0 1.4c-.2 0-.77 0-1.69 0h-2.49a12.19 12.19 0 0 1 -1.46 5.91 7.19 7.19 0 0 0 -1.79-1.64c1-1.75 1.23-3.34 1.23-7.8a20.86 20.86 0 0 0 -.04-2.37h1.79 2.77 1.73v1.63zm-6.84-7.67a12.92 12.92 0 0 0 1.9.09h3.46a12 12 0 0 0 1.94-.09v2.17a16.58 16.58 0 0 0 -1.84-.06h-3.67a12 12 0 0 0 -1.77.08zm4.81 7.17v-2.16h-2v1 1.15zm5.07-.6a15.56 15.56 0 0 1 -.78 4.56 10.27 10.27 0 0 1 -2.46 3.81 6.6 6.6 0 0 0 -1.63-1.66 7.07 7.07 0 0 0 1.65-2.11 9.78 9.78 0 0 0 1-3.81c.08-1 .13-2.37.13-4.5a18.92 18.92 0 0 0 -.07-2.07 16.08 16.08 0 0 0 3.86-.49 13 13 0 0 0 2.47-.85l1.07 2.05a7.32 7.32 0 0 0 -.82.22 24.43 24.43 0 0 1 -4.39.9v1.91h3.56a11.92 11.92 0 0 0 1.65-.08v2.2a12.47 12.47 0 0 0 -1.47-.07h-.08v6.36a10.46 10.46 0 0 0 .1 1.87h-2.31a13.61 13.61 0 0 0 .11-1.87v-6.36z"/><g fill="#fff"><path d="m14.33 21.67c-.57 0-1 0-1.57-.05a3 3 0 0 1 -1.53-.55 7.3 7.3 0 0 1 -3 .54c-.48 0-.77 0-1.35-.05a3.11 3.11 0 0 1 -1.79-.73 3 3 0 0 1 -1 .18 2.87 2.87 0 0 1 -1-.16 3 3 0 0 1 -1.81-1.69 3.8 3.8 0 0 0 -.62-1.16 3 3 0 0 1 -.58-2.57 3 3 0 0 1 .37-.89c0-.11 0-.23-.07-.35l-.21-2a3 3 0 0 1 .83-2.39 1.57 1.57 0 0 1 .19-.18v-3.28a8.5 8.5 0 0 0 -.06-1.34 3 3 0 0 1 .87-2.53 3 3 0 0 1 2.08-.87 3 3 0 0 1 2.64-1.6 2.17 2.17 0 0 1 .36 0l2.21.31a3 3 0 0 1 2.18 1.39 3.13 3.13 0 0 1 .84.36 3.33 3.33 0 0 1 .46-.67 3 3 0 0 1 2.23-.97h2.32a3 3 0 0 1 3 3.3v.16l.32.23a3 3 0 0 1 1.08 2.31v2.16a3 3 0 0 1 -1 2.25 3.37 3.37 0 0 1 -.44.33v5.38c-.07 5.13-4.34 5.13-5.95 5.13z"/><path d="m26.55 21.59c-.75 0-1.69 0-2.46-.09a3 3 0 0 1 -2.29-1.36 3.29 3.29 0 0 1 -.54.05h-.26a3.07 3.07 0 0 1 -2.13-1.19 6.82 6.82 0 0 0 -1.22-1.28 3 3 0 0 1 .07-4.72 9 9 0 0 0 1.15-1 3 3 0 0 1 -1.7-2.7v-2.36a3 3 0 0 1 1.08-2.3 3 3 0 0 1 1.92-.7 3.17 3.17 0 0 1 .53.06 8.73 8.73 0 0 0 1.3 0h1.45a1.1 1.1 0 0 1 0-.18 3 3 0 0 1 .67-2.42 3 3 0 0 1 2.3-1.02h2.47a3 3 0 0 1 2.28 1.06 3.13 3.13 0 0 1 .65 1.3h.15a3.25 3.25 0 0 1 .69-.08 3 3 0 0 1 1.81.61l2 1.53a3 3 0 0 1 .41 4.42l-.08.09c-.26.28-.32.36-.78.88-.3.35-.61.69-.95 1a9.25 9.25 0 0 0 1.8 1.2 3 3 0 0 1 .82 4.68 7 7 0 0 0 -1.2 1.7 3 3 0 0 1 -2 1.43 3.38 3.38 0 0 1 -.63.07 3 3 0 0 1 -1.74-.56l-.87-.64a4.38 4.38 0 0 1 -1 1.33 5.43 5.43 0 0 1 -3.7 1.19z"/><path d="m37.18 21.81a3 3 0 0 1 -3-3.31 17.34 17.34 0 0 0 .08-1.81v-7.69c0-.25 0-.46 0-.67a3 3 0 0 1 -.66-1.87v-2.14a3 3 0 0 1 3-3h.32c.55 0 1.08.08 1.77.08h1.83c0-.08.12-.16.18-.24a3 3 0 0 1 2.3-1.03h2.42a3 3 0 0 1 2.27 1 2.35 2.35 0 0 1 .19.25h2.12a15.88 15.88 0 0 0 1.72-.08h.35a3 3 0 0 1 3 3v2.1a3 3 0 0 1 -.69 1.92v.64 7.63a4.93 4.93 0 0 1 -1.71 4.05l-.09.06a6 6 0 0 1 -3.8 1h-.59-.72a3 3 0 0 1 -2.46-1.53h-.26a3 3 0 0 1 -1.93.7h-1a3 3 0 0 1 -2.22 1z"/><path d="m68.61 20.61a2.43 2.43 0 0 1 -.38 0 17.47 17.47 0 0 0 -2-.09h-10.56a18.46 18.46 0 0 0 -2.08.1h-.32a3 3 0 0 1 -3-3v-2.38a3 3 0 0 1 1-2.24 3 3 0 0 1 2-.76h.33a15.91 15.91 0 0 0 2.11.1h.92v-2.63h-.21a19.57 19.57 0 0 0 -2 .08h-.3a3 3 0 0 1 -3-3v-2.3a3 3 0 0 1 3-3h.33a16.36 16.36 0 0 0 2 .09h9a15 15 0 0 0 1.92-.08 2.11 2.11 0 0 1 .35 0 3 3 0 0 1 3 3v2.31a3 3 0 0 1 -3 3h-.28c-.62 0-1.09-.08-2-.08h-.44v2.64h1.19a17.3 17.3 0 0 0 2.06-.09 1.94 1.94 0 0 1 .34 0 3 3 0 0 1 3 3v2.37a3 3 0 0 1 -3 3z"/><path d="m82.67 21.93a3 3 0 0 1 -2.36-1.14l-.81.07c-.76.08-5.73.52-6.46.56s-1.26.12-1.48.16a3 3 0 0 1 -3.49-2.58l-.29-2.39a3 3 0 0 1 .22-1.61 3.05 3.05 0 0 1 -.57-1.76v-2.18a2.82 2.82 0 0 1 .09-.71l-.24-.35a3 3 0 0 1 -.48-2.66 3 3 0 0 1 1.88-2 11.25 11.25 0 0 0 3.26-1.7 7.4 7.4 0 0 0 2-2 3 3 0 0 1 2.48-1.31h2.32a3 3 0 0 1 2.41 1.22 7.36 7.36 0 0 0 2.09 2 13.32 13.32 0 0 0 3.4 1.69 3 3 0 0 1 1.65 4.36c-.21.35-.35.61-.47.86a3 3 0 0 1 .06.6v2.22a3 3 0 0 1 -1 2.25l-.07.06c.07.11.15.21.23.32a3 3 0 0 1 .53 2.34 3 3 0 0 1 -1.34 2l-2 1.23a3 3 0 0 1 -1.56.45z"/><path d="m86.88 21.79a3 3 0 0 1 -3-3.28c0-.52.07-.94.07-1.37v-2.45c0-.46 0-.77 0-1a2.89 2.89 0 0 1 .17-1.46v-1.32c0-.1 0-.2 0-.31a3 3 0 0 1 0-.31v-.69a3 3 0 0 1 -.5-1.66v-1.94a3 3 0 0 1 .47-1.61v-.8a3 3 0 0 1 3-3 3.42 3.42 0 0 1 .44 0 6.25 6.25 0 0 0 .74 0h2.12a6.14 6.14 0 0 0 .78 0 2 2 0 0 1 .42 0 3.56 3.56 0 0 1 .73.09 4.27 4.27 0 0 1 .54-.18l2-.45a3.05 3.05 0 0 1 .6-.05 3 3 0 0 1 1.38.33 3 3 0 0 1 1.41-.33 3.05 3.05 0 0 1 .6.06l2 .42a3 3 0 0 1 1.85 1.21 3.33 3.33 0 0 1 .85.5 3 3 0 0 1 1.07 2.3v1.58a2.88 2.88 0 0 1 -.11.78 3 3 0 0 1 .37 1.44v1.59a2.92 2.92 0 0 1 -.15.93 2.87 2.87 0 0 1 .22 1.12v1.79a3.27 3.27 0 0 1 -.08.7 3 3 0 0 1 .57 2.21 7.39 7.39 0 0 1 -.83 2.85 4.13 4.13 0 0 1 -3.61 2.19 5.77 5.77 0 0 1 -2.57-.67l-.43.2a3 3 0 0 1 -1.38.34 2.92 2.92 0 0 1 -1-.18 6.91 6.91 0 0 1 -2.46.35h-.91a2.78 2.78 0 0 1 -1-.2h-1.25a3 3 0 0 1 -1.31.3z"/><path d="m104.88 21.78a3 3 0 0 1 -2.32-1.09 4.12 4.12 0 0 0 -1.12-1.05 3 3 0 0 1 -1-4c.6-1.05.85-2 .85-6.33 0-.72 0-1.14 0-1.47a3 3 0 0 1 -.65-1.84v-2.17a3 3 0 0 1 1-2.25 3 3 0 0 1 2-.75 2.43 2.43 0 0 1 .38 0 11.61 11.61 0 0 0 1.52.06h3.46a11.88 11.88 0 0 0 1.5-.05 3.27 3.27 0 0 1 .44 0 3 3 0 0 1 1.94.72 14.53 14.53 0 0 0 1.68-.31 10.57 10.57 0 0 0 1.81-.6 3 3 0 0 1 4 1.28l1.09 2.07a3 3 0 0 1 0 2.68 1.3 1.3 0 0 1 -.08.17 3.05 3.05 0 0 1 .38 1.46v2.2a3 3 0 0 1 -1 2.23 3.58 3.58 0 0 1 -.56.4v3.66a8.3 8.3 0 0 0 .06 1.41 3 3 0 0 1 -.69 2.41 3 3 0 0 1 -2.27 1.05h-2.3a3 3 0 0 1 -2.23-1l-.07-.08-.23.25a3 3 0 0 1 -2.21 1h-.17a3 3 0 0 1 -2.26-1.24l-.3-.39-.06.11a3 3 0 0 1 -2.35 1.51z"/></g><path d="m8.69 14.42a20 20 0 0 1 -4.61 3.58 6.8 6.8 0 0 0 -1.08-1.86 15.89 15.89 0 0 0 4.16-2.81c-.64.1-.64.1-2.87.4-.22 0-.51.07-.92.15l-.22-2h.4.65v-5.54a9.94 9.94 0 0 0 -.1-1.74 8.85 8.85 0 0 0 1.45.09h.59a6.4 6.4 0 0 0 .58-1.69l2.21.26c0 .12 0 .12-.22.47a4.72 4.72 0 0 0 -.2.44c-.08.21-.12.28-.22.5h1.05a7.71 7.71 0 0 0 1.37-.09 14.29 14.29 0 0 0 -.08 1.64v3l1.17.78a2.28 2.28 0 0 0 -.27.44c-.17.28-.6 1-.9 1.47v4.84c0 1.48-.44 1.82-2.39 1.82-.43 0-.68 0-1.22-.05a4.86 4.86 0 0 0 -.48-2 13.67 13.67 0 0 0 1.73.12c.34 0 .42-.05.42-.27zm0-8.11h-2.58v.69h2.58zm-2.58 3h2.58v-.77h-2.58zm0 2.42c1.21-.1 1.21-.1 2.58-.28v-.64h-2.58zm9-6.21c0-.78 0-1.35-.1-2.1h2.32a18 18 0 0 0 -.1 2.12v1a7.53 7.53 0 0 0 1.46-.1v2.14a9 9 0 0 0 -1.46-.09v8c0 1.77-.5 2.13-2.88 2.13-.5 0-.88 0-1.36-.05a6.53 6.53 0 0 0 -.51-2.13 15.09 15.09 0 0 0 1.69.13c.77 0 .94-.08.94-.41v-7.67h-2.23a16.5 16.5 0 0 0 -1.8.1v-2.17a12.38 12.38 0 0 0 1.79.1h2.22zm-2.11 9.17a14 14 0 0 0 -1.66-3.89l1.72-.86a15.55 15.55 0 0 1 1.81 3.76z" fill="#231815"/><path d="m26.27 8.19a10.57 10.57 0 0 0 -.35 1.14 16.39 16.39 0 0 1 -2 4.82 12.76 12.76 0 0 1 -2.62 3 9.91 9.91 0 0 0 -1.74-1.8 11.07 11.07 0 0 0 2.31-2.27 10.12 10.12 0 0 0 1.9-3.94h-1.89a11.46 11.46 0 0 0 -1.71.1v-2.3a10.64 10.64 0 0 0 1.83.06h1.73a8.25 8.25 0 0 0 1.47 0zm8.43-1c-.35.38-.39.41-.92 1a24.84 24.84 0 0 1 -2.91 2.81 13.27 13.27 0 0 0 4.63 4 9.71 9.71 0 0 0 -1.57 2.22 14.43 14.43 0 0 1 -2.64-2.22 15.72 15.72 0 0 1 -2.6-4.17c0 1.38.06 2.17.06 2.35v3.54a1.78 1.78 0 0 1 -.45 1.47 2.73 2.73 0 0 1 -1.77.43c-.68 0-1.55 0-2.24-.08a5.81 5.81 0 0 0 -.55-2.24 18.16 18.16 0 0 0 2.17.19c.5 0 .6-.07.6-.39v-10.93a11.33 11.33 0 0 0 -.11-1.79h2.47a10.38 10.38 0 0 0 -.12 1.81v1.2a9.89 9.89 0 0 0 1 2.74 11.89 11.89 0 0 0 2.9-3.51z" fill="#231815"/><path d="m40.7 13.5v-.5c-.21.08-.28.13-.53.23a4.78 4.78 0 0 0 -.74-1.15v4.59a18.24 18.24 0 0 0 .09 2.14h-2.34a17.91 17.91 0 0 0 .1-2.12v-7.69a14.29 14.29 0 0 0 -.07-1.44c.3 0 1.06.05 1.69.05h1.74a5.43 5.43 0 0 0 -.54-1.23h-1.55a16.5 16.5 0 0 0 -1.94.08v-2.14a18.53 18.53 0 0 0 2.09.1h4.37v-.28a6.56 6.56 0 0 0 -.08-1h2.42a5.7 5.7 0 0 0 -.08 1v.28h4.67a16.78 16.78 0 0 0 2-.1v2.1a16 16 0 0 0 -1.92-.08h-1.6a8.55 8.55 0 0 1 -.63 1.23h2a14 14 0 0 0 1.57-.05 11.13 11.13 0 0 0 -.1 1.48v7.63c0 .91-.17 1.38-.55 1.68a3.25 3.25 0 0 1 -2.05.4h-.57-.62a7.46 7.46 0 0 0 -.33-1.52c-.29 0-.4 0-.65 0h-3.83v.7h-2.08a8.25 8.25 0 0 0 .06-1.26zm-1.27-4.07v2c1.34-.43 2-1.06 2.11-2zm4.18 0a3.73 3.73 0 0 1 -.42 1.4 4.57 4.57 0 0 1 -1.65 1.72h5.06a11.62 11.62 0 0 0 1.31-.05v1.15 2.35.74h.79c.41 0 .51-.08.51-.45v-4.54a1.32 1.32 0 0 1 -.68.23 12.26 12.26 0 0 1 -1.55.08c-1.14 0-1.59-.05-1.89-.25a.86.86 0 0 1 -.42-.81v-1.57zm1.93-1.86a6 6 0 0 0 .57-1.23h-3.65a10.13 10.13 0 0 1 .54 1.23zm-2.8 7.85h3.26v-1.17h-3.26zm6.44-6h-2.5v.77c0 .26.13.31.85.31s.92 0 .94-.7a1.91 1.91 0 0 0 .71.37z" fill="#231815"/><path d="m56.42 6.71a20.64 20.64 0 0 0 -2.27.1v-2.32a21.85 21.85 0 0 0 2.31.1h9a17.93 17.93 0 0 0 2.27-.1v2.32a20.74 20.74 0 0 0 -2.25-.1h-3.48v8.64h4.19a20.39 20.39 0 0 0 2.4-.11v2.37a18.64 18.64 0 0 0 -2.42-.12h-10.5a20 20 0 0 0 -2.4.12v-2.37a20.68 20.68 0 0 0 2.44.11h3.92v-8.64z" fill="#231815"/><path d="m73.3 9a18.69 18.69 0 0 1 -2.52 1.3 7.23 7.23 0 0 0 -1.1-2.07 14.1 14.1 0 0 0 4-2.1 10.45 10.45 0 0 0 2.72-2.76h2.32a10.08 10.08 0 0 0 2.84 2.63 16.16 16.16 0 0 0 4.14 2.08 9.63 9.63 0 0 0 -1 2.23 15.4 15.4 0 0 1 -2.7-1.37v1.14a13.92 13.92 0 0 0 -1.56-.08h-5.66a14.12 14.12 0 0 0 -1.48.07zm-.87 4.22a17.58 17.58 0 0 0 -2 .1v-2.26c.57 0 1.24.09 2 .09h10.47c.8 0 1.43 0 2-.09v2.22a17.51 17.51 0 0 0 -2-.1h-5.65a20 20 0 0 1 -1.6 3c3.35-.18 3.35-.18 4.78-.38-.54-.6-.8-.9-1.61-1.73l2-.84a35.76 35.76 0 0 1 3.79 4.46l-2 1.24c-.46-.74-.61-1-.88-1.36-1.6.22-1.64.22-2.56.3s-5.7.52-6.34.55-1.45.14-1.84.2l-.28-2.38h1.17 1.18a20 20 0 0 0 1.64-3.07zm8.15-5.22a13 13 0 0 1 -3-2.78 12.77 12.77 0 0 1 -2.9 2.78z" fill="#231815"/><path d="m91.86 7.94a9.2 9.2 0 0 0 -1.27-.05h-2.77a7.8 7.8 0 0 0 -1.22.05v-1.94a8.09 8.09 0 0 0 1.22.07h2.72a6.89 6.89 0 0 0 1.32-.07zm-5 10.85c.05-.53.09-1.07.09-1.65v-2.45a10.52 10.52 0 0 0 -.07-1.37 7.26 7.26 0 0 0 1.1 0h2.46a10.2 10.2 0 0 0 1.11 0 12.58 12.58 0 0 0 0 1.32v2.49 1.35h-1.63v-.48h-1.22v.78zm.19-15.16a7.69 7.69 0 0 0 1.18.07h2.12a7.8 7.8 0 0 0 1.2-.07v1.84a7.86 7.86 0 0 0 -1.2 0h-2.1a11.19 11.19 0 0 0 -1.18 0zm0 5a7.11 7.11 0 0 0 1.2.05h2a8.45 8.45 0 0 0 1.25-.05v1.71a10.91 10.91 0 0 0 -1.25 0h-2a9.29 9.29 0 0 0 -1.2 0zm0 2.33a8.41 8.41 0 0 0 1.2.05h2a8.09 8.09 0 0 0 1.25-.05v1.72a8.81 8.81 0 0 0 -1.25-.05h-2a11.21 11.21 0 0 0 -1.2.05zm1.6 5.43h1.22v-1.4h-1.17zm4.64-6.53a8.36 8.36 0 0 0 -1.29.02v-1.57a8.36 8.36 0 0 0 1.36.07h2.42v-.56h-1.78a8.59 8.59 0 0 0 -1.33.07v-1.4a9.77 9.77 0 0 0 1.33.07h1.75v-.56h-2.16a10.58 10.58 0 0 0 -1.33.07v-1.58a8 8 0 0 0 1.33.08h.59a6.48 6.48 0 0 0 -.67-1.1l1.95-.47a9.87 9.87 0 0 1 .82 1.55h1.3a7.57 7.57 0 0 0 .67-1.55l2 .42c-.17.38-.4.8-.59 1.15h.6a8 8 0 0 0 1.36-.08v1.58a10.77 10.77 0 0 0 -1.32-.07h-2.57v.56h2a9.67 9.67 0 0 0 1.33-.07v1.4a11.25 11.25 0 0 0 -1.33-.07h-2v.56h2.79a6.35 6.35 0 0 0 1.4-.09v1.59a9.22 9.22 0 0 0 -1.36-.07h-.44a9.74 9.74 0 0 1 1.55 1.35l-1.21.87h.16a6.27 6.27 0 0 0 1.37-.1v1.79a6.79 6.79 0 0 0 -1.37-.09h-.23l1.27.89c-.72.77-1.17 1.22-1.62 1.65.28.39.55.6.7.6s.37-.43.48-1.42a3.87 3.87 0 0 0 1.29.87 4.66 4.66 0 0 1 -.51 1.78 1.11 1.11 0 0 1 -1 .65 2.77 2.77 0 0 1 -1.4-.48 3.2 3.2 0 0 1 -.9-.93 16.13 16.13 0 0 1 -2.1 1.28 7.45 7.45 0 0 0 -1.07-1.52 9.89 9.89 0 0 0 2.34-1.18 8.26 8.26 0 0 1 -.64-2.21h-1.88v.64l1.57-.25v1.5l-1 .19-.63.11v1.29a1.46 1.46 0 0 1 -.45 1.27 2.76 2.76 0 0 1 -1.76.35h-.78a6.15 6.15 0 0 0 -.3-1.71 7.33 7.33 0 0 0 1.08.09c.39 0 .47-.07.47-.35v-.64l-.88.13a5.26 5.26 0 0 0 -.57.1l-.23-1.71h.18c.2 0 .37 0 1.5-.15v-.86h-.55a7.3 7.3 0 0 0 -1.14.07v-1.68a6.45 6.45 0 0 0 1.17.07h.5v-.48c-.42 0-.48 0-1.08.08a3.6 3.6 0 0 0 -.52-1.1 9 9 0 0 0 3.8-.69l1 1.06a8 8 0 0 1 -1.38.36v.7h1.65a6.26 6.26 0 0 1 -.06-.78 5.82 5.82 0 0 0 -.1-1.12h1.9a4.72 4.72 0 0 0 0 .63c0 .3 0 .77.05 1.27h1.58a6.3 6.3 0 0 0 -1.5-1.45l1.23-.77zm5.71 3.77a8.12 8.12 0 0 0 .3 1.11 4.39 4.39 0 0 0 1-1.11z" fill="#231815"/><path d="m110.48 11.5a12.34 12.34 0 0 0 0 1.4c-.2 0-.77 0-1.69 0h-2.49a12.19 12.19 0 0 1 -1.46 5.91 7.19 7.19 0 0 0 -1.79-1.64c1-1.75 1.23-3.34 1.23-7.8a20.86 20.86 0 0 0 -.04-2.37h1.79 2.77 1.73v1.63zm-6.84-7.67a12.92 12.92 0 0 0 1.9.09h3.46a12 12 0 0 0 1.94-.09v2.17a16.58 16.58 0 0 0 -1.84-.06h-3.67a12 12 0 0 0 -1.77.08zm4.81 7.17v-2.16h-2v1 1.15zm5.07-.6a15.56 15.56 0 0 1 -.78 4.56 10.27 10.27 0 0 1 -2.46 3.81 6.6 6.6 0 0 0 -1.63-1.66 7.07 7.07 0 0 0 1.65-2.11 9.78 9.78 0 0 0 1-3.81c.08-1 .13-2.37.13-4.5a18.92 18.92 0 0 0 -.07-2.07 16.08 16.08 0 0 0 3.86-.49 13 13 0 0 0 2.47-.85l1.07 2.05a7.32 7.32 0 0 0 -.82.22 24.43 24.43 0 0 1 -4.39.9v1.91h3.56a11.92 11.92 0 0 0 1.65-.08v2.2a12.47 12.47 0 0 0 -1.47-.07h-.08v6.36a10.46 10.46 0 0 0 .1 1.87h-2.31a13.61 13.61 0 0 0 .11-1.87v-6.36z" fill="#231815"/></svg>