<svg viewBox="0 0 38.13 21.72" xmlns="http://www.w3.org/2000/svg"><path d="m9.28 6.47c-1.91.2-2.91.29-4.78.34a5.67 5.67 0 0 0 -.78-2.09h.68a39.46 39.46 0 0 0 9-1 7.43 7.43 0 0 0 1.94-.72l1.47 2-1.07.27a33.52 33.52 0 0 1 -4.11.9v3.24h4.54a14.76 14.76 0 0 0 2-.1v2.27a16.11 16.11 0 0 0 -1.95-.1h-4.59v5.16a15 15 0 0 0 .1 2.08h-2.55a14.58 14.58 0 0 0 .1-2.12v-5.12h-4.28a16.11 16.11 0 0 0 -1.95.1v-2.27a15.67 15.67 0 0 0 2 .1h4.23z"/><path d="m19.37 17a8.29 8.29 0 0 0 1.77-3.47l1.87.78a13.74 13.74 0 0 1 -1.72 3.94zm2.31-10.9a17.13 17.13 0 0 0 -1.92.08v-2a14.07 14.07 0 0 0 2 .1h4.35a6 6 0 0 0 -.11-1.28h2.25a5.5 5.5 0 0 0 -.1 1.24h4.58a14.07 14.07 0 0 0 2-.1v2.08a16.23 16.23 0 0 0 -2-.08h-4.58v.72h3.36a12.15 12.15 0 0 0 1.8-.09 14.29 14.29 0 0 0 -.07 1.71v2.95a11.27 11.27 0 0 0 .09 1.69c-.42 0-1.07 0-1.62 0h-3.77a11.39 11.39 0 0 1 1.73 1.85l-1.77 1.03a9.69 9.69 0 0 0 -1.78-2.1l1.58-.85h-4.82a17.11 17.11 0 0 0 -1.74 0 14.35 14.35 0 0 0 .07-1.69v-2.87a14.82 14.82 0 0 0 -.07-1.72 12.17 12.17 0 0 0 1.79.09h3.15v-.72zm1.68 2.32v.77h2.72v-.73zm0 2.24v.76h2.72v-.72zm2.31 5.44c0 .18.06.26.28.33a7.85 7.85 0 0 0 1.85.08c1.05 0 1.51-.08 1.66-.31a3.41 3.41 0 0 0 .18-1.2 7 7 0 0 0 2.1.52c-.23 2.77-.5 3-4.32 3-3.39 0-3.84-.18-3.84-1.6v-1.92a9 9 0 0 0 -.08-1.5h2.25a5.22 5.22 0 0 0 -.08 1.15zm2.48-6.91h2.94v-.73h-2.94zm0 2.23h2.94v-.72h-2.94zm5.11 6.66a15.67 15.67 0 0 0 -2.26-3.65l1.77-.85a18.05 18.05 0 0 1 2.36 3.42z"/><path d="m9.18 21.72a3 3 0 0 1 -3-3.41 12.81 12.81 0 0 0 .07-1.71v-2.12h-1.25a15.08 15.08 0 0 0 -1.64.08h-.31a3 3 0 0 1 -3-3v-2.25a3 3 0 0 1 .95-2.24 3.79 3.79 0 0 1 .4-.3 4.8 4.8 0 0 0 -.28-.55 3 3 0 0 1 2.6-4.5h.16a4.72 4.72 0 0 0 .49 0 36.68 36.68 0 0 0 8.26-.92 4.22 4.22 0 0 0 1.23-.41 3 3 0 0 1 3.9.84l1.46 2a3 3 0 0 1 .4 2.8 2.69 2.69 0 0 1 -.26.54 2.67 2.67 0 0 1 .76.49 3 3 0 0 1 1 2.25v2.27a3 3 0 0 1 -3 3h-.33a13.51 13.51 0 0 0 -1.62-.08h-1.54v2.16a12.39 12.39 0 0 0 .08 1.71 3 3 0 0 1 -.71 2.34 3 3 0 0 1 -2.25 1z" fill="#fff"/><path d="m27.42 21.44a11.63 11.63 0 0 1 -4.53-.61 2.76 2.76 0 0 1 -.92.38 2.63 2.63 0 0 1 -.68.08 3.05 3.05 0 0 1 -1.64-.49l-1.92-1.25a3 3 0 0 1 -.68-4.41 5.05 5.05 0 0 0 1.09-2c0-.11 0-.22 0-.32a12.79 12.79 0 0 0 .05-1.38v-2.65a2.89 2.89 0 0 1 -.45-.33 3 3 0 0 1 -1-2.24v-2a3 3 0 0 1 3-3 2.56 2.56 0 0 1 .39 0 12.62 12.62 0 0 0 1.58.07h1.84a1 1 0 0 1 .13-.16 3 3 0 0 1 2.32-1.13h2.25a3 3 0 0 1 2.37 1.15l.06.09h2a11 11 0 0 0 1.59-.08h.38a3 3 0 0 1 3 3v2.06a3 3 0 0 1 -1 2.25 2.75 2.75 0 0 1 -.44.32v2.64a8.27 8.27 0 0 0 .07 1.32 4.1 4.1 0 0 1 0 .5 21.6 21.6 0 0 1 1.43 2.31 3 3 0 0 1 -1.09 4l-1.82 1.14a3 3 0 0 1 -2.42.29 2.9 2.9 0 0 1 -.41-.16 11.43 11.43 0 0 1 -4.55.61z" fill="#fff"/><g fill="#231815"><path d="m9.28 6.47c-1.91.2-2.91.29-4.78.34a5.67 5.67 0 0 0 -.78-2.09h.68a39.46 39.46 0 0 0 9-1 7.43 7.43 0 0 0 1.94-.72l1.47 2-1.07.27a33.52 33.52 0 0 1 -4.11.9v3.24h4.54a14.76 14.76 0 0 0 2-.1v2.27a16.11 16.11 0 0 0 -1.95-.1h-4.59v5.16a15 15 0 0 0 .1 2.08h-2.55a14.58 14.58 0 0 0 .1-2.12v-5.12h-4.28a16.11 16.11 0 0 0 -1.95.1v-2.27a15.67 15.67 0 0 0 2 .1h4.23z"/><path d="m19.37 17a8.29 8.29 0 0 0 1.77-3.47l1.87.78a13.74 13.74 0 0 1 -1.72 3.94zm2.31-10.9a17.13 17.13 0 0 0 -1.92.08v-2a14.07 14.07 0 0 0 2 .1h4.35a6 6 0 0 0 -.11-1.28h2.25a5.5 5.5 0 0 0 -.1 1.24h4.58a14.07 14.07 0 0 0 2-.1v2.08a16.23 16.23 0 0 0 -2-.08h-4.58v.72h3.36a12.15 12.15 0 0 0 1.8-.09 14.29 14.29 0 0 0 -.07 1.71v2.95a11.27 11.27 0 0 0 .09 1.69c-.42 0-1.07 0-1.62 0h-3.77a11.39 11.39 0 0 1 1.73 1.85l-1.77 1.03a9.69 9.69 0 0 0 -1.78-2.1l1.58-.85h-4.82a17.11 17.11 0 0 0 -1.74 0 14.35 14.35 0 0 0 .07-1.69v-2.87a14.82 14.82 0 0 0 -.07-1.72 12.17 12.17 0 0 0 1.79.09h3.15v-.72zm1.68 2.32v.77h2.72v-.73zm0 2.24v.76h2.72v-.72zm2.31 5.44c0 .18.06.26.28.33a7.85 7.85 0 0 0 1.85.08c1.05 0 1.51-.08 1.66-.31a3.41 3.41 0 0 0 .18-1.2 7 7 0 0 0 2.1.52c-.23 2.77-.5 3-4.32 3-3.39 0-3.84-.18-3.84-1.6v-1.92a9 9 0 0 0 -.08-1.5h2.25a5.22 5.22 0 0 0 -.08 1.15zm2.48-6.91h2.94v-.73h-2.94zm0 2.23h2.94v-.72h-2.94zm5.11 6.66a15.67 15.67 0 0 0 -2.26-3.65l1.77-.85a18.05 18.05 0 0 1 2.36 3.42z"/></g></svg>