<svg viewBox="0 0 54.55 21.74" xmlns="http://www.w3.org/2000/svg"><path d="m9.11 4.05a5.34 5.34 0 0 0 -.11-1.05h2.4a6.15 6.15 0 0 0 -.08 1h4.47c.89 0 1.4 0 1.92-.06a7.27 7.27 0 0 0 -.07 1.18v1.27a8.52 8.52 0 0 0 .07 1.2h-2.11v-1.8h-10.45v1.8h-2.15a9.14 9.14 0 0 0 .08-1.22v-1.2c0-.42 0-.75-.06-1.18.5 0 1 .06 1.92.06zm-5.31 9.78a17.56 17.56 0 0 0 -.07-1.77 15.45 15.45 0 0 0 1.74.07h9.78a15.85 15.85 0 0 0 1.75-.07 13.28 13.28 0 0 0 -.07 1.77v2.92a17 17 0 0 0 .07 1.92h-2.13v-.56h-9v.56h-2.17a14.51 14.51 0 0 0 .1-1.9zm11.92-3.4a7.45 7.45 0 0 0 0 1.2c-.53 0-1.08-.05-1.6-.05h-7.56c-.54 0-1.06 0-1.61.05a7.55 7.55 0 0 0 .05-1.2v-1a8.77 8.77 0 0 0 0-1.21c.54 0 1 .06 1.61.06h7.62c.62 0 1.06 0 1.59-.06a8.28 8.28 0 0 0 0 1.21zm-10.08-4.18a10.31 10.31 0 0 0 1.22.06h7a10.38 10.38 0 0 0 1.23-.06v1.54c-.38 0-.77 0-1.23 0h-7c-.43 0-.82 0-1.18 0zm.23 8.12h3.36v-.69h-3.36zm0 2.12h3.36v-.74h-3.36zm1.22-6.9v.67h6.56v-.67zm4.19 4.78h3.59v-.69h-3.59zm0 2.12h3.59v-.74h-3.59z"/><path d="m25.77 5a13.65 13.65 0 0 0 -.12-1.76h2.57a12.37 12.37 0 0 0 -.12 1.76v10.3h3.66v-7.44a11.16 11.16 0 0 0 -.1-1.62h2.45a15.14 15.14 0 0 0 -.11 1.62v8.51a19.82 19.82 0 0 0 .12 2.19h-2.36v-1.12h-9.38v1.12h-2.38a18.19 18.19 0 0 0 .1-2.16v-8.51a12.94 12.94 0 0 0 -.1-1.65h2.42a15 15 0 0 0 -.06 1.65v7.41h3.39z"/><path d="m41.57 15a11.82 11.82 0 0 1 -3.92 3.5 8.45 8.45 0 0 0 -1.52-1.65 8.48 8.48 0 0 0 2.15-1.3 6.76 6.76 0 0 0 1.44-1.49zm3.27 1.73a15 15 0 0 0 .1 2h-2.35a14 14 0 0 0 .1-1.95v-2.73h-4a16.71 16.71 0 0 0 -1.79.07 11.8 11.8 0 0 0 .1-1.81v-5.89a11.2 11.2 0 0 0 -.09-1.73h2.26a15.16 15.16 0 0 0 -.07 1.72v5.79h10.28a13.34 13.34 0 0 0 2-.09v2a14.56 14.56 0 0 0 -1.94-.1h-4.6zm4.88-6.68a12.27 12.27 0 0 0 .06 1.49c-.43 0-1-.05-1.6-.05h-6.37c-.64 0-1.14 0-1.59.05 0-.43.05-.87.05-1.52v-5c0-.55 0-1-.05-1.45a14.64 14.64 0 0 0 1.64.07h6.34a14.43 14.43 0 0 0 1.58-.07 13 13 0 0 0 -.06 1.49zm-7.38-4.11h5.31v-.69h-5.31zm0 2.05h5.31v-.7h-5.31zm0 2.07h5.31v-.72h-5.31zm5.41 4a9.31 9.31 0 0 0 3.8 2.64 13.88 13.88 0 0 0 -1.4 1.82 12.2 12.2 0 0 1 -2.15-1.41 13.2 13.2 0 0 1 -2-2z"/><g fill="#fff"><path d="m14.87 21.67a3 3 0 0 1 -1.76-.56h-5.48a3 3 0 0 1 -1.76.56h-2.17a3 3 0 0 1 -2.25-1 3 3 0 0 1 -.73-2.37 10.94 10.94 0 0 0 .08-1.53v-2.94a14.46 14.46 0 0 0 -.05-1.5 3 3 0 0 1 .68-2.18 3.07 3.07 0 0 1 -.67-.57 3 3 0 0 1 -.76-2.35 5.26 5.26 0 0 0 .06-.86v-1.2c0-.27 0-.49 0-.74v-.21a3 3 0 0 1 2.94-3.22h.29a16 16 0 0 0 1.63.05h1.83a3 3 0 0 1 2.25-1.05h2.4a3 3 0 0 1 2.28 1.05h2.11c.8 0 1.23 0 1.63-.05h.29a3 3 0 0 1 2.18.93 3 3 0 0 1 .79 2.51 4.13 4.13 0 0 0 0 .74v1.21a6 6 0 0 0 0 .79 3 3 0 0 1 -1.4 3 3 3 0 0 1 .72 2.22 10.22 10.22 0 0 0 0 1.43v2.92a14.23 14.23 0 0 0 0 1.54 3 3 0 0 1 -3 3.38z"/><path d="m31.76 21.56a3 3 0 0 1 -2.34-1.12h-4.71a3 3 0 0 1 -2.33 1.12h-2.38a3 3 0 0 1 -3-3.33 15.66 15.66 0 0 0 .08-1.83v-8.51a10.13 10.13 0 0 0 -.07-1.27 3 3 0 0 1 3-3.38h2.63a3 3 0 0 1 3-3h2.57a3 3 0 0 1 3 3 3.15 3.15 0 0 1 .44 0h2.45a3 3 0 0 1 2.25 1 3 3 0 0 1 .73 2.34 11.54 11.54 0 0 0 -.08 1.28v8.51a16.06 16.06 0 0 0 .1 1.86 3 3 0 0 1 -3 3.33z"/><path d="m42.59 21.74a3 3 0 0 1 -2.26-1l-.16-.21c-.33.22-.68.43-1 .64a3.06 3.06 0 0 1 -1.48.39 3 3 0 0 1 -2.41-1.21 5.57 5.57 0 0 0 -1-1.15 3 3 0 0 1 -.28-4.41 3 3 0 0 1 -.05-1.07 9.8 9.8 0 0 0 .05-1.41v-5.89a9.84 9.84 0 0 0 -.06-1.35 3 3 0 0 1 3-3.38h1l.21-.24a3 3 0 0 1 2.07-.85h.32a11.12 11.12 0 0 0 1.32.05h6.34a11.94 11.94 0 0 0 1.29-.03h.29a3 3 0 0 1 2.14.89 3 3 0 0 1 .85 2.44 9 9 0 0 0 -.05 1.16v4.34a2.85 2.85 0 0 1 .58.4 3 3 0 0 1 1 2.26v2a3 3 0 0 1 -.2 1.07 2.69 2.69 0 0 1 .34.88 3 3 0 0 1 -.7 2.64 10.63 10.63 0 0 0 -1.13 1.48 3 3 0 0 1 -2.5 1.34 3 3 0 0 1 -1.49-.4c-.48-.27-.87-.5-1.23-.74a2.09 2.09 0 0 1 -.23.29 3 3 0 0 1 -2.26 1z"/></g><path d="m9.11 4.05a5.34 5.34 0 0 0 -.11-1.05h2.4a6.15 6.15 0 0 0 -.08 1h4.47c.89 0 1.4 0 1.92-.06a7.27 7.27 0 0 0 -.07 1.18v1.27a8.52 8.52 0 0 0 .07 1.2h-2.11v-1.8h-10.45v1.8h-2.15a9.14 9.14 0 0 0 .08-1.22v-1.2c0-.42 0-.75-.06-1.18.5 0 1 .06 1.92.06zm-5.31 9.78a17.56 17.56 0 0 0 -.07-1.77 15.45 15.45 0 0 0 1.74.07h9.78a15.85 15.85 0 0 0 1.75-.07 13.28 13.28 0 0 0 -.07 1.77v2.92a17 17 0 0 0 .07 1.92h-2.13v-.56h-9v.56h-2.17a14.51 14.51 0 0 0 .1-1.9zm11.92-3.4a7.45 7.45 0 0 0 0 1.2c-.53 0-1.08-.05-1.6-.05h-7.56c-.54 0-1.06 0-1.61.05a7.55 7.55 0 0 0 .05-1.2v-1a8.77 8.77 0 0 0 0-1.21c.54 0 1 .06 1.61.06h7.62c.62 0 1.06 0 1.59-.06a8.28 8.28 0 0 0 0 1.21zm-10.08-4.18a10.31 10.31 0 0 0 1.22.06h7a10.38 10.38 0 0 0 1.23-.06v1.54c-.38 0-.77 0-1.23 0h-7c-.43 0-.82 0-1.18 0zm.23 8.12h3.36v-.69h-3.36zm0 2.12h3.36v-.74h-3.36zm1.22-6.9v.67h6.56v-.67zm4.19 4.78h3.59v-.69h-3.59zm0 2.12h3.59v-.74h-3.59z" fill="#231815"/><path d="m25.77 5a13.65 13.65 0 0 0 -.12-1.76h2.57a12.37 12.37 0 0 0 -.12 1.76v10.3h3.66v-7.44a11.16 11.16 0 0 0 -.1-1.62h2.45a15.14 15.14 0 0 0 -.11 1.62v8.51a19.82 19.82 0 0 0 .12 2.19h-2.36v-1.12h-9.38v1.12h-2.38a18.19 18.19 0 0 0 .1-2.16v-8.51a12.94 12.94 0 0 0 -.1-1.65h2.42a15 15 0 0 0 -.06 1.65v7.41h3.39z" fill="#231815"/><path d="m41.57 15a11.82 11.82 0 0 1 -3.92 3.5 8.45 8.45 0 0 0 -1.52-1.65 8.48 8.48 0 0 0 2.15-1.3 6.76 6.76 0 0 0 1.44-1.49zm3.27 1.73a15 15 0 0 0 .1 2h-2.35a14 14 0 0 0 .1-1.95v-2.73h-4a16.71 16.71 0 0 0 -1.79.07 11.8 11.8 0 0 0 .1-1.81v-5.89a11.2 11.2 0 0 0 -.09-1.73h2.26a15.16 15.16 0 0 0 -.07 1.72v5.79h10.28a13.34 13.34 0 0 0 2-.09v2a14.56 14.56 0 0 0 -1.94-.1h-4.6zm4.88-6.68a12.27 12.27 0 0 0 .06 1.49c-.43 0-1-.05-1.6-.05h-6.37c-.64 0-1.14 0-1.59.05 0-.43.05-.87.05-1.52v-5c0-.55 0-1-.05-1.45a14.64 14.64 0 0 0 1.64.07h6.34a14.43 14.43 0 0 0 1.58-.07 13 13 0 0 0 -.06 1.49zm-7.38-4.11h5.31v-.69h-5.31zm0 2.05h5.31v-.7h-5.31zm0 2.07h5.31v-.72h-5.31zm5.41 4a9.31 9.31 0 0 0 3.8 2.64 13.88 13.88 0 0 0 -1.4 1.82 12.2 12.2 0 0 1 -2.15-1.41 13.2 13.2 0 0 1 -2-2z" fill="#231815"/></svg>