<svg viewBox="0 0 147.64 91" xmlns="http://www.w3.org/2000/svg"><g fill="#130f07"><path d="m74.37 3h-11.9a5.1 5.1 0 0 0 0 10.2h11.9a18.13 18.13 0 0 1 5.94 35.26 5.1 5.1 0 1 0 3 9.76h.1a28.33 28.33 0 0 0 -9.04-55.22z"/><path d="m68.13 49.46h-8.5a3.41 3.41 0 0 1 -3.39-3.4v-26.63a5.1 5.1 0 0 0 -10.2 0v35.13a5.12 5.12 0 0 0 5.1 5.1h17a5.1 5.1 0 0 0 0-10.2z"/><path d="m3 70.17a.93.93 0 0 1 .85-1h.15a.94.94 0 0 1 1 .88v11.95c0 .09 0 .13.13.13h6.27a.9.9 0 0 1 .19 1.79.61.61 0 0 1 -.19 0h-7.46a.87.87 0 0 1 -.94-.8 1.41 1.41 0 0 1 0-.2z"/><path d="m13.89 81.32a10.45 10.45 0 0 1 0-5.21 4 4 0 0 1 4-2.77 3.92 3.92 0 0 1 4.05 2.75 7.56 7.56 0 0 1 .34 2.5.66.66 0 0 1 -.63.69h-6.1a.12.12 0 0 0 -.13.11 4.1 4.1 0 0 0 .17 1.25 2.53 2.53 0 0 0 2.61 1.78 3.8 3.8 0 0 0 2.48-.88 1 1 0 0 1 .62-.26.73.73 0 0 1 .7.72.86.86 0 0 1 -.28.64 5.33 5.33 0 0 1 -3.72 1.48 4 4 0 0 1 -4.11-2.8zm6.42-3.48a.12.12 0 0 0 .13-.11 3.84 3.84 0 0 0 -.15-1.17 2.32 2.32 0 0 0 -2.37-1.61 2.34 2.34 0 0 0 -2.37 1.61 3.84 3.84 0 0 0 -.15 1.17.12.12 0 0 0 .11.13h4.8z"/><path d="m33 83.13a.86.86 0 0 1 -.86.86h-.06a1 1 0 0 1 -.8-.45l-.41-.64a4 4 0 0 1 -3.17 1.22c-2.34 0-3.7-1.12-3.7-3.12s1.46-3.18 4-3.18h2.35a.12.12 0 0 0 .13-.11v-.52c0-1.44-.67-2.26-2.48-2.26a4.87 4.87 0 0 0 -2.11.52 1.5 1.5 0 0 1 -.51.15.72.72 0 0 1 -.78-.65v-.13a.82.82 0 0 1 .43-.73 5.75 5.75 0 0 1 3.14-.77c2.76 0 4 1.31 4 3.85v3.7a2.05 2.05 0 0 0 .2 1.06l.36.67a1 1 0 0 1 .27.53zm-2.45-2.58v-1.14c0-.09 0-.13-.13-.13h-2.1c-1.76 0-2.56.51-2.56 1.68s.77 1.61 2.15 1.61c1.6 0 2.61-.75 2.61-2z"/><path d="m41.47 83v-.28a3.13 3.13 0 0 1 -2.92 1.37 3.59 3.59 0 0 1 -3.55-2.55 11.15 11.15 0 0 1 0-5.62 3.56 3.56 0 0 1 3.56-2.58 3.13 3.13 0 0 1 2.92 1.37v-4.61a.91.91 0 1 1 1.81-.19.61.61 0 0 1 0 .19v12.9a.91.91 0 1 1 -1.81.19.61.61 0 0 1 0-.19zm-.24-2.2a9.31 9.31 0 0 0 0-4.2 2.4 2.4 0 0 0 -4.54 0 9.31 9.31 0 0 0 0 4.2 2.41 2.41 0 0 0 4.54 0z"/><path d="m52.1 70.1a.81.81 0 0 1 .76-.86h3.83c2.84 0 4.59 1.12 5.3 3.34a11.75 11.75 0 0 1 .43 4 11.75 11.75 0 0 1 -.43 4c-.71 2.22-2.46 3.34-5.3 3.34h-3.69a.81.81 0 0 1 -.86-.76v-.1zm2 12h2.41c1.94 0 3.06-.6 3.57-2.2a10.67 10.67 0 0 0 .35-3.33 10.45 10.45 0 0 0 -.35-3.34c-.51-1.6-1.63-2.2-3.57-2.2h-2.36c-.09 0-.13 0-.13.13v10.84c0 .06 0 .1.13.1z"/><path d="m64.89 81.32a10.45 10.45 0 0 1 0-5.21 4.34 4.34 0 0 1 8.08 0 7.83 7.83 0 0 1 .34 2.5.66.66 0 0 1 -.63.69h-6.08c-.09 0-.13 0-.13.13a4.06 4.06 0 0 0 .17 1.25 2.53 2.53 0 0 0 2.61 1.78 3.78 3.78 0 0 0 2.47-.88 1 1 0 0 1 .63-.26.73.73 0 0 1 .75.73.88.88 0 0 1 -.28.64 5.29 5.29 0 0 1 -3.82 1.43 4 4 0 0 1 -4.11-2.8zm6.42-3.48a.12.12 0 0 0 .13-.11 3.84 3.84 0 0 0 -.15-1.17 2.55 2.55 0 0 0 -3.29-1.45 2.58 2.58 0 0 0 -1.43 1.43 3.84 3.84 0 0 0 -.15 1.17.12.12 0 0 0 .11.13h4.8z"/><path d="m75.4 83a.89.89 0 0 1 -.43-.75.83.83 0 0 1 .84-.82 1.1 1.1 0 0 1 .61.19 5.36 5.36 0 0 0 2.88.91c1.49 0 2.26-.65 2.26-1.55s-.38-1.29-2-1.47l-1.08-.1c-2-.22-3.08-1.25-3.08-2.91 0-2 1.4-3.14 3.81-3.14a6.27 6.27 0 0 1 3.08.75.81.81 0 0 1 .54.75.77.77 0 0 1 -.76.78 1.61 1.61 0 0 1 -.65-.17 5.3 5.3 0 0 0 -2.28-.54c-1.29 0-2 .58-2 1.42s.47 1.25 2 1.4l1.08.11c2.15.23 3.1 1.24 3.1 2.92 0 2-1.46 3.36-4.2 3.36a6.65 6.65 0 0 1 -3.72-1.14z"/><path d="m85.4 70.32a1.19 1.19 0 1 1 1.08 1.08 1.2 1.2 0 0 1 -1.08-1.08zm.28 4.11a.91.91 0 0 1 1.81-.19.61.61 0 0 1 0 .19v8.57a.91.91 0 1 1 -1.81.19.61.61 0 0 1 0-.19z"/><path d="m96.39 74.69v-.26a.91.91 0 0 1 1.81-.19.61.61 0 0 1 0 .19v8.94c0 3.08-1.63 4.63-4.5 4.63a4.74 4.74 0 0 1 -3.27-1.23.84.84 0 0 1 -.26-.58.82.82 0 0 1 .8-.84 1.22 1.22 0 0 1 .73.28 3.44 3.44 0 0 0 2 .69c1.66 0 2.62-.82 2.62-2.8v-1.12a3 3 0 0 1 -2.88 1.36 3.44 3.44 0 0 1 -3.44-2.57 10.53 10.53 0 0 1 0-5.29 3.44 3.44 0 0 1 3.47-2.56 3.12 3.12 0 0 1 2.88 1.35zm-.23 5.79a8.09 8.09 0 0 0 0-3.85 2.3 2.3 0 0 0 -4.4 0 8.09 8.09 0 0 0 0 3.85 2.3 2.3 0 0 0 4.4 0z"/><path d="m101 74.43a.91.91 0 0 1 1.81-.19.61.61 0 0 1 0 .19v.3a3.26 3.26 0 0 1 2.89-1.39c2.23 0 3.57 1.52 3.57 3.87v5.79a.91.91 0 1 1 -1.81.19.61.61 0 0 1 0-.19v-5.36c0-1.66-.75-2.63-2.3-2.63a2.33 2.33 0 0 0 -2.38 2.26 2.26 2.26 0 0 0 0 .26v5.47a.91.91 0 1 1 -1.78 0z"/><path d="m117.13 70.32a1.19 1.19 0 1 1 1.2 1.18 1.2 1.2 0 0 1 -1.2-1.18zm.28 4.11a.91.91 0 0 1 1.81-.19.61.61 0 0 1 0 .19v8.57a.91.91 0 1 1 -1.81.19.61.61 0 0 1 0-.19z"/><path d="m122 74.43a.91.91 0 0 1 1.81-.19.61.61 0 0 1 0 .19v.3a3.25 3.25 0 0 1 2.88-1.39c2.24 0 3.57 1.52 3.57 3.87v5.79a.9.9 0 0 1 -1.8 0v-5.36c0-1.66-.76-2.63-2.31-2.63a2.33 2.33 0 0 0 -2.38 2.26 2.26 2.26 0 0 0 0 .26v5.47a.91.91 0 0 1 -1.78.38.81.81 0 0 1 0-.38z"/><path d="m132.83 81.35a10.57 10.57 0 0 1 0-5.24 4.36 4.36 0 0 1 5.67-2.46 4.27 4.27 0 0 1 1.69 1.19 1.1 1.1 0 0 1 .26.67.79.79 0 0 1 -.78.8 1.09 1.09 0 0 1 -.79-.43 2.43 2.43 0 0 0 -2-.87 2.25 2.25 0 0 0 -2.31 1.62 7 7 0 0 0 -.23 2.09 7.16 7.16 0 0 0 .23 2.11 2.25 2.25 0 0 0 2.31 1.61 2.48 2.48 0 0 0 2-.86 1 1 0 0 1 .79-.43.78.78 0 0 1 .8.78 1.1 1.1 0 0 1 -.26.67 4.37 4.37 0 0 1 -6.21.4 4.48 4.48 0 0 1 -1.17-1.65z"/><path d="m143.4 81.54a1.23 1.23 0 1 1 -1.22 1.24 1.25 1.25 0 0 1 1.22-1.24z"/></g><path d="m81.73 61.46a8.1 8.1 0 0 1 -2.34-15.86 15.13 15.13 0 0 0 -5-29.4h-11.92a8.1 8.1 0 0 1 0-16.2h12a31.33 31.33 0 0 1 9.85 61.07 3 3 0 0 1 -.52.12 8 8 0 0 1 -2.06.27z" fill="#fff"/><path d="m51.14 62.66a8.13 8.13 0 0 1 -8.14-8.09v-35.14a8.1 8.1 0 0 1 16.2 0v26.63a.4.4 0 0 0 .4.4h8.49a8.1 8.1 0 1 1 0 16.2z" fill="#fff"/><path d="m11.33 86.92h-7.46a3.89 3.89 0 0 1 -3.87-3.56 5.8 5.8 0 0 1 0-.59v-12.52a3.92 3.92 0 0 1 3.62-4.07h.44a3.94 3.94 0 0 1 3.94 3.67v.38 8.9h3.5a3.9 3.9 0 0 1 .41 7.78h-.41z" fill="#fff"/><path d="m17.71 87.13a7 7 0 0 1 -6.71-4.92 13.32 13.32 0 0 1 0-6.94 7 7 0 0 1 6.69-4.94h.49a6.89 6.89 0 0 1 6.61 4.87 10.33 10.33 0 0 1 .48 3.4 3.49 3.49 0 0 1 -.55 1.94 3.7 3.7 0 0 1 .28 1.46 3.9 3.9 0 0 1 -1.25 2.92 8.28 8.28 0 0 1 -5.64 2.21h-.43z" fill="#fff"/><path d="m28 87.13h-.38c-3.95 0-6.6-2.49-6.6-6.12a6.14 6.14 0 0 1 1.33-3.89 3.71 3.71 0 0 1 -.72-1.9 4 4 0 0 1 0-.49 3.8 3.8 0 0 1 2-3.27 8.7 8.7 0 0 1 4.32-1.14h.31c4.31 0 7 2.64 7 6.85v3.63l.11.21a4 4 0 0 1 .63 1.81v.3a3.86 3.86 0 0 1 -3.83 3.88h-.17a4 4 0 0 1 -1.45-.34 7 7 0 0 1 -2.55.47z" fill="#fff"/><path d="m38.88 87.11h-.44a6.62 6.62 0 0 1 -6.3-4.69v-.1a14.16 14.16 0 0 1 0-7.14 6.61 6.61 0 0 1 6.33-4.82h.05v-.13a3.9 3.9 0 0 1 3.48-4.11h.41a3.9 3.9 0 0 1 3.88 3.5 4.19 4.19 0 0 1 0 .61v12.67a3.91 3.91 0 0 1 -3.48 4.1h-.42a3.93 3.93 0 0 1 -1.39-.26 6.13 6.13 0 0 1 -2.12.37z" fill="#fff"/><path d="m53 86.92a3.81 3.81 0 0 1 -3.8-3.56c0-.12 0-.24 0-.35v-12.84a3.82 3.82 0 0 1 3.56-3.92h4c5.59 0 7.51 3.4 8.16 5.43a14.81 14.81 0 0 1 .58 4.91 14.61 14.61 0 0 1 -.56 4.83c-.67 2.11-2.59 5.51-8.18 5.51zm4-7.85h.18a7.76 7.76 0 0 0 .23-2.3 1.93 1.93 0 0 1 0-.34 7.79 7.79 0 0 0 -.23-2.31h-.18z" fill="#fff"/><path d="m68.71 87.13a7 7 0 0 1 -6.71-4.92.74.74 0 0 1 0-.14 13.38 13.38 0 0 1 0-6.71 2.35 2.35 0 0 1 .1-.36 7.29 7.29 0 0 1 6.83-4.66 7.46 7.46 0 0 1 2.68.51 7.36 7.36 0 0 1 4.15 4.15 2 2 0 0 1 .08.22 10.79 10.79 0 0 1 .47 3.38 3.61 3.61 0 0 1 -.53 1.93 3.8 3.8 0 0 1 .32 1.47v.2a3.89 3.89 0 0 1 -1.21 2.68 8.3 8.3 0 0 1 -5.66 2.23h-.52z" fill="#fff"/><path d="m79.1 87.14a9.71 9.71 0 0 1 -5.33-1.62 3.88 3.88 0 0 1 -1.77-3.23 3.92 3.92 0 0 1 1.21-2.81 5.85 5.85 0 0 1 -.78-3c0-3.67 2.74-6.14 6.81-6.14a9.56 9.56 0 0 1 4.36 1 3.79 3.79 0 0 1 1.53 5.7 5.71 5.71 0 0 1 1.21 3.69c0 3.17-2.23 6.36-7.2 6.36z" fill="#fff"/><path d="m86.58 87a3.89 3.89 0 0 1 -3.88-3.5 4 4 0 0 1 0-.6v-8.37a3.79 3.79 0 0 1 .43-2 4.28 4.28 0 0 1 -.7-2 5 5 0 0 1 0-.55 4.17 4.17 0 0 1 4.17-3.8h.39a4.19 4.19 0 0 1 3.79 3.79 4.86 4.86 0 0 1 0 .54 4.19 4.19 0 0 1 -.69 2 4 4 0 0 1 .4 1.37 4.19 4.19 0 0 1 0 .61v8.41a3.91 3.91 0 0 1 -3.49 4.1z" fill="#fff"/><path d="m93.61 91a7.72 7.72 0 0 1 -5.2-2 3.8 3.8 0 0 1 -.41-5.14 6.45 6.45 0 0 1 -.89-1.86 13.54 13.54 0 0 1 0-6.81 6.43 6.43 0 0 1 6.23-4.8h.44a6.08 6.08 0 0 1 2.09.36 3.8 3.8 0 0 1 1-.24h.41a3.9 3.9 0 0 1 3.88 3.5 4.19 4.19 0 0 1 0 .61v8.84c0 4.71-2.87 7.63-7.5 7.63l-.09-3z" fill="#fff"/><path d="m101.9 87.08a3.91 3.91 0 0 1 -3.84-3.21 4.11 4.11 0 0 1 0-1.05v-8.29a3.91 3.91 0 0 1 3.5-4.08h.41a4 4 0 0 1 1.46.28 6.3 6.3 0 0 1 2.12-.37h.3c3.82 0 6.48 2.86 6.48 6.87v5.67a3.91 3.91 0 0 1 -3.54 4.1h-.42a3.9 3.9 0 0 1 -3.21-1.67 3.88 3.88 0 0 1 -2.55 1.67 4.27 4.27 0 0 1 -.71.08z" fill="#fff"/><path d="m118.31 87a3.89 3.89 0 0 1 -3.88-3.5 4 4 0 0 1 0-.6v-8.37a3.81 3.81 0 0 1 .4-1.93 4.25 4.25 0 0 1 -.68-2.25 4.19 4.19 0 1 1 7.69 2.25 3.94 3.94 0 0 1 .38 1.32 4.19 4.19 0 0 1 0 .61v8.36a3.91 3.91 0 0 1 -3.49 4.11z" fill="#fff"/><path d="m122.9 87.1a3.92 3.92 0 0 1 -3.82-3.1 3.78 3.78 0 0 1 -.07-1.21v-8.26a3.91 3.91 0 0 1 3.5-4.08h.41a3.9 3.9 0 0 1 1.45.28 6.3 6.3 0 0 1 2.12-.37h.3c3.82 0 6.48 2.86 6.48 6.87v5.77a3.9 3.9 0 0 1 -7.06 2.28 3.86 3.86 0 0 1 -2.5 1.72 3.66 3.66 0 0 1 -.81.1z" fill="#fff"/><path d="m136.9 87.12a7.38 7.38 0 0 1 -6.9-4.67c0-.12-.08-.24-.12-.36a13.65 13.65 0 0 1 0-6.72c0-.12.07-.24.12-.36a7.38 7.38 0 0 1 9.56-4.16 7.47 7.47 0 0 1 2.85 2 4.16 4.16 0 0 1 1 2.51 3.88 3.88 0 0 1 -1.78 3.35 3.8 3.8 0 0 1 1.78 3.16v.19a4.15 4.15 0 0 1 -1 2.47 7.39 7.39 0 0 1 -5.51 2.59zm.42-8.53v.34a2.23 2.23 0 0 1 .3-.2l-.3-.2z" fill="#fff"/><path d="m143.41 87a4.23 4.23 0 0 1 -.06-8.46 4.23 4.23 0 1 1 .1 8.46z" fill="#fff"/><path d="m74.37 3h-11.9a5.1 5.1 0 0 0 0 10.2h11.9a18.13 18.13 0 0 1 5.94 35.26 5.1 5.1 0 1 0 3 9.76h.1a28.33 28.33 0 0 0 -9.04-55.22z" fill="#201507"/><path d="m68.13 49.46h-8.5a3.41 3.41 0 0 1 -3.39-3.4v-26.63a5.1 5.1 0 0 0 -10.2 0v35.13a5.12 5.12 0 0 0 5.1 5.1h17a5.1 5.1 0 0 0 0-10.2z" fill="#201507"/><path d="m3 70.17a.93.93 0 0 1 .85-1h.15a.94.94 0 0 1 1 .88v11.95c0 .09 0 .13.13.13h6.27a.9.9 0 0 1 .19 1.79.61.61 0 0 1 -.19 0h-7.46a.87.87 0 0 1 -.94-.8 1.41 1.41 0 0 1 0-.2z" fill="#201507"/><path d="m13.89 81.32a10.45 10.45 0 0 1 0-5.21 4 4 0 0 1 4-2.77 3.92 3.92 0 0 1 4.05 2.75 7.56 7.56 0 0 1 .34 2.5.66.66 0 0 1 -.63.69h-6.1a.12.12 0 0 0 -.13.11 4.1 4.1 0 0 0 .17 1.25 2.53 2.53 0 0 0 2.61 1.78 3.8 3.8 0 0 0 2.48-.88 1 1 0 0 1 .62-.26.73.73 0 0 1 .7.72.86.86 0 0 1 -.28.64 5.33 5.33 0 0 1 -3.72 1.48 4 4 0 0 1 -4.11-2.8zm6.42-3.48a.12.12 0 0 0 .13-.11 3.84 3.84 0 0 0 -.15-1.17 2.32 2.32 0 0 0 -2.37-1.61 2.34 2.34 0 0 0 -2.37 1.61 3.84 3.84 0 0 0 -.15 1.17.12.12 0 0 0 .11.13h4.8z" fill="#201507"/><path d="m33 83.13a.86.86 0 0 1 -.86.86h-.06a1 1 0 0 1 -.8-.45l-.41-.64a4 4 0 0 1 -3.17 1.22c-2.34 0-3.7-1.12-3.7-3.12s1.46-3.18 4-3.18h2.35a.12.12 0 0 0 .13-.11v-.52c0-1.44-.67-2.26-2.48-2.26a4.87 4.87 0 0 0 -2.11.52 1.5 1.5 0 0 1 -.51.15.72.72 0 0 1 -.78-.65v-.13a.82.82 0 0 1 .43-.73 5.75 5.75 0 0 1 3.14-.77c2.76 0 4 1.31 4 3.85v3.7a2.05 2.05 0 0 0 .2 1.06l.36.67a1 1 0 0 1 .27.53zm-2.45-2.58v-1.14c0-.09 0-.13-.13-.13h-2.1c-1.76 0-2.56.51-2.56 1.68s.77 1.61 2.15 1.61c1.6 0 2.61-.75 2.61-2z" fill="#201507"/><path d="m41.47 83v-.28a3.13 3.13 0 0 1 -2.92 1.37 3.59 3.59 0 0 1 -3.55-2.55 11.15 11.15 0 0 1 0-5.62 3.56 3.56 0 0 1 3.56-2.58 3.13 3.13 0 0 1 2.92 1.37v-4.61a.91.91 0 1 1 1.81-.19.61.61 0 0 1 0 .19v12.9a.91.91 0 1 1 -1.81.19.61.61 0 0 1 0-.19zm-.24-2.2a9.31 9.31 0 0 0 0-4.2 2.4 2.4 0 0 0 -4.54 0 9.31 9.31 0 0 0 0 4.2 2.41 2.41 0 0 0 4.54 0z" fill="#201507"/><path d="m52.1 70.1a.81.81 0 0 1 .76-.86h3.83c2.84 0 4.59 1.12 5.3 3.34a11.75 11.75 0 0 1 .43 4 11.75 11.75 0 0 1 -.43 4c-.71 2.22-2.46 3.34-5.3 3.34h-3.69a.81.81 0 0 1 -.86-.76v-.1zm2 12h2.41c1.94 0 3.06-.6 3.57-2.2a10.67 10.67 0 0 0 .35-3.33 10.45 10.45 0 0 0 -.35-3.34c-.51-1.6-1.63-2.2-3.57-2.2h-2.36c-.09 0-.13 0-.13.13v10.84c0 .06 0 .1.13.1z" fill="#201507"/><path d="m64.89 81.32a10.45 10.45 0 0 1 0-5.21 4.34 4.34 0 0 1 8.08 0 7.83 7.83 0 0 1 .34 2.5.66.66 0 0 1 -.63.69h-6.08c-.09 0-.13 0-.13.13a4.06 4.06 0 0 0 .17 1.25 2.53 2.53 0 0 0 2.61 1.78 3.78 3.78 0 0 0 2.47-.88 1 1 0 0 1 .63-.26.73.73 0 0 1 .75.73.88.88 0 0 1 -.28.64 5.29 5.29 0 0 1 -3.82 1.43 4 4 0 0 1 -4.11-2.8zm6.42-3.48a.12.12 0 0 0 .13-.11 3.84 3.84 0 0 0 -.15-1.17 2.55 2.55 0 0 0 -3.29-1.45 2.58 2.58 0 0 0 -1.43 1.43 3.84 3.84 0 0 0 -.15 1.17.12.12 0 0 0 .11.13h4.8z" fill="#201507"/><path d="m75.4 83a.89.89 0 0 1 -.43-.75.83.83 0 0 1 .84-.82 1.1 1.1 0 0 1 .61.19 5.36 5.36 0 0 0 2.88.91c1.49 0 2.26-.65 2.26-1.55s-.38-1.29-2-1.47l-1.08-.1c-2-.22-3.08-1.25-3.08-2.91 0-2 1.4-3.14 3.81-3.14a6.27 6.27 0 0 1 3.08.75.81.81 0 0 1 .54.75.77.77 0 0 1 -.76.78 1.61 1.61 0 0 1 -.65-.17 5.3 5.3 0 0 0 -2.28-.54c-1.29 0-2 .58-2 1.42s.47 1.25 2 1.4l1.08.11c2.15.23 3.1 1.24 3.1 2.92 0 2-1.46 3.36-4.2 3.36a6.65 6.65 0 0 1 -3.72-1.14z" fill="#201507"/><path d="m85.4 70.32a1.19 1.19 0 1 1 1.08 1.08 1.2 1.2 0 0 1 -1.08-1.08zm.28 4.11a.91.91 0 0 1 1.81-.19.61.61 0 0 1 0 .19v8.57a.91.91 0 1 1 -1.81.19.61.61 0 0 1 0-.19z" fill="#201507"/><path d="m96.39 74.69v-.26a.91.91 0 0 1 1.81-.19.61.61 0 0 1 0 .19v8.94c0 3.08-1.63 4.63-4.5 4.63a4.74 4.74 0 0 1 -3.27-1.23.84.84 0 0 1 -.26-.58.82.82 0 0 1 .8-.84 1.22 1.22 0 0 1 .73.28 3.44 3.44 0 0 0 2 .69c1.66 0 2.62-.82 2.62-2.8v-1.12a3 3 0 0 1 -2.88 1.36 3.44 3.44 0 0 1 -3.44-2.57 10.53 10.53 0 0 1 0-5.29 3.44 3.44 0 0 1 3.47-2.56 3.12 3.12 0 0 1 2.88 1.35zm-.23 5.79a8.09 8.09 0 0 0 0-3.85 2.3 2.3 0 0 0 -4.4 0 8.09 8.09 0 0 0 0 3.85 2.3 2.3 0 0 0 4.4 0z" fill="#201507"/><path d="m101 74.43a.91.91 0 0 1 1.81-.19.61.61 0 0 1 0 .19v.3a3.26 3.26 0 0 1 2.89-1.39c2.23 0 3.57 1.52 3.57 3.87v5.79a.91.91 0 1 1 -1.81.19.61.61 0 0 1 0-.19v-5.36c0-1.66-.75-2.63-2.3-2.63a2.33 2.33 0 0 0 -2.38 2.26 2.26 2.26 0 0 0 0 .26v5.47a.91.91 0 1 1 -1.78 0z" fill="#201507"/><path d="m117.13 70.32a1.19 1.19 0 1 1 1.2 1.18 1.2 1.2 0 0 1 -1.2-1.18zm.28 4.11a.91.91 0 0 1 1.81-.19.61.61 0 0 1 0 .19v8.57a.91.91 0 1 1 -1.81.19.61.61 0 0 1 0-.19z" fill="#201507"/><path d="m122 74.43a.91.91 0 0 1 1.81-.19.61.61 0 0 1 0 .19v.3a3.25 3.25 0 0 1 2.88-1.39c2.24 0 3.57 1.52 3.57 3.87v5.79a.9.9 0 0 1 -1.8 0v-5.36c0-1.66-.76-2.63-2.31-2.63a2.33 2.33 0 0 0 -2.38 2.26 2.26 2.26 0 0 0 0 .26v5.47a.91.91 0 0 1 -1.78.38.81.81 0 0 1 0-.38z" fill="#201507"/><path d="m132.83 81.35a10.57 10.57 0 0 1 0-5.24 4.36 4.36 0 0 1 5.67-2.46 4.27 4.27 0 0 1 1.69 1.19 1.1 1.1 0 0 1 .26.67.79.79 0 0 1 -.78.8 1.09 1.09 0 0 1 -.79-.43 2.43 2.43 0 0 0 -2-.87 2.25 2.25 0 0 0 -2.31 1.62 7 7 0 0 0 -.23 2.09 7.16 7.16 0 0 0 .23 2.11 2.25 2.25 0 0 0 2.31 1.61 2.48 2.48 0 0 0 2-.86 1 1 0 0 1 .79-.43.78.78 0 0 1 .8.78 1.1 1.1 0 0 1 -.26.67 4.37 4.37 0 0 1 -6.21.4 4.48 4.48 0 0 1 -1.17-1.65z" fill="#201507"/><path d="m143.4 81.54a1.23 1.23 0 1 1 -1.22 1.24 1.25 1.25 0 0 1 1.22-1.24z" fill="#201507"/></svg>