<svg xmlns="http://www.w3.org/2000/svg" viewBox="0 0 187.97 21.99"><defs><style>.cls-1{fill:#fff;}.cls-2{fill:#231815;}</style></defs><g id="レイヤー_2" data-name="レイヤー 2"><g id="レイヤー_1-2" data-name="レイヤー 1"><path d="M9.11,4.24A5.45,5.45,0,0,0,9,3.18h2.4a6.19,6.19,0,0,0-.08,1.06h4.47a19,19,0,0,0,1.92-.07,7.27,7.27,0,0,0-.07,1.18V6.57a8.34,8.34,0,0,0,.07,1.2H15.6V6H5.15v1.8H3a9,9,0,0,0,.08-1.21V5.35c0-.41,0-.75-.06-1.18a18.75,18.75,0,0,0,1.92.07ZM3.8,14a17.56,17.56,0,0,0-.07-1.77,15.93,15.93,0,0,0,1.74.06h9.78A16.35,16.35,0,0,0,17,12.25,13.2,13.2,0,0,0,16.94,14v2.92A17.23,17.23,0,0,0,17,18.86H14.87v-.57h-9v.57H3.7A14.72,14.72,0,0,0,3.8,17Zm11.92-3.41a7.45,7.45,0,0,0,0,1.2c-.53,0-1.08-.05-1.6-.05H6.56c-.54,0-1.06,0-1.61.05A7.55,7.55,0,0,0,5,10.61v-1A8.62,8.62,0,0,0,5,8.41c.54,0,1,.05,1.61.05h7.62c.62,0,1.06,0,1.59-.05a8.14,8.14,0,0,0,0,1.2ZM5.64,6.44c.31,0,.75,0,1.22,0h7c.48,0,.92,0,1.23,0V8c-.38,0-.77,0-1.23,0h-7c-.43,0-.82,0-1.18,0Zm.23,8.11H9.23v-.68H5.87Zm0,2.12H9.23v-.73H5.87ZM7.09,9.78v.67h6.56V9.78Zm4.19,4.77h3.59v-.68H11.28Zm0,2.12h3.59v-.73H11.28Z"/><path d="M25.77,5.22a13.62,13.62,0,0,0-.12-1.75h2.57a12.13,12.13,0,0,0-.12,1.75V15.49h3.66V8a11.25,11.25,0,0,0-.1-1.62h2.45A15.3,15.3,0,0,0,34,8v8.51a19.82,19.82,0,0,0,.12,2.19H31.76V17.62H22.38v1.12H20a18.12,18.12,0,0,0,.1-2.15V8.08A13,13,0,0,0,20,6.42h2.42a15.19,15.19,0,0,0-.06,1.66v7.41h3.39Z"/><path d="M45.31,10.91A9.05,9.05,0,0,1,44,15.47a8.11,8.11,0,0,1-4.29,3.17,7,7,0,0,0-1.65-2.22c2.07-.63,3.3-1.5,4-2.82a6.56,6.56,0,0,0,.61-2.69H39a18.51,18.51,0,0,0-2.37.1V8.61a19.33,19.33,0,0,0,2.4.12h9.42a17.11,17.11,0,0,0,2.47-.12V11a20.59,20.59,0,0,0-2.42-.09Zm-7-6.52a16,16,0,0,0,2.4.11h6a15.6,15.6,0,0,0,2.47-.11V6.77a20.54,20.54,0,0,0-2.44-.08H40.67c-1.1,0-1.77,0-2.37.08Z"/><path d="M58,4.15a13.4,13.4,0,0,0-.12,2.07l-.1,9a11.17,11.17,0,0,0,4.46-1.88,10.15,10.15,0,0,0,3.24-3.78,8.1,8.1,0,0,0,1.9,2C65,15.24,62.17,17,57.31,17.92a3.57,3.57,0,0,0-1,.29L55,16.71a4.11,4.11,0,0,0,.17-1.54l.06-8.93a.93.93,0,0,0,0-.24,13.12,13.12,0,0,0-.1-1.88Z"/><path d="M74.1,9.06a23.59,23.59,0,0,0,5.51-1.89,5.41,5.41,0,0,0,1.47-.92l1.57,2.24a5.81,5.81,0,0,0-.57.27,30.8,30.8,0,0,1-8,2.64v2c0,1.33,0,1.5.27,1.73a4.93,4.93,0,0,0,2.6.39,30.12,30.12,0,0,0,3.21-.19A11.58,11.58,0,0,0,83,14.83l.1,2.64c-.35,0-.62,0-1.69.14-1.48.15-3.45.25-4.74.25-2.22,0-3.35-.2-4.07-.72s-.94-1.3-.94-3.41V6.42a15.14,15.14,0,0,0-.1-2.07H74.2a13.24,13.24,0,0,0-.1,2.09Zm7.76-5.19a8.84,8.84,0,0,1,1.4,2.23l-1.45.67a10,10,0,0,0-1.38-2.28ZM83.78,3A9.8,9.8,0,0,1,85.2,5.17l-1.42.68A11,11,0,0,0,82.4,3.62Z"/><path d="M101.52,7.76c-.36,0-.55,0-1.08-.07A17,17,0,0,1,100,11a11,11,0,0,1-1.27,3.19,10,10,0,0,0,3.16,2.29,7.3,7.3,0,0,0-1.15,2.32A13.17,13.17,0,0,1,97.33,16a14.21,14.21,0,0,1-3.72,2.82,8.16,8.16,0,0,0-.93-1.69c-.34,1.19-.86,1.52-2.37,1.52-.24,0-.6,0-1.07-.05a6.77,6.77,0,0,0-.37-2.09,5.35,5.35,0,0,0,1.12.14c.5,0,.65-.09.77-.42a19.46,19.46,0,0,0,.33-4.39v-.75H89.81a26,26,0,0,1-.59,4,9.7,9.7,0,0,1-1.77,3.82,6.8,6.8,0,0,0-1.53-2,8.67,8.67,0,0,0,1.7-4.58,32,32,0,0,0,.28-4.72h-.16a9.51,9.51,0,0,0-1.52.08V5.55a9.2,9.2,0,0,0,1.75.1h1V4.77a6.81,6.81,0,0,0-.1-1.44h2.36a6.55,6.55,0,0,0-.1,1.44v.88h.8a10.47,10.47,0,0,0,1.62-.08V7.66c-.65,0-1-.07-1.55-.07H90C90,8.88,90,8.88,89.94,9.14h1.78a11.25,11.25,0,0,0,1.17,0,11,11,0,0,0,1.66-3.52A9.06,9.06,0,0,0,95,3.18l2.29.39a5.21,5.21,0,0,0-.18.73c-.12.5-.24.94-.39,1.45h2.91a14,14,0,0,0,1.88-.1ZM96,14.13a14.31,14.31,0,0,1-1.51-3.42c-.27.37-.32.44-.64.84a4,4,0,0,0-.72-1,37.63,37.63,0,0,1-.28,6A9.9,9.9,0,0,0,96,14.13Zm.1-6.44a7,7,0,0,1-.3.7,11.32,11.32,0,0,0,1.54,3.89,11.05,11.05,0,0,0,1-4.59Z"/><path d="M102.86,9.51a7.83,7.83,0,0,0,1.36.08h1.44a10.3,10.3,0,0,0,1.27-.06,16.87,16.87,0,0,0-.07,1.85V15a2.61,2.61,0,0,0,1.52,1.25,11.71,11.71,0,0,0,3.27.28,50.77,50.77,0,0,0,7-.36,10.33,10.33,0,0,0-.56,2.32l-1.76.05-4.22,0a18.1,18.1,0,0,1-4.07-.32,4.14,4.14,0,0,1-2.16-1.45,15.34,15.34,0,0,1-1.9,1.53c-.1.09-.35.27-.52.39l-.91-2.27A8.84,8.84,0,0,0,104.76,15V11.58h-.82a6.63,6.63,0,0,0-1.08.08Zm1.62-6a26.26,26.26,0,0,1,3,3l-1.65,1.64a18.21,18.21,0,0,0-3-3.17Zm4.74,4.29a9.75,9.75,0,0,0-1.47.09V5.77a14.3,14.3,0,0,0,1.5.08h.53a9.56,9.56,0,0,0-1.08-1.92l2-.8a12.31,12.31,0,0,1,1.42,2.72H113a13,13,0,0,0,1.27-2.7l2.17.58c-.17.32-.17.32-.52,1-.18.38-.33.63-.61,1.11h.91a8.71,8.71,0,0,0,1.42-.08V7.86a12.46,12.46,0,0,0-1.6-.09h-2.44c0,1,0,1-.06,1.57h3.1a8.9,8.9,0,0,0,1.44-.08v2.12a13.32,13.32,0,0,0-1.64-.08h-2.59c1,1.43,2.16,2.12,4.44,2.7a8.4,8.4,0,0,0-1,2.15,8.67,8.67,0,0,1-3.22-1.63,6.66,6.66,0,0,1-1.5-1.67c-.79,1.43-1.79,2.25-3.89,3.24a5.89,5.89,0,0,0-1.35-1.92c2.2-.8,3.17-1.57,3.64-2.87H108.8a14.11,14.11,0,0,0-1.52.08V9.26a14.4,14.4,0,0,0,1.52.08h2.57c0-.55,0-.83,0-1.57Z"/><path d="M130.68,9.69h2.22a13.53,13.53,0,0,0,1.87-.1v2.22a17,17,0,0,0-1.89-.1h-1.63a10.93,10.93,0,0,0,4,3.89,7.62,7.62,0,0,0-1.2,2.16,12,12,0,0,1-3.47-4.09c0,.55.05,1.12.05,1.57v1.67a14.28,14.28,0,0,0,.11,2h-2.27a16.77,16.77,0,0,0,.1-2V15.39c0-.47,0-1,0-1.66a11.33,11.33,0,0,1-3.72,4,8.16,8.16,0,0,0-1.2-1.93A11.26,11.26,0,0,0,126.21,14,11.47,11.47,0,0,0,128,11.71h-1a13,13,0,0,0-1.91.12v-1a10.71,10.71,0,0,0-.63,1.94,7.39,7.39,0,0,1-.9-1.8c0,.5,0,1.28,0,2v3.89a17.32,17.32,0,0,0,.1,2.1H121.4a17.54,17.54,0,0,0,.1-2.1v-3c0-.38,0-1.1.08-1.89A10.71,10.71,0,0,1,120,15.3a8.92,8.92,0,0,0-.78-2.32,13.63,13.63,0,0,0,2.07-4.76h-.54a4.55,4.55,0,0,0-1.1.09V6.19a5.13,5.13,0,0,0,1.1.08h.7V5.05a10.75,10.75,0,0,0-.1-1.75h2.29a11.45,11.45,0,0,0-.1,1.74V6.27h.37a4.87,4.87,0,0,0,.83-.06V7.69a10.59,10.59,0,0,0,1.15-3.87l2,.5c-.07.2-.12.42-.25.95-.07.27-.08.35-.15.63h1.08V5a10.46,10.46,0,0,0-.1-1.64h2.29a10.18,10.18,0,0,0-.1,1.62v1h1.75a13,13,0,0,0,1.86-.1V8a14,14,0,0,0-1.87-.1h-1.74Zm-3.84-1.78a9.92,9.92,0,0,1-.83,1.7,7.56,7.56,0,0,0-1.56-1.37,4.55,4.55,0,0,0-.48,0h-.32a8.82,8.82,0,0,0,1.4,2.38v-1a9.78,9.78,0,0,0,1.91.11h1.63V7.91Z"/><path d="M149.77,6A10.4,10.4,0,0,0,151.39,6V8.12a18.09,18.09,0,0,0-2-.1h-2.2a18.94,18.94,0,0,0,1.06,6c.41,1,1,2,1.24,2s.37-1,.55-2.52a7.94,7.94,0,0,0,1.8,1.09,8,8,0,0,1-.95,3.29,1.56,1.56,0,0,1-1.28.81,3,3,0,0,1-2-1.25,11.07,11.07,0,0,1-1.65-3.3A24.88,24.88,0,0,1,145,8h-6.53c-.75,0-1.4,0-2.05.1V5.94a18.63,18.63,0,0,0,2.05.1h6.44c0-.72,0-.72,0-1.32,0-.42,0-.9-.08-1.2h2.35a8.81,8.81,0,0,0-.07,1.18c0,.12,0,.12,0,1.34h2.07a10,10,0,0,0-1.67-1.52l1.55-1a15.16,15.16,0,0,1,1.84,1.62L149.52,6Zm-11.05,5.74c-.63,0-1.23,0-1.75.07V9.79a15.74,15.74,0,0,0,1.8.09h3.91a15.81,15.81,0,0,0,1.79-.09v2.06c-.52,0-1.12-.07-1.76-.07h-.93v3.47c1.17-.21,1.8-.36,3.29-.73v2c-3.09.73-5.11,1.13-7.25,1.45a10,10,0,0,0-1.1.18l-.33-2.23a25.8,25.8,0,0,0,3.23-.34V11.78Z"/><path d="M156.26,9a18.11,18.11,0,0,1-2.52,1.3,7.1,7.1,0,0,0-1.1-2.07,14.69,14.69,0,0,0,4-2.1,10.6,10.6,0,0,0,2.72-2.76h2.32a10.09,10.09,0,0,0,2.82,2.69,15.81,15.81,0,0,0,4.14,2.05,10,10,0,0,0-1,2.24A15.77,15.77,0,0,1,165,9v1.13a14,14,0,0,0-1.55-.06h-5.66a14.26,14.26,0,0,0-1.49.06Zm-.86,4.22a15.29,15.29,0,0,0-2,.1V11.13c.57,0,1.24.08,2,.08h10.46c.8,0,1.44,0,2-.08v2.22a15.5,15.5,0,0,0-2-.1h-5.64a19.89,19.89,0,0,1-1.6,2.95C162,16,162,16,163.39,15.87c-.53-.6-.8-.9-1.6-1.74l2-.83a34.93,34.93,0,0,1,3.79,4.46l-2,1.23c-.47-.73-.62-.95-.89-1.35-1.6.22-1.63.22-2.55.3s-5.71.52-6.34.55a18,18,0,0,0-1.84.2l-.28-2.39c.5,0,.75,0,1.17,0l1.18,0a22,22,0,0,0,1.64-3.07Zm8.14-5.16a12.86,12.86,0,0,1-2.95-2.77,12.75,12.75,0,0,1-2.94,2.77Z"/><path d="M174.11,17.14a11.67,11.67,0,0,0,.08,1.74h-2.34a12.1,12.1,0,0,0,.1-1.79V13.25a11.45,11.45,0,0,1-1.68,1.24,8.49,8.49,0,0,0-1-2.06,11.56,11.56,0,0,0,2.75-2.09,8.59,8.59,0,0,0,1.75-2.45H171.3a11.12,11.12,0,0,0-1.43.07V5.8a9.3,9.3,0,0,0,1.3.07h.8V4.55a7.51,7.51,0,0,0-.1-1.27h2.32a6.75,6.75,0,0,0-.1,1.29v1.3h.58a6.67,6.67,0,0,0,1,0l.94,1c-.17.29-.24.44-.39.75a13,13,0,0,1-1.58,2.77,8.93,8.93,0,0,0,2.65,2.09,10.12,10.12,0,0,0-1.07,2,8.66,8.66,0,0,1-2.08-1.79Zm7.22-1H183a17.87,17.87,0,0,0,2-.08v2.28c-.61-.06-1.33-.1-1.95-.1h-5.59c-.65,0-1.29,0-1.91.1V16.09a18.33,18.33,0,0,0,1.94.08h1.62V9.88H178c-.55,0-1.08,0-1.63.08V7.71a14.49,14.49,0,0,0,1.63.08h1.07V5.17a15.42,15.42,0,0,0-.1-1.85h2.45a13.15,13.15,0,0,0-.1,1.85V7.79h1.54a11.92,11.92,0,0,0,1.65-.08V10c-.56-.05-1.07-.08-1.65-.08h-1.54Z"/><path class="cls-1" d="M14.87,21.86a3,3,0,0,1-1.76-.57H7.63a3,3,0,0,1-1.76.57H3.7a3,3,0,0,1-3-3.37A11,11,0,0,0,.8,17V14a14.68,14.68,0,0,0-.05-1.51,3,3,0,0,1,.68-2.18,2.6,2.6,0,0,1-.67-.57A3,3,0,0,1,0,7.42a5.41,5.41,0,0,0,.06-.86V5.35c0-.26,0-.48,0-.74V4.4A3,3,0,0,1,3,1.17h.29a15.29,15.29,0,0,0,1.63.06H6.75A3,3,0,0,1,9,.18h2.4a3,3,0,0,1,2.28,1.06h2.11a15.68,15.68,0,0,0,1.63-.06h.29a3,3,0,0,1,2.18.94,3,3,0,0,1,.79,2.51,4,4,0,0,0,0,.73V6.57a6.12,6.12,0,0,0,0,.8A3,3,0,0,1,20,9.75a3,3,0,0,1-.69.58A3,3,0,0,1,20,12.59a10.14,10.14,0,0,0,0,1.43v2.92A14.15,14.15,0,0,0,20,18.47a3,3,0,0,1-3,3.39Z"/><path class="cls-1" d="M31.76,21.74a3,3,0,0,1-2.34-1.12H24.71a3,3,0,0,1-2.33,1.12H20a3,3,0,0,1-3-3.32,15.91,15.91,0,0,0,.08-1.83V8.08a10,10,0,0,0-.07-1.27,3,3,0,0,1,3-3.39h2.63a3,3,0,0,1,.75-1.95,3,3,0,0,1,2.25-1h2.57a3,3,0,0,1,3,3,3.15,3.15,0,0,1,.44,0h2.45a3,3,0,0,1,3,3.35A11.69,11.69,0,0,0,37,8v8.51a16.36,16.36,0,0,0,.1,1.87,3,3,0,0,1-3,3.32Z"/><path class="cls-1" d="M39.72,21.64A3,3,0,0,1,37.05,20,3.88,3.88,0,0,0,36,18.58,3,3,0,0,1,36.3,14a3,3,0,0,1-2.7-3V8.61a3,3,0,0,1,1-2.23,3.29,3.29,0,0,1,.71-.48V4.39a3,3,0,0,1,3-3,2.55,2.55,0,0,1,.39,0,12.69,12.69,0,0,0,2,.09h6a14.29,14.29,0,0,0,2.05-.08,3,3,0,0,1,2.39.7,3,3,0,0,1,1,2.27V5.91a3,3,0,0,1,.67.45,3,3,0,0,1,1,2.25V11a3,3,0,0,1-3,3h-.26a17.41,17.41,0,0,0-2.16-.08h-.58a10.12,10.12,0,0,1-1.37,3.2c-1.2,1.91-2.86,3.17-5.68,4.31A2.9,2.9,0,0,1,39.72,21.64Z"/><path class="cls-1" d="M56.31,21.2A3,3,0,0,1,54,20.14l-1.27-1.5a3,3,0,0,1-.55-2.89c0-.14,0-.32,0-.58l.06-8.95c0-.1,0-.2,0-.3a8.53,8.53,0,0,0-.07-1.36,3,3,0,0,1,3-3.44l2.87,0a3,3,0,0,1,2.23,1A3,3,0,0,1,61,4.54a11.54,11.54,0,0,0-.09,1.68l0,4.4a7,7,0,0,0,2-2.45,3,3,0,0,1,2.44-1.62h.23a3,3,0,0,1,2.43,1.25A5.36,5.36,0,0,0,69.3,9.25a3,3,0,0,1,.63,4c-2.82,4.34-6.43,6.64-12.08,7.67l-.31.06A3.09,3.09,0,0,1,56.31,21.2Z"/><path class="cls-1" d="M76.62,20.86c-2.5,0-4.34-.22-5.83-1.29-2-1.46-2.18-3.6-2.18-5.84V6.42a12.36,12.36,0,0,0-.08-1.72,3,3,0,0,1,3-3.35H74.2a3,3,0,0,1,3,3.43l0,.22.31-.13a3.12,3.12,0,0,1,.07-1.14,3,3,0,0,1,1.72-2l1.44-.62L80.86,1a3.18,3.18,0,0,1,.32-.16L82.56.26A2.94,2.94,0,0,1,83.78,0a3,3,0,0,1,2.31,1.08,13,13,0,0,1,1.78,2.71,3,3,0,0,1,.18,2.33A3,3,0,0,1,86.5,7.87l-.86.42a3,3,0,0,1-1.82,3l-.34.16-1,.46a2,2,0,0,1,.43,0,3.08,3.08,0,0,1,1.74.56A3,3,0,0,1,86,14.72l.1,2.64a3,3,0,0,1-3,3.11c-.22,0-.39,0-.89.07l-.52.05C80.12,20.75,78.05,20.86,76.62,20.86Z"/><path class="cls-1" d="M87.25,21.85a3,3,0,0,1-2.41-1.52A3.63,3.63,0,0,0,84,19.17a3,3,0,0,1-.43-4.1,5.72,5.72,0,0,0,1.12-3.17c.07-.51.13-1,.17-1.57a3.53,3.53,0,0,1-.55-.37,3,3,0,0,1-1-2.29V5.55a3,3,0,0,1,2.73-3,3.06,3.06,0,0,1,.6-1.16A3,3,0,0,1,88.85.33h2.36A3,3,0,0,1,93,.94L93.1.87A3,3,0,0,1,95,.18a4.21,4.21,0,0,1,.5,0L97.8.61A3,3,0,0,1,99.87,2a3.17,3.17,0,0,1,.32.73,8.62,8.62,0,0,0,.91-.07,3,3,0,0,1,3.42,3V7.76a3,3,0,0,1-1,2.21l-.33.27c-.07.45-.16.88-.27,1.39s-.32,1.17-.5,1.7c.23.13.48.27.78.42a3,3,0,0,1,1.15,4.38,4.64,4.64,0,0,0-.77,1.56,3,3,0,0,1-1.79,1.88,3.29,3.29,0,0,1-1.06.19,3,3,0,0,1-1.53-.42,18.33,18.33,0,0,1-2-1.3,19.8,19.8,0,0,1-2.23,1.4,2.94,2.94,0,0,1-1.44.37,3.09,3.09,0,0,1-1-.17,3.49,3.49,0,0,1-.44-.2,7.21,7.21,0,0,1-1.86.2c-.28,0-.72,0-1.29-.06a1.07,1.07,0,0,1-.25,0,3,3,0,0,1-1.32.31Z"/><path class="cls-1" d="M103.42,21.71a2.79,2.79,0,0,1-.85-.13,3,3,0,0,1-1.93-1.75l-.92-2.27a3,3,0,0,1,0-2.33,3,3,0,0,1,1.12-1.31,3,3,0,0,1-1-2.26V9.51a3,3,0,0,1,1-2.26h0a3,3,0,0,1-.07-4.44l1.6-1.5a3,3,0,0,1,2.06-.82,3.06,3.06,0,0,1,2,.73l.41.36a2.85,2.85,0,0,1,.72-.41l2-.81a3.2,3.2,0,0,1,1.13-.22,3,3,0,0,1,1.8.6A3,3,0,0,1,115,.25l2.17.59a3,3,0,0,1,2,1.69,3.46,3.46,0,0,1,.23.82l.19.16a3,3,0,0,1,1,2.26V7.71a3,3,0,0,1,.44,1.55v2.12a2.9,2.9,0,0,1-.21,1.09,2.38,2.38,0,0,1,.2.39,3,3,0,0,1,.16,1.76,3,3,0,0,1,.24,2.51,7.85,7.85,0,0,0-.43,1.78,3,3,0,0,1-2.88,2.55l-1.75.05-4.31,0a20.23,20.23,0,0,1-4.88-.43,7.69,7.69,0,0,1-1.3-.5l-.19.12c-.16.13-.39.3-.56.42A3,3,0,0,1,103.42,21.71Z"/><path class="cls-1" d="M128.49,21.91a3,3,0,0,1-2.24-1l-.17-.21-.17.21a3,3,0,0,1-2.24,1H121.4a3,3,0,0,1-3-3.35q0-.31.06-.69a3,3,0,0,1-1.39-2,6,6,0,0,0-.54-1.59,3,3,0,0,1,.34-3.18,5.37,5.37,0,0,0,.51-.83,3,3,0,0,1-.72-2V6.19a3,3,0,0,1,1.13-2.35,3.5,3.5,0,0,1,.58-.36,3,3,0,0,1,3-3.18h2.29a3,3,0,0,1,1.75.56,2.74,2.74,0,0,1,.5,0,3.12,3.12,0,0,1,.74.09h0a3,3,0,0,1,1.78-.59h2.29a3,3,0,0,1,2.27,1,2.94,2.94,0,0,1,.69,1.47l.16,0a2.56,2.56,0,0,1,.39,0,3,3,0,0,1,3,3V8a3,3,0,0,1,.48,1.63v2.22a3,3,0,0,1-.46,1.6,3,3,0,0,1,.9,1.59,3,3,0,0,1-.56,2.43,4.82,4.82,0,0,0-.81,1.48,3,3,0,0,1-2,1.73,2.84,2.84,0,0,1-.81.12,3,3,0,0,1-.85-.13,2,2,0,0,1-.18.23,3,3,0,0,1-2.28,1.05Z"/><path class="cls-1" d="M149.56,21.67a5.62,5.62,0,0,1-4.13-2.13c-2.94.69-5,1.09-7.17,1.42l-.21,0a5.83,5.83,0,0,0-.64.1,2.71,2.71,0,0,1-.69.08,3,3,0,0,1-3-2.55l-.33-2.24a3,3,0,0,1,.69-2.4,3.85,3.85,0,0,1,.41-.4,3,3,0,0,1-.55-1.73V9.9a3,3,0,0,1-.58-1.78V5.94a3,3,0,0,1,3-3l.36,0a14.89,14.89,0,0,0,1.69.08h3.36a3.13,3.13,0,0,1,.73-1.52,3,3,0,0,1,2.24-1h2.35a3.22,3.22,0,0,1,.93.14,3.18,3.18,0,0,1,1-.16,3,3,0,0,1,1.8.6A17.87,17.87,0,0,1,153,3a3.11,3.11,0,0,1,.66,1,3,3,0,0,1,.77,2V8.12a3,3,0,0,1-2.58,3h0a4.9,4.9,0,0,0,1.2.72A3,3,0,0,1,154.76,15a10.84,10.84,0,0,1-1.39,4.49A4.52,4.52,0,0,1,149.56,21.67Z"/><path class="cls-1" d="M165.63,22a3,3,0,0,1-2.36-1.14l-.81.08c-.76.07-5.73.52-6.46.56a13.82,13.82,0,0,0-1.48.16,2.92,2.92,0,0,1-.51,0,3,3,0,0,1-1.79-.59A3,3,0,0,1,151,19.05l-.28-2.39a2.92,2.92,0,0,1,.23-1.55,3,3,0,0,1-.57-1.76V11.13a3.36,3.36,0,0,1,.08-.71,3.38,3.38,0,0,0-.25-.36,3,3,0,0,1,1.4-4.63,11.37,11.37,0,0,0,3.26-1.7,7.44,7.44,0,0,0,2-2A3,3,0,0,1,159.39.4h2.32a3,3,0,0,1,2.41,1.22,7.08,7.08,0,0,0,2.09,2,12.85,12.85,0,0,0,3.4,1.69,3,3,0,0,1,1.64,4.37c-.2.35-.35.62-.46.86a3.08,3.08,0,0,1,.06.61v2.22a3,3,0,0,1-1,2.24l-.08.07L170,16a3,3,0,0,1,.53,2.33,3,3,0,0,1-1.34,2l-2,1.24A3,3,0,0,1,165.63,22Z"/><path class="cls-1" d="M171.85,21.88a3,3,0,0,1-3-3.39,8.9,8.9,0,0,0,.07-1.31,3,3,0,0,1-1.52-1.73,5.51,5.51,0,0,0-.62-1.37,3,3,0,0,1,.82-4.13,3,3,0,0,1-.76-2V5.8a3,3,0,0,1,1-2.24,3,3,0,0,1,1-.59,3,3,0,0,1,3-2.69h2.32a3,3,0,0,1,2.3,1.08,1.71,1.71,0,0,1,.11.14l.16-.2a3,3,0,0,1,2.22-1h2.45a3,3,0,0,1,3,3.38,6.5,6.5,0,0,0-.07,1h.18a3,3,0,0,1,2,.73,3,3,0,0,1,1,2.27V10a3,3,0,0,1-3,3h-.19v.18l.3,0a1.94,1.94,0,0,1,.34,0,3,3,0,0,1,2,.76,3,3,0,0,1,1,2.24v2.28a3,3,0,0,1-1,2.24,3,3,0,0,1-2,.76h-.32c-.48-.05-1.09-.09-1.63-.09h-5.59c-.53,0-1.05,0-1.55.08a3,3,0,0,1-1.69.53Z"/><path class="cls-2" d="M9.11,4.24A5.45,5.45,0,0,0,9,3.18h2.4a6.19,6.19,0,0,0-.08,1.06h4.47a19,19,0,0,0,1.92-.07,7.27,7.27,0,0,0-.07,1.18V6.57a8.34,8.34,0,0,0,.07,1.2H15.6V6H5.15v1.8H3a9,9,0,0,0,.08-1.21V5.35c0-.41,0-.75-.06-1.18a18.75,18.75,0,0,0,1.92.07ZM3.8,14a17.56,17.56,0,0,0-.07-1.77,15.93,15.93,0,0,0,1.74.06h9.78A16.35,16.35,0,0,0,17,12.25,13.2,13.2,0,0,0,16.94,14v2.92A17.23,17.23,0,0,0,17,18.86H14.87v-.57h-9v.57H3.7A14.72,14.72,0,0,0,3.8,17Zm11.92-3.41a7.45,7.45,0,0,0,0,1.2c-.53,0-1.08-.05-1.6-.05H6.56c-.54,0-1.06,0-1.61.05A7.55,7.55,0,0,0,5,10.61v-1A8.62,8.62,0,0,0,5,8.41c.54,0,1,.05,1.61.05h7.62c.62,0,1.06,0,1.59-.05a8.14,8.14,0,0,0,0,1.2ZM5.64,6.44c.31,0,.75,0,1.22,0h7c.48,0,.92,0,1.23,0V8c-.38,0-.77,0-1.23,0h-7c-.43,0-.82,0-1.18,0Zm.23,8.11H9.23v-.68H5.87Zm0,2.12H9.23v-.73H5.87ZM7.09,9.78v.67h6.56V9.78Zm4.19,4.77h3.59v-.68H11.28Zm0,2.12h3.59v-.73H11.28Z"/><path class="cls-2" d="M25.77,5.22a13.62,13.62,0,0,0-.12-1.75h2.57a12.13,12.13,0,0,0-.12,1.75V15.49h3.66V8a11.25,11.25,0,0,0-.1-1.62h2.45A15.3,15.3,0,0,0,34,8v8.51a19.82,19.82,0,0,0,.12,2.19H31.76V17.62H22.38v1.12H20a18.12,18.12,0,0,0,.1-2.15V8.08A13,13,0,0,0,20,6.42h2.42a15.19,15.19,0,0,0-.06,1.66v7.41h3.39Z"/><path class="cls-2" d="M45.31,10.91A9.05,9.05,0,0,1,44,15.47a8.11,8.11,0,0,1-4.29,3.17,7,7,0,0,0-1.65-2.22c2.07-.63,3.3-1.5,4-2.82a6.56,6.56,0,0,0,.61-2.69H39a18.51,18.51,0,0,0-2.37.1V8.61a19.33,19.33,0,0,0,2.4.12h9.42a17.11,17.11,0,0,0,2.47-.12V11a20.59,20.59,0,0,0-2.42-.09Zm-7-6.52a16,16,0,0,0,2.4.11h6a15.6,15.6,0,0,0,2.47-.11V6.77a20.54,20.54,0,0,0-2.44-.08H40.67c-1.1,0-1.77,0-2.37.08Z"/><path class="cls-2" d="M58,4.15a13.4,13.4,0,0,0-.12,2.07l-.1,9a11.17,11.17,0,0,0,4.46-1.88,10.15,10.15,0,0,0,3.24-3.78,8.1,8.1,0,0,0,1.9,2C65,15.24,62.17,17,57.31,17.92a3.57,3.57,0,0,0-1,.29L55,16.71a4.11,4.11,0,0,0,.17-1.54l.06-8.93a.93.93,0,0,0,0-.24,13.12,13.12,0,0,0-.1-1.88Z"/><path class="cls-2" d="M74.1,9.06a23.59,23.59,0,0,0,5.51-1.89,5.41,5.41,0,0,0,1.47-.92l1.57,2.24a5.81,5.81,0,0,0-.57.27,30.8,30.8,0,0,1-8,2.64v2c0,1.33,0,1.5.27,1.73a4.93,4.93,0,0,0,2.6.39,30.12,30.12,0,0,0,3.21-.19A11.58,11.58,0,0,0,83,14.83l.1,2.64c-.35,0-.62,0-1.69.14-1.48.15-3.45.25-4.74.25-2.22,0-3.35-.2-4.07-.72s-.94-1.3-.94-3.41V6.42a15.14,15.14,0,0,0-.1-2.07H74.2a13.24,13.24,0,0,0-.1,2.09Zm7.76-5.19a8.84,8.84,0,0,1,1.4,2.23l-1.45.67a10,10,0,0,0-1.38-2.28ZM83.78,3A9.8,9.8,0,0,1,85.2,5.17l-1.42.68A11,11,0,0,0,82.4,3.62Z"/><path class="cls-2" d="M101.52,7.76c-.36,0-.55,0-1.08-.07A17,17,0,0,1,100,11a11,11,0,0,1-1.27,3.19,10,10,0,0,0,3.16,2.29,7.3,7.3,0,0,0-1.15,2.32A13.17,13.17,0,0,1,97.33,16a14.21,14.21,0,0,1-3.72,2.82,8.16,8.16,0,0,0-.93-1.69c-.34,1.19-.86,1.52-2.37,1.52-.24,0-.6,0-1.07-.05a6.77,6.77,0,0,0-.37-2.09,5.35,5.35,0,0,0,1.12.14c.5,0,.65-.09.77-.42a19.46,19.46,0,0,0,.33-4.39v-.75H89.81a26,26,0,0,1-.59,4,9.7,9.7,0,0,1-1.77,3.82,6.8,6.8,0,0,0-1.53-2,8.67,8.67,0,0,0,1.7-4.58,32,32,0,0,0,.28-4.72h-.16a9.51,9.51,0,0,0-1.52.08V5.55a9.2,9.2,0,0,0,1.75.1h1V4.77a6.81,6.81,0,0,0-.1-1.44h2.36a6.55,6.55,0,0,0-.1,1.44v.88h.8a10.47,10.47,0,0,0,1.62-.08V7.66c-.65,0-1-.07-1.55-.07H90C90,8.88,90,8.88,89.94,9.14h1.78a11.25,11.25,0,0,0,1.17,0,11,11,0,0,0,1.66-3.52A9.06,9.06,0,0,0,95,3.18l2.29.39a5.21,5.21,0,0,0-.18.73c-.12.5-.24.94-.39,1.45h2.91a14,14,0,0,0,1.88-.1ZM96,14.13a14.31,14.31,0,0,1-1.51-3.42c-.27.37-.32.44-.64.84a4,4,0,0,0-.72-1,37.63,37.63,0,0,1-.28,6A9.9,9.9,0,0,0,96,14.13Zm.1-6.44a7,7,0,0,1-.3.7,11.32,11.32,0,0,0,1.54,3.89,11.05,11.05,0,0,0,1-4.59Z"/><path class="cls-2" d="M102.86,9.51a7.83,7.83,0,0,0,1.36.08h1.44a10.3,10.3,0,0,0,1.27-.06,16.87,16.87,0,0,0-.07,1.85V15a2.61,2.61,0,0,0,1.52,1.25,11.71,11.71,0,0,0,3.27.28,50.77,50.77,0,0,0,7-.36,10.33,10.33,0,0,0-.56,2.32l-1.76.05-4.22,0a18.1,18.1,0,0,1-4.07-.32,4.14,4.14,0,0,1-2.16-1.45,15.34,15.34,0,0,1-1.9,1.53c-.1.09-.35.27-.52.39l-.91-2.27A8.84,8.84,0,0,0,104.76,15V11.58h-.82a6.63,6.63,0,0,0-1.08.08Zm1.62-6a26.26,26.26,0,0,1,3,3l-1.65,1.64a18.21,18.21,0,0,0-3-3.17Zm4.74,4.29a9.75,9.75,0,0,0-1.47.09V5.77a14.3,14.3,0,0,0,1.5.08h.53a9.56,9.56,0,0,0-1.08-1.92l2-.8a12.31,12.31,0,0,1,1.42,2.72H113a13,13,0,0,0,1.27-2.7l2.17.58c-.17.32-.17.32-.52,1-.18.38-.33.63-.61,1.11h.91a8.71,8.71,0,0,0,1.42-.08V7.86a12.46,12.46,0,0,0-1.6-.09h-2.44c0,1,0,1-.06,1.57h3.1a8.9,8.9,0,0,0,1.44-.08v2.12a13.32,13.32,0,0,0-1.64-.08h-2.59c1,1.43,2.16,2.12,4.44,2.7a8.4,8.4,0,0,0-1,2.15,8.67,8.67,0,0,1-3.22-1.63,6.66,6.66,0,0,1-1.5-1.67c-.79,1.43-1.79,2.25-3.89,3.24a5.89,5.89,0,0,0-1.35-1.92c2.2-.8,3.17-1.57,3.64-2.87H108.8a14.11,14.11,0,0,0-1.52.08V9.26a14.4,14.4,0,0,0,1.52.08h2.57c0-.55,0-.83,0-1.57Z"/><path class="cls-2" d="M130.68,9.69h2.22a13.53,13.53,0,0,0,1.87-.1v2.22a17,17,0,0,0-1.89-.1h-1.63a10.93,10.93,0,0,0,4,3.89,7.62,7.62,0,0,0-1.2,2.16,12,12,0,0,1-3.47-4.09c0,.55.05,1.12.05,1.57v1.67a14.28,14.28,0,0,0,.11,2h-2.27a16.77,16.77,0,0,0,.1-2V15.39c0-.47,0-1,0-1.66a11.33,11.33,0,0,1-3.72,4,8.16,8.16,0,0,0-1.2-1.93A11.26,11.26,0,0,0,126.21,14,11.47,11.47,0,0,0,128,11.71h-1a13,13,0,0,0-1.91.12v-1a10.71,10.71,0,0,0-.63,1.94,7.39,7.39,0,0,1-.9-1.8c0,.5,0,1.28,0,2v3.89a17.32,17.32,0,0,0,.1,2.1H121.4a17.54,17.54,0,0,0,.1-2.1v-3c0-.38,0-1.1.08-1.89A10.71,10.71,0,0,1,120,15.3a8.92,8.92,0,0,0-.78-2.32,13.63,13.63,0,0,0,2.07-4.76h-.54a4.55,4.55,0,0,0-1.1.09V6.19a5.13,5.13,0,0,0,1.1.08h.7V5.05a10.75,10.75,0,0,0-.1-1.75h2.29a11.45,11.45,0,0,0-.1,1.74V6.27h.37a4.87,4.87,0,0,0,.83-.06V7.69a10.59,10.59,0,0,0,1.15-3.87l2,.5c-.07.2-.12.42-.25.95-.07.27-.08.35-.15.63h1.08V5a10.46,10.46,0,0,0-.1-1.64h2.29a10.18,10.18,0,0,0-.1,1.62v1h1.75a13,13,0,0,0,1.86-.1V8a14,14,0,0,0-1.87-.1h-1.74Zm-3.84-1.78a9.92,9.92,0,0,1-.83,1.7,7.56,7.56,0,0,0-1.56-1.37,4.55,4.55,0,0,0-.48,0h-.32a8.82,8.82,0,0,0,1.4,2.38v-1a9.78,9.78,0,0,0,1.91.11h1.63V7.91Z"/><path class="cls-2" d="M149.77,6A10.4,10.4,0,0,0,151.39,6V8.12a18.09,18.09,0,0,0-2-.1h-2.2a18.94,18.94,0,0,0,1.06,6c.41,1,1,2,1.24,2s.37-1,.55-2.52a7.94,7.94,0,0,0,1.8,1.09,8,8,0,0,1-.95,3.29,1.56,1.56,0,0,1-1.28.81,3,3,0,0,1-2-1.25,11.07,11.07,0,0,1-1.65-3.3A24.88,24.88,0,0,1,145,8h-6.53c-.75,0-1.4,0-2.05.1V5.94a18.63,18.63,0,0,0,2.05.1h6.44c0-.72,0-.72,0-1.32,0-.42,0-.9-.08-1.2h2.35a8.81,8.81,0,0,0-.07,1.18c0,.12,0,.12,0,1.34h2.07a10,10,0,0,0-1.67-1.52l1.55-1a15.16,15.16,0,0,1,1.84,1.62L149.52,6Zm-11.05,5.74c-.63,0-1.23,0-1.75.07V9.79a15.74,15.74,0,0,0,1.8.09h3.91a15.81,15.81,0,0,0,1.79-.09v2.06c-.52,0-1.12-.07-1.76-.07h-.93v3.47c1.17-.21,1.8-.36,3.29-.73v2c-3.09.73-5.11,1.13-7.25,1.45a10,10,0,0,0-1.1.18l-.33-2.23a25.8,25.8,0,0,0,3.23-.34V11.78Z"/><path class="cls-2" d="M156.26,9a18.11,18.11,0,0,1-2.52,1.3,7.1,7.1,0,0,0-1.1-2.07,14.69,14.69,0,0,0,4-2.1,10.6,10.6,0,0,0,2.72-2.76h2.32a10.09,10.09,0,0,0,2.82,2.69,15.81,15.81,0,0,0,4.14,2.05,10,10,0,0,0-1,2.24A15.77,15.77,0,0,1,165,9v1.13a14,14,0,0,0-1.55-.06h-5.66a14.26,14.26,0,0,0-1.49.06Zm-.86,4.22a15.29,15.29,0,0,0-2,.1V11.13c.57,0,1.24.08,2,.08h10.46c.8,0,1.44,0,2-.08v2.22a15.5,15.5,0,0,0-2-.1h-5.64a19.89,19.89,0,0,1-1.6,2.95C162,16,162,16,163.39,15.87c-.53-.6-.8-.9-1.6-1.74l2-.83a34.93,34.93,0,0,1,3.79,4.46l-2,1.23c-.47-.73-.62-.95-.89-1.35-1.6.22-1.63.22-2.55.3s-5.71.52-6.34.55a18,18,0,0,0-1.84.2l-.28-2.39c.5,0,.75,0,1.17,0l1.18,0a22,22,0,0,0,1.64-3.07Zm8.14-5.16a12.86,12.86,0,0,1-2.95-2.77,12.75,12.75,0,0,1-2.94,2.77Z"/><path class="cls-2" d="M174.11,17.14a11.67,11.67,0,0,0,.08,1.74h-2.34a12.1,12.1,0,0,0,.1-1.79V13.25a11.45,11.45,0,0,1-1.68,1.24,8.49,8.49,0,0,0-1-2.06,11.56,11.56,0,0,0,2.75-2.09,8.59,8.59,0,0,0,1.75-2.45H171.3a11.12,11.12,0,0,0-1.43.07V5.8a9.3,9.3,0,0,0,1.3.07h.8V4.55a7.51,7.51,0,0,0-.1-1.27h2.32a6.75,6.75,0,0,0-.1,1.29v1.3h.58a6.67,6.67,0,0,0,1,0l.94,1c-.17.29-.24.44-.39.75a13,13,0,0,1-1.58,2.77,8.93,8.93,0,0,0,2.65,2.09,10.12,10.12,0,0,0-1.07,2,8.66,8.66,0,0,1-2.08-1.79Zm7.22-1H183a17.87,17.87,0,0,0,2-.08v2.28c-.61-.06-1.33-.1-1.95-.1h-5.59c-.65,0-1.29,0-1.91.1V16.09a18.33,18.33,0,0,0,1.94.08h1.62V9.88H178c-.55,0-1.08,0-1.63.08V7.71a14.49,14.49,0,0,0,1.63.08h1.07V5.17a15.42,15.42,0,0,0-.1-1.85h2.45a13.15,13.15,0,0,0-.1,1.85V7.79h1.54a11.92,11.92,0,0,0,1.65-.08V10c-.56-.05-1.07-.08-1.65-.08h-1.54Z"/></g></g></svg>