<svg viewBox="0 0 188.12 21.71" xmlns="http://www.w3.org/2000/svg"><path d="m12.5 6.76v-1.22a14.84 14.84 0 0 0 -.07-1.84h2.57a12.75 12.75 0 0 0 -.06 1.62v1.44h.88a16.38 16.38 0 0 0 2.18-.12v2.44c-.56-.08-1.24-.08-2.21-.08h-.94c0 1.62 0 1.91-.11 2.54a7.14 7.14 0 0 1 -1.17 3.52 7.48 7.48 0 0 1 -2.84 2.46 13 13 0 0 1 -1.73.74 7 7 0 0 0 -1.58-2.16 8.11 8.11 0 0 0 3.23-1.5 4.91 4.91 0 0 0 1.77-3.95c0-.34 0-.71.05-1.66h-4v1.84a12 12 0 0 0 .07 1.92h-2.54a17.33 17.33 0 0 0 .08-2v-1.75h-.84a18.94 18.94 0 0 0 -2.24.08v-2.44a14.07 14.07 0 0 0 2.29.12h.78v-1.19a13.83 13.83 0 0 0 -.07-1.89h2.6a11.47 11.47 0 0 0 -.08 1.84v1.24z"/><path d="m27.85 3.68a7.61 7.61 0 0 0 -.48 1c-.15.33-.22.48-.4.85h4.34a3.94 3.94 0 0 0 1.2-.18l1.22 1.2a3.9 3.9 0 0 0 -.44 1.08 17.63 17.63 0 0 1 -3.42 6.51 17 17 0 0 1 -6.06 4.29 6.44 6.44 0 0 0 -1.72-2.15c4.51-1.75 7.12-4.37 8.48-8.58l-4.74.05a16.78 16.78 0 0 1 -3.83 4.25 6.25 6.25 0 0 0 -2-1.71 13 13 0 0 0 4.37-4.95 6.61 6.61 0 0 0 .81-2.12z"/><path d="m37.33 8a15.16 15.16 0 0 0 2.52.11h8a4.33 4.33 0 0 0 1.62-.16l1.12 1.23a4.93 4.93 0 0 0 -.47 1 12.33 12.33 0 0 1 -3.79 5.71 15.74 15.74 0 0 1 -4.56 2.41 7.11 7.11 0 0 0 -1.52-2.3 11.48 11.48 0 0 0 4.53-2.07 8.17 8.17 0 0 0 2.63-3.63h-7.59a20.27 20.27 0 0 0 -2.49.09zm1.4-4.11a13.25 13.25 0 0 0 2.27.11h5.47a10 10 0 0 0 2.27-.13v2.4a16.88 16.88 0 0 0 -2.23-.08h-5.51c-1.07 0-1.74 0-2.26.08z"/><path d="m59.33 5.1a11.28 11.28 0 0 0 -.22 1.39 30 30 0 0 1 -1.27 5.66 16 16 0 0 1 -3 5.39 8.87 8.87 0 0 0 -2.29-1.7 11.64 11.64 0 0 0 2.45-3.64 21.79 21.79 0 0 0 1.5-5.71 12.22 12.22 0 0 0 .14-1.69v-.18zm4.79-.48a23 23 0 0 0 .67 3.74 19.64 19.64 0 0 0 1.75 4.64 14.67 14.67 0 0 0 1.94 2.77 8.44 8.44 0 0 0 -2.22 1.81 17.72 17.72 0 0 1 -2.86-5.18 28.72 28.72 0 0 1 -1.52-6 10.88 10.88 0 0 0 -.21-1.25zm4.26 1.5a1.86 1.86 0 1 1 -1.86-1.85 1.84 1.84 0 0 1 1.86 1.85zm-2.67 0a.82.82 0 1 0 .81-.82.82.82 0 0 0 -.81.82z"/><path d="m73.47 7.34a19.94 19.94 0 0 1 1.65 4.09l-2.24.68a17.5 17.5 0 0 0 -1.5-4.17zm9.66.2a5.38 5.38 0 0 0 -.25.93 15.26 15.26 0 0 1 -2.19 5.53 12.93 12.93 0 0 1 -5.3 4.22 7.41 7.41 0 0 0 -1.59-2 12 12 0 0 0 2.94-1.54 9.39 9.39 0 0 0 3.72-5.79 9.15 9.15 0 0 0 .3-1.89zm-6-.88a16.67 16.67 0 0 1 1.62 3.95l-2.19.67a20 20 0 0 0 -1.56-4.06z"/><path d="m94.61 3.68a7.61 7.61 0 0 0 -.48 1c-.15.33-.22.48-.4.85h4.34a3.94 3.94 0 0 0 1.2-.18l1.22 1.2a3.61 3.61 0 0 0 -.44 1.08 17.78 17.78 0 0 1 -3.42 6.51 17 17 0 0 1 -6.06 4.29 6.44 6.44 0 0 0 -1.72-2.15c4.51-1.75 7.11-4.37 8.48-8.58l-4.74.05a16.78 16.78 0 0 1 -3.85 4.25 6.25 6.25 0 0 0 -2-1.71 13 13 0 0 0 4.37-4.95 6.61 6.61 0 0 0 .81-2.12z"/><path d="m116 18a29.55 29.55 0 0 0 -5-4.85 19.14 19.14 0 0 1 -6.23 4.65 7.67 7.67 0 0 0 -1.6-2.22 15.1 15.1 0 0 0 3.7-2 15.47 15.47 0 0 0 4.38-4.83c.21-.36.5-1 .88-1.82l-4.78.07a14.59 14.59 0 0 0 -2.34.15v-2.54a12.76 12.76 0 0 0 2 .1h.32l5.69-.1a2.52 2.52 0 0 0 1.4-.2l1.29 1.33a2.83 2.83 0 0 0 -.55.94 21.63 21.63 0 0 1 -2.52 4.54 36.82 36.82 0 0 1 5.42 4.62z"/><path d="m130.83 9.41h2.22a13.53 13.53 0 0 0 1.87-.1v2.22a14.87 14.87 0 0 0 -1.89-.1h-1.63a11.09 11.09 0 0 0 4 3.89 7.69 7.69 0 0 0 -1.2 2.15 12.06 12.06 0 0 1 -3.47-4.09c0 .55.05 1.12.05 1.57v1.67a14.09 14.09 0 0 0 .11 2h-2.27a16.54 16.54 0 0 0 .1-2v-1.52c0-.47 0-1 0-1.65a11.49 11.49 0 0 1 -3.72 4 8 8 0 0 0 -1.2-1.94 11 11 0 0 0 2.49-1.87 11.36 11.36 0 0 0 1.75-2.25h-1a12.72 12.72 0 0 0 -1.9.12v-1a10.16 10.16 0 0 0 -.64 1.93 7.22 7.22 0 0 1 -.9-1.8v2 3.89a17.32 17.32 0 0 0 .1 2.1h-2.27a17.43 17.43 0 0 0 .1-2.1v-2.96c0-.39 0-1.11.08-1.89a10.93 10.93 0 0 1 -1.43 3.32 8.92 8.92 0 0 0 -.78-2.32 13.72 13.72 0 0 0 2.07-4.76h-.54a5.25 5.25 0 0 0 -1.1.08v-2.1a4.45 4.45 0 0 0 1.1.09h.7v-1.22a10.67 10.67 0 0 0 -.1-1.75h2.29a11.22 11.22 0 0 0 -.1 1.73v1.25h.37a4 4 0 0 0 .83-.07v1.48a10.58 10.58 0 0 0 1.15-3.88l2 .5c-.07.21-.12.42-.25 1-.07.26-.08.35-.15.63h1.08v-.97a10.46 10.46 0 0 0 -.1-1.64h2.29a10.18 10.18 0 0 0 -.1 1.62v1h1.75a13 13 0 0 0 1.86-.1v2.2a15.81 15.81 0 0 0 -1.87-.1h-1.74zm-3.83-1.79a10.39 10.39 0 0 1 -.83 1.71 6.8 6.8 0 0 0 -1.57-1.33 4.55 4.55 0 0 0 -.48 0h-.32a8.41 8.41 0 0 0 1.41 2.37v-1a9.46 9.46 0 0 0 1.9.12h1.63v-1.87z"/><path d="m149.92 5.75a9.27 9.27 0 0 0 1.62-.08v2.17a16 16 0 0 0 -2-.1h-2.2a19 19 0 0 0 1.06 6c.41.95 1 2 1.24 2s.37-1 .55-2.52a7.54 7.54 0 0 0 1.8 1.08 8 8 0 0 1 -.95 3.29 1.55 1.55 0 0 1 -1.28.82 3 3 0 0 1 -2-1.25 11.13 11.13 0 0 1 -1.65-3.31 24.79 24.79 0 0 1 -.95-6.09h-6.53a18.77 18.77 0 0 0 -2.05.1v-2.21a16.43 16.43 0 0 0 2.05.1h6.37c0-.71 0-.71 0-1.31 0-.42-.05-.91-.08-1.21h2.35a9 9 0 0 0 -.07 1.19v1.33h2.07a10.37 10.37 0 0 0 -1.67-1.51l1.55-1a14.34 14.34 0 0 1 1.85 1.6l-1.34.91zm-11 5.75c-.63 0-1.23 0-1.75.06v-2.05a16.19 16.19 0 0 0 1.8.08h3.91a16.25 16.25 0 0 0 1.79-.08v2.05c-.52-.05-1.12-.06-1.76-.06h-.93v3.5c1.17-.22 1.8-.37 3.29-.74v2c-3.09.74-5.11 1.14-7.25 1.46a10 10 0 0 0 -1.1.18l-.33-2.24a24.9 24.9 0 0 0 3.23-.33v-3.83z"/><path d="m156.41 8.74a16.18 16.18 0 0 1 -2.52 1.3 7.23 7.23 0 0 0 -1.1-2.04 14.16 14.16 0 0 0 4-2.1 10.57 10.57 0 0 0 2.72-2.75h2.32a9.92 9.92 0 0 0 2.82 2.68 15.85 15.85 0 0 0 4.14 2.06 10.12 10.12 0 0 0 -1 2.23 15.68 15.68 0 0 1 -2.67-1.36v1.1a13.73 13.73 0 0 0 -1.55-.07h-5.67a14.19 14.19 0 0 0 -1.49.07zm-.86 4.26a15.29 15.29 0 0 0 -2 .1v-2.25c.57.05 1.24.08 2 .08h10.45c.8 0 1.44 0 2-.08v2.22a15.5 15.5 0 0 0 -2-.1h-5.64a20.4 20.4 0 0 1 -1.6 2.95c3.35-.17 3.35-.17 4.77-.33-.53-.6-.8-.91-1.6-1.74l2-.83a35.56 35.56 0 0 1 3.79 4.45l-1.95 1.24c-.47-.74-.62-.95-.88-1.35-1.61.21-1.64.21-2.56.3s-5.71.51-6.34.55a18 18 0 0 0 -1.84.2l-.27-2.41h1.17 1.18a22 22 0 0 0 1.64-3zm8.14-5.16a13.3 13.3 0 0 1 -2.95-2.84 13 13 0 0 1 -2.94 2.77z"/><path d="m174.26 16.85a11.59 11.59 0 0 0 .08 1.74h-2.34a12 12 0 0 0 .1-1.79v-3.8a11.44 11.44 0 0 1 -1.68 1.23 8.4 8.4 0 0 0 -.95-2 11.56 11.56 0 0 0 2.75-2.09 8.67 8.67 0 0 0 1.78-2.53h-2.52a11.4 11.4 0 0 0 -1.43.06v-2.15a9.3 9.3 0 0 0 1.3.07h.8v-1.32a7.43 7.43 0 0 0 -.15-1.27h2.32a6.68 6.68 0 0 0 -.1 1.29v1.3h.58a6.67 6.67 0 0 0 1 0l.94 1a6.58 6.58 0 0 0 -.39.75 13.25 13.25 0 0 1 -1.58 2.77 8.93 8.93 0 0 0 2.65 2.09 10.33 10.33 0 0 0 -1.07 2 8.4 8.4 0 0 1 -2.08-1.78zm7.22-1h1.67a15.42 15.42 0 0 0 2-.09v2.29a18.06 18.06 0 0 0 -2-.1h-5.59a16.77 16.77 0 0 0 -1.9.1v-2.25a15.53 15.53 0 0 0 1.93.09h1.62v-6.3h-1.07c-.55 0-1.08 0-1.63.09v-2.26a14.19 14.19 0 0 0 1.63.09h1.07v-2.62a15.47 15.47 0 0 0 -.1-1.86h2.45a13.21 13.21 0 0 0 -.1 1.86v2.62h1.54a10.3 10.3 0 0 0 1.65-.09v2.26c-.56 0-1.07-.09-1.65-.09h-1.54z"/><g fill="#fff"><path d="m9 21.26a3 3 0 0 1 -2.69-1.68 4.13 4.13 0 0 0 -1-1.4 3 3 0 0 1 -.74-2.82 3.09 3.09 0 0 1 -.78-.62 3 3 0 0 1 -.79-2.35c0-.09 0-.2 0-.31a3 3 0 0 1 -3-3v-2.44a3 3 0 0 1 3-3 3 3 0 0 1 3-3h2.6a3 3 0 0 1 1.93.71 3 3 0 0 1 1.9-.65h2.57a3 3 0 0 1 3 2.94 3 3 0 0 1 3 3v2.44a3 3 0 0 1 -3 3h-.26-.04a9.89 9.89 0 0 1 -1.64 4.67 10.41 10.41 0 0 1 -4 3.44 13.62 13.62 0 0 1 -2.13.91 3 3 0 0 1 -.93.16z"/><path d="m23.82 21.38a3 3 0 0 1 -2.65-1.58 3.49 3.49 0 0 0 -1.09-1.35 3 3 0 0 1 -.15-4.31 3.84 3.84 0 0 1 -.27-.29 3.46 3.46 0 0 0 -1.23-1 3 3 0 0 1 -.15-5 10.08 10.08 0 0 0 3.43-3.89 4.71 4.71 0 0 0 .49-1.15 3 3 0 0 1 1.22-2 3.07 3.07 0 0 1 1.75-.64 2.71 2.71 0 0 1 .56 0l2.69.52a3 3 0 0 1 2.18 1.79h.67.28a2.87 2.87 0 0 1 3.07.7l1.22 1.2a3 3 0 0 1 .45 3.71 3.56 3.56 0 0 0 -.12.38 21 21 0 0 1 -4 7.62 20.12 20.12 0 0 1 -7.06 5 3 3 0 0 1 -1.29.29z"/><path d="m41.82 21.31a3 3 0 0 1 -2.73-1.75 4.4 4.4 0 0 0 -1.09-1.56 3 3 0 0 1 .9-4.69c-.64 0-.93 0-1.27.06h-.32a3 3 0 0 1 -3-3v-2.37a3 3 0 0 1 1-2.27 3.18 3.18 0 0 1 .37-.27v-1.61a3 3 0 0 1 3-3 2.81 2.81 0 0 1 .5 0 10.62 10.62 0 0 0 1.82.15h5.47a7.8 7.8 0 0 0 1.7-.07 2.76 2.76 0 0 1 .57-.06 3 3 0 0 1 3 3v2.07l1.08 1.19a3 3 0 0 1 .34 3.58 3.55 3.55 0 0 0 -.22.53 15.16 15.16 0 0 1 -4.72 7 18.76 18.76 0 0 1 -5.34 2.86 3 3 0 0 1 -1.06.21z"/><path d="m66.12 20.55a3 3 0 0 1 -2.23-1.15 20.86 20.86 0 0 1 -3.3-6 18.87 18.87 0 0 1 -3.37 6 3 3 0 0 1 -2.14 1.09h-.18a3 3 0 0 1 -2.08-.84 6.27 6.27 0 0 0 -1.69-1.26 3 3 0 0 1 -.72-4.63 8.63 8.63 0 0 0 1.82-2.76 19 19 0 0 0 1.29-4.93 10.25 10.25 0 0 0 .11-1.29v-.16a3 3 0 0 1 3-3 2.29 2.29 0 0 1 .52 0l2.71.48a3.38 3.38 0 0 1 .62.18 3.28 3.28 0 0 1 .63-.19l2.45-.47a3.53 3.53 0 0 1 .56 0 2.63 2.63 0 0 1 .49 0 4.85 4.85 0 0 1 4 8.82 11.84 11.84 0 0 0 .52 1.07 12 12 0 0 0 1.59 2.27 3 3 0 0 1 .67 2.41 3 3 0 0 1 -1.39 2.08 6 6 0 0 0 -1.61 1.3 3 3 0 0 1 -2.18.95z"/><path d="m75.39 21.22a3 3 0 0 1 -2.59-1.48 4.42 4.42 0 0 0 -1.08-1.34 3 3 0 0 1 -.86-2.76 2.92 2.92 0 0 1 .4-1 3 3 0 0 1 -1.26-1.8 14.43 14.43 0 0 0 -1.28-3.57 3 3 0 0 1 0-2.54 3 3 0 0 1 1.91-1.67l2.09-.6a2.92 2.92 0 0 1 .83-.12 3.41 3.41 0 0 1 .55 0l.21-.06 2.07-.57a3.06 3.06 0 0 1 2.84.7 3 3 0 0 1 1.54-.41 2.63 2.63 0 0 1 .68.08l2.37.55a3 3 0 0 1 2 1.48 3 3 0 0 1 .19 2.43 4 4 0 0 0 -.15.58 18.24 18.24 0 0 1 -2.64 6.58 15.89 15.89 0 0 1 -6.43 5.2 3 3 0 0 1 -1.39.32z"/><path d="m90.58 21.38a3 3 0 0 1 -2.65-1.58 3.49 3.49 0 0 0 -1.09-1.35 3 3 0 0 1 -.15-4.31 3.84 3.84 0 0 1 -.27-.29 3.46 3.46 0 0 0 -1.23-1 3 3 0 0 1 -.15-5 10.08 10.08 0 0 0 3.43-3.89 4.71 4.71 0 0 0 .53-1.22 3 3 0 0 1 1.22-2 3.07 3.07 0 0 1 1.71-.57 2.71 2.71 0 0 1 .56 0l2.69.52a3 3 0 0 1 2.18 1.74h.64.28a2.87 2.87 0 0 1 3.07.7l1.22 1.2a3 3 0 0 1 .45 3.71 3.56 3.56 0 0 0 -.12.38 21 21 0 0 1 -4 7.62 20.12 20.12 0 0 1 -7.06 5 3 3 0 0 1 -1.26.34z"/><path d="m115.93 21a3 3 0 0 1 -2.23-1.12 25.59 25.59 0 0 0 -2.46-2.66 24.67 24.67 0 0 1 -5.07 3.28 2.92 2.92 0 0 1 -1.31.3 3 3 0 0 1 -2.66-1.61 4.69 4.69 0 0 0 -1.11-1.53 3 3 0 0 1 1.06-4.87 11.88 11.88 0 0 0 3-1.66 14.86 14.86 0 0 0 1.39-1.13 7 7 0 0 0 -1.06.09 3.73 3.73 0 0 1 -.47 0 3 3 0 0 1 -3-3v-2.54a3 3 0 0 1 1-2.31 3 3 0 0 1 2-.73h.46a9.13 9.13 0 0 0 1.57.07h.32l5.84-.1h.19a3.18 3.18 0 0 1 1-.18 3 3 0 0 1 2.17.9l1.29 1.33a3 3 0 0 1 .11 4 1.12 1.12 0 0 1 0 .13c-.43 1-.84 1.86-1.28 2.65.9.74 1.78 1.57 3.48 3.19a3 3 0 0 1 .13 4.22l-2 2.17a3 3 0 0 1 -2.29 1.11z"/><path d="m128.64 21.62a3 3 0 0 1 -2.24-1l-.17-.21a1.63 1.63 0 0 1 -.17.2 3 3 0 0 1 -2.24 1h-2.27a3 3 0 0 1 -3-3.34c0-.21 0-.44.06-.7a3 3 0 0 1 -1.39-2 5.54 5.54 0 0 0 -.52-1.57 3 3 0 0 1 .34-3.18 5.08 5.08 0 0 0 .51-.84 3 3 0 0 1 -.72-2v-2.08a3 3 0 0 1 1.17-2.35 2.57 2.57 0 0 1 .57-.35 3 3 0 0 1 3-3.18h2.29a3 3 0 0 1 1.75.56 2.73 2.73 0 0 1 .5 0 3.12 3.12 0 0 1 .74.09 3 3 0 0 1 1.78-.59h2.29a3 3 0 0 1 2.27 1 2.94 2.94 0 0 1 .69 1.47h.16.39a3 3 0 0 1 2 .75 3 3 0 0 1 1 2.25v2.12a3.05 3.05 0 0 1 .48 1.64v2.22a3 3 0 0 1 -.46 1.59 3 3 0 0 1 .9 1.6 3 3 0 0 1 -.56 2.43 4.75 4.75 0 0 0 -.81 1.47 3 3 0 0 1 -2 1.74 2.82 2.82 0 0 1 -.81.11 3 3 0 0 1 -.85-.12 1.92 1.92 0 0 1 -.18.22 3 3 0 0 1 -2.28 1.05z"/><path d="m149.71 21.39a5.6 5.6 0 0 1 -4.13-2.14c-2.94.7-5 1.1-7.17 1.42h-.21c-.31.05-.42.06-.64.11a3.25 3.25 0 0 1 -.69.08 3 3 0 0 1 -3-2.56l-.33-2.23a3 3 0 0 1 .69-2.41 5 5 0 0 1 .41-.39 3 3 0 0 1 -.55-1.74v-1.91a3 3 0 0 1 -.58-1.78v-2.19a3 3 0 0 1 3-3 2.19 2.19 0 0 1 .36 0 15.39 15.39 0 0 0 1.69.07h3.44a3 3 0 0 1 3-2.52h2.35a2.92 2.92 0 0 1 .93.15 2.9 2.9 0 0 1 1-.16 3 3 0 0 1 1.8.6 17.71 17.71 0 0 1 2.14 1.87 3 3 0 0 1 .66 1 3 3 0 0 1 .77 2v2.18a3 3 0 0 1 -1 2.25 2.92 2.92 0 0 1 -1.56.72 4.9 4.9 0 0 0 1.2.72 3 3 0 0 1 1.73 3.16 10.75 10.75 0 0 1 -1.39 4.48 4.53 4.53 0 0 1 -3.92 2.22z"/><path d="m165.78 21.71a3 3 0 0 1 -2.36-1.14l-.81.07c-.76.08-5.73.53-6.46.56s-1.26.13-1.48.16a2.94 2.94 0 0 1 -.51.05 3 3 0 0 1 -3-2.65l-.28-2.38a3 3 0 0 1 .23-1.56 3 3 0 0 1 -.57-1.75v-2.22a2.76 2.76 0 0 1 .09-.71l-.26-.36a3 3 0 0 1 1.4-4.63 11.58 11.58 0 0 0 3.27-1.71 7.4 7.4 0 0 0 2-2 3 3 0 0 1 2.5-1.32h2.32a3 3 0 0 1 2.41 1.21 7.11 7.11 0 0 0 2.09 2 13.16 13.16 0 0 0 3.4 1.67 3 3 0 0 1 1.64 4.37c-.2.35-.35.61-.46.86a3.08 3.08 0 0 1 .06.61v2.22a3 3 0 0 1 -1 2.24l-.08.07.24.31a3 3 0 0 1 .53 2.34 3 3 0 0 1 -1.34 2l-2 1.23a2.92 2.92 0 0 1 -1.57.46z"/><path d="m172 21.59a3 3 0 0 1 -3-3.38 8.9 8.9 0 0 0 .07-1.31 3 3 0 0 1 -1.52-1.74 5.69 5.69 0 0 0 -.62-1.37 3 3 0 0 1 .82-4.12 3 3 0 0 1 -.76-2v-2.15a3 3 0 0 1 1-2.25 2.92 2.92 0 0 1 1-.58 3 3 0 0 1 3.01-2.69h2.32a3 3 0 0 1 2.3 1.08l.11.13c.05-.06.1-.13.16-.19a3 3 0 0 1 2.22-1h2.45a3 3 0 0 1 3 3.39 6.41 6.41 0 0 0 -.07 1h.18a3 3 0 0 1 3 3v2.27a3 3 0 0 1 -3 3h-.19v.18h.3.34a3 3 0 0 1 3 3v2.29a3 3 0 0 1 -3 3h-.32c-.48-.05-1.09-.08-1.63-.08h-5.59c-.53 0-1.05 0-1.55.08a3 3 0 0 1 -1.69.52z"/></g><path d="m12.5 6.76v-1.22a14.84 14.84 0 0 0 -.07-1.84h2.57a12.75 12.75 0 0 0 -.06 1.62v1.44h.88a16.38 16.38 0 0 0 2.18-.12v2.44c-.56-.08-1.24-.08-2.21-.08h-.94c0 1.62 0 1.91-.11 2.54a7.14 7.14 0 0 1 -1.17 3.52 7.48 7.48 0 0 1 -2.84 2.46 13 13 0 0 1 -1.73.74 7 7 0 0 0 -1.58-2.16 8.11 8.11 0 0 0 3.23-1.5 4.91 4.91 0 0 0 1.77-3.95c0-.34 0-.71.05-1.66h-4v1.84a12 12 0 0 0 .07 1.92h-2.54a17.33 17.33 0 0 0 .08-2v-1.75h-.84a18.94 18.94 0 0 0 -2.24.08v-2.44a14.07 14.07 0 0 0 2.29.12h.78v-1.19a13.83 13.83 0 0 0 -.07-1.89h2.6a11.47 11.47 0 0 0 -.08 1.84v1.24z" fill="#231815"/><path d="m27.85 3.68a7.61 7.61 0 0 0 -.48 1c-.15.33-.22.48-.4.85h4.34a3.94 3.94 0 0 0 1.2-.18l1.22 1.2a3.9 3.9 0 0 0 -.44 1.08 17.63 17.63 0 0 1 -3.42 6.51 17 17 0 0 1 -6.06 4.29 6.44 6.44 0 0 0 -1.72-2.15c4.51-1.75 7.12-4.37 8.48-8.58l-4.74.05a16.78 16.78 0 0 1 -3.83 4.25 6.25 6.25 0 0 0 -2-1.71 13 13 0 0 0 4.37-4.95 6.61 6.61 0 0 0 .81-2.12z" fill="#231815"/><path d="m37.33 8a15.16 15.16 0 0 0 2.52.11h8a4.33 4.33 0 0 0 1.62-.16l1.12 1.23a4.93 4.93 0 0 0 -.47 1 12.33 12.33 0 0 1 -3.79 5.71 15.74 15.74 0 0 1 -4.56 2.41 7.11 7.11 0 0 0 -1.52-2.3 11.48 11.48 0 0 0 4.53-2.07 8.17 8.17 0 0 0 2.63-3.63h-7.59a20.27 20.27 0 0 0 -2.49.09zm1.4-4.11a13.25 13.25 0 0 0 2.27.11h5.47a10 10 0 0 0 2.27-.13v2.4a16.88 16.88 0 0 0 -2.23-.08h-5.51c-1.07 0-1.74 0-2.26.08z" fill="#231815"/><path d="m59.33 5.1a11.28 11.28 0 0 0 -.22 1.39 30 30 0 0 1 -1.27 5.66 16 16 0 0 1 -3 5.39 8.87 8.87 0 0 0 -2.29-1.7 11.64 11.64 0 0 0 2.45-3.64 21.79 21.79 0 0 0 1.5-5.71 12.22 12.22 0 0 0 .14-1.69v-.18zm4.79-.48a23 23 0 0 0 .67 3.74 19.64 19.64 0 0 0 1.75 4.64 14.67 14.67 0 0 0 1.94 2.77 8.44 8.44 0 0 0 -2.22 1.81 17.72 17.72 0 0 1 -2.86-5.18 28.72 28.72 0 0 1 -1.52-6 10.88 10.88 0 0 0 -.21-1.25zm4.26 1.5a1.86 1.86 0 1 1 -1.86-1.85 1.84 1.84 0 0 1 1.86 1.85zm-2.67 0a.82.82 0 1 0 .81-.82.82.82 0 0 0 -.81.82z" fill="#231815"/><path d="m73.47 7.34a19.94 19.94 0 0 1 1.65 4.09l-2.24.68a17.5 17.5 0 0 0 -1.5-4.17zm9.66.2a5.38 5.38 0 0 0 -.25.93 15.26 15.26 0 0 1 -2.19 5.53 12.93 12.93 0 0 1 -5.3 4.22 7.41 7.41 0 0 0 -1.59-2 12 12 0 0 0 2.94-1.54 9.39 9.39 0 0 0 3.72-5.79 9.15 9.15 0 0 0 .3-1.89zm-6-.88a16.67 16.67 0 0 1 1.62 3.95l-2.19.67a20 20 0 0 0 -1.56-4.06z" fill="#231815"/><path d="m94.61 3.68a7.61 7.61 0 0 0 -.48 1c-.15.33-.22.48-.4.85h4.34a3.94 3.94 0 0 0 1.2-.18l1.22 1.2a3.61 3.61 0 0 0 -.44 1.08 17.78 17.78 0 0 1 -3.42 6.51 17 17 0 0 1 -6.06 4.29 6.44 6.44 0 0 0 -1.72-2.15c4.51-1.75 7.11-4.37 8.48-8.58l-4.74.05a16.78 16.78 0 0 1 -3.85 4.25 6.25 6.25 0 0 0 -2-1.71 13 13 0 0 0 4.37-4.95 6.61 6.61 0 0 0 .81-2.12z" fill="#231815"/><path d="m116 18a29.55 29.55 0 0 0 -5-4.85 19.14 19.14 0 0 1 -6.23 4.65 7.67 7.67 0 0 0 -1.6-2.22 15.1 15.1 0 0 0 3.7-2 15.47 15.47 0 0 0 4.38-4.83c.21-.36.5-1 .88-1.82l-4.78.07a14.59 14.59 0 0 0 -2.34.15v-2.54a12.76 12.76 0 0 0 2 .1h.32l5.69-.1a2.52 2.52 0 0 0 1.4-.2l1.29 1.33a2.83 2.83 0 0 0 -.55.94 21.63 21.63 0 0 1 -2.52 4.54 36.82 36.82 0 0 1 5.42 4.62z" fill="#231815"/><path d="m130.83 9.41h2.22a13.53 13.53 0 0 0 1.87-.1v2.22a14.87 14.87 0 0 0 -1.89-.1h-1.63a11.09 11.09 0 0 0 4 3.89 7.69 7.69 0 0 0 -1.2 2.15 12.06 12.06 0 0 1 -3.47-4.09c0 .55.05 1.12.05 1.57v1.67a14.09 14.09 0 0 0 .11 2h-2.27a16.54 16.54 0 0 0 .1-2v-1.52c0-.47 0-1 0-1.65a11.49 11.49 0 0 1 -3.72 4 8 8 0 0 0 -1.2-1.94 11 11 0 0 0 2.49-1.87 11.36 11.36 0 0 0 1.75-2.25h-1a12.72 12.72 0 0 0 -1.9.12v-1a10.16 10.16 0 0 0 -.64 1.93 7.22 7.22 0 0 1 -.9-1.8v2 3.89a17.32 17.32 0 0 0 .1 2.1h-2.27a17.43 17.43 0 0 0 .1-2.1v-2.96c0-.39 0-1.11.08-1.89a10.93 10.93 0 0 1 -1.43 3.32 8.92 8.92 0 0 0 -.78-2.32 13.72 13.72 0 0 0 2.07-4.76h-.54a5.25 5.25 0 0 0 -1.1.08v-2.1a4.45 4.45 0 0 0 1.1.09h.7v-1.22a10.67 10.67 0 0 0 -.1-1.75h2.29a11.22 11.22 0 0 0 -.1 1.73v1.25h.37a4 4 0 0 0 .83-.07v1.48a10.58 10.58 0 0 0 1.15-3.88l2 .5c-.07.21-.12.42-.25 1-.07.26-.08.35-.15.63h1.08v-.97a10.46 10.46 0 0 0 -.1-1.64h2.29a10.18 10.18 0 0 0 -.1 1.62v1h1.75a13 13 0 0 0 1.86-.1v2.2a15.81 15.81 0 0 0 -1.87-.1h-1.74zm-3.83-1.79a10.39 10.39 0 0 1 -.83 1.71 6.8 6.8 0 0 0 -1.57-1.33 4.55 4.55 0 0 0 -.48 0h-.32a8.41 8.41 0 0 0 1.41 2.37v-1a9.46 9.46 0 0 0 1.9.12h1.63v-1.87z" fill="#231815"/><path d="m149.92 5.75a9.27 9.27 0 0 0 1.62-.08v2.17a16 16 0 0 0 -2-.1h-2.2a19 19 0 0 0 1.06 6c.41.95 1 2 1.24 2s.37-1 .55-2.52a7.54 7.54 0 0 0 1.8 1.08 8 8 0 0 1 -.95 3.29 1.55 1.55 0 0 1 -1.28.82 3 3 0 0 1 -2-1.25 11.13 11.13 0 0 1 -1.65-3.31 24.79 24.79 0 0 1 -.95-6.09h-6.53a18.77 18.77 0 0 0 -2.05.1v-2.21a16.43 16.43 0 0 0 2.05.1h6.37c0-.71 0-.71 0-1.31 0-.42-.05-.91-.08-1.21h2.35a9 9 0 0 0 -.07 1.19v1.33h2.07a10.37 10.37 0 0 0 -1.67-1.51l1.55-1a14.34 14.34 0 0 1 1.85 1.6l-1.34.91zm-11 5.75c-.63 0-1.23 0-1.75.06v-2.05a16.19 16.19 0 0 0 1.8.08h3.91a16.25 16.25 0 0 0 1.79-.08v2.05c-.52-.05-1.12-.06-1.76-.06h-.93v3.5c1.17-.22 1.8-.37 3.29-.74v2c-3.09.74-5.11 1.14-7.25 1.46a10 10 0 0 0 -1.1.18l-.33-2.24a24.9 24.9 0 0 0 3.23-.33v-3.83z" fill="#231815"/><path d="m156.41 8.74a16.18 16.18 0 0 1 -2.52 1.3 7.23 7.23 0 0 0 -1.1-2.04 14.16 14.16 0 0 0 4-2.1 10.57 10.57 0 0 0 2.72-2.75h2.32a9.92 9.92 0 0 0 2.82 2.68 15.85 15.85 0 0 0 4.14 2.06 10.12 10.12 0 0 0 -1 2.23 15.68 15.68 0 0 1 -2.67-1.36v1.1a13.73 13.73 0 0 0 -1.55-.07h-5.67a14.19 14.19 0 0 0 -1.49.07zm-.86 4.26a15.29 15.29 0 0 0 -2 .1v-2.25c.57.05 1.24.08 2 .08h10.45c.8 0 1.44 0 2-.08v2.22a15.5 15.5 0 0 0 -2-.1h-5.64a20.4 20.4 0 0 1 -1.6 2.95c3.35-.17 3.35-.17 4.77-.33-.53-.6-.8-.91-1.6-1.74l2-.83a35.56 35.56 0 0 1 3.79 4.45l-1.95 1.24c-.47-.74-.62-.95-.88-1.35-1.61.21-1.64.21-2.56.3s-5.71.51-6.34.55a18 18 0 0 0 -1.84.2l-.27-2.41h1.17 1.18a22 22 0 0 0 1.64-3zm8.14-5.16a13.3 13.3 0 0 1 -2.95-2.84 13 13 0 0 1 -2.94 2.77z" fill="#231815"/><path d="m174.26 16.85a11.59 11.59 0 0 0 .08 1.74h-2.34a12 12 0 0 0 .1-1.79v-3.8a11.44 11.44 0 0 1 -1.68 1.23 8.4 8.4 0 0 0 -.95-2 11.56 11.56 0 0 0 2.75-2.09 8.67 8.67 0 0 0 1.78-2.53h-2.52a11.4 11.4 0 0 0 -1.43.06v-2.15a9.3 9.3 0 0 0 1.3.07h.8v-1.32a7.43 7.43 0 0 0 -.15-1.27h2.32a6.68 6.68 0 0 0 -.1 1.29v1.3h.58a6.67 6.67 0 0 0 1 0l.94 1a6.58 6.58 0 0 0 -.39.75 13.25 13.25 0 0 1 -1.58 2.77 8.93 8.93 0 0 0 2.65 2.09 10.33 10.33 0 0 0 -1.07 2 8.4 8.4 0 0 1 -2.08-1.78zm7.22-1h1.67a15.42 15.42 0 0 0 2-.09v2.29a18.06 18.06 0 0 0 -2-.1h-5.59a16.77 16.77 0 0 0 -1.9.1v-2.25a15.53 15.53 0 0 0 1.93.09h1.62v-6.3h-1.07c-.55 0-1.08 0-1.63.09v-2.26a14.19 14.19 0 0 0 1.63.09h1.07v-2.62a15.47 15.47 0 0 0 -.1-1.86h2.45a13.21 13.21 0 0 0 -.1 1.86v2.62h1.54a10.3 10.3 0 0 0 1.65-.09v2.26c-.56 0-1.07-.09-1.65-.09h-1.54z" fill="#231815"/></svg>