<svg xmlns="http://www.w3.org/2000/svg" viewBox="0 0 71.33 21.76"><defs><style>.cls-1{fill:#fff;}.cls-2{fill:#231815;}</style></defs><g id="レイヤー_2" data-name="レイヤー 2"><g id="レイヤー_1-2" data-name="レイヤー 1"><path d="M9.13,4.22A7.12,7.12,0,0,0,9,3.15h2.41a6.23,6.23,0,0,0-.09,1.05v.24h4.46c.83,0,1.39,0,1.92-.07a8.65,8.65,0,0,0-.07,1.27V7.37a10.65,10.65,0,0,0,.07,1.34H15.6V6.39H5.17V8.71H3a9.77,9.77,0,0,0,.08-1.35V5.64c0-.55,0-.9-.06-1.27.53,0,1.05.07,1.92.07H9.13Zm-2,7.59c-.85,0-1.18,0-1.73.06a11.26,11.26,0,0,0,.06-1.56V8.41a11.3,11.3,0,0,0,0-1.24,8.44,8.44,0,0,0,1.07,0h7.76a7.81,7.81,0,0,0,1,0c0,.29,0,.59,0,1.31v1.83a11,11,0,0,0,.05,1.56c-.48,0-.94-.06-1.74-.06H11.4c-.22.56-.3.76-.44,1h4.18a12.33,12.33,0,0,0,1.57-.07,12.69,12.69,0,0,0-.07,1.62V17a12.16,12.16,0,0,0,.08,1.65H14.54V18H6.24v.65H4c.06-.63.1-1.12.1-1.67V14.4a9.82,9.82,0,0,0-.09-1.62,13.73,13.73,0,0,0,1.55.07h3a8.16,8.16,0,0,0,.48-1Zm-.93,4.33h8.3V14.75H6.24Zm1.35-6.06h5.59V8.94H7.59Z"/><path d="M29,7.91a14.1,14.1,0,0,0,2.57,3.47,13.77,13.77,0,0,0,3.44,2.54A7.58,7.58,0,0,0,33.8,16.1a16.26,16.26,0,0,1-2.73-2.2v1.7a16.34,16.34,0,0,0-1.66-.08H28.05v1a16.92,16.92,0,0,0,.12,2.15H25.72a17.19,17.19,0,0,0,.11-2.15v-1H24.61A16.34,16.34,0,0,0,23,15.6V13.92a15.42,15.42,0,0,1-2.63,2.22A6.73,6.73,0,0,0,19.11,14a14.87,14.87,0,0,0,3.37-2.81,15,15,0,0,0,2.28-3.32H21.69A14.88,14.88,0,0,0,19.64,8V5.72a14.41,14.41,0,0,0,2.05.12h4.14V4.74a9.62,9.62,0,0,0-.1-1.56h2.42a10.6,10.6,0,0,0-.1,1.56v1.1h4.34a13.93,13.93,0,0,0,2.09-.12V8a15.48,15.48,0,0,0-2.09-.12Zm-3.21,3.5c0-.51,0-1,.1-1.65a14.5,14.5,0,0,1-2.58,3.72,8.52,8.52,0,0,0,1.15,0h1.33Zm3.74,2.11a7.84,7.84,0,0,0,1.09,0A16.22,16.22,0,0,1,28,9.75a15.2,15.2,0,0,1,.1,1.63v2.14Z"/><path d="M40.34,8.64c.61,0,.93,0,1.15,0-.1,1.15-.2,2.12-.24,2.42a13.09,13.09,0,0,1-1.06,3.77c1.28,1.19,2.63,1.54,6,1.54,2.1,0,4-.07,5.57-.22a8.2,8.2,0,0,0-.5,2.19l-5,.05c-3.6,0-5.41-.49-7-1.89a12,12,0,0,1-2.1,2.29,6.27,6.27,0,0,0-1.37-1.89,9.59,9.59,0,0,0,2-2.07,16.27,16.27,0,0,1-.94-1.57l-.63-1.18,1.72-1A10.53,10.53,0,0,0,38.78,13a10.69,10.69,0,0,0,.6-2.45H37.73c-.47,0-.9,0-1.27.05V8.63a16.26,16.26,0,0,0,2.29-2.92H37.33a8.47,8.47,0,0,0-1.13.06v-2a8.73,8.73,0,0,0,1.22.07h1.9a6,6,0,0,0,1.18-.07l1,1.3c-.12.15-.37.55-.78,1.24-.29.45-.39.6-1.66,2.38Zm4.49-3H43a10.33,10.33,0,0,0-1.16,0V4a9.45,9.45,0,0,0,1.31.07h1.71a4.29,4.29,0,0,0-.09-1H47a4.11,4.11,0,0,0-.1,1h2.4A9.93,9.93,0,0,0,50.54,4a8.44,8.44,0,0,0,0,1.07v1.2a6.31,6.31,0,0,0,1.08-.1v1.9A7.09,7.09,0,0,0,50.49,8V9.21a8,8,0,0,0,0,1c-.4,0-.74-.05-1.14-.05H46.85V11H49.4a11,11,0,0,0,1.37-.06v1.73c-.37,0-.79-.05-1.37-.05H46.85v.77h3a9.28,9.28,0,0,0,1.47-.08V15c-.42,0-.87,0-1.47,0h-3a6.51,6.51,0,0,0,.08,1h-2.2a6.6,6.6,0,0,0,.1-1H42.62a12.37,12.37,0,0,0-1.4,0V13.28a11.37,11.37,0,0,0,1.42.07h2.19v-.77H43a10.08,10.08,0,0,0-1.28.07V10.9A9.72,9.72,0,0,0,43,11h1.81v-.78H42.94c-.45,0-.65,0-1,.05V8.59a6.71,6.71,0,0,0,1.15.07h1.77V7.93H42.37A10.42,10.42,0,0,0,41,8V6.32a9.2,9.2,0,0,0,1.46.07h2.37Zm3.69.73V5.66H46.85v.73ZM46.85,8.66h1.67V7.93H46.85Z"/><path d="M64.65,7.12a11.44,11.44,0,0,0,1.27,0,12.17,12.17,0,0,0-.06,1.49v1.65c0,.27,0,.3.31.3s.37,0,.4-.31a10.83,10.83,0,0,0,.07-1.59,5.89,5.89,0,0,0,1.55.65c0,2.67-.31,3-2.23,3-1,0-1.49-.1-1.74-.37S64,11.58,64,11L62.6,12a10.51,10.51,0,0,0-1.05-1.66,3.94,3.94,0,0,1-1,1.66h.85a4.12,4.12,0,0,0-.08,1H66a16.94,16.94,0,0,0,2.06-.1v2a19.68,19.68,0,0,0-2.06-.1H63a13.4,13.4,0,0,0,5.31,1.86,8.85,8.85,0,0,0-1.1,2.08A14.08,14.08,0,0,1,61.3,15.6c0,.12,0,.45.05,1v.7a6.33,6.33,0,0,0,.1,1.42H59.1a7.24,7.24,0,0,0,.1-1.44v-.68c0-.27,0-.27,0-.47,0,0,0-.25,0-.55a13.41,13.41,0,0,1-5.68,3,6.8,6.8,0,0,0-1.17-2,15.39,15.39,0,0,0,5.24-1.92H54.91a19.7,19.7,0,0,0-2,.1v-2a15.49,15.49,0,0,0,2,.1H59.2c0-.4,0-.56,0-.83a5.37,5.37,0,0,0-.87-.72c-.66.2-1.2.32-2.53.62-.82.17-.9.18-1.72.33l-.8.15-.39-2a14.72,14.72,0,0,0,2.47-.2V9h-.53a9.71,9.71,0,0,0-1.35.06V7.31l.25,0a8.08,8.08,0,0,0-1.12-1A6.71,6.71,0,0,0,55.07,3l2.14.33s-.15.29-.42.82h1.94a9.34,9.34,0,0,0,1.6-.08v1.3A5.26,5.26,0,0,0,61.58,3l2.12.33-.36.84h2.9a11.08,11.08,0,0,0,1.85-.1V6A12.29,12.29,0,0,0,66.34,6h-1l.15.23a3.13,3.13,0,0,1,.27.4l-1.52.53ZM59,10.78c.67-.65.87-1.29.87-2.79a8.51,8.51,0,0,0-.05-.92,5.56,5.56,0,0,0,.94,0,12.35,12.35,0,0,0-1.22-1L59.73,6l-.48,0H58.4c.2.33.26.47.5.9l-2,.4a8.09,8.09,0,0,0-.61-1.3h-.66a9.64,9.64,0,0,1-1.23,1.43h3.37a7.6,7.6,0,0,0,1.37-.06V9.09A9.3,9.3,0,0,0,58,9h-.66v1c.66-.13.9-.18,1.63-.36Zm4.86-3.66A7.67,7.67,0,0,0,63.29,6h-1a10.73,10.73,0,0,1-.93,1.16ZM64,8.83H61.77a7,7,0,0,1-.07.85l.88-.62A13.25,13.25,0,0,1,64,10.9Z"/><path class="cls-1" d="M14.54,21.69A3,3,0,0,1,12.67,21H8.11a3,3,0,0,1-1.87.65H4a3,3,0,0,1-3-3.31A12.62,12.62,0,0,0,1.14,17V14.4a6.66,6.66,0,0,0-.06-1.18,3,3,0,0,1,.37-1.94A3,3,0,0,1,0,8.34a6.29,6.29,0,0,0,.06-1V5.64a8.37,8.37,0,0,0,0-1A3,3,0,0,1,.9,2.26,3,3,0,0,1,3,1.37h.27c.43,0,.86.06,1.65.06H6.58a2.56,2.56,0,0,1,.2-.26A3,3,0,0,1,9,.15h2.41A3,3,0,0,1,13.73,1.2l.18.24h1.91c.77,0,1.23,0,1.64-.06h.28a3,3,0,0,1,3,3.39,7.61,7.61,0,0,0,0,.88V7.37a7.75,7.75,0,0,0,0,1A3,3,0,0,1,20,10.69a2.92,2.92,0,0,1-.69.58,3,3,0,0,1,.39,1.83,11.05,11.05,0,0,0-.05,1.3V17a9.19,9.19,0,0,0,.06,1.29,3,3,0,0,1-3,3.36Z"/><path class="cls-1" d="M25.72,21.69a3,3,0,0,1-3-3.09,3,3,0,0,1-.54-.1l-.16.12a3.06,3.06,0,0,1-1.7.52,2.8,2.8,0,0,1-.86-.13,3,3,0,0,1-1.92-1.74,3.8,3.8,0,0,0-.78-1.36,3,3,0,0,1,.79-4.44,10.46,10.46,0,0,0,1-.66,2.86,2.86,0,0,1-.88-.54,3,3,0,0,1-1-2.24V5.72a3,3,0,0,1,3-3,2.31,2.31,0,0,1,.37,0,14.08,14.08,0,0,0,1.68.09h1.06a3,3,0,0,1,.72-1.62,3,3,0,0,1,2.26-1h2.42a3,3,0,0,1,3,2.66h1.26a12.16,12.16,0,0,0,1.67-.09l.42,0a3,3,0,0,1,3,3V8a3,3,0,0,1-1,2.24,3.27,3.27,0,0,1-.85.53c.25.16.52.31.8.46a3,3,0,0,1,1,4.51,4.68,4.68,0,0,0-.84,1.49A3,3,0,0,1,34.67,19a2.91,2.91,0,0,1-.87.13,3.07,3.07,0,0,1-1.66-.49l-.2-.13a3.34,3.34,0,0,1-.77.12,3,3,0,0,1-.74,2.06,3,3,0,0,1-2.26,1Z"/><path class="cls-1" d="M37.13,21.76a3.51,3.51,0,0,1-.55-.05,3,3,0,0,1-2.09-1.54A3.4,3.4,0,0,0,33.64,19a3,3,0,0,1-.87-2.27,3,3,0,0,1,1.09-2.18l.21-.17c-.29-.57-.31-.6-.47-.89a3,3,0,0,1-.12-2.63c0-.1,0-.19,0-.28V8.63a3,3,0,0,1,.25-1.19,3,3,0,0,1-.51-1.67v-2a3,3,0,0,1,1-2.25,3,3,0,0,1,2-.75l.37,0a5.73,5.73,0,0,0,.85.05h1.9a5.18,5.18,0,0,0,.63,0A3.51,3.51,0,0,1,40.5.72a2.93,2.93,0,0,1,1.31.3l.35,0c.12,0,.22,0,.34,0a3,3,0,0,1,2.24-1H47a3,3,0,0,1,2.25,1h0a6.53,6.53,0,0,0,.9-.05l.39,0a3,3,0,0,1,2.09.85,3,3,0,0,1,.9,2.05,3,3,0,0,1,1,2.27v1.9a3,3,0,0,1-.88,2.12,3.25,3.25,0,0,1,.08.69v.57a3,3,0,0,1,.6,1.8v1.38a3,3,0,0,1,.21,2.47,5.69,5.69,0,0,0-.35,1.52,3,3,0,0,1-2.93,2.67l-5.09.05a16,16,0,0,1-6.39-1c-.23.22-.47.44-.73.66A3,3,0,0,1,37.13,21.76Z"/><path class="cls-1" d="M59.1,21.76a3,3,0,0,1-2.31-1.08,23.35,23.35,0,0,1-2.37.82,2.79,2.79,0,0,1-.85.13,3,3,0,0,1-2.77-1.84,3.72,3.72,0,0,0-.75-1.25,3,3,0,0,1-.47-2.9,3.64,3.64,0,0,1,.3-.59,1.27,1.27,0,0,1,0-.2v-2a2.92,2.92,0,0,1,.18-1l-.14-.72a3,3,0,0,1,.53-2.36V8.4a3,3,0,0,1,.3-4.49,3.74,3.74,0,0,0,1.48-1.83A3,3,0,0,1,55.07,0a2.49,2.49,0,0,1,.47,0l2.13.33a3.08,3.08,0,0,1,1.57.75A3,3,0,0,1,61.58,0a2.56,2.56,0,0,1,.47,0l2.12.33a3,3,0,0,1,1.61.8h.46a7.69,7.69,0,0,0,1.39-.07l.46,0a3,3,0,0,1,3,3V6a2.94,2.94,0,0,1-.42,1.53,3,3,0,0,1,.52,1.75A10.87,10.87,0,0,1,70.9,12a3.14,3.14,0,0,1,.13.86v2a2.69,2.69,0,0,1,0,.4l.08.15a3,3,0,0,1-.26,2.88A6.19,6.19,0,0,0,70,19.8a3,3,0,0,1-2.78,1.89,3,3,0,0,1-.84-.12,23.58,23.58,0,0,1-2.62-.91,3,3,0,0,1-2.32,1.1Z"/><path class="cls-2" d="M9.13,4.22A7.12,7.12,0,0,0,9,3.15h2.41a6.23,6.23,0,0,0-.09,1.05v.24h4.46c.83,0,1.39,0,1.92-.07a8.65,8.65,0,0,0-.07,1.27V7.37a10.65,10.65,0,0,0,.07,1.34H15.6V6.39H5.17V8.71H3a9.77,9.77,0,0,0,.08-1.35V5.64c0-.55,0-.9-.06-1.27.53,0,1.05.07,1.92.07H9.13Zm-2,7.59c-.85,0-1.18,0-1.73.06a11.26,11.26,0,0,0,.06-1.56V8.41a11.3,11.3,0,0,0,0-1.24,8.44,8.44,0,0,0,1.07,0h7.76a7.81,7.81,0,0,0,1,0c0,.29,0,.59,0,1.31v1.83a11,11,0,0,0,.05,1.56c-.48,0-.94-.06-1.74-.06H11.4c-.22.56-.3.76-.44,1h4.18a12.33,12.33,0,0,0,1.57-.07,12.69,12.69,0,0,0-.07,1.62V17a12.16,12.16,0,0,0,.08,1.65H14.54V18H6.24v.65H4c.06-.63.1-1.12.1-1.67V14.4a9.82,9.82,0,0,0-.09-1.62,13.73,13.73,0,0,0,1.55.07h3a8.16,8.16,0,0,0,.48-1Zm-.93,4.33h8.3V14.75H6.24Zm1.35-6.06h5.59V8.94H7.59Z"/><path class="cls-2" d="M29,7.91a14.1,14.1,0,0,0,2.57,3.47,13.77,13.77,0,0,0,3.44,2.54A7.58,7.58,0,0,0,33.8,16.1a16.26,16.26,0,0,1-2.73-2.2v1.7a16.34,16.34,0,0,0-1.66-.08H28.05v1a16.92,16.92,0,0,0,.12,2.15H25.72a17.19,17.19,0,0,0,.11-2.15v-1H24.61A16.34,16.34,0,0,0,23,15.6V13.92a15.42,15.42,0,0,1-2.63,2.22A6.73,6.73,0,0,0,19.11,14a14.87,14.87,0,0,0,3.37-2.81,15,15,0,0,0,2.28-3.32H21.69A14.88,14.88,0,0,0,19.64,8V5.72a14.41,14.41,0,0,0,2.05.12h4.14V4.74a9.62,9.62,0,0,0-.1-1.56h2.42a10.6,10.6,0,0,0-.1,1.56v1.1h4.34a13.93,13.93,0,0,0,2.09-.12V8a15.48,15.48,0,0,0-2.09-.12Zm-3.21,3.5c0-.51,0-1,.1-1.65a14.5,14.5,0,0,1-2.58,3.72,8.52,8.52,0,0,0,1.15,0h1.33Zm3.74,2.11a7.84,7.84,0,0,0,1.09,0A16.22,16.22,0,0,1,28,9.75a15.2,15.2,0,0,1,.1,1.63v2.14Z"/><path class="cls-2" d="M40.34,8.64c.61,0,.93,0,1.15,0-.1,1.15-.2,2.12-.24,2.42a13.09,13.09,0,0,1-1.06,3.77c1.28,1.19,2.63,1.54,6,1.54,2.1,0,4-.07,5.57-.22a8.2,8.2,0,0,0-.5,2.19l-5,.05c-3.6,0-5.41-.49-7-1.89a12,12,0,0,1-2.1,2.29,6.27,6.27,0,0,0-1.37-1.89,9.59,9.59,0,0,0,2-2.07,16.27,16.27,0,0,1-.94-1.57l-.63-1.18,1.72-1A10.53,10.53,0,0,0,38.78,13a10.69,10.69,0,0,0,.6-2.45H37.73c-.47,0-.9,0-1.27.05V8.63a16.26,16.26,0,0,0,2.29-2.92H37.33a8.47,8.47,0,0,0-1.13.06v-2a8.73,8.73,0,0,0,1.22.07h1.9a6,6,0,0,0,1.18-.07l1,1.3c-.12.15-.37.55-.78,1.24-.29.45-.39.6-1.66,2.38Zm4.49-3H43a10.33,10.33,0,0,0-1.16,0V4a9.45,9.45,0,0,0,1.31.07h1.71a4.29,4.29,0,0,0-.09-1H47a4.11,4.11,0,0,0-.1,1h2.4A9.93,9.93,0,0,0,50.54,4a8.44,8.44,0,0,0,0,1.07v1.2a6.31,6.31,0,0,0,1.08-.1v1.9A7.09,7.09,0,0,0,50.49,8V9.21a8,8,0,0,0,0,1c-.4,0-.74-.05-1.14-.05H46.85V11H49.4a11,11,0,0,0,1.37-.06v1.73c-.37,0-.79-.05-1.37-.05H46.85v.77h3a9.28,9.28,0,0,0,1.47-.08V15c-.42,0-.87,0-1.47,0h-3a6.51,6.51,0,0,0,.08,1h-2.2a6.6,6.6,0,0,0,.1-1H42.62a12.37,12.37,0,0,0-1.4,0V13.28a11.37,11.37,0,0,0,1.42.07h2.19v-.77H43a10.08,10.08,0,0,0-1.28.07V10.9A9.72,9.72,0,0,0,43,11h1.81v-.78H42.94c-.45,0-.65,0-1,.05V8.59a6.71,6.71,0,0,0,1.15.07h1.77V7.93H42.37A10.42,10.42,0,0,0,41,8V6.32a9.2,9.2,0,0,0,1.46.07h2.37Zm3.69.73V5.66H46.85v.73ZM46.85,8.66h1.67V7.93H46.85Z"/><path class="cls-2" d="M64.65,7.12a11.44,11.44,0,0,0,1.27,0,12.17,12.17,0,0,0-.06,1.49v1.65c0,.27,0,.3.31.3s.37,0,.4-.31a10.83,10.83,0,0,0,.07-1.59,5.89,5.89,0,0,0,1.55.65c0,2.67-.31,3-2.23,3-1,0-1.49-.1-1.74-.37S64,11.58,64,11L62.6,12a10.51,10.51,0,0,0-1.05-1.66,3.94,3.94,0,0,1-1,1.66h.85a4.12,4.12,0,0,0-.08,1H66a16.94,16.94,0,0,0,2.06-.1v2a19.68,19.68,0,0,0-2.06-.1H63a13.4,13.4,0,0,0,5.31,1.86,8.85,8.85,0,0,0-1.1,2.08A14.08,14.08,0,0,1,61.3,15.6c0,.12,0,.45.05,1v.7a6.33,6.33,0,0,0,.1,1.42H59.1a7.24,7.24,0,0,0,.1-1.44v-.68c0-.27,0-.27,0-.47,0,0,0-.25,0-.55a13.41,13.41,0,0,1-5.68,3,6.8,6.8,0,0,0-1.17-2,15.39,15.39,0,0,0,5.24-1.92H54.91a19.7,19.7,0,0,0-2,.1v-2a15.49,15.49,0,0,0,2,.1H59.2c0-.4,0-.56,0-.83a5.37,5.37,0,0,0-.87-.72c-.66.2-1.2.32-2.53.62-.82.17-.9.18-1.72.33l-.8.15-.39-2a14.72,14.72,0,0,0,2.47-.2V9h-.53a9.71,9.71,0,0,0-1.35.06V7.31l.25,0a8.08,8.08,0,0,0-1.12-1A6.71,6.71,0,0,0,55.07,3l2.14.33s-.15.29-.42.82h1.94a9.34,9.34,0,0,0,1.6-.08v1.3A5.26,5.26,0,0,0,61.58,3l2.12.33-.36.84h2.9a11.08,11.08,0,0,0,1.85-.1V6A12.29,12.29,0,0,0,66.34,6h-1l.15.23a3.13,3.13,0,0,1,.27.4l-1.52.53ZM59,10.78c.67-.65.87-1.29.87-2.79a8.51,8.51,0,0,0-.05-.92,5.56,5.56,0,0,0,.94,0,12.35,12.35,0,0,0-1.22-1L59.73,6l-.48,0H58.4c.2.33.26.47.5.9l-2,.4a8.09,8.09,0,0,0-.61-1.3h-.66a9.64,9.64,0,0,1-1.23,1.43h3.37a7.6,7.6,0,0,0,1.37-.06V9.09A9.3,9.3,0,0,0,58,9h-.66v1c.66-.13.9-.18,1.63-.36Zm4.86-3.66A7.67,7.67,0,0,0,63.29,6h-1a10.73,10.73,0,0,1-.93,1.16ZM64,8.83H61.77a7,7,0,0,1-.07.85l.88-.62A13.25,13.25,0,0,1,64,10.9Z"/></g></g></svg>