<svg viewBox="0 0 184.84 136.28" xmlns="http://www.w3.org/2000/svg"><g fill="#231815"><path d="m22.56 84.46q-3.55-2-4.34-3.41a9.1 9.1 0 0 1 -.78-4.23c0-2.91.93-4.36 2.81-4.36a2.05 2.05 0 0 1 2.21 1.74 15 15 0 0 1 .14 2.8v4.18a13.91 13.91 0 0 1 9 3.11 18.88 18.88 0 0 1 5.26 6.71v-12.09c0-4.51-.44-7.65-1.3-9.42-1-2.16-3.21-3.83-6.5-5a27.53 27.53 0 0 0 -9.32-1.49 23.82 23.82 0 0 0 -9.41 1.67 11 11 0 0 0 -6.22 6.11 22.4 22.4 0 0 0 -1.11 8q0 8.07 4.34 11.83a62.64 62.64 0 0 0 7.56 5.24q5.86 3.63 6.87 4.78 1.8 2 1.8 6.77 0 4.55-3 4.54a2.17 2.17 0 0 1 -2.12-.94q-.6-.73-.6-4v-6.8h-14.39v3.63a28 28 0 0 0 1.34 9.77q1.47 3.76 6.36 5.9a24.52 24.52 0 0 0 9.92 1.92 23.55 23.55 0 0 0 9.92-1.98q4.75-2.16 6.27-5.83a22.53 22.53 0 0 0 1-7.75q0-8.42-3.23-12.53-2.75-3.42-12.48-8.87z"/><path d="m103.25 62.54h-15.12l-.21-.93h6q9.34 0 12.61-2.26 2.46-1.68 3-5.82a50.64 50.64 0 0 0 .23-6.37v-17q0-6.22-.09-7a10.49 10.49 0 0 0 -2.9-6.58q-2.73-2.58-9.53-3.3c-1.9-.2-5.6-.3-11.08-.3h-11.16v44.13l-1 .23v-53.1a22.41 22.41 0 0 1 -5.19 6.25 12.27 12.27 0 0 1 -7.89 2.86v21.74l-8.86-21.92h-13.12v57.58a20.39 20.39 0 0 1 5.23-6.16 12.47 12.47 0 0 1 7.89-2.88v-22.05l7.72 20.89-6.14 1.39 1.86 8.23 3-.67.5 2.5h-20.07l.07 10.1h9.74v51.18a21.16 21.16 0 0 1 2.7-4.2 18.84 18.84 0 0 1 13.1-7.52v-39.46h9.46v-6l2.52-.57-6.73 45.89h17.09l4.63-45.72 4.62 45.73h1.7a18.74 18.74 0 0 1 16.85 10.19l-2.84-16.82zm-13.25-41.24a8.92 8.92 0 0 1 3.35.42q1.4.69 1.39 5.62v18.91c0 2.87 0 4.42-.09 4.66q-.75 2.42-4.65 2.41zm-24.53 54.11-2.91.66-2.18-9.63-2.94.66-.73-3.23 8.79-2 .74 3.23-2.95.67zm9.58-2.17-1.12-5-3.39.76 1.13 5-2.78.63-2.89-12.86 2.78-.63 1.12 5 3.38-.76-1.12-5 2.76-.63 2.91 12.86zm3.24-.74-2.91-12.85 9-2 .72 3.18-5.7 1.29.41 1.83 4.93-1.12.62 2.72-4.93 1.12.43 1.9 5.74-1.31.73 3.24z"/><path d="m5.71 57q4.6 5.17 15.31 5.17 9.57 0 14-4.75a9.62 9.62 0 0 0 2.53-4.52 44.5 44.5 0 0 0 .45-7.72v-42.18a19.35 19.35 0 0 1 -3.61 5 16 16 0 0 1 -10.82 5v23.13h3.95l-7 16.18-7-16.18h4v-23.08h-14.52v28.48a94.3 94.3 0 0 0 .36 10.65 9.19 9.19 0 0 0 2.35 4.82z"/><path d="m146.81 121.36h35v-9.79h-18.49v-10.76h5.05q0-5.34 12-9.31h-17.05v-9.31h18.52v-9.76h-35z"/><path d="m110.79 61.46h35.13v-9.7h-18.57v-10.67h5.06q0-5.28 12-9.22h-17.06v-9.22h18.57v-9.65h-35.13z"/><path d="m138.2 65.35a26.16 26.16 0 0 0 -10.32-1.94 23.63 23.63 0 0 0 -10.42 2.2c-3.12 1.52-5 3.52-5.77 6a38.85 38.85 0 0 0 -.86 9.79v14c0 1.66 0 3.09.09 4.28a15.14 15.14 0 0 0 1.09 5.4 11.58 11.58 0 0 0 4.91 5.25 17 17 0 0 0 8.66 2.22 13 13 0 0 0 5.52-1.07 9.37 9.37 0 0 0 3.85-3.29l1.4 3.4q8.39 1.66 9.52 10.08v-35.42h-17.68v7.19h3.07v5.56a10.93 10.93 0 0 1 -.59 4.41 2.3 2.3 0 0 1 -2.25 1.13 2.33 2.33 0 0 1 -2.44-2.11 26.92 26.92 0 0 1 -.09-3v-22.65c0-1.93 0-3 0-3.14q.41-2.25 2.34-2.25c1.41 0 2.24.86 2.48 2.58v7.77h15.11v-2a23.33 23.33 0 0 0 -1.36-8.85q-1.46-3.49-6.26-5.54z"/><path d="m179.45 38.7q-1.56-1.48-6.24-2.44 5.1-.39 6.87-2.36t1.76-7.65c0-4.16-.82-7.18-2.46-9q-2.88-3.24-9.46-4-2.14-.24-12-.24h-11v58.69a21.14 21.14 0 0 1 3.66-5.11 16.26 16.26 0 0 1 12-5.1v-21.81c2.45 0 3.93.61 4.46 1.83a15.56 15.56 0 0 1 .28 4v16.16h14.52v-12.83c0-4.06-.12-6.48-.37-7.24a7.34 7.34 0 0 0 -2.02-2.9zm-12.13-11c0 1.71-.19 2.79-.56 3.25-.56.76-1.95 1.14-4.18 1.14v-10.76c2 0 3.3.31 3.95.93a3.84 3.84 0 0 1 .79 2.79z"/></g><path d="m21.08 124.36a27.58 27.58 0 0 1 -11.08-2.17c-4-1.74-6.67-4.28-8-7.56-1-2.63-1.54-6.2-1.54-10.86v-3.63a3 3 0 0 1 3-3h7.91a54.33 54.33 0 0 1 -6-4.3c-3.56-3.1-5.37-7.84-5.37-14.1a24.93 24.93 0 0 1 1.32-9.06 13.86 13.86 0 0 1 7.83-7.76 26.74 26.74 0 0 1 10.59-1.92 30.66 30.66 0 0 1 10.33 1.67c4 1.43 6.8 3.62 8.19 6.52 1.09 2.22 1.6 5.63 1.6 10.73v12.08a3 3 0 0 1 -1.24 2.42c1.73 3.13 2.57 7.22 2.57 12.41 0 4-.38 6.85-1.18 8.86-1.33 3.2-3.95 5.69-7.82 7.45a26.6 26.6 0 0 1 -11.11 2.22z" fill="#fff"/><path d="m48.76 136.28a3 3 0 0 1 -3-3v-48.18h-6.76a3 3 0 0 1 -3-3l-.07-10.1a2.81 2.81 0 0 1 .06-.65 2.78 2.78 0 0 1 -.05-.58v-57.6a3 3 0 0 1 3-3h13.12a3 3 0 0 1 2.78 1.88l3 7.56v-6.26a3 3 0 0 1 3-3 9.26 9.26 0 0 0 6-2.2 19.17 19.17 0 0 0 4.46-5.4 3 3 0 0 1 2.7-1.5 3 3 0 0 1 .77.1 3 3 0 0 1 2.23 2.9v5.75h9.24c5.63 0 9.35.1 11.4.31 5.25.56 8.94 1.9 11.27 4.11a13.41 13.41 0 0 1 3.82 8.41c0 .32.11.93.11 7.32v17a45.51 45.51 0 0 1 -.27 6.86c-.49 3.54-1.94 6.2-4.3 7.81a10.3 10.3 0 0 1 -1.9 1l8.46 51.46 2.83 16.8a3 3 0 0 1 -2 3.36 2.94 2.94 0 0 1 -.92.14 3 3 0 0 1 -2.74-1.58 15.83 15.83 0 0 0 -14.16-8.53h-1.7a3 3 0 0 1 -3-2.7l-1.64-16.22-1.64 16.22a3 3 0 0 1 -3 2.7h-17.1a3 3 0 0 1 -2.27-1 3.69 3.69 0 0 1 -.29-.4 3 3 0 0 1 -2.3 1.55 15.83 15.83 0 0 0 -11 6.31l-.12.15a17.56 17.56 0 0 0 -2.31 3.59 3 3 0 0 1 -2.71 1.61zm18.8-20.52 4.5-30.66h-4.5zm-15.41-46.76-.95-4.2a9.63 9.63 0 0 0 -5.2 2.14 18.56 18.56 0 0 0 -2.14 2zm2.91-10.41.72-.16-.72-2z" fill="#fff"/><path d="m21 65.12c-8 0-13.88-2.12-17.53-6.12a12.26 12.26 0 0 1 -3.07-6.36 92.57 92.57 0 0 1 -.4-11.11v-28.44a3 3 0 0 1 3-3h14.44a3 3 0 0 1 3 3v23.04a3 3 0 0 1 -2.44 2.95l2.46 5.67 2.45-5.67a3 3 0 0 1 -2.41-2.95v-23.13a3 3 0 0 1 2.85-3 12.91 12.91 0 0 0 8.84-4.08 17 17 0 0 0 3.07-4.28 3 3 0 0 1 2.74-1.64 3.34 3.34 0 0 1 .7.08 3 3 0 0 1 2.3 2.92v42.18a45.85 45.85 0 0 1 -.51 8.27 12.63 12.63 0 0 1 -3.25 5.94c-3.56 3.8-8.99 5.73-16.24 5.73z" fill="#fff"/><path d="m146.81 124.36a3 3 0 0 1 -3-3v-48.93a3 3 0 0 1 3-3h35a3 3 0 0 1 3 3v9.76a3 3 0 0 1 -3 3h-15.49v3.31h14.05a3 3 0 0 1 .94 5.85c-9.22 3.05-9.94 5.71-9.94 6.46a3 3 0 0 1 -3 3h-2.05v4.76h15.52a3 3 0 0 1 3 3v9.79a3 3 0 0 1 -3 3z" fill="#fff"/><path d="m110.79 64.46a3 3 0 0 1 -3-3v-48.46a3 3 0 0 1 3-3h35.13a3 3 0 0 1 3 3v9.67a3 3 0 0 1 -3 3h-15.57v3.22h14.09a3 3 0 0 1 .93 5.85c-7.35 2.4-10 4.87-10 6.37a3 3 0 0 1 -3 3h-2.06v4.66h15.57a3 3 0 0 1 3 3v9.71a3 3 0 0 1 -3 3z" fill="#fff"/><path d="m145.86 124.64a3 3 0 0 1 -3-2.6c-.58-4.35-2.78-6.67-7.12-7.54a3 3 0 0 1 -1.85-1.19 11.42 11.42 0 0 1 -1.57.87 16.1 16.1 0 0 1 -6.77 1.34 19.94 19.94 0 0 1 -10.17-2.63 14.64 14.64 0 0 1 -6.15-6.63 17.73 17.73 0 0 1 -1.33-6.45c-.06-1.24-.1-2.73-.1-4.44v-14c0-4.93.32-8.41 1-10.64 1-3.29 3.43-5.92 7.34-7.83a26.75 26.75 0 0 1 11.73-2.5 29.27 29.27 0 0 1 11.49 2.17c3.94 1.68 6.6 4.08 7.9 7.13a25.81 25.81 0 0 1 1.6 10v2a3 3 0 0 1 -1 2.25 3 3 0 0 1 1 2.26v35.39a3 3 0 0 1 -2.8 3z" fill="#fff"/><path d="m146.9 74.7a3.34 3.34 0 0 1 -.7-.08 3 3 0 0 1 -2.3-2.92v-58.7a3 3 0 0 1 3-3h11c9 0 11.32.14 12.31.25 5.13.59 9 2.27 11.37 5 2.17 2.46 3.22 6.07 3.22 11 0 4.66-.8 7.73-2.53 9.65a6.81 6.81 0 0 1 -.72.7 10.15 10.15 0 0 1 2.73 4.06c.25.79.52 2.12.52 8.18v12.83a3 3 0 0 1 -3 3h-14.48a3 3 0 0 1 -2.44-1.25 3 3 0 0 1 -2.3 1.07 13.21 13.21 0 0 0 -9.87 4.2 18 18 0 0 0 -3.14 4.37 3 3 0 0 1 -2.67 1.64z" fill="#fff"/><path d="m22.56 84.46q-3.55-2-4.34-3.41a9.1 9.1 0 0 1 -.78-4.23c0-2.91.93-4.36 2.81-4.36a2.05 2.05 0 0 1 2.21 1.74 15 15 0 0 1 .14 2.8v4.18a13.91 13.91 0 0 1 9 3.11 18.88 18.88 0 0 1 5.26 6.71v-12.09c0-4.51-.44-7.65-1.3-9.42-1-2.16-3.21-3.83-6.5-5a27.53 27.53 0 0 0 -9.32-1.49 23.82 23.82 0 0 0 -9.41 1.67 11 11 0 0 0 -6.22 6.11 22.4 22.4 0 0 0 -1.11 8q0 8.07 4.34 11.83a62.64 62.64 0 0 0 7.56 5.24q5.86 3.63 6.87 4.78 1.8 2 1.8 6.77 0 4.55-3 4.54a2.17 2.17 0 0 1 -2.12-.94q-.6-.73-.6-4v-6.8h-14.39v3.63a28 28 0 0 0 1.34 9.77q1.47 3.76 6.36 5.9a24.52 24.52 0 0 0 9.92 1.92 23.55 23.55 0 0 0 9.92-1.98q4.75-2.16 6.27-5.83a22.53 22.53 0 0 0 1-7.75q0-8.42-3.23-12.53-2.75-3.42-12.48-8.87z" fill="#231815"/><path d="m103.25 62.54h-15.12l-.21-.93h6q9.34 0 12.61-2.26 2.46-1.68 3-5.82a50.64 50.64 0 0 0 .23-6.37v-17q0-6.22-.09-7a10.49 10.49 0 0 0 -2.9-6.58q-2.73-2.58-9.53-3.3c-1.9-.2-5.6-.3-11.08-.3h-11.16v44.13l-1 .23v-53.1a22.41 22.41 0 0 1 -5.19 6.25 12.27 12.27 0 0 1 -7.89 2.86v21.74l-8.86-21.92h-13.12v57.58a20.39 20.39 0 0 1 5.23-6.16 12.47 12.47 0 0 1 7.89-2.88v-22.05l7.72 20.89-6.14 1.39 1.86 8.23 3-.67.5 2.5h-20.07l.07 10.1h9.74v51.18a21.16 21.16 0 0 1 2.7-4.2 18.84 18.84 0 0 1 13.1-7.52v-39.46h9.46v-6l2.52-.57-6.73 45.89h17.09l4.63-45.72 4.62 45.73h1.7a18.74 18.74 0 0 1 16.85 10.19l-2.84-16.82zm-13.25-41.24a8.92 8.92 0 0 1 3.35.42q1.4.69 1.39 5.62v18.91c0 2.87 0 4.42-.09 4.66q-.75 2.42-4.65 2.41zm-24.53 54.11-2.91.66-2.18-9.63-2.94.66-.73-3.23 8.79-2 .74 3.23-2.95.67zm9.58-2.17-1.12-5-3.39.76 1.13 5-2.78.63-2.89-12.86 2.78-.63 1.12 5 3.38-.76-1.12-5 2.76-.63 2.91 12.86zm3.24-.74-2.91-12.85 9-2 .72 3.18-5.7 1.29.41 1.83 4.93-1.12.62 2.72-4.93 1.12.43 1.9 5.74-1.31.73 3.24z" fill="#231815"/><path d="m5.71 57q4.6 5.17 15.31 5.17 9.57 0 14-4.75a9.62 9.62 0 0 0 2.53-4.52 44.5 44.5 0 0 0 .45-7.72v-42.18a19.35 19.35 0 0 1 -3.61 5 16 16 0 0 1 -10.82 5v23.13h3.95l-7 16.18-7-16.18h4v-23.08h-14.52v28.48a94.3 94.3 0 0 0 .36 10.65 9.19 9.19 0 0 0 2.35 4.82z" fill="#231815"/><path d="m146.81 121.36h35v-9.79h-18.49v-10.76h5.05q0-5.34 12-9.31h-17.05v-9.31h18.52v-9.76h-35z" fill="#231815"/><path d="m110.79 61.46h35.13v-9.7h-18.57v-10.67h5.06q0-5.28 12-9.22h-17.06v-9.22h18.57v-9.65h-35.13z" fill="#231815"/><path d="m138.2 65.35a26.16 26.16 0 0 0 -10.32-1.94 23.63 23.63 0 0 0 -10.42 2.2c-3.12 1.52-5 3.52-5.77 6a38.85 38.85 0 0 0 -.86 9.79v14c0 1.66 0 3.09.09 4.28a15.14 15.14 0 0 0 1.09 5.4 11.58 11.58 0 0 0 4.91 5.25 17 17 0 0 0 8.66 2.22 13 13 0 0 0 5.52-1.07 9.37 9.37 0 0 0 3.85-3.29l1.4 3.4q8.39 1.66 9.52 10.08v-35.42h-17.68v7.19h3.07v5.56a10.93 10.93 0 0 1 -.59 4.41 2.3 2.3 0 0 1 -2.25 1.13 2.33 2.33 0 0 1 -2.44-2.11 26.92 26.92 0 0 1 -.09-3v-22.65c0-1.93 0-3 0-3.14q.41-2.25 2.34-2.25c1.41 0 2.24.86 2.48 2.58v7.77h15.11v-2a23.33 23.33 0 0 0 -1.36-8.85q-1.46-3.49-6.26-5.54z" fill="#231815"/><path d="m179.45 38.7q-1.56-1.48-6.24-2.44 5.1-.39 6.87-2.36t1.76-7.65c0-4.16-.82-7.18-2.46-9q-2.88-3.24-9.46-4-2.14-.24-12-.24h-11v58.69a21.14 21.14 0 0 1 3.66-5.11 16.26 16.26 0 0 1 12-5.1v-21.81c2.45 0 3.93.61 4.46 1.83a15.56 15.56 0 0 1 .28 4v16.16h14.52v-12.83c0-4.06-.12-6.48-.37-7.24a7.34 7.34 0 0 0 -2.02-2.9zm-12.13-11c0 1.71-.19 2.79-.56 3.25-.56.76-1.95 1.14-4.18 1.14v-10.76c2 0 3.3.31 3.95.93a3.84 3.84 0 0 1 .79 2.79z" fill="#231815"/></svg>