<svg viewBox="0 0 155.53 22.14" xmlns="http://www.w3.org/2000/svg"><path d="m5.12 12.06a16.78 16.78 0 0 0 -1.85.1v-2a13.9 13.9 0 0 0 1.85.1h4.46v-.82h-3.58a13.16 13.16 0 0 0 -1.52.07v-1.77a12.28 12.28 0 0 0 1.52.07h3.58v-.81h-3.93a15.31 15.31 0 0 0 -1.83.08v-1.94a15.72 15.72 0 0 0 1.83.1h1.81a8.24 8.24 0 0 0 -.94-1.31l2.06-.61a20.12 20.12 0 0 1 1.18 1.92h1.92a11.49 11.49 0 0 0 1-1.84l2.15.5a12.77 12.77 0 0 1 -.83 1.34h1.9a14.3 14.3 0 0 0 1.82-.1v1.93a14.71 14.71 0 0 0 -1.87-.07h-4.09v.82h3.71a12.6 12.6 0 0 0 1.53-.08v1.77a12.94 12.94 0 0 0 -1.52-.07h-3.72v.85h4.63a12.71 12.71 0 0 0 1.83-.1v2a11.11 11.11 0 0 0 -1.83-.1h-4.68c-.05.56-.06.61-.11.94h4.57a15.18 15.18 0 0 0 1.83-.11v2a17.41 17.41 0 0 0 -2-.1h-3.35a6.06 6.06 0 0 0 2.35 1.48 10.82 10.82 0 0 0 3.48.61 8.42 8.42 0 0 0 -.9 2.23 12.8 12.8 0 0 1 -4.22-1.28 8.23 8.23 0 0 1 -2.84-2.31 7.37 7.37 0 0 1 -2.07 2 11 11 0 0 1 -4.56 1.55 7.42 7.42 0 0 0 -.89-2.1 7.69 7.69 0 0 0 5.39-2.17h-2.9a17.36 17.36 0 0 0 -2 .1v-2a16.23 16.23 0 0 0 1.83.07h4a4.17 4.17 0 0 0 .12-.94z"/><path d="m25 4.25c-.17 1-.37 5.44-.37 8.33 0 1.62.09 2.19.41 2.66a2.4 2.4 0 0 0 2.08.83 4.09 4.09 0 0 0 3.88-2.84 10.72 10.72 0 0 0 .7-2.9 9.33 9.33 0 0 0 2.44 1.52c-.67 2.38-1.19 3.52-2 4.49a6.55 6.55 0 0 1 -5.14 2.13 5.77 5.77 0 0 1 -3.09-.75 3.8 3.8 0 0 1 -1.5-2 9.59 9.59 0 0 1 -.25-2.38c0-.75 0-1.84.06-4s.07-3.32.07-3.83a9.59 9.59 0 0 0 -.07-1.25z"/><path d="m40.05 5.15a19.72 19.72 0 0 0 -.15 2.76c0 4 .62 6.94 1.47 6.94.22 0 .42-.23.6-.68a14 14 0 0 0 .89-3 8.36 8.36 0 0 0 2 1.8c-.89 3.27-2 4.76-3.51 4.76-1.22 0-2.2-.89-2.9-2.62s-.92-3.83-1-8.89a9.22 9.22 0 0 0 -.07-1.11zm7.8.67a17.06 17.06 0 0 1 3.8 9.33l-2.52.94a16.85 16.85 0 0 0 -1-5 14.81 14.81 0 0 0 -2.41-4.28z"/><path d="m59.56 4.42a4.67 4.67 0 0 0 -.08-1h2.4a6.06 6.06 0 0 0 -.08 1h4.47a18.88 18.88 0 0 0 1.92-.07 7.7 7.7 0 0 0 -.06 1.19v1.22a8.65 8.65 0 0 0 .06 1.24h-2.13v-1.84h-10.45v1.84h-2.16a9.19 9.19 0 0 0 .09-1.22v-1.24c0-.42 0-.75-.07-1.19a18.88 18.88 0 0 0 1.92.07zm-5.3 9.78a17.56 17.56 0 0 0 -.07-1.77 15.36 15.36 0 0 0 1.73.07h9.79a15.77 15.77 0 0 0 1.75-.07 13.28 13.28 0 0 0 -.07 1.77v2.92a14.77 14.77 0 0 0 .09 1.88h-2.16v-.57h-9v.57h-2.17a14.31 14.31 0 0 0 .11-1.9zm11.91-3.4a7.45 7.45 0 0 0 0 1.2c-.53 0-1.08-.05-1.6-.05h-7.57c-.53 0-1 0-1.6.05a7.84 7.84 0 0 0 .06-1.2v-1a8.82 8.82 0 0 0 -.06-1.2c.53 0 1 .05 1.6.05h7.63c.62 0 1 0 1.58-.05a8.21 8.21 0 0 0 0 1.2zm-10.08-4.18a10.7 10.7 0 0 0 1.22 0h7a10.86 10.86 0 0 0 1.24 0v1.54a11.87 11.87 0 0 0 -1.24-.05h-7a11 11 0 0 0 -1.19.05zm.23 8.12h3.36v-.69h-3.36zm0 2.12h3.36v-.74h-3.36zm1.22-6.86v.67h6.56v-.67zm4.19 4.78h3.59v-.69h-3.59zm0 2.12h3.59v-.74h-3.59z"/><path d="m76.22 5.4a13.62 13.62 0 0 0 -.12-1.75h2.57a12.27 12.27 0 0 0 -.11 1.75v10.27h3.65v-7.45a11.11 11.11 0 0 0 -.1-1.61h2.46a12.76 12.76 0 0 0 -.1 1.61v8.52a19.64 19.64 0 0 0 .11 2.18h-2.37v-1.11h-9.38v1.11h-2.35a20.26 20.26 0 0 0 .1-2.15v-8.51a14.77 14.77 0 0 0 -.1-1.65h2.42a14.6 14.6 0 0 0 -.07 1.65v7.41h3.39z"/><path d="m87.48 7.72a20 20 0 0 1 2.88 2l-1.21 1.8a13.94 13.94 0 0 0 -2.88-2.17zm2.86 5.85a24.58 24.58 0 0 1 -1.64 4.43c-.13.26-.21.41-.36.66l-.22.39-1.84-1.64a13.69 13.69 0 0 0 2.34-5.09zm8.8-3.51a12.41 12.41 0 0 0 1.58-.07 9.72 9.72 0 0 0 -.06 1.34v1.17a10 10 0 0 0 0 1.28c-.54 0-.87 0-1.59 0h-5.84l-.15.7h7.07 1.26a7.06 7.06 0 0 0 -.1.84c-.14 1.87-.42 2.87-.91 3.3a3.73 3.73 0 0 1 -2.4.38c-.35 0-1.34 0-2-.07a5.51 5.51 0 0 0 -.57-1.84 23.77 23.77 0 0 0 2.44.15c.94 0 1-.1 1.15-1.23h-6.36c-.08.26-.13.4-.28.83l-2.17-.18a17.87 17.87 0 0 0 1.16-4.41h1.64 5.58v-.7h-6.13a12.23 12.23 0 0 0 -1.52.06v-1.61a11.65 11.65 0 0 0 1.52.07h.45c-.22-.18-.25-.2-.93-.68a2.83 2.83 0 0 0 1.66-2.89h-1.15a14.43 14.43 0 0 0 -1.78.07v-.92l-1.19 1.66a14.27 14.27 0 0 0 -2.67-2.21l1.29-1.55a15.25 15.25 0 0 1 2.57 1.94v-.9a16.24 16.24 0 0 0 1.92.1h2.27v-.12a6 6 0 0 0 -.07-1.05h2.32a6 6 0 0 0 -.07 1.05v.12h2.77a15.44 15.44 0 0 0 1.91-.1v2a15.67 15.67 0 0 0 -1.82-.08h-1.55v2.43a1 1 0 0 1 -.79 1.12zm-6.14-2.77a6.7 6.7 0 0 1 -1.9 2.5 4.71 4.71 0 0 0 -1.35-1.18 4.39 4.39 0 0 0 1.68-2zm2.64 2.77a4.09 4.09 0 0 0 -.37-1.57 6.15 6.15 0 0 0 .84.09c.37 0 .42 0 .42-.32v-1.77h-1c-.08 1.84-.4 2.62-1.4 3.57zm4.36-3.37a10.7 10.7 0 0 1 1.87 2.1l-1.47 1.15a9.64 9.64 0 0 0 -1.88-2.4z"/><path d="m111.54 4.15a7.14 7.14 0 0 0 -.49 1c-.15.33-.21.48-.4.85h4.34a3.57 3.57 0 0 0 1.2-.19l1.22 1.19a3.7 3.7 0 0 0 -.41 1 17.78 17.78 0 0 1 -3.42 6.51 17.35 17.35 0 0 1 -6.06 4.29 6.47 6.47 0 0 0 -1.72-2.15c4.5-1.75 7.11-4.38 8.48-8.58l-4.74.05a16.8 16.8 0 0 1 -3.86 4.26 6 6 0 0 0 -2-1.71 12.93 12.93 0 0 0 4.38-5 6.38 6.38 0 0 0 .8-2.12z"/><path d="m121 8.42a13.89 13.89 0 0 0 2.53.12h8a4.3 4.3 0 0 0 1.62-.16l1.12 1.23a5.5 5.5 0 0 0 -.47 1.05 12.26 12.26 0 0 1 -3.79 5.71 15.91 15.91 0 0 1 -4.55 2.41 7.44 7.44 0 0 0 -1.57-2.32 11.3 11.3 0 0 0 4.52-2.08 8.18 8.18 0 0 0 2.64-3.62h-7.6a20.27 20.27 0 0 0 -2.49.09zm1.41-4.1a13.12 13.12 0 0 0 2.3.13h5.48a10 10 0 0 0 2.27-.13v2.42a15.38 15.38 0 0 0 -2.24-.08h-5.56c-1.07 0-1.74 0-2.25.08z"/><path d="m150.58 6.86a5.44 5.44 0 0 0 -.37 1.21 15.22 15.22 0 0 1 -4.06 7.33 17.61 17.61 0 0 1 -5.44 3.49 7.68 7.68 0 0 0 -1.77-2.39 13.52 13.52 0 0 0 3.59-1.65 11.06 11.06 0 0 0 5-7h-7.31a20.3 20.3 0 0 0 -2.59.1v-2.51a17.43 17.43 0 0 0 2.63.11h7.57a6.9 6.9 0 0 0 .92 0 8.15 8.15 0 0 0 -.85-1.33l1.39-.52a10.77 10.77 0 0 1 1.32 2.24l-.66.25zm.63-3.86a8.75 8.75 0 0 1 1.32 2.19l-1.37.58a12 12 0 0 0 -1.3-2.24z"/><g fill="#fff"><path d="m17.63 22.14a3.59 3.59 0 0 1 -.47 0 15.88 15.88 0 0 1 -5.16-1.61 14.81 14.81 0 0 1 -1.38-.83c-.15.12-.31.23-.47.34a14 14 0 0 1 -5.72 2 3.17 3.17 0 0 1 -.53.05 3 3 0 0 1 -2.85-2.09 4.61 4.61 0 0 0 -.63-1.44 3 3 0 0 1 -.07-2.92 1.28 1.28 0 0 1 .15-.25 3 3 0 0 1 0-.42v-1.73a3 3 0 0 1 -.2-1.08v-2a3 3 0 0 1 .76-2 3 3 0 0 1 -.24-1.09v-1.93a3 3 0 0 1 1-2.25 3 3 0 0 1 2-.75h.29a3 3 0 0 1 1.55-1.08l2.05-.62a3.26 3.26 0 0 1 .87-.12 3 3 0 0 1 2.11.87 3 3 0 0 1 2-.79 3.25 3.25 0 0 1 .69.08l2.15.5a3 3 0 0 1 1.76 1.18 2.17 2.17 0 0 1 .36 0 3 3 0 0 1 3 3v1.91a3 3 0 0 1 -.21 1.12 3 3 0 0 1 .76 2v2a3.1 3.1 0 0 1 -.2 1.1v1.63a2.64 2.64 0 0 1 0 .28l.15.23a3 3 0 0 1 0 2.91 5.33 5.33 0 0 0 -.63 1.56 3 3 0 0 1 -2.89 2.24z"/><path d="m27 21.47a8.7 8.7 0 0 1 -4.71-1.22 6.84 6.84 0 0 1 -2.74-3.63v-.11a12.55 12.55 0 0 1 -.36-3.19c0-.77 0-1.87.06-4.11s.07-3.26.07-3.76a6.87 6.87 0 0 0 0-.93 3 3 0 0 1 3-3.32l2.85.05a3 3 0 0 1 2.25 1.09 3 3 0 0 1 .58 2.41c-.12.73-.33 4.87-.33 7.83v.36a1.66 1.66 0 0 0 .59-.84 7.15 7.15 0 0 0 .5-2.13 3 3 0 0 1 1.84-2.41 2.87 2.87 0 0 1 1.14-.23 3 3 0 0 1 1.85.67 6.5 6.5 0 0 0 1.8 1.13 3 3 0 0 1 1.68 3.56 13.27 13.27 0 0 1 -2.71 5.68 9.49 9.49 0 0 1 -7.36 3.1z"/><path d="m41.32 20.76c-1.44 0-4.1-.59-5.69-4.5-.92-2.31-1.13-5.05-1.23-10v-.06a5.73 5.73 0 0 0 0-.67 3 3 0 0 1 3-3.39h2.74a3 3 0 0 1 3 3.31 3 3 0 0 1 1.4-1.35l2.14-1a3 3 0 0 1 1.27-.28 3 3 0 0 1 2.21 1.08 20.25 20.25 0 0 1 4.47 10.9 3 3 0 0 1 -1.93 3.2l-2.52.94a2.91 2.91 0 0 1 -1 .19 3 3 0 0 1 -1.66-.51 2.87 2.87 0 0 1 -1.07-1.27c-1.02 1.73-2.58 3.41-5.13 3.41zm1.73-12.56a1.66 1.66 0 0 1 -.15-.33v.33z"/><path d="m65.32 22a3 3 0 0 1 -1.75-.57h-5.49a3 3 0 0 1 -1.76.57h-2.17a3 3 0 0 1 -3-3.37 12.85 12.85 0 0 0 .08-1.53v-2.9a13.89 13.89 0 0 0 -.06-1.5 3 3 0 0 1 .68-2.19 3 3 0 0 1 -1.4-2.91 6.92 6.92 0 0 0 .06-.86v-1.2c0-.27 0-.49 0-.75v-.21a3 3 0 0 1 3-3.23h.3a15.93 15.93 0 0 0 1.62 0h1.77a3 3 0 0 1 2.28-1h2.4a3 3 0 0 1 2.29 1h2.1 1.64.28a3 3 0 0 1 2.18.94 3 3 0 0 1 .79 2.51 4.69 4.69 0 0 0 0 .74v1.22a4.63 4.63 0 0 0 0 .79 3 3 0 0 1 -.72 2.38 2.87 2.87 0 0 1 -.68.58 3 3 0 0 1 .67 2.26 10.22 10.22 0 0 0 0 1.43v2.92a14.23 14.23 0 0 0 .06 1.54 3 3 0 0 1 -3 3.38z"/><path d="m82.21 21.92a3 3 0 0 1 -2.33-1.11h-4.71a3 3 0 0 1 -2.34 1.11h-2.35a3 3 0 0 1 -3-3.32c0-.46.08-.94.08-1.83v-8.51a10.06 10.06 0 0 0 -.06-1.26 3 3 0 0 1 3-3.38h2.6a3 3 0 0 1 3-3h2.57a3 3 0 0 1 2.27 1 3 3 0 0 1 .73 2h.44 2.46a3 3 0 0 1 3 3.35 9.47 9.47 0 0 0 -.08 1.26v8.52a14.3 14.3 0 0 0 .1 1.86 3 3 0 0 1 -3 3.32z"/><path d="m98 22c-.38 0-1.44 0-2.14-.07a3 3 0 0 1 -2.74-2.19 2.73 2.73 0 0 1 -.76.1h-.26l-1-.08-.39.67a3 3 0 0 1 -2.08 1.57 2.94 2.94 0 0 1 -.51.05 3 3 0 0 1 -2-.76l-1.83-1.64a3 3 0 0 1 -.29-4.26 9 9 0 0 0 1.42-3l-.72-.44a3 3 0 0 1 -.87-4.37l.54-.73a3.11 3.11 0 0 1 -.52-1.31 3 3 0 0 1 .66-2.34l1.29-1.55a3 3 0 0 1 2.34-1.1 3 3 0 0 1 1.58.45c.33.21.63.4.9.59h.09a2.17 2.17 0 0 1 .36 0 11.25 11.25 0 0 0 1.38.07.52.52 0 0 0 .1-.11 3 3 0 0 1 2.28-1h2.32a3 3 0 0 1 2.27 1l.11.13h.32a10.45 10.45 0 0 0 1.53-.08 2.36 2.36 0 0 1 .38 0 3 3 0 0 1 3 3v2a3.18 3.18 0 0 1 -.16 1 3 3 0 0 1 -.87 3.61l-.07.06v1.21a3 3 0 0 1 .69 2.57 2.4 2.4 0 0 0 0 .28v.25c-.14 1.95-.46 4-1.88 5.26l-.08.06a6.54 6.54 0 0 1 -4.39 1.1z"/><path d="m107.5 21.84a3 3 0 0 1 -2.64-1.57 3.72 3.72 0 0 0 -1.1-1.36 3 3 0 0 1 -.93-2.77 3 3 0 0 1 .78-1.53l-.27-.29a3.38 3.38 0 0 0 -1.23-1.05 3 3 0 0 1 -.14-5 10.12 10.12 0 0 0 3.42-3.89 4 4 0 0 0 .49-1.15 3 3 0 0 1 3-2.58 2.76 2.76 0 0 1 .57.06l2.68.52a3 3 0 0 1 2.15 1.77h.72.27a2.71 2.71 0 0 1 1-.18 3 3 0 0 1 2.07.88l1.22 1.2a3 3 0 0 1 .45 3.7c0 .1-.07.21-.12.38a20.79 20.79 0 0 1 -4 7.63 20.25 20.25 0 0 1 -7.06 5 3.09 3.09 0 0 1 -1.33.23z"/><path d="m125.51 21.78a3 3 0 0 1 -2.73-1.78 4.52 4.52 0 0 0 -1.08-1.56 3 3 0 0 1 .9-4.69 9.38 9.38 0 0 0 -1.26.06h-.33a3 3 0 0 1 -3-3v-2.39a3 3 0 0 1 1-2.26 2.51 2.51 0 0 1 .37-.27v-1.57a3 3 0 0 1 3-3 2.7 2.7 0 0 1 .49 0 10.71 10.71 0 0 0 1.81.09h5.48a7.33 7.33 0 0 0 1.69-.08 3.79 3.79 0 0 1 .58-.05 3 3 0 0 1 3 3v2.13l1.07 1.19a3 3 0 0 1 .34 3.57 5.37 5.37 0 0 0 -.22.54 15.27 15.27 0 0 1 -4.71 7 19.15 19.15 0 0 1 -5.34 2.86 3.06 3.06 0 0 1 -1.06.21z"/><path d="m140.71 21.89a3 3 0 0 1 -2.71-1.62 4.66 4.66 0 0 0 -1.22-1.64 3 3 0 0 1 1.23-5 10.19 10.19 0 0 0 2.88-1.33 8.62 8.62 0 0 0 1.72-1.42h-2.46a16.49 16.49 0 0 0 -2.15.12h-.37a3 3 0 0 1 -3-3v-2.56a3 3 0 0 1 3-3 3 3 0 0 1 .42 0 15.3 15.3 0 0 0 2.21.08h5.11a3 3 0 0 1 1.48-1.19l1.39-.52a2.74 2.74 0 0 1 .76-.14l1.16-.46a3 3 0 0 1 1.1-.21 3 3 0 0 1 2.35 1.14 11.77 11.77 0 0 1 1.75 2.92 3 3 0 0 1 -1.65 3.94l-.41.17c0 .1-.08.28-.19.7a18.31 18.31 0 0 1 -4.87 8.73 20.52 20.52 0 0 1 -6.31 4.07 2.94 2.94 0 0 1 -1.22.22z"/></g><path d="m5.12 12.06a16.78 16.78 0 0 0 -1.85.1v-2a13.9 13.9 0 0 0 1.85.1h4.46v-.82h-3.58a13.16 13.16 0 0 0 -1.52.07v-1.77a12.28 12.28 0 0 0 1.52.07h3.58v-.81h-3.93a15.31 15.31 0 0 0 -1.83.08v-1.94a15.72 15.72 0 0 0 1.83.1h1.81a8.24 8.24 0 0 0 -.94-1.31l2.06-.61a20.12 20.12 0 0 1 1.18 1.92h1.92a11.49 11.49 0 0 0 1-1.84l2.15.5a12.77 12.77 0 0 1 -.83 1.34h1.9a14.3 14.3 0 0 0 1.82-.1v1.93a14.71 14.71 0 0 0 -1.87-.07h-4.09v.82h3.71a12.6 12.6 0 0 0 1.53-.08v1.77a12.94 12.94 0 0 0 -1.52-.07h-3.72v.85h4.63a12.71 12.71 0 0 0 1.83-.1v2a11.11 11.11 0 0 0 -1.83-.1h-4.68c-.05.56-.06.61-.11.94h4.57a15.18 15.18 0 0 0 1.83-.11v2a17.41 17.41 0 0 0 -2-.1h-3.35a6.06 6.06 0 0 0 2.35 1.48 10.82 10.82 0 0 0 3.48.61 8.42 8.42 0 0 0 -.9 2.23 12.8 12.8 0 0 1 -4.22-1.28 8.23 8.23 0 0 1 -2.84-2.31 7.37 7.37 0 0 1 -2.07 2 11 11 0 0 1 -4.56 1.55 7.42 7.42 0 0 0 -.89-2.1 7.69 7.69 0 0 0 5.39-2.17h-2.9a17.36 17.36 0 0 0 -2 .1v-2a16.23 16.23 0 0 0 1.83.07h4a4.17 4.17 0 0 0 .12-.94z" fill="#231815"/><path d="m25 4.25c-.17 1-.37 5.44-.37 8.33 0 1.62.09 2.19.41 2.66a2.4 2.4 0 0 0 2.08.83 4.09 4.09 0 0 0 3.88-2.84 10.72 10.72 0 0 0 .7-2.9 9.33 9.33 0 0 0 2.44 1.52c-.67 2.38-1.19 3.52-2 4.49a6.55 6.55 0 0 1 -5.14 2.13 5.77 5.77 0 0 1 -3.09-.75 3.8 3.8 0 0 1 -1.5-2 9.59 9.59 0 0 1 -.25-2.38c0-.75 0-1.84.06-4s.07-3.32.07-3.83a9.59 9.59 0 0 0 -.07-1.25z" fill="#231815"/><path d="m40.05 5.15a19.72 19.72 0 0 0 -.15 2.76c0 4 .62 6.94 1.47 6.94.22 0 .42-.23.6-.68a14 14 0 0 0 .89-3 8.36 8.36 0 0 0 2 1.8c-.89 3.27-2 4.76-3.51 4.76-1.22 0-2.2-.89-2.9-2.62s-.92-3.83-1-8.89a9.22 9.22 0 0 0 -.07-1.11zm7.8.67a17.06 17.06 0 0 1 3.8 9.33l-2.52.94a16.85 16.85 0 0 0 -1-5 14.81 14.81 0 0 0 -2.41-4.28z" fill="#231815"/><path d="m59.56 4.42a4.67 4.67 0 0 0 -.08-1h2.4a6.06 6.06 0 0 0 -.08 1h4.47a18.88 18.88 0 0 0 1.92-.07 7.7 7.7 0 0 0 -.06 1.19v1.22a8.65 8.65 0 0 0 .06 1.24h-2.13v-1.84h-10.45v1.84h-2.16a9.19 9.19 0 0 0 .09-1.22v-1.24c0-.42 0-.75-.07-1.19a18.88 18.88 0 0 0 1.92.07zm-5.3 9.78a17.56 17.56 0 0 0 -.07-1.77 15.36 15.36 0 0 0 1.73.07h9.79a15.77 15.77 0 0 0 1.75-.07 13.28 13.28 0 0 0 -.07 1.77v2.92a14.77 14.77 0 0 0 .09 1.88h-2.16v-.57h-9v.57h-2.17a14.31 14.31 0 0 0 .11-1.9zm11.91-3.4a7.45 7.45 0 0 0 0 1.2c-.53 0-1.08-.05-1.6-.05h-7.57c-.53 0-1 0-1.6.05a7.84 7.84 0 0 0 .06-1.2v-1a8.82 8.82 0 0 0 -.06-1.2c.53 0 1 .05 1.6.05h7.63c.62 0 1 0 1.58-.05a8.21 8.21 0 0 0 0 1.2zm-10.08-4.18a10.7 10.7 0 0 0 1.22 0h7a10.86 10.86 0 0 0 1.24 0v1.54a11.87 11.87 0 0 0 -1.24-.05h-7a11 11 0 0 0 -1.19.05zm.23 8.12h3.36v-.69h-3.36zm0 2.12h3.36v-.74h-3.36zm1.22-6.86v.67h6.56v-.67zm4.19 4.78h3.59v-.69h-3.59zm0 2.12h3.59v-.74h-3.59z" fill="#231815"/><path d="m76.22 5.4a13.62 13.62 0 0 0 -.12-1.75h2.57a12.27 12.27 0 0 0 -.11 1.75v10.27h3.65v-7.45a11.11 11.11 0 0 0 -.1-1.61h2.46a12.76 12.76 0 0 0 -.1 1.61v8.52a19.64 19.64 0 0 0 .11 2.18h-2.37v-1.11h-9.38v1.11h-2.35a20.26 20.26 0 0 0 .1-2.15v-8.51a14.77 14.77 0 0 0 -.1-1.65h2.42a14.6 14.6 0 0 0 -.07 1.65v7.41h3.39z" fill="#231815"/><path d="m87.48 7.72a20 20 0 0 1 2.88 2l-1.21 1.8a13.94 13.94 0 0 0 -2.88-2.17zm2.86 5.85a24.58 24.58 0 0 1 -1.64 4.43c-.13.26-.21.41-.36.66l-.22.39-1.84-1.64a13.69 13.69 0 0 0 2.34-5.09zm8.8-3.51a12.41 12.41 0 0 0 1.58-.07 9.72 9.72 0 0 0 -.06 1.34v1.17a10 10 0 0 0 0 1.28c-.54 0-.87 0-1.59 0h-5.84l-.15.7h7.07 1.26a7.06 7.06 0 0 0 -.1.84c-.14 1.87-.42 2.87-.91 3.3a3.73 3.73 0 0 1 -2.4.38c-.35 0-1.34 0-2-.07a5.51 5.51 0 0 0 -.57-1.84 23.77 23.77 0 0 0 2.44.15c.94 0 1-.1 1.15-1.23h-6.36c-.08.26-.13.4-.28.83l-2.17-.18a17.87 17.87 0 0 0 1.16-4.41h1.64 5.58v-.7h-6.13a12.23 12.23 0 0 0 -1.52.06v-1.61a11.65 11.65 0 0 0 1.52.07h.45c-.22-.18-.25-.2-.93-.68a2.83 2.83 0 0 0 1.66-2.89h-1.15a14.43 14.43 0 0 0 -1.78.07v-.92l-1.19 1.66a14.27 14.27 0 0 0 -2.67-2.21l1.29-1.55a15.25 15.25 0 0 1 2.57 1.94v-.9a16.24 16.24 0 0 0 1.92.1h2.27v-.12a6 6 0 0 0 -.07-1.05h2.32a6 6 0 0 0 -.07 1.05v.12h2.77a15.44 15.44 0 0 0 1.91-.1v2a15.67 15.67 0 0 0 -1.82-.08h-1.55v2.43a1 1 0 0 1 -.79 1.12zm-6.14-2.77a6.7 6.7 0 0 1 -1.9 2.5 4.71 4.71 0 0 0 -1.35-1.18 4.39 4.39 0 0 0 1.68-2zm2.64 2.77a4.09 4.09 0 0 0 -.37-1.57 6.15 6.15 0 0 0 .84.09c.37 0 .42 0 .42-.32v-1.77h-1c-.08 1.84-.4 2.62-1.4 3.57zm4.36-3.37a10.7 10.7 0 0 1 1.87 2.1l-1.47 1.15a9.64 9.64 0 0 0 -1.88-2.4z" fill="#231815"/><path d="m111.54 4.15a7.14 7.14 0 0 0 -.49 1c-.15.33-.21.48-.4.85h4.34a3.57 3.57 0 0 0 1.2-.19l1.22 1.19a3.7 3.7 0 0 0 -.41 1 17.78 17.78 0 0 1 -3.42 6.51 17.35 17.35 0 0 1 -6.06 4.29 6.47 6.47 0 0 0 -1.72-2.15c4.5-1.75 7.11-4.38 8.48-8.58l-4.74.05a16.8 16.8 0 0 1 -3.86 4.26 6 6 0 0 0 -2-1.71 12.93 12.93 0 0 0 4.38-5 6.38 6.38 0 0 0 .8-2.12z" fill="#231815"/><path d="m121 8.42a13.89 13.89 0 0 0 2.53.12h8a4.3 4.3 0 0 0 1.62-.16l1.12 1.23a5.5 5.5 0 0 0 -.47 1.05 12.26 12.26 0 0 1 -3.79 5.71 15.91 15.91 0 0 1 -4.55 2.41 7.44 7.44 0 0 0 -1.57-2.32 11.3 11.3 0 0 0 4.52-2.08 8.18 8.18 0 0 0 2.64-3.62h-7.6a20.27 20.27 0 0 0 -2.49.09zm1.41-4.1a13.12 13.12 0 0 0 2.3.13h5.48a10 10 0 0 0 2.27-.13v2.42a15.38 15.38 0 0 0 -2.24-.08h-5.56c-1.07 0-1.74 0-2.25.08z" fill="#231815"/><path d="m150.58 6.86a5.44 5.44 0 0 0 -.37 1.21 15.22 15.22 0 0 1 -4.06 7.33 17.61 17.61 0 0 1 -5.44 3.49 7.68 7.68 0 0 0 -1.77-2.39 13.52 13.52 0 0 0 3.59-1.65 11.06 11.06 0 0 0 5-7h-7.31a20.3 20.3 0 0 0 -2.59.1v-2.51a17.43 17.43 0 0 0 2.63.11h7.57a6.9 6.9 0 0 0 .92 0 8.15 8.15 0 0 0 -.85-1.33l1.39-.52a10.77 10.77 0 0 1 1.32 2.24l-.66.25zm.63-3.86a8.75 8.75 0 0 1 1.32 2.19l-1.37.58a12 12 0 0 0 -1.3-2.24z" fill="#231815"/></svg>