<svg viewBox="0 0 140.64 70.3" xmlns="http://www.w3.org/2000/svg"><g fill="#2b2d3b"><path d="m19.73 18c-6.79-3.11-10.73 4.21-10.73 19.37s3.9 22.46 10.69 19.32c6.8-2.9 10.78-10 10.78-19.36s-3.94-16.45-10.74-19.33zm.6 35.88c-3.33 1.35-5.52-7.29-5.52-19.88.06-10.37 1.71-14.56 4.28-13.59 3.35 1.33 5.53 9.14 5.53 19.72 0 8.32-1.73 12.87-4.29 13.75z"/><path d="m38.83 24.69c-.23-.4-.4-.68-.83-.76-2.42-.46-4.85-1-7.27-1.58-.25-.07-.34 0-.34.35a.55.55 0 0 0 .32.56c1.13.74 1.87.9 2.32 2.73v21.67a4 4 0 0 1 -2.32 3.74.52.52 0 0 0 -.32.56c0 .36.09.42.34.35q3.24-.81 6.48-1.44c.25 0 .34-.14.34-.47s-.14-.37-.31-.37a2.47 2.47 0 0 1 -2.62-2.63v-19.4a167.19 167.19 0 0 0 12.7 21c.54.7.88.82 1.54.74.31 0 .34-.23.34-.89v-19.93c0-1.35.89-2.17 2.49-2.36.17 0 .31-.06.31-.34s-.08-.34-.34-.37q-3.33-.32-6.65-.78c-.26 0-.34 0-.34.31a.39.39 0 0 0 .31.44c1.57.54 2.63 1.57 2.63 3v10.31c-2.93-4.34-5.86-9.05-8.78-14.44z"/><path d="m53.37 47.91a.34.34 0 0 0 -.31.39c0 .27.09.32.34.3q4.07-.36 8.12-.54c1.69-.06 4.07-.06 8.07-.06.29 0 .4-.06.46-.54.14-1.13.72-4.08 1.12-5.58a.75.75 0 0 0 0-.2c0-.14-.08-.2-.22-.22a1 1 0 0 0 -.23-.06c-.18 0-.23.11-.35.31a9 9 0 0 1 -4.66 4.72 9.31 9.31 0 0 1 -3.81.25c-.34-.07-.94-.19-.94-.94v-8.26c.66 0 1.54 0 1.83.05a2.56 2.56 0 0 1 1.32.69 11.52 11.52 0 0 1 1.94 3.15c.09.26.2.34.46.25s.31-.11.31-.28 0-.09 0-.15a27.3 27.3 0 0 1 -.46-4.29 29.09 29.09 0 0 1 .46-4.26s0-.11 0-.14-.11-.23-.31-.28a.54.54 0 0 0 -.2 0c-.11 0-.2.08-.26.25a13.15 13.15 0 0 1 -1.92 3.18 2.58 2.58 0 0 1 -1.34.71c-.29 0-1.17.05-1.83.05v-8.82q1.26.06 2.52.09c2.49.08 4.8 1.8 5.92 4.75.06.2.11.31.31.31a1.2 1.2 0 0 0 .23-.05.17.17 0 0 0 .15-.2v-.17c-.23-1.39-.63-4.22-.72-5.36-.06-.39-.28-.51-.51-.51h-.09a35 35 0 0 1 -5 .18c-3.47-.11-6.94-.31-10.41-.62-.25 0-.34 0-.34.31a.35.35 0 0 0 .31.39c1.61.31 2.06.48 2.06 1.29v18.61c.04.81-.39.98-2.02 1.3z"/><path d="m77.06 47.32c-.17 0-.31.08-.31.34s.08.31.34.32q4.81.17 9.61.57c.26 0 .34 0 .34-.3a.35.35 0 0 0 -.31-.39c-1.6-.31-2.06-.48-2.06-1.28v-8.77h2.69a2.54 2.54 0 0 1 1.31.74 12.66 12.66 0 0 1 1.94 3.49c.09.28.2.38.46.3s.31-.11.31-.3a1.16 1.16 0 0 1 0-.16 33.6 33.6 0 0 1 -.45-4.74 35.56 35.56 0 0 1 .45-4.7 1.16 1.16 0 0 1 0-.16c0-.19-.11-.25-.31-.3a.51.51 0 0 0 -.2 0c-.12 0-.2.1-.26.29a14.59 14.59 0 0 1 -1.91 3.52 2.52 2.52 0 0 1 -1.34.77c-.29 0-2 0-2.69 0v-9.3c1-.07 2.06-.14 3.09-.23 2.48-.21 4.79 1.41 5.9 4.7.06.22.12.34.32.33a1 1 0 0 0 .23-.07c.11 0 .14-.11.14-.24v-.19c-.23-1.58-.63-4.76-.71-6-.06-.44-.29-.54-.52-.51h-.12a31.15 31.15 0 0 1 -5 .85c-3.66.34-7.32.56-11 .68-.26 0-.34.07-.34.33s.14.31.31.33c1.6.12 2.06.24 2.06 1v18c.09.84-.37.96-1.97 1.08z"/><path d="m95.63 48.8c-.17 0-.31.06-.31.35s.09.38.34.41c2.7.38 5.4.83 8.09 1.37 1.68.34 4 .88 8 2.07.28.08.4 0 .45-.67.15-1.62.71-5.87 1.11-8.09a1.16 1.16 0 0 0 0-.3.35.35 0 0 0 -.23-.37.79.79 0 0 0 -.23-.11c-.16 0-.22.15-.34.43-1.3 3.76-2.86 5.34-4.62 5.92a5.35 5.35 0 0 1 -2.27-.06 6.49 6.49 0 0 1 -1.5-.47 1.41 1.41 0 0 1 -.94-1.39v-10.35c.65 0 1.53 0 1.82.08a2.37 2.37 0 0 1 1.3.92 16.55 16.55 0 0 1 1.93 4.38c.09.36.2.49.46.4s.31-.13.31-.37c0 0 0-.12 0-.2a53.53 53.53 0 0 1 -.45-6 56.58 56.58 0 0 1 .45-5.94c0-.08 0-.16 0-.2 0-.24-.11-.31-.31-.36a.37.37 0 0 0 -.2 0c-.11 0-.2.14-.26.38a19.37 19.37 0 0 1 -1.9 4.45 2.49 2.49 0 0 1 -1.33 1c-.29 0-1.17.09-1.82.1v-11c.83-.14 1.67-.3 2.5-.46 2.47-.49 4.77 1.33 5.87 5.52.06.29.11.44.31.42a.67.67 0 0 0 .23-.11c.11-.05.14-.14.14-.31v-.24c-.23-2-.62-6.09-.71-7.72 0-.56-.28-.66-.51-.6h-.08a26.61 26.61 0 0 1 -4.93 1.57q-5.16 1.11-10.36 1.82c-.25 0-.34.11-.34.4s.14.34.31.35c1.6 0 2.06.09 2.06 1v21c.02.9-.44 1-2.04.98z"/><path d="m122.91 54.83c-1.92-.76-5.44-5.28-7.2-11.66 0-.32-.11-.5-.31-.52a.56.56 0 0 0 -.22.06.38.38 0 0 0 -.23.38v.26c.37 2.36.73 7 .82 8.74a1.34 1.34 0 0 0 .54 1 23.82 23.82 0 0 0 6.34 4.3c6 2.72 8.93-.58 8.93-9.69 0-8.82-2.77-14.18-7.38-16-4-1.73-5.55-3.36-5.55-5.95a6.14 6.14 0 0 1 4.4-6.06c2.31-.89 5.36 1.9 6.43 7.85.05.4.11.63.28.59a.62.62 0 0 0 .22-.16c.14-.09.17-.22.17-.46v-.36c-.25-2.89-.62-8.68-.7-11 0-.7-.08-.91-.31-.8a3.64 3.64 0 0 0 -.36.3 4.24 4.24 0 0 1 -1 .65 1.9 1.9 0 0 1 -.53.19 11.69 11.69 0 0 0 -4.22.7 12.93 12.93 0 0 0 -8 12.36c0 5.87 2.38 8.66 7.33 12.24a11.58 11.58 0 0 1 4.73 9.09c-.02 3.49-1.62 4.92-4.18 3.95z"/><path d="m131.39 9.36c-13.52 6.78-36.39 10.82-61.07 10.82s-47.55-4-61.07-10.82a.53.53 0 0 0 -.68.2.51.51 0 0 0 .16.69c12 8.07 35.58 13.07 61.59 13.07s49.61-5 61.59-13.07a.51.51 0 0 0 .16-.69.53.53 0 0 0 -.68-.2z"/><path d="m131.91 64.63c-12-8.06-35.58-13.07-61.59-13.07s-49.61 5-61.59 13.07a.51.51 0 0 0 -.16.69.52.52 0 0 0 .68.21c13.52-6.78 36.35-10.82 61.07-10.82s47.55 4 61.07 10.82a.68.68 0 0 0 .23 0 .5.5 0 0 0 .45-.26.51.51 0 0 0 -.16-.64z"/><path d="m2.36 36.81a54.2 54.2 0 0 0 3.46 19.82 79 79 0 0 1 -2.38-19.82 79 79 0 0 1 2.38-19.81 54.2 54.2 0 0 0 -3.46 19.81z"/><path d="m2.8 20.76a43.7 43.7 0 0 0 -2.8 16.05 43.7 43.7 0 0 0 2.8 16 63.71 63.71 0 0 1 -1.93-16 63.71 63.71 0 0 1 1.93-16.05z"/><path d="m138.28 36.81a54 54 0 0 0 -3.46-19.81 78.52 78.52 0 0 1 2.38 19.82 78.52 78.52 0 0 1 -2.38 19.82 54 54 0 0 0 3.46-19.83z"/><path d="m137.85 20.76a64.19 64.19 0 0 1 1.92 16.05 64.19 64.19 0 0 1 -1.92 16 43.92 43.92 0 0 0 2.79-16 43.92 43.92 0 0 0 -2.79-16.05z"/><path d="m105.16 65c.89-.55 1.82-1.06 2.78-1.54a40.42 40.42 0 0 0 -15.75-4.15 39.56 39.56 0 0 1 9.34 3c-.9.62-1.75 1.28-2.56 2a34.53 34.53 0 0 1 12.82 6.11 33.32 33.32 0 0 0 -6.63-5.42z"/><path d="m32.71 63.41c1 .48 1.88 1 2.77 1.54a33.25 33.25 0 0 0 -6.62 5.35 34.45 34.45 0 0 1 12.82-6.11c-.81-.68-1.67-1.34-2.56-2a39.33 39.33 0 0 1 9.33-3 40.42 40.42 0 0 0 -15.74 4.22z"/><path d="m37.8 8c-1.16.71-2.39 1.38-3.67 2a46 46 0 0 0 19 7.54 45.92 45.92 0 0 1 -11.27-5.3q1.81-1.24 3.43-2.6a37.33 37.33 0 0 1 -14.44-9.64 36.82 36.82 0 0 0 6.95 8z"/><path d="m106.51 10c-1.28-.62-2.5-1.29-3.67-2a36.56 36.56 0 0 0 7-8 37.25 37.25 0 0 1 -14.46 9.66q1.62 1.34 3.43 2.6a46 46 0 0 1 -11.26 5.3 46 46 0 0 0 18.96-7.56z"/><path d="m62.62 1.5v3.72h-.48v-3.72z"/><path d="m64.92 1.5 1.21 2.08 1.2-2.08h.44v3.72h-.48v-2.69l-1.16 2-1.13-2v2.69h-.48v-3.72z"/><path d="m70.11 1.5v3.72h-.48v-3.72z"/><path d="m73.59 2h-1.76v-.5h2.6l-1.87 3.23h1.76v.49h-2.6z"/><path d="m78.07 1.5h.48v2.62a1.28 1.28 0 0 1 -.37.75 1.23 1.23 0 0 1 -.9.38 1.26 1.26 0 0 1 -.89-.37 1.22 1.22 0 0 1 -.39-.88v-2.5h.48v2.5a.75.75 0 0 0 .23.55.78.78 0 0 0 1.11 0 .75.75 0 0 0 .25-.55z"/><path d="m61.64 7 1.2 2.08 1.21-2.08h.44v3.72h-.49v-2.65l-1.17 2-1.16-2v2.69h-.47v-3.76z"/><path d="m68.36 7h.48v2.66a1.27 1.27 0 0 1 -.37.76 1.22 1.22 0 0 1 -.89.37 1.26 1.26 0 0 1 -1.27-1.27v-2.52h.49v2.52a.71.71 0 0 0 .23.55.75.75 0 0 0 .55.23.71.71 0 0 0 .55-.23.75.75 0 0 0 .23-.55z"/><path d="m71.5 8.85a1.68 1.68 0 0 1 -.64-.38.81.81 0 0 1 -.25-.61.89.89 0 0 1 .87-.86.85.85 0 0 1 .62.26 1.06 1.06 0 0 1 .24.44l-.44.17a.79.79 0 0 0 -.14-.27.38.38 0 0 0 -.28-.12.36.36 0 0 0 -.27.12.34.34 0 0 0 -.12.27.38.38 0 0 0 .12.28 1.25 1.25 0 0 0 .35.23 1.7 1.7 0 0 1 .74.45 1.08 1.08 0 0 1 .35.81 1.18 1.18 0 0 1 -1.17 1.17 1.12 1.12 0 0 1 -.82-.35 1.31 1.31 0 0 1 -.34-.75l.47-.17a1 1 0 0 0 .21.59.69.69 0 0 0 1-1 1.51 1.51 0 0 0 -.5-.28z"/><path d="m74.69 7v3.72h-.48v-3.72z"/><path d="m79.32 9.87.36.32a2 2 0 0 1 -1.4.61 1.82 1.82 0 0 1 -1.34-.56 1.9 1.9 0 0 1 0-2.69 1.82 1.82 0 0 1 1.34-.55 2.08 2.08 0 0 1 1.4.61l-.36.32a1.59 1.59 0 0 0 -1-.44 1.36 1.36 0 0 0 -1 .42 1.34 1.34 0 0 0 -.41 1 1.35 1.35 0 0 0 .41 1 1.39 1.39 0 0 0 1 .41 1.54 1.54 0 0 0 1-.45z"/><path d="m59.15 12.58v.48h-1.31v1.14h1.31v.48h-1.31v1.62h-.48v-3.72z"/><path d="m62.73 12.58v.48h-1.52v1.14h1.52v.48h-1.52v1.13h1.52v.49h-2v-3.72z"/><path d="m65.29 14.39a1.6 1.6 0 0 1 -.64-.38.81.81 0 0 1 -.25-.61.85.85 0 0 1 .26-.61.82.82 0 0 1 .61-.25.84.84 0 0 1 .62.25 1.19 1.19 0 0 1 .24.44l-.44.17a.79.79 0 0 0 -.14-.27.38.38 0 0 0 -.28-.12.36.36 0 0 0 -.27.12.34.34 0 0 0 -.12.27.38.38 0 0 0 .12.28 1.25 1.25 0 0 0 .35.23 1.7 1.7 0 0 1 .74.45 1.07 1.07 0 0 1 .34.81 1.12 1.12 0 0 1 -.34.83 1.13 1.13 0 0 1 -.82.34 1.15 1.15 0 0 1 -.82-.34 1.37 1.37 0 0 1 -.34-.76l.47-.17a1 1 0 0 0 .21.59.69.69 0 0 0 1-1 1.51 1.51 0 0 0 -.5-.27z"/><path d="m69 13.06v3.24h-.48v-3.24h-.87v-.48h2.22v.48z"/><path d="m71.82 12.58v3.72h-.48v-3.72z"/><path d="m74.67 16.3-1.35-3.72h.51l1 2.66 1-2.66h.52l-1.42 3.72z"/><path d="m78.78 12.58 1.35 3.72h-.51l-.48-1.3h-1l-.48 1.32h-.51l1.35-3.72zm.22 1.92-.32-.87-.32.87z"/><path d="m81.61 16.3v-3.72h.48v3.23h1.33v.49z"/></g></svg>