<svg viewBox="0 0 65 28.04" xmlns="http://www.w3.org/2000/svg"><g fill="#2b2d3b"><path d="m54.42 23.61h-1.78v-2.13h1.78zm0-4.26h-1.78v-2.13h1.78zm0-4.26h-1.78v-2.09h1.78zm0-4.27h-1.78v-2.13h1.78zm0-4.26h-1.78v-2.13h1.78z"/><path d="m12.72 9.21h-7.54v2.4h2.57v7.22h2.41v-7.22h2.56z"/><path d="m49.64 9.21h-7.55v2.4h2.57v7.22h2.41v-7.22h2.57z"/><path d="m41.13 11.61v-2.4h-4.01-2.25-.16v9.62h.16 2.25 4.01v-2.4h-4.01v-1.21h2.9v-2.4h-2.9v-1.21z"/><path d="m13.85 9.21h2.41v9.63h-2.41z"/><path d="m33.59 18.83-4.03-5.13 4.03-4.49h-3.05l-2.09 2.32v-2.32h-2.4v9.62h2.4v-2.65l2.09 2.65z"/><path d="m21.31 16.43h-.31a1.21 1.21 0 0 1 -1.2-1.21v-2.4a1.21 1.21 0 0 1 1.2-1.21h.32a1.21 1.21 0 0 1 1.21 1.21h2.4a3.61 3.61 0 0 0 -3.61-3.61h-.32a3.61 3.61 0 0 0 -3.61 3.61v2.4a3.61 3.61 0 0 0 3.61 3.61h.32a3.61 3.61 0 0 0 3.61-3.61h-2.4a1.21 1.21 0 0 1 -1.22 1.21z"/><path d="m0 3.82v20.4a3.83 3.83 0 0 0 3.82 3.78h57.36a3.83 3.83 0 0 0 3.82-3.78v-20.4a3.65 3.65 0 0 0 -.08-.74 3.51 3.51 0 0 0 -.15-.53s0-.1 0-.15a3.85 3.85 0 0 0 -.77-1.16 3.79 3.79 0 0 0 -2.82-1.24h-57.36a3.83 3.83 0 0 0 -3.82 3.82zm61.18-1.27a1.27 1.27 0 0 1 1.27 1.27v20.4a1.27 1.27 0 0 1 -1.27 1.27h-57.36a1.27 1.27 0 0 1 -1.27-1.27v-20.4a1.27 1.27 0 0 1 1.27-1.27z"/></g></svg>