<svg viewBox="0 0 89.3 68.53" xmlns="http://www.w3.org/2000/svg"><g fill="#2b2d3b"><path d="m81.93 0h-74.56a7.38 7.38 0 0 0 -7.37 7.37v53.79a7.38 7.38 0 0 0 7.37 7.37h74.56a7.38 7.38 0 0 0 7.37-7.37v-53.79a7.38 7.38 0 0 0 -7.37-7.37zm-57.23 5.6a1.87 1.87 0 1 1 -1.87 1.86 1.86 1.86 0 0 1 1.87-1.86zm-7.79 0a1.87 1.87 0 1 1 -1.91 1.86 1.86 1.86 0 0 1 1.91-1.86zm-7.8 0a1.87 1.87 0 1 1 -1.86 1.86 1.87 1.87 0 0 1 1.86-1.86zm77.89 55.56a5.1 5.1 0 0 1 -5.1 5.1h-74.53a5.11 5.11 0 0 1 -5.1-5.1v-48.61h84.73z"/><path d="m15.57 46.62a.71.71 0 0 1 -.69-.54l-3.88-14h2l2.92 10.25 4-9.21a.72.72 0 0 1 .66-.44.75.75 0 0 1 .67.44l4 9.21 2.92-10.25h1.83l-3.85 14a.7.7 0 0 1 -.69.53.71.71 0 0 1 -.67-.44l-4.26-9.93-4.27 9.94a.72.72 0 0 1 -.69.44z"/><path d="m37.48 46.62a.73.73 0 0 1 -.7-.54l-3.85-14h1.93l2.92 10.25 4-9.21a.72.72 0 0 1 1.33 0l4 9.21 2.89-10.25h1.93l-3.93 14a.72.72 0 0 1 -.7.53.71.71 0 0 1 -.67-.44l-4.25-9.93-4.28 9.94a.71.71 0 0 1 -.62.44z"/><path d="m59.38 46.62a.73.73 0 0 1 -.7-.54l-3.85-14h1.93l2.92 10.25 4-9.21a.71.71 0 0 1 .66-.44.72.72 0 0 1 .66.44l4 9.21 2.92-10.25h1.93l-3.85 14a.72.72 0 0 1 -.7.53.69.69 0 0 1 -.66-.44l-4.26-9.93-4.38 9.94a.71.71 0 0 1 -.62.44z"/><path d="m78.28 45.36a1.26 1.26 0 0 1 -2.52 0 1.26 1.26 0 0 1 2.52 0z"/></g></svg>